<svg width="305" height="96" viewBox="0 0 305 96" fill="none" xmlns="http://www.w3.org/2000/svg">
	<g id="Group 2236">
		<g id="Frame" clip-path="url(#clip0_54_767)">
			<g id="Group">
				<g id="Isolation Mode">
					<g id="Group_2">
						<g id="Group_3" style="mix-blend-mode:screen" opacity="0.1">
							<path id="Vector" d="M14.69 83.8356L10.311 79.4555V12.3782L14.69 7.99805H227.655L251.511 31.8342H293.976L300.29 38.1497V79.4555L295.911 83.8356H14.69Z" fill="#00C7AC" stroke="#00EEFF" stroke-miterlimit="10" />
							<path id="Vector_2" d="M296.038 84.1913H14.5372L9.95459 79.6074V12.2245L14.5372 7.64062H227.808L251.663 31.5022H294.129L300.621 37.996V79.6074L296.038 84.1913ZM14.8173 83.5037H295.758L299.934 79.3273V38.2762L293.824 32.1643H251.358L227.503 8.30274H14.8173L10.642 12.4792V79.3273L14.8173 83.5037Z" fill="#53A6A5" />
						</g>
						<path id="Vector_3" d="M98.1193 92.8242H23.906V95.1671H98.1193V92.8242Z" fill="#D0D0D0" />
						<path id="Vector_4" d="M57.6902 84.4703L57.6393 81.7709H57.6902C57.9703 81.7709 58.2503 81.7709 58.5558 81.7709L58.6067 84.4703C58.3012 84.4703 57.9957 84.4703 57.6902 84.4703ZM54.8388 84.3684C54.5078 84.3684 54.1768 84.3175 53.8713 84.292L54.1259 81.5926C54.4314 81.6181 54.737 81.6435 55.0425 81.669L54.8388 84.3684ZM61.4072 84.292L61.1526 81.5926C61.4582 81.5672 61.7637 81.5417 62.0692 81.4908L62.3747 84.1647C62.0437 84.2156 61.7382 84.2411 61.4072 84.2665V84.292ZM51.0963 83.91C50.7653 83.8591 50.4598 83.7827 50.1289 83.7318L50.6635 81.0833C50.969 81.1342 51.2491 81.2106 51.5546 81.2361L51.0963 83.91ZM65.1497 83.7572L64.6405 81.1088C64.946 81.0578 65.2261 80.9814 65.5316 80.9305L66.1172 83.579C65.7862 83.6554 65.4807 83.7063 65.1497 83.7827V83.7572ZM47.4047 83.0951C47.0992 83.0187 46.7683 82.9168 46.4627 82.815L47.252 80.2175C47.532 80.2939 47.8375 80.3957 48.143 80.4721L47.4302 83.0696L47.4047 83.0951ZM68.8158 82.8659L68.0521 80.2684C68.3321 80.192 68.6376 80.0901 68.9177 79.9883L69.7578 82.5603C69.4523 82.6622 69.1213 82.7641 68.8158 82.8659ZM43.815 81.9237C43.5095 81.7963 43.204 81.6945 42.9239 81.5671L43.9678 79.0715C44.2478 79.1988 44.5279 79.3007 44.8079 79.4025L43.8405 81.9237H43.815ZM72.3801 81.6181L71.3617 79.1224C71.6418 78.9951 71.9218 78.8932 72.2019 78.7659L73.2966 81.2361C72.9911 81.3634 72.6856 81.4908 72.3801 81.6181ZM40.3526 80.3957C40.0725 80.2429 39.767 80.0901 39.4869 79.9373L40.7599 77.5435C41.0145 77.6963 41.2945 77.8237 41.5746 77.951L40.3526 80.3702V80.3957ZM75.7916 79.9883L74.5187 77.5945C74.7987 77.4417 75.0533 77.3143 75.3079 77.1615L76.6318 79.5044C76.3517 79.6572 76.0717 79.81 75.7662 79.9883H75.7916ZM37.0683 78.5367C36.7883 78.3584 36.5082 78.1802 36.2536 78.0019L37.7557 75.7609C38.0103 75.9392 38.2649 76.092 38.5195 76.2702L37.0683 78.5622V78.5367ZM79.0504 78.0528L77.5483 75.8118C77.8029 75.6336 78.0575 75.4808 78.3121 75.3025L79.8651 77.5181C79.6105 77.6963 79.3304 77.9001 79.0504 78.0783V78.0528ZM33.9878 76.3466C33.7332 76.1429 33.4786 75.9392 33.224 75.7355L34.9298 73.6472C35.1589 73.851 35.388 74.0292 35.6426 74.2075L33.9878 76.3466ZM82.08 75.7864L80.3743 73.6982C80.6034 73.4944 80.8325 73.3162 81.0617 73.1125L82.8183 75.1497C82.5637 75.3535 82.3092 75.5827 82.0546 75.7864H82.08ZM31.1109 73.8764C30.8818 73.6472 30.6526 73.418 30.398 73.1889L32.3075 71.2789C32.5112 71.4826 32.7403 71.7118 32.9694 71.9156L31.1109 73.8764ZM84.8805 73.2653L82.9711 71.3553C83.2002 71.1261 83.4039 70.9224 83.6076 70.6932L85.5679 72.5777C85.3388 72.8069 85.1097 73.0361 84.8805 73.2653ZM28.5141 71.1516C28.3104 70.8969 28.0813 70.6423 27.8776 70.3876L29.9652 68.6814C30.1689 68.9106 30.3471 69.1398 30.5508 69.369L28.5141 71.1516ZM87.4264 70.464L85.3388 68.7323C85.5425 68.5031 85.7207 68.2739 85.8989 68.0193L88.0375 69.6746C87.8338 69.9292 87.6301 70.1839 87.4264 70.4385V70.464ZM26.1718 68.1721C25.9936 67.8919 25.79 67.6373 25.6117 67.3572L27.8521 65.8547C28.0304 66.1093 28.1831 66.364 28.3613 66.6186L26.1464 68.1721H26.1718ZM89.6923 67.459L87.4519 65.9565C87.6301 65.7019 87.7829 65.4472 87.9611 65.1925L90.2269 66.6441C90.0487 66.9242 89.8705 67.1789 89.6923 67.459ZM24.1606 64.9888C24.0078 64.7087 23.8296 64.4031 23.6768 64.123L26.07 62.8497C26.2228 63.1043 26.3501 63.3845 26.5028 63.6391L24.1606 64.9888ZM91.6526 64.2248L89.285 62.9515C89.4377 62.6714 89.565 62.4168 89.7178 62.1366L92.1364 63.359C91.9836 63.6391 91.8309 63.9447 91.6781 64.2248H91.6526ZM22.4548 61.6018C22.3275 61.2963 22.2002 60.9907 22.0729 60.7105L24.5679 59.6664C24.6952 59.9466 24.797 60.2267 24.9243 60.5068L22.4548 61.6018ZM93.282 60.8124L90.787 59.7683C90.9143 59.4882 91.0162 59.208 91.118 58.9279L93.6385 59.9211C93.5112 60.2267 93.4093 60.5323 93.282 60.8379V60.8124ZM21.1055 58.0621C21.0036 57.7565 20.9018 57.4509 20.8 57.1198L23.3968 56.3304C23.4732 56.6105 23.575 56.9161 23.6768 57.1962L21.1055 58.0366V58.0621ZM94.5804 57.2472L91.9836 56.4577C92.06 56.1776 92.1618 55.872 92.2382 55.5919L94.835 56.3049C94.7587 56.6105 94.6568 56.9416 94.555 57.2472H94.5804ZM20.1126 54.4205C20.0362 54.1149 19.9853 53.7838 19.9089 53.4527L22.5566 52.918C22.6076 53.2236 22.6839 53.5291 22.7349 53.8093L20.0871 54.395L20.1126 54.4205ZM95.5224 53.5801L92.8747 53.0453C92.9256 52.7397 93.002 52.4596 93.0529 52.154L95.7261 52.6124C95.6752 52.9434 95.5988 53.249 95.5479 53.5801H95.5224ZM19.4761 50.677C19.4252 50.3459 19.3997 50.0148 19.3743 49.7093L22.0729 49.4546C22.0984 49.7602 22.1238 50.0658 22.1748 50.3459L19.5016 50.677H19.4761ZM96.0825 49.8366L93.3839 49.5564C93.4093 49.2509 93.4348 48.9453 93.4602 48.6397L96.1589 48.8434C96.1589 49.1745 96.108 49.5055 96.0825 49.8111V49.8366ZM19.196 46.908C19.196 46.5769 19.196 46.2459 19.196 45.9148V45.6602H21.8947V45.9148C21.8947 46.2204 21.8947 46.526 21.8947 46.8316L19.196 46.908ZM93.5621 46.0421V45.8894C93.5621 45.6347 93.5621 45.38 93.5621 45.1254L96.2607 45.0744C96.2607 45.3546 96.2607 45.6347 96.2607 45.9148L93.5621 46.0421ZM21.9965 43.0626L19.2979 42.8589C19.3233 42.5278 19.3488 42.1968 19.3743 41.8912L22.0729 42.1713C22.0475 42.4769 22.022 42.7825 21.9965 43.0881V43.0626ZM93.4093 42.5279C93.3839 42.2223 93.3584 41.9167 93.3075 41.6111L95.9807 41.28C96.0316 41.6111 96.0571 41.9167 96.0825 42.2477L93.3839 42.5024L93.4093 42.5279ZM22.4294 39.5738L19.7561 39.0899C19.8071 38.7589 19.8834 38.4533 19.9344 38.1222L22.5821 38.657C22.5312 38.9626 22.4548 39.2427 22.4039 39.5483L22.4294 39.5738ZM92.9001 39.039C92.8492 38.7334 92.7728 38.4533 92.7219 38.1477L95.3697 37.562C95.446 37.893 95.497 38.1986 95.5733 38.5297L92.9256 39.039H92.9001ZM23.2186 36.1614L20.6218 35.4228C20.6981 35.1173 20.8 34.7862 20.9018 34.4806L23.4732 35.2701C23.3713 35.5502 23.295 35.8558 23.2186 36.1359V36.1614ZM92.06 35.6266C91.9836 35.3465 91.8818 35.0409 91.7799 34.7607L94.3513 33.9204C94.4531 34.2259 94.555 34.5315 94.6314 34.8626L92.0345 35.6266H92.06ZM24.3388 32.8253L21.8183 31.8322C21.9456 31.5266 22.0729 31.221 22.1748 30.9154L24.6698 31.9595C24.5425 32.2396 24.4406 32.5197 24.3388 32.7999V32.8253ZM90.8889 32.316C90.7616 32.0359 90.6597 31.7558 90.5324 31.4756L93.002 30.3806C93.1293 30.6862 93.2566 30.9918 93.3839 31.2719L90.8889 32.2905V32.316ZM25.7645 29.6166L23.3459 28.3942C23.4986 28.1141 23.6514 27.8085 23.8041 27.5284L26.1718 28.8272C26.0191 29.0818 25.8918 29.362 25.739 29.6421L25.7645 29.6166ZM89.3868 29.1328C89.234 28.8526 89.1067 28.598 88.954 28.3433L91.2962 27.0191C91.449 27.2992 91.6272 27.5793 91.7799 27.8849L89.3868 29.1582V29.1328ZM27.5212 26.5862L25.2553 25.1346C25.4335 24.8545 25.6117 24.5744 25.79 24.3197L28.0304 25.8477C27.8521 26.1023 27.6994 26.357 27.5212 26.6116V26.5862ZM87.6046 26.1023C87.4264 25.8477 87.2737 25.593 87.0955 25.3383L89.3104 23.7849C89.4886 24.065 89.6923 24.3197 89.8705 24.5998L87.6301 26.1023H87.6046ZM29.5834 23.7085L27.4703 22.0278C27.6739 21.7731 27.8776 21.5184 28.0813 21.2638L30.1689 22.9955C29.9652 23.2247 29.787 23.4539 29.5834 23.7085ZM85.517 23.2756C85.3133 23.0464 85.1351 22.8172 84.9314 22.5625L86.9936 20.8054C87.1973 21.0601 87.4264 21.3147 87.6301 21.5439L85.5425 23.2501L85.517 23.2756ZM31.8747 21.0855L29.9143 19.201C30.1435 18.9718 30.3726 18.7427 30.6017 18.5135L32.5112 20.4234C32.282 20.6271 32.0784 20.8563 31.8747 21.0855ZM83.1493 20.6781C82.9456 20.4489 82.7165 20.2451 82.4874 20.0414L84.3713 18.0805C84.6005 18.3097 84.8296 18.5389 85.0587 18.7681L83.1238 20.6781H83.1493ZM34.4206 18.6663L32.6639 16.6035C32.9185 16.3998 33.1731 16.1961 33.4277 15.9669L35.1334 18.0551C34.9043 18.2588 34.6752 18.4371 34.4206 18.6408V18.6663ZM80.5525 18.2843C80.3233 18.0805 80.0688 17.9023 79.8396 17.6985L81.5199 15.5849C81.7745 15.7886 82.0291 15.9923 82.2837 16.1961L80.5525 18.2843ZM37.1956 16.5016L35.6426 14.2861C35.9227 14.1079 36.1773 13.9041 36.4573 13.7259L37.9594 15.9923C37.7048 16.1706 37.4502 16.3234 37.1956 16.5016ZM77.7265 16.1706C77.4719 15.9923 77.2173 15.8395 76.9627 15.6613L78.4139 13.3948C78.694 13.5731 78.9486 13.7513 79.2286 13.9296L77.7265 16.1706ZM40.1489 14.6172L38.825 12.2488C39.1051 12.096 39.3851 11.9432 39.6906 11.7905L40.9636 14.1842C40.6835 14.337 40.4289 14.4644 40.1489 14.6172ZM74.7223 14.337C74.4423 14.1842 74.1877 14.0569 73.9077 13.9041L75.1297 11.4849C75.4097 11.6377 75.7153 11.7905 75.9953 11.9432L74.7223 14.3116V14.337ZM43.3058 13.0383L42.2111 10.5681C42.5166 10.4408 42.8221 10.3134 43.1021 10.1861L44.1205 12.6818C43.8405 12.8091 43.5604 12.911 43.2804 13.0383H43.3058ZM71.5654 12.8091C71.2854 12.6818 71.0053 12.5799 70.7253 12.478L71.7182 9.9569C72.0237 10.0842 72.3292 10.1861 72.6092 10.3134L71.5654 12.8091ZM46.6155 11.765L45.7753 9.19292C46.0809 9.09106 46.4118 8.9892 46.7173 8.9128L47.4811 11.5103C47.2011 11.5867 46.8955 11.6886 46.6155 11.7905V11.765ZM68.2812 11.6122C67.9757 11.5103 67.6956 11.4339 67.3901 11.3575L68.1284 8.76C68.4339 8.8364 68.7395 8.93826 69.0704 9.04013L68.2812 11.6377V11.6122ZM50.0016 10.8482L49.416 8.19975C49.747 8.12335 50.0525 8.07242 50.3834 7.99602L50.8926 10.6445C50.5871 10.6954 50.3071 10.7718 50.0016 10.8227V10.8482ZM64.8697 10.7463C64.5642 10.6954 64.2841 10.619 63.9786 10.5681L64.4369 7.89416C64.7678 7.94509 65.0733 8.02149 65.4043 8.07242L64.8697 10.7209V10.7463ZM53.464 10.288L53.1585 7.61403C53.4895 7.5631 53.795 7.53764 54.1259 7.51217L54.3805 10.2116C54.075 10.237 53.7695 10.2625 53.464 10.3134V10.288ZM61.4072 10.237C61.1017 10.2116 60.7962 10.1861 60.4907 10.1606L60.6944 7.46124C61.0253 7.4867 61.3309 7.51217 61.6618 7.53764L61.3818 10.237H61.4072ZM56.9773 10.0588L56.9264 7.35938C57.181 7.35938 57.4611 7.35938 57.7157 7.35938H57.8939V10.0588H57.7157C57.4611 10.0588 57.2319 10.0588 56.9773 10.0588Z" fill="#00EEFF" />
						<path id="Vector_5" d="M61.28 85.9224L61.0254 83.223C69.6815 82.4335 77.8284 78.6646 83.9895 72.5527L85.8989 74.4627C79.305 81.0074 70.5471 85.0565 61.28 85.8969V85.9224Z" fill="#00EEFF" />
						<path id="Vector_6" d="M94.9115 42.5545C94.0205 32.6228 89.3106 23.6078 81.6474 17.2159C73.9842 10.8239 64.2843 7.79346 54.3552 8.68477L53.9988 4.63568C65.0226 3.64251 75.7663 7.00402 84.2696 14.0836C92.773 21.1631 97.9921 31.1457 98.985 42.1725L94.937 42.529L94.9115 42.5545Z" fill="#00EEFF" />
						<path id="Vector_7" d="M57.6648 79.7346C40.378 79.7346 25.6118 66.4923 24.0333 48.9718C23.2186 39.9823 25.9682 31.1965 31.7474 24.2698C37.5266 17.3431 45.6735 13.0648 54.6606 12.2499C63.6476 11.435 72.431 14.1853 79.3559 19.9661C86.2808 25.7468 90.5579 33.8959 91.3726 42.8854C93.0529 61.4501 79.305 77.9266 60.7453 79.6073C59.7269 79.7092 58.7086 79.7346 57.6902 79.7346H57.6648ZM57.7411 13.4722C56.7482 13.4722 55.7553 13.5232 54.7624 13.5996C46.1318 14.389 38.3158 18.4636 32.7658 25.1357C27.2157 31.7823 24.5934 40.2115 25.3572 48.8444C26.9611 66.6706 42.7712 79.8874 60.5926 78.2576C78.4139 76.6533 91.6017 60.8389 89.9978 43.0127C89.2086 34.3798 85.1351 26.5617 78.4648 21.0102C72.5838 16.0952 65.3025 13.4722 57.7411 13.4722Z" fill="#D0D0D0" />
						<path id="Vector_8" d="M90.7109 45.9161H86.6629C86.6629 29.9489 73.6787 16.9358 57.6904 16.9358V12.8867C75.8937 12.8867 90.7109 27.7079 90.7109 45.9161Z" fill="#D0D0D0" />
						<path id="Vector_9" d="M58.3523 3.92188H57.0029V8.70947H58.3523V3.92188Z" fill="#00FFFF" />
						<path id="Vector_10" d="M58.3523 83.1211H57.0029V87.9087H58.3523V83.1211Z" fill="#00EEFF" />
						<path id="Vector_11" d="M31.2892 45.2266H13.0095V46.5763H31.2892V45.2266Z" fill="#00EEFF" />
						<path id="Vector_12" d="M102.346 45.2266H84.0659V46.5763H102.346V45.2266Z" fill="#00EEFF" />
						<path id="Vector_13" d="M103.033 41.4336H101.684V50.3721H103.033V41.4336Z" fill="#00EEFF" />
						<path id="Vector_14" d="M248.735 7.91992H178.646V11.969H248.735V7.91992Z" fill="#D0D0D0" />
						<path id="Vector_15" d="M0 18.3361V16.9609L10.4128 21.01V22.3852L0 18.3361ZM10.4128 27.0964V25.7212L0 21.6721V23.0473L10.4128 27.0964ZM10.4128 31.8076V30.4324L0 26.3833V27.7585L10.4128 31.8076ZM10.4128 36.5188V35.1436L0 31.0945V32.4697L10.4128 36.5188Z" fill="#D0D0D0" />
						<path id="Vector_16" d="M297.846 88.5707H12.7294L5.57544 81.4147V10.4157L12.7294 3.25977H229.616L253.471 27.1214H295.936L305 36.1872V81.4147L297.846 88.5707ZM13.2895 87.221H297.286L303.651 80.8545V36.7475L295.376 28.4711H252.911L229.055 4.60946H13.2895L6.92477 10.9759V80.8545L13.2895 87.221Z" fill="#00EEFF" />
						<path id="Vector_17" d="M300.646 71.7384H297.948V70.7962H300.646V71.7384ZM300.646 68.0968H297.948V67.1545H300.646V68.0968ZM300.646 64.4551H297.948V63.5129H300.646V64.4551ZM300.646 60.8135H297.948V59.8713H300.646V60.8135ZM300.646 57.1719H297.948V56.2296H300.646V57.1719ZM300.646 53.5302H297.948V52.588H300.646V53.5302ZM300.646 49.8886H297.948V48.9464H300.646V49.8886ZM300.646 46.247H297.948V45.3047H300.646V46.247ZM300.646 42.6054H297.948V41.6631H300.646V42.6054ZM300.646 38.9637H297.948V38.0215H300.646V38.9637Z" fill="#00EEFF" />
						<path id="Vector_18" d="M32.8168 82.2304C30.169 80.4224 27.7249 78.3087 25.5355 75.9658C23.3969 73.6739 21.4875 71.1528 19.8835 68.4788L23.3714 66.3906C24.8226 68.8354 26.5538 71.1273 28.4887 73.19C30.4745 75.3292 32.7149 77.2391 35.1081 78.8944L32.8168 82.2304Z" fill="#D0D0D0" />
						<path id="Vector_19" d="M102.269 7.86898H100.614V0H102.269V7.86898ZM105.502 0H103.848V7.86898H105.502V0ZM108.736 0H107.081V7.86898H108.736V0ZM111.969 0H110.314V7.86898H111.969V0ZM115.202 0H113.547V7.86898H115.202V0ZM118.436 0H116.781V7.86898H118.436V0ZM121.669 0H120.014V7.86898H121.669V0ZM124.902 0H123.247V7.86898H124.902V0ZM128.136 0H126.481V7.86898H128.136V0ZM131.369 0H129.714V7.86898H131.369V0ZM134.602 0H132.947V7.86898H134.602V0ZM137.835 0H136.181V7.86898H137.835V0ZM141.069 0H139.414V7.86898H141.069V0ZM144.302 0H142.647V7.86898H144.302V0ZM147.535 0H145.881V7.86898H147.535V0ZM150.769 0H149.114V7.86898H150.769V0ZM154.002 0H152.347V7.86898H154.002V0ZM157.235 0H155.58V7.86898H157.235V0ZM160.469 0H158.814V7.86898H160.469V0ZM163.702 0H162.047V7.86898H163.702V0ZM166.935 0H165.28V7.86898H166.935V0ZM170.169 0H168.514V7.86898H170.169V0ZM173.402 0H171.747V7.86898H173.402V0Z" fill="#D0D0D0" />
						<path id="Vector_20" d="M165.357 91.4746H80.96V92.8243H165.357V91.4746Z" fill="#D0D0D0" />
						<path id="Vector_21" d="M58.1486 77.5953V76.2456H58.6578L58.7087 77.5953H58.1486ZM56.7738 77.5953H56.2392L56.2901 76.2201H56.8248L56.7738 77.5953ZM60.0835 77.5189L59.9817 76.1692L60.5163 76.1183L60.6436 77.468L60.0835 77.5189ZM54.839 77.468L54.3043 77.417L54.4316 76.0673L54.9663 76.1183L54.839 77.468ZM61.993 77.3152L61.8148 75.9655L62.3494 75.8891L62.5531 77.2133L62.0184 77.2897L61.993 77.3152ZM52.9295 77.2388L52.3694 77.1624L52.5986 75.8382L53.1077 75.9146L52.9041 77.2388H52.9295ZM63.9024 76.9841L63.6478 75.6599L64.1824 75.558L64.4625 76.8823L63.9279 76.9841H63.9024ZM51.0201 76.8823L50.4855 76.7549L50.791 75.4307L51.3001 75.558L51.0201 76.8823ZM65.7864 76.5512L65.4299 75.2524L65.9391 75.1251L66.2956 76.4239L65.7609 76.5767L65.7864 76.5512ZM49.1616 76.4239L48.6269 76.2711L49.0088 74.9723L49.518 75.1251L49.1616 76.4239ZM67.6449 75.9909L67.2121 74.7176L67.7213 74.5394L68.1541 75.8127L67.6194 75.9909H67.6449ZM47.3285 75.8382L46.8193 75.6599L47.2776 74.3866L47.7868 74.5649L47.3285 75.8382ZM69.4779 75.3288L68.9688 74.081L69.4525 73.8773L69.9871 75.1251L69.4779 75.3288ZM45.5464 75.1506L45.0372 74.9468L45.5718 73.699L46.0556 73.9027L45.5209 75.1506H45.5464ZM71.2601 74.5649L70.6745 73.3425L71.1582 73.1133L71.7438 74.3357L71.2601 74.5649ZM43.7897 74.3611L43.306 74.1065L43.917 72.9096L44.4007 73.1388L43.8152 74.3611H43.7897ZM72.9913 73.6735L72.3294 72.5021L72.7876 72.2475L73.4496 73.4189L72.9658 73.699L72.9913 73.6735ZM42.1094 73.4444L41.6257 73.1642L42.3131 71.9928L42.7713 72.2475L42.1094 73.4189V73.4444ZM74.6716 72.6804L73.9587 71.5344L74.3915 71.2543L75.1299 72.3748L74.6716 72.6804ZM40.48 72.4512L40.0218 72.1456L40.7855 71.0251L41.2183 71.3052L40.48 72.4257V72.4512ZM76.2755 71.6108L75.4863 70.5158L75.9191 70.2102L76.7338 71.3052L76.301 71.6363L76.2755 71.6108ZM38.9016 71.3561L38.4688 71.0251L39.2834 69.9555L39.7163 70.2611L38.9016 71.3561ZM77.8031 70.4394L76.9375 69.3953C77.0647 69.2934 77.2175 69.1661 77.3448 69.0642L78.2359 70.0828C78.0831 70.2102 77.9558 70.312 77.8031 70.4394ZM37.374 70.1592C37.2213 70.0319 37.094 69.93 36.9412 69.8027L37.8323 68.7841C37.9596 68.9114 38.0869 69.0133 38.2396 69.1151L37.374 70.1592ZM79.2542 69.1661L78.3377 68.1729L78.7196 67.8164L79.6616 68.7841L79.2542 69.1661ZM35.9483 68.8605C35.821 68.7332 35.6683 68.6058 35.541 68.4785L36.4829 67.5108C36.4829 67.5108 36.7375 67.7654 36.8648 67.8673L35.9483 68.8605ZM80.629 67.7909L79.6616 66.8487L80.018 66.4667L81.0109 67.3835L80.629 67.7909ZM34.5735 67.4853L34.1916 67.0779L35.1845 66.1611L35.541 66.5431L34.5481 67.4599L34.5735 67.4853ZM81.9274 66.3648L80.8836 65.499L81.2146 65.0915L82.2584 65.9574L81.902 66.3903L81.9274 66.3648ZM33.3006 66.0338L32.9441 65.6008L34.0134 64.7605L34.3444 65.1679L33.3006 66.0338ZM83.124 64.8623L82.0293 64.0474L82.3348 63.6145L83.4295 64.4039L83.0986 64.8369L83.124 64.8623ZM32.1294 64.5058L31.7985 64.0474L32.8932 63.2834L33.1987 63.7164L32.104 64.5058H32.1294ZM84.2442 63.2834L83.124 62.5449L83.4041 62.112L84.5497 62.8251L84.2442 63.2834ZM31.0602 62.9015L30.7546 62.4431L31.9003 61.73L32.1804 62.1884L31.0347 62.9269L31.0602 62.9015ZM85.2626 61.6282L84.0915 60.966L84.3461 60.5077L85.5172 61.1698L85.2371 61.6536L85.2626 61.6282ZM30.0673 61.2462L29.8127 60.7623L31.0092 60.1257L31.2638 60.584L30.0927 61.2462H30.0673ZM86.1536 59.9474L84.9316 59.3362L85.1607 58.8524L86.3828 59.4381L86.1536 59.9219V59.9474ZM29.1762 59.5399L28.9471 59.0306L30.1691 58.4704L30.3982 58.9542L29.1762 59.5399ZM86.9683 58.1903L85.7208 57.6555L85.9245 57.1716L87.172 57.6809L86.9683 58.1903ZM28.4124 57.7573L28.2087 57.248L29.4817 56.7642L29.6854 57.248L28.4379 57.7573H28.4124ZM87.6812 56.3822L86.4082 55.9238L86.5864 55.4145L87.8594 55.8219L87.6812 56.3567V56.3822ZM27.7505 55.9492L27.5723 55.4145L28.8707 55.007L29.0234 55.5163L27.7505 55.9492ZM88.2668 54.5486L86.9683 54.1921L87.0956 53.6828L88.3941 54.0393L88.2413 54.5741L88.2668 54.5486ZM27.1904 54.0902L27.0631 53.5555L28.3615 53.2244L28.4888 53.7337L27.1904 54.0902ZM88.725 52.6641L87.4011 52.384L87.503 51.8747L88.8269 52.1294L88.725 52.6641ZM26.7576 52.2058L26.6557 51.671L27.9796 51.4163L28.0814 51.9256L26.7576 52.1803V52.2058ZM89.0814 50.7797L87.7576 50.5759L87.834 50.0411L89.1833 50.2194L89.1069 50.7542L89.0814 50.7797ZM26.4266 50.3213L26.3502 49.761L27.6996 49.6082L27.7759 50.143L26.4266 50.3213ZM89.3106 48.8697L87.9612 48.7424L88.0122 48.2076L89.3615 48.3095L89.3106 48.8697ZM26.2229 48.3859V47.8256L27.5213 47.7492V48.284L26.2229 48.3859ZM89.4379 46.9343L88.0885 46.8834V46.3486H89.4633V46.9088L89.4379 46.9343ZM26.1211 46.4504V45.8902L27.4704 45.7629V46.3995H26.1211V46.4504ZM88.0885 45.0244V44.4896L89.4124 44.4386V44.9989L88.0885 45.0498V45.0244ZM27.5213 44.4641L26.172 44.4132V43.8529L27.5468 43.9293V44.4641H27.5213ZM87.9612 43.1908L87.9103 42.656L89.2597 42.5032L89.3106 43.0635L87.9612 43.1908ZM27.6232 42.6051L26.2738 42.4778L26.3502 41.9175L27.6996 42.0958L27.6486 42.6051H27.6232ZM87.7321 41.3318L87.6557 40.797L88.9796 40.5678L89.056 41.1026L87.7321 41.3063V41.3318ZM27.8778 40.7715L26.5539 40.5423L26.6557 40.0076L27.9796 40.2622L27.8778 40.7715ZM87.4011 39.5237L87.2993 39.0144L88.6232 38.7088L88.7505 39.2436L87.4266 39.5237H87.4011ZM28.2342 38.9635L26.9103 38.6579L27.0376 38.1231L28.336 38.4541L28.2087 38.9635H28.2342ZM86.9429 37.7411L86.7901 37.2318L88.0885 36.8498L88.2413 37.3846L86.9429 37.7411ZM28.6925 37.1808L27.394 36.7989L27.5468 36.2641L28.8452 36.6715L28.6925 37.1808ZM86.3828 35.9839L86.2046 35.4746L87.4775 35.0162L87.6557 35.5256L86.3828 35.9839ZM29.278 35.4492L28.0051 34.9908L28.2087 34.4815L29.4817 34.9653L29.3035 35.4746L29.278 35.4492ZM85.7208 34.2523L85.5172 33.7684L86.7647 33.2336L86.9938 33.7429L85.7463 34.2523H85.7208ZM29.9654 33.7429L28.7179 33.2082L28.9471 32.6988L30.1691 33.2591L29.9654 33.7429ZM84.9571 32.5715L84.7279 32.0877L85.9245 31.4765L86.1791 31.9603L84.9571 32.546V32.5715ZM30.7546 32.0877L29.5581 31.4765L29.8127 30.9926L31.0092 31.6293L30.7546 32.0877ZM84.0915 30.9417L83.8369 30.4833L85.008 29.7957L85.288 30.2796L84.1169 30.9417H84.0915ZM31.6457 30.4578L30.4746 29.7703L30.7546 29.2864L31.9003 29.9994L31.6203 30.4578H31.6457ZM83.124 29.3628L82.844 28.9299L83.9642 28.1659L84.2697 28.6243L83.1495 29.3628H83.124ZM32.6386 28.9044L31.5184 28.1404L31.8239 27.682L32.9187 28.4715L32.6132 28.9044H32.6386ZM82.0802 27.8348L81.7747 27.4019L82.844 26.587L83.1749 27.0199L82.0802 27.8348ZM33.7334 27.4019L32.6641 26.587L32.995 26.1541L34.0389 26.9945L33.7079 27.4019H33.7334ZM80.9345 26.3833L80.5781 25.9758L81.5965 25.0845L81.9529 25.492L80.9091 26.3578L80.9345 26.3833ZM34.9045 25.9758L33.8861 25.0845L34.2425 24.6771L35.2355 25.5938L34.879 26.0013L34.9045 25.9758ZM79.7125 25.0081L79.3561 24.6261L80.3235 23.6839L80.7054 24.0913L79.7125 25.0336V25.0081ZM36.1774 24.6261L35.21 23.6839C35.3373 23.5566 35.4646 23.4292 35.5919 23.3019L36.5339 24.2696C36.5339 24.2696 36.2793 24.5243 36.152 24.6261H36.1774ZM78.4141 23.7094L78.0322 23.3528L78.9233 22.3342L79.3306 22.7162L78.4141 23.7094ZM37.5268 23.3528L36.6102 22.3597C36.7375 22.2323 36.8903 22.105 37.0176 22.0031L37.9087 23.0218C37.7814 23.1236 37.6541 23.251 37.5268 23.3783V23.3528ZM77.0138 22.5125C76.8865 22.4106 76.7338 22.2833 76.6065 22.1814L77.4466 21.1118C77.5994 21.2392 77.7267 21.341 77.8794 21.4684L77.0138 22.5125ZM38.927 22.1814L38.0869 21.1118L38.5197 20.7808L39.3344 21.8503L38.927 22.1814ZM75.5627 21.392L75.1299 21.0864L75.8936 19.9659L76.3519 20.2969L75.5627 21.392ZM40.4291 21.0864L39.6399 19.9913L40.0981 19.6857L40.8619 20.8062L40.4291 21.1118V21.0864ZM74.0351 20.3733L73.5769 20.0932L74.2897 18.9472L74.748 19.2274L74.0097 20.3733H74.0351ZM41.9567 20.0932L41.2438 18.9472C41.3966 18.8454 41.5493 18.7435 41.7275 18.6671L42.4149 19.8385L41.9567 20.1187V20.0932ZM72.4312 19.4311L71.9729 19.1764L72.6094 17.9795L73.0931 18.2342L72.4312 19.4056V19.4311ZM43.5606 19.1764L42.9241 17.9795L43.4078 17.7249L44.0188 18.9218L43.5606 19.1764ZM70.8018 18.5907L70.3181 18.3615L70.8782 17.1391L71.3874 17.3683L70.8018 18.5907ZM45.2154 18.3615L44.6553 17.1391L45.1645 16.91L45.6991 18.1578L45.2154 18.3615ZM69.1215 17.8522L68.6378 17.6485L69.1215 16.3752L69.6307 16.5789L69.1215 17.8267V17.8522ZM46.9212 17.6485L46.4375 16.3752L46.9466 16.1714L47.4049 17.4447L46.8957 17.623L46.9212 17.6485ZM67.3648 17.2155L66.8557 17.0373L67.263 15.7385L67.7722 15.9168L67.3394 17.1901L67.3648 17.2155ZM48.6524 17.0373L48.2451 15.7385L48.7797 15.5857L49.1616 16.8845L48.6524 17.0373ZM65.5827 16.6808L65.0735 16.5534L65.4045 15.2547L65.9391 15.382L65.5827 16.6808ZM50.4345 16.528L50.129 15.2037L50.6637 15.0764L50.9692 16.4006L50.46 16.528H50.4345ZM63.8006 16.2478L63.2914 16.146L63.546 14.8217L64.0806 14.9236L63.8006 16.2478ZM52.2676 16.146L52.013 14.8217L52.5476 14.7199L52.7768 16.0441L52.2676 16.146ZM61.993 15.9422L61.4583 15.8658L61.6365 14.5162L62.1712 14.5925L61.993 15.9422ZM54.1006 15.8658L53.9479 14.5162L54.4825 14.4652L54.6098 15.8149L54.0752 15.8658H54.1006ZM60.1599 15.7385H59.6253L59.7016 14.3634L60.2617 14.4143L60.1599 15.764V15.7385ZM55.9337 15.6876L55.8573 14.3379H56.392L56.4429 15.6621H55.9082L55.9337 15.6876ZM58.3269 15.6876H57.7922V14.3379H58.3269V15.6876Z" fill="#00FFFF" />
					</g>
				</g>
			</g>
		</g>
	</g>
	<defs>
		<clipPath id="clip0_54_767">
			<rect width="305" height="95.1662" fill="white" />
		</clipPath>
	</defs>
</svg>
