<svg width="123" height="244" viewBox="0 0 123 244" fill="none" xmlns="http://www.w3.org/2000/svg">
<g id="Group" style="mix-blend-mode:overlay">
<path id="Vector" d="M13.517 153.056C13.517 153.056 13.9517 154.91 14.4808 156.706C14.9721 158.522 15.4634 160.225 15.4823 160.319L10.7581 164.253C10.7392 164.159 10.2102 162.248 9.64328 160.262C9.07638 158.295 8.60386 156.366 8.58496 156.253L13.4981 153.037L13.517 153.056Z" fill="white"/>
<path id="Vector_2" d="M15.4823 160.318C15.4823 160.318 16.0303 162.096 16.5594 163.855C17.0885 165.652 17.6554 167.278 17.6932 167.354L13.1958 171.988C13.1958 171.988 12.5534 170.096 11.9676 168.129C11.3629 166.181 10.796 164.328 10.7771 164.233L15.5012 160.299L15.4823 160.318Z" fill="white"/>
<path id="Vector_3" d="M21.3779 177.549C21.3779 177.549 22.0204 179.194 22.7006 180.821C23.3998 182.429 24.0423 183.923 24.0801 184.018L20.2441 190.354C20.2441 190.354 19.4883 188.595 18.7324 186.855C17.9954 185.077 17.3151 183.337 17.2773 183.242L21.3968 177.549H21.3779Z" fill="white"/>
<path id="Vector_4" d="M28.4452 193.135C28.4452 193.135 28.6342 193.532 28.9176 194.043C29.201 194.572 29.5979 195.291 29.9947 195.991C30.7695 197.428 31.5254 198.715 31.5632 198.79L28.5019 206.659C28.5019 206.659 27.6138 205.183 26.7635 203.594C26.3289 202.8 25.913 202.024 25.5918 201.419C25.2705 200.852 25.0816 200.455 25.0627 200.436L28.4452 193.135Z" fill="white"/>
<path id="Vector_5" d="M36.5141 206.582C36.5141 206.582 36.722 206.885 37.0433 207.358C37.3645 207.793 37.7802 208.436 38.2149 208.984C39.0841 210.138 39.9155 211.216 39.9533 211.292L37.7612 220.465C37.7612 220.465 36.7976 219.198 35.8528 217.931C35.3615 217.306 34.9079 216.588 34.5677 216.115C34.2087 215.604 34.0008 215.283 33.9819 215.264L36.533 206.601L36.5141 206.582Z" fill="white"/>
<path id="Vector_6" d="M45.3011 217.535C45.3011 217.535 46.2081 218.442 47.134 219.369C47.5875 219.842 48.041 220.277 48.4 220.58C48.7591 220.901 48.9669 221.09 48.9858 221.109L47.7009 231.266C47.7009 231.266 47.4364 231.039 47.0585 230.68C46.6805 230.358 46.1703 229.867 45.6601 229.356C44.6397 228.335 43.6949 227.37 43.6382 227.313L45.3011 217.516V217.535Z" fill="white"/>
<path id="Vector_7" d="M54.5981 225.611C54.5981 225.611 55.5429 226.33 56.4877 226.879C56.9602 227.181 57.4326 227.465 57.7916 227.692C58.1506 227.919 58.3774 228.051 58.3963 228.051L58.075 238.927C58.075 238.927 57.8105 238.776 57.4137 238.53C57.0168 238.284 56.5066 237.962 55.9775 237.641C54.9382 237.036 53.9556 236.298 53.8989 236.26L54.617 225.63L54.5981 225.611Z" fill="white"/>
<path id="Vector_8" d="M64.0843 230.641C64.0843 230.641 65.0291 230.962 65.9928 231.284C66.9376 231.53 67.8447 231.738 67.8825 231.757L68.525 243.011C68.525 243.011 67.4857 242.784 66.4275 242.481C65.3693 242.122 64.3866 241.8 64.3299 241.781L64.0654 230.641H64.0843Z" fill="white"/>
<path id="Vector_9" d="M73.4946 232.458C73.4946 232.458 73.7214 232.458 74.0804 232.477C74.4206 232.458 74.8929 232.42 75.3465 232.401C75.8 232.401 76.2724 232.363 76.6125 232.345C76.9526 232.307 77.1606 232.25 77.1795 232.25L78.7856 243.561C78.7856 243.561 78.54 243.636 78.162 243.655C77.7841 243.655 77.2739 243.693 76.7637 243.731C76.2535 243.769 75.7622 243.769 75.3654 243.807C74.9874 243.788 74.7417 243.769 74.7228 243.769L73.4946 232.458Z" fill="white"/>
<path id="Vector_10" d="M86.0041 229.412L88.5174 240.42C88.5174 240.42 87.5726 240.893 86.6277 241.366C85.664 241.744 84.7569 242.085 84.7002 242.104L82.5271 230.944C82.5271 230.944 83.3964 230.604 84.2657 230.263C85.116 229.828 85.9285 229.431 85.9663 229.412H86.0041Z" fill="white"/>
<path id="Vector_11" d="M94.1296 223.436L97.4743 233.857C97.4743 233.857 96.6239 234.633 95.7546 235.408C94.9043 236.24 94.054 236.846 93.9973 236.884L90.9739 226.197C90.9739 226.197 91.8053 225.611 92.58 224.873C93.3548 224.154 94.0918 223.473 94.1485 223.454L94.1296 223.436Z" fill="white"/>
<path id="Vector_12" d="M101.254 214.414L105.316 223.89C105.316 223.89 105.127 224.174 104.863 224.628C104.598 225.063 104.22 225.63 103.843 226.16C103.068 227.219 102.35 228.24 102.312 228.297L98.5137 218.386C98.5137 218.386 99.1939 217.44 99.8931 216.457C100.233 215.984 100.573 215.492 100.819 215.076C101.065 214.679 101.216 214.433 101.235 214.414H101.254Z" fill="white"/>
<path id="Vector_13" d="M107.225 202.686L111.911 210.97C111.911 210.97 111.307 212.351 110.702 213.769C110.4 214.488 110.078 215.169 109.852 215.642C109.606 216.134 109.455 216.455 109.455 216.474L104.995 207.698C104.995 207.698 105.146 207.376 105.354 206.941C105.581 206.506 105.864 205.901 106.148 205.239C106.696 203.972 107.206 202.761 107.244 202.686H107.225Z" fill="white"/>
<path id="Vector_14" d="M8.88732 38.8887L13.7815 46.6057C13.7815 46.6057 13.3091 47.9865 12.8555 49.4239C12.4398 50.8993 12.0242 52.28 12.0053 52.3556L6.94092 45.2438C6.94092 45.2438 7.41333 43.6172 7.88575 42.0095C8.39595 40.4396 8.88734 38.9643 8.90623 38.8887H8.88732Z" fill="white"/>
<path id="Vector_15" d="M23.3432 146.699C23.3432 146.699 23.7022 148.156 24.1179 149.574C24.5148 151.012 24.8927 152.374 24.9116 152.449L21.1701 155.589C21.1701 155.589 20.7354 154.019 20.2819 152.43C19.8284 150.86 19.4505 149.309 19.4316 149.234L23.3432 146.699Z" fill="white"/>
<path id="Vector_16" d="M24.9116 152.451C24.9116 152.451 25.3463 153.869 25.7809 155.269C26.1967 156.687 26.6501 157.992 26.669 158.068L23.0977 161.756C23.0977 161.756 22.5685 160.243 22.115 158.673C21.6426 157.122 21.1891 155.647 21.1702 155.571L24.9116 152.432V152.451Z" fill="white"/>
<path id="Vector_17" d="M29.598 166.162C29.598 166.162 30.1082 167.486 30.6373 168.772C31.1853 170.039 31.6955 171.25 31.7332 171.307L28.6909 176.357C28.6909 176.357 28.0862 174.957 27.4815 173.558C26.8957 172.158 26.3478 170.758 26.3289 170.702L29.598 166.181V166.162Z" fill="white"/>
<path id="Vector_18" d="M48.6267 197.957C48.6267 197.957 49.3448 198.676 50.0818 199.394C50.4408 199.792 50.8188 200.132 51.0834 200.359C51.3668 200.624 51.5369 200.775 51.5369 200.775L50.5164 208.852C50.5164 208.852 50.3275 208.662 50.0063 208.398C49.7039 208.133 49.2881 207.736 48.8913 207.338C48.0977 206.544 47.3229 205.769 47.2852 205.731L48.6079 197.957H48.6267Z" fill="white"/>
<path id="Vector_19" d="M56.0154 204.37C56.0154 204.37 56.7523 204.937 57.5271 205.372C57.905 205.599 58.2829 205.826 58.5663 205.996C58.8498 206.186 59.0388 206.28 59.0388 206.28L58.7743 214.905C58.7743 214.905 58.5664 214.811 58.2641 214.602C57.9428 214.413 57.546 214.167 57.1114 213.903C56.2799 213.411 55.5052 212.825 55.4485 212.787L56.0154 204.332V204.37Z" fill="white"/>
<path id="Vector_20" d="M63.5552 208.379C63.5552 208.379 64.311 208.644 65.0669 208.89C65.8227 209.098 66.5408 209.268 66.5786 209.268L67.0888 218.214C67.0888 218.214 66.2763 218.044 65.4259 217.798C64.5945 217.515 63.8008 217.269 63.763 217.25L63.5552 208.379Z" fill="white"/>
<path id="Vector_21" d="M71.0381 209.817C71.0381 209.817 71.227 209.817 71.4916 209.817C71.775 209.817 72.134 209.779 72.493 209.779C72.8521 209.761 73.2301 209.723 73.4946 209.723C73.7592 209.704 73.9292 209.666 73.9481 209.666L75.2331 218.631C75.2331 218.631 75.0441 218.669 74.7417 218.707C74.4394 218.726 74.0237 218.745 73.6269 218.783C73.2112 218.783 72.8143 218.82 72.512 218.839C72.2096 218.839 72.0018 218.821 72.0018 218.821L71.0381 209.836V209.817Z" fill="white"/>
<path id="Vector_22" d="M80.9777 207.396L82.9807 216.154C82.9807 216.154 82.2248 216.513 81.4878 216.891C80.732 217.194 79.995 217.459 79.9383 217.478L78.2188 208.607C78.2188 208.607 78.9179 208.342 79.6171 208.077C80.2974 207.737 80.9399 207.415 80.9777 207.396Z" fill="white"/>
<path id="Vector_23" d="M87.4403 202.649L90.0857 210.915C90.0857 210.915 89.4055 211.539 88.7252 212.144C88.045 212.806 87.3647 213.279 87.3269 213.298L84.927 204.805C84.927 204.805 85.5695 204.351 86.193 203.746C86.8166 203.179 87.4025 202.649 87.4403 202.611V202.649Z" fill="white"/>
<path id="Vector_24" d="M93.1281 195.48L96.3593 203.027C96.3593 203.027 96.2082 203.254 96.0003 203.595C95.7924 203.954 95.4901 204.389 95.1878 204.805C94.5831 205.656 93.9973 206.451 93.9784 206.507L90.9739 198.658C90.9739 198.658 91.5219 197.883 92.0699 197.126C92.3534 196.748 92.6178 196.332 92.8068 196.029C92.9958 195.707 93.1281 195.518 93.1281 195.518V195.48Z" fill="white"/>
<path id="Vector_25" d="M97.8525 186.154L101.575 192.736C101.575 192.736 101.103 193.852 100.611 194.949C100.385 195.517 100.12 196.046 99.931 196.444C99.7421 196.841 99.6098 197.087 99.6098 197.106L96.0762 190.126C96.0762 190.126 96.1895 189.88 96.3785 189.54C96.5485 189.181 96.7753 188.708 96.9832 188.178C97.4178 187.176 97.8336 186.211 97.8525 186.154Z" fill="white"/>
<path id="Vector_26" d="M101.499 174.863L105.6 180.273C105.6 180.273 105.524 180.613 105.392 181.124C105.279 181.635 105.09 182.297 104.901 182.94C104.523 184.207 104.164 185.436 104.145 185.512L100.177 179.611C100.177 179.611 100.517 178.438 100.857 177.284C101.046 176.698 101.178 176.093 101.31 175.639C101.424 175.185 101.499 174.901 101.499 174.882V174.863Z" fill="white"/>
<path id="Vector_27" d="M103.975 162.04L108.321 166.145C108.321 166.145 108.283 166.542 108.189 167.072C108.094 167.62 107.981 168.339 107.868 169.095C107.66 170.571 107.395 171.914 107.376 171.989L103.125 167.336C103.125 167.336 103.37 166.05 103.559 164.707C103.654 164.045 103.767 163.383 103.843 162.873C103.918 162.381 103.956 162.04 103.956 162.021L103.975 162.04Z" fill="white"/>
<path id="Vector_28" d="M105.165 148.006L109.644 150.692C109.644 150.692 109.568 152.28 109.493 153.869C109.379 155.42 109.285 156.915 109.285 157.009L104.844 153.737C104.844 153.737 104.939 152.318 105.052 150.9C105.109 149.462 105.165 148.1 105.184 148.025L105.165 148.006Z" fill="white"/>
<path id="Vector_29" d="M89.1221 57.0273C89.1221 57.0273 89.8024 58.2567 90.4826 59.5429C91.144 60.8291 91.7676 62.0774 91.8054 62.1531L88.9899 67.7139C88.9899 67.7139 88.4041 66.5412 87.7994 65.3496C87.1947 64.1958 86.6088 63.1367 86.571 63.0799L89.1409 57.0463L89.1221 57.0273Z" fill="white"/>
<path id="Vector_30" d="M81.9225 45.642C81.9225 45.642 82.1303 45.8879 82.3949 46.2851C82.6783 46.7012 83.0562 47.2118 83.4153 47.7414C83.7932 48.29 84.1711 48.8195 84.4356 49.2167C84.7002 49.6518 84.8702 49.9166 84.8891 49.9355L82.7161 56.6312C82.7161 56.6312 82.546 56.3664 82.3003 55.9881C82.0547 55.6098 81.7146 55.1369 81.3744 54.6451C81.0343 54.1534 80.6942 53.6805 80.4485 53.3022C80.2028 52.9429 80.0328 52.7348 80.0139 52.7159L81.9036 45.623L81.9225 45.642Z" fill="white"/>
<path id="Vector_31" d="M74.0994 36.543C74.0994 36.543 74.893 37.3373 75.7056 38.1506C76.4993 39.0018 77.2363 39.834 77.293 39.8908L75.8379 47.5322C75.8379 47.5322 75.1198 46.7378 74.4017 45.9434C73.6648 45.2057 72.9846 44.5248 72.9468 44.4869L74.1184 36.543H74.0994Z" fill="white"/>
<path id="Vector_32" d="M65.9171 29.9805C65.9171 29.9805 66.7486 30.4533 67.58 31.0775C67.9958 31.3801 68.4114 31.6638 68.7138 31.8908C69.0161 32.0988 69.224 32.2691 69.224 32.2691L68.506 40.6103C68.506 40.6103 68.317 40.459 68.0335 40.2698C67.7501 40.0618 67.3722 39.797 66.9943 39.5322C66.2573 38.9836 65.5393 38.5675 65.5015 38.5486L65.9171 29.9993V29.9805Z" fill="white"/>
<path id="Vector_33" d="M57.5837 26.1023C57.5837 26.1023 58.4152 26.386 59.2466 26.6697C59.6624 26.7832 60.078 26.9723 60.3804 27.1047C60.7016 27.2371 60.8905 27.3128 60.9094 27.3128L60.9662 36.1079C60.9662 36.1079 60.7772 36.0322 60.4938 35.8998C60.2103 35.7674 59.8324 35.5973 59.4545 35.4838C58.6986 35.2379 57.9806 34.992 57.9428 34.9731L57.5837 26.0645V26.1023Z" fill="white"/>
<path id="Vector_34" d="M49.3826 25.1189C49.3826 25.1189 49.5716 25.1189 49.8928 25.0811C50.1952 25.0433 50.6108 25.0433 51.0076 25.0811C51.8202 25.1189 52.5949 25.1567 52.6516 25.1567L53.4831 34.1599C53.4831 34.1599 52.7462 34.1221 52.0092 34.1032C51.6313 34.0654 51.2722 34.1032 51.0076 34.1032C50.7242 34.1032 50.5541 34.141 50.5541 34.141L49.4204 25.1378L49.3826 25.1189Z" fill="white"/>
<path id="Vector_35" d="M41.5218 26.9922C41.5218 26.9922 42.2777 26.6896 43.0525 26.4059C43.4304 26.2545 43.8272 26.1221 44.1107 26.0465C44.3941 25.9519 44.5831 25.9141 44.602 25.9141L46.1703 34.8416C46.1703 34.8416 46.0003 34.8983 45.7168 34.9551C45.4523 35.0118 45.1121 35.1443 44.7531 35.2767C44.0539 35.5415 43.3925 35.7873 43.3548 35.8063L41.5029 26.9922H41.5218Z" fill="white"/>
<path id="Vector_36" d="M37.0809 29.4883L39.3486 38.0754C39.3486 38.0754 38.7061 38.5671 38.0636 39.0589C37.4211 39.5318 36.8354 40.0803 36.7976 40.1181L34.2654 31.7391C34.2654 31.7391 34.9456 31.0771 35.6637 30.5853C36.3629 30.0368 37.0432 29.5261 37.0809 29.5072V29.4883Z" fill="white"/>
<path id="Vector_37" d="M19.6773 55.9297L23.57 62.039C23.57 62.039 23.1921 63.1549 22.833 64.2898C22.4929 65.4625 22.1717 66.5595 22.1528 66.6351L18.1089 60.9608C18.1089 60.9608 18.4867 59.6936 18.8647 58.3885C19.2615 57.1402 19.6584 55.9864 19.6773 55.9297Z" fill="white"/>
<path id="Vector_38" d="M24.4201 44.7142L27.8593 51.9016C27.8593 51.9016 27.7271 52.1097 27.557 52.4691C27.387 52.8284 27.1602 53.3013 26.9145 53.7741C26.6877 54.247 26.4422 54.7199 26.2721 55.0792C26.102 55.4764 26.0075 55.7034 26.0075 55.7223L22.3794 48.9321C22.3794 48.9321 22.4927 48.6484 22.6817 48.2323C22.8707 47.8351 23.1163 47.3054 23.3809 46.7758C23.6454 46.2462 23.891 45.7167 24.08 45.3195C24.269 44.9223 24.4201 44.6953 24.4201 44.6953V44.7142Z" fill="white"/>
<path id="Vector_39" d="M16.1437 69.0762L20.3577 73.9939C20.3577 73.9939 20.2821 74.2965 20.2065 74.8072C20.112 75.2801 19.9986 75.9231 19.8853 76.5851C19.6396 77.8713 19.4507 79.1386 19.4318 79.1953L15.1233 74.8261C15.1233 74.8261 15.3312 73.3319 15.6146 71.9133C15.7469 71.2135 15.8792 70.4947 15.9737 69.9651C16.0681 69.4166 16.1437 69.0951 16.1437 69.0762Z" fill="white"/>
<path id="Vector_40" d="M13.9894 83.791L18.4111 87.3469C18.4111 87.3469 18.3733 87.6873 18.3166 88.2169C18.26 88.7276 18.2032 89.4275 18.1654 90.1651C18.071 91.5837 17.9765 92.9266 17.9576 93.0023L13.498 90.0328C13.498 90.0328 13.6114 88.4818 13.7248 86.893C13.7815 86.1175 13.8382 85.342 13.8949 84.7746C13.9516 84.1883 13.9894 83.8289 13.9894 83.8099V83.791Z" fill="white"/>
<path id="Vector_41" d="M13.895 116.172L18.3167 116.72C18.3167 116.72 18.4302 118.234 18.6002 119.766C18.6758 120.522 18.7514 121.279 18.8081 121.846C18.8648 122.395 18.9215 122.773 18.9215 122.792L14.5564 122.868C14.5564 122.868 14.4997 122.451 14.443 121.808C14.3863 121.184 14.2918 120.333 14.2162 119.52C14.0273 117.855 13.9139 116.266 13.895 116.172Z" fill="white"/>
<path id="Vector_42" d="M15.9924 132.873L20.2252 131.852C20.2252 131.852 20.4897 133.346 20.7543 134.859C21.0377 136.372 21.3212 137.772 21.3401 137.847L17.2206 139.474C17.2206 139.474 16.8806 137.828 16.5782 136.183C16.2948 134.518 16.0113 132.949 15.9924 132.854V132.873Z" fill="white"/>
<path id="Vector_43" d="M79.4849 106.942C86.0231 129.299 83.2642 154.152 73.3435 162.418C72.342 163.25 71.3027 163.893 70.2445 164.328C60.7962 168.281 49.4017 157.027 43.5248 136.921C36.9866 114.564 39.7454 89.7301 49.685 81.4456C50.6865 80.6134 51.7259 79.9703 52.7841 79.5353C62.2324 75.5822 73.6081 86.8362 79.4849 106.942ZM71.8885 157.424C80.5998 150.161 83.0186 128.391 77.274 108.777C72.1153 91.1487 62.1379 81.2754 53.8612 84.7367C52.9353 85.1339 52.0282 85.6824 51.1401 86.4201C42.4288 93.6832 40.0101 115.454 45.7546 135.068C50.8945 152.696 60.8908 162.569 69.1675 159.108C70.0934 158.71 71.0003 158.162 71.8885 157.424Z" fill="white"/>
<g id="Group_2">
<path id="Vector_44" d="M35.2103 178.551C35.2103 178.551 35.3614 178.853 35.5882 179.27C35.8339 179.686 36.1362 180.253 36.4386 180.821C37.0433 181.974 37.6479 182.977 37.6857 183.033L35.2481 189.294C35.2481 189.294 34.5488 188.121 33.8686 186.854C33.5284 186.23 33.1883 185.606 32.9237 185.133C32.6781 184.679 32.5081 184.357 32.5081 184.339L35.2103 178.551Z" fill="white"/>
<path id="Vector_45" d="M41.6351 189.238C41.6351 189.238 41.8051 189.465 42.0697 189.844C42.3153 190.184 42.6555 190.695 42.9956 191.149C43.6948 192.057 44.3561 192.927 44.3939 192.983L42.6366 200.246C42.6366 200.246 41.8807 199.244 41.1059 198.241C40.728 197.75 40.3501 197.182 40.0667 196.804C39.7832 196.388 39.6131 196.142 39.5942 196.142L41.6351 189.238Z" fill="white"/>
<path id="Vector_46" d="M93.8839 109.514C94.7721 113.562 95.4901 117.647 96.0192 121.695L99.0428 125.8L99.5718 143.636L97.1719 145.433C96.9829 150.029 96.5672 154.474 95.8869 158.691L97.3799 163.477L93.317 177.398L91.0494 176.49C89.5755 179.97 87.8559 183.091 85.8907 185.701L86.0796 190.013L78.5399 196.312L76.6314 193.418C74.0803 194.496 71.6428 194.874 69.1673 194.723L68.2225 198.336L59.2088 195.31L57.8671 190.411C55.4861 188.746 53.1241 186.609 50.8565 184.055L48.5511 186.193L40.4822 174.617L40.4067 168.073C38.8194 164.876 37.3454 161.453 35.9848 157.784L32.3567 156.8L27.3869 139.815L29.4278 133.384C28.8609 130.131 28.4074 126.878 28.0673 123.643L23.9477 118.082L23.4187 100.246L27.8027 96.9931C28.0106 94.6666 28.3129 92.3969 28.6531 90.2217L25.6107 80.4242L29.6545 66.4843L35.2669 68.7351C35.9283 67.4679 36.6462 66.2763 37.4021 65.1225L36.873 53.8496L44.4127 47.5511L49.3826 55.098C50.3652 54.7953 51.3667 54.5684 52.3872 54.436L54.7303 45.5273L63.7439 48.5536L66.5028 58.5971C67.75 59.4671 68.9783 60.4507 70.2066 61.5666L74.4016 57.6703L82.4704 69.2458L82.5838 78.1355C83.8877 80.5566 85.1348 83.1478 86.3253 85.8904L90.5959 87.0631L95.5657 104.048L93.8273 109.514H93.8839ZM77.4062 176.338C90.1047 165.746 93.6383 133.97 85.286 105.372C77.7652 79.6676 63.2148 65.2549 51.121 70.3239C49.7604 70.8914 48.4378 71.7047 47.1717 72.7639C34.4732 83.3559 30.9395 115.151 39.2917 143.73C46.8126 169.454 61.3629 183.847 73.4567 178.778C74.8173 178.211 76.1401 177.398 77.4251 176.338" fill="white"/>
<path id="Vector_47" d="M87.1757 25.9883C87.1757 25.9883 87.4213 26.2909 87.7615 26.7827C88.1205 27.2745 88.574 27.9743 89.0464 28.6363C89.5188 29.2983 89.9912 29.9792 90.3314 30.4899C90.6715 31.0384 90.8982 31.3599 90.9171 31.3789L88.196 39.7957C88.196 39.7957 87.9883 39.4742 87.6859 38.9824C87.3647 38.5095 86.9301 37.9043 86.5143 37.299C86.0986 36.6938 85.664 36.0885 85.3428 35.6346C85.0215 35.1806 84.8136 34.9158 84.7947 34.9158L87.1757 25.9883Z" fill="white"/>
<path id="Vector_48" d="M96.246 40.3066C96.246 40.3066 97.1153 41.8576 97.9467 43.4653C98.7782 45.0919 99.5529 46.6618 99.5907 46.7375L96.0382 53.7169C96.0382 53.7169 95.3012 52.2415 94.5454 50.7662C93.7895 49.3098 93.0336 47.9669 92.9958 47.9102L96.2271 40.3256L96.246 40.3066Z" fill="white"/>
</g>
<path id="Vector_49" d="M111.817 188.5L116.976 195.309C116.976 195.309 116.862 195.725 116.711 196.349C116.56 196.992 116.333 197.844 116.087 198.619C115.615 200.246 115.161 201.778 115.143 201.853L110.154 194.439C110.154 194.439 110.57 192.964 111.004 191.507C111.231 190.789 111.42 190.013 111.552 189.446C111.703 188.878 111.798 188.519 111.798 188.5H111.817Z" fill="white"/>
<path id="Vector_50" d="M114.916 172.367L120.396 177.531C120.396 177.531 120.339 178.023 120.226 178.703C120.112 179.403 119.98 180.311 119.848 181.238C119.583 183.092 119.243 184.794 119.224 184.888L113.858 179.025C113.858 179.025 114.179 177.417 114.425 175.734C114.557 174.902 114.689 174.069 114.784 173.445C114.878 172.802 114.935 172.405 114.935 172.367H114.916Z" fill="white"/>
<path id="Vector_51" d="M116.428 154.719L122.059 158.067C122.059 158.161 121.964 160.072 121.889 162.057C121.738 164.025 121.624 165.916 121.605 166.011L116.012 161.906C116.012 161.906 116.144 160.128 116.258 158.331C116.333 156.516 116.409 154.813 116.428 154.719Z" fill="white"/>
<path id="Vector_52" d="M116.333 136.107L121.946 137.583C121.946 137.583 121.983 138.093 122.021 138.888C122.059 139.663 122.078 140.704 122.116 141.725C122.153 142.765 122.172 143.806 122.21 144.581C122.229 145.338 122.21 145.848 122.21 145.867L116.56 143.616C116.56 143.616 116.56 143.162 116.56 142.444C116.541 141.725 116.522 140.798 116.484 139.871C116.466 138.926 116.428 137.98 116.409 137.28C116.371 136.58 116.352 136.126 116.352 136.107H116.333Z" fill="white"/>
<path id="Vector_53" d="M114.576 117.099L120.018 116.588C120.018 116.701 120.282 118.687 120.547 120.806C120.793 122.924 120.982 124.91 121.001 125.005L115.464 124.721C115.464 124.626 115.275 122.811 115.067 120.919C114.821 119.009 114.595 117.193 114.576 117.099Z" fill="white"/>
<path id="Vector_54" d="M116.352 95.7637C116.371 95.8582 116.825 97.8064 117.221 99.887C117.429 100.908 117.637 101.949 117.788 102.724C117.958 103.5 118.034 103.991 118.034 104.029L112.781 105.713C112.781 105.713 112.705 105.24 112.554 104.521C112.403 103.821 112.214 102.875 112.044 101.949C111.685 100.057 111.269 98.2981 111.25 98.2036L116.352 95.7637Z" fill="white"/>
<path id="Vector_55" d="M111.042 75.7344C111.08 75.8289 111.628 77.6825 112.233 79.6496C112.781 81.6356 113.31 83.527 113.329 83.6216L108.51 87.1964C108.51 87.1964 108.019 85.3806 107.509 83.5838C106.961 81.8058 106.45 80.1225 106.431 80.0468L111.042 75.7533V75.7344Z" fill="white"/>
<path id="Vector_56" d="M104.296 57.0273C104.296 57.0273 104.504 57.4624 104.768 58.1433C105.033 58.8242 105.392 59.7321 105.77 60.64C106.507 62.4179 107.149 64.2148 107.168 64.3094L102.917 69.6621C102.917 69.6621 102.312 67.9598 101.632 66.3521C101.291 65.5198 100.989 64.7066 100.725 64.0824C100.479 63.4582 100.328 63.0799 100.309 63.061L104.277 57.0463L104.296 57.0273Z" fill="white"/>
<path id="Vector_57" d="M77.3496 14.5267C77.3496 14.5267 78.3511 15.5481 79.3715 16.5695C80.3731 17.6665 81.3179 18.7068 81.3557 18.7635L79.5038 28.3531C79.5038 28.3531 78.5968 27.3695 77.7086 26.3482C76.8016 25.4403 75.9324 24.5702 75.8757 24.5135L77.3496 14.5078V14.5267Z" fill="white"/>
<path id="Vector_58" d="M67.0508 6.26172C67.0508 6.26172 68.0902 6.867 69.1295 7.64248C69.6586 8.02077 70.1688 8.39901 70.5656 8.66381C70.9624 8.92861 71.1891 9.13669 71.208 9.1556L70.301 19.6341C70.301 19.6341 70.0743 19.445 69.7153 19.1991C69.3562 18.9532 68.8838 18.6127 68.4114 18.2912C67.4666 17.5913 66.5784 17.0618 66.5217 17.0239L67.032 6.28065L67.0508 6.26172Z" fill="white"/>
<path id="Vector_59" d="M56.5632 1.40039C56.5632 1.40039 57.6214 1.75975 58.6607 2.10021C59.1709 2.25152 59.7001 2.49743 60.0969 2.64874C60.4937 2.81897 60.7394 2.93244 60.7583 2.93244L60.815 13.9973C60.815 13.9973 60.5693 13.8838 60.2103 13.7514C59.8512 13.6001 59.3788 13.3731 58.9064 13.2407C57.9616 12.9192 57.0545 12.6165 57.0167 12.6165L56.5632 1.41932V1.40039Z" fill="white"/>
<path id="Vector_60" d="M46.2458 0.152117C46.2458 0.152117 46.5103 0.152137 46.8883 0.114309C47.2662 0.0764804 47.7764 0.0764804 48.2866 0.114309C49.307 0.152137 50.2897 0.208857 50.3464 0.208857L51.3857 11.5196C51.3857 11.5196 50.4408 11.4818 49.5149 11.4439C49.0425 11.4061 48.589 11.4439 48.2489 11.4439C47.9087 11.4818 47.7008 11.4818 47.6819 11.4818L46.2646 0.152117H46.2458Z" fill="white"/>
<path id="Vector_61" d="M36.3818 2.51547C36.3818 2.51547 37.3456 2.1372 38.3093 1.75891C38.7817 1.55085 39.273 1.39956 39.6509 1.30499C40.0288 1.21042 40.2556 1.13477 40.2745 1.13477L42.2586 12.3699C42.2586 12.3699 42.0319 12.4266 41.7107 12.5211C41.4272 12.5779 41.0681 12.6914 40.7091 12.8427C40.6335 12.8805 40.5579 12.8994 40.4824 12.9373C39.6131 13.2588 38.7817 13.5804 38.725 13.5993L36.4008 2.51547H36.3818Z" fill="white"/>
<path id="Vector_62" d="M30.7883 5.65565L33.6417 16.4746C33.6417 16.4746 32.8292 17.0799 32.0166 17.704C31.2041 18.2715 30.4672 18.9902 30.4294 19.0281L27.2546 8.47386C27.2546 8.47386 28.1051 7.64163 28.9932 6.99855C29.8813 6.31763 30.7317 5.67455 30.7695 5.63672L30.7883 5.65565Z" fill="white"/>
<path id="Vector_63" d="M14.8774 24.8158L19.2048 33.8379C19.2048 33.8379 19.0347 34.1027 18.8268 34.5567C18.619 35.0106 18.3166 35.5969 18.0143 36.2022C17.7119 36.7885 17.4285 37.3938 17.2017 37.8478C16.9939 38.3206 16.8615 38.6232 16.8615 38.6421L12.2886 30.1118C12.2886 30.1118 12.4398 29.7524 12.6665 29.2417C12.9122 28.75 13.2334 28.088 13.5546 27.4071C13.8759 26.7451 14.1972 26.0831 14.4428 25.5913C14.6885 25.0995 14.8585 24.8158 14.8774 24.7969V24.8158Z" fill="white"/>
<path id="Vector_64" d="M22.2661 13.6562L25.9131 23.7375C25.9131 23.7375 25.195 24.6076 24.4769 25.5155C23.7777 26.499 23.1353 27.388 23.0975 27.4448L19.167 17.7606C19.167 17.7606 19.9228 16.6826 20.6976 15.6234C21.4913 14.6398 22.2471 13.713 22.2849 13.6562H22.2661Z" fill="white"/>
<path id="Vector_65" d="M4.4655 55.4395L9.77543 61.6055C9.77543 61.6055 9.68099 62.0027 9.58651 62.608C9.47313 63.2132 9.32201 64.0266 9.17084 64.8588C8.8496 66.4665 8.62277 68.0742 8.62277 68.1499L3.19946 62.6458C3.19946 62.6458 3.46403 60.7922 3.80417 59.0142C3.97424 58.1253 4.14429 57.2174 4.25767 56.5365C4.37104 55.8745 4.4655 55.4584 4.4655 55.4395Z" fill="white"/>
<path id="Vector_66" d="M1.74435 73.974L7.29995 78.4188C7.29995 78.4188 7.26216 78.8728 7.18657 79.5348C7.11098 80.1778 7.03543 81.0668 6.97874 81.9558C6.86536 83.7526 6.73307 85.455 6.73307 85.5306L1.12085 81.7856C1.12085 81.691 1.25304 79.8185 1.38531 77.8514C1.442 76.849 1.53659 75.8843 1.61218 75.1656C1.68776 74.4279 1.72555 73.9929 1.72555 73.9551L1.74435 73.974Z" fill="white"/>
<path id="Vector_67" d="M0.780762 93.9102L6.43081 96.5203C6.43081 96.5203 6.43083 98.3929 6.44973 100.265C6.44973 101.192 6.48746 102.138 6.50636 102.838C6.52526 103.556 6.54419 104.01 6.54419 104.029L0.912936 102.176C0.912936 102.176 0.913015 101.665 0.875221 100.871C0.875221 100.095 0.799561 99.0548 0.799561 98.0335C0.799561 95.9718 0.780762 94.0236 0.780762 93.9102Z" fill="white"/>
<path id="Vector_68" d="M1.6311 114.697L7.1867 115.378C7.1867 115.473 7.31898 117.289 7.54574 119.18C7.64022 120.145 7.73473 121.09 7.81032 121.809C7.86701 122.528 7.94261 122.982 7.94261 123.02L2.44364 123.114C2.44364 123.114 2.36814 122.585 2.29255 121.79C2.21697 121.015 2.10352 119.955 1.99014 118.915C1.76338 116.816 1.6123 114.83 1.6123 114.716L1.6311 114.697Z" fill="white"/>
<path id="Vector_69" d="M4.25768 135.692L9.56761 134.406C9.56761 134.501 9.90782 136.298 10.2291 138.189C10.5881 140.062 10.947 141.84 10.9659 141.934L5.7883 144.015C5.7694 143.92 5.35369 141.934 4.97576 139.872C4.61673 137.773 4.25767 135.806 4.23877 135.692H4.25768Z" fill="white"/>
<path id="Vector_70" d="M105.09 133.195L109.549 134.368C109.549 134.368 109.568 134.765 109.606 135.408C109.625 136.032 109.644 136.846 109.682 137.678C109.7 138.491 109.719 139.324 109.738 139.929C109.757 140.553 109.738 140.931 109.738 140.95L105.241 139.172C105.241 139.172 105.241 138.813 105.241 138.245C105.241 137.697 105.203 136.94 105.184 136.203C105.165 135.465 105.146 134.708 105.109 134.141C105.071 133.574 105.052 133.214 105.052 133.195H105.09Z" fill="white"/>
<path id="Vector_71" d="M103.71 118.083L108.037 117.705C108.037 117.705 108.245 119.37 108.453 121.034C108.642 122.717 108.793 124.287 108.812 124.382L104.409 124.155C104.409 124.155 104.277 122.642 104.088 121.11C103.899 119.597 103.71 118.159 103.71 118.083Z" fill="white"/>
<path id="Vector_72" d="M105.109 101.117C105.109 101.117 105.486 102.744 105.789 104.389C105.959 105.222 106.129 106.035 106.242 106.659C106.375 107.283 106.431 107.68 106.431 107.699L102.255 109.023C102.255 109.023 102.199 108.645 102.066 108.097C101.953 107.529 101.821 106.792 101.669 106.054C101.386 104.56 101.065 103.141 101.046 103.065L105.09 101.117H105.109Z" fill="white"/>
<path id="Vector_73" d="M100.895 85.209C100.895 85.209 101.367 86.76 101.84 88.311C102.274 89.8998 102.709 91.3939 102.728 91.4696L98.8917 94.3067C98.8917 94.3067 98.4949 92.8693 98.098 91.4318C97.6634 90.0132 97.2666 88.6703 97.2288 88.6136L100.895 85.209Z" fill="white"/>
<path id="Vector_74" d="M95.528 70.3432C95.528 70.3432 95.6792 70.6836 95.887 71.2321C96.1138 71.7617 96.3973 72.4993 96.6808 73.1992C97.2666 74.6367 97.7767 76.0363 97.7956 76.112L94.4132 80.3677C94.4132 80.3677 93.9218 79.0059 93.3927 77.7197C93.1281 77.0766 92.8825 76.4146 92.6746 75.9228C92.4856 75.4311 92.3534 75.1284 92.3345 75.1095L95.5091 70.3242L95.528 70.3432Z" fill="white"/>
<path id="Vector_75" d="M30.2971 35.8431L33.1882 43.8439C33.1882 43.8439 32.6213 44.5437 32.0355 45.2624C31.4875 46.0379 30.9773 46.7566 30.9395 46.7945L27.8027 39.0775C27.8027 39.0775 28.4075 38.2263 29.0121 37.3752C29.6357 36.5808 30.2404 35.862 30.2782 35.8242L30.2971 35.8431Z" fill="white"/>
<path id="Vector_76" d="M13.2146 99.642L17.712 101.723C17.712 101.723 17.712 103.198 17.7309 104.692C17.7309 105.43 17.7688 106.186 17.7876 106.735C17.7876 107.283 17.8064 107.643 17.8064 107.662L13.328 106.205C13.328 106.205 13.3281 105.77 13.2903 105.165C13.2903 104.541 13.2335 103.709 13.2335 102.895C13.2335 101.269 13.2146 99.7176 13.2146 99.623V99.642Z" fill="white"/>
</g>
</svg>
