<svg width="455" height="126" viewBox="0 0 455 126" fill="none" xmlns="http://www.w3.org/2000/svg">
<path d="M43.84 10.672C44.368 10.672 44.808 10.856 45.16 11.224C45.528 11.576 45.712 12.016 45.712 12.544C45.712 13.072 45.528 13.52 45.16 13.888C44.792 14.24 44.352 14.416 43.84 14.416C43.328 14.416 42.888 14.232 42.52 13.864C42.152 13.496 41.968 13.056 41.968 12.544C41.968 12.032 42.144 11.592 42.496 11.224C42.864 10.856 43.312 10.672 43.84 10.672ZM52.168 10.96V21.088C52.168 23.136 51.536 24.752 50.272 25.936C48.944 27.136 47.176 27.736 44.968 27.736H42.856C40.392 27.736 38.504 27.008 37.192 25.552C36.168 24.4 35.656 22.912 35.656 21.088V17.416L37.528 15.928H39.352V20.632C39.352 22.28 39.8 23.4 40.696 23.992C41.368 24.424 42.44 24.64 43.912 24.64C45.592 24.64 46.768 24.344 47.44 23.752C48.128 23.144 48.472 22.104 48.472 20.632V10.96H52.168ZM59.1801 4.816V18.568C59.1801 18.6 59.1881 18.648 59.2041 18.712L59.2281 18.736C59.2761 18.848 59.3721 18.904 59.5161 18.904H60.4041V22H58.4601C57.6761 22 56.9881 21.72 56.3961 21.16C55.7881 20.568 55.4841 19.856 55.4841 19.024V4.816H59.1801ZM72.1529 4.48V7.936L68.0489 10.552C69.6009 11.304 70.8489 12.336 71.7929 13.648C72.8329 15.072 73.4329 16.672 73.5929 18.448L73.6169 18.904H74.3849V22H73.9049L73.0169 20.896H72.9449C72.3369 21.632 71.5609 22 70.6169 22H60.2009V18.904H69.5369C69.7609 18.904 69.8729 18.784 69.8729 18.544C69.8729 17.552 69.3849 16.504 68.4089 15.4C67.0329 13.896 65.3449 13.072 63.3449 12.928C63.2009 12.912 63.1289 12.84 63.1289 12.712V9.712L72.1529 4.48ZM102.009 10.96V19.024C102.009 19.84 101.713 20.544 101.121 21.136C100.545 21.712 99.8485 22 99.0325 22H93.6325L92.6245 20.872H92.5525C91.9605 21.624 91.1845 22 90.2245 22H84.8245L83.8165 20.872H83.7445C83.1525 21.624 82.3765 22 81.4165 22H74.2165V18.904H80.3605C80.5845 18.904 80.6965 18.792 80.6965 18.568V13.72H84.3925V17.488C84.3925 17.728 84.4005 18.104 84.4165 18.616V18.904H89.1685C89.3925 18.904 89.5045 18.792 89.5045 18.568V12.328H93.2005V17.896C93.2005 18.168 93.2085 18.504 93.2245 18.904H97.9765C98.2005 18.904 98.3125 18.792 98.3125 18.568V10.96H102.009ZM117.864 4.816V19.024C117.864 19.808 117.592 20.488 117.048 21.064C116.472 21.688 115.752 22 114.888 22H106.032L104.52 20.128V18.904H109.8L106.008 7.768H109.392L113.184 18.904H113.832C113.928 18.904 114.016 18.864 114.096 18.784C114.144 18.736 114.168 18.664 114.168 18.568V4.816H117.864ZM111.072 27.688C110.864 27.224 110.76 26.808 110.76 26.44C110.76 25.736 110.968 25.16 111.384 24.712C111.8 24.264 112.336 24.04 112.992 24.04C113.456 24.04 113.952 24.112 114.48 24.256V25.768C114.096 25.656 113.8 25.6 113.592 25.6C112.984 25.6 112.68 25.944 112.68 26.632C112.68 26.936 112.744 27.168 112.872 27.328C113.016 27.568 113.256 27.688 113.592 27.688H115.272V28.408L114.624 29.224H110.208V27.688H111.072ZM124.875 4.816V21.088L123.003 22.6H121.179V4.816H124.875ZM134.715 22.024C134.187 22.152 133.691 22.216 133.227 22.216C131.611 22.216 130.267 21.536 129.195 20.176C128.299 19.056 127.851 17.784 127.851 16.36C127.851 14.728 128.347 13.384 129.339 12.328C130.395 11.224 131.779 10.672 133.491 10.672C134.787 10.672 135.875 10.992 136.755 11.632C137.939 12.464 138.531 13.64 138.531 15.16V21.088V21.136C138.531 23.296 137.795 24.976 136.323 26.176C135.091 27.2 133.539 27.712 131.667 27.712L131.043 27.664L129.531 25.768V24.496C129.579 24.512 129.667 24.528 129.795 24.544C130.211 24.624 130.579 24.664 130.899 24.664C132.259 24.632 133.259 24.28 133.899 23.608C134.283 23.208 134.555 22.68 134.715 22.024ZM134.835 15.184C134.835 14.768 134.699 14.424 134.427 14.152C134.171 13.896 133.851 13.768 133.467 13.768C132.859 13.768 132.379 13.992 132.027 14.44C131.675 14.872 131.499 15.48 131.499 16.264C131.499 17.128 131.707 17.832 132.123 18.376C132.539 18.904 133.083 19.168 133.755 19.168C134.091 19.168 134.451 19.112 134.835 19V15.184ZM154.161 10.312C154.689 10.312 155.129 10.496 155.481 10.864C155.849 11.232 156.033 11.672 156.033 12.184C156.033 12.712 155.849 13.16 155.481 13.528C155.129 13.88 154.689 14.056 154.161 14.056C153.649 14.056 153.209 13.88 152.841 13.528C152.473 13.16 152.289 12.712 152.289 12.184C152.289 11.672 152.473 11.232 152.841 10.864C153.209 10.496 153.649 10.312 154.161 10.312ZM158.457 10.312C158.985 10.312 159.425 10.496 159.777 10.864C160.145 11.232 160.329 11.672 160.329 12.184C160.329 12.712 160.145 13.16 159.777 13.528C159.425 13.88 158.985 14.056 158.457 14.056C157.945 14.056 157.505 13.88 157.137 13.528C156.769 13.16 156.585 12.712 156.585 12.184C156.585 11.672 156.769 11.232 157.137 10.864C157.505 10.496 157.945 10.312 158.457 10.312ZM166.689 10.96V19.024C166.689 19.76 166.449 20.4 165.969 20.944C165.377 21.648 164.625 22 163.713 22H150.513C149.393 22 148.409 21.64 147.561 20.92C146.473 19.992 145.929 18.8 145.929 17.344V14.2L147.801 12.688H149.625V17.344C149.625 17.824 149.793 18.216 150.129 18.52C150.433 18.776 150.753 18.904 151.089 18.904H162.633C162.873 18.904 162.993 18.792 162.993 18.568V10.96H166.689ZM173.696 4.816V18.568C173.696 18.6 173.704 18.648 173.72 18.712L173.744 18.736C173.792 18.848 173.888 18.904 174.032 18.904H174.92V22H172.976C172.192 22 171.504 21.72 170.912 21.16C170.304 20.568 170 19.856 170 19.024V4.816H173.696ZM182.733 10.96V19.024C182.733 19.728 182.501 20.36 182.037 20.92C181.429 21.64 180.661 22 179.733 22H174.716V18.904H178.677C178.773 18.904 178.853 18.88 178.917 18.832C178.997 18.768 179.037 18.68 179.037 18.568V10.96H182.733ZM176.661 23.104C177.173 23.104 177.613 23.288 177.98 23.656C178.349 24.024 178.533 24.472 178.533 25C178.533 25.512 178.349 25.952 177.98 26.32C177.613 26.688 177.173 26.872 176.661 26.872C176.133 26.872 175.685 26.688 175.317 26.32C174.965 25.952 174.788 25.512 174.788 25C174.788 24.472 174.965 24.024 175.317 23.656C175.685 23.288 176.133 23.104 176.661 23.104ZM180.957 23.104C181.469 23.104 181.909 23.288 182.277 23.656C182.645 24.024 182.829 24.472 182.829 25C182.829 25.512 182.645 25.952 182.277 26.32C181.909 26.688 181.469 26.872 180.957 26.872C180.429 26.872 179.981 26.688 179.613 26.32C179.261 25.952 179.085 25.512 179.085 25C179.085 24.472 179.261 24.024 179.613 23.656C179.981 23.288 180.429 23.104 180.957 23.104ZM187.805 10.816C188.221 10.72 188.797 10.672 189.533 10.672C191.501 10.672 193.085 11.288 194.285 12.52C195.357 13.624 195.893 15.024 195.893 16.72V17.896C195.893 18.344 195.901 18.68 195.917 18.904H196.517V22H196.205L195.317 20.896H195.245C195.101 21.056 194.973 21.192 194.861 21.304C194.301 21.752 193.669 21.984 192.965 22H185.381V18.904H191.861C192.085 18.904 192.197 18.792 192.197 18.568V17.008C192.197 16.032 191.893 15.232 191.285 14.608C190.693 13.984 189.917 13.672 188.957 13.672C188.461 13.672 188.077 13.704 187.805 13.768V10.816ZM204.342 4.816V18.688C204.342 18.752 204.35 18.824 204.366 18.904H205.542V22H204.774L203.742 20.896H203.694C203.086 21.632 202.302 22 201.342 22H196.326V18.904H200.286C200.382 18.904 200.454 18.88 200.502 18.832C200.598 18.768 200.646 18.68 200.646 18.568V4.816H204.342ZM213.389 10.96V18.688C213.389 18.752 213.397 18.824 213.413 18.904H214.589V22H213.845L212.789 20.896H212.741C212.133 21.632 211.349 22 210.389 22H205.373V18.904H209.213C209.357 18.904 209.469 18.856 209.549 18.76C209.645 18.68 209.693 18.568 209.693 18.424V10.96H213.389ZM211.517 23.104C212.029 23.104 212.469 23.288 212.837 23.656C213.205 24.024 213.389 24.472 213.389 25C213.389 25.512 213.205 25.952 212.837 26.32C212.469 26.688 212.029 26.872 211.517 26.872C210.989 26.872 210.541 26.688 210.173 26.32C209.821 25.952 209.645 25.512 209.645 25C209.645 24.472 209.821 24.024 210.173 23.656C210.541 23.288 210.989 23.104 211.517 23.104ZM222.436 4.816V19.024C222.436 19.728 222.212 20.36 221.764 20.92C221.156 21.64 220.38 22 219.436 22H214.42V18.904H218.38C218.476 18.904 218.556 18.88 218.62 18.832C218.7 18.768 218.74 18.68 218.74 18.568V4.816H222.436ZM229.454 4.816V21.088L227.582 22.6H225.758V4.816H229.454ZM244.252 10.96V18.904H245.452V22H244.204C244.028 23.84 243.228 25.296 241.804 26.368C240.604 27.248 239.196 27.688 237.58 27.688C237.404 27.688 237.124 27.68 236.74 27.664L235.228 25.768V24.496C235.276 24.512 235.364 24.528 235.492 24.544C235.908 24.624 236.276 24.664 236.596 24.664C237.924 24.632 238.908 24.296 239.548 23.656C240.204 23 240.532 22 240.532 20.656V10.96H244.252ZM253.303 10.96V19.024C253.303 19.728 253.071 20.36 252.607 20.92C251.999 21.64 251.231 22 250.303 22H245.287V18.904H249.247C249.343 18.904 249.423 18.88 249.487 18.832C249.567 18.768 249.607 18.68 249.607 18.568V10.96H253.303ZM247.231 23.104C247.743 23.104 248.183 23.288 248.551 23.656C248.919 24.024 249.103 24.472 249.103 25C249.103 25.512 248.919 25.952 248.551 26.32C248.183 26.688 247.743 26.872 247.231 26.872C246.703 26.872 246.255 26.688 245.887 26.32C245.535 25.952 245.359 25.512 245.359 25C245.359 24.472 245.535 24.024 245.887 23.656C246.255 23.288 246.703 23.104 247.231 23.104ZM251.527 23.104C252.039 23.104 252.479 23.288 252.847 23.656C253.215 24.024 253.399 24.472 253.399 25C253.399 25.512 253.215 25.952 252.847 26.32C252.479 26.688 252.039 26.872 251.527 26.872C250.999 26.872 250.551 26.688 250.183 26.32C249.831 25.952 249.655 25.512 249.655 25C249.655 24.472 249.831 24.024 250.183 23.656C250.551 23.288 250.999 23.104 251.527 23.104ZM261.904 5.68C262.416 5.68 262.856 5.864 263.224 6.232C263.592 6.584 263.776 7.024 263.776 7.552C263.776 8.064 263.592 8.504 263.224 8.872C262.856 9.24 262.416 9.424 261.904 9.424C261.376 9.424 260.928 9.24 260.56 8.872C260.192 8.504 260.008 8.064 260.008 7.552C260.008 7.04 260.192 6.6 260.56 6.232C260.928 5.864 261.376 5.68 261.904 5.68ZM263.752 10.96V21.088C263.752 23.216 263.072 24.864 261.712 26.032C260.912 26.72 259.96 27.208 258.856 27.496C258.28 27.64 257.616 27.712 256.864 27.712L256.24 27.664L254.728 25.768V24.496C254.776 24.512 254.864 24.528 254.992 24.544C255.408 24.624 255.776 24.664 256.096 24.664C257.424 24.632 258.408 24.296 259.048 23.656C259.704 23 260.032 22 260.032 20.656V10.96H263.752ZM273.606 22.024C273.078 22.152 272.582 22.216 272.118 22.216C270.502 22.216 269.158 21.536 268.086 20.176C267.19 19.056 266.742 17.784 266.742 16.36C266.742 14.728 267.238 13.384 268.23 12.328C269.286 11.224 270.67 10.672 272.382 10.672C273.678 10.672 274.766 10.992 275.646 11.632C276.83 12.464 277.422 13.64 277.422 15.16V21.088V21.136C277.422 23.296 276.686 24.976 275.214 26.176C273.982 27.2 272.43 27.712 270.558 27.712L269.934 27.664L268.422 25.768V24.496C268.47 24.512 268.558 24.528 268.686 24.544C269.102 24.624 269.47 24.664 269.79 24.664C271.15 24.632 272.15 24.28 272.79 23.608C273.174 23.208 273.446 22.68 273.606 22.024ZM273.726 15.184C273.726 14.768 273.59 14.424 273.318 14.152C273.062 13.896 272.742 13.768 272.358 13.768C271.75 13.768 271.27 13.992 270.918 14.44C270.566 14.872 270.39 15.48 270.39 16.264C270.39 17.128 270.598 17.832 271.014 18.376C271.43 18.904 271.974 19.168 272.646 19.168C272.982 19.168 273.342 19.112 273.726 19V15.184ZM288.516 17.824V20.632C288.516 22.104 288.86 23.136 289.548 23.728C290.236 24.336 291.412 24.64 293.076 24.64C294.5 24.64 295.54 24.44 296.196 24.04C296.868 23.656 297.308 22.976 297.516 22H296.316L294.732 20.032V18.904H302.46V22H301.284C301.076 24.048 300.172 25.576 298.572 26.584C297.34 27.352 295.86 27.736 294.132 27.736H292.02C290.02 27.736 288.38 27.24 287.1 26.248C285.58 25.064 284.82 23.344 284.82 21.088V19.312L286.692 17.824H288.516ZM290.796 29.128C291.308 29.128 291.748 29.312 292.116 29.68C292.484 30.048 292.668 30.496 292.668 31.024C292.668 31.536 292.484 31.968 292.116 32.32C291.748 32.688 291.308 32.872 290.796 32.872C290.268 32.872 289.82 32.688 289.452 32.32C289.1 31.968 288.924 31.536 288.924 31.024C288.924 30.496 289.1 30.048 289.452 29.68C289.82 29.312 290.268 29.128 290.796 29.128ZM295.092 29.128C295.604 29.128 296.044 29.312 296.412 29.68C296.78 30.048 296.964 30.496 296.964 31.024C296.964 31.536 296.78 31.968 296.412 32.32C296.044 32.688 295.604 32.872 295.092 32.872C294.564 32.872 294.116 32.688 293.748 32.32C293.396 31.968 293.22 31.536 293.22 31.024C293.22 30.496 293.396 30.048 293.748 29.68C294.116 29.312 294.564 29.128 295.092 29.128ZM308.029 4.816V19.024C308.029 19.728 307.805 20.36 307.357 20.92C306.749 21.64 305.973 22 305.029 22H300.013V18.904H303.973C304.069 18.904 304.149 18.88 304.213 18.832C304.293 18.768 304.333 18.68 304.333 18.568V4.816H308.029ZM315.047 4.816V18.568C315.047 18.6 315.055 18.648 315.071 18.712L315.095 18.736C315.143 18.848 315.239 18.904 315.383 18.904H316.271V22H314.327C313.543 22 312.855 21.72 312.263 21.16C311.655 20.568 311.351 19.856 311.351 19.024V4.816H315.047ZM319.404 15.448C319.996 13.688 321.036 12.408 322.524 11.608C323.58 11.016 324.804 10.72 326.196 10.72C327.508 10.72 328.692 11.072 329.748 11.776C331.028 12.592 331.948 13.816 332.508 15.448L332.22 16.192C331.852 16.4 331.364 16.792 330.756 17.368C330.18 17.944 329.756 18.456 329.484 18.904H332.748V22H327.108C326.724 22 326.356 21.808 326.004 21.424H325.908C325.556 21.808 325.164 22 324.732 22H316.068V18.904H322.428C322.172 18.456 321.756 17.96 321.18 17.416C320.556 16.792 320.06 16.384 319.692 16.192L319.404 15.448ZM328.692 15.304C328.452 14.728 328.004 14.312 327.348 14.056C326.948 13.896 326.508 13.816 326.028 13.816C325.404 13.816 324.844 13.928 324.348 14.152C323.788 14.408 323.412 14.792 323.22 15.304C323.54 15.496 323.996 15.936 324.588 16.624C325.26 17.392 325.692 18.016 325.884 18.496H326.028C326.252 17.936 326.724 17.272 327.444 16.504C327.972 15.896 328.388 15.496 328.692 15.304ZM336.912 15.16C336.912 13.8 337.408 12.696 338.4 11.848C339.296 11.08 340.528 10.696 342.096 10.696C343.44 10.696 344.576 11.032 345.504 11.704C346.896 12.712 347.592 14.24 347.592 16.288C347.592 18.128 347.144 19.664 346.247 20.896C345.336 22.112 344.128 22.72 342.624 22.72C341.328 22.72 340.304 22.24 339.552 21.28C338.976 21.76 338.328 22 337.608 22H332.591V18.904H336.552C336.664 18.904 336.752 18.872 336.816 18.808C336.88 18.728 336.912 18.648 336.912 18.568V15.16ZM340.608 18.904C340.976 19.368 341.448 19.6 342.024 19.6C342.6 19.6 343.064 19.328 343.416 18.784C343.768 18.24 343.944 17.52 343.944 16.624C343.944 15.664 343.76 14.936 343.392 14.44C343.04 13.992 342.56 13.768 341.952 13.768C341.552 13.768 341.216 13.912 340.944 14.2C340.72 14.488 340.608 14.816 340.608 15.184V18.904ZM358.934 5.68C359.462 5.68 359.91 5.864 360.278 6.232C360.646 6.6 360.83 7.04 360.83 7.552C360.83 8.064 360.646 8.504 360.278 8.872C359.91 9.24 359.462 9.424 358.934 9.424C358.422 9.424 357.982 9.24 357.614 8.872C357.246 8.504 357.062 8.064 357.062 7.552C357.062 7.024 357.246 6.584 357.614 6.232C357.982 5.864 358.422 5.68 358.934 5.68ZM363.23 5.68C363.758 5.68 364.206 5.864 364.574 6.232C364.942 6.6 365.126 7.04 365.126 7.552C365.126 8.064 364.942 8.504 364.574 8.872C364.206 9.24 363.758 9.424 363.23 9.424C362.718 9.424 362.278 9.24 361.91 8.872C361.558 8.504 361.382 8.064 361.382 7.552C361.382 7.024 361.558 6.584 361.91 6.232C362.278 5.864 362.718 5.68 363.23 5.68ZM365.126 10.312V18.568C365.126 18.664 365.158 18.744 365.222 18.808C365.286 18.872 365.382 18.904 365.51 18.904H366.326V22H364.43C363.614 22 362.87 21.68 362.198 21.04C361.414 21.824 360.47 22.216 359.366 22.216H359.342H359.294C357.694 22.216 356.438 21.552 355.526 20.224C354.79 19.184 354.422 17.944 354.422 16.504C354.422 14.744 354.982 13.288 356.102 12.136C357.11 11.096 358.366 10.576 359.87 10.576C360.686 10.576 361.494 10.744 362.294 11.08L363.278 10.312H365.126ZM361.406 13.936C361.022 13.84 360.662 13.792 360.326 13.792C359.622 13.792 359.07 14.032 358.67 14.512C358.27 14.992 358.07 15.656 358.07 16.504C358.07 17.304 358.286 17.96 358.718 18.472C359.166 18.984 359.742 19.24 360.446 19.24C360.718 19.24 361.038 19.2 361.406 19.12V13.936ZM374.17 10.96V19.024C374.17 19.728 373.938 20.36 373.474 20.92C372.866 21.64 372.098 22 371.17 22H366.154V18.904H370.114C370.21 18.904 370.29 18.88 370.354 18.832C370.434 18.768 370.474 18.68 370.474 18.568V10.96H374.17ZM368.098 23.104C368.61 23.104 369.05 23.288 369.418 23.656C369.786 24.024 369.97 24.472 369.97 25C369.97 25.512 369.786 25.952 369.418 26.32C369.05 26.688 368.61 26.872 368.098 26.872C367.57 26.872 367.122 26.688 366.754 26.32C366.402 25.952 366.226 25.512 366.226 25C366.226 24.472 366.402 24.024 366.754 23.656C367.122 23.288 367.57 23.104 368.098 23.104ZM372.394 23.104C372.906 23.104 373.346 23.288 373.714 23.656C374.082 24.024 374.266 24.472 374.266 25C374.266 25.512 374.082 25.952 373.714 26.32C373.346 26.688 372.906 26.872 372.394 26.872C371.866 26.872 371.418 26.688 371.05 26.32C370.698 25.952 370.522 25.512 370.522 25C370.522 24.472 370.698 24.024 371.05 23.656C371.418 23.288 371.866 23.104 372.394 23.104ZM381.235 4.816V18.568C381.235 18.6 381.243 18.648 381.259 18.712L381.283 18.736C381.331 18.848 381.427 18.904 381.571 18.904H382.459V22H380.515C379.731 22 379.043 21.72 378.451 21.16C377.843 20.568 377.539 19.856 377.539 19.024V4.816H381.235ZM386.696 18.904C386.552 18.632 386.408 18.296 386.264 17.896C386.056 17.208 385.952 16.56 385.952 15.952C385.952 14.224 386.616 12.864 387.944 11.872C389.016 11.072 390.304 10.672 391.808 10.672H391.88H392C392.944 10.672 393.872 10.808 394.784 11.08V14.008C393.92 13.832 393.144 13.744 392.456 13.744C390.584 13.744 389.648 14.584 389.648 16.264C389.648 17 389.816 17.608 390.152 18.088C390.568 18.632 391.272 18.904 392.264 18.904H396.752V20.128L395.264 22H382.256V18.904H386.696ZM405.174 10.96V18.904H406.374V22H405.126C404.95 23.84 404.15 25.296 402.726 26.368C401.526 27.248 400.118 27.688 398.502 27.688C398.326 27.688 398.046 27.68 397.662 27.664L396.149 25.768V24.496C396.197 24.512 396.285 24.528 396.413 24.544C396.83 24.624 397.198 24.664 397.518 24.664C398.846 24.632 399.83 24.296 400.47 23.656C401.126 23 401.454 22 401.454 20.656V10.96H405.174ZM414.225 10.96V19.024C414.225 19.728 413.993 20.36 413.529 20.92C412.921 21.64 412.153 22 411.225 22H406.209V18.904H410.169C410.265 18.904 410.345 18.88 410.409 18.832C410.489 18.768 410.529 18.68 410.529 18.568V10.96H414.225ZM411.897 23.104C412.409 23.104 412.849 23.288 413.217 23.656C413.585 24.024 413.769 24.472 413.769 25C413.769 25.512 413.585 25.952 413.217 26.32C412.849 26.688 412.409 26.872 411.897 26.872C411.369 26.872 410.921 26.688 410.553 26.32C410.201 25.952 410.025 25.512 410.025 25C410.025 24.472 410.201 24.024 410.553 23.656C410.921 23.288 411.369 23.104 411.897 23.104Z" fill="#0B6A70"/>
<path d="M7.832 100.68C8.36 100.68 8.808 100.864 9.176 101.232C9.544 101.6 9.728 102.04 9.728 102.552C9.728 103.064 9.544 103.504 9.176 103.872C8.808 104.24 8.36 104.424 7.832 104.424C7.32 104.424 6.88 104.24 6.512 103.872C6.144 103.504 5.96 103.064 5.96 102.552C5.96 102.024 6.144 101.584 6.512 101.232C6.88 100.864 7.32 100.68 7.832 100.68ZM12.128 100.68C12.656 100.68 13.104 100.864 13.472 101.232C13.84 101.6 14.024 102.04 14.024 102.552C14.024 103.064 13.84 103.504 13.472 103.872C13.104 104.24 12.656 104.424 12.128 104.424C11.616 104.424 11.176 104.24 10.808 103.872C10.456 103.504 10.28 103.064 10.28 102.552C10.28 102.024 10.456 101.584 10.808 101.232C11.176 100.864 11.616 100.68 12.128 100.68ZM14.024 105.312V113.568C14.024 113.664 14.056 113.744 14.12 113.808C14.184 113.872 14.28 113.904 14.408 113.904H15.224V117H13.328C12.512 117 11.768 116.68 11.096 116.04C10.312 116.824 9.368 117.216 8.264 117.216H8.24H8.192C6.592 117.216 5.336 116.552 4.424 115.224C3.688 114.184 3.32 112.944 3.32 111.504C3.32 109.744 3.88 108.288 5 107.136C6.008 106.096 7.264 105.576 8.768 105.576C9.584 105.576 10.392 105.744 11.192 106.08L12.176 105.312H14.024ZM10.304 108.936C9.92 108.84 9.56 108.792 9.224 108.792C8.52 108.792 7.968 109.032 7.568 109.512C7.168 109.992 6.968 110.656 6.968 111.504C6.968 112.304 7.184 112.96 7.616 113.472C8.064 113.984 8.64 114.24 9.344 114.24C9.616 114.24 9.936 114.2 10.304 114.12V108.936ZM23.0684 105.96V114.024C23.0684 114.728 22.8364 115.36 22.3724 115.92C21.7644 116.64 20.9964 117 20.0684 117H15.0524V113.904H19.0124C19.1084 113.904 19.1884 113.88 19.2524 113.832C19.3324 113.768 19.3724 113.68 19.3724 113.568V105.96H23.0684ZM16.9964 118.104C17.5084 118.104 17.9484 118.288 18.3164 118.656C18.6844 119.024 18.8684 119.472 18.8684 120C18.8684 120.512 18.6844 120.952 18.3164 121.32C17.9484 121.688 17.5084 121.872 16.9964 121.872C16.4684 121.872 16.0204 121.688 15.6524 121.32C15.3004 120.952 15.1244 120.512 15.1244 120C15.1244 119.472 15.3004 119.024 15.6524 118.656C16.0204 118.288 16.4684 118.104 16.9964 118.104ZM21.2924 118.104C21.8044 118.104 22.2444 118.288 22.6124 118.656C22.9804 119.024 23.1644 119.472 23.1644 120C23.1644 120.512 22.9804 120.952 22.6124 121.32C22.2444 121.688 21.8044 121.872 21.2924 121.872C20.7644 121.872 20.3164 121.688 19.9484 121.32C19.5964 120.952 19.4204 120.512 19.4204 120C19.4204 119.472 19.5964 119.024 19.9484 118.656C20.3164 118.288 20.7644 118.104 21.2924 118.104ZM31.5493 117C29.8533 117 28.4853 116.4 27.4453 115.2C26.5493 114.176 26.1013 112.952 26.1013 111.528C26.1013 109.72 26.5733 108.328 27.5173 107.352C28.6213 106.232 30.0293 105.672 31.7413 105.672C32.9733 105.672 34.0133 105.952 34.8613 106.512C36.1413 107.36 36.7812 108.576 36.7812 110.16V113.904H37.5493V117H36.7573C36.5653 118.76 35.8613 120.136 34.6453 121.128C33.9093 121.752 32.9973 122.2 31.9093 122.472C31.1733 122.664 30.3973 122.76 29.5813 122.76C29.2293 122.76 28.8613 122.736 28.4773 122.688L26.8693 120.72V119.424C27.6053 119.584 28.3093 119.664 28.9813 119.664C31.2213 119.664 32.5493 118.776 32.9653 117H31.5493ZM33.0853 110.184C33.0853 109.688 32.9013 109.304 32.5333 109.032C32.2933 108.856 32.0213 108.768 31.7173 108.768C31.1253 108.768 30.6453 109 30.2773 109.464C29.9253 109.912 29.7493 110.512 29.7493 111.264C29.7493 113.024 30.6213 113.904 32.3653 113.904H33.0853V110.184ZM39.5964 100.68C40.1084 100.68 40.5484 100.864 40.9164 101.232C41.2844 101.6 41.4684 102.04 41.4684 102.552C41.4684 103.064 41.2844 103.504 40.9164 103.872C40.5484 104.24 40.1084 104.424 39.5964 104.424C39.0684 104.424 38.6204 104.24 38.2524 103.872C37.9004 103.504 37.7244 103.064 37.7244 102.552C37.7244 102.024 37.9004 101.584 38.2524 101.232C38.6204 100.864 39.0684 100.68 39.5964 100.68ZM43.8924 100.68C44.4044 100.68 44.8444 100.864 45.2124 101.232C45.5804 101.6 45.7644 102.04 45.7644 102.552C45.7644 103.064 45.5804 103.504 45.2124 103.872C44.8444 104.24 44.4044 104.424 43.8924 104.424C43.3644 104.424 42.9164 104.24 42.5484 103.872C42.1964 103.504 42.0204 103.064 42.0204 102.552C42.0204 102.024 42.1964 101.584 42.5484 101.232C42.9164 100.864 43.3644 100.68 43.8924 100.68ZM45.4044 105.96V113.688C45.4044 113.752 45.4124 113.824 45.4284 113.904H46.6044V117H45.8604L44.8044 115.896H44.7564C44.1484 116.632 43.3644 117 42.4044 117H37.3884V113.904H41.2284C41.3724 113.904 41.4844 113.856 41.5644 113.76C41.6604 113.68 41.7084 113.568 41.7084 113.424V105.96H45.4044ZM63.5953 97.296C64.0753 97.296 64.4753 97.464 64.7953 97.8C65.1313 98.12 65.2993 98.52 65.2993 99C65.2993 99.464 65.1313 99.864 64.7953 100.2C64.4753 100.52 64.0753 100.68 63.5953 100.68C63.1313 100.68 62.7313 100.52 62.3953 100.2C62.0753 99.864 61.9153 99.464 61.9153 99C61.9153 98.52 62.0753 98.12 62.3953 97.8C62.7313 97.464 63.1313 97.296 63.5953 97.296ZM61.4833 100.68C61.9953 100.68 62.4273 100.864 62.7793 101.232C63.1473 101.584 63.3313 102.024 63.3313 102.552C63.3313 103.08 63.1473 103.528 62.7793 103.896C62.4273 104.248 61.9953 104.424 61.4833 104.424C60.9553 104.424 60.5073 104.24 60.1393 103.872C59.7713 103.504 59.5873 103.064 59.5873 102.552C59.5873 102.04 59.7713 101.6 60.1393 101.232C60.5073 100.864 60.9553 100.68 61.4833 100.68ZM65.7313 100.68C66.2593 100.68 66.6993 100.864 67.0513 101.232C67.4193 101.6 67.6033 102.04 67.6033 102.552C67.6033 103.064 67.4193 103.504 67.0513 103.872C66.6993 104.24 66.2593 104.424 65.7313 104.424C65.2193 104.424 64.7793 104.24 64.4113 103.872C64.0433 103.504 63.8593 103.064 63.8593 102.552C63.8593 102.024 64.0433 101.584 64.4113 101.232C64.7793 100.864 65.2193 100.68 65.7313 100.68ZM74.2273 105.96V112.992C74.2273 113.152 74.2353 113.416 74.2513 113.784V113.904H75.4513V117H74.5393L73.6512 115.872H73.5793C72.9873 116.624 72.2113 117 71.2513 117H65.7313L64.8433 115.872H64.7713C64.1793 116.624 63.4033 117 62.4433 117H56.9233L56.0353 115.872H55.9633C55.3713 116.624 54.5953 117 53.6353 117H46.4352V113.904H52.5793C52.8033 113.904 52.9153 113.792 52.9153 113.568V108.72H56.6113V113.016C56.6113 113.176 56.6193 113.416 56.6353 113.736V113.904H61.3873C61.6113 113.904 61.7233 113.792 61.7233 113.568V107.328H65.4193V112.896C65.4193 113.168 65.4273 113.504 65.4433 113.904H70.1953C70.4193 113.904 70.5312 113.792 70.5312 113.568V105.96H74.2273ZM83.2794 99.816V114.024C83.2794 114.728 83.0554 115.36 82.6074 115.92C81.9994 116.64 81.2234 117 80.2794 117H75.2634V113.904H79.2234C79.3194 113.904 79.3994 113.88 79.4634 113.832C79.5434 113.768 79.5834 113.68 79.5834 113.568V99.816H83.2794ZM90.2973 99.816V116.088L88.4253 117.6H86.6013V99.816H90.2973ZM114.527 99.816V113.904H115.751V117H114.479C114.303 118.76 113.591 120.152 112.343 121.176C111.031 122.216 109.359 122.736 107.327 122.736H105.215C102.847 122.736 100.999 122.056 99.6714 120.696C98.5674 119.528 98.0154 117.992 98.0154 116.088V112.416L99.8874 110.928H101.711V115.632C101.711 117.104 102.055 118.136 102.743 118.728C103.431 119.336 104.607 119.64 106.271 119.64C107.935 119.64 109.103 119.352 109.775 118.776C110.479 118.152 110.831 117.104 110.831 115.632V99.816H114.527ZM119.92 102.792C119.728 102.344 119.632 101.928 119.632 101.544C119.632 100.84 119.84 100.264 120.256 99.816C120.672 99.368 121.208 99.144 121.864 99.144C122.328 99.144 122.824 99.216 123.352 99.36V100.872C122.936 100.76 122.624 100.704 122.416 100.704C121.824 100.704 121.528 101.048 121.528 101.736C121.528 102.024 121.592 102.256 121.72 102.432C121.896 102.672 122.144 102.792 122.464 102.792H124.144V103.512L123.496 104.328H119.08V102.792H119.92ZM123.568 105.96V114.024C123.568 114.728 123.336 115.36 122.872 115.92C122.264 116.64 121.496 117 120.568 117H115.552V113.904H119.512C119.608 113.904 119.688 113.88 119.752 113.832C119.832 113.768 119.872 113.68 119.872 113.568V105.96H123.568ZM130.586 99.816V113.568C130.586 113.6 130.594 113.648 130.61 113.712L130.634 113.736C130.682 113.848 130.778 113.904 130.922 113.904H131.81V117H129.866C129.082 117 128.394 116.72 127.802 116.16C127.194 115.568 126.89 114.856 126.89 114.024V99.816H130.586ZM134.799 106.368C136.399 105.904 137.783 105.672 138.951 105.672C140.871 105.672 142.495 106.272 143.823 107.472C145.039 108.592 145.647 109.96 145.647 111.576V114.024C145.647 114.84 145.359 115.536 144.783 116.112C144.191 116.704 143.479 117 142.647 117H131.607V113.904H141.591C141.815 113.904 141.927 113.792 141.927 113.568V111.984C141.927 110.928 141.471 110.104 140.559 109.512C139.839 109.048 139.007 108.816 138.063 108.816C137.183 108.816 136.095 108.984 134.799 109.32V106.368ZM161.255 105.312C161.783 105.312 162.223 105.496 162.575 105.864C162.943 106.232 163.127 106.672 163.127 107.184C163.127 107.712 162.943 108.16 162.575 108.528C162.223 108.88 161.783 109.056 161.255 109.056C160.743 109.056 160.303 108.88 159.935 108.528C159.567 108.16 159.383 107.712 159.383 107.184C159.383 106.672 159.567 106.232 159.935 105.864C160.303 105.496 160.743 105.312 161.255 105.312ZM165.551 105.312C166.079 105.312 166.519 105.496 166.871 105.864C167.239 106.232 167.423 106.672 167.423 107.184C167.423 107.712 167.239 108.16 166.871 108.528C166.519 108.88 166.079 109.056 165.551 109.056C165.039 109.056 164.599 108.88 164.231 108.528C163.863 108.16 163.679 107.712 163.679 107.184C163.679 106.672 163.863 106.232 164.231 105.864C164.599 105.496 165.039 105.312 165.551 105.312ZM173.783 105.96V114.024C173.783 114.76 173.543 115.4 173.063 115.944C172.471 116.648 171.719 117 170.807 117H157.607C156.487 117 155.503 116.64 154.655 115.92C153.567 114.992 153.023 113.8 153.023 112.344V109.2L154.895 107.688H156.719V112.344C156.719 112.824 156.887 113.216 157.223 113.52C157.527 113.776 157.847 113.904 158.183 113.904H169.727C169.967 113.904 170.087 113.792 170.087 113.568V105.96H173.783ZM180.79 99.816V113.568C180.79 113.6 180.798 113.648 180.814 113.712L180.838 113.736C180.886 113.848 180.982 113.904 181.126 113.904H182.014V117H180.07C179.286 117 178.598 116.72 178.006 116.16C177.398 115.568 177.094 114.856 177.094 114.024V99.816H180.79ZM185.698 113.904C185.554 113.184 185.482 112.312 185.482 111.288C185.482 109.432 186.09 107.984 187.306 106.944C188.298 106.112 189.506 105.696 190.93 105.696C192.53 105.696 193.786 106.08 194.698 106.848C195.69 107.696 196.186 108.8 196.186 110.16V113.568C196.186 113.664 196.218 113.744 196.282 113.808C196.362 113.872 196.458 113.904 196.57 113.904H196.954V117H195.49C194.754 117 194.098 116.76 193.522 116.28C192.77 117.24 191.73 117.72 190.402 117.72C189.106 117.72 187.994 117.216 187.066 116.208H186.97L186.346 117H181.81V113.904H185.698ZM192.49 110.184C192.49 109.816 192.37 109.488 192.13 109.2C191.858 108.912 191.49 108.768 191.026 108.768C190.434 108.768 189.97 109.008 189.634 109.488C189.298 109.952 189.13 110.6 189.13 111.432C189.13 113.56 189.706 114.624 190.858 114.624C191.418 114.624 191.962 114.384 192.49 113.904V110.184ZM204.803 105.96V113.688C204.803 113.752 204.811 113.824 204.827 113.904H206.027V117H205.283L204.227 115.896H204.155C203.563 116.632 202.787 117 201.827 117H196.811V113.904H200.627C200.787 113.904 200.907 113.856 200.987 113.76C201.067 113.68 201.107 113.568 201.107 113.424V105.96H204.803ZM198.611 118.104C199.139 118.104 199.587 118.288 199.955 118.656C200.323 119.024 200.507 119.472 200.507 120C200.507 120.512 200.323 120.952 199.955 121.32C199.587 121.688 199.139 121.872 198.611 121.872C198.099 121.872 197.659 121.688 197.291 121.32C196.923 120.952 196.739 120.512 196.739 120C196.739 119.472 196.923 119.024 197.291 118.656C197.659 118.288 198.099 118.104 198.611 118.104ZM202.907 118.104C203.435 118.104 203.883 118.288 204.251 118.656C204.619 119.024 204.803 119.472 204.803 120C204.803 120.512 204.619 120.952 204.251 121.32C203.883 121.688 203.435 121.872 202.907 121.872C202.395 121.872 201.955 121.688 201.587 121.32C201.235 120.952 201.059 120.512 201.059 120C201.059 119.472 201.235 119.024 201.587 118.656C201.955 118.288 202.395 118.104 202.907 118.104ZM213.442 100.68C213.954 100.68 214.386 100.864 214.738 101.232C215.106 101.584 215.29 102.024 215.29 102.552C215.29 103.08 215.106 103.528 214.738 103.896C214.386 104.248 213.954 104.424 213.442 104.424C212.914 104.424 212.466 104.24 212.098 103.872C211.73 103.504 211.546 103.064 211.546 102.552C211.546 102.04 211.73 101.6 212.098 101.232C212.466 100.864 212.914 100.68 213.442 100.68ZM209.026 106.368C210.546 105.904 211.946 105.672 213.226 105.672C215.13 105.672 216.738 106.272 218.05 107.472C219.266 108.592 219.874 109.96 219.874 111.576V113.688C219.874 113.752 219.882 113.824 219.898 113.904H220.642V117H220.162L219.274 115.896H219.202C218.61 116.632 217.834 117 216.874 117H205.834V113.904H215.818C216.042 113.904 216.154 113.792 216.154 113.568V111.984C216.154 111.072 215.786 110.32 215.05 109.728C214.33 109.12 213.426 108.816 212.338 108.816C211.442 108.816 210.338 108.984 209.026 109.32V106.368ZM224.779 110.16C224.779 108.8 225.275 107.696 226.267 106.848C227.163 106.08 228.395 105.696 229.963 105.696C231.307 105.696 232.443 106.032 233.371 106.704C234.763 107.712 235.459 109.24 235.459 111.288C235.459 113.128 235.011 114.664 234.115 115.896C233.203 117.112 231.995 117.72 230.491 117.72C229.195 117.72 228.171 117.24 227.419 116.28C226.843 116.76 226.195 117 225.475 117H220.459V113.904H224.419C224.531 113.904 224.619 113.872 224.683 113.808C224.747 113.728 224.779 113.648 224.779 113.568V110.16ZM228.475 113.904C228.843 114.368 229.315 114.6 229.891 114.6C230.467 114.6 230.931 114.328 231.283 113.784C231.635 113.24 231.811 112.52 231.811 111.624C231.811 110.664 231.627 109.936 231.259 109.44C230.907 108.992 230.427 108.768 229.819 108.768C229.419 108.768 229.083 108.912 228.811 109.2C228.587 109.488 228.475 109.816 228.475 110.184V113.904ZM247.857 100.68C248.369 100.68 248.809 100.864 249.177 101.232C249.545 101.584 249.729 102.024 249.729 102.552C249.729 103.064 249.545 103.504 249.177 103.872C248.809 104.24 248.369 104.424 247.857 104.424C247.329 104.424 246.881 104.24 246.513 103.872C246.145 103.504 245.961 103.064 245.961 102.552C245.961 102.04 246.145 101.6 246.513 101.232C246.881 100.864 247.329 100.68 247.857 100.68ZM249.705 105.96V113.904H250.905V117H249.657C249.481 118.856 248.673 120.312 247.233 121.368C246.033 122.248 244.617 122.688 242.985 122.688C242.793 122.688 242.529 122.68 242.193 122.664L240.681 120.768V119.496C240.729 119.512 240.817 119.528 240.945 119.544C241.361 119.624 241.729 119.664 242.049 119.664C243.329 119.648 244.297 119.336 244.953 118.728C245.641 118.072 245.985 117.048 245.985 115.656V105.96H249.705ZM253.932 106.368C255.452 105.904 256.852 105.672 258.132 105.672C260.036 105.672 261.644 106.272 262.956 107.472C264.172 108.592 264.78 109.96 264.78 111.576V113.688C264.78 113.752 264.788 113.824 264.804 113.904H265.548V117H265.068L264.18 115.896H264.108C263.516 116.632 262.74 117 261.78 117H250.74V113.904H260.724C260.948 113.904 261.06 113.792 261.06 113.568V111.984C261.06 111.072 260.692 110.32 259.956 109.728C259.236 109.12 258.332 108.816 257.244 108.816C256.348 108.816 255.244 108.984 253.932 109.32V106.368ZM257.772 118.104C258.284 118.104 258.724 118.288 259.092 118.656C259.46 119.024 259.644 119.472 259.644 120C259.644 120.512 259.46 120.952 259.092 121.32C258.724 121.688 258.284 121.872 257.772 121.872C257.244 121.872 256.796 121.688 256.428 121.32C256.076 120.952 255.9 120.512 255.9 120C255.9 119.472 256.076 119.024 256.428 118.656C256.796 118.288 257.244 118.104 257.772 118.104ZM268.557 106.368C270.157 105.904 271.541 105.672 272.709 105.672C274.629 105.672 276.253 106.272 277.581 107.472C278.797 108.592 279.405 109.96 279.405 111.576V114.024C279.405 114.84 279.117 115.536 278.541 116.112C277.949 116.704 277.237 117 276.405 117H265.365V113.904H275.349C275.573 113.904 275.685 113.792 275.685 113.568V111.984C275.685 110.928 275.229 110.104 274.317 109.512C273.597 109.048 272.765 108.816 271.821 108.816C270.941 108.816 269.853 108.984 268.557 109.32V106.368ZM289.109 115.056C288.661 114.768 288.269 114.312 287.933 113.688C287.517 112.792 287.309 111.928 287.309 111.096C287.309 109.304 287.885 107.944 289.037 107.016C290.013 106.232 291.269 105.84 292.805 105.84C293.381 105.84 294.117 105.936 295.013 106.128V109.032C294.325 108.904 293.797 108.84 293.429 108.84C292.565 108.84 291.941 109.032 291.557 109.416C291.189 109.8 291.005 110.44 291.005 111.336C291.005 112.088 291.205 112.68 291.605 113.112C292.005 113.528 292.557 113.736 293.261 113.736C293.357 113.736 293.453 113.728 293.549 113.712C294.765 113.536 295.845 113.448 296.789 113.448C296.933 113.448 297.149 113.456 297.437 113.472H297.533V114.744L296.045 116.592C294.989 116.656 293.917 116.84 292.829 117.144C291.325 117.528 289.797 118.248 288.245 119.304L286.445 116.472C287.357 115.912 288.245 115.44 289.109 115.056ZM301.399 105.816C301.815 105.72 302.391 105.672 303.127 105.672C305.095 105.672 306.679 106.288 307.879 107.52C308.951 108.624 309.487 110.024 309.487 111.72V112.896C309.487 113.344 309.495 113.68 309.511 113.904H310.111V117H309.799L308.911 115.896H308.839C308.695 116.056 308.567 116.192 308.455 116.304C307.895 116.752 307.263 116.984 306.559 117H298.975V113.904H305.455C305.679 113.904 305.791 113.792 305.791 113.568V112.008C305.791 111.032 305.487 110.232 304.879 109.608C304.287 108.984 303.511 108.672 302.551 108.672C302.055 108.672 301.671 108.704 301.399 108.768V105.816ZM317.936 105.96V114.024C317.936 114.728 317.704 115.36 317.24 115.92C316.632 116.64 315.864 117 314.936 117H309.92V113.904H313.88C313.976 113.904 314.056 113.88 314.12 113.832C314.2 113.768 314.24 113.68 314.24 113.568V105.96H317.936ZM315.608 118.104C316.12 118.104 316.56 118.288 316.928 118.656C317.296 119.024 317.48 119.472 317.48 120C317.48 120.512 317.296 120.952 316.928 121.32C316.56 121.688 316.12 121.872 315.608 121.872C315.08 121.872 314.632 121.688 314.264 121.32C313.912 120.952 313.736 120.512 313.736 120C313.736 119.472 313.912 119.024 314.264 118.656C314.632 118.288 315.08 118.104 315.608 118.104ZM334.952 100.68C335.48 100.68 335.92 100.864 336.272 101.232C336.64 101.584 336.824 102.024 336.824 102.552C336.824 103.064 336.64 103.504 336.272 103.872C335.92 104.24 335.48 104.424 334.952 104.424C334.44 104.424 334 104.24 333.632 103.872C333.264 103.504 333.08 103.064 333.08 102.552C333.08 102.04 333.264 101.6 333.632 101.232C334 100.864 334.44 100.68 334.952 100.68ZM339.248 100.68C339.776 100.68 340.216 100.864 340.568 101.232C340.936 101.584 341.12 102.024 341.12 102.552C341.12 103.064 340.936 103.504 340.568 103.872C340.216 104.24 339.776 104.424 339.248 104.424C338.736 104.424 338.296 104.24 337.928 103.872C337.56 103.504 337.376 103.064 337.376 102.552C337.376 102.04 337.56 101.6 337.928 101.232C338.296 100.864 338.736 100.68 339.248 100.68ZM338.36 117.024C337.8 117.152 337.264 117.216 336.752 117.216C335.44 117.216 334.296 116.72 333.32 115.728C332.104 114.496 331.496 113.04 331.496 111.36C331.496 109.328 332.208 107.784 333.632 106.728C334.624 106.024 335.792 105.672 337.136 105.672C338.352 105.672 339.4 105.96 340.28 106.536C341.544 107.384 342.176 108.592 342.176 110.16V116.088C342.176 118.568 341.288 120.4 339.512 121.584C338.248 122.352 336.736 122.736 334.976 122.736H332.864C330.608 122.736 328.808 122.104 327.464 120.84C326.264 119.688 325.664 118.104 325.664 116.088V114.072L327.536 112.56H329.36V115.632C329.36 117.088 329.704 118.12 330.392 118.728C331.08 119.336 332.256 119.64 333.92 119.64C335.328 119.64 336.36 119.44 337.016 119.04C337.672 118.656 338.12 117.984 338.36 117.024ZM338.48 110.184C338.48 109.8 338.368 109.48 338.144 109.224C337.872 108.92 337.528 108.768 337.112 108.768C336.52 108.768 336.048 108.984 335.696 109.416C335.328 109.88 335.144 110.496 335.144 111.264C335.144 112.112 335.352 112.808 335.768 113.352C336.2 113.896 336.752 114.168 337.424 114.168C337.728 114.168 338.08 114.112 338.48 114V110.184ZM357.644 99.816V113.232C357.644 113.376 357.652 113.6 357.668 113.904H358.868V117H357.956L357.068 115.896H356.996C356.708 116.264 356.332 116.544 355.868 116.736C355.484 116.912 355.1 117 354.716 117H345.812L344.3 115.128V113.904H349.58L345.788 102.768H349.172L352.964 113.904H353.612C353.724 113.904 353.812 113.872 353.876 113.808C353.924 113.712 353.948 113.632 353.948 113.568V99.816H357.644ZM366.709 99.816L366.685 108.912C368.717 106.736 371.125 105.648 373.909 105.648C375.909 105.648 377.565 106.24 378.877 107.424C380.109 108.528 380.725 109.928 380.725 111.624V114.024C380.725 114.968 380.357 115.744 379.621 116.352C379.061 116.784 378.437 117 377.749 117H358.693V113.904H363.013V99.816H366.709ZM377.029 112.032C377.029 111.36 376.837 110.744 376.453 110.184C375.749 109.272 374.749 108.816 373.453 108.816C372.317 108.816 371.205 109.192 370.117 109.944C368.757 110.888 367.613 112.208 366.685 113.904H376.669C376.909 113.904 377.029 113.792 377.029 113.568V112.032ZM387.415 99.816V116.088L385.543 117.6H383.695V99.816H387.415ZM383.551 122.688C383.343 122.208 383.239 121.792 383.239 121.44C383.239 120.736 383.447 120.16 383.863 119.712C384.279 119.264 384.815 119.04 385.471 119.04C385.951 119.04 386.447 119.112 386.959 119.256V120.768C386.559 120.656 386.263 120.6 386.071 120.6C385.463 120.6 385.159 120.944 385.159 121.632C385.159 121.936 385.215 122.168 385.327 122.328C385.487 122.568 385.735 122.688 386.071 122.688H387.751V123.408L387.103 124.224H382.687V122.688H383.551ZM396.685 113.904C396.205 112.928 395.965 111.92 395.965 110.88C395.965 109.28 396.565 107.976 397.765 106.968C398.789 106.104 400.005 105.672 401.413 105.672C402.981 105.672 404.237 106.072 405.181 106.872C406.157 107.688 406.645 108.784 406.645 110.16V113.568C406.645 113.68 406.685 113.76 406.765 113.808C406.829 113.872 406.917 113.904 407.029 113.904H407.413V117H405.949C405.357 117 404.877 116.888 404.509 116.664C404.317 116.552 404.061 116.344 403.741 116.04C403.501 116.296 403.205 116.496 402.853 116.64C402.309 116.88 401.701 117 401.029 117H398.149C397.925 117 397.813 117.112 397.813 117.336V124.464L395.941 125.952H394.117V116.856C394.117 116.136 394.349 115.504 394.813 114.96C395.421 114.256 396.093 113.904 396.829 113.904H396.685ZM402.949 110.184C402.949 109.752 402.805 109.4 402.517 109.128C402.261 108.888 401.957 108.768 401.605 108.768C400.277 108.768 399.613 109.608 399.613 111.288C399.613 112.136 399.821 112.808 400.237 113.304C400.653 113.784 401.221 114.024 401.941 114.024C402.213 114.024 402.549 113.984 402.949 113.904V110.184ZM409.464 100.68C409.976 100.68 410.416 100.864 410.784 101.232C411.152 101.6 411.336 102.04 411.336 102.552C411.336 103.064 411.152 103.504 410.784 103.872C410.416 104.24 409.976 104.424 409.464 104.424C408.936 104.424 408.488 104.24 408.12 103.872C407.768 103.504 407.592 103.064 407.592 102.552C407.592 102.024 407.768 101.584 408.12 101.232C408.488 100.864 408.936 100.68 409.464 100.68ZM413.76 100.68C414.272 100.68 414.712 100.864 415.08 101.232C415.448 101.6 415.632 102.04 415.632 102.552C415.632 103.064 415.448 103.504 415.08 103.872C414.712 104.24 414.272 104.424 413.76 104.424C413.232 104.424 412.784 104.24 412.416 103.872C412.064 103.504 411.888 103.064 411.888 102.552C411.888 102.024 412.064 101.584 412.416 101.232C412.784 100.864 413.232 100.68 413.76 100.68ZM415.272 105.96V113.688C415.272 113.752 415.28 113.824 415.296 113.904H416.472V117H415.728L414.672 115.896H414.624C414.016 116.632 413.232 117 412.272 117H407.256V113.904H411.096C411.24 113.904 411.352 113.856 411.432 113.76C411.528 113.68 411.576 113.568 411.576 113.424V105.96H415.272ZM424.318 105.96V113.688C424.318 113.752 424.326 113.824 424.342 113.904H425.542V117H424.798L423.742 115.896H423.67C423.078 116.632 422.302 117 421.342 117H416.326V113.904H420.142C420.302 113.904 420.422 113.856 420.502 113.76C420.582 113.68 420.622 113.568 420.622 113.424V105.96H424.318ZM418.126 118.104C418.654 118.104 419.102 118.288 419.47 118.656C419.838 119.024 420.022 119.472 420.022 120C420.022 120.512 419.838 120.952 419.47 121.32C419.102 121.688 418.654 121.872 418.126 121.872C417.614 121.872 417.174 121.688 416.806 121.32C416.438 120.952 416.254 120.512 416.254 120C416.254 119.472 416.438 119.024 416.806 118.656C417.174 118.288 417.614 118.104 418.126 118.104ZM422.422 118.104C422.95 118.104 423.398 118.288 423.766 118.656C424.134 119.024 424.318 119.472 424.318 120C424.318 120.512 424.134 120.952 423.766 121.32C423.398 121.688 422.95 121.872 422.422 121.872C421.91 121.872 421.47 121.688 421.102 121.32C420.75 120.952 420.574 120.512 420.574 120C420.574 119.472 420.75 119.024 421.102 118.656C421.47 118.288 421.91 118.104 422.422 118.104ZM453.141 105.96V114.024C453.141 114.84 452.845 115.544 452.253 116.136C451.677 116.712 450.981 117 450.165 117H444.765L443.757 115.872H443.685C443.093 116.624 442.317 117 441.357 117H435.957L434.949 115.872H434.877C434.285 116.624 433.509 117 432.549 117H425.349V113.904H431.493C431.717 113.904 431.829 113.792 431.829 113.568V108.72H435.525V112.488C435.525 112.728 435.533 113.104 435.549 113.616V113.904H440.301C440.525 113.904 440.637 113.792 440.637 113.568V107.328H444.333V112.896C444.333 113.168 444.341 113.504 444.357 113.904H449.109C449.333 113.904 449.445 113.792 449.445 113.568V105.96H453.141Z" fill="#0B6A70"/>
<path d="M24.224 49.088V67.872H25.856V72H24.16C23.9253 74.3467 22.976 76.2027 21.312 77.568C19.5627 78.9547 17.3333 79.648 14.624 79.648H11.808C8.65067 79.648 6.18667 78.7413 4.416 76.928C2.944 75.3707 2.208 73.3227 2.208 70.784V65.888L4.704 63.904H7.136V70.176C7.136 72.1387 7.59467 73.5147 8.512 74.304C9.42933 75.1147 10.9973 75.52 13.216 75.52C15.4347 75.52 16.992 75.136 17.888 74.368C18.8267 73.536 19.296 72.1387 19.296 70.176V49.088H24.224ZM36.2788 57.28V67.584C36.2788 67.6693 36.2894 67.7653 36.3108 67.872H37.9108V72H36.9188L35.5108 70.528H35.4148C34.6254 71.5093 33.5908 72 32.3108 72H25.6227V67.872H30.7108C30.9241 67.872 31.0841 67.808 31.1908 67.68C31.2974 67.5733 31.3508 67.424 31.3508 67.232V57.28H36.2788ZM28.0228 73.472C28.7268 73.472 29.3241 73.7173 29.8148 74.208C30.3054 74.6987 30.5508 75.296 30.5508 76C30.5508 76.6827 30.3054 77.2693 29.8148 77.76C29.3241 78.2507 28.7268 78.496 28.0228 78.496C27.3401 78.496 26.7534 78.2507 26.2628 77.76C25.7721 77.2693 25.5267 76.6827 25.5267 76C25.5267 75.296 25.7721 74.6987 26.2628 74.208C26.7534 73.7173 27.3401 73.472 28.0228 73.472ZM33.7508 73.472C34.4548 73.472 35.0521 73.7173 35.5428 74.208C36.0334 74.6987 36.2788 75.296 36.2788 76C36.2788 76.6827 36.0334 77.2693 35.5428 77.76C35.0521 78.2507 34.4548 78.496 33.7508 78.496C33.0681 78.496 32.4814 78.2507 31.9908 77.76C31.5214 77.2693 31.2868 76.6827 31.2868 76C31.2868 75.296 31.5214 74.6987 31.9908 74.208C32.4814 73.7173 33.0681 73.472 33.7508 73.472ZM46.9333 50.24C47.6373 50.24 48.2239 50.4853 48.6933 50.976C49.1839 51.4453 49.4293 52.032 49.4293 52.736C49.4293 53.4187 49.1839 54.0053 48.6933 54.496C48.2026 54.9867 47.6159 55.232 46.9333 55.232C46.2506 55.232 45.6639 54.9867 45.1733 54.496C44.6826 54.0053 44.4373 53.4187 44.4373 52.736C44.4373 52.0533 44.6719 51.4667 45.1413 50.976C45.6319 50.4853 46.2293 50.24 46.9333 50.24ZM52.6613 50.24C53.3653 50.24 53.9519 50.4853 54.4213 50.976C54.9119 51.4453 55.1573 52.032 55.1573 52.736C55.1573 53.4187 54.9119 54.0053 54.4213 54.496C53.9306 54.9867 53.3439 55.232 52.6613 55.232C51.9786 55.232 51.3919 54.9867 50.9013 54.496C50.4106 54.0053 50.1653 53.4187 50.1653 52.736C50.1653 52.0533 50.3999 51.4667 50.8693 50.976C51.3599 50.4853 51.9573 50.24 52.6613 50.24ZM43.5093 67.872C42.8906 66.6347 42.5813 65.3227 42.5813 63.936C42.5813 62.656 42.8693 61.4827 43.4453 60.416C44.0853 59.328 44.9706 58.4747 46.1013 57.856C47.2319 57.216 48.4799 56.896 49.8453 56.896C51.8933 56.896 53.6213 57.5787 55.0293 58.944C56.4159 60.288 57.1093 61.952 57.1093 63.936C57.1093 65.344 56.7999 66.656 56.1813 67.872H57.8773V72H52.8853C51.5626 72 50.5706 71.808 49.9093 71.424H49.7173C49.0559 71.808 48.0533 72 46.7093 72H37.6532V67.872H43.5093ZM49.8133 67.808C51.4133 67.488 52.2133 66.3467 52.2133 64.384C52.1919 63.4027 51.9573 62.6027 51.5093 61.984C51.0826 61.344 50.5173 61.024 49.8133 61.024C49.1306 61.024 48.5653 61.344 48.1173 61.984C47.6693 62.624 47.4453 63.424 47.4453 64.384C47.4453 66.3253 48.2346 67.4667 49.8133 67.808ZM61.878 57.824C63.9047 57.2053 65.7713 56.896 67.478 56.896C70.0167 56.896 72.1607 57.696 73.91 59.296C75.5313 60.7893 76.342 62.6133 76.342 64.768V67.584C76.342 67.6693 76.3527 67.7653 76.374 67.872H77.366V72H76.726L75.542 70.528H75.446C74.6567 71.5093 73.622 72 72.342 72H57.622V67.872H70.934C71.2327 67.872 71.382 67.7227 71.382 67.424V65.312C71.382 64.096 70.8913 63.0933 69.91 62.304C68.95 61.4933 67.7447 61.088 66.294 61.088C65.0993 61.088 63.6273 61.312 61.878 61.76V57.824ZM87.81 49.088V68.032C87.81 68.9707 87.5113 69.8133 86.914 70.56C86.1033 71.52 85.0687 72 83.81 72H77.122V67.872H82.402C82.53 67.872 82.6367 67.84 82.722 67.776C82.8287 67.6907 82.882 67.5733 82.882 67.424V49.088H87.81ZM97.1673 49.088V70.784L94.6713 72.8H92.2393V49.088H97.1673ZM130.53 36.544V42.368L129.506 43.232H128.482V36.544H130.53ZM134.338 44.448V48.448C134.338 48.8107 134.21 49.1627 133.954 49.504C133.634 49.888 133.218 50.08 132.706 50.08H130.85L130.242 49.44H130.21C130.082 49.5893 129.922 49.728 129.73 49.856C129.474 50.0053 129.186 50.08 128.866 50.08H126.402C125.89 50.08 125.474 49.888 125.154 49.504C124.898 49.12 124.77 48.768 124.77 48.448V46.048L125.794 45.216H126.818V48.224C126.818 48.288 126.839 48.3307 126.882 48.352C126.925 48.3947 126.978 48.416 127.042 48.416H128.258C128.365 48.416 128.429 48.3947 128.45 48.352C128.514 48.3093 128.546 48.2347 128.546 48.128V45.216H130.594V48.416H132.066C132.109 48.416 132.162 48.4053 132.226 48.384H132.258C132.279 48.3413 132.29 48.288 132.29 48.224V44.448H134.338ZM153.346 47.616V70.784L150.85 72.8H148.386V47.616H153.346ZM144.034 52.384V68.032C144.034 69.0347 143.703 69.9093 143.042 70.656C142.231 71.552 141.239 72 140.066 72H133.218L131.874 70.496H131.778C131.373 71.0293 130.871 71.4133 130.274 71.648C129.783 71.8827 129.25 72 128.674 72H120.354C119.266 72 118.274 71.5733 117.378 70.72C116.354 71.7653 115.031 72.288 113.41 72.288C111.319 72.288 109.666 71.4027 108.45 69.632C107.49 68.224 107.01 66.5707 107.01 64.672C107.01 62.1973 107.778 60.2453 109.314 58.816C110.658 57.5573 112.397 56.928 114.53 56.928C115.597 56.928 116.589 57.0987 117.506 57.44L118.818 56.384H121.282V67.424C121.282 67.5733 121.325 67.68 121.41 67.744C121.495 67.8293 121.623 67.872 121.794 67.872H127.266C127.373 67.872 127.458 67.8507 127.522 67.808C127.65 67.7227 127.714 67.5947 127.714 67.424V52.384H132.642V66.432C132.642 67.072 132.653 67.552 132.674 67.872H138.658C138.85 67.872 138.978 67.7973 139.042 67.648C139.085 67.5627 139.106 67.488 139.106 67.424V52.384H144.034ZM116.322 61.248C115.767 61.12 115.287 61.056 114.882 61.056C113.965 61.056 113.229 61.3867 112.674 62.048C112.141 62.688 111.874 63.5627 111.874 64.672C111.874 65.76 112.162 66.6453 112.738 67.328C113.314 67.9893 114.082 68.32 115.042 68.32C115.426 68.32 115.853 68.2667 116.322 68.16V61.248ZM160.043 57.088C160.597 56.96 161.365 56.896 162.347 56.896C164.971 56.896 167.083 57.7173 168.683 59.36C170.112 60.832 170.827 62.6987 170.827 64.96V66.528C170.827 67.1253 170.837 67.5733 170.859 67.872H171.659V72H171.243L170.059 70.528H169.963C169.771 70.7413 169.6 70.9227 169.451 71.072C168.704 71.6693 167.861 71.9787 166.923 72H156.811V67.872H165.451C165.749 67.872 165.899 67.7227 165.899 67.424V65.344C165.899 64.0427 165.493 62.976 164.683 62.144C163.893 61.312 162.859 60.896 161.579 60.896C160.917 60.896 160.405 60.9387 160.043 61.024V57.088ZM182.091 57.28V67.584C182.091 67.6693 182.102 67.7653 182.123 67.872H183.691V72H182.699L181.291 70.528H181.227C180.417 71.5093 179.371 72 178.091 72H171.403V67.872H176.523C176.715 67.872 176.865 67.808 176.971 67.68C177.099 67.5733 177.163 67.424 177.163 67.232V57.28H182.091ZM179.595 73.472C180.278 73.472 180.865 73.7173 181.355 74.208C181.846 74.6987 182.091 75.296 182.091 76C182.091 76.6827 181.846 77.2693 181.355 77.76C180.865 78.2507 180.278 78.496 179.595 78.496C178.891 78.496 178.294 78.2507 177.803 77.76C177.334 77.2693 177.099 76.6827 177.099 76C177.099 75.296 177.334 74.6987 177.803 74.208C178.294 73.7173 178.891 73.472 179.595 73.472ZM189.386 67.872C189.194 67.5093 189.002 67.0613 188.81 66.528C188.532 65.6107 188.394 64.7467 188.394 63.936C188.394 61.632 189.279 59.8187 191.05 58.496C192.479 57.4293 194.196 56.896 196.202 56.896H196.298H196.458C197.716 56.896 198.954 57.0773 200.17 57.44V61.344C199.018 61.1093 197.983 60.992 197.066 60.992C194.57 60.992 193.322 62.112 193.322 64.352C193.322 65.3333 193.546 66.144 193.994 66.784C194.548 67.5093 195.487 67.872 196.81 67.872H202.794V69.504L200.81 72H183.466V67.872H189.386ZM222.96 56.896C223.664 56.896 224.251 57.1413 224.72 57.632C225.211 58.1013 225.456 58.688 225.456 59.392C225.456 60.096 225.211 60.6933 224.72 61.184C224.229 61.6533 223.643 61.888 222.96 61.888C222.277 61.888 221.691 61.6427 221.2 61.152C220.709 60.6613 220.464 60.0747 220.464 59.392C220.464 58.7093 220.699 58.1227 221.168 57.632C221.659 57.1413 222.256 56.896 222.96 56.896ZM234.064 57.28V67.872H235.696V72H234C233.765 74.4747 232.741 76.3947 230.928 77.76C229.221 79.0187 227.067 79.648 224.464 79.648H221.648C218.619 79.648 216.229 78.816 214.48 77.152C212.859 75.5947 212.048 73.472 212.048 70.784V65.888L214.544 63.904H216.976V70.176C216.976 72.1387 217.435 73.5147 218.352 74.304C219.269 75.1147 220.837 75.52 223.056 75.52C225.275 75.52 226.832 75.136 227.728 74.368C228.667 73.536 229.136 72.1387 229.136 70.176V57.28H234.064ZM246.279 57.28V68.032C246.279 68.9707 245.969 69.8133 245.351 70.56C244.54 71.52 243.516 72 242.279 72H235.591V67.872H240.871C240.999 67.872 241.105 67.84 241.191 67.776C241.297 67.6907 241.351 67.5733 241.351 67.424V57.28H246.279ZM243.175 73.472C243.857 73.472 244.444 73.7173 244.935 74.208C245.425 74.6987 245.671 75.296 245.671 76C245.671 76.6827 245.425 77.2693 244.935 77.76C244.444 78.2507 243.857 78.496 243.175 78.496C242.471 78.496 241.873 78.2507 241.383 77.76C240.913 77.2693 240.679 76.6827 240.679 76C240.679 75.296 240.913 74.6987 241.383 74.208C241.873 73.7173 242.471 73.472 243.175 73.472ZM258.855 57.088C259.41 56.96 260.178 56.896 261.159 56.896C263.783 56.896 265.895 57.7173 267.495 59.36C268.924 60.832 269.639 62.6987 269.639 64.96V66.528C269.639 67.1253 269.65 67.5733 269.671 67.872H270.471V72H270.055L268.871 70.528H268.775C268.583 70.7413 268.412 70.9227 268.263 71.072C267.516 71.6693 266.674 71.9787 265.735 72H255.623V67.872H264.263C264.562 67.872 264.711 67.7227 264.711 67.424V65.344C264.711 64.0427 264.306 62.976 263.495 62.144C262.706 61.312 261.671 60.896 260.391 60.896C259.73 60.896 259.218 60.9387 258.855 61.024V57.088ZM274.472 57.824C276.605 57.2053 278.45 56.896 280.008 56.896C282.568 56.896 284.733 57.696 286.504 59.296C288.125 60.7893 288.936 62.6133 288.936 64.768V68.032C288.936 69.12 288.552 70.048 287.784 70.816C286.994 71.6053 286.045 72 284.936 72H270.216V67.872H283.528C283.826 67.872 283.976 67.7227 283.976 67.424V65.312C283.976 63.904 283.368 62.8053 282.152 62.016C281.192 61.3973 280.082 61.088 278.824 61.088C277.65 61.088 276.2 61.312 274.472 61.76V57.824ZM279.592 73.472C280.274 73.472 280.861 73.7173 281.352 74.208C281.842 74.6987 282.088 75.296 282.088 76C282.088 76.6827 281.842 77.2693 281.352 77.76C280.861 78.2507 280.274 78.496 279.592 78.496C278.888 78.496 278.29 78.2507 277.8 77.76C277.33 77.2693 277.096 76.6827 277.096 76C277.096 75.296 277.33 74.6987 277.8 74.208C278.29 73.7173 278.888 73.472 279.592 73.472ZM297.824 49.088V67.424C297.824 67.4667 297.834 67.5307 297.856 67.616L297.888 67.648C297.952 67.7973 298.08 67.872 298.272 67.872H299.456V72H296.864C295.818 72 294.901 71.6267 294.112 70.88C293.301 70.0907 292.896 69.1413 292.896 68.032V49.088H297.824ZM304.945 62.88C304.945 61.0667 305.606 59.5947 306.929 58.464C308.123 57.44 309.766 56.928 311.857 56.928C313.649 56.928 315.163 57.376 316.401 58.272C318.257 59.616 319.185 61.6533 319.185 64.384C319.185 66.8373 318.587 68.8853 317.392 70.528C316.177 72.1493 314.566 72.96 312.561 72.96C310.833 72.96 309.467 72.32 308.465 71.04C307.697 71.68 306.833 72 305.873 72H299.184V67.872H304.465C304.614 67.872 304.731 67.8293 304.817 67.744C304.902 67.6373 304.945 67.5307 304.945 67.424V62.88ZM309.873 67.872C310.363 68.4907 310.993 68.8 311.761 68.8C312.529 68.8 313.147 68.4373 313.617 67.712C314.086 66.9867 314.321 66.0267 314.321 64.832C314.321 63.552 314.075 62.5813 313.585 61.92C313.115 61.3227 312.475 61.024 311.665 61.024C311.131 61.024 310.683 61.216 310.321 61.6C310.022 61.984 309.873 62.4213 309.873 62.912V67.872ZM330.659 67.168C331.363 67.168 331.95 67.4133 332.419 67.904C332.91 68.3733 333.155 68.9493 333.155 69.632C333.155 70.336 332.91 70.9333 332.419 71.424C331.95 71.9147 331.363 72.16 330.659 72.16C329.977 72.16 329.39 71.9147 328.899 71.424C328.409 70.9333 328.163 70.336 328.163 69.632C328.163 68.9493 328.409 68.3733 328.899 67.904C329.39 67.4133 329.977 67.168 330.659 67.168ZM347.665 50.24C348.369 50.24 348.956 50.4853 349.425 50.976C349.916 51.4453 350.161 52.032 350.161 52.736C350.161 53.44 349.916 54.0373 349.425 54.528C348.956 54.9973 348.369 55.232 347.665 55.232C346.982 55.232 346.396 54.9867 345.905 54.496C345.414 54.0053 345.169 53.4187 345.169 52.736C345.169 52.0533 345.414 51.4667 345.905 50.976C346.396 50.4853 346.982 50.24 347.665 50.24ZM345.105 57.088C345.66 56.96 346.428 56.896 347.409 56.896C350.033 56.896 352.145 57.7173 353.745 59.36C355.174 60.832 355.889 62.6987 355.889 64.96V68.032C355.889 69.2053 355.462 70.176 354.609 70.944C353.841 71.648 352.945 72 351.921 72H341.873V67.872H350.513C350.812 67.872 350.961 67.7227 350.961 67.424V65.344C350.961 64.0427 350.556 62.976 349.745 62.144C348.956 61.312 347.921 60.896 346.641 60.896C345.98 60.896 345.468 60.9387 345.105 61.024V57.088ZM364.949 49.088V67.424C364.949 67.4667 364.959 67.5307 364.981 67.616L365.013 67.648C365.077 67.7973 365.205 67.872 365.397 67.872H366.581V72H363.989C362.943 72 362.026 71.6267 361.237 70.88C360.426 70.0907 360.021 69.1413 360.021 68.032V49.088H364.949ZM369.254 50.24C369.936 50.24 370.523 50.4853 371.014 50.976C371.504 51.4667 371.75 52.0533 371.75 52.736C371.75 53.4187 371.504 54.0053 371.014 54.496C370.523 54.9867 369.936 55.232 369.254 55.232C368.55 55.232 367.952 54.9867 367.462 54.496C366.992 54.0053 366.758 53.4187 366.758 52.736C366.758 52.032 366.992 51.4453 367.462 50.976C367.952 50.4853 368.55 50.24 369.254 50.24ZM374.982 50.24C375.664 50.24 376.251 50.4853 376.742 50.976C377.232 51.4667 377.478 52.0533 377.478 52.736C377.478 53.4187 377.232 54.0053 376.742 54.496C376.251 54.9867 375.664 55.232 374.982 55.232C374.278 55.232 373.68 54.9867 373.19 54.496C372.72 54.0053 372.486 53.4187 372.486 52.736C372.486 52.032 372.72 51.4453 373.19 50.976C373.68 50.4853 374.278 50.24 374.982 50.24ZM376.998 57.28V67.584C376.998 67.6693 377.008 67.7653 377.03 67.872H378.598V72H377.606L376.198 70.528H376.134C375.323 71.5093 374.278 72 372.998 72H366.309V67.872H371.43C371.622 67.872 371.771 67.808 371.878 67.68C372.006 67.5733 372.07 67.424 372.07 67.232V57.28H376.998ZM415.428 57.28V68.032C415.428 69.12 415.033 70.0587 414.244 70.848C413.476 71.616 412.548 72 411.46 72H404.26L402.916 70.496H402.82C402.031 71.4987 400.996 72 399.716 72H392.516L391.172 70.496H391.076C390.287 71.4987 389.252 72 387.972 72H378.372V67.872H386.564C386.863 67.872 387.012 67.7227 387.012 67.424V60.96H391.94V65.984C391.94 66.304 391.951 66.8053 391.972 67.488V67.872H398.308C398.607 67.872 398.756 67.7227 398.756 67.424V59.104H403.684V66.528C403.684 66.8907 403.695 67.3387 403.716 67.872H410.052C410.351 67.872 410.5 67.7227 410.5 67.424V57.28H415.428ZM420.728 48.96C420.451 48.3413 420.312 47.7973 420.312 47.328C420.312 46.368 420.59 45.5893 421.144 44.992C421.699 44.3947 422.414 44.096 423.288 44.096C423.907 44.096 424.568 44.192 425.272 44.384V46.4C424.739 46.2507 424.334 46.176 424.056 46.176C423.267 46.176 422.872 46.6347 422.872 47.552C422.872 47.936 422.958 48.2453 423.128 48.48C423.342 48.8 423.662 48.96 424.088 48.96H426.328V49.92L425.464 51.008H419.576V48.96H420.728ZM436.568 49.088V68.032C436.568 69.0773 436.206 69.984 435.48 70.752C434.712 71.584 433.752 72 432.6 72H420.792L418.776 69.504V67.872H425.816L420.76 53.024H425.272L430.328 67.872H431.192C431.32 67.872 431.438 67.8187 431.544 67.712C431.608 67.648 431.64 67.552 431.64 67.424V49.088H436.568ZM445.917 49.088V70.784L443.421 72.8H440.989V49.088H445.917Z" fill="#173A39"/>
</svg>
