<svg width="939" height="1478" viewBox="0 0 939 1478" fill="none" xmlns="http://www.w3.org/2000/svg">
<g style="mix-blend-mode:soft-light">
<path d="M506.627 224.184L309.236 894.049L1 550.264L506.627 224.184Z" stroke="white" stroke-width="0.42" stroke-miterlimit="10"/>
<path d="M71.293 568.469L506.627 224.184L418.661 724.369L71.293 568.469Z" stroke="white" stroke-width="0.42" stroke-miterlimit="10"/>
<path d="M1 550.267L546.16 516.56L309.236 894.052L1 550.267Z" stroke="white" stroke-width="0.42" stroke-miterlimit="10"/>
<path d="M506.627 224.184L546.16 516.558L164.719 445.645L506.627 224.184Z" stroke="white" stroke-width="0.42" stroke-miterlimit="10"/>
<path d="M526.048 367.733L164.719 445.646" stroke="white" stroke-width="0.42" stroke-miterlimit="10"/>
<path d="M506.627 224.184L160.587 728.277" stroke="white" stroke-width="0.42" stroke-miterlimit="10"/>
<path d="M1 550.263L356.286 819.099" stroke="white" stroke-width="0.42" stroke-miterlimit="10"/>
<path d="M164.719 445.645L309.236 894.049" stroke="white" stroke-width="0.42" stroke-miterlimit="10"/>
<path d="M526.048 367.733L59.6257 615.659" stroke="white" stroke-width="0.42" stroke-miterlimit="10"/>
<path d="M1 550.264L536.459 444.793" stroke="white" stroke-width="0.42" stroke-miterlimit="10"/>
</g>
<g style="mix-blend-mode:soft-light">
<path d="M648.523 1157.66L347.586 528.928L97.8298 918.79L648.523 1157.66Z" stroke="white" stroke-width="0.42" stroke-miterlimit="10"/>
<path d="M164.337 889.303L648.523 1157.66L482.456 678.454L164.337 889.303Z" stroke="white" stroke-width="0.42" stroke-miterlimit="10"/>
<path d="M97.8298 918.79L641.224 862.619L347.586 528.928L97.8298 918.79Z" stroke="white" stroke-width="0.42" stroke-miterlimit="10"/>
<path d="M648.523 1157.66L641.225 862.619L276.001 995.184L648.523 1157.66Z" stroke="white" stroke-width="0.42" stroke-miterlimit="10"/>
<path d="M644.938 1012.82L276.001 995.184" stroke="white" stroke-width="0.42" stroke-miterlimit="10"/>
<path d="M648.523 1157.66L227.149 716.941" stroke="white" stroke-width="0.42" stroke-miterlimit="10"/>
<path d="M97.8301 918.792L405.902 595.193" stroke="white" stroke-width="0.42" stroke-miterlimit="10"/>
<path d="M276.001 995.185L347.586 528.928" stroke="white" stroke-width="0.42" stroke-miterlimit="10"/>
<path d="M644.937 1012.81L145.335 844.635" stroke="white" stroke-width="0.42" stroke-miterlimit="10"/>
<path d="M97.8301 918.788L643.008 935.049" stroke="white" stroke-width="0.42" stroke-miterlimit="10"/>
</g>
<g style="mix-blend-mode:soft-light">
<path d="M254.814 1031.8L938.321 1105.1L663.393 1477L254.814 1031.8Z" stroke="white" stroke-width="0.42" stroke-miterlimit="10"/>
<path d="M667.943 1403.33L254.814 1031.8L754.162 1027.11L667.943 1403.33Z" stroke="white" stroke-width="0.42" stroke-miterlimit="10"/>
<path d="M663.393 1477L529.87 938.106L938.321 1105.1L663.393 1477Z" stroke="white" stroke-width="0.42" stroke-miterlimit="10"/>
<path d="M254.814 1031.8L529.87 938.106L532.017 1332.65L254.814 1031.8Z" stroke="white" stroke-width="0.42" stroke-miterlimit="10"/>
<path d="M389.848 985.795L532.017 1332.65" stroke="white" stroke-width="0.42" stroke-miterlimit="10"/>
<path d="M254.814 1031.8L805.744 1284.45" stroke="white" stroke-width="0.42" stroke-miterlimit="10"/>
<path d="M663.393 1477L857.217 1071.93" stroke="white" stroke-width="0.42" stroke-miterlimit="10"/>
<path d="M532.017 1332.66L938.321 1105.1" stroke="white" stroke-width="0.42" stroke-miterlimit="10"/>
<path d="M389.848 985.795L715.685 1406.25" stroke="white" stroke-width="0.42" stroke-miterlimit="10"/>
<path d="M663.393 1477L462.344 961.107" stroke="white" stroke-width="0.42" stroke-miterlimit="10"/>
</g>
<g style="mix-blend-mode:soft-light">
<path d="M207.491 94.6931L890.998 167.995L616.07 539.893L207.491 94.6931Z" stroke="white" stroke-width="0.42" stroke-miterlimit="10"/>
<path d="M620.621 466.222L207.491 94.6935L706.839 90.0079L620.621 466.222Z" stroke="white" stroke-width="0.42" stroke-miterlimit="10"/>
<path d="M616.07 539.893L482.547 1L890.998 167.994L616.07 539.893Z" stroke="white" stroke-width="0.42" stroke-miterlimit="10"/>
<path d="M207.491 94.6923L482.547 1L484.695 395.548L207.491 94.6923Z" stroke="white" stroke-width="0.42" stroke-miterlimit="10"/>
<path d="M342.526 48.6891L484.695 395.549" stroke="white" stroke-width="0.42" stroke-miterlimit="10"/>
<path d="M207.491 94.6931L758.421 347.342" stroke="white" stroke-width="0.42" stroke-miterlimit="10"/>
<path d="M616.071 539.895L809.895 134.827" stroke="white" stroke-width="0.42" stroke-miterlimit="10"/>
<path d="M484.695 395.55L890.998 167.996" stroke="white" stroke-width="0.42" stroke-miterlimit="10"/>
<path d="M342.526 48.6891L668.362 469.147" stroke="white" stroke-width="0.42" stroke-miterlimit="10"/>
<path d="M616.07 539.892L415.021 24.0009" stroke="white" stroke-width="0.42" stroke-miterlimit="10"/>
</g>
<g style="mix-blend-mode:overlay">
<path d="M488.408 395.55C488.408 393.476 486.752 391.791 484.713 391.791C482.675 391.791 481.019 393.476 481.019 395.55C481.019 397.625 482.675 399.31 484.713 399.31C486.752 399.31 488.408 397.625 488.408 395.55Z" fill="white"/>
<path d="M432.585 464.648C432.585 462.777 434.078 461.258 435.916 461.258C437.754 461.258 439.247 462.777 439.247 464.648C439.247 466.518 437.754 468.037 435.916 468.037C434.078 468.037 432.585 466.518 432.585 464.648Z" fill="white"/>
<path d="M623.096 466.185C623.096 464.815 622.004 463.722 620.676 463.722C619.347 463.722 618.255 464.833 618.255 466.185C618.255 467.537 619.347 468.648 620.676 468.648C622.004 468.648 623.096 467.537 623.096 466.185Z" fill="white"/>
<path d="M405.283 598.602C406.962 598.602 408.323 597.217 408.323 595.509C408.323 593.801 406.962 592.416 405.283 592.416C403.605 592.416 402.244 593.801 402.244 595.509C402.244 597.217 403.605 598.602 405.283 598.602Z" fill="white"/>
<path d="M351.59 528.838C351.59 526.615 349.825 524.819 347.641 524.819C345.456 524.819 343.691 526.615 343.691 528.838C343.691 531.06 345.456 532.856 347.641 532.856C349.825 532.856 351.59 531.06 351.59 528.838Z" fill="white"/>
<path d="M530.271 903.569C530.271 901.699 528.778 900.18 526.94 900.18C525.102 900.18 523.609 901.699 523.609 903.569C523.609 905.44 525.102 906.959 526.94 906.959C528.778 906.959 530.271 905.44 530.271 903.569Z" fill="white"/>
<path d="M462.617 965.298C464.799 965.298 466.567 963.499 466.567 961.28C466.567 959.06 464.799 957.261 462.617 957.261C460.436 957.261 458.668 959.06 458.668 961.28C458.668 963.499 460.436 965.298 462.617 965.298Z" fill="white"/>
<path d="M388.302 927.648C388.302 925.944 389.667 924.555 391.342 924.555C393.016 924.555 394.381 925.944 394.381 927.648C394.381 929.352 393.016 930.741 391.342 930.741C389.667 930.741 388.302 929.352 388.302 927.648Z" fill="white"/>
<path d="M644.628 1015.91C646.387 1015.91 647.813 1014.46 647.813 1012.67C647.813 1010.88 646.387 1009.43 644.628 1009.43C642.869 1009.43 641.443 1010.88 641.443 1012.67C641.443 1014.46 642.869 1015.91 644.628 1015.91Z" fill="white"/>
<path d="M387.756 400.607C389.143 400.607 390.268 399.463 390.268 398.051C390.268 396.64 389.143 395.496 387.756 395.496C386.369 395.496 385.244 396.64 385.244 398.051C385.244 399.463 386.369 400.607 387.756 400.607Z" fill="white"/>
<path d="M642.808 939.054C645.573 939.054 647.814 936.774 647.814 933.961C647.814 931.148 645.573 928.868 642.808 928.868C640.044 928.868 637.803 931.148 637.803 933.961C637.803 936.774 640.044 939.054 642.808 939.054Z" fill="white"/>
</g>
</svg>
