<svg width="73" height="145" viewBox="0 0 73 145" fill="none" xmlns="http://www.w3.org/2000/svg">
<g style="mix-blend-mode:overlay">
<path d="M8.43127 91.1809C8.43127 91.1809 8.6958 92.2779 8.99814 93.3371C9.30049 94.4152 9.58395 95.4177 9.60285 95.4745L6.80619 97.8009C6.80619 97.8009 6.48488 96.6093 6.14474 95.4366C5.80461 94.264 5.52124 93.1291 5.52124 93.0534L8.43127 91.1431V91.1809Z" fill="white"/>
<path d="M9.60292 95.4934C9.60292 95.4934 9.92421 96.5526 10.2455 97.5929C10.5667 98.6521 10.8879 99.6167 10.9068 99.6734L8.24243 102.416C8.24243 102.416 7.86447 101.3 7.50543 100.127C7.1464 98.9737 6.80625 97.8766 6.78735 97.8199L9.58401 95.4934H9.60292Z" fill="white"/>
<path d="M13.099 105.707C13.099 105.707 13.4769 106.691 13.8737 107.636C14.2894 108.582 14.6673 109.471 14.6862 109.528L12.3997 113.292C12.3997 113.292 11.9462 112.251 11.4927 111.211C11.0581 110.152 10.6612 109.131 10.6423 109.074L13.0801 105.707H13.099Z" fill="white"/>
<path d="M17.2749 114.937C17.2749 114.937 17.3883 115.164 17.5584 115.486C17.7284 115.788 17.9551 116.223 18.2008 116.64C18.6543 117.491 19.1078 118.266 19.1267 118.304L17.3127 122.976C17.3127 122.976 16.7836 122.106 16.2734 121.16C16.0089 120.687 15.7632 120.233 15.5743 119.874C15.3853 119.533 15.2718 119.306 15.2529 119.288L17.256 114.956L17.2749 114.937Z" fill="white"/>
<path d="M22.0748 122.919C22.0748 122.919 22.207 123.108 22.396 123.373C22.585 123.638 22.8306 124.016 23.0952 124.338C23.6054 125.019 24.0967 125.662 24.1156 125.699L22.8117 131.128C22.8117 131.128 22.2448 130.371 21.6779 129.634C21.3945 129.255 21.111 128.839 20.9031 128.556C20.6953 128.253 20.563 128.064 20.563 128.045L22.0748 122.9V122.919Z" fill="white"/>
<path d="M27.29 129.407C27.29 129.407 27.838 129.955 28.3671 130.485C28.6317 130.769 28.9152 131.033 29.1231 131.204C29.3309 131.393 29.4632 131.506 29.4632 131.525L28.7073 137.54C28.7073 137.54 28.5562 137.407 28.3294 137.199C28.1027 137.01 27.8003 136.708 27.498 136.405C26.8933 135.8 26.3264 135.232 26.2886 135.194L27.2712 129.388L27.29 129.407Z" fill="white"/>
<path d="M32.7891 134.192C32.7891 134.192 33.3559 134.627 33.9039 134.949C34.1874 135.138 34.4709 135.308 34.6787 135.421C34.8866 135.554 35.0189 135.63 35.0378 135.63L34.8487 142.079C34.8487 142.079 34.6976 142.004 34.452 141.852C34.2063 141.701 33.904 141.512 33.6016 141.323C32.978 140.963 32.3922 140.528 32.3733 140.509L32.7891 134.211V134.192Z" fill="white"/>
<path d="M38.4203 137.18C38.4203 137.18 38.9872 137.37 39.5541 137.559C40.121 137.71 40.6501 137.824 40.669 137.842L41.0469 144.519C41.0469 144.519 40.4233 144.387 39.7997 144.198C39.1761 143.99 38.5904 143.8 38.5526 143.782L38.4014 137.18H38.4203Z" fill="white"/>
<path d="M43.9947 138.259C43.9947 138.259 44.127 138.259 44.3349 138.259C44.5427 138.259 44.8073 138.221 45.0908 138.202C45.3553 138.202 45.6387 138.183 45.8466 138.164C46.0544 138.145 46.1678 138.107 46.1867 138.107L47.1315 144.803C47.1315 144.803 46.9804 144.841 46.7537 144.86C46.5269 144.86 46.2246 144.879 45.9222 144.898C45.6199 144.898 45.3175 144.916 45.0908 144.954C44.864 144.954 44.7128 144.935 44.7128 144.935L43.9758 138.221L43.9947 138.259Z" fill="white"/>
<path d="M51.421 136.462L52.9138 142.987C52.9138 142.987 52.3469 143.271 51.7989 143.555C51.232 143.782 50.684 143.971 50.6651 143.99L49.3801 137.37C49.3801 137.37 49.8904 137.162 50.4195 136.972C50.9297 136.727 51.4021 136.481 51.4399 136.462H51.421Z" fill="white"/>
<path d="M56.2396 132.906L58.2238 139.091C58.2238 139.091 57.7136 139.545 57.2034 140.018C56.6932 140.509 56.183 140.869 56.1641 140.888L54.3689 134.551C54.3689 134.551 54.8602 134.211 55.3137 133.776C55.7672 133.341 56.2207 132.944 56.2396 132.925V132.906Z" fill="white"/>
<path d="M60.4537 127.572L62.8724 133.19C62.8724 133.19 62.759 133.36 62.6078 133.625C62.4566 133.889 62.2299 134.211 62.0031 134.533C61.5496 135.157 61.115 135.762 61.0961 135.8L58.8474 129.936C58.8474 129.936 59.2631 129.369 59.66 128.801C59.8678 128.518 60.0569 128.234 60.208 127.988C60.3592 127.761 60.4537 127.61 60.4537 127.591V127.572Z" fill="white"/>
<path d="M64.0061 120.612L66.784 125.529C66.784 125.529 66.4249 126.362 66.0659 127.194C65.8958 127.61 65.7068 128.026 65.5557 128.31C65.4045 128.612 65.3289 128.801 65.31 128.801L62.6646 123.6C62.6646 123.6 62.759 123.411 62.8724 123.146C63.0047 122.881 63.1747 122.522 63.3448 122.144C63.666 121.387 63.9684 120.668 63.9873 120.631L64.0061 120.612Z" fill="white"/>
<path d="M5.69135 23.5057L8.58258 28.0829C8.58258 28.0829 8.29906 28.8962 8.03451 29.7474C7.78885 30.6174 7.54328 31.4497 7.52438 31.4875L4.51978 27.2696C4.51978 27.2696 4.8032 26.305 5.08665 25.3404C5.38899 24.4136 5.67246 23.5435 5.69135 23.4868V23.5057Z" fill="white"/>
<path d="M14.2704 87.4171C14.2704 87.4171 14.4782 88.2871 14.7239 89.1193C14.9507 89.9705 15.1774 90.7838 15.1963 90.8216L12.9665 92.6752C12.9665 92.6752 12.7019 91.7484 12.4374 90.8027C12.1728 89.8759 11.946 88.9491 11.946 88.9112L14.2515 87.4171H14.2704Z" fill="white"/>
<path d="M15.1963 90.8216C15.1963 90.8216 15.4608 91.6728 15.7065 92.505C15.9521 93.3561 16.2167 94.1127 16.2356 94.1694L14.1192 96.3635C14.1192 96.3635 13.8169 95.4745 13.5334 94.5288C13.25 93.6209 12.9854 92.7319 12.9666 92.6941L15.1963 90.8405V90.8216Z" fill="white"/>
<path d="M17.9741 98.9547C17.9741 98.9547 18.2765 99.7302 18.5977 100.506C18.919 101.262 19.2214 101.962 19.2403 102L17.4262 105.007C17.4262 105.007 17.0671 104.175 16.7081 103.343C16.349 102.511 16.0467 101.678 16.0278 101.641L17.9741 98.9547Z" fill="white"/>
<path d="M29.2553 117.793C29.2553 117.793 29.6898 118.228 30.1245 118.644C30.3323 118.871 30.5591 119.08 30.7102 119.212C30.8803 119.363 30.9748 119.458 30.9937 119.458L30.389 124.243C30.389 124.243 30.2757 124.13 30.0867 123.978C29.8978 123.827 29.671 123.581 29.4253 123.354C28.9529 122.881 28.4994 122.427 28.4805 122.39L29.2742 117.774L29.2553 117.793Z" fill="white"/>
<path d="M33.6393 121.614C33.6393 121.614 34.0739 121.954 34.5274 122.219C34.7542 122.352 34.9809 122.484 35.1321 122.598C35.3022 122.711 35.4156 122.768 35.4156 122.768L35.2644 127.875C35.2644 127.875 35.1509 127.818 34.962 127.685C34.773 127.572 34.5274 127.421 34.2817 127.269C33.7904 126.986 33.318 126.626 33.2991 126.607L33.6393 121.595V121.614Z" fill="white"/>
<path d="M38.099 123.978C38.099 123.978 38.5525 124.13 38.9871 124.281C39.4406 124.394 39.8564 124.508 39.8753 124.508L40.1776 129.823C40.1776 129.823 39.6863 129.709 39.195 129.577C38.7037 129.407 38.2313 129.255 38.2124 129.255L38.0801 123.997L38.099 123.978Z" fill="white"/>
<path d="M42.5396 124.829C42.5396 124.829 42.653 124.829 42.8041 124.829C42.9742 124.829 43.1821 124.811 43.4088 124.811C43.6167 124.811 43.8435 124.773 44.0135 124.773C44.1647 124.773 44.2781 124.735 44.2781 124.735L45.0339 130.05C45.0339 130.05 44.9206 130.069 44.7505 130.107C44.5616 130.107 44.3347 130.125 44.0891 130.144C43.8434 130.144 43.6167 130.144 43.4277 130.182C43.2388 130.182 43.1253 130.182 43.1253 130.182L42.5396 124.848V124.829Z" fill="white"/>
<path d="M48.4354 123.411L49.6259 128.593C49.6259 128.593 49.1724 128.82 48.7378 129.028C48.2843 129.199 47.8496 129.369 47.8307 129.388L46.8103 124.13C46.8103 124.13 47.226 123.978 47.6418 123.808C48.0386 123.6 48.4165 123.411 48.4543 123.411H48.4354Z" fill="white"/>
<path d="M52.2715 120.593L53.8399 125.491C53.8399 125.491 53.443 125.87 53.0273 126.229C52.6304 126.626 52.2147 126.91 52.1958 126.91L50.7786 121.879C50.7786 121.879 51.1565 121.614 51.5345 121.255C51.9124 120.914 52.2526 120.593 52.2715 120.574V120.593Z" fill="white"/>
<path d="M55.6349 116.337L57.5624 120.801C57.5624 120.801 57.4679 120.933 57.3357 121.141C57.2034 121.349 57.0333 121.614 56.8633 121.86C56.5042 122.371 56.1641 122.843 56.1452 122.862L54.3689 118.209C54.3689 118.209 54.6902 117.756 55.0114 117.302C55.1815 117.075 55.3326 116.829 55.446 116.64C55.5594 116.45 55.6349 116.337 55.6349 116.337Z" fill="white"/>
<path d="M58.4507 110.795L60.6615 114.691C60.6615 114.691 60.3781 115.353 60.0946 116.015C59.9624 116.356 59.8111 116.677 59.6789 116.904C59.5655 117.15 59.4899 117.283 59.4899 117.302L57.3923 113.159C57.3923 113.159 57.468 113.008 57.5625 112.8C57.6758 112.592 57.8081 112.308 57.9215 112.006C58.186 111.4 58.4317 110.833 58.4317 110.814L58.4507 110.795Z" fill="white"/>
<path d="M60.6047 104.118L63.0424 107.334C63.0424 107.334 62.9857 107.542 62.9101 107.825C62.8345 108.128 62.74 108.525 62.6266 108.904C62.3999 109.66 62.192 110.379 62.192 110.417L59.8489 106.918C59.8489 106.918 60.0567 106.218 60.2456 105.537C60.359 105.196 60.4346 104.818 60.5102 104.553C60.5858 104.289 60.6236 104.118 60.6236 104.099L60.6047 104.118Z" fill="white"/>
<path d="M62.0786 96.4958L64.6485 98.9358C64.6485 98.9358 64.6297 99.1627 64.573 99.4843C64.5163 99.8058 64.4595 100.241 64.3839 100.676C64.2517 101.546 64.1005 102.34 64.1005 102.397L61.5684 99.6356C61.5684 99.6356 61.7196 98.879 61.8329 98.0657C61.8896 97.6874 61.9463 97.2714 62.0029 96.9876C62.0596 96.7039 62.0786 96.4958 62.0786 96.4958Z" fill="white"/>
<path d="M62.7779 88.1925L65.4423 89.7813C65.4423 89.7813 65.4045 90.727 65.3478 91.6727C65.2722 92.5995 65.2155 93.4885 65.2155 93.5263L62.5889 91.5781C62.5889 91.5781 62.6457 90.7459 62.7024 89.8948C62.7402 89.0436 62.7779 88.2303 62.7779 88.1925Z" fill="white"/>
<path d="M53.2728 34.249C53.2728 34.249 53.6886 34.9677 54.0665 35.7432C54.4634 36.4998 54.8224 37.2374 54.8413 37.2942L53.1783 40.5853C53.1783 40.5853 52.8193 39.8854 52.4603 39.1856C52.1012 38.5047 51.7611 37.8805 51.7422 37.8427L53.254 34.2679L53.2728 34.249Z" fill="white"/>
<path d="M48.9834 27.4966C48.9834 27.4966 49.0967 27.6479 49.2667 27.8749C49.4368 28.1208 49.6447 28.4234 49.8714 28.7449C50.0982 29.0665 50.3061 29.3881 50.4761 29.615C50.6462 29.8609 50.7407 30.0311 50.7407 30.0311L49.4558 34.0031C49.4558 34.0031 49.3613 33.8518 49.2101 33.6248C49.0589 33.3979 48.851 33.1141 48.662 32.8304C48.4542 32.5467 48.2652 32.263 48.1141 32.0361C47.9629 31.828 47.8684 31.6956 47.8684 31.6956L48.9834 27.4966Z" fill="white"/>
<path d="M44.3537 22.106C44.3537 22.106 44.8261 22.5788 45.2985 23.0706C45.7709 23.5813 46.2056 24.0731 46.2434 24.092L45.3741 28.6125C45.3741 28.6125 44.9583 28.1397 44.5237 27.6668C44.0891 27.2318 43.6734 26.8156 43.6545 26.7967L44.3537 22.0871V22.106Z" fill="white"/>
<path d="M39.4972 18.2097C39.4972 18.2097 39.9886 18.4934 40.4799 18.8528C40.7256 19.023 40.9712 19.2121 41.1602 19.3445C41.3491 19.4769 41.4624 19.5715 41.4624 19.5715L41.0279 24.5081C41.0279 24.5081 40.9144 24.4135 40.7444 24.3001C40.5743 24.1866 40.3476 24.0164 40.1209 23.8651C39.6862 23.5435 39.2516 23.2976 39.2327 23.2787L39.4783 18.2097H39.4972Z" fill="white"/>
<path d="M34.5654 15.9022C34.5654 15.9022 35.0567 16.0724 35.548 16.2426C35.7936 16.3183 36.0394 16.4128 36.2283 16.5074C36.4173 16.583 36.5306 16.6398 36.5306 16.6398L36.5685 21.8601C36.5685 21.8601 36.455 21.8034 36.285 21.7467C36.1149 21.671 35.8881 21.5764 35.6613 21.5008C35.2078 21.3495 34.7922 21.217 34.7733 21.1981L34.5654 15.921V15.9022Z" fill="white"/>
<path d="M29.6899 15.3347C29.6899 15.3347 29.8033 15.3347 29.9922 15.3347C30.1623 15.3158 30.408 15.3158 30.6537 15.3347C31.145 15.3536 31.5985 15.3725 31.6174 15.3725L32.1088 20.7063C32.1088 20.7063 31.6741 20.7063 31.2206 20.6685C30.9938 20.6496 30.7859 20.6685 30.6159 20.6685C30.4458 20.6685 30.3513 20.6685 30.3513 20.6685L29.6899 15.3347Z" fill="white"/>
<path d="M25.0415 16.4318C25.0415 16.4318 25.4951 16.2615 25.9486 16.0913C26.1754 15.9967 26.4021 15.9211 26.5721 15.8832C26.7422 15.8265 26.8556 15.8076 26.8556 15.8076L27.7815 21.1036C27.7815 21.1036 27.687 21.1414 27.5169 21.1792C27.3658 21.217 27.1579 21.2927 26.9501 21.3684C26.5344 21.5386 26.1375 21.671 26.1186 21.6899L25.0227 16.4506L25.0415 16.4318Z" fill="white"/>
<path d="M22.4147 17.926L23.7563 23.0139C23.7563 23.0139 23.3784 23.2976 22.9816 23.6002C22.6037 23.884 22.2446 24.2055 22.2257 24.2245L20.7329 19.25C20.7329 19.25 21.1297 18.8528 21.5644 18.569C21.9801 18.2475 22.3769 17.9449 22.3958 17.926H22.4147Z" fill="white"/>
<path d="M12.0783 33.587L14.3837 37.2185C14.3837 37.2185 14.1569 37.8805 13.949 38.5614C13.7411 39.2613 13.5522 39.9044 13.5522 39.9422L11.1523 36.5755C11.1523 36.5755 11.3791 35.8189 11.6058 35.0623C11.8326 34.3246 12.0783 33.6437 12.0783 33.6059V33.587Z" fill="white"/>
<path d="M14.9128 26.9481L16.9536 31.2038C16.9536 31.2038 16.878 31.3362 16.7646 31.5442C16.6701 31.7523 16.519 32.036 16.3868 32.3197C16.2545 32.6034 16.1033 32.8871 16.0088 33.0952C15.9143 33.3222 15.8576 33.4734 15.8576 33.4734L13.7034 29.4447C13.7034 29.4447 13.779 29.2745 13.8735 29.0286C13.9869 28.8016 14.138 28.4801 14.2892 28.1775C14.4403 27.8748 14.5916 27.5533 14.7049 27.3263C14.8183 27.0993 14.8939 26.967 14.9128 26.9481Z" fill="white"/>
<path d="M9.99972 41.3797L12.4941 44.2925C12.4941 44.2925 12.4562 44.4627 12.3995 44.7653C12.3428 45.049 12.2673 45.4273 12.2106 45.8245C12.0594 46.5811 11.946 47.3377 11.946 47.3755L9.39502 44.7842C9.39502 44.7842 9.52723 43.8953 9.6784 43.063C9.75398 42.6469 9.82966 42.2119 9.88635 41.9093C9.94304 41.5878 9.98081 41.3986 9.98081 41.3797H9.99972Z" fill="white"/>
<path d="M8.71489 50.1181L11.3414 52.2176C11.3414 52.2176 11.3226 52.4257 11.2848 52.7283C11.247 53.0309 11.2092 53.447 11.1903 53.882C11.1336 54.7143 11.077 55.5276 11.077 55.5654L8.4314 53.8064C8.4314 53.8064 8.507 52.8796 8.56369 51.9528C8.60148 51.4988 8.63927 51.026 8.67706 50.6855C8.71485 50.3451 8.73369 50.137 8.73369 50.1181H8.71489Z" fill="white"/>
<path d="M8.6582 69.316L11.2849 69.6376C11.2849 69.6376 11.3604 70.5455 11.4549 71.4344C11.5115 71.8884 11.5494 72.3423 11.5871 72.6638C11.6249 72.9854 11.6439 73.2124 11.6439 73.2313L9.05507 73.288C9.05507 73.288 9.01721 73.0421 8.97941 72.6638C8.94162 72.2856 8.88503 71.7938 8.84724 71.302C8.73386 70.3185 8.6582 69.3728 8.6582 69.316Z" fill="white"/>
<path d="M9.90527 79.2082L12.4184 78.603C12.4184 78.603 12.5697 79.4919 12.7398 80.3809C12.9098 81.2699 13.0799 82.121 13.0799 82.1589L10.6422 83.1234C10.6422 83.1234 10.4344 82.1588 10.2643 81.1753C10.0942 80.1917 9.92407 79.2461 9.92407 79.2082H9.90527Z" fill="white"/>
<path d="M47.5472 63.8498C51.421 77.1087 49.7959 91.843 43.9002 96.7418C43.3144 97.2336 42.6907 97.6119 42.0671 97.8767C36.4549 100.222 29.7088 93.5453 26.2318 81.6293C22.358 68.3704 24.002 53.6551 29.8788 48.7373C30.4646 48.2456 31.0883 47.8673 31.7119 47.6025C37.3242 45.2571 44.0702 51.9338 47.5472 63.8498ZM43.0309 93.7912C48.1897 89.4787 49.6258 76.5792 46.2244 64.9469C43.1632 54.4873 37.2486 48.6428 32.3355 50.7044C31.7875 50.9314 31.2394 51.2719 30.7292 51.7069C25.5705 56.0194 24.1343 68.9189 27.5357 80.5512C30.578 91.0108 36.5116 96.8553 41.4247 94.7936C41.9727 94.5667 42.5207 94.2262 43.0309 93.7912Z" fill="white"/>
<path d="M21.2999 106.293C21.2999 106.293 21.3944 106.464 21.5266 106.728C21.6589 106.974 21.8479 107.315 22.0369 107.655C22.3959 108.336 22.755 108.941 22.7739 108.96L21.3188 112.668C21.3188 112.668 20.9031 111.968 20.5063 111.211C20.2984 110.852 20.1094 110.473 19.9582 110.19C19.807 109.925 19.7126 109.736 19.7126 109.717L21.3188 106.275L21.2999 106.293Z" fill="white"/>
<path d="M25.0981 112.63C25.0981 112.63 25.1926 112.762 25.3437 112.989C25.4949 113.197 25.6838 113.5 25.8917 113.765C26.3074 114.313 26.6854 114.824 26.7232 114.843L25.6839 119.155C25.6839 119.155 25.2304 118.569 24.7769 117.964C24.5501 117.68 24.3233 117.339 24.1722 117.112C24.0021 116.866 23.9076 116.715 23.8887 116.715L25.0981 112.63Z" fill="white"/>
<path d="M56.0885 65.363C56.6176 67.7651 57.0333 70.1861 57.3545 72.5882L59.1497 75.0093L59.452 85.5823L58.0348 86.6415C57.9214 89.3652 57.6757 92.0132 57.2789 94.5099L58.1671 97.347L55.7672 105.613L54.4256 105.083C53.5563 107.145 52.5359 108.998 51.3643 110.549L51.4777 113.103L46.9991 116.829L45.8654 115.107C44.3537 115.751 42.8987 115.959 41.4436 115.883L40.8767 118.02L35.529 116.223L34.7353 113.33C33.318 112.346 31.9198 111.079 30.5781 109.566L29.2175 110.833L24.4367 103.967L24.38 100.09C23.4352 98.1981 22.5659 96.1554 21.7534 93.9991L19.5991 93.4128L16.6513 83.3504L17.8607 79.5297C17.5205 77.6005 17.256 75.6712 17.0481 73.7609L14.6105 70.4509L14.3081 59.8778L16.9158 57.9485C17.0481 56.5678 17.2182 55.2249 17.4261 53.9387L15.612 48.132L18.0119 39.8665L21.3377 41.2094C21.7345 40.4528 22.1502 39.753 22.6037 39.0721L22.3014 32.3954L26.7799 28.6693L29.7278 33.1519C30.3136 32.9628 30.8994 32.8493 31.504 32.7547L32.9024 27.4777L38.2501 29.2745L39.8752 35.2325C40.6122 35.7432 41.3491 36.3295 42.0672 36.9915L44.5615 34.684L49.3424 41.5499L49.4179 46.8081C50.1927 48.2455 50.9296 49.7776 51.6288 51.4042L54.161 52.0851L57.1089 62.1475L56.0696 65.3818L56.0885 65.363ZM46.3189 104.988C53.8586 98.7088 55.9373 79.8702 50.9864 62.9041C46.5268 47.6592 37.891 39.1288 30.7292 42.1173C29.9356 42.4578 29.1419 42.9306 28.3861 43.5737C20.8463 49.8532 18.7678 68.6918 23.7187 85.6579C28.1783 100.903 36.8139 109.433 43.9757 106.445C44.7883 106.104 45.563 105.631 46.3189 104.988Z" fill="white"/>
<path d="M52.1201 15.8454C52.1201 15.8454 52.2713 16.0156 52.4792 16.3183C52.687 16.6209 52.9705 17.0181 53.254 17.4153C53.5374 17.8125 53.8019 18.2096 54.0098 18.5123C54.2176 18.8338 54.3499 19.0229 54.3499 19.0419L52.7248 24.0353C52.7248 24.0353 52.5926 23.8461 52.4225 23.5624C52.2336 23.2787 51.9878 22.9193 51.7233 22.5599C51.4776 22.2006 51.232 21.8412 51.0241 21.5764C50.8351 21.3116 50.7029 21.1603 50.7029 21.1414L52.1201 15.8454Z" fill="white"/>
<path d="M57.4867 24.3379C57.4867 24.3379 57.9968 25.2458 58.4882 26.2104C58.9795 27.175 59.4519 28.1019 59.4708 28.1397L57.3733 32.2819C57.3733 32.2819 56.9386 31.4118 56.4851 30.5229C56.0316 29.6528 55.597 28.8584 55.5781 28.8206L57.4867 24.319V24.3379Z" fill="white"/>
<path d="M66.7084 112.195L69.7696 116.223C69.7696 116.223 69.7129 116.469 69.6184 116.848C69.5239 117.226 69.3916 117.737 69.2594 118.191C68.9759 119.155 68.7114 120.063 68.6925 120.12L65.7446 115.713C65.7446 115.713 65.9902 114.843 66.2548 113.973C66.387 113.538 66.5005 113.084 66.5761 112.743C66.6706 112.403 66.7272 112.195 66.7272 112.176L66.7084 112.195Z" fill="white"/>
<path d="M68.5603 102.624L71.8104 105.688C71.8104 105.688 71.7727 105.972 71.716 106.388C71.6593 106.804 71.5648 107.353 71.4892 107.901C71.338 108.998 71.1302 110.001 71.1302 110.057L67.9556 106.577C67.9556 106.577 68.1445 105.631 68.2957 104.629C68.3713 104.137 68.4468 103.645 68.5035 103.267C68.5602 102.889 68.5981 102.643 68.5981 102.624H68.5603Z" fill="white"/>
<path d="M69.4483 92.1834L72.793 94.1694C72.793 94.1694 72.7363 95.361 72.6797 96.5337C72.5852 97.7064 72.5095 98.8223 72.5095 98.8791L69.2026 96.4391C69.2026 96.4391 69.2783 95.3799 69.3538 94.3207C69.4105 93.2426 69.4483 92.2212 69.4483 92.1834Z" fill="white"/>
<path d="M69.3917 81.1375L72.7175 82.0075C72.7175 82.0075 72.7175 82.3101 72.7552 82.783C72.7741 83.2369 72.7931 83.8611 72.812 84.4664C72.8309 85.0906 72.8497 85.6958 72.8686 86.1687C72.8686 86.6226 72.8686 86.9252 72.8686 86.9252L69.524 85.6012C69.524 85.6012 69.524 85.3364 69.524 84.9203C69.524 84.5042 69.5051 83.9557 69.4673 83.3883C69.4673 82.8208 69.4484 82.2723 69.4106 81.8562C69.3917 81.4401 69.3728 81.1753 69.3728 81.1564L69.3917 81.1375Z" fill="white"/>
<path d="M68.3523 69.8646L71.5835 69.562C71.5835 69.562 71.7348 70.8102 71.9049 72.0586C72.056 73.3069 72.1693 74.4985 72.1693 74.5553L68.9003 74.3851C68.9003 74.3851 68.7869 73.2502 68.6546 72.1343C68.5034 70.9994 68.3712 69.9213 68.3712 69.8835L68.3523 69.8646Z" fill="white"/>
<path d="M69.4105 57.2109C69.4105 57.2109 69.6939 58.4214 69.9206 59.6508C70.0529 60.2561 70.1664 60.8803 70.2608 61.3342C70.3553 61.7882 70.4119 62.0908 70.4119 62.1097L67.2941 63.1122C67.2941 63.1122 67.2563 62.8285 67.1618 62.4124C67.0673 61.9963 66.9728 61.4288 66.8594 60.8803C66.6515 59.7644 66.4059 58.7241 66.387 58.6673L69.4105 57.2109Z" fill="white"/>
<path d="M66.2548 45.3328C66.2548 45.3328 66.6139 46.4865 66.9541 47.6592C67.2753 48.8319 67.5965 49.9479 67.6154 50.0046L64.762 52.123C64.762 52.123 64.4597 51.0449 64.1573 49.9857C63.8361 48.9265 63.5338 47.9429 63.5149 47.8861L66.2548 45.3516V45.3328Z" fill="white"/>
<path d="M62.2677 34.249C62.2677 34.249 62.3811 34.5138 62.5512 34.911C62.7024 35.3082 62.9291 35.8567 63.137 36.3863C63.5716 37.4455 63.9496 38.5047 63.9685 38.5614L61.4552 41.739C61.4552 41.739 61.0961 40.7177 60.6993 39.772C60.5103 39.2802 60.3214 38.7884 60.1702 38.429C60.0379 38.0696 59.9246 37.8427 59.9246 37.8238L62.2866 34.249H62.2677Z" fill="white"/>
<path d="M46.2811 9.05511C46.2811 9.05511 46.8857 9.6604 47.4715 10.2657C48.0573 10.9087 48.6243 11.5329 48.6432 11.5707L47.5472 17.264C47.5472 17.264 47.0181 16.6776 46.489 16.0724C45.941 15.5238 45.4308 15.0131 45.4119 14.9942L46.2811 9.07405V9.05511Z" fill="white"/>
<path d="M40.1775 4.15633C40.1775 4.15633 40.8012 4.51574 41.4059 4.96968C41.7082 5.19666 42.0295 5.42358 42.2562 5.5749C42.483 5.72621 42.6341 5.8586 42.6341 5.8586L42.105 12.0814C42.105 12.0814 41.9728 11.968 41.7649 11.8166C41.557 11.6653 41.2735 11.4762 40.9901 11.2681C40.4421 10.852 39.8941 10.5305 39.8752 10.5116L40.1775 4.13745V4.15633Z" fill="white"/>
<path d="M33.9607 1.26245C33.9607 1.26245 34.5842 1.47051 35.2078 1.67857C35.5102 1.77314 35.8314 1.90556 36.0582 2.00014C36.2849 2.11362 36.4362 2.17036 36.4551 2.17036L36.4928 8.73361C36.4928 8.73361 36.3416 8.65792 36.1337 8.58227C35.9259 8.4877 35.6425 8.35535 35.359 8.27969C34.7921 8.09055 34.263 7.9203 34.2441 7.90138L33.9796 1.26245H33.9607Z" fill="white"/>
<path d="M27.8381 0.524818C27.8381 0.524818 27.9893 0.524799 28.2161 0.505885C28.4428 0.486971 28.7451 0.486971 29.0474 0.505885C29.6521 0.524799 30.238 0.562625 30.2757 0.562625L30.8805 7.27717C30.8805 7.27717 30.3324 7.25826 29.7844 7.22043C29.501 7.20152 29.2365 7.22043 29.0286 7.22043C28.8208 7.23935 28.7074 7.23936 28.6885 7.23936L27.8381 0.524818Z" fill="white"/>
<path d="M21.999 1.92451C21.999 1.92451 22.566 1.69755 23.1329 1.47058C23.4163 1.3571 23.6998 1.2625 23.9265 1.20575C24.1533 1.14901 24.2855 1.11121 24.2855 1.11121L25.4571 7.76901C25.4571 7.76901 25.3249 7.80686 25.1359 7.84468C24.9658 7.88251 24.758 7.93927 24.5501 8.03384C24.5123 8.03384 24.4556 8.07166 24.4178 8.09058C23.9076 8.27972 23.3973 8.46885 23.3784 8.48776L21.999 1.90557V1.92451Z" fill="white"/>
<path d="M18.6732 3.77808L20.3739 10.19C20.3739 10.19 19.9015 10.5494 19.4102 10.9277C18.9189 11.2681 18.4842 11.7031 18.4653 11.722L16.5757 5.46142C16.5757 5.46142 17.0859 4.96966 17.615 4.59138C18.1441 4.19418 18.6543 3.79699 18.6732 3.77808Z" fill="white"/>
<path d="M9.244 15.1455L11.8139 20.4983C11.8139 20.4983 11.7194 20.6496 11.5872 20.9333C11.4549 21.1981 11.2848 21.5575 11.1147 21.9169C10.9447 22.2762 10.7746 22.6356 10.6423 22.9004C10.5289 23.1841 10.4534 23.3543 10.4345 23.3732L7.71338 18.3232C7.71338 18.3232 7.80785 18.1151 7.94013 17.7936C8.0913 17.4909 8.28032 17.1126 8.46929 16.7154C8.65825 16.3182 8.84716 15.9399 8.99833 15.6373C9.1495 15.3347 9.244 15.1834 9.244 15.1644V15.1455Z" fill="white"/>
<path d="M13.6278 8.52551L15.7821 14.5024C15.7821 14.5024 15.3474 15.032 14.9317 15.5616C14.516 16.148 14.1381 16.6776 14.1192 16.6965L11.7949 10.9465C11.7949 10.9465 12.2484 10.3035 12.7019 9.67931C13.1743 9.09297 13.609 8.54443 13.6467 8.52551H13.6278Z" fill="white"/>
<path d="M3.06463 33.3032L6.20152 36.9537C6.20152 36.9537 6.14484 37.1807 6.08815 37.54C6.01256 37.8994 5.93697 38.3912 5.84248 38.8641C5.65352 39.8098 5.52128 40.7744 5.52128 40.8122L2.30884 37.54C2.30884 37.54 2.46001 36.443 2.66788 35.3838C2.76236 34.8542 2.85687 34.3246 2.93246 33.9085C3.00804 33.5113 3.06463 33.2654 3.06463 33.2654V33.3032Z" fill="white"/>
<path d="M1.45852 44.2925L4.7465 46.9216C4.7465 46.9216 4.72767 47.1864 4.68987 47.5836C4.65208 47.9619 4.59538 48.4914 4.55758 49.021C4.482 50.0802 4.40638 51.0827 4.40638 51.1394L1.08057 48.9265C1.08057 48.9265 1.1562 47.7538 1.25069 46.6C1.28848 46.0137 1.34518 45.4273 1.38298 45.0112C1.42077 44.5762 1.45852 44.3114 1.45852 44.2925Z" fill="white"/>
<path d="M0.891602 56.1138L4.23633 57.6648C4.23633 57.6648 4.23633 58.7808 4.23633 59.8778C4.23633 60.4263 4.25515 60.9937 4.27404 61.3909C4.27404 61.8071 4.29296 62.0908 4.29296 62.0908L0.948231 60.9938C0.948231 60.9938 0.948328 60.6911 0.929432 60.2183C0.929432 59.7643 0.891602 59.1401 0.891602 58.5349C0.891602 57.3054 0.891602 56.1517 0.891602 56.095V56.1138Z" fill="white"/>
<path d="M1.38306 68.4271L4.68995 68.8243C4.68995 68.8243 4.76551 69.9591 4.89779 71.0751C4.95448 71.6425 5.0112 72.2099 5.04899 72.626C5.08679 73.0422 5.12454 73.3259 5.12454 73.3448L1.87439 73.4015C1.87439 73.4015 1.8365 73.08 1.77981 72.6071C1.74202 72.1532 1.6665 71.529 1.60981 70.9048C1.47753 69.6565 1.38306 68.4838 1.38306 68.4081V68.4271Z" fill="white"/>
<path d="M2.95142 80.8916L6.10722 80.135C6.10722 80.135 6.29612 81.251 6.50398 82.3858C6.71184 83.5018 6.93868 84.542 6.93868 84.5988L3.87744 85.8282C3.87744 85.8282 3.63177 84.5988 3.38612 83.3693C3.17825 82.121 2.97031 80.9483 2.95142 80.8916Z" fill="white"/>
<path d="M62.7212 79.4163L65.3668 80.1161C65.3668 80.1161 65.3668 80.362 65.4046 80.7403C65.4046 81.0997 65.4234 81.5914 65.4423 82.0832C65.4423 82.575 65.4612 83.0478 65.4801 83.4261C65.4801 83.8044 65.4801 84.0124 65.4801 84.0313L62.8158 82.9722C62.8158 82.9722 62.8158 82.7641 62.8158 82.4236C62.8158 82.1021 62.7968 81.6482 62.7779 81.2131C62.7779 80.7781 62.759 80.3241 62.7401 79.9837C62.7212 79.6432 62.7024 79.4352 62.7024 79.4163H62.7212Z" fill="white"/>
<path d="M61.9087 70.4509L64.4786 70.2239C64.4786 70.2239 64.6109 71.2075 64.7243 72.2099C64.8376 73.2124 64.9322 74.1391 64.9322 74.1959L62.3245 74.0635C62.3245 74.0635 62.2488 73.1745 62.1354 72.2667C62.0221 71.3777 61.9087 70.5265 61.9087 70.4698V70.4509Z" fill="white"/>
<path d="M62.74 60.3885C62.74 60.3885 62.9668 61.3531 63.1558 62.3367C63.2503 62.8284 63.3447 63.3202 63.4202 63.6796C63.4958 64.0578 63.5336 64.2848 63.5336 64.2848L61.0582 65.0793C61.0582 65.0793 61.0204 64.8523 60.9448 64.5307C60.8881 64.1903 60.7936 63.7552 60.6991 63.3202C60.5291 62.4312 60.3402 61.599 60.3213 61.5612L62.7211 60.4074L62.74 60.3885Z" fill="white"/>
<path d="M60.2457 50.9503C60.2457 50.9503 60.5292 51.8582 60.8127 52.785C61.0772 53.7118 61.3228 54.6197 61.3417 54.6575L59.0741 56.3409C59.0741 56.3409 58.8473 55.4897 58.6017 54.6386C58.3371 53.7874 58.1104 53.012 58.0916 52.9552L60.2646 50.9314L60.2457 50.9503Z" fill="white"/>
<path d="M57.0711 42.1362C57.0711 42.1362 57.1655 42.3443 57.2789 42.6658C57.4112 42.9874 57.5812 43.4224 57.7513 43.8385C58.0914 44.6896 58.3939 45.5219 58.4127 45.5597L56.4097 48.0942C56.4097 48.0942 56.1263 47.2809 55.805 46.5243C55.6538 46.146 55.5026 45.7488 55.3892 45.4651C55.2759 45.1625 55.2003 44.9923 55.1814 44.9734L57.0521 42.1362H57.0711Z" fill="white"/>
<path d="M18.3899 21.6899L20.1094 26.4373C20.1094 26.4373 19.7693 26.8535 19.4292 27.2696C19.1079 27.7235 18.8055 28.1586 18.7866 28.1775L16.9348 23.6002C16.9348 23.6002 17.2939 23.0895 17.6529 22.5977C18.0308 22.1249 18.3899 21.6899 18.4088 21.671L18.3899 21.6899Z" fill="white"/>
<path d="M8.26123 59.5185L10.9257 60.7479C10.9257 60.7479 10.9257 61.618 10.9257 62.5069C10.9257 62.942 10.9446 63.3959 10.9446 63.7175C10.9446 64.039 10.9446 64.247 10.9446 64.2659L8.29906 63.3959C8.29906 63.3959 8.29906 63.15 8.29906 62.7906C8.29906 62.4123 8.26123 61.9206 8.26123 61.4477C8.26123 60.4831 8.26123 59.5563 8.26123 59.5185Z" fill="white"/>
</g>
</svg>
