<svg width="123" height="244" viewBox="0 0 123 244" fill="none" xmlns="http://www.w3.org/2000/svg">
<g style="mix-blend-mode:overlay">
<path d="M13.4414 153.146C13.4414 153.146 13.876 155 14.4051 156.796C14.8964 158.612 15.3877 160.315 15.4066 160.409L10.6824 164.343C10.6635 164.249 10.1345 162.338 9.5676 160.352C9.0007 158.385 8.52817 156.456 8.50928 156.342L13.4225 153.127L13.4414 153.146Z" fill="white"/>
<path d="M15.4066 160.409C15.4066 160.409 15.9547 162.187 16.4838 163.946C17.0129 165.743 17.5797 167.369 17.6175 167.445L13.1201 172.079C13.1201 172.079 12.4777 170.188 11.8919 168.221C11.2872 166.272 10.7203 164.419 10.7014 164.324L15.4256 160.39L15.4066 160.409Z" fill="white"/>
<path d="M21.3022 177.64C21.3022 177.64 21.9447 179.286 22.625 180.912C23.3241 182.52 23.9666 184.014 24.0044 184.109L20.1684 190.445C20.1684 190.445 19.4126 188.686 18.6567 186.946C17.9198 185.168 17.2395 183.428 17.2017 183.333L21.3211 177.64H21.3022Z" fill="white"/>
<path d="M28.3695 193.225C28.3695 193.225 28.5585 193.623 28.8419 194.133C29.1254 194.663 29.5222 195.382 29.919 196.081C30.6938 197.519 31.4497 198.805 31.4875 198.881L28.4262 206.749C28.4262 206.749 27.5381 205.274 26.6878 203.685C26.2532 202.891 25.8373 202.115 25.5161 201.51C25.1949 200.942 25.006 200.545 24.9871 200.526L28.3695 193.225Z" fill="white"/>
<path d="M36.4384 206.673C36.4384 206.673 36.6464 206.976 36.9676 207.449C37.2888 207.884 37.7046 208.527 38.1392 209.076C39.0084 210.229 39.8398 211.307 39.8776 211.383L37.6856 220.557C37.6856 220.557 36.7219 219.289 35.7771 218.022C35.2858 217.398 34.8322 216.679 34.492 216.206C34.133 215.696 33.9251 215.374 33.9062 215.355L36.4574 206.692L36.4384 206.673Z" fill="white"/>
<path d="M45.2254 217.625C45.2254 217.625 46.1324 218.533 47.0583 219.459C47.5118 219.932 47.9653 220.367 48.3244 220.67C48.6834 220.991 48.8912 221.181 48.9101 221.2L47.6252 231.356C47.6252 231.356 47.3607 231.13 46.9828 230.77C46.6048 230.449 46.0947 229.957 45.5844 229.446C44.564 228.425 43.6192 227.46 43.5625 227.403L45.2254 217.606V217.625Z" fill="white"/>
<path d="M54.5224 225.701C54.5224 225.701 55.4672 226.42 56.4121 226.968C56.8845 227.271 57.3569 227.555 57.7159 227.782C58.075 228.009 58.3017 228.141 58.3206 228.141L57.9993 239.017C57.9993 239.017 57.7348 238.865 57.338 238.62C56.9411 238.374 56.4309 238.052 55.9018 237.731C54.8625 237.125 53.8799 236.388 53.8232 236.35L54.5413 225.72L54.5224 225.701Z" fill="white"/>
<path d="M64.0087 230.732C64.0087 230.732 64.9534 231.054 65.9171 231.376C66.8619 231.621 67.769 231.829 67.8068 231.848L68.4493 243.102C68.4493 243.102 67.41 242.875 66.3518 242.573C65.2936 242.213 64.3109 241.892 64.2542 241.873L63.9897 230.732H64.0087Z" fill="white"/>
<path d="M73.4189 232.548C73.4189 232.548 73.6457 232.548 74.0047 232.567C74.3449 232.548 74.8173 232.51 75.2708 232.491C75.7243 232.491 76.1967 232.454 76.5368 232.435C76.8769 232.397 77.0849 232.34 77.1038 232.34L78.71 243.651C78.71 243.651 78.4643 243.726 78.0863 243.745C77.7084 243.745 77.1982 243.783 76.688 243.821C76.1778 243.859 75.6865 243.859 75.2897 243.897C74.9118 243.878 74.666 243.859 74.6472 243.859L73.4189 232.548Z" fill="white"/>
<path d="M85.9284 229.503L88.4417 240.511C88.4417 240.511 87.4969 240.984 86.5521 241.457C85.5883 241.835 84.6813 242.175 84.6246 242.194L82.4514 231.035C82.4514 231.035 83.3207 230.694 84.19 230.354C85.0403 229.919 85.8528 229.522 85.8906 229.503H85.9284Z" fill="white"/>
<path d="M94.0539 223.526L97.3986 233.948C97.3986 233.948 96.5482 234.723 95.679 235.499C94.8286 236.331 93.9783 236.936 93.9216 236.974L90.8982 226.288C90.8982 226.288 91.7296 225.701 92.5044 224.964C93.2791 224.245 94.0161 223.564 94.0728 223.545L94.0539 223.526Z" fill="white"/>
<path d="M101.178 214.504L105.241 223.98C105.241 223.98 105.052 224.264 104.787 224.718C104.523 225.153 104.145 225.72 103.767 226.25C102.992 227.309 102.274 228.33 102.236 228.387L98.438 218.476C98.438 218.476 99.1182 217.53 99.8174 216.547C100.158 216.074 100.498 215.582 100.743 215.166C100.989 214.769 101.14 214.523 101.159 214.504H101.178Z" fill="white"/>
<path d="M107.149 202.777L111.836 211.062C111.836 211.062 111.231 212.442 110.626 213.861C110.324 214.58 110.003 215.261 109.776 215.733C109.53 216.225 109.379 216.547 109.379 216.566L104.919 207.789C104.919 207.789 105.071 207.468 105.278 207.033C105.505 206.598 105.789 205.993 106.072 205.331C106.62 204.063 107.13 202.853 107.168 202.777H107.149Z" fill="white"/>
<path d="M8.81164 38.9794L13.7058 46.6964C13.7058 46.6964 13.2334 48.0772 12.7799 49.5147C12.3641 50.99 11.9485 52.3707 11.9296 52.4464L6.86523 45.3346C6.86523 45.3346 7.33765 43.708 7.81006 42.1003C8.32027 40.5304 8.81165 39.0551 8.83055 38.9794H8.81164Z" fill="white"/>
<path d="M23.2676 146.791C23.2676 146.791 23.6265 148.247 24.0423 149.666C24.4391 151.103 24.817 152.465 24.8359 152.541L21.0944 155.681C21.0944 155.681 20.6597 154.111 20.2062 152.522C19.7527 150.952 19.3749 149.401 19.356 149.325L23.2676 146.791Z" fill="white"/>
<path d="M24.836 152.541C24.836 152.541 25.2706 153.959 25.7052 155.359C26.121 156.778 26.5744 158.083 26.5933 158.158L23.022 161.847C23.022 161.847 22.4928 160.333 22.0393 158.764C21.5669 157.213 21.1134 155.737 21.0945 155.662L24.836 152.522V152.541Z" fill="white"/>
<path d="M29.5224 166.254C29.5224 166.254 30.0325 167.578 30.5616 168.864C31.1096 170.131 31.6198 171.342 31.6576 171.398L28.6152 176.448C28.6152 176.448 28.0105 175.049 27.4058 173.649C26.82 172.249 26.2721 170.85 26.2532 170.793L29.5224 166.273V166.254Z" fill="white"/>
<path d="M48.5511 198.048C48.5511 198.048 49.2692 198.767 50.0061 199.486C50.3652 199.883 50.7431 200.224 51.0077 200.451C51.2911 200.715 51.4612 200.867 51.4612 200.867L50.4407 208.943C50.4407 208.943 50.2518 208.754 49.9306 208.489C49.6282 208.224 49.2125 207.827 48.8156 207.43C48.022 206.636 47.2473 205.86 47.2095 205.822L48.5323 198.048H48.5511Z" fill="white"/>
<path d="M55.9397 204.46C55.9397 204.46 56.6766 205.028 57.4514 205.463C57.8293 205.69 58.2072 205.917 58.4907 206.087C58.7741 206.276 58.9631 206.371 58.9631 206.371L58.6986 214.996C58.6986 214.996 58.4907 214.901 58.1884 214.693C57.8671 214.504 57.4703 214.258 57.0357 213.993C56.2043 213.501 55.4295 212.915 55.3728 212.877L55.9397 204.423V204.46Z" fill="white"/>
<path d="M63.4795 208.47C63.4795 208.47 64.2353 208.735 64.9912 208.981C65.7471 209.189 66.4651 209.359 66.5029 209.359L67.0131 218.306C67.0131 218.306 66.2006 218.135 65.3502 217.89C64.5188 217.606 63.7251 217.36 63.6873 217.341L63.4795 208.47Z" fill="white"/>
<path d="M70.9624 209.908C70.9624 209.908 71.1513 209.908 71.4159 209.908C71.6993 209.908 72.0583 209.87 72.4174 209.87C72.7764 209.851 73.1544 209.813 73.4189 209.813C73.6835 209.794 73.8535 209.756 73.8724 209.756L75.1574 218.722C75.1574 218.722 74.9684 218.76 74.6661 218.797C74.3637 218.816 73.948 218.835 73.5512 218.873C73.1355 218.873 72.7386 218.911 72.4363 218.93C72.1339 218.93 71.9261 218.911 71.9261 218.911L70.9624 209.927V209.908Z" fill="white"/>
<path d="M80.902 207.487L82.905 216.244C82.905 216.244 82.1491 216.603 81.4121 216.982C80.6563 217.284 79.9193 217.549 79.8626 217.568L78.1431 208.697C78.1431 208.697 78.8422 208.432 79.5414 208.168C80.2217 207.827 80.8642 207.506 80.902 207.487Z" fill="white"/>
<path d="M87.3646 202.739L90.01 211.005C90.01 211.005 89.3298 211.629 88.6495 212.234C87.9693 212.896 87.289 213.369 87.2512 213.388L84.8513 204.895C84.8513 204.895 85.4938 204.442 86.1174 203.836C86.7409 203.269 87.3268 202.739 87.3646 202.701V202.739Z" fill="white"/>
<path d="M93.0524 195.571L96.2837 203.118C96.2837 203.118 96.1325 203.345 95.9246 203.685C95.7168 204.044 95.4144 204.479 95.1121 204.896C94.5074 205.747 93.9216 206.541 93.9027 206.598L90.8982 198.748C90.8982 198.748 91.4462 197.973 91.9942 197.216C92.2777 196.838 92.5421 196.422 92.7311 196.119C92.9201 195.798 93.0524 195.609 93.0524 195.609V195.571Z" fill="white"/>
<path d="M97.7768 186.246L101.499 192.828C101.499 192.828 101.027 193.944 100.536 195.041C100.309 195.609 100.044 196.138 99.8553 196.535C99.6664 196.933 99.5341 197.178 99.5341 197.197L96.0005 190.218C96.0005 190.218 96.1138 189.972 96.3028 189.632C96.4729 189.272 96.6996 188.799 96.9075 188.27C97.3421 187.267 97.7579 186.303 97.7768 186.246Z" fill="white"/>
<path d="M101.424 174.954L105.524 180.364C105.524 180.364 105.449 180.704 105.316 181.215C105.203 181.725 105.014 182.387 104.825 183.031C104.447 184.298 104.088 185.527 104.069 185.603L100.101 179.702C100.101 179.702 100.441 178.529 100.781 177.375C100.97 176.789 101.102 176.184 101.235 175.73C101.348 175.276 101.424 174.992 101.424 174.973V174.954Z" fill="white"/>
<path d="M103.899 162.13L108.245 166.235C108.245 166.235 108.208 166.632 108.113 167.161C108.019 167.71 107.905 168.429 107.792 169.185C107.584 170.661 107.319 172.003 107.301 172.079L103.049 167.426C103.049 167.426 103.294 166.14 103.483 164.797C103.578 164.135 103.691 163.473 103.767 162.962C103.842 162.471 103.88 162.13 103.88 162.111L103.899 162.13Z" fill="white"/>
<path d="M105.09 148.096L109.568 150.782C109.568 150.782 109.492 152.371 109.417 153.959C109.304 155.51 109.209 157.005 109.209 157.099L104.768 153.827C104.768 153.827 104.863 152.408 104.976 150.99C105.033 149.552 105.09 148.191 105.109 148.115L105.09 148.096Z" fill="white"/>
<path d="M89.0465 57.1182C89.0465 57.1182 89.7267 58.3476 90.407 59.6338C91.0683 60.92 91.692 62.1683 91.7297 62.244L88.9142 67.8048C88.9142 67.8048 88.3284 66.6321 87.7237 65.4405C87.119 64.2867 86.5332 63.2276 86.4954 63.1708L89.0653 57.1372L89.0465 57.1182Z" fill="white"/>
<path d="M81.8468 45.7318C81.8468 45.7318 82.0547 45.9777 82.3192 46.3749C82.6027 46.791 82.9806 47.3017 83.3396 47.8313C83.7175 48.3798 84.0954 48.9094 84.36 49.3066C84.6245 49.7416 84.7946 50.0064 84.8135 50.0253L82.6404 56.721C82.6404 56.721 82.4703 56.4562 82.2246 56.0779C81.979 55.6996 81.6389 55.2268 81.2987 54.735C80.9586 54.2432 80.6185 53.7704 80.3728 53.3921C80.1272 53.0327 79.9571 52.8247 79.9382 52.8057L81.8279 45.7129L81.8468 45.7318Z" fill="white"/>
<path d="M74.0238 36.6341C74.0238 36.6341 74.8174 37.4284 75.6299 38.2418C76.4236 39.0929 77.1606 39.9252 77.2173 39.9819L75.7622 47.6233C75.7622 47.6233 75.0441 46.8289 74.3261 46.0345C73.5891 45.2968 72.9089 44.6159 72.8711 44.5781L74.0427 36.6341H74.0238Z" fill="white"/>
<path d="M65.8415 30.0708C65.8415 30.0708 66.6729 30.5436 67.5044 31.1678C67.9201 31.4704 68.3358 31.7541 68.6381 31.9811C68.9404 32.1892 69.1483 32.3594 69.1483 32.3594L68.4303 40.7006C68.4303 40.7006 68.2413 40.5493 67.9579 40.3602C67.6744 40.1521 67.2965 39.8873 66.9186 39.6225C66.1816 39.074 65.4636 38.6579 65.4258 38.639L65.8415 30.0897V30.0708Z" fill="white"/>
<path d="M57.5081 26.1934C57.5081 26.1934 58.3395 26.4771 59.171 26.7608C59.5867 26.8743 60.0024 27.0634 60.3047 27.1958C60.626 27.3282 60.8149 27.4039 60.8338 27.4039L60.8905 36.1991C60.8905 36.1991 60.7015 36.1234 60.4181 35.991C60.1346 35.8586 59.7567 35.6884 59.3788 35.5749C58.6229 35.329 57.9049 35.0831 57.8671 35.0642L57.5081 26.1556V26.1934Z" fill="white"/>
<path d="M49.3069 25.2098C49.3069 25.2098 49.4959 25.2098 49.8171 25.172C50.1195 25.1342 50.5351 25.1342 50.932 25.172C51.7445 25.2098 52.5193 25.2476 52.576 25.2476L53.4074 34.2508C53.4074 34.2508 52.6705 34.213 51.9335 34.1941C51.5556 34.1562 51.1965 34.1941 50.932 34.1941C50.6485 34.1941 50.4785 34.2319 50.4785 34.2319L49.3447 25.2287L49.3069 25.2098Z" fill="white"/>
<path d="M41.4462 27.0823C41.4462 27.0823 42.202 26.7797 42.9768 26.496C43.3547 26.3447 43.7515 26.2123 44.035 26.1366C44.3184 26.0421 44.5074 26.0042 44.5263 26.0042L46.0946 34.9318C46.0946 34.9318 45.9246 34.9885 45.6411 35.0452C45.3766 35.102 45.0364 35.2344 44.6774 35.3668C43.9782 35.6316 43.3169 35.8775 43.2791 35.8964L41.4272 27.0823H41.4462Z" fill="white"/>
<path d="M37.0053 29.579L39.2729 38.1661C39.2729 38.1661 38.6304 38.6579 37.9879 39.1497C37.3454 39.6225 36.7597 40.171 36.7219 40.2089L34.1897 31.8298C34.1897 31.8298 34.87 31.1678 35.588 30.676C36.2872 30.1275 36.9675 29.6169 37.0053 29.598V29.579Z" fill="white"/>
<path d="M19.6016 56.0212L23.4943 62.1305C23.4943 62.1305 23.1164 63.2464 22.7573 64.3813C22.4172 65.5539 22.096 66.651 22.0771 66.7266L18.0332 61.0523C18.0332 61.0523 18.4111 59.7851 18.789 58.48C19.1858 57.2317 19.5828 56.0779 19.6016 56.0212Z" fill="white"/>
<path d="M24.3445 44.805L27.7836 51.9925C27.7836 51.9925 27.6514 52.2005 27.4813 52.5599C27.3113 52.9192 27.0845 53.3921 26.8388 53.865C26.6121 54.3378 26.3665 54.8107 26.1964 55.1701C26.0263 55.5673 25.9318 55.7942 25.9318 55.8131L22.3037 49.0229C22.3037 49.0229 22.417 48.7392 22.606 48.3231C22.795 47.9259 23.0406 47.3963 23.3052 46.8667C23.5697 46.3371 23.8154 45.8075 24.0043 45.4103C24.1933 45.0131 24.3445 44.7861 24.3445 44.7861V44.805Z" fill="white"/>
<path d="M16.068 69.1666L20.282 74.0843C20.282 74.0843 20.2064 74.387 20.1308 74.8976C20.0363 75.3705 19.923 76.0136 19.8096 76.6756C19.5639 77.9618 19.375 79.229 19.3561 79.2858L15.0476 74.9166C15.0476 74.9166 15.2555 73.4223 15.5389 72.0038C15.6712 71.3039 15.8035 70.5852 15.898 70.0556C15.9925 69.5071 16.068 69.1855 16.068 69.1666Z" fill="white"/>
<path d="M13.9137 83.8819L18.3354 87.4378C18.3354 87.4378 18.2977 87.7782 18.241 88.3078C18.1843 88.8185 18.1276 89.5183 18.0898 90.256C17.9953 91.6746 17.9008 93.0175 17.8819 93.0931L13.4224 90.1236C13.4224 90.1236 13.5357 88.5727 13.6491 86.9839C13.7058 86.2084 13.7625 85.4329 13.8192 84.8655C13.8759 84.2791 13.9137 83.9197 13.9137 83.9008V83.8819Z" fill="white"/>
<path d="M13.8193 116.263L18.2411 116.812C18.2411 116.812 18.3545 118.325 18.5246 119.857C18.6001 120.613 18.6757 121.37 18.7324 121.937C18.7891 122.486 18.8458 122.864 18.8458 122.883L14.4807 122.959C14.4807 122.959 14.424 122.543 14.3673 121.9C14.3106 121.275 14.2161 120.424 14.1405 119.611C13.9516 117.947 13.8382 116.358 13.8193 116.263Z" fill="white"/>
<path d="M15.9167 132.965L20.1496 131.943C20.1496 131.943 20.4141 133.437 20.6786 134.95C20.962 136.464 21.2455 137.863 21.2644 137.939L17.145 139.566C17.145 139.566 16.8049 137.92 16.5025 136.275C16.2191 134.61 15.9356 133.04 15.9167 132.946V132.965Z" fill="white"/>
<path d="M79.4092 107.033C85.9474 129.39 83.1885 154.243 73.2678 162.509C72.2663 163.341 71.227 163.984 70.1688 164.419C60.7205 168.372 49.326 157.118 43.4491 137.012C36.9109 114.655 39.6697 89.821 49.6093 81.5366C50.6108 80.7043 51.6502 80.0612 52.7084 79.6262C62.1567 75.6731 73.5324 86.9272 79.4092 107.033ZM71.8128 157.515C80.5241 150.252 82.9429 128.482 77.1984 108.868C72.0396 91.2396 62.0622 81.3663 53.7855 84.8276C52.8596 85.2248 51.9525 85.7734 51.0644 86.511C42.3531 93.7741 39.9344 115.544 45.6789 135.159C50.8188 152.787 60.8151 162.66 69.0918 159.199C70.0177 158.801 70.9246 158.253 71.8128 157.515Z" fill="white"/>
<path d="M35.1346 178.642C35.1346 178.642 35.2858 178.945 35.5125 179.361C35.7582 179.777 36.0605 180.345 36.3629 180.912C36.9676 182.066 37.5722 183.068 37.61 183.125L35.1724 189.386C35.1724 189.386 34.4731 188.213 33.7929 186.946C33.4527 186.322 33.1126 185.698 32.848 185.225C32.6024 184.771 32.4324 184.449 32.4324 184.43L35.1346 178.642Z" fill="white"/>
<path d="M41.5594 189.329C41.5594 189.329 41.7294 189.556 41.994 189.934C42.2397 190.275 42.5798 190.785 42.9199 191.239C43.6191 192.147 44.2804 193.017 44.3182 193.074L42.5609 200.337C42.5609 200.337 41.805 199.335 41.0303 198.332C40.6523 197.84 40.2744 197.273 39.991 196.895C39.7075 196.479 39.5375 196.233 39.5186 196.233L41.5594 189.329Z" fill="white"/>
<path d="M93.8082 109.605C94.6964 113.653 95.4145 117.738 95.9436 121.786L98.9671 125.891L99.4961 143.727L97.0962 145.524C96.9072 150.12 96.4915 154.565 95.8113 158.782L97.3042 163.568L93.2414 177.489L90.9737 176.581C89.4998 180.061 87.7803 183.182 85.815 185.792L86.0039 190.104L78.4642 196.403L76.5557 193.509C74.0046 194.587 71.5671 194.965 69.0916 194.814L68.1468 198.427L59.1331 195.401L57.7914 190.502C55.4104 188.837 53.0484 186.7 50.7809 184.146L48.4754 186.284L40.4065 174.708L40.331 168.164C38.7437 164.967 37.2697 161.544 35.9092 157.875L32.2811 156.891L27.3112 139.906L29.3521 133.475C28.7852 130.222 28.3317 126.969 27.9916 123.734L23.8721 118.173L23.343 100.337L27.727 97.0841C27.9349 94.7576 28.2373 92.4879 28.5774 90.3127L25.535 80.5152L29.5789 66.5753L35.1912 68.8261C35.8526 67.5589 36.5705 66.3673 37.3264 65.2135L36.7974 53.9406L44.3371 47.6421L49.3069 55.189C50.2895 54.8863 51.2911 54.6594 52.3115 54.527L54.6546 45.6183L63.6682 48.6446L66.4271 58.6881C67.6743 59.5581 68.9026 60.5417 70.1309 61.6576L74.3259 57.7613L82.3948 69.3368L82.5081 78.2265C83.812 80.6476 85.0591 83.2388 86.2496 85.9814L90.5202 87.1541L95.4901 104.139L93.7516 109.605H93.8082ZM77.3305 176.429C90.029 165.837 93.5626 134.061 85.2103 105.463C77.6895 79.7586 63.1391 65.3459 51.0453 70.4149C49.6848 70.9824 48.3621 71.7957 47.096 72.8549C34.3975 83.4469 30.8638 115.242 39.2161 143.821C46.7369 169.545 61.2873 183.938 73.3811 178.869C74.7416 178.302 76.0644 177.489 77.3494 176.429" fill="white"/>
<path d="M87.1 26.0799C87.1 26.0799 87.3456 26.3825 87.6858 26.8743C88.0448 27.3661 88.4983 28.0659 88.9707 28.7279C89.4431 29.3899 89.9155 30.0708 90.2557 30.5815C90.5958 31.13 90.8226 31.4516 90.8415 31.4705L88.1204 39.8874C88.1204 39.8874 87.9126 39.5658 87.6102 39.074C87.289 38.6011 86.8544 37.9959 86.4386 37.3907C86.0229 36.7854 85.5883 36.1801 85.2671 35.7262C84.9458 35.2722 84.7379 35.0074 84.719 35.0074L87.1 26.0799Z" fill="white"/>
<path d="M96.1703 40.398C96.1703 40.398 97.0396 41.9489 97.8711 43.5567C98.7025 45.1833 99.4773 46.7532 99.515 46.8289L95.9625 53.8082C95.9625 53.8082 95.2256 52.3329 94.4697 50.8576C93.7138 49.4012 92.958 48.0583 92.9202 48.0015L96.1514 40.4169L96.1703 40.398Z" fill="white"/>
<path d="M111.741 188.591L116.9 195.4C116.9 195.4 116.786 195.817 116.635 196.441C116.484 197.084 116.257 197.935 116.012 198.71C115.539 200.337 115.086 201.869 115.067 201.945L110.078 194.53C110.078 194.53 110.494 193.055 110.928 191.599C111.155 190.88 111.344 190.104 111.477 189.537C111.628 188.97 111.722 188.61 111.722 188.591H111.741Z" fill="white"/>
<path d="M114.84 172.458L120.32 177.621C120.32 177.621 120.263 178.113 120.15 178.794C120.037 179.494 119.904 180.402 119.772 181.328C119.508 183.182 119.168 184.884 119.149 184.979L113.782 179.115C113.782 179.115 114.103 177.508 114.349 175.824C114.481 174.992 114.613 174.16 114.708 173.536C114.802 172.893 114.859 172.495 114.859 172.458H114.84Z" fill="white"/>
<path d="M116.352 154.81L121.983 158.158C121.983 158.253 121.889 160.163 121.813 162.149C121.662 164.116 121.549 166.008 121.53 166.102L115.936 161.998C115.936 161.998 116.069 160.22 116.182 158.423C116.258 156.607 116.333 154.905 116.352 154.81Z" fill="white"/>
<path d="M116.258 136.199L121.87 137.674C121.87 137.674 121.908 138.185 121.945 138.979C121.983 139.755 122.002 140.795 122.04 141.816C122.078 142.857 122.097 143.897 122.134 144.672C122.153 145.429 122.134 145.94 122.134 145.959L116.484 143.708C116.484 143.708 116.484 143.254 116.484 142.535C116.465 141.816 116.447 140.89 116.409 139.963C116.39 139.017 116.352 138.071 116.333 137.372C116.295 136.672 116.276 136.218 116.276 136.199H116.258Z" fill="white"/>
<path d="M114.5 117.19L119.942 116.679C119.942 116.793 120.207 118.779 120.471 120.897C120.717 123.016 120.906 125.002 120.925 125.096L115.388 124.812C115.388 124.718 115.199 122.902 114.991 121.011C114.746 119.1 114.519 117.285 114.5 117.19Z" fill="white"/>
<path d="M116.276 95.8547C116.295 95.9492 116.749 97.8974 117.146 99.978C117.354 100.999 117.561 102.04 117.713 102.815C117.883 103.591 117.958 104.082 117.958 104.12L112.705 105.804C112.705 105.804 112.629 105.331 112.478 104.612C112.327 103.912 112.138 102.966 111.968 102.04C111.609 100.148 111.193 98.3891 111.174 98.2946L116.276 95.8547Z" fill="white"/>
<path d="M110.966 75.8245C111.004 75.919 111.552 77.7726 112.157 79.7397C112.705 81.7257 113.234 83.6171 113.253 83.7117L108.434 87.2865C108.434 87.2865 107.943 85.4707 107.433 83.6739C106.885 81.8959 106.375 80.2126 106.356 80.1369L110.966 75.8433V75.8245Z" fill="white"/>
<path d="M104.22 57.1182C104.22 57.1182 104.428 57.5532 104.693 58.2342C104.957 58.9151 105.316 59.823 105.694 60.7309C106.431 62.5088 107.074 64.3057 107.093 64.4002L102.841 69.7529C102.841 69.7529 102.236 68.0507 101.556 66.443C101.216 65.6107 100.913 64.7974 100.649 64.1733C100.403 63.5491 100.252 63.1708 100.233 63.1519L104.201 57.1372L104.22 57.1182Z" fill="white"/>
<path d="M77.2739 14.6178C77.2739 14.6178 78.2755 15.6392 79.2959 16.6606C80.2974 17.7576 81.2422 18.7978 81.28 18.8546L79.4282 28.4441C79.4282 28.4441 78.5211 27.4606 77.633 26.4392C76.7259 25.5313 75.8567 24.6613 75.8 24.6045L77.2739 14.5989V14.6178Z" fill="white"/>
<path d="M66.9751 6.35229C66.9751 6.35229 68.0145 6.95757 69.0538 7.73306C69.5829 8.11134 70.0931 8.48959 70.4899 8.75439C70.8868 9.01919 71.1135 9.22726 71.1324 9.24618L70.2254 19.7247C70.2254 19.7247 69.9986 19.5355 69.6396 19.2897C69.2805 19.0438 68.8081 18.7033 68.3357 18.3817C67.3909 17.6819 66.5027 17.1524 66.446 17.1145L66.9563 6.37123L66.9751 6.35229Z" fill="white"/>
<path d="M56.4875 1.49133C56.4875 1.49133 57.5457 1.8507 58.585 2.19115C59.0952 2.34247 59.6244 2.58837 60.0212 2.73968C60.418 2.90991 60.6637 3.02338 60.6826 3.02338L60.7393 14.0882C60.7393 14.0882 60.4936 13.9748 60.1346 13.8424C59.7755 13.691 59.3031 13.4641 58.8307 13.3317C57.8859 13.0101 56.9788 12.7075 56.941 12.7075L56.4875 1.51027V1.49133Z" fill="white"/>
<path d="M46.1702 0.242937C46.1702 0.242937 46.4347 0.242958 46.8126 0.205129C47.1905 0.167301 47.7007 0.167301 48.2109 0.205129C49.2313 0.242958 50.214 0.299678 50.2707 0.299678L51.31 11.6104C51.31 11.6104 50.3652 11.5726 49.4392 11.5348C48.9668 11.4969 48.5133 11.5348 48.1732 11.5348C47.8331 11.5726 47.6251 11.5726 47.6062 11.5726L46.189 0.242937H46.1702Z" fill="white"/>
<path d="M36.3062 2.60727C36.3062 2.60727 37.2699 2.22899 38.2336 1.85071C38.7061 1.64265 39.1973 1.49136 39.5752 1.39678C39.9532 1.30221 40.1799 1.22656 40.1988 1.22656L42.183 12.4616C42.183 12.4616 41.9562 12.5184 41.635 12.6129C41.3515 12.6697 40.9925 12.7832 40.6334 12.9345C40.5578 12.9723 40.4823 12.9912 40.4067 13.0291C39.5374 13.3506 38.706 13.6722 38.6493 13.6911L36.3251 2.60727H36.3062Z" fill="white"/>
<path d="M30.7126 5.74702L33.566 16.566C33.566 16.566 32.7535 17.1712 31.9409 17.7954C31.1284 18.3628 30.3915 19.0816 30.3537 19.1194L27.179 8.56523C27.179 8.56523 28.0294 7.733 28.9175 7.08992C29.8057 6.409 30.656 5.76592 30.6938 5.72809L30.7126 5.74702Z" fill="white"/>
<path d="M14.8017 24.9072L19.1291 33.9293C19.1291 33.9293 18.959 34.1941 18.7511 34.648C18.5433 35.102 18.2409 35.6883 17.9386 36.2936C17.6363 36.8799 17.3528 37.4852 17.1261 37.9391C16.9182 38.412 16.7858 38.7146 16.7858 38.7335L12.2129 30.2032C12.2129 30.2032 12.3641 29.8438 12.5908 29.3331C12.8365 28.8413 13.1577 28.1793 13.4789 27.4984C13.8002 26.8364 14.1215 26.1744 14.3671 25.6827C14.6128 25.1909 14.7828 24.9072 14.8017 24.8882V24.9072Z" fill="white"/>
<path d="M22.1904 13.7478L25.8374 23.8291C25.8374 23.8291 25.1193 24.6991 24.4012 25.607C23.7021 26.5906 23.0596 27.4796 23.0218 27.5363L19.0913 17.8522C19.0913 17.8522 19.8472 16.7741 20.6219 15.7149C21.4156 14.7314 22.1714 13.8045 22.2092 13.7478H22.1904Z" fill="white"/>
<path d="M4.38982 55.5294L9.69974 61.6955C9.69974 61.6955 9.60531 62.0927 9.51082 62.6979C9.39745 63.3032 9.24633 64.1165 9.09516 64.9488C8.77391 66.5565 8.54708 68.1642 8.54708 68.2398L3.12378 62.7358C3.12378 62.7358 3.38834 60.8821 3.72848 59.1042C3.89855 58.2152 4.0686 57.3073 4.18198 56.6264C4.29536 55.9644 4.38982 55.5483 4.38982 55.5294Z" fill="white"/>
<path d="M1.66867 74.0654L7.22426 78.5103C7.22426 78.5103 7.18647 78.9642 7.11089 79.6262C7.0353 80.2693 6.95974 81.1582 6.90305 82.0472C6.78967 83.8441 6.65739 85.5464 6.65739 85.622L1.04517 81.877C1.04517 81.7824 1.17735 79.9099 1.30963 77.9428C1.36632 76.9404 1.46091 75.9757 1.53649 75.257C1.61208 74.5193 1.64987 74.0843 1.64987 74.0465L1.66867 74.0654Z" fill="white"/>
<path d="M0.705078 94.001L6.35513 96.6112C6.35513 96.6112 6.35515 98.4838 6.37405 100.356C6.37405 101.283 6.41178 102.229 6.43068 102.929C6.44957 103.647 6.4685 104.101 6.4685 104.12L0.837253 102.267C0.837253 102.267 0.837331 101.756 0.799538 100.961C0.799538 100.186 0.723878 99.1457 0.723878 98.1243C0.723878 96.0627 0.705078 94.1145 0.705078 94.001Z" fill="white"/>
<path d="M1.55542 114.788L7.11101 115.469C7.11101 115.563 7.24329 117.379 7.47005 119.271C7.56454 120.235 7.65905 121.181 7.73463 121.9C7.79132 122.618 7.86692 123.072 7.86692 123.11L2.36796 123.205C2.36796 123.205 2.29246 122.675 2.21687 121.881C2.14128 121.105 2.02784 120.046 1.91446 119.006C1.6877 116.906 1.53662 114.92 1.53662 114.807L1.55542 114.788Z" fill="white"/>
<path d="M4.182 135.783L9.49193 134.497C9.49193 134.591 9.83214 136.388 10.1534 138.279C10.5124 140.152 10.8714 141.93 10.8903 142.024L5.71262 144.105C5.69372 144.01 5.27801 142.024 4.90008 139.963C4.54104 137.863 4.18198 135.896 4.16309 135.783H4.182Z" fill="white"/>
<path d="M105.014 133.286L109.474 134.459C109.474 134.459 109.493 134.856 109.53 135.499C109.549 136.123 109.568 136.937 109.606 137.769C109.625 138.582 109.644 139.414 109.663 140.019C109.682 140.644 109.663 141.022 109.663 141.041L105.165 139.263C105.165 139.263 105.165 138.904 105.165 138.336C105.165 137.788 105.128 137.031 105.109 136.293C105.09 135.556 105.071 134.799 105.033 134.232C104.995 133.664 104.976 133.305 104.976 133.286H105.014Z" fill="white"/>
<path d="M103.635 118.173L107.962 117.795C107.962 117.795 108.17 119.46 108.378 121.124C108.567 122.807 108.718 124.377 108.737 124.472L104.334 124.245C104.334 124.245 104.201 122.732 104.012 121.2C103.824 119.687 103.635 118.249 103.635 118.173Z" fill="white"/>
<path d="M105.033 101.207C105.033 101.207 105.411 102.834 105.713 104.48C105.883 105.312 106.053 106.125 106.167 106.749C106.299 107.373 106.356 107.771 106.356 107.79L102.18 109.114C102.18 109.114 102.123 108.735 101.991 108.187C101.877 107.619 101.745 106.882 101.594 106.144C101.31 104.65 100.989 103.231 100.97 103.156L105.014 101.207H105.033Z" fill="white"/>
<path d="M100.819 85.3005C100.819 85.3005 101.291 86.8515 101.764 88.4024C102.198 89.9912 102.633 91.4854 102.652 91.5611L98.816 94.3982C98.816 94.3982 98.4192 92.9608 98.0224 91.5233C97.5877 90.1047 97.1909 88.7618 97.1531 88.7051L100.819 85.3005Z" fill="white"/>
<path d="M95.4523 70.4339C95.4523 70.4339 95.6035 70.7744 95.8114 71.3229C96.0381 71.8525 96.3216 72.5901 96.6051 73.2899C97.1909 74.7274 97.701 76.1271 97.7199 76.2027L94.3375 80.4585C94.3375 80.4585 93.8461 79.0966 93.317 77.8105C93.0524 77.1674 92.8068 76.5054 92.5989 76.0136C92.4099 75.5218 92.2777 75.2192 92.2588 75.2003L95.4334 70.415L95.4523 70.4339Z" fill="white"/>
<path d="M30.2214 35.9342L33.1125 43.935C33.1125 43.935 32.5457 44.6348 31.9599 45.3536C31.4119 46.129 30.9016 46.8478 30.8638 46.8856L27.7271 39.1686C27.7271 39.1686 28.3318 38.3175 28.9365 37.4663C29.56 36.6719 30.1647 35.9532 30.2025 35.9153L30.2214 35.9342Z" fill="white"/>
<path d="M13.1389 99.7321L17.6363 101.813C17.6363 101.813 17.6363 103.288 17.6552 104.782C17.6552 105.52 17.6931 106.276 17.712 106.825C17.712 107.373 17.7308 107.733 17.7308 107.752L13.2523 106.295C13.2523 106.295 13.2524 105.86 13.2146 105.255C13.2146 104.631 13.1578 103.799 13.1578 102.985C13.1578 101.359 13.1389 99.8077 13.1389 99.7131V99.7321Z" fill="white"/>
</g>
</svg>
