<svg width="536" height="286" viewBox="0 0 536 286" fill="none" xmlns="http://www.w3.org/2000/svg">
<circle cx="263.293" cy="90.803" r="69" fill="#042030"/>
<path d="M222.28 68.259C222.643 67.2136 223.304 66.419 224.264 65.875C224.979 65.4696 225.752 65.267 226.584 65.267C227.416 65.267 228.179 65.491 228.872 65.939C229.747 66.4723 230.365 67.2456 230.728 68.259L230.552 68.707C230.104 68.9096 229.651 69.2403 229.192 69.699C228.744 70.1896 228.451 70.6803 228.312 71.171H230.888V72.803H227.368C227.069 72.803 226.797 72.6643 226.552 72.387H226.472C226.248 72.6323 225.933 72.7816 225.528 72.835C225.464 72.8456 225.405 72.8563 225.352 72.867C224.701 72.9736 224.248 73.2296 223.992 73.635C223.789 73.9443 223.688 74.3603 223.688 74.883C223.688 76.4403 224.717 77.219 226.776 77.219C227.373 77.219 227.997 77.1283 228.648 76.947V77.619L227.8 78.659C227.448 78.7656 226.957 78.8296 226.328 78.851C225.059 78.851 224.013 78.547 223.192 77.939C222.221 77.235 221.736 76.195 221.736 74.819C221.736 73.9443 221.944 73.235 222.36 72.691C222.872 71.9763 223.667 71.5176 224.744 71.315C224.637 70.8456 224.376 70.3656 223.96 69.875C223.523 69.3523 223.021 68.963 222.456 68.707L222.28 68.259ZM228.68 68.131C228.424 67.683 228.077 67.3523 227.64 67.139C227.309 66.979 226.941 66.899 226.536 66.899C226.109 66.899 225.704 66.9896 225.32 67.171C224.893 67.3843 224.563 67.7043 224.328 68.131C224.691 68.291 225.075 68.611 225.48 69.091C225.949 69.5923 226.28 70.1363 226.472 70.723H226.536C226.739 70.1256 227.085 69.555 227.576 69.011C227.971 68.5736 228.339 68.2803 228.68 68.131ZM235.592 65.443V71.043C235.592 71.459 235.454 71.843 235.176 72.195C234.824 72.6003 234.387 72.803 233.864 72.803H230.776V71.171H233.24C233.358 71.171 233.459 71.1283 233.544 71.043C233.619 70.9683 233.656 70.8776 233.656 70.771V65.443H235.592ZM232.088 73.971C232.376 73.971 232.622 74.0723 232.824 74.275C233.027 74.4776 233.128 74.723 233.128 75.011C233.128 75.299 233.027 75.5443 232.824 75.747C232.622 75.9496 232.376 76.051 232.088 76.051C231.811 76.051 231.571 75.9496 231.368 75.747C231.166 75.5443 231.064 75.299 231.064 75.011C231.064 74.723 231.166 74.4776 231.368 74.275C231.571 74.0723 231.811 73.971 232.088 73.971ZM234.536 73.971C234.824 73.971 235.064 74.0723 235.256 74.275C235.459 74.4776 235.56 74.723 235.56 75.011C235.56 75.299 235.459 75.5443 235.256 75.747C235.064 75.9496 234.824 76.051 234.536 76.051C234.248 76.051 234.003 75.9496 233.8 75.747C233.598 75.5443 233.496 75.299 233.496 75.011C233.496 74.723 233.598 74.4776 233.8 74.275C234.003 74.0723 234.248 73.971 234.536 73.971ZM242.299 65.443V72.419C242.299 73.7416 241.894 74.7656 241.083 75.491C240.56 75.971 239.888 76.307 239.067 76.499C238.683 76.5736 238.283 76.611 237.867 76.611C237.728 76.611 237.542 76.6003 237.307 76.579L236.523 75.603V74.915C236.864 74.9683 237.195 74.995 237.515 74.995C239.403 74.995 240.347 74.0776 240.347 72.243V65.443H242.299ZM246.458 61.347V70.771C246.458 70.8776 246.49 70.963 246.554 71.027C246.618 71.123 246.72 71.171 246.858 71.171H247.274V72.803H246.234C245.797 72.803 245.413 72.6483 245.082 72.339C244.698 71.987 244.506 71.555 244.506 71.043V61.347H246.458ZM257.839 60.003C258.106 60.003 258.33 60.099 258.511 60.291C258.692 60.4723 258.783 60.6963 258.783 60.963C258.783 61.2296 258.692 61.4536 258.511 61.635C258.33 61.8163 258.106 61.907 257.839 61.907C257.572 61.907 257.343 61.8163 257.151 61.635C256.97 61.4536 256.879 61.2296 256.879 60.963C256.879 60.6963 256.97 60.4723 257.151 60.291C257.343 60.099 257.572 60.003 257.839 60.003ZM256.623 61.923C256.911 61.923 257.151 62.0243 257.343 62.227C257.546 62.4296 257.647 62.675 257.647 62.963C257.647 63.251 257.546 63.4963 257.343 63.699C257.151 63.891 256.911 63.987 256.623 63.987C256.335 63.987 256.09 63.891 255.887 63.699C255.695 63.4963 255.599 63.251 255.599 62.963C255.599 62.675 255.695 62.4296 255.887 62.227C256.09 62.0243 256.335 61.923 256.623 61.923ZM259.039 61.923C259.327 61.923 259.572 62.0243 259.775 62.227C259.978 62.4296 260.079 62.675 260.079 62.963C260.079 63.2403 259.978 63.4803 259.775 63.683C259.572 63.8856 259.327 63.987 259.039 63.987C258.762 63.987 258.522 63.8856 258.319 63.683C258.116 63.4803 258.015 63.2403 258.015 62.963C258.015 62.675 258.116 62.4296 258.319 62.227C258.522 62.0243 258.762 61.923 259.039 61.923ZM264.143 65.443V70.675V71.171H264.959V72.803H264.335L263.807 72.147H263.775C263.412 72.5843 262.959 72.803 262.415 72.803H258.991L258.463 72.147H258.415C258.063 72.5843 257.615 72.803 257.071 72.803H253.631L253.103 72.147H253.055C252.703 72.5843 252.255 72.803 251.711 72.803H247.167V71.171H251.087C251.354 71.171 251.487 71.0376 251.487 70.771V67.283H253.439V70.675C253.439 70.899 253.434 71.0643 253.423 71.171H256.447C256.714 71.171 256.847 71.0376 256.847 70.771V66.355H258.799V70.627C258.799 70.691 258.794 70.787 258.783 70.915C258.783 71.0323 258.783 71.1176 258.783 71.171H261.791C262.058 71.171 262.191 71.0376 262.191 70.771V65.443H264.143ZM267.718 68.211C267.718 67.1976 268.07 66.4296 268.774 65.907C269.329 65.4803 270.086 65.267 271.046 65.267C271.985 65.267 272.78 65.5443 273.43 66.099C274.252 66.803 274.662 67.8003 274.662 69.091C274.662 70.307 274.337 71.315 273.686 72.115C273.057 72.8936 272.241 73.283 271.238 73.283C270.353 73.283 269.654 72.9523 269.142 72.291C268.801 72.6323 268.385 72.803 267.894 72.803H264.838V71.171H267.302C267.42 71.171 267.521 71.1283 267.606 71.043C267.681 70.9683 267.718 70.8776 267.718 70.771V68.211ZM269.654 70.995C270.049 71.4216 270.502 71.635 271.014 71.635C271.516 71.635 271.926 71.4163 272.246 70.979C272.566 70.531 272.726 69.955 272.726 69.251C272.726 68.483 272.55 67.8803 272.198 67.443C271.878 67.0696 271.462 66.883 270.95 66.883C270.566 66.883 270.262 67.0056 270.038 67.251C269.782 67.4856 269.654 67.8056 269.654 68.211V70.995ZM281.14 71.171C280.692 70.5523 280.468 69.795 280.468 68.899C280.479 67.747 280.868 66.8296 281.636 66.147C282.297 65.5603 283.124 65.2616 284.116 65.251C285.076 65.251 285.855 65.4963 286.452 65.987C287.092 66.5203 287.412 67.2616 287.412 68.211V70.771C287.412 70.8883 287.449 70.9843 287.524 71.059C287.588 71.1336 287.668 71.171 287.764 71.171H287.924V72.803H287.22C286.921 72.803 286.671 72.7496 286.468 72.643C286.265 72.547 286.073 72.403 285.892 72.211C285.657 72.403 285.396 72.5363 285.108 72.611C284.724 72.739 284.255 72.803 283.7 72.803H281.588C281.321 72.803 281.188 72.9363 281.188 73.203V77.987L280.196 78.771H279.236V72.931C279.236 72.4723 279.391 72.0723 279.7 71.731C280.052 71.3576 280.441 71.171 280.868 71.171H281.14ZM285.46 68.211C285.46 67.827 285.343 67.5123 285.108 67.267C284.873 67.011 284.559 66.883 284.164 66.883C283.631 66.883 283.204 67.0803 282.884 67.475C282.564 67.859 282.404 68.371 282.404 69.011C282.404 69.7043 282.575 70.2483 282.916 70.643C283.257 71.027 283.732 71.219 284.34 71.219C284.745 71.219 285.119 71.1443 285.46 70.995V68.211ZM291.695 65.619C292.911 65.0856 294.101 64.819 295.263 64.819C296.767 64.819 297.914 65.2883 298.703 66.227C299.375 67.0376 299.711 68.1096 299.711 69.443V71.043C299.711 71.523 299.53 71.9443 299.167 72.307C298.837 72.6376 298.442 72.803 297.983 72.803H294.095C293.541 72.803 293.146 72.7443 292.911 72.627H292.847C292.613 72.7443 292.218 72.803 291.663 72.803H287.791V71.171H290.671C290.49 70.915 290.357 70.643 290.271 70.355C290.165 70.0456 290.111 69.699 290.111 69.315C290.111 68.675 290.271 68.1096 290.591 67.619C290.858 67.2243 291.226 66.9256 291.695 66.723V65.619ZM297.759 69.699C297.759 68.5043 297.498 67.6403 296.975 67.107C296.485 66.6163 295.738 66.371 294.735 66.371C294.277 66.371 293.802 66.4243 293.311 66.531C293.994 66.627 294.549 66.915 294.975 67.395C295.423 67.8963 295.647 68.5363 295.647 69.315C295.647 69.667 295.599 69.9976 295.503 70.307C295.407 70.6376 295.274 70.9256 295.103 71.171H297.343C297.461 71.171 297.557 71.139 297.631 71.075C297.717 70.9896 297.759 70.8883 297.759 70.771V69.699ZM292.863 70.979C293.237 70.9363 293.519 70.771 293.711 70.483C293.903 70.2056 294.01 69.8376 294.031 69.379C294.031 68.867 293.914 68.4776 293.679 68.211C293.455 67.955 293.183 67.827 292.863 67.827C292.437 67.827 292.117 68.019 291.903 68.403C291.754 68.6803 291.679 69.0056 291.679 69.379C291.701 69.8056 291.797 70.1576 291.967 70.435C292.181 70.755 292.479 70.9363 292.863 70.979ZM301.694 59.283C301.513 59.0056 301.422 58.6963 301.422 58.355C301.422 57.9176 301.555 57.5603 301.822 57.283C302.089 56.995 302.43 56.851 302.846 56.851C303.145 56.851 303.443 56.899 303.742 56.995V57.843C303.475 57.779 303.273 57.747 303.134 57.747C302.675 57.747 302.446 58.003 302.446 58.515C302.446 58.7283 302.499 58.8936 302.606 59.011C302.734 59.1923 302.926 59.283 303.182 59.283H304.254V59.683L303.886 60.131H301.054V59.283H301.694ZM303.646 61.347V72.403L302.654 73.203H301.694V61.347H303.646ZM245.379 85.923C245.667 85.923 245.913 86.0243 246.115 86.227C246.318 86.4296 246.419 86.675 246.419 86.963C246.419 87.2403 246.318 87.4803 246.115 87.683C245.913 87.8856 245.667 87.987 245.379 87.987C245.091 87.987 244.846 87.8856 244.643 87.683C244.441 87.4803 244.339 87.2403 244.339 86.963C244.339 86.675 244.441 86.4296 244.643 86.227C244.846 86.0243 245.091 85.923 245.379 85.923ZM247.811 85.923C248.099 85.923 248.345 86.0243 248.547 86.227C248.75 86.4296 248.851 86.675 248.851 86.963C248.851 87.2403 248.75 87.4803 248.547 87.683C248.345 87.8856 248.099 87.987 247.811 87.987C247.534 87.987 247.294 87.8856 247.091 87.683C246.889 87.4803 246.787 87.2403 246.787 86.963C246.787 86.675 246.889 86.4296 247.091 86.227C247.294 86.0243 247.534 85.923 247.811 85.923ZM248.851 89.011V94.771C248.851 94.899 248.889 94.995 248.963 95.059C249.027 95.1336 249.113 95.171 249.219 95.171H249.667V96.803H248.659C248.169 96.803 247.726 96.6056 247.331 96.211C246.723 96.7123 246.046 96.963 245.299 96.963C244.457 96.963 243.731 96.6963 243.123 96.163C242.313 95.4056 241.907 94.3923 241.907 93.123C241.907 91.9603 242.281 90.995 243.027 90.227C243.71 89.5336 244.547 89.187 245.539 89.187C246.094 89.187 246.649 89.3043 247.203 89.539L247.891 89.011H248.851ZM246.899 91.075C246.526 90.9363 246.169 90.867 245.827 90.867C245.251 90.867 244.777 91.0803 244.403 91.507C244.03 91.923 243.843 92.467 243.843 93.139C243.843 93.811 244.009 94.3496 244.339 94.755C244.681 95.1603 245.134 95.363 245.699 95.363C246.083 95.363 246.483 95.2776 246.899 95.107V91.075ZM253.397 85.923C253.685 85.923 253.931 86.0243 254.133 86.227C254.336 86.4296 254.437 86.675 254.437 86.963C254.437 87.2403 254.336 87.4803 254.133 87.683C253.931 87.8856 253.685 87.987 253.397 87.987C253.12 87.987 252.88 87.8856 252.677 87.683C252.475 87.4803 252.373 87.2403 252.373 86.963C252.373 86.675 252.475 86.4296 252.677 86.227C252.88 86.0243 253.12 85.923 253.397 85.923ZM254.373 89.443V95.043C254.373 95.459 254.235 95.843 253.957 96.195C253.605 96.6003 253.168 96.803 252.645 96.803H249.557V95.171H252.021C252.139 95.171 252.24 95.1283 252.325 95.043C252.4 94.9683 252.437 94.8776 252.437 94.771V89.443H254.373ZM258.536 85.347V94.771C258.536 94.8776 258.568 94.963 258.632 95.027C258.696 95.123 258.798 95.171 258.936 95.171H259.352V96.803H258.312C257.875 96.803 257.491 96.6483 257.16 96.339C256.776 95.987 256.584 95.555 256.584 95.043V85.347H258.536ZM262.109 92.211C262.109 91.1976 262.461 90.4296 263.165 89.907C263.72 89.4803 264.477 89.267 265.437 89.267C266.376 89.267 267.17 89.5443 267.821 90.099C268.642 90.803 269.053 91.8003 269.053 93.091C269.053 94.307 268.728 95.315 268.077 96.115C267.448 96.8936 266.632 97.283 265.629 97.283C264.744 97.283 264.045 96.9523 263.533 96.291C263.192 96.6323 262.776 96.803 262.285 96.803H259.229V95.171H261.693C261.81 95.171 261.912 95.1283 261.997 95.043C262.072 94.9683 262.109 94.8776 262.109 94.771V92.211ZM264.045 94.995C264.44 95.4216 264.893 95.635 265.405 95.635C265.906 95.635 266.317 95.4163 266.637 94.979C266.957 94.531 267.117 93.955 267.117 93.251C267.117 92.483 266.941 91.8803 266.589 91.443C266.269 91.0696 265.853 90.883 265.341 90.883C264.957 90.883 264.653 91.0056 264.429 91.251C264.173 91.4856 264.045 91.8056 264.045 92.211V94.995ZM271.409 85.443C271.238 85.1656 271.153 84.8616 271.153 84.531C271.153 84.0616 271.286 83.6936 271.553 83.427C271.82 83.1496 272.182 83.011 272.641 83.011C272.908 83.011 273.18 83.0643 273.457 83.171V84.003C273.244 83.939 273.046 83.907 272.865 83.907C272.396 83.907 272.161 84.163 272.161 84.675C272.161 84.867 272.214 85.0376 272.321 85.187C272.47 85.3576 272.668 85.443 272.913 85.443H273.969V85.843L273.601 86.307H270.785V85.443H271.409ZM279.297 85.347V95.043C279.297 95.5016 279.148 95.891 278.849 96.211C278.508 96.6056 278.081 96.803 277.569 96.803H271.153L270.353 95.811V95.171H274.241L271.601 87.315H273.425L276.081 95.171H276.945C277.073 95.171 277.18 95.1283 277.265 95.043C277.318 94.9576 277.345 94.867 277.345 94.771V85.347H279.297ZM283.458 85.347V96.403L282.466 97.203H281.506V85.347H283.458Z" fill="white"/>
<path d="M223.629 109.923C223.917 109.923 224.163 110.024 224.365 110.227C224.568 110.43 224.669 110.675 224.669 110.963C224.669 111.24 224.568 111.48 224.365 111.683C224.163 111.886 223.917 111.987 223.629 111.987C223.341 111.987 223.096 111.886 222.893 111.683C222.691 111.48 222.589 111.24 222.589 110.963C222.589 110.675 222.691 110.43 222.893 110.227C223.096 110.024 223.341 109.923 223.629 109.923ZM226.061 109.923C226.349 109.923 226.595 110.024 226.797 110.227C227 110.43 227.101 110.675 227.101 110.963C227.101 111.24 227 111.48 226.797 111.683C226.595 111.886 226.349 111.987 226.061 111.987C225.784 111.987 225.544 111.886 225.341 111.683C225.139 111.48 225.037 111.24 225.037 110.963C225.037 110.675 225.139 110.43 225.341 110.227C225.544 110.024 225.784 109.923 226.061 109.923ZM227.101 113.011V118.771C227.101 118.899 227.139 118.995 227.213 119.059C227.277 119.134 227.363 119.171 227.469 119.171H227.917V120.803H226.909C226.419 120.803 225.976 120.606 225.581 120.211C224.973 120.712 224.296 120.963 223.549 120.963C222.707 120.963 221.981 120.696 221.373 120.163C220.563 119.406 220.157 118.392 220.157 117.123C220.157 115.96 220.531 114.995 221.277 114.227C221.96 113.534 222.797 113.187 223.789 113.187C224.344 113.187 224.899 113.304 225.453 113.539L226.141 113.011H227.101ZM225.149 115.075C224.776 114.936 224.419 114.867 224.077 114.867C223.501 114.867 223.027 115.08 222.653 115.507C222.28 115.923 222.093 116.467 222.093 117.139C222.093 117.811 222.259 118.35 222.589 118.755C222.931 119.16 223.384 119.363 223.949 119.363C224.333 119.363 224.733 119.278 225.149 119.107V115.075ZM232.623 113.443V118.931V119.171H233.439V120.803H232.879L232.287 120.147H232.255C231.893 120.584 231.439 120.803 230.895 120.803H227.807V119.171H230.223C230.373 119.171 230.479 119.128 230.543 119.043C230.639 118.958 230.687 118.851 230.687 118.723V113.443H232.623ZM229.151 121.971C229.439 121.971 229.685 122.072 229.887 122.275C230.09 122.478 230.191 122.723 230.191 123.011C230.191 123.299 230.09 123.544 229.887 123.747C229.685 123.95 229.439 124.051 229.151 124.051C228.863 124.051 228.618 123.95 228.415 123.747C228.213 123.544 228.111 123.299 228.111 123.011C228.111 122.723 228.213 122.478 228.415 122.275C228.618 122.072 228.863 121.971 229.151 121.971ZM231.583 121.971C231.871 121.971 232.117 122.072 232.319 122.275C232.522 122.478 232.623 122.723 232.623 123.011C232.623 123.299 232.522 123.544 232.319 123.747C232.117 123.95 231.871 124.051 231.583 124.051C231.306 124.051 231.066 123.95 230.863 123.747C230.661 123.544 230.559 123.299 230.559 123.011C230.559 122.723 230.661 122.478 230.863 122.275C231.066 122.072 231.306 121.971 231.583 121.971ZM234.875 109.923C235.163 109.923 235.408 110.024 235.611 110.227C235.814 110.43 235.915 110.675 235.915 110.963C235.915 111.24 235.814 111.48 235.611 111.683C235.408 111.886 235.163 111.987 234.875 111.987C234.587 111.987 234.342 111.886 234.139 111.683C233.936 111.48 233.835 111.24 233.835 110.963C233.835 110.675 233.936 110.43 234.139 110.227C234.342 110.024 234.587 109.923 234.875 109.923ZM237.307 109.923C237.595 109.923 237.84 110.024 238.043 110.227C238.246 110.43 238.347 110.675 238.347 110.963C238.347 111.24 238.246 111.48 238.043 111.683C237.84 111.886 237.595 111.987 237.307 111.987C237.03 111.987 236.79 111.886 236.587 111.683C236.384 111.48 236.283 111.24 236.283 110.963C236.283 110.675 236.384 110.43 236.587 110.227C236.79 110.024 237.03 109.923 237.307 109.923ZM238.139 113.443V118.931V119.171H238.955V120.803H238.395L237.803 120.147H237.771C237.408 120.584 236.955 120.803 236.411 120.803H233.323V119.171H235.739C235.888 119.171 235.995 119.128 236.059 119.043C236.155 118.958 236.203 118.851 236.203 118.723V113.443H238.139ZM240.951 113.715C241.964 113.406 242.887 113.251 243.719 113.251C245.009 113.251 246.049 113.656 246.839 114.467C247.553 115.192 247.911 116.11 247.911 117.219V118.931V119.171H248.439V120.803H248.103L247.575 120.147H247.543C247.18 120.584 246.727 120.803 246.183 120.803H238.823V119.171H245.559C245.825 119.171 245.959 119.038 245.959 118.771V117.331C245.959 116.606 245.713 116.024 245.223 115.587C244.743 115.139 244.108 114.915 243.319 114.915C242.796 114.915 242.007 115.032 240.951 115.267V113.715ZM249.875 109.923C250.163 109.923 250.408 110.024 250.611 110.227C250.814 110.43 250.915 110.675 250.915 110.963C250.915 111.24 250.814 111.48 250.611 111.683C250.408 111.886 250.163 111.987 249.875 111.987C249.587 111.987 249.342 111.886 249.139 111.683C248.936 111.48 248.835 111.24 248.835 110.963C248.835 110.675 248.936 110.43 249.139 110.227C249.342 110.024 249.587 109.923 249.875 109.923ZM252.307 109.923C252.595 109.923 252.84 110.024 253.043 110.227C253.246 110.43 253.347 110.675 253.347 110.963C253.347 111.24 253.246 111.48 253.043 111.683C252.84 111.886 252.595 111.987 252.307 111.987C252.03 111.987 251.79 111.886 251.587 111.683C251.384 111.48 251.283 111.24 251.283 110.963C251.283 110.675 251.384 110.43 251.587 110.227C251.79 110.024 252.03 109.923 252.307 109.923ZM253.139 113.443V118.931V119.171H253.955V120.803H253.395L252.803 120.147H252.771C252.408 120.584 251.955 120.803 251.411 120.803H248.323V119.171H250.739C250.888 119.171 250.995 119.128 251.059 119.043C251.155 118.958 251.203 118.851 251.203 118.723V113.443H253.139ZM258.655 109.347V119.043C258.655 119.491 258.511 119.875 258.223 120.195C257.892 120.6 257.46 120.803 256.927 120.803H253.839V119.171H256.303C256.42 119.171 256.521 119.128 256.607 119.043C256.681 118.968 256.719 118.878 256.719 118.771V109.347H258.655ZM262.818 109.347V120.403L261.826 121.203H260.866V109.347H262.818ZM271.207 109.923C271.495 109.923 271.741 110.024 271.943 110.227C272.146 110.43 272.247 110.675 272.247 110.963C272.247 111.24 272.146 111.48 271.943 111.683C271.741 111.886 271.495 111.987 271.207 111.987C270.919 111.987 270.674 111.886 270.471 111.683C270.269 111.48 270.167 111.24 270.167 110.963C270.167 110.675 270.269 110.43 270.471 110.227C270.674 110.024 270.919 109.923 271.207 109.923ZM273.639 109.923C273.927 109.923 274.173 110.024 274.375 110.227C274.578 110.43 274.679 110.675 274.679 110.963C274.679 111.24 274.578 111.48 274.375 111.683C274.173 111.886 273.927 111.987 273.639 111.987C273.362 111.987 273.122 111.886 272.919 111.683C272.717 111.48 272.615 111.24 272.615 110.963C272.615 110.675 272.717 110.43 272.919 110.227C273.122 110.024 273.362 109.923 273.639 109.923ZM274.679 113.011V118.771C274.679 118.899 274.717 118.995 274.791 119.059C274.855 119.134 274.941 119.171 275.047 119.171H275.495V120.803H274.487C273.997 120.803 273.554 120.606 273.159 120.211C272.551 120.712 271.874 120.963 271.127 120.963C270.285 120.963 269.559 120.696 268.951 120.163C268.141 119.406 267.735 118.392 267.735 117.123C267.735 115.96 268.109 114.995 268.855 114.227C269.538 113.534 270.375 113.187 271.367 113.187C271.922 113.187 272.477 113.304 273.031 113.539L273.719 113.011H274.679ZM272.727 115.075C272.354 114.936 271.997 114.867 271.655 114.867C271.079 114.867 270.605 115.08 270.231 115.507C269.858 115.923 269.671 116.467 269.671 117.139C269.671 117.811 269.837 118.35 270.167 118.755C270.509 119.16 270.962 119.363 271.527 119.363C271.911 119.363 272.311 119.278 272.727 119.107V115.075ZM280.202 113.443V118.931V119.171H281.018V120.803H280.458L279.866 120.147H279.834C279.471 120.584 279.018 120.803 278.474 120.803H275.386V119.171H277.802C277.951 119.171 278.058 119.128 278.122 119.043C278.218 118.958 278.266 118.851 278.266 118.723V113.443H280.202ZM276.73 121.971C277.018 121.971 277.263 122.072 277.466 122.275C277.668 122.478 277.77 122.723 277.77 123.011C277.77 123.299 277.668 123.544 277.466 123.747C277.263 123.95 277.018 124.051 276.73 124.051C276.442 124.051 276.196 123.95 275.994 123.747C275.791 123.544 275.69 123.299 275.69 123.011C275.69 122.723 275.791 122.478 275.994 122.275C276.196 122.072 276.442 121.971 276.73 121.971ZM279.162 121.971C279.45 121.971 279.695 122.072 279.898 122.275C280.1 122.478 280.202 122.723 280.202 123.011C280.202 123.299 280.1 123.544 279.898 123.747C279.695 123.95 279.45 124.051 279.162 124.051C278.884 124.051 278.644 123.95 278.442 123.747C278.239 123.544 278.138 123.299 278.138 123.011C278.138 122.723 278.239 122.478 278.442 122.275C278.644 122.072 278.884 121.971 279.162 121.971ZM284.741 109.923C285.029 109.923 285.275 110.024 285.477 110.227C285.68 110.43 285.781 110.675 285.781 110.963C285.781 111.24 285.68 111.48 285.477 111.683C285.275 111.886 285.029 111.987 284.741 111.987C284.464 111.987 284.224 111.886 284.021 111.683C283.819 111.48 283.717 111.24 283.717 110.963C283.717 110.675 283.819 110.43 284.021 110.227C284.224 110.024 284.464 109.923 284.741 109.923ZM285.717 113.443V118.931V119.171H286.533V120.803H285.973L285.381 120.147H285.349C284.987 120.584 284.533 120.803 283.989 120.803H280.901V119.171H283.317C283.467 119.171 283.573 119.128 283.637 119.043C283.733 118.958 283.781 118.851 283.781 118.723V113.443H285.717ZM291.233 113.443V118.931V119.171H292.049V120.803H291.489L290.897 120.147H290.865C290.502 120.584 290.049 120.803 289.505 120.803H286.417V119.171H288.833C288.982 119.171 289.089 119.128 289.153 119.043C289.249 118.958 289.297 118.851 289.297 118.723V113.443H291.233ZM290.209 121.971C290.486 121.971 290.726 122.072 290.929 122.275C291.132 122.478 291.233 122.723 291.233 123.011C291.233 123.299 291.132 123.544 290.929 123.747C290.726 123.95 290.486 124.051 290.209 124.051C289.921 124.051 289.676 123.95 289.473 123.747C289.27 123.544 289.169 123.299 289.169 123.011C289.169 122.723 289.27 122.478 289.473 122.275C289.676 122.072 289.921 121.971 290.209 121.971ZM296.748 109.347V118.931V119.171H297.564V120.803H297.02L296.412 120.147H296.38C296.018 120.584 295.564 120.803 295.02 120.803H291.932V119.171H294.396C294.524 119.171 294.631 119.128 294.716 119.043C294.78 118.936 294.812 118.846 294.812 118.771V109.347H296.748ZM302.264 109.347V119.043C302.264 119.491 302.12 119.875 301.832 120.195C301.501 120.6 301.069 120.803 300.536 120.803H297.448V119.171H299.912C300.029 119.171 300.131 119.128 300.216 119.043C300.291 118.968 300.328 118.878 300.328 118.771V109.347H302.264Z" fill="#80CCBA"/>
<path d="M183.754 83.0014C181.77 82.8054 180.312 81.036 180.594 79.0618C183.307 60.0663 192.525 42.5534 206.734 29.5475C221.832 15.7272 241.503 7.96961 261.97 7.76331C282.438 7.55701 302.261 14.9166 317.635 28.4297C332.103 41.1465 341.672 58.4701 344.768 77.407C345.089 79.3751 343.667 81.1736 341.687 81.4095C339.707 81.6455 337.919 80.2293 337.589 78.2626C334.71 61.0932 325.998 45.3955 312.867 33.8538C298.83 21.5158 280.731 14.7962 262.043 14.9846C243.355 15.1729 225.395 22.2559 211.61 34.8744C198.714 46.6785 190.321 62.5485 187.788 79.7725C187.498 81.7455 185.739 83.1973 183.754 83.0014Z" fill="white"/>
<path d="M342.318 101.375C344.307 101.514 345.816 103.241 345.591 105.222C343.365 124.822 334.226 143.037 319.75 156.553C304.393 170.892 284.172 178.877 263.161 178.9C242.15 178.922 221.912 170.98 206.524 156.674C192.02 143.188 182.842 124.994 180.575 105.398C180.345 103.417 181.85 101.687 183.839 101.545C185.828 101.402 187.548 102.9 187.785 104.88C189.916 122.652 198.275 139.144 211.441 151.385C225.491 164.447 243.97 171.699 263.153 171.678C282.337 171.658 300.8 164.367 314.822 151.274C327.962 139.005 336.286 122.496 338.379 104.719C338.612 102.738 340.328 101.237 342.318 101.375Z" fill="white"/>
<circle cx="341.293" cy="90.803" r="5" fill="#80CCBA"/>
<circle cx="183.293" cy="90.803" r="5" fill="#80CCBA"/>
<line x1="265" y1="176" x2="265" y2="227" stroke="white" stroke-width="4"/>
<line x1="475" y1="202" x2="475" y2="227" stroke="white" stroke-width="4"/>
<line x1="65" y1="202" x2="65" y2="227" stroke="white" stroke-width="4"/>
<line x1="473" y1="204" x2="63" y2="204" stroke="white" stroke-width="4"/>
<path d="M447.301 265.024C447.618 264.109 448.197 263.414 449.037 262.938C449.662 262.583 450.339 262.406 451.067 262.406C451.795 262.406 452.462 262.602 453.069 262.994C453.834 263.461 454.376 264.137 454.693 265.024L454.539 265.416C454.147 265.593 453.75 265.883 453.349 266.284C452.957 266.713 452.7 267.143 452.579 267.572H454.833V269H451.753C451.492 269 451.254 268.879 451.039 268.636H450.969C450.773 268.851 450.498 268.981 450.143 269.028C450.087 269.037 450.036 269.047 449.989 269.056C449.42 269.149 449.023 269.373 448.799 269.728C448.622 269.999 448.533 270.363 448.533 270.82C448.533 272.183 449.434 272.864 451.235 272.864C451.758 272.864 452.304 272.785 452.873 272.626V273.214L452.131 274.124C451.823 274.217 451.394 274.273 450.843 274.292C449.732 274.292 448.818 274.026 448.099 273.494C447.25 272.878 446.825 271.968 446.825 270.764C446.825 269.999 447.007 269.378 447.371 268.902C447.819 268.277 448.514 267.875 449.457 267.698C449.364 267.287 449.135 266.867 448.771 266.438C448.388 265.981 447.95 265.64 447.455 265.416L447.301 265.024ZM452.901 264.912C452.677 264.52 452.374 264.231 451.991 264.044C451.702 263.904 451.38 263.834 451.025 263.834C450.652 263.834 450.297 263.913 449.961 264.072C449.588 264.259 449.298 264.539 449.093 264.912C449.41 265.052 449.746 265.332 450.101 265.752C450.512 266.191 450.801 266.667 450.969 267.18H451.025C451.202 266.657 451.506 266.158 451.935 265.682C452.28 265.299 452.602 265.043 452.901 264.912ZM458.949 262.56V267.46C458.949 267.824 458.828 268.16 458.585 268.468C458.277 268.823 457.895 269 457.437 269H454.735V267.572H456.891C456.994 267.572 457.083 267.535 457.157 267.46C457.223 267.395 457.255 267.315 457.255 267.222V262.56H458.949ZM455.883 270.022C456.135 270.022 456.35 270.111 456.527 270.288C456.705 270.465 456.793 270.68 456.793 270.932C456.793 271.184 456.705 271.399 456.527 271.576C456.35 271.753 456.135 271.842 455.883 271.842C455.641 271.842 455.431 271.753 455.253 271.576C455.076 271.399 454.987 271.184 454.987 270.932C454.987 270.68 455.076 270.465 455.253 270.288C455.431 270.111 455.641 270.022 455.883 270.022ZM458.025 270.022C458.277 270.022 458.487 270.111 458.655 270.288C458.833 270.465 458.921 270.68 458.921 270.932C458.921 271.184 458.833 271.399 458.655 271.576C458.487 271.753 458.277 271.842 458.025 271.842C457.773 271.842 457.559 271.753 457.381 271.576C457.204 271.399 457.115 271.184 457.115 270.932C457.115 270.68 457.204 270.465 457.381 270.288C457.559 270.111 457.773 270.022 458.025 270.022ZM464.818 262.56V268.664C464.818 269.821 464.463 270.717 463.754 271.352C463.296 271.772 462.708 272.066 461.99 272.234C461.654 272.299 461.304 272.332 460.94 272.332C460.818 272.332 460.655 272.323 460.45 272.304L459.764 271.45V270.848C460.062 270.895 460.352 270.918 460.632 270.918C462.284 270.918 463.11 270.115 463.11 268.51V262.56H464.818ZM468.457 258.976V267.222C468.457 267.315 468.485 267.39 468.541 267.446C468.597 267.53 468.686 267.572 468.807 267.572H469.171V269H468.261C467.879 269 467.543 268.865 467.253 268.594C466.917 268.286 466.749 267.908 466.749 267.46V258.976H468.457ZM478.415 257.8C478.648 257.8 478.844 257.884 479.003 258.052C479.162 258.211 479.241 258.407 479.241 258.64C479.241 258.873 479.162 259.069 479.003 259.228C478.844 259.387 478.648 259.466 478.415 259.466C478.182 259.466 477.981 259.387 477.813 259.228C477.654 259.069 477.575 258.873 477.575 258.64C477.575 258.407 477.654 258.211 477.813 258.052C477.981 257.884 478.182 257.8 478.415 257.8ZM477.351 259.48C477.603 259.48 477.813 259.569 477.981 259.746C478.158 259.923 478.247 260.138 478.247 260.39C478.247 260.642 478.158 260.857 477.981 261.034C477.813 261.202 477.603 261.286 477.351 261.286C477.099 261.286 476.884 261.202 476.707 261.034C476.539 260.857 476.455 260.642 476.455 260.39C476.455 260.138 476.539 259.923 476.707 259.746C476.884 259.569 477.099 259.48 477.351 259.48ZM479.465 259.48C479.717 259.48 479.932 259.569 480.109 259.746C480.286 259.923 480.375 260.138 480.375 260.39C480.375 260.633 480.286 260.843 480.109 261.02C479.932 261.197 479.717 261.286 479.465 261.286C479.222 261.286 479.012 261.197 478.835 261.02C478.658 260.843 478.569 260.633 478.569 260.39C478.569 260.138 478.658 259.923 478.835 259.746C479.012 259.569 479.222 259.48 479.465 259.48ZM483.931 262.56V267.138V267.572H484.645V269H484.099L483.637 268.426H483.609C483.292 268.809 482.895 269 482.419 269H479.423L478.961 268.426H478.919C478.611 268.809 478.219 269 477.743 269H474.733L474.271 268.426H474.229C473.921 268.809 473.529 269 473.053 269H469.077V267.572H472.507C472.74 267.572 472.857 267.455 472.857 267.222V264.17H474.565V267.138C474.565 267.334 474.56 267.479 474.551 267.572H477.197C477.43 267.572 477.547 267.455 477.547 267.222V263.358H479.255V267.096C479.255 267.152 479.25 267.236 479.241 267.348C479.241 267.451 479.241 267.525 479.241 267.572H481.873C482.106 267.572 482.223 267.455 482.223 267.222V262.56H483.931ZM487.046 267.572C486.822 267.031 486.71 266.424 486.71 265.752C486.71 264.651 487.05 263.797 487.732 263.19C488.301 262.677 489.029 262.415 489.916 262.406C490.709 262.406 491.358 262.593 491.862 262.966C492.478 263.433 492.786 264.105 492.786 264.982V267.222C492.786 267.306 492.809 267.385 492.856 267.46C492.93 267.535 493.014 267.572 493.108 267.572H493.234V269H492.618C492.198 269 491.838 268.851 491.54 268.552C491.082 269.131 490.476 269.42 489.72 269.42C488.908 269.42 488.217 269.121 487.648 268.524H487.62L487.228 269H484.554V267.572H487.046ZM491.078 264.982C491.078 264.637 490.97 264.357 490.756 264.142C490.56 263.927 490.28 263.82 489.916 263.82C489.458 263.82 489.09 263.997 488.81 264.352C488.539 264.707 488.404 265.183 488.404 265.78C488.404 266.433 488.544 266.965 488.824 267.376C489.104 267.787 489.463 267.992 489.902 267.992C490.303 267.992 490.695 267.801 491.078 267.418V264.982ZM497.354 258.976V267.46C497.354 267.852 497.228 268.188 496.976 268.468C496.686 268.823 496.308 269 495.842 269H493.14V267.572H495.296C495.398 267.572 495.487 267.535 495.562 267.46C495.627 267.395 495.66 267.315 495.66 267.222V258.976H497.354ZM500.996 258.976V268.65L500.128 269.35H499.288V258.976H500.996Z" fill="white"/>
<line x1="535" y1="243" x2="535" y2="257" stroke="white" stroke-width="2"/>
<line x1="411" y1="243" x2="411" y2="257" stroke="white" stroke-width="2"/>
<line x1="534" y1="244" x2="410" y2="244" stroke="white" stroke-width="2"/>
<line x1="411" y1="286" x2="411" y2="272" stroke="white" stroke-width="2"/>
<line x1="535" y1="286" x2="535" y2="272" stroke="white" stroke-width="2"/>
<line x1="412" y1="285" x2="536" y2="285" stroke="white" stroke-width="2"/>
<path d="M253.708 259.48C253.96 259.48 254.175 259.569 254.352 259.746C254.529 259.923 254.618 260.138 254.618 260.39C254.618 260.633 254.529 260.843 254.352 261.02C254.175 261.197 253.96 261.286 253.708 261.286C253.465 261.286 253.255 261.197 253.078 261.02C252.901 260.843 252.812 260.633 252.812 260.39C252.812 260.138 252.901 259.923 253.078 259.746C253.255 259.569 253.465 259.48 253.708 259.48ZM255.85 259.48C256.102 259.48 256.312 259.569 256.48 259.746C256.657 259.923 256.746 260.138 256.746 260.39C256.746 260.642 256.657 260.857 256.48 261.034C256.312 261.202 256.102 261.286 255.85 261.286C255.598 261.286 255.383 261.197 255.206 261.02C255.029 260.843 254.94 260.633 254.94 260.39C254.94 260.138 255.029 259.923 255.206 259.746C255.383 259.569 255.598 259.48 255.85 259.48ZM254.674 269C253.657 269 252.845 268.636 252.238 267.908C251.753 267.301 251.51 266.517 251.51 265.556C251.51 264.679 251.79 263.937 252.35 263.33C252.975 262.705 253.778 262.392 254.758 262.392C255.477 262.392 256.088 262.565 256.592 262.91C257.264 263.395 257.6 264.086 257.6 264.982V267.572H258.048V269H257.586C257.521 270.045 257.133 270.862 256.424 271.45C255.724 272.047 254.791 272.346 253.624 272.346H252.238C250.95 272.346 249.951 271.987 249.242 271.268C248.589 270.633 248.262 269.765 248.262 268.664V267.11L249.13 266.41H249.97V268.51C249.97 269.387 250.189 270.003 250.628 270.358C251.076 270.722 251.841 270.904 252.924 270.904C253.867 270.904 254.543 270.787 254.954 270.554C255.477 270.255 255.775 269.737 255.85 269H254.674ZM255.892 264.982C255.892 264.618 255.766 264.324 255.514 264.1C255.299 263.913 255.047 263.82 254.758 263.82C254.31 263.82 253.951 263.969 253.68 264.268C253.363 264.585 253.204 265.066 253.204 265.71C253.204 266.233 253.339 266.657 253.61 266.984C253.909 267.376 254.347 267.572 254.926 267.572H255.892V264.982ZM260.297 260.474C260.148 260.222 260.073 259.956 260.073 259.676C260.073 259.275 260.19 258.957 260.423 258.724C260.657 258.481 260.969 258.36 261.361 258.36C261.613 258.36 261.856 258.397 262.089 258.472V259.214C261.865 259.158 261.693 259.13 261.571 259.13C261.394 259.13 261.245 259.195 261.123 259.326C261.011 259.447 260.955 259.606 260.955 259.802C260.955 259.979 261.007 260.124 261.109 260.236C261.212 260.395 261.38 260.474 261.613 260.474H262.551V260.824L262.229 261.23H259.751V260.474H260.297ZM262.159 262.56V267.46C262.159 267.824 262.038 268.16 261.795 268.468C261.487 268.823 261.105 269 260.647 269H257.945V267.572H260.101C260.204 267.572 260.293 267.535 260.367 267.46C260.433 267.395 260.465 267.315 260.465 267.222V262.56H262.159ZM265.802 258.976V268.65L264.934 269.35H264.094V258.976H265.802ZM268.739 262.476C269.056 262.42 269.425 262.392 269.845 262.392C270.918 262.392 271.786 262.737 272.449 263.428C273.037 264.053 273.331 264.828 273.331 265.752V267.096C273.331 267.311 273.326 267.469 273.317 267.572H273.681V269H273.499L273.037 268.426H272.995C272.92 268.51 272.841 268.589 272.757 268.664C272.477 268.888 272.164 269 271.819 269H267.325V267.572H271.273C271.506 267.572 271.623 267.455 271.623 267.222V265.92C271.623 265.276 271.427 264.758 271.035 264.366C270.671 264.002 270.143 263.806 269.453 263.778C269.135 263.778 268.897 263.797 268.739 263.834V262.476ZM275.434 262.798C276.321 262.527 277.128 262.392 277.856 262.392C278.985 262.392 279.895 262.747 280.586 263.456C281.211 264.091 281.524 264.893 281.524 265.864V267.362V267.572H281.986V269H281.692L281.23 268.426H281.202C280.885 268.809 280.488 269 280.012 269H273.572V267.572H279.466C279.699 267.572 279.816 267.455 279.816 267.222V265.962C279.816 265.327 279.601 264.819 279.172 264.436C278.752 264.044 278.197 263.848 277.506 263.848C277.049 263.848 276.358 263.951 275.434 264.156V262.798ZM286.099 258.976V267.46C286.099 267.852 285.973 268.188 285.721 268.468C285.431 268.823 285.053 269 284.587 269H281.885V267.572H284.041C284.143 267.572 284.232 267.535 284.307 267.46C284.372 267.395 284.405 267.315 284.405 267.222V258.976H286.099ZM289.741 258.976V268.65L288.873 269.35H288.033V258.976H289.741Z" fill="white"/>
<line x1="330" y1="243" x2="330" y2="257" stroke="white" stroke-width="2"/>
<line x1="206" y1="243" x2="206" y2="257" stroke="white" stroke-width="2"/>
<line x1="329" y1="244" x2="205" y2="244" stroke="white" stroke-width="2"/>
<line x1="206" y1="286" x2="206" y2="272" stroke="white" stroke-width="2"/>
<line x1="330" y1="286" x2="330" y2="272" stroke="white" stroke-width="2"/>
<line x1="207" y1="285" x2="331" y2="285" stroke="white" stroke-width="2"/>
<path d="M13.81 259.48C14.062 259.48 14.2766 259.569 14.454 259.746C14.6313 259.923 14.72 260.138 14.72 260.39C14.72 260.633 14.6313 260.843 14.454 261.02C14.2766 261.197 14.062 261.286 13.81 261.286C13.558 261.286 13.3433 261.197 13.166 261.02C12.9886 260.843 12.9 260.633 12.9 260.39C12.9 260.138 12.9886 259.923 13.166 259.746C13.3433 259.569 13.558 259.48 13.81 259.48ZM15.938 259.48C16.19 259.48 16.4046 259.569 16.582 259.746C16.7593 259.923 16.848 260.138 16.848 260.39C16.848 260.633 16.7593 260.843 16.582 261.02C16.4046 261.197 16.19 261.286 15.938 261.286C15.6953 261.286 15.4853 261.197 15.308 261.02C15.1306 260.843 15.042 260.633 15.042 260.39C15.042 260.138 15.1306 259.923 15.308 259.746C15.4853 259.569 15.6953 259.48 15.938 259.48ZM16.848 262.182V267.222C16.848 267.334 16.8806 267.418 16.946 267.474C17.002 267.539 17.0766 267.572 17.17 267.572H17.562V269H16.68C16.2506 269 15.8633 268.827 15.518 268.482C14.986 268.921 14.3933 269.14 13.74 269.14C13.0026 269.14 12.368 268.907 11.836 268.44C11.1266 267.777 10.772 266.891 10.772 265.78C10.772 264.763 11.0986 263.918 11.752 263.246C12.3493 262.639 13.082 262.336 13.95 262.336C14.4353 262.336 14.9206 262.439 15.406 262.644L16.008 262.182H16.848ZM15.14 263.988C14.8133 263.867 14.5006 263.806 14.202 263.806C13.698 263.806 13.2826 263.993 12.956 264.366C12.6293 264.73 12.466 265.206 12.466 265.794C12.466 266.382 12.6106 266.853 12.9 267.208C13.1986 267.563 13.5953 267.74 14.09 267.74C14.426 267.74 14.776 267.665 15.14 267.516V263.988ZM20.8258 259.48C21.0778 259.48 21.2925 259.569 21.4698 259.746C21.6471 259.923 21.7358 260.138 21.7358 260.39C21.7358 260.633 21.6471 260.843 21.4698 261.02C21.2925 261.197 21.0778 261.286 20.8258 261.286C20.5831 261.286 20.3731 261.197 20.1958 261.02C20.0185 260.843 19.9298 260.633 19.9298 260.39C19.9298 260.138 20.0185 259.923 20.1958 259.746C20.3731 259.569 20.5831 259.48 20.8258 259.48ZM21.6798 262.56V267.46C21.6798 267.824 21.5585 268.16 21.3158 268.468C21.0078 268.823 20.6251 269 20.1678 269H17.4658V267.572H19.6218C19.7245 267.572 19.8131 267.535 19.8878 267.46C19.9531 267.395 19.9858 267.315 19.9858 267.222V262.56H21.6798ZM25.3224 258.976V267.222C25.3224 267.315 25.3504 267.39 25.4064 267.446C25.4624 267.53 25.5511 267.572 25.6724 267.572H26.0364V269H25.1264C24.7438 269 24.4078 268.865 24.1184 268.594C23.7824 268.286 23.6144 267.908 23.6144 267.46V258.976H25.3224ZM30.1564 262.56V267.362V267.572H30.8704V269H30.3804L29.8624 268.426H29.8344C29.517 268.809 29.1204 269 28.6444 269H25.9424V267.572H28.0564C28.187 267.572 28.2804 267.535 28.3364 267.46C28.4204 267.385 28.4624 267.292 28.4624 267.18V262.56H30.1564ZM27.1184 270.022C27.3704 270.022 27.585 270.111 27.7624 270.288C27.9397 270.465 28.0284 270.68 28.0284 270.932C28.0284 271.184 27.9397 271.399 27.7624 271.576C27.585 271.753 27.3704 271.842 27.1184 271.842C26.8664 271.842 26.6517 271.753 26.4744 271.576C26.297 271.399 26.2084 271.184 26.2084 270.932C26.2084 270.68 26.297 270.465 26.4744 270.288C26.6517 270.111 26.8664 270.022 27.1184 270.022ZM29.2464 270.022C29.4984 270.022 29.713 270.111 29.8904 270.288C30.0677 270.465 30.1564 270.68 30.1564 270.932C30.1564 271.184 30.0677 271.399 29.8904 271.576C29.713 271.753 29.4984 271.842 29.2464 271.842C29.0037 271.842 28.7937 271.753 28.6164 271.576C28.439 271.399 28.3504 271.184 28.3504 270.932C28.3504 270.68 28.439 270.465 28.6164 270.288C28.7937 270.111 29.0037 270.022 29.2464 270.022ZM34.9825 264.912C36.2332 263.223 37.7779 262.378 39.6165 262.378C40.7365 262.378 41.6605 262.728 42.3885 263.428C43.0512 264.063 43.3825 264.865 43.3825 265.836V267.124C43.3825 267.18 43.3779 267.259 43.3685 267.362C43.3685 267.455 43.3685 267.525 43.3685 267.572H43.8305V269H43.5505L43.0885 268.426H43.0465C42.7385 268.809 42.3419 269 41.8565 269H30.7685V267.572H33.2885L33.2745 262.56H34.9825V264.912ZM41.6745 265.92C41.6652 265.248 41.4085 264.716 40.9045 264.324C40.4752 264.007 39.9572 263.848 39.3505 263.848C38.4172 263.848 37.5539 264.235 36.7605 265.01C36.0325 265.617 35.4399 266.471 34.9825 267.572H41.3245C41.5579 267.572 41.6745 267.455 41.6745 267.222V265.92ZM47.9435 258.976V267.46C47.9435 267.852 47.8175 268.188 47.5655 268.468C47.2762 268.823 46.8982 269 46.4315 269H43.7295V267.572H45.8855C45.9882 267.572 46.0768 267.535 46.1515 267.46C46.2168 267.395 46.2495 267.315 46.2495 267.222V258.976H47.9435ZM51.5861 258.976V268.65L50.7181 269.35H49.8781V258.976H51.5861ZM57.6728 268.944C57.2715 269.056 56.8795 269.112 56.4968 269.112C55.5075 269.112 54.7048 268.729 54.0888 267.964C53.5848 267.32 53.3328 266.559 53.3328 265.682C53.3328 264.721 53.6175 263.941 54.1868 263.344C54.7748 262.709 55.5728 262.392 56.5808 262.392C57.3275 262.392 57.9528 262.583 58.4568 262.966C59.0915 263.423 59.4088 264.095 59.4088 264.982V268.664C59.4088 269.868 59.0262 270.792 58.2608 271.436C57.8222 271.809 57.2762 272.071 56.6228 272.22C56.2962 272.295 55.9322 272.332 55.5308 272.332C55.4282 272.332 55.2648 272.323 55.0408 272.304L54.3548 271.45V270.848C54.6535 270.895 54.9475 270.918 55.2368 270.918C56.7395 270.918 57.5515 270.26 57.6728 268.944ZM57.7008 264.982C57.7008 264.581 57.5655 264.273 57.2948 264.058C57.1082 263.899 56.8702 263.82 56.5808 263.82C56.0955 263.82 55.7128 263.988 55.4328 264.324C55.1622 264.66 55.0268 265.122 55.0268 265.71C55.0268 266.317 55.1808 266.797 55.4888 267.152C55.8062 267.497 56.2355 267.67 56.7768 267.67C57.0755 267.67 57.3835 267.614 57.7008 267.502V264.982ZM73.066 258.976V267.572H73.766V269H73.052C72.9867 270.027 72.604 270.843 71.904 271.45C71.1854 272.047 70.2474 272.346 69.09 272.346H67.704C66.444 272.346 65.4547 272.001 64.736 271.31C64.064 270.657 63.728 269.775 63.728 268.664V266.158L64.596 265.458H65.436V268.51C65.436 269.397 65.66 270.017 66.108 270.372C66.556 270.736 67.3214 270.918 68.404 270.918C69.4587 270.918 70.2007 270.755 70.63 270.428C71.1154 270.055 71.358 269.415 71.358 268.51V258.976H73.066ZM77.8849 262.56V267.362V267.572H78.5989V269H78.1089L77.5909 268.426H77.5629C77.2456 268.809 76.8489 269 76.3729 269H73.6709V267.572H75.7849C75.9156 267.572 76.0089 267.535 76.0649 267.46C76.1489 267.385 76.1909 267.292 76.1909 267.18V262.56H77.8849ZM74.8469 270.022C75.0989 270.022 75.3136 270.111 75.4909 270.288C75.6682 270.465 75.7569 270.68 75.7569 270.932C75.7569 271.184 75.6682 271.399 75.4909 271.576C75.3136 271.753 75.0989 271.842 74.8469 271.842C74.5949 271.842 74.3802 271.753 74.2029 271.576C74.0256 271.399 73.9369 271.184 73.9369 270.932C73.9369 270.68 74.0256 270.465 74.2029 270.288C74.3802 270.111 74.5949 270.022 74.8469 270.022ZM76.9749 270.022C77.2269 270.022 77.4416 270.111 77.6189 270.288C77.7962 270.465 77.8849 270.68 77.8849 270.932C77.8849 271.184 77.7962 271.399 77.6189 271.576C77.4416 271.753 77.2269 271.842 76.9749 271.842C76.7322 271.842 76.5222 271.753 76.3449 271.576C76.1676 271.399 76.0789 271.184 76.0789 270.932C76.0789 270.68 76.1676 270.465 76.3449 270.288C76.5222 270.111 76.7322 270.022 76.9749 270.022ZM84.1391 259.48C84.3911 259.48 84.6057 259.569 84.7831 259.746C84.9604 259.923 85.0491 260.138 85.0491 260.39C85.0491 260.633 84.9604 260.843 84.7831 261.02C84.6057 261.197 84.3911 261.286 84.1391 261.286C83.8871 261.286 83.6724 261.197 83.4951 261.02C83.3177 260.843 83.2291 260.633 83.2291 260.39C83.2291 260.138 83.3177 259.923 83.4951 259.746C83.6724 259.569 83.8871 259.48 84.1391 259.48ZM80.4431 265.024C80.7604 264.109 81.3391 263.414 82.1791 262.938C82.8044 262.583 83.4811 262.406 84.2091 262.406C84.9371 262.406 85.6044 262.602 86.2111 262.994C86.9671 263.451 87.5084 264.128 87.8351 265.024L87.6671 265.416C87.2937 265.584 86.9017 265.873 86.4911 266.284C86.0991 266.713 85.8424 267.143 85.7211 267.572H87.9751V269H84.8951C84.6337 269 84.3957 268.879 84.1811 268.636H84.1111C83.8964 268.879 83.6491 269 83.3691 269H78.4971V267.572H82.5571C82.4451 267.189 82.2071 266.783 81.8431 266.354C81.4417 265.906 81.0264 265.593 80.5971 265.416L80.4431 265.024ZM86.0431 264.912C85.8191 264.52 85.5157 264.231 85.1331 264.044C84.8437 263.904 84.5217 263.834 84.1671 263.834C83.7937 263.834 83.4391 263.913 83.1031 264.072C82.7297 264.259 82.4404 264.539 82.2351 264.912C82.5524 265.052 82.8884 265.332 83.2431 265.752C83.6351 266.191 83.9244 266.667 84.1111 267.18H84.1671C84.3444 266.657 84.6477 266.158 85.0771 265.682C85.4224 265.299 85.7444 265.043 86.0431 264.912ZM97.214 257.8C97.4473 257.8 97.6433 257.884 97.802 258.052C97.9606 258.211 98.04 258.407 98.04 258.64C98.04 258.873 97.9606 259.069 97.802 259.228C97.6433 259.387 97.4473 259.466 97.214 259.466C96.9806 259.466 96.78 259.387 96.612 259.228C96.4533 259.069 96.374 258.873 96.374 258.64C96.374 258.407 96.4533 258.211 96.612 258.052C96.78 257.884 96.9806 257.8 97.214 257.8ZM96.15 259.48C96.402 259.48 96.612 259.569 96.78 259.746C96.9573 259.923 97.046 260.138 97.046 260.39C97.046 260.642 96.9573 260.857 96.78 261.034C96.612 261.202 96.402 261.286 96.15 261.286C95.898 261.286 95.6833 261.202 95.506 261.034C95.338 260.857 95.254 260.642 95.254 260.39C95.254 260.138 95.338 259.923 95.506 259.746C95.6833 259.569 95.898 259.48 96.15 259.48ZM98.264 259.48C98.516 259.48 98.7306 259.569 98.908 259.746C99.0853 259.923 99.174 260.138 99.174 260.39C99.174 260.633 99.0853 260.843 98.908 261.02C98.7306 261.197 98.516 261.286 98.264 261.286C98.0213 261.286 97.8113 261.197 97.634 261.02C97.4566 260.843 97.368 260.633 97.368 260.39C97.368 260.138 97.4566 259.923 97.634 259.746C97.8113 259.569 98.0213 259.48 98.264 259.48ZM102.73 262.56V267.138V267.572H103.444V269H102.898L102.436 268.426H102.408C102.091 268.809 101.694 269 101.218 269H98.222L97.76 268.426H97.718C97.41 268.809 97.018 269 96.542 269H93.532L93.07 268.426H93.028C92.72 268.809 92.328 269 91.852 269H87.876V267.572H91.306C91.5393 267.572 91.656 267.455 91.656 267.222V264.17H93.364V267.138C93.364 267.334 93.3593 267.479 93.35 267.572H95.996C96.2293 267.572 96.346 267.455 96.346 267.222V263.358H98.054V267.096C98.054 267.152 98.0493 267.236 98.04 267.348C98.04 267.451 98.04 267.525 98.04 267.572H100.672C100.905 267.572 101.022 267.455 101.022 267.222V262.56H102.73ZM104.711 259.48C104.963 259.48 105.177 259.569 105.355 259.746C105.532 259.923 105.621 260.138 105.621 260.39C105.621 260.633 105.532 260.843 105.355 261.02C105.177 261.197 104.963 261.286 104.711 261.286C104.459 261.286 104.244 261.197 104.067 261.02C103.889 260.843 103.801 260.633 103.801 260.39C103.801 260.138 103.889 259.923 104.067 259.746C104.244 259.569 104.459 259.48 104.711 259.48ZM106.839 259.48C107.091 259.48 107.305 259.569 107.483 259.746C107.66 259.923 107.749 260.138 107.749 260.39C107.749 260.633 107.66 260.843 107.483 261.02C107.305 261.197 107.091 261.286 106.839 261.286C106.596 261.286 106.386 261.197 106.209 261.02C106.031 260.843 105.943 260.633 105.943 260.39C105.943 260.138 106.031 259.923 106.209 259.746C106.386 259.569 106.596 259.48 106.839 259.48ZM107.567 262.56V267.362V267.572H108.281V269H107.791L107.273 268.426H107.245C106.927 268.809 106.531 269 106.055 269H103.353V267.572H105.467C105.597 267.572 105.691 267.535 105.747 267.46C105.831 267.385 105.873 267.292 105.873 267.18V262.56H107.567ZM112.393 258.976V267.46C112.393 267.852 112.267 268.188 112.015 268.468C111.725 268.823 111.347 269 110.881 269H108.179V267.572H110.335C110.437 267.572 110.526 267.535 110.601 267.46C110.666 267.395 110.699 267.315 110.699 267.222V258.976H112.393ZM116.035 258.976V268.65L115.167 269.35H114.327V258.976H116.035Z" fill="white"/>
<line x1="125" y1="243" x2="125" y2="257" stroke="white" stroke-width="2"/>
<line x1="1" y1="243" x2="0.999999" y2="257" stroke="white" stroke-width="2"/>
<line x1="124" y1="244" y2="244" stroke="white" stroke-width="2"/>
<line x1="1" y1="286" x2="1" y2="272" stroke="white" stroke-width="2"/>
<line x1="125" y1="286" x2="125" y2="272" stroke="white" stroke-width="2"/>
<line x1="2" y1="285" x2="126" y2="285" stroke="white" stroke-width="2"/>
</svg>
