<svg width="516" height="333" viewBox="0 0 516 333" fill="none" xmlns="http://www.w3.org/2000/svg">
<g style="mix-blend-mode:soft-light">
<path d="M-166.543 332.584L-5.12825 290.821C-5.12825 290.821 45.9303 303.891 117.189 290.84C188.448 277.789 219.098 265.117 219.098 265.117C219.098 265.117 254.586 266.63 271.669 268.937C288.751 271.264 305.456 283.899 305.456 283.899C305.456 283.899 306.948 313.102 320.195 311.967C333.441 310.833 345.138 301.3 345.138 301.3C345.138 301.3 351.544 310.057 359.972 308.847C368.4 307.617 374.409 298.5 384.386 284.825C394.364 271.132 392.342 254.846 392.342 254.846C405.267 272.985 416.643 268.654 423.465 267.405C430.286 266.157 433.234 240.301 434.349 228.877C435.464 217.453 438.374 205.385 433.083 188.722C427.792 172.058 414.659 140.51 407.743 128.953C400.826 117.396 386.956 111.609 371.801 105.726C356.646 99.844 313.279 88.571 313.279 88.571C320.932 84.92 362.844 60.256 376.374 60.672C389.904 61.088 421.651 61.353 433.65 60.426C445.649 59.519 470.12 81.308 493.59 74.763C517.04 68.219 519.44 49.834 508.745 43.782C498.03 37.729 475.298 18.493 458.707 13.538C442.115 8.563 408.196 8.69601 387.901 2.79501C367.606 -3.10699 346.102 5.32901 317.606 17.605C289.11 29.88 226.26 50.364 226.26 50.364L132.779 85.431L47.064 113.954C47.064 113.954 -7.22573 125.189 -65.8807 130.163C-124.517 135.138 -201.917 146.108 -201.917 146.108M287.05 213.878C276.903 210.927 271.498 207.598 271.498 207.598L282.685 203.154C282.685 203.154 297.311 214.899 306.533 218.02C315.754 221.141 320.233 224.64 320.233 224.64C320.233 224.64 297.198 216.848 287.05 213.897V213.878ZM365.584 170.64L379.001 188.854C379.001 188.854 367.153 181.894 347.198 172.569C327.243 163.244 293.759 148.227 293.759 148.227L311.087 148.416C311.087 148.416 335.029 163.736 365.584 170.64Z" stroke="white" stroke-width="0.5" stroke-miterlimit="10"/>
<path d="M-202.011 152.557C-202.011 152.557 -21.0391 134.078 37.5969 122.124C72.3288 115.05 89.3924 110.302 145.988 87.1133C202.583 63.9253 304.454 29.6333 318.872 24.4323C333.29 19.2303 360.747 3.53132 383.857 7.71132C406.949 11.8913 423.106 13.4993 442.078 14.8233C461.05 16.1473 482.006 32.2623 488.771 35.1183C495.536 37.9743 514.943 52.1983 514.943 52.1983" stroke="white" stroke-width="0.5" stroke-miterlimit="10"/>
<path d="M514.47 57.6448C514.47 57.6448 493.287 43.3638 485.2 39.6948C477.112 36.0258 459.16 22.2558 441.832 21.0448C424.504 19.8348 402.376 18.3598 382.572 14.7848C362.769 11.2098 337.958 24.6958 324.503 29.6888C311.049 34.6638 217.435 67.3658 168.928 87.2448C120.42 107.124 95.3636 116.43 51.6747 125.187C-12.498 138.125 -200.821 159.233 -200.821 159.233" stroke="white" stroke-width="0.5" stroke-miterlimit="10"/>
<path d="M512.713 61.5038C512.713 61.5038 491.076 48.7558 481.666 44.2538C472.274 39.7518 457.308 28.3468 441.624 27.2308C425.94 26.1148 397.822 24.8098 381.325 21.8218C364.828 18.8328 342.663 30.1438 330.172 34.9098C317.682 39.6768 232.326 70.7718 191.887 87.3408C151.467 103.91 118.417 117.793 65.7904 128.214C-3.91898 142.135 -199.593 165.854 -199.593 165.854" stroke="white" stroke-width="0.5" stroke-miterlimit="10"/>
<path d="M510.049 65.3059C510.049 65.3059 488.865 54.1459 478.132 48.8309C467.418 43.5169 455.475 34.4379 441.416 33.4349C427.357 32.4329 393.268 31.2789 380.078 28.8769C366.888 26.4939 347.368 35.6099 335.841 40.1309C324.314 44.6509 247.197 74.1769 214.865 87.4359C182.533 100.694 141.49 119.155 79.9062 131.26C4.64125 146.164 -198.383 172.493 -198.383 172.493" stroke="white" stroke-width="0.5" stroke-miterlimit="10"/>
<path d="M506.345 68.3892C506.345 68.3892 486.636 59.5372 474.599 53.3902C462.561 47.2432 453.623 40.5282 441.227 39.6392C428.831 38.7502 388.733 37.7292 378.831 35.9322C368.929 34.1352 352.073 41.0582 341.529 45.3702C330.966 49.6832 262.107 77.6002 237.863 87.5492C213.599 97.4792 164.582 120.517 94.0408 134.305C13.2392 150.174 -197.136 179.132 -197.136 179.132" stroke="white" stroke-width="0.5" stroke-miterlimit="10"/>
<path d="M502.641 71.1681C502.641 71.1681 484.406 64.9081 471.065 57.9471C457.724 50.9871 451.772 46.5991 441.019 45.8231C430.267 45.0481 384.179 44.1781 377.584 42.9861C370.989 41.7941 356.779 46.5231 347.198 50.6081C337.618 54.6941 276.997 81.0231 260.822 87.6621C244.646 94.2821 187.636 121.896 108.138 137.368C21.7994 154.221 -195.927 185.808 -195.927 185.808" stroke="white" stroke-width="0.5" stroke-miterlimit="10"/>
<path d="M497.879 73.3628C497.879 73.3628 482.195 70.2987 467.531 62.5057C452.868 54.7137 449.92 52.6897 440.812 52.0277C431.704 51.3657 379.625 50.6278 376.337 50.0418C373.03 49.4368 361.484 51.9898 352.867 55.8478C344.25 59.7258 291.888 84.4467 283.8 87.7757C275.712 91.1047 210.708 123.278 122.253 140.414C30.3784 158.25 -194.698 192.447 -194.698 192.447" stroke="white" stroke-width="0.5" stroke-miterlimit="10"/>
<path d="M490.509 75.3681C490.509 75.3681 479.984 75.6711 463.998 67.0651C448.011 58.4591 448.068 58.7611 440.604 58.2131C433.14 57.6641 375.089 57.0781 375.089 57.0781C375.089 57.0781 366.189 57.4191 358.536 61.0691C350.883 64.7191 306.759 87.8521 306.759 87.8521C306.759 87.8521 233.762 124.621 136.35 143.441C38.9385 162.26 -193.508 199.068 -193.508 199.068" stroke="white" stroke-width="0.5" stroke-miterlimit="10"/>
<path d="M379.02 188.873C379.02 188.873 386.22 196.685 389.923 200.335C393.627 203.986 394.062 217.679 393.514 226.929C392.966 236.178 390.49 243.668 392.38 254.865" stroke="#0EF" stroke-width="0.5" stroke-miterlimit="10"/>
<path d="M425.222 266.461C425.222 266.461 432.233 234.741 432.308 214.2C432.403 193.678 430.362 189.555 428.321 185.451C426.28 181.346 410.861 135.46 400.146 125.871C389.432 116.3 367.569 108.772 358.347 105.651C349.126 102.531 322.103 93.0549 310.917 93.1869C299.73 93.3189 269.76 109.699 246.838 117.435C223.917 125.152 190.111 138.089 151.997 145.069C151.997 145.069 38.7874 166.782 8.00496 171.776C-22.7776 176.769 -191.543 206.408 -191.543 206.408" stroke="white" stroke-width="0.5" stroke-miterlimit="10"/>
<path d="M418.722 268.125C418.722 268.125 421.235 250.78 423.54 234.855C424.485 228.197 425.128 221.444 425.203 215.581C425.354 197.48 423.484 192.733 421.481 188.42C419.572 184.297 410.728 162.167 399.938 143.196C397.765 139.375 395.309 136.084 392.021 133.663C381.836 126.173 362.032 118.683 351.998 114.9C348.03 113.406 341.643 110.871 334.708 108.583C326.28 105.784 313.997 103.4 306.986 103.495C306.268 103.495 305.512 103.571 304.681 103.684C293.551 105.254 267.984 117.945 245.554 125.038C223.256 132.093 191.188 143.253 155.058 150.459C148.973 151.67 47.1965 171.265 10.4238 177.544C-28.8999 184.297 -179.978 210.966 -189.955 212.782" stroke="white" stroke-width="0.5" stroke-miterlimit="10"/>
<path d="M412.996 268.334C412.996 268.334 413.827 250.592 416.359 235.083C417.342 228.822 418.003 222.524 418.098 216.963C418.344 201.283 416.643 195.892 414.64 191.391C412.41 186.341 404.436 170.642 392.134 149.685C390.471 146.848 388.185 144.162 383.895 141.457C374.655 135.65 356.495 128.633 345.63 124.169C341.548 122.486 335.728 119.819 329.473 117.587C323.199 115.355 310.539 113.691 303.037 113.804C302.338 113.804 301.601 113.861 300.845 113.956C291.226 115.128 267.7 125.701 244.25 132.662C222.594 139.093 192.341 148.947 158.1 155.87C145.912 158.328 55.5863 175.767 12.8234 183.333C-35.0605 191.845 -168.451 215.525 -188.406 219.176" stroke="white" stroke-width="0.5" stroke-miterlimit="10"/>
<path d="M407.308 267.464C407.308 267.464 406.458 250.422 409.16 235.309C410.199 229.446 410.842 223.601 410.955 218.343C411.258 205.084 409.765 199.051 407.762 194.36C405.229 188.383 398.124 179.134 384.292 156.172C383.158 154.281 381.08 152.143 375.732 149.249C367.606 144.861 350.921 138.582 339.243 133.418C335.048 131.565 329.813 128.765 324.22 126.59C320.082 124.982 307.081 123.999 299.069 124.112C298.388 124.112 297.689 124.15 296.99 124.226C288.883 125.02 267.417 133.494 242.927 140.284C221.914 146.11 193.494 154.659 161.124 161.298C142.87 165.043 63.9577 180.288 15.2046 189.121C-41.2206 199.391 -156.943 220.083 -186.875 225.569" stroke="white" stroke-width="0.5" stroke-miterlimit="10"/>
<path d="M401.601 264.418C401.601 264.418 399.05 250.213 401.979 235.517C403.056 230.05 403.699 224.66 403.85 219.723C404.19 208.904 402.924 202.209 400.921 197.329C398.086 190.425 391.832 187.626 376.488 162.659C375.921 161.713 374.088 159.954 367.606 157.022C360.671 153.883 345.365 148.549 332.893 142.667C328.585 140.643 323.936 137.711 318.986 135.593C316.945 134.722 303.623 134.287 295.1 134.42C294.439 134.42 293.778 134.458 293.116 134.496C286.521 134.931 267.114 141.305 241.585 147.906C221.215 153.164 194.627 160.351 164.128 166.707C139.789 171.776 72.3098 184.808 17.5665 194.908C-47.4187 206.937 -145.454 224.641 -185.345 231.961" stroke="white" stroke-width="0.5" stroke-miterlimit="10"/>
<path d="M395.384 258.706C395.384 258.706 391.643 250.024 394.78 235.744C397.935 221.463 397.18 208.148 394.062 200.298C390.944 192.449 387.108 195.078 368.665 169.128C368.665 169.128 367.172 167.482 359.462 164.796C351.771 162.11 329.643 155.358 313.732 144.577C313.732 144.577 298.124 144.558 289.261 144.728C280.418 144.917 234.348 157.836 167.152 172.078C99.9556 186.321 -92.7326 221.615 -183.814 238.316" stroke="white" stroke-width="0.5" stroke-miterlimit="10"/>
<path d="M345.157 301.319C343.683 294.131 344.061 278.678 343.419 267.273C342.776 255.849 339.809 238.372 335.35 233.663C330.89 228.953 317.682 223.676 317.682 223.676" stroke="white" stroke-width="0.5" stroke-miterlimit="10"/>
<path d="M364.148 307.219C364.148 307.219 380.21 288.645 383.574 280.834C386.937 273.022 389.035 264.7 389.016 254.127C389.016 243.554 389.734 235.723 390.131 228.687C390.528 221.651 391.416 209.47 384.878 201.28C378.34 193.09 375.278 190.783 369.723 187.946C364.167 185.108 301.355 152.878 291.037 151.649C280.72 150.42 230.455 161.787 215.659 166.175C200.863 170.563 89.7513 198.613 -179.43 244.575" stroke="white" stroke-width="0.5" stroke-miterlimit="10"/>
<path d="M360.803 308.542C360.803 308.542 375.221 289.06 378.226 280.814C380.985 273.229 382.875 265.229 382.818 255.242C382.761 245.35 383.404 237.803 383.498 230.956C383.593 223.882 383.649 214.803 379.227 207.521C378.642 206.537 377.943 205.63 377.187 204.741C370.894 197.44 367.512 195.227 362.013 192.201C358.744 190.404 343.4 182.781 326.582 174.27C325.448 173.702 324.257 173.154 322.613 172.586C318.192 171.111 314.129 169.693 309.745 168.009C299.201 163.943 289.658 160.368 284.631 160.424C273.596 160.519 227.318 170.865 210.689 175.537C194.476 180.095 132.363 194.413 6.22841 217.697C-37.8762 225.83 -114.653 240.016 -178.089 250.835" stroke="white" stroke-width="0.5" stroke-miterlimit="10"/>
<path d="M357.969 308.826C357.969 308.826 370.252 289.496 372.859 280.814C375.07 273.494 376.714 265.777 376.601 256.358C376.506 247.165 376.998 239.883 376.828 233.244C376.62 225.338 376.015 217.432 371.555 210.793C370.951 209.885 370.214 209.034 369.439 208.202C363.43 201.771 359.688 199.653 354.246 196.456C350.429 194.224 335.992 187.321 319.533 178.639C318.607 178.147 317.587 177.655 315.603 177.22C311.275 176.256 307.534 175.669 302.942 174.232C293.777 171.357 284.65 168.558 278.188 169.182C266.472 170.298 224.143 179.868 205.682 184.862C183.969 190.744 121.138 203.795 4.41437 224.487C-32.3772 231.013 -123.912 248.035 -176.766 257.058" stroke="white" stroke-width="0.5" stroke-miterlimit="10"/>
<path d="M355.626 308.298C355.626 308.298 365.32 289.951 367.493 280.815C369.175 273.779 370.554 266.346 370.384 257.494C370.233 248.983 370.573 241.984 370.176 235.535C369.647 226.777 368.4 220.063 363.922 214.067C363.279 213.216 362.523 212.44 361.73 211.684C356.004 206.104 351.941 204.061 346.518 200.732C342.172 198.046 328.623 191.899 312.504 183.047C311.767 182.631 310.936 182.196 308.592 181.894C304.397 181.364 300.977 181.686 296.14 180.513C288.449 178.64 279.643 176.73 271.744 177.997C259.329 179.964 220.95 188.911 200.674 194.264C173.482 201.451 109.952 213.254 2.58162 231.354C-26.8971 236.329 -133.19 256.132 -175.481 263.357" stroke="white" stroke-width="0.5" stroke-miterlimit="10"/>
<path d="M353.679 307.692C353.679 307.692 360.425 290.423 362.126 280.815C363.317 274.063 364.394 266.894 364.186 258.628C363.997 250.798 364.129 244.083 363.543 237.842C362.655 228.233 360.784 222.71 356.287 217.358C355.626 216.563 354.832 215.863 354.038 215.163C348.634 210.416 344.212 208.468 338.808 205.007C333.914 201.867 321.31 196.495 305.512 187.435C304.964 187.114 304.34 186.66 301.638 186.546C297.575 186.376 294.59 186.754 289.374 186.773C283.516 184.636 274.654 184.825 265.338 186.773C252.205 189.535 217.794 197.895 195.704 203.607C162.994 212.062 98.8026 222.654 0.805084 238.182C-21.3417 241.7 -142.412 264.189 -174.12 269.599" stroke="white" stroke-width="0.5" stroke-miterlimit="10"/>
<path d="M351.374 306.424C351.374 306.424 355.607 290.895 356.778 280.795C357.534 274.345 358.252 267.423 357.988 259.743C357.742 252.594 357.648 246.163 356.911 240.11C355.626 229.67 353.169 225.338 348.653 220.629C347.954 219.91 347.16 219.267 346.329 218.624C341.283 214.69 336.465 212.836 331.079 209.242C325.675 205.63 313.978 201.052 298.501 191.784C298.142 191.576 297.708 191.047 294.665 191.16C290.735 191.293 288.071 192.465 282.609 192.976C278.225 191.671 269.627 192.806 258.932 195.529C245.062 199.048 214.62 206.859 190.734 212.95C152.526 222.672 87.7103 232.034 -0.990082 244.99C-15.7861 247.147 -151.652 272.227 -172.798 275.84" stroke="white" stroke-width="0.5" stroke-miterlimit="10"/>
<path d="M349.031 305.024C349.031 305.024 350.826 291.387 351.412 280.814C351.752 274.667 352.092 268.009 351.771 260.897C351.487 254.448 351.147 248.282 350.259 242.418C348.54 231.145 345.516 228.024 341 223.92C340.282 223.258 339.45 222.691 338.619 222.104C333.933 218.946 328.717 217.224 323.369 213.517C317.436 209.413 306.703 205.649 291.491 196.192C291.321 196.078 291.075 195.454 287.674 195.813C283.876 196.23 281.627 199.199 275.826 199.237C272.878 199.237 264.582 200.807 252.507 204.325C237.881 208.562 211.445 215.825 185.746 222.312C142.019 233.245 76.637 241.435 -2.78519 251.838C-10.1926 252.802 -160.893 280.304 -171.456 282.1" stroke="white" stroke-width="0.5" stroke-miterlimit="10"/>
<path d="M346.782 303.266C346.782 303.266 346.14 291.842 346.045 280.815C345.951 269.769 345.818 256.813 343.608 244.727C341.397 232.64 337.844 230.711 333.366 227.212C328.887 223.713 322.084 222.389 315.641 217.793C309.197 213.196 298.105 212.043 284.48 200.581C284.48 200.581 284.424 199.786 280.701 200.467C276.978 201.148 275.013 203.985 269.061 205.479C263.089 206.974 139.978 253.805 -4.56151 258.666L-170.114 288.362" stroke="white" stroke-width="0.5" stroke-miterlimit="10"/>
<path d="M343.116 302.415C343.116 302.415 342.115 287.7 341.416 276.048C340.717 264.397 339.432 249.493 335.671 242.003C331.911 234.513 326.412 230.73 316 226.38C305.607 222.029 286.106 219.116 270.346 210.473C270.346 210.473 260.293 213.272 243.532 218.757C226.77 224.242 154.208 256.832 -6.11081 265.211L-170.813 296.835" stroke="white" stroke-width="0.5" stroke-miterlimit="10"/>
<path d="M338.713 305.459C338.713 305.459 337.221 288.512 336.616 277.031C336.106 267.044 334.859 254.145 330.871 247.222C326.884 240.3 320.951 236.592 311.181 232.469C301.412 228.346 277.715 225.3 263.108 217.867C263.108 217.867 246.517 222.709 227.772 228.081C203.509 235.041 131.305 261.162 -6.1109 268.349L-170.228 301.298" stroke="white" stroke-width="0.5" stroke-miterlimit="10"/>
<path d="M333.347 308.127C333.347 308.127 332.308 289.364 331.816 278.034C331.457 269.712 330.267 258.818 326.072 252.462C321.877 246.107 315.49 242.476 306.363 238.579C297.236 234.683 269.325 231.505 255.871 225.264C255.871 225.264 232.704 231.997 212.012 237.407C180.19 245.729 108.383 265.494 -6.11076 271.471L-169.642 305.763" stroke="white" stroke-width="0.5" stroke-miterlimit="10"/>
<path d="M328.906 310.151C328.906 310.151 327.413 290.197 327.017 279.037C326.79 272.379 325.675 263.49 321.272 257.702C316.85 251.914 310.029 248.358 301.544 244.708C293.059 241.057 260.954 237.728 248.653 232.697C248.653 232.697 218.872 241.265 196.271 246.751C156.891 256.34 85.4996 269.845 -6.11084 274.63L-169.056 310.246" stroke="white" stroke-width="0.5" stroke-miterlimit="10"/>
<path d="M324.541 311.191C324.541 311.191 322.538 291.028 322.236 280.02C322.103 275.026 321.121 268.142 316.472 262.921C311.843 257.701 304.567 254.221 296.706 250.797C288.845 247.374 252.545 243.912 241.396 240.092C241.396 240.092 205.02 250.457 180.493 256.074C133.516 266.856 62.5781 274.156 -6.12982 277.75L-168.489 314.709" stroke="white" stroke-width="0.5" stroke-miterlimit="10"/>
<path d="M320.478 311.683C320.478 311.683 317.644 291.861 317.455 281.004C317.398 277.675 316.548 272.796 311.691 268.143C306.835 263.49 299.125 260.104 291.907 256.889C284.688 253.673 244.193 250.08 234.178 247.488C234.178 247.488 191.188 259.631 164.752 265.4C110.178 277.316 39.6944 278.489 -6.11086 280.891L-167.884 319.192" stroke="white" stroke-width="0.5" stroke-miterlimit="10"/>
<path d="M315.849 310.927C315.849 310.927 312.75 292.694 312.655 281.988C312.655 280.324 311.956 277.449 306.892 273.363C301.827 269.278 293.664 265.968 287.088 262.979C280.512 259.991 235.803 256.265 226.94 254.865C226.94 254.865 177.337 268.786 148.992 274.706C86.8224 287.719 16.7917 282.802 -6.11092 283.993L-167.299 323.619" stroke="white" stroke-width="0.5" stroke-miterlimit="10"/>
<path d="M310.652 305.234C310.652 305.234 307.232 293.526 307.874 282.99C307.874 282.99 307.402 282.12 302.111 278.602C296.82 275.084 288.222 271.85 282.288 269.088C276.336 266.327 227.451 262.468 219.722 262.279C219.722 262.279 163.505 277.959 133.251 284.05C63.4663 298.122 -6.092 287.152 -6.092 287.152L-166.694 328.12" stroke="white" stroke-width="0.5" stroke-miterlimit="10"/>
<path d="M460.407 14.125C460.407 14.125 469.024 45.485 436.957 60.484" stroke="white" stroke-width="0.5" stroke-miterlimit="10"/>
<path d="M470.063 20.0645C470.063 20.0645 479.663 49.5905 445.517 63.5675" stroke="white" stroke-width="0.5" stroke-miterlimit="10"/>
<path d="M479.738 26.0039C479.738 26.0039 490.302 53.6939 454.115 66.6319" stroke="white" stroke-width="0.5" stroke-miterlimit="10"/>
<path d="M489.394 31.9414C489.394 31.9414 500.94 57.7974 462.694 69.7134" stroke="white" stroke-width="0.5" stroke-miterlimit="10"/>
<path d="M499.07 37.8809C499.07 37.8809 511.598 61.9209 471.273 72.7969" stroke="white" stroke-width="0.5" stroke-miterlimit="10"/>
<path d="M508.726 43.8008C508.726 43.8008 522.237 66.0058 479.852 75.8608" stroke="white" stroke-width="0.5" stroke-miterlimit="10"/>
<path d="M451.828 11.8535C451.828 11.8535 456.968 39.9975 431.25 60.8035" stroke="white" stroke-width="0.5" stroke-miterlimit="10"/>
<path d="M441.945 10.5117C441.945 10.5117 445.196 38.1267 424.126 60.8047" stroke="white" stroke-width="0.5" stroke-miterlimit="10"/>
<path d="M432.062 9.16797C432.062 9.16797 433.423 36.253 417.002 60.785" stroke="white" stroke-width="0.5" stroke-miterlimit="10"/>
<path d="M422.179 7.82617C422.179 7.82617 421.631 34.4012 409.897 60.7672" stroke="white" stroke-width="0.5" stroke-miterlimit="10"/>
<path d="M412.297 6.48242C412.297 6.48242 409.859 32.5274 402.773 60.7474" stroke="white" stroke-width="0.5" stroke-miterlimit="10"/>
<path d="M402.414 5.13867C402.414 5.13867 398.067 30.6537 395.649 60.7277" stroke="white" stroke-width="0.5" stroke-miterlimit="10"/>
<path d="M392.531 3.79688C392.531 3.79688 386.295 28.8019 388.525 60.7099" stroke="white" stroke-width="0.5" stroke-miterlimit="10"/>
<path d="M382.648 2.45312C382.648 2.45312 374.522 26.9281 381.42 60.6901" stroke="white" stroke-width="0.5" stroke-miterlimit="10"/>
<path d="M372.765 1.0918C372.765 1.0918 362.731 25.0368 374.296 60.6528" stroke="white" stroke-width="0.5" stroke-miterlimit="10"/>
<path d="M219.098 265.135C219.098 265.135 266.377 210.322 275.164 149.739C283.951 89.1575 259.291 39.3555 259.291 39.3555" stroke="white" stroke-width="0.5" stroke-miterlimit="10"/>
<path d="M208.648 268.806C208.648 268.806 254.888 211.722 262.938 152.218C270.988 92.6948 248.029 42.7988 248.029 42.7988" stroke="white" stroke-width="0.5" stroke-miterlimit="10"/>
<path d="M237.012 46.8262C237.371 47.6962 238.108 49.5692 239.072 52.2922C239.752 54.2602 240.584 56.6992 241.453 59.5742C242.171 61.8442 242.908 64.3792 243.683 67.1592C244.344 69.6372 245.024 72.3232 245.705 75.1602C246.347 77.8082 246.952 80.6452 247.556 83.5962C248.142 86.4892 248.69 89.5162 249.2 92.6742C249.692 95.7202 250.164 98.8782 250.542 102.132C250.901 105.044 251.222 108.033 251.468 111.078C251.6 112.591 251.695 114.123 251.808 115.693C251.94 118.038 252.054 120.441 252.129 122.843C252.205 125.245 252.243 127.685 252.224 130.162C252.224 132.621 252.186 135.118 252.092 137.615C251.997 140.13 251.865 142.684 251.657 145.256C251.468 147.81 251.222 150.363 250.92 152.973C250.844 153.541 250.788 154.127 250.712 154.694C250.58 155.735 250.429 156.756 250.278 157.815C249.843 160.728 249.333 163.603 248.728 166.497C248.123 169.372 247.462 172.247 246.687 175.103C245.95 177.997 245.138 180.872 244.231 183.709C243.343 186.603 242.379 189.478 241.358 192.315C240.319 195.19 239.223 198.065 238.108 200.883C236.937 203.777 235.746 206.633 234.48 209.432C233.214 212.345 231.891 215.201 230.531 217.981C229.472 220.232 228.358 222.464 227.243 224.62C226.506 226.077 225.75 227.514 225.013 228.914C223.936 230.938 222.859 232.924 221.819 234.834C220.629 237.009 219.419 239.109 218.248 241.114C216.944 243.346 215.659 245.483 214.45 247.526C213.051 249.814 211.672 251.989 210.368 254.013C208.856 256.434 207.382 258.628 206.079 260.614C204.283 263.262 202.734 265.494 201.449 267.291C199.484 270.071 198.199 271.793 197.859 272.228L197.783 272.341" stroke="white" stroke-width="0.5" stroke-miterlimit="10"/>
<path d="M225.825 50.5332C226.203 51.5732 226.902 53.5222 227.772 56.2832C228.433 58.3262 229.227 60.8422 230.039 63.7542C230.701 66.1002 231.4 68.6912 232.099 71.5472C232.742 74.0822 233.365 76.8242 234.008 79.7372C234.593 82.4982 235.179 85.3732 235.727 88.4002C236.275 91.3692 236.785 94.5092 237.22 97.7622C237.655 100.694 238.051 103.739 238.392 106.898C238.713 109.678 238.958 112.534 239.185 115.466C239.28 116.941 239.393 118.454 239.469 119.949C239.601 122.237 239.695 124.545 239.733 126.871C239.809 129.198 239.847 131.562 239.809 133.945C239.809 136.309 239.752 138.712 239.639 141.152C239.563 143.573 239.431 146.012 239.242 148.471C239.072 150.93 238.845 153.389 238.581 155.867C238.543 156.302 238.505 156.699 238.448 157.134C238.335 158.25 238.184 159.366 238.033 160.501C237.617 163.376 237.144 166.251 236.577 169.126C236.011 172.02 235.368 174.895 234.65 177.77C233.951 180.663 233.157 183.557 232.307 186.432C231.419 189.364 230.512 192.258 229.51 195.114C228.528 198.065 227.469 200.977 226.354 203.852C225.24 206.803 224.068 209.735 222.877 212.591C221.593 215.598 220.308 218.53 219.004 221.367C217.87 223.826 216.736 226.247 215.602 228.592C214.979 229.841 214.374 231.089 213.769 232.318C212.862 234.134 211.936 235.931 211.029 237.671C209.914 239.789 208.818 241.87 207.722 243.856C206.513 246.069 205.304 248.206 204.151 250.23C202.866 252.5 201.6 254.656 200.391 256.661C198.973 259.025 197.632 261.2 196.403 263.168C194.759 265.778 193.323 267.972 192.152 269.75C190.054 272.946 188.788 274.686 188.788 274.686" stroke="white" stroke-width="0.5" stroke-miterlimit="10"/>
<path d="M214.752 54.6953C215.149 55.9253 215.753 57.8353 216.49 60.3513C217.114 62.4883 217.813 65.0413 218.569 68.0113C219.193 70.4133 219.835 73.0803 220.515 75.9933C221.082 78.6223 221.687 81.4593 222.273 84.4473C222.84 87.2853 223.369 90.2733 223.879 93.3943C224.351 96.3633 224.805 99.4463 225.202 102.662C225.58 105.499 225.92 108.431 226.184 111.438C226.449 114.124 226.676 116.867 226.865 119.666C226.959 121.16 227.054 122.692 227.129 124.224C227.243 126.418 227.318 128.631 227.356 130.863C227.413 133.095 227.432 135.384 227.413 137.691C227.413 139.98 227.356 142.306 227.28 144.633C227.186 146.959 227.073 149.323 226.902 151.688C226.77 154.033 226.581 156.397 226.336 158.781C226.317 159.045 226.279 159.329 226.26 159.594C226.128 160.861 225.976 162.147 225.806 163.433C225.447 166.271 224.975 169.127 224.446 171.964C223.917 174.858 223.312 177.714 222.613 180.589C221.933 183.483 221.196 186.395 220.383 189.27C219.552 192.202 218.664 195.134 217.719 198.028C216.774 200.978 215.753 203.929 214.714 206.823C213.637 209.83 212.503 212.762 211.351 215.675C210.141 218.72 208.875 221.708 207.628 224.602C206.513 227.194 205.379 229.728 204.227 232.187C203.697 233.341 203.149 234.494 202.62 235.61C201.827 237.256 201.052 238.883 200.277 240.452C199.257 242.552 198.236 244.557 197.254 246.486C196.101 248.699 194.986 250.817 193.909 252.822C192.662 255.092 191.509 257.229 190.375 259.215C189.053 261.58 187.805 263.736 186.672 265.684C185.141 268.275 183.818 270.45 182.76 272.191C180.87 275.217 179.774 276.862 179.774 276.862" stroke="white" stroke-width="0.5" stroke-miterlimit="10"/>
<path d="M203.66 58.875C204.056 60.199 204.586 62.09 205.19 64.455C205.776 66.649 206.437 69.297 207.118 72.304C207.685 74.801 208.289 77.543 208.894 80.532C209.442 83.237 209.99 86.149 210.519 89.214C211.029 92.126 211.521 95.172 211.955 98.368C212.39 101.243 212.768 104.231 213.108 107.352C213.41 110.076 213.694 112.875 213.958 115.75C214.185 118.323 214.374 120.952 214.525 123.619C214.62 125.17 214.695 126.777 214.771 128.385C214.865 130.484 214.922 132.622 214.96 134.797C215.016 136.972 215.035 139.185 214.998 141.398C214.998 143.611 214.96 145.843 214.884 148.094C214.809 150.344 214.714 152.595 214.563 154.865C214.431 157.116 214.279 159.385 214.053 161.655C214.053 161.788 214.034 161.939 214.015 162.09C213.883 163.66 213.694 165.211 213.486 166.781C213.146 169.542 212.73 172.323 212.239 175.084C211.747 177.921 211.162 180.759 210.538 183.615C209.896 186.509 209.177 189.384 208.403 192.259C207.609 195.209 206.796 198.122 205.889 201.016C204.982 203.985 204.019 206.936 203.017 209.83C201.997 212.818 200.92 215.788 199.824 218.701C198.671 221.765 197.499 224.753 196.309 227.685C195.213 230.352 194.117 232.943 193.002 235.478C192.53 236.575 192.038 237.672 191.566 238.75C190.904 240.263 190.224 241.738 189.544 243.195C188.637 245.162 187.749 247.11 186.842 248.964C185.783 251.176 184.744 253.295 183.743 255.3C182.609 257.57 181.494 259.726 180.436 261.731C179.208 264.076 178.074 266.213 176.997 268.161C175.617 270.696 174.408 272.871 173.387 274.611C171.838 277.316 170.817 279.018 170.477 279.567C170.421 279.68 170.383 279.737 170.383 279.737" stroke="white" stroke-width="0.5" stroke-miterlimit="10"/>
<path d="M192.53 63.0547C192.889 64.4727 193.342 66.3457 193.871 68.6337C194.4 70.9227 195.005 73.6087 195.629 76.6917C196.158 79.2637 196.706 82.1007 197.254 85.1647C197.745 87.9837 198.255 90.9527 198.728 94.1307C199.181 97.0247 199.616 100.051 199.994 103.21C200.353 105.99 200.674 108.865 200.976 111.835C201.241 114.445 201.487 117.131 201.695 119.854C201.902 122.313 202.054 124.848 202.186 127.401C202.28 129.047 202.356 130.711 202.413 132.394C202.488 134.418 202.564 136.48 202.602 138.579C202.62 140.698 202.658 142.835 202.62 144.991C202.62 147.148 202.583 149.304 202.526 151.479C202.469 153.654 202.375 155.81 202.261 157.985C202.129 160.142 201.997 162.317 201.827 164.492C201.827 164.53 201.827 164.549 201.827 164.587C201.676 166.383 201.506 168.199 201.279 170.015C200.976 172.757 200.58 175.5 200.107 178.28C199.635 181.099 199.125 183.917 198.52 186.735C197.934 189.61 197.273 192.485 196.536 195.322C195.818 198.235 195.043 201.129 194.23 204.023C193.38 206.973 192.492 209.905 191.566 212.78C190.621 215.769 189.639 218.719 188.618 221.613C187.56 224.658 186.464 227.647 185.33 230.56C184.329 233.264 183.289 235.893 182.231 238.447C181.815 239.506 181.362 240.546 180.946 241.587C180.36 243.005 179.775 244.405 179.17 245.767C178.376 247.639 177.601 249.436 176.827 251.195C175.844 253.389 174.88 255.507 173.954 257.531C172.896 259.82 171.876 261.995 170.874 264.019C169.74 266.383 168.682 268.539 167.719 270.469C166.434 273.022 165.3 275.178 164.393 276.9C162.787 279.907 161.861 281.552 161.861 281.552" stroke="white" stroke-width="0.5" stroke-miterlimit="10"/>
<path d="M181.305 67.2539C181.645 68.7289 182.061 70.6209 182.496 72.8529C182.987 75.2359 183.535 78.0349 184.083 81.1559C184.555 83.8419 185.047 86.7729 185.557 89.9319C185.991 92.7689 186.445 95.7959 186.88 98.9539C187.239 101.772 187.617 104.723 187.938 107.787C188.259 110.454 188.524 113.197 188.769 116.034C188.996 118.531 189.185 121.084 189.374 123.694C189.544 126.058 189.695 128.461 189.808 130.9C189.884 132.603 189.96 134.324 190.016 136.045C190.092 138.031 190.13 140.036 190.168 142.079C190.224 144.14 190.243 146.24 190.224 148.339C190.224 150.439 190.186 152.538 190.149 154.638C190.092 156.718 190.016 158.837 189.922 160.955C189.827 162.998 189.714 165.003 189.582 167.046C189.582 167.102 189.582 167.159 189.582 167.216C189.449 169.126 189.261 171.037 189.053 172.985C188.769 175.689 188.391 178.413 187.957 181.156C187.522 183.955 187.012 186.754 186.464 189.554C185.897 192.429 185.273 195.285 184.574 198.141C183.875 201.054 183.138 203.966 182.344 206.841C181.532 209.792 180.7 212.724 179.793 215.617C178.886 218.587 177.923 221.557 176.959 224.45C175.92 227.515 174.88 230.503 173.822 233.435C172.821 236.14 171.819 238.787 170.836 241.341C170.44 242.381 170.024 243.421 169.608 244.405C169.06 245.748 168.55 247.072 168.021 248.358C167.284 250.136 166.585 251.838 165.867 253.484C164.959 255.64 164.071 257.702 163.202 259.688C162.163 262.052 161.142 264.303 160.179 266.383C159.064 268.804 158.006 271.017 157.061 272.985C155.833 275.576 154.718 277.751 153.867 279.472C152.412 282.347 151.543 283.936 151.543 283.936" stroke="white" stroke-width="0.5" stroke-miterlimit="10"/>
<path d="M170.062 71.4727C170.364 73.0237 170.742 74.9527 171.101 77.2037C171.555 79.6807 172.027 82.5557 172.518 85.7717C172.934 88.4957 173.388 91.5027 173.803 94.7177C174.2 97.5367 174.578 100.525 174.937 103.646C175.239 106.351 175.542 109.188 175.825 112.119C176.071 114.673 176.316 117.302 176.524 119.988C176.713 122.371 176.883 124.83 177.035 127.289C177.205 129.54 177.318 131.847 177.431 134.173C177.488 135.895 177.564 137.635 177.62 139.394C177.696 141.361 177.753 143.328 177.79 145.333C177.809 147.376 177.847 149.418 177.847 151.48C177.847 153.523 177.828 155.566 177.79 157.627C177.734 159.67 177.696 161.732 177.62 163.793C177.545 165.704 177.469 167.614 177.356 169.505C177.356 169.638 177.356 169.77 177.337 169.922C177.223 171.889 177.053 173.856 176.864 175.861C176.619 178.527 176.279 181.213 175.92 183.899C175.542 186.642 175.088 189.403 174.597 192.165C174.087 194.983 173.539 197.82 172.915 200.638C172.292 203.513 171.63 206.407 170.912 209.263C170.175 212.195 169.4 215.108 168.607 217.983C167.794 220.952 166.925 223.884 166.056 226.778C165.111 229.88 164.147 232.944 163.146 235.913C162.276 238.599 161.369 241.228 160.462 243.744C160.103 244.765 159.763 245.749 159.404 246.751C158.951 248.019 158.497 249.305 158.025 250.534C157.401 252.18 156.796 253.825 156.192 255.376C155.398 257.476 154.623 259.5 153.848 261.391C152.904 263.774 151.978 266.025 151.127 268.105C150.107 270.583 149.124 272.853 148.274 274.877C147.121 277.506 146.139 279.719 145.364 281.421C144.117 284.145 143.399 285.639 143.399 285.639" stroke="white" stroke-width="0.5" stroke-miterlimit="10"/>
<path d="M158.799 75.6895C159.083 77.3355 159.385 79.3214 159.725 81.6104C160.103 84.2014 160.538 87.1705 160.953 90.4805C161.331 93.2425 161.709 96.2495 162.049 99.4465C162.352 102.188 162.673 105.082 162.975 108.127C163.221 110.719 163.485 113.423 163.712 116.204C163.92 118.644 164.109 121.14 164.298 123.694C164.449 125.983 164.6 128.309 164.752 130.673C164.865 132.848 164.978 135.042 165.073 137.255C165.13 138.958 165.186 140.66 165.243 142.381C165.337 144.329 165.356 146.296 165.394 148.282C165.432 150.268 165.451 152.292 165.47 154.335C165.489 156.359 165.47 158.364 165.47 160.388C165.432 162.411 165.394 164.416 165.356 166.44C165.318 168.294 165.243 170.128 165.167 172.001C165.167 172.171 165.167 172.36 165.129 172.549C165.035 174.573 164.903 176.616 164.733 178.659C164.525 181.269 164.241 183.898 163.92 186.546C163.58 189.232 163.202 191.974 162.749 194.679C162.314 197.46 161.823 200.24 161.293 203.02C160.745 205.876 160.141 208.732 159.517 211.551C158.875 214.463 158.194 217.338 157.495 220.195C156.777 223.145 156.021 226.077 155.228 228.952C154.358 232.129 153.451 235.231 152.563 238.296C151.77 240.944 150.995 243.497 150.201 246.013C149.88 247.015 149.559 248.017 149.256 249.001C148.841 250.23 148.444 251.441 148.047 252.633C147.556 254.202 147.027 255.716 146.516 257.21C145.836 259.215 145.137 261.144 144.494 262.998C143.663 265.362 142.832 267.594 142.057 269.655C141.112 272.19 140.262 274.497 139.449 276.578C138.41 279.302 137.484 281.59 136.766 283.33C135.689 285.978 135.084 287.435 135.084 287.435" stroke="white" stroke-width="0.5" stroke-miterlimit="10"/>
<path d="M147.461 79.9258C147.688 81.6848 147.953 83.7838 148.255 86.1858C148.576 88.8338 148.916 91.8608 149.294 95.1898C149.578 97.9508 149.88 100.883 150.183 104.023C150.428 106.671 150.674 109.451 150.92 112.345C151.127 114.823 151.316 117.395 151.524 120.024C151.694 122.332 151.845 124.734 151.978 127.155C152.129 129.33 152.242 131.562 152.375 133.813C152.469 135.874 152.582 137.974 152.658 140.092C152.715 141.681 152.771 143.289 152.828 144.915C152.885 146.882 152.941 148.868 152.979 150.892C153.036 152.859 153.055 154.883 153.074 156.869C153.093 158.855 153.093 160.879 153.074 162.884C153.074 164.908 153.074 166.931 153.036 168.955C152.998 170.79 152.96 172.625 152.904 174.459C152.904 174.649 152.904 174.857 152.885 175.065C152.828 177.145 152.715 179.245 152.564 181.401C152.393 183.954 152.167 186.527 151.921 189.118C151.638 191.766 151.316 194.433 150.957 197.119C150.598 199.861 150.183 202.585 149.729 205.327C149.294 208.127 148.803 210.926 148.293 213.688C147.745 216.581 147.178 219.437 146.592 222.256C145.969 225.169 145.326 228.062 144.665 230.918C143.909 234.172 143.134 237.368 142.341 240.489C141.698 243.043 141.037 245.577 140.375 248.017C140.111 249 139.846 250.003 139.582 250.987C139.26 252.178 138.939 253.351 138.599 254.486C138.202 255.961 137.786 257.417 137.371 258.817C136.823 260.727 136.275 262.581 135.727 264.34C135.028 266.666 134.366 268.861 133.724 270.903C132.911 273.476 132.155 275.821 131.456 277.92C130.53 280.739 129.737 283.084 129.113 284.862C128.3 287.226 127.79 288.626 127.677 288.891C127.677 288.91 127.677 288.929 127.677 288.929" stroke="white" stroke-width="0.5" stroke-miterlimit="10"/>
<path d="M136.105 84.2012C136.293 86.0932 136.52 88.3242 136.766 90.8402C137.012 93.5072 137.276 96.5142 137.579 99.7872C137.805 102.472 138.013 105.347 138.259 108.374C138.448 110.908 138.656 113.556 138.826 116.28C138.996 118.625 139.147 121.065 139.317 123.562C139.43 125.794 139.563 128.044 139.695 130.333C139.808 132.414 139.903 134.532 139.997 136.688C140.092 138.655 140.186 140.66 140.243 142.665C140.318 144.197 140.356 145.729 140.413 147.261C140.47 149.228 140.526 151.233 140.564 153.257C140.621 155.243 140.659 157.267 140.678 159.272C140.696 161.277 140.715 163.282 140.715 165.306C140.734 167.329 140.715 169.353 140.715 171.396C140.715 173.231 140.696 175.065 140.659 176.9C140.659 177.089 140.659 177.278 140.659 177.486C140.602 179.624 140.545 181.818 140.413 184.012C140.3 186.508 140.111 189.062 139.884 191.634C139.657 194.207 139.411 196.836 139.09 199.446C138.788 202.113 138.467 204.818 138.07 207.503C137.692 210.246 137.276 213.007 136.804 215.75C136.331 218.568 135.84 221.386 135.311 224.186C134.782 227.098 134.215 229.955 133.629 232.773C132.93 236.121 132.212 239.431 131.494 242.627C130.927 245.162 130.322 247.602 129.755 250.004C129.51 251.006 129.283 251.99 129.037 252.973C128.773 254.127 128.47 255.243 128.187 256.359C127.828 257.777 127.469 259.158 127.11 260.52C126.656 262.336 126.184 264.095 125.73 265.778C125.107 268.048 124.521 270.185 123.954 272.209C123.217 274.8 122.537 277.184 121.913 279.302C121.044 282.234 120.307 284.674 119.74 286.508C118.928 289.118 118.436 290.556 118.436 290.556" stroke="white" stroke-width="0.5" stroke-miterlimit="10"/>
<path d="M124.691 88.1543C124.842 90.2163 125.031 92.7133 125.201 95.4933C125.39 98.1223 125.579 101.073 125.787 104.269C125.957 106.86 126.127 109.584 126.297 112.478C126.448 114.88 126.581 117.377 126.732 119.949C126.845 122.181 126.958 124.489 127.091 126.834C127.185 128.933 127.28 131.09 127.374 133.284C127.469 135.27 127.544 137.294 127.639 139.336C127.714 141.228 127.771 143.138 127.866 145.086C127.903 146.581 127.96 148.113 127.998 149.645C128.055 151.631 128.111 153.635 128.168 155.678C128.225 157.664 128.262 159.688 128.3 161.693C128.319 163.717 128.376 165.741 128.395 167.746C128.414 169.788 128.451 171.812 128.451 173.836C128.451 175.69 128.47 177.562 128.47 179.416C128.47 179.586 128.47 179.756 128.47 179.945C128.47 182.158 128.414 184.39 128.319 186.66C128.243 189.119 128.111 191.615 127.922 194.131C127.771 196.666 127.563 199.219 127.299 201.791C127.072 204.401 126.788 207.031 126.448 209.679C126.165 212.383 125.806 215.088 125.428 217.793C125.031 220.554 124.615 223.335 124.162 226.077C123.727 228.952 123.255 231.789 122.763 234.57C122.159 238.012 121.535 241.398 120.874 244.67C120.401 247.129 119.891 249.512 119.419 251.857C119.192 252.86 119.003 253.862 118.795 254.846C118.531 255.962 118.304 257.078 118.077 258.156C117.775 259.518 117.472 260.842 117.189 262.128C116.792 263.849 116.414 265.513 116.036 267.121C115.526 269.315 115.035 271.377 114.562 273.325C113.92 275.916 113.315 278.3 112.786 280.418C112.011 283.387 111.35 285.884 110.84 287.794C110.065 290.613 109.63 292.164 109.63 292.164" stroke="white" stroke-width="0.5" stroke-miterlimit="10"/>
<path d="M113.183 91.9746C113.296 94.2436 113.429 96.9676 113.561 100.051C113.693 102.623 113.807 105.46 113.939 108.525C114.052 110.983 114.147 113.556 114.279 116.261C114.373 118.53 114.449 120.876 114.543 123.316C114.619 125.434 114.714 127.609 114.789 129.841C114.865 131.846 114.94 133.889 115.016 135.969C115.073 137.861 115.129 139.79 115.205 141.738C115.28 143.611 115.337 145.483 115.394 147.393C115.45 148.926 115.488 150.458 115.526 152.009C115.583 153.995 115.639 156.018 115.696 158.042C115.753 160.047 115.81 162.052 115.866 164.076C115.923 166.081 115.98 168.105 115.999 170.128C116.055 172.152 116.093 174.214 116.131 176.238C116.169 178.11 116.187 180.002 116.225 181.874C116.225 182.025 116.225 182.177 116.225 182.328C116.263 184.598 116.225 186.905 116.206 189.232C116.15 191.653 116.074 194.074 115.923 196.552C115.828 199.029 115.658 201.564 115.469 204.098C115.28 206.671 115.073 209.243 114.827 211.834C114.581 214.501 114.298 217.149 113.995 219.778C113.693 222.502 113.353 225.226 113.013 227.912C112.635 230.73 112.257 233.51 111.822 236.253C111.312 239.752 110.764 243.194 110.235 246.542C109.838 248.925 109.423 251.252 109.026 253.54C108.856 254.543 108.686 255.545 108.497 256.548C108.289 257.645 108.081 258.742 107.911 259.801C107.665 261.087 107.438 262.354 107.193 263.584C106.871 265.21 106.55 266.799 106.248 268.331C105.832 270.431 105.416 272.417 105.02 274.308C104.491 276.862 103.999 279.226 103.527 281.325C102.865 284.371 102.28 286.924 101.826 288.853C101.184 291.615 100.806 293.128 100.806 293.128" stroke="white" stroke-width="0.5" stroke-miterlimit="10"/>
<path d="M101.713 95.7949C101.769 98.2159 101.826 101.11 101.902 104.401C101.958 106.879 102.015 109.546 102.072 112.439C102.128 114.747 102.185 117.187 102.242 119.721C102.28 121.859 102.355 124.11 102.412 126.379C102.45 128.384 102.506 130.465 102.563 132.564C102.601 134.475 102.658 136.404 102.714 138.409C102.771 140.262 102.828 142.135 102.865 144.045C102.922 145.899 102.979 147.771 103.017 149.644C103.054 151.214 103.092 152.784 103.13 154.354C103.187 156.358 103.243 158.363 103.319 160.387C103.357 162.392 103.413 164.416 103.489 166.421C103.527 168.426 103.602 170.45 103.659 172.492C103.735 174.535 103.791 176.559 103.848 178.583C103.886 180.493 103.961 182.403 104.018 184.314C104.018 184.427 104.018 184.56 104.018 184.673C104.094 186.981 104.132 189.345 104.094 191.728C104.094 194.092 104.056 196.495 103.999 198.934C103.943 201.374 103.829 203.833 103.716 206.311C103.583 208.808 103.432 211.342 103.243 213.877C103.073 216.468 102.847 219.078 102.62 221.669C102.393 224.336 102.128 227.003 101.845 229.651C101.562 232.413 101.259 235.136 100.919 237.841C100.503 241.416 100.031 244.896 99.5774 248.301C99.2562 250.608 98.9349 252.878 98.6137 255.091C98.4436 256.093 98.3113 257.115 98.1602 258.098C97.9901 259.195 97.82 260.273 97.6688 261.314C97.4799 262.562 97.272 263.773 97.0831 264.964C96.8374 266.515 96.5918 268.009 96.3461 269.466C96.006 271.471 95.6847 273.381 95.3635 275.178C94.9288 277.694 94.4943 280.001 94.1163 282.082C93.5494 285.146 93.0581 287.718 92.6613 289.685C92.0755 292.579 91.7354 294.206 91.7354 294.206" stroke="white" stroke-width="0.5" stroke-miterlimit="10"/>
<path d="M90.2048 99.6172C90.1859 102.114 90.167 105.121 90.1859 108.507C90.1859 110.833 90.1859 113.33 90.1859 115.997C90.1859 118.172 90.1859 120.461 90.1859 122.825C90.1859 124.868 90.2237 126.967 90.2426 129.142C90.2426 131.072 90.2426 133.02 90.2992 135.025C90.2992 136.878 90.337 138.789 90.3559 140.699C90.3937 142.534 90.4127 144.406 90.4504 146.298C90.4882 148.132 90.5071 150.024 90.5638 151.896C90.5827 153.485 90.6394 155.093 90.6772 156.7C90.715 158.705 90.7717 160.748 90.8283 162.772C90.885 164.777 90.9417 166.782 91.0173 168.806C91.074 170.829 91.1496 172.834 91.2252 174.858C91.3196 176.901 91.3952 178.944 91.4708 180.968C91.5653 182.916 91.6409 184.883 91.7354 186.812C91.7354 186.888 91.7354 186.982 91.7354 187.058C91.8488 189.403 91.9244 191.805 91.9621 194.264C92.0188 196.572 92.0377 198.936 91.9999 201.338C91.9999 203.721 91.9621 206.161 91.8865 208.582C91.811 211.041 91.7354 213.519 91.6031 215.997C91.5086 218.531 91.3763 221.085 91.2252 223.6C91.074 226.229 90.885 228.821 90.6961 231.412C90.5071 234.117 90.2804 236.821 90.0347 239.45C89.7513 243.025 89.4111 246.543 89.0521 249.948C88.8253 252.199 88.5796 254.393 88.334 256.549C88.2395 257.57 88.1072 258.592 87.9939 259.575C87.8616 260.653 87.7482 261.694 87.616 262.734C87.4837 263.925 87.3325 265.117 87.2002 266.252C87.0113 267.727 86.8223 269.165 86.6522 270.545C86.4066 272.437 86.1798 274.253 85.9341 275.974C85.6129 278.395 85.2917 280.665 84.9893 282.707C84.5547 285.771 84.1579 288.363 83.8555 290.368C83.3453 293.602 83.043 295.399 83.043 295.399" stroke="white" stroke-width="0.5" stroke-miterlimit="10"/>
<path d="M78.6589 103.455C78.5833 105.952 78.5077 108.902 78.4132 112.231C78.3754 114.388 78.3188 116.733 78.2621 119.192C78.2243 121.235 78.2054 123.372 78.1676 125.604C78.1298 127.533 78.1109 129.538 78.1109 131.6C78.1109 133.453 78.092 135.326 78.1109 137.274C78.1109 139.109 78.1109 140.981 78.1109 142.891C78.1109 144.726 78.1109 146.561 78.1487 148.433C78.1865 150.268 78.1865 152.159 78.2432 154.051C78.2432 155.677 78.281 157.323 78.3188 159.006C78.3566 161.011 78.4132 163.054 78.4699 165.078C78.5266 167.083 78.6022 169.107 78.6589 171.13C78.7345 173.154 78.829 175.178 78.9045 177.202C78.999 179.245 79.0935 181.287 79.2069 183.292C79.3203 185.297 79.4337 187.264 79.5659 189.25C79.5659 189.288 79.5659 189.326 79.5659 189.364C79.736 191.747 79.8494 194.187 79.9439 196.702C80.0384 198.972 80.0951 201.318 80.114 203.644C80.1517 206.008 80.1706 208.392 80.1895 210.756C80.1706 213.158 80.1517 215.579 80.114 218C80.0762 220.497 80.0006 222.955 79.925 225.433C79.8494 227.987 79.736 230.54 79.6604 233.075C79.5281 235.723 79.3958 238.352 79.2447 240.943C79.0557 244.518 78.829 248.017 78.5833 251.421C78.4511 253.597 78.281 255.772 78.1109 257.852C78.0542 258.874 77.9597 259.895 77.8841 260.898C77.8085 261.976 77.7141 262.997 77.6385 264.037C77.544 265.21 77.4495 266.345 77.3362 267.461C77.2039 268.842 77.0905 270.203 76.9582 271.508C76.807 273.286 76.6369 275.008 76.4669 276.634C76.2401 278.98 76.0134 281.174 75.8244 283.16C75.4843 286.186 75.2197 288.777 74.9741 290.801C74.6151 294.035 74.3694 295.87 74.3694 295.87" stroke="white" stroke-width="0.5" stroke-miterlimit="10"/>
<path d="M67.1132 107.314C66.962 109.679 66.8297 112.459 66.6786 115.542C66.5652 117.585 66.4896 119.741 66.3951 122.049C66.3195 123.978 66.2628 126.04 66.1872 128.139C66.1494 129.993 66.0928 131.903 66.0361 133.87C65.9794 135.686 65.9605 137.558 65.9227 139.45C65.8849 141.284 65.866 143.138 65.8471 145.03C65.8471 146.864 65.8471 148.718 65.8093 150.609C65.8093 152.444 65.8093 154.335 65.8471 156.246C65.866 157.929 65.8849 159.631 65.9038 161.334C65.9227 163.376 65.9794 165.4 66.0172 167.424C66.0739 169.448 66.1495 171.472 66.244 173.495C66.3007 175.519 66.414 177.543 66.5085 179.567C66.603 181.61 66.7353 183.652 66.8675 185.676C66.9998 187.7 67.151 189.724 67.321 191.729C67.5289 194.15 67.699 196.628 67.8501 199.143C67.9824 201.394 68.0958 203.683 68.1903 205.99C68.2848 208.279 68.3604 210.605 68.4171 212.951C68.4737 215.296 68.5304 217.679 68.5682 220.062C68.5871 222.483 68.606 224.923 68.606 227.344C68.606 229.841 68.606 232.319 68.5871 234.797C68.5682 237.369 68.5115 239.941 68.4548 242.476C68.417 245.994 68.3225 249.474 68.2092 252.841C68.1336 254.997 68.0769 257.078 68.0013 259.12C67.9635 260.142 67.9258 261.163 67.888 262.185C67.8313 263.225 67.7935 264.284 67.7746 265.305C67.7179 266.44 67.6612 267.556 67.6234 268.634C67.5667 269.958 67.4911 271.244 67.4344 272.474C67.3399 274.157 67.2455 275.784 67.1699 277.316C67.0376 279.567 66.9242 281.647 66.8108 283.558C66.603 286.565 66.4329 289.1 66.3195 291.123C66.0739 294.396 65.9227 296.249 65.9227 296.249" stroke="white" stroke-width="0.5" stroke-miterlimit="10"/>
<path d="M55.5296 111.154C55.3406 113.292 55.1517 115.732 54.9627 118.398C54.8115 120.347 54.6792 122.408 54.547 124.583C54.4525 126.456 54.3202 128.385 54.2257 130.409C54.1312 132.206 54.0368 134.097 53.9612 136.008C53.8667 137.804 53.81 139.677 53.7533 141.55C53.6777 143.384 53.6399 145.238 53.5832 147.129C53.5454 148.964 53.5077 150.836 53.4888 152.728C53.4699 154.6 53.4509 156.492 53.4509 158.383C53.4509 160.104 53.451 161.863 53.4888 163.604C53.4888 165.646 53.5454 167.67 53.5832 169.713C53.621 171.737 53.6966 173.779 53.7722 175.803C53.8667 177.827 53.98 179.851 54.0934 181.856C54.1879 183.899 54.3391 185.922 54.5091 187.946C54.6603 189.97 54.8493 191.994 55.0571 193.999C55.0571 194.056 55.0571 194.112 55.0571 194.169C55.3028 196.571 55.5484 199.03 55.7374 201.527C55.9264 203.721 56.0964 205.953 56.2287 208.241C56.361 210.492 56.4933 212.762 56.6255 215.069C56.7389 217.377 56.8334 219.684 56.909 222.011C57.0224 224.375 57.0791 226.739 57.1546 229.123C57.2113 231.581 57.268 233.984 57.3058 236.405C57.3625 238.92 57.4003 241.417 57.4192 243.876C57.457 247.337 57.457 250.742 57.457 254.033C57.457 256.132 57.457 258.194 57.4381 260.218C57.4381 261.258 57.4381 262.279 57.4381 263.282C57.4381 264.341 57.4192 265.381 57.4192 266.403C57.3814 267.5 57.3814 268.597 57.3625 269.656C57.3436 270.904 57.3058 272.134 57.3058 273.325C57.268 274.895 57.2302 276.371 57.2113 277.827C57.1546 279.945 57.1169 281.912 57.0602 283.766C56.9846 286.679 56.8712 289.175 56.8334 291.199C56.7012 294.509 56.6256 296.457 56.6067 296.609" stroke="white" stroke-width="0.5" stroke-miterlimit="10"/>
<path d="M43.965 114.615C43.7572 116.507 43.5304 118.625 43.3226 120.952C43.1525 122.805 42.9446 124.81 42.7745 126.891C42.6234 128.687 42.4722 130.56 42.3399 132.508C42.1887 134.305 42.0565 136.14 41.9431 138.05C41.8297 139.866 41.7352 141.701 41.6407 143.611C41.5463 145.427 41.4518 147.318 41.3951 149.209C41.3006 151.044 41.2439 152.955 41.1872 154.846C41.1494 156.737 41.1116 158.629 41.0927 160.558C41.0927 162.355 41.0549 164.133 41.0927 165.949C41.0927 167.991 41.1305 170.015 41.1683 172.077C41.1872 174.12 41.2628 176.162 41.3573 178.167C41.4518 180.21 41.5463 182.253 41.6786 184.258C41.8108 186.319 41.962 188.343 42.151 190.348C42.34 192.391 42.5478 194.415 42.7935 196.401C42.8124 196.514 42.7934 196.609 42.8312 196.722C43.1336 199.067 43.3982 201.507 43.6816 203.966C43.9084 206.141 44.1351 208.336 44.3429 210.567C44.5508 212.78 44.7587 215.012 44.9476 217.263C45.1555 219.514 45.3256 221.784 45.4957 224.072C45.6846 226.361 45.8358 228.687 45.987 230.995C46.1759 233.359 46.3082 235.742 46.4783 238.088C46.6105 240.546 46.7806 242.949 46.894 245.351C47.1018 248.699 47.2719 251.971 47.4231 255.148C47.5365 257.229 47.6309 259.272 47.7065 261.258C47.7632 262.279 47.801 263.319 47.8388 264.322C47.8766 265.381 47.9144 266.421 47.9711 267.424C48.0089 268.521 48.0656 269.58 48.1034 270.639C48.1412 271.831 48.179 272.984 48.2168 274.138C48.2735 275.595 48.3113 277.013 48.3491 278.356C48.4246 280.342 48.4813 282.215 48.538 283.936C48.5947 286.792 48.6702 289.232 48.708 291.199C48.7836 294.471 48.8215 296.325 48.8215 296.325" stroke="white" stroke-width="0.5" stroke-miterlimit="10"/>
<path d="M32.5891 116.752C32.3246 118.662 32.0412 120.856 31.7388 123.277C31.5121 125.055 31.2853 126.928 31.0774 128.933C30.8696 130.711 30.6617 132.564 30.4727 134.494C30.3216 136.271 30.1326 138.106 29.9815 139.998C29.8303 141.813 29.6791 143.667 29.5468 145.577C29.4335 147.431 29.3012 149.303 29.1878 151.214C29.0933 153.086 28.9989 154.978 28.9233 156.888C28.8477 158.779 28.7909 160.709 28.7532 162.619C28.6965 164.435 28.6776 166.288 28.6587 168.142C28.6587 170.185 28.6587 172.228 28.7343 174.289C28.7721 176.332 28.8099 178.394 28.9233 180.436C29.0178 182.479 29.1311 184.503 29.2823 186.527C29.4145 188.588 29.5846 190.631 29.8114 192.636C30.0192 194.679 30.2649 196.684 30.5483 198.67C30.5861 198.84 30.5862 198.991 30.6239 199.161C30.9641 201.488 31.2853 203.871 31.6255 206.311C31.9278 208.448 32.1923 210.605 32.4947 212.799C32.7592 214.955 33.0427 217.168 33.3072 219.362C33.5529 221.575 33.8363 223.788 34.0631 226.02C34.3276 228.271 34.5733 230.54 34.819 232.791C35.0646 235.118 35.3103 237.406 35.5559 239.695C35.8016 242.078 36.0472 244.442 36.2551 246.769C36.5952 249.965 36.8787 253.105 37.1621 256.131C37.37 258.193 37.5401 260.198 37.729 262.165C37.8235 263.224 37.918 264.246 38.0125 265.248C38.107 266.307 38.2015 267.329 38.2959 268.35C38.3904 269.428 38.466 270.468 38.5605 271.49C38.655 272.643 38.7683 273.778 38.8628 274.875C38.9762 276.237 39.0896 277.542 39.2029 278.791C39.3541 280.644 39.5053 282.384 39.6187 283.992C39.8454 286.735 40.0344 289.08 40.1667 290.99C40.4312 294.225 40.5635 296.154 40.5824 296.4" stroke="white" stroke-width="0.5" stroke-miterlimit="10"/>
<path d="M21.3078 118.738C20.9866 120.611 20.6276 122.824 20.2685 125.302C20.004 127.023 19.7206 128.857 19.4749 130.825C19.2482 132.584 19.0025 134.418 18.7568 136.348C18.549 138.144 18.3222 139.979 18.1144 141.908C17.9254 143.705 17.7364 145.597 17.5664 147.507C17.3963 149.361 17.2262 151.252 17.0939 153.2C16.9617 155.073 16.8483 156.983 16.7349 158.912C16.6215 160.823 16.527 162.752 16.4703 164.719C16.4136 166.573 16.357 168.464 16.3381 170.355C16.3003 172.398 16.3381 174.46 16.3381 176.503C16.3381 178.564 16.4137 180.626 16.5081 182.669C16.6026 184.73 16.716 186.773 16.905 188.797C17.0372 190.877 17.2262 192.901 17.4718 194.925C17.7175 196.968 17.9821 199.011 18.3222 200.978C18.3411 201.205 18.3789 201.413 18.4167 201.64C18.7946 203.909 19.1915 206.274 19.5883 208.657C19.9284 210.756 20.2685 212.875 20.6087 215.05C20.9488 217.168 21.289 219.306 21.6291 221.462C21.9503 223.618 22.2905 225.774 22.6117 227.968C22.9329 230.181 23.2542 232.375 23.5944 234.569C23.9345 236.82 24.2557 239.071 24.577 241.284C24.9171 243.591 25.2383 245.899 25.5596 248.15C25.9942 251.157 26.4099 254.108 26.8067 256.983C27.0902 259.026 27.3736 261.049 27.6382 262.998C27.7894 264.038 27.9406 265.078 28.0728 266.099C28.2051 267.159 28.3563 268.18 28.5075 269.201C28.6397 270.28 28.772 271.301 28.9232 272.322C29.0744 273.457 29.2066 274.535 29.3389 275.594C29.5089 276.862 29.679 278.091 29.8302 279.264C30.057 280.947 30.2649 282.536 30.4538 283.992C30.8129 286.603 31.0963 288.853 31.323 290.65C31.7388 293.903 31.9844 295.738 31.9844 295.738" stroke="white" stroke-width="0.5" stroke-miterlimit="10"/>
<path d="M10.1401 120.592C9.78108 122.389 9.34645 124.583 8.89293 127.117C8.59059 128.801 8.26934 130.654 7.9481 132.621C7.64576 134.361 7.36227 136.234 7.07882 138.163C6.81427 139.96 6.53087 141.814 6.30411 143.743C6.05846 145.578 5.83165 147.488 5.60489 149.398C5.39703 151.29 5.20807 153.181 5.0191 155.148C4.84903 157.04 4.67896 158.988 4.54669 160.936C4.39552 162.865 4.28215 164.832 4.20656 166.799C4.11208 168.672 4.03652 170.544 3.99873 172.436C3.94204 174.497 3.90423 176.578 3.92313 178.659C3.92313 180.739 3.99873 182.82 4.05542 184.881C4.1499 186.962 4.28216 189.005 4.45223 191.066C4.6223 193.147 4.83013 195.19 5.07579 197.214C5.34034 199.256 5.64269 201.28 6.02062 203.266C6.07731 203.55 6.11513 203.834 6.17182 204.098C6.60644 206.33 7.04107 208.619 7.47569 210.945C7.87252 213.007 8.26935 215.106 8.66618 217.225C9.06301 219.305 9.45979 221.405 9.85662 223.542C10.2534 225.642 10.6503 227.76 11.0471 229.897C11.4628 232.035 11.8597 234.191 12.2376 236.328C12.6344 238.522 13.0313 240.716 13.447 242.892C13.8627 245.123 14.2595 247.336 14.6374 249.53C15.1476 252.292 15.639 254.997 16.1114 257.645C16.4893 259.725 16.8484 261.768 17.2074 263.754C17.3964 264.794 17.5854 265.835 17.7554 266.837C17.9444 267.877 18.1333 268.918 18.3034 269.92C18.4923 270.979 18.6813 272.001 18.8514 273.003C19.0593 274.1 19.2482 275.159 19.4183 276.181C19.645 277.372 19.8529 278.507 20.023 279.604C20.3064 281.117 20.5332 282.536 20.76 283.86C21.1946 286.243 21.5536 288.305 21.8371 290.007C22.3662 293.052 22.6874 294.849 22.7252 295.095" stroke="white" stroke-width="0.5" stroke-miterlimit="10"/>
<path d="M-0.876638 122.352C-1.29236 124.035 -1.80256 126.229 -2.35056 128.82C-2.7096 130.504 -3.10644 132.338 -3.48437 134.343C-3.82451 136.102 -4.1646 137.956 -4.50474 139.904C-4.82598 141.72 -5.14722 143.611 -5.44957 145.578C-5.75191 147.413 -6.03538 149.342 -6.29994 151.309C-6.56449 153.201 -6.81015 155.149 -7.01801 157.116C-7.24477 159.045 -7.43375 160.993 -7.62272 162.979C-7.81168 164.928 -7.96284 166.933 -8.07622 168.9C-8.20849 170.772 -8.30296 172.645 -8.35965 174.555C-8.43524 176.654 -8.47305 178.754 -8.49194 180.853C-8.49194 182.953 -8.45414 185.052 -8.35965 187.133C-8.28407 189.214 -8.15183 191.294 -7.98176 193.337C-7.81169 195.436 -7.5849 197.517 -7.30145 199.541C-6.99911 201.602 -6.64006 203.626 -6.22433 205.612C-6.16764 205.953 -6.11098 206.274 -6.0165 206.615C-5.54409 208.79 -5.03388 211.003 -4.54257 213.291C-4.07016 215.315 -3.6166 217.396 -3.14419 219.476C-2.67177 221.519 -2.21825 223.6 -1.72694 225.661C-1.27343 227.723 -0.801017 229.823 -0.309706 231.903C0.181604 233.984 0.672895 236.083 1.14531 238.183C1.65552 240.32 2.14685 242.457 2.63816 244.557C3.12947 246.732 3.63965 248.888 4.14986 251.007C4.71675 253.503 5.30255 255.924 5.86945 258.307C6.36076 260.426 6.85205 262.469 7.32446 264.473C7.57012 265.533 7.79689 266.554 8.04254 267.575C8.2882 268.635 8.53388 269.656 8.77954 270.658C9.02519 271.718 9.27082 272.739 9.51647 273.76C9.76213 274.839 10.0267 275.879 10.2723 276.881C10.5369 277.997 10.8014 279.094 11.0471 280.116C11.3683 281.458 11.6707 282.707 11.9541 283.898C12.4832 286.055 12.9179 287.908 13.2958 289.421C14.0139 292.372 14.4107 294.036 14.4107 294.036" stroke="white" stroke-width="0.5" stroke-miterlimit="10"/>
<path d="M-11.761 123.939C-12.1767 125.415 -12.7814 127.628 -13.4616 130.408C-13.8774 132.054 -14.312 133.926 -14.7844 135.95C-15.1812 137.69 -15.5969 139.582 -15.9938 141.568C-16.3717 143.383 -16.7496 145.294 -17.1087 147.299C-17.4488 149.171 -17.77 151.119 -18.1102 153.086C-18.4125 155.016 -18.7149 156.964 -18.9983 158.969C-19.2629 160.917 -19.5085 162.903 -19.7353 164.908C-19.9431 166.894 -20.1321 168.88 -20.3022 170.904C-20.4534 172.814 -20.5856 174.724 -20.6801 176.635C-20.7746 178.753 -20.8502 180.853 -20.8691 182.971C-20.9069 185.07 -20.8691 187.189 -20.8124 189.288C-20.7368 191.388 -20.6234 193.487 -20.4345 195.549C-20.2455 197.648 -19.9998 199.71 -19.6975 201.753C-19.3762 203.833 -18.9794 205.857 -18.5259 207.843C-18.4314 208.24 -18.3369 208.638 -18.2613 209.016C-17.7322 211.134 -17.1843 213.291 -16.6363 215.485C-16.126 217.49 -15.6158 219.532 -15.0867 221.575C-14.5576 223.599 -14.0285 225.642 -13.4805 227.684C-12.9514 229.727 -12.4034 231.77 -11.8554 233.831C-11.3074 235.893 -10.7594 237.955 -10.1925 239.997C-9.64448 242.097 -9.07761 244.159 -8.51072 246.201C-7.94382 248.301 -7.37688 250.4 -6.80998 252.443C-6.22419 254.58 -5.65728 256.68 -5.09039 258.723C-4.4857 260.879 -3.89994 262.978 -3.35194 265.021C-3.06849 266.061 -2.78502 267.083 -2.50157 268.104C-2.19922 269.163 -1.91579 270.185 -1.63234 271.187C-1.33 272.246 -1.02767 273.287 -0.763119 274.27C-0.441878 275.348 -0.158387 276.37 0.106165 277.353C0.427407 278.431 0.710839 279.472 0.975391 280.455C1.31553 281.628 1.63677 282.725 1.92022 283.765C2.41153 285.505 2.84614 287.018 3.20517 288.323C3.84765 290.555 4.3012 292.068 4.47127 292.693C4.52796 292.92 4.56573 292.995 4.56573 292.995" stroke="white" stroke-width="0.5" stroke-miterlimit="10"/>
<path d="M313.279 88.5889C311.257 88.3809 309.31 88.0029 307.421 87.5109C303.264 86.3949 299.39 84.6169 295.799 82.3849C292.908 80.5879 290.225 78.5079 287.749 76.2379C285.501 74.2139 283.403 72.0389 281.457 69.7689C279.605 67.6319 277.867 65.3999 276.279 63.2059C274.673 60.9359 273.199 58.6859 271.895 56.5289C270.478 54.2029 269.212 51.9709 268.116 49.8719C266.793 47.3369 265.697 45.0669 264.847 43.1759C263.732 40.7169 263.014 38.9009 262.693 38.0879" stroke="white" stroke-width="0.5" stroke-miterlimit="10"/>
<path d="M318.343 86.1675C318.249 86.1485 318.154 86.1295 318.06 86.1105C316.321 85.7325 314.62 85.2215 312.976 84.6165C309.292 83.2735 305.852 81.4195 302.697 79.1885C300.032 77.3535 297.557 75.2535 295.289 72.9845C293.192 70.9415 291.245 68.7665 289.469 66.5345C287.731 64.3785 286.124 62.1655 284.632 59.9525C283.139 57.7015 281.797 55.4695 280.55 53.3135C279.246 50.9865 278.056 48.7555 277.054 46.6745C275.826 44.1775 274.824 41.8895 274.031 39.9975C272.972 37.5015 272.311 35.6855 272.028 34.8535" stroke="white" stroke-width="0.5" stroke-miterlimit="10"/>
<path d="M323.426 83.7279C323.218 83.6709 323.011 83.5959 322.822 83.5009C321.329 82.9909 319.874 82.3849 318.475 81.7039C315.263 80.1529 312.277 78.2238 309.518 76.0108C307.1 74.1008 304.87 72.0009 302.791 69.7689C300.883 67.6889 299.069 65.5139 297.425 63.3009C295.818 61.1259 294.344 58.9319 293.003 56.7369C291.604 54.4869 290.357 52.2549 289.242 50.0989C288.014 47.7719 286.937 45.5209 286.011 43.4599C284.877 40.9439 283.97 38.6739 283.252 36.7829C282.288 34.1919 281.665 32.3189 281.419 31.5059" stroke="white" stroke-width="0.5" stroke-miterlimit="10"/>
<path d="M328.491 81.3081C328.245 81.1761 327.961 81.0621 327.716 80.9111C326.45 80.3061 325.221 79.6251 324.012 78.8301C321.196 77.1281 318.589 75.1231 316.189 72.9101C313.997 70.9431 311.994 68.8061 310.161 66.5931C308.385 64.4931 306.76 62.3181 305.286 60.1051C303.812 57.9301 302.451 55.7171 301.242 53.5421C299.976 51.2911 298.804 49.0591 297.784 46.9031C296.688 44.5581 295.724 42.3451 294.874 40.2831C293.853 37.7671 293.041 35.4981 292.398 33.6061C291.472 30.8261 290.924 28.8781 290.716 28.1211" stroke="white" stroke-width="0.5" stroke-miterlimit="10"/>
<path d="M300.013 24.4883C300.013 24.4883 307.572 62.5253 333.555 78.8863" stroke="white" stroke-width="0.5" stroke-miterlimit="10"/>
<path d="M309.386 21.1973C309.386 21.1973 314.545 56.8893 338.619 76.4653" stroke="white" stroke-width="0.5" stroke-miterlimit="10"/>
<path d="M318.759 17.9062C318.759 17.9062 321.518 51.2712 343.683 74.0252" stroke="white" stroke-width="0.5" stroke-miterlimit="10"/>
<path d="M328.131 14.6152C328.131 14.6152 328.49 45.6352 348.747 71.6042" stroke="white" stroke-width="0.5" stroke-miterlimit="10"/>
<path d="M337.504 11.3242C337.504 11.3242 335.463 39.9982 353.812 69.1642" stroke="white" stroke-width="0.5" stroke-miterlimit="10"/>
<path d="M346.877 8.0332C346.877 8.0332 342.436 34.3622 358.857 66.7432" stroke="white" stroke-width="0.5" stroke-miterlimit="10"/>
<path d="M356.249 4.74219C356.249 4.74219 349.409 28.7252 363.921 64.3222" stroke="white" stroke-width="0.5" stroke-miterlimit="10"/>
<path d="M365.622 1.45117C365.622 1.45117 356.382 23.0892 368.986 61.8822" stroke="white" stroke-width="0.5" stroke-miterlimit="10"/>
<path d="M293.778 148.244C293.778 148.244 281.117 106.974 316.983 89.5156" stroke="white" stroke-width="0.5" stroke-miterlimit="10"/>
<path d="M298.124 148.301C298.124 148.301 291.208 106.992 328.472 92.7871" stroke="white" stroke-width="0.5" stroke-miterlimit="10"/>
<path d="M302.451 148.339C302.451 148.339 301.298 106.973 339.961 96.041" stroke="white" stroke-width="0.5" stroke-miterlimit="10"/>
<path d="M306.778 148.395C306.778 148.395 311.37 106.973 351.431 99.3125" stroke="white" stroke-width="0.5" stroke-miterlimit="10"/>
<path d="M311.106 148.434C311.106 148.434 321.442 106.955 362.901 102.566" stroke="white" stroke-width="0.5" stroke-miterlimit="10"/>
<path d="M365.603 170.66C365.603 170.66 404.814 154.828 407.761 128.973" stroke="white" stroke-width="0.5" stroke-miterlimit="10"/>
<path d="M355.191 168.01C355.191 168.01 394.572 145.238 403.018 123.184" stroke="white" stroke-width="0.5" stroke-miterlimit="10"/>
<path d="M346.442 165.288C346.442 165.288 384.254 136.784 398.2 118.551" stroke="white" stroke-width="0.5" stroke-miterlimit="10"/>
<path d="M337.901 161.883C337.901 161.883 372.519 129.066 391.983 114.635" stroke="white" stroke-width="0.5" stroke-miterlimit="10"/>
<path d="M329.605 158.119C329.605 158.119 360.728 122.314 385.671 111.703" stroke="white" stroke-width="0.5" stroke-miterlimit="10"/>
<path d="M321.215 153.807C321.215 153.807 348.199 115.581 378.661 108.791" stroke="white" stroke-width="0.5" stroke-miterlimit="10"/>
<path d="M312.561 149.853C312.561 149.853 334.462 108.11 370.422 105.121" stroke="white" stroke-width="0.5" stroke-miterlimit="10"/>
<path d="M368.627 175.406C368.627 175.406 403.132 167.159 416 145.578" stroke="white" stroke-width="0.5" stroke-miterlimit="10"/>
<path d="M372.368 179.927C372.368 179.927 405.04 176.031 420.309 155.357" stroke="white" stroke-width="0.5" stroke-miterlimit="10"/>
<path d="M376.129 184.446C376.129 184.446 406.628 184.465 424.315 164.719" stroke="white" stroke-width="0.5" stroke-miterlimit="10"/>
<path d="M379.87 188.968C379.87 188.968 408.139 193.886 428.226 175.066" stroke="white" stroke-width="0.5" stroke-miterlimit="10"/>
<path d="M383.612 193.488C383.612 193.488 409.311 203.361 431.817 185.449" stroke="white" stroke-width="0.5" stroke-miterlimit="10"/>
<path d="M387.372 198.009C387.372 198.009 409.972 212.573 434.878 195.588" stroke="white" stroke-width="0.5" stroke-miterlimit="10"/>
<path d="M391.114 202.529C391.114 202.529 408.857 222.106 436.182 206.047" stroke="white" stroke-width="0.5" stroke-miterlimit="10"/>
<path d="M393.211 211.986C393.211 211.986 408.253 227.969 435.634 217.434" stroke="white" stroke-width="0.5" stroke-miterlimit="10"/>
<path d="M393.646 220.328C393.646 220.328 406.854 236.084 434.217 226.267" stroke="white" stroke-width="0.5" stroke-miterlimit="10"/>
<path d="M393.287 228.365C393.287 228.365 406.42 244.556 433.763 235.458" stroke="white" stroke-width="0.5" stroke-miterlimit="10"/>
<path d="M392.625 235.742C392.625 235.742 405.437 252.179 432.762 243.819" stroke="white" stroke-width="0.5" stroke-miterlimit="10"/>
<path d="M391.775 242.93C391.775 242.93 403.547 260.217 430.872 252.557" stroke="white" stroke-width="0.5" stroke-miterlimit="10"/>
<path d="M391.529 250.76C391.529 250.76 401.242 268.445 428.548 261.522" stroke="white" stroke-width="0.5" stroke-miterlimit="10"/>
<path d="M271.499 207.616C271.499 207.616 265.886 171.622 294.704 148.074" stroke="white" stroke-width="0.5" stroke-miterlimit="10"/>
<path d="M279.851 210.568C279.851 210.568 273.275 174.952 301.695 151.631" stroke="white" stroke-width="0.5" stroke-miterlimit="10"/>
<path d="M288.184 213.537C288.184 213.537 281.06 177.997 309.103 154.922" stroke="white" stroke-width="0.5" stroke-miterlimit="10"/>
<path d="M296.537 216.486C296.537 216.486 288.751 181.136 316.397 158.287" stroke="white" stroke-width="0.5" stroke-miterlimit="10"/>
<path d="M304.889 219.438C304.889 219.438 296.518 184.2 323.748 161.598" stroke="white" stroke-width="0.5" stroke-miterlimit="10"/>
<path d="M313.222 222.408C313.222 222.408 304.53 187.189 331.382 164.795" stroke="white" stroke-width="0.5" stroke-miterlimit="10"/>
<path d="M321.575 225.357C321.575 225.357 311.824 190.612 338.26 168.463" stroke="white" stroke-width="0.5" stroke-miterlimit="10"/>
<path d="M323.691 226.418C323.691 226.418 321.272 184.315 349.881 174.025" stroke="white" stroke-width="0.5" stroke-miterlimit="10"/>
<path d="M326.317 227.647C326.317 227.647 332.988 193.261 360.652 179.057" stroke="white" stroke-width="0.5" stroke-miterlimit="10"/>
<path d="M329.643 229.614C329.643 229.614 343.173 202.018 369.874 183.898" stroke="white" stroke-width="0.5" stroke-miterlimit="10"/>
<path d="M332.742 231.524C332.742 231.524 352.716 211.002 378.472 188.967" stroke="white" stroke-width="0.5" stroke-miterlimit="10"/>
<path d="M335.652 234.287C335.652 234.287 360.085 221.482 384.878 195.551" stroke="white" stroke-width="0.5" stroke-miterlimit="10"/>
<path d="M337.296 237.181C337.296 237.181 367.247 231.98 391.076 202.133" stroke="white" stroke-width="0.5" stroke-miterlimit="10"/>
<path d="M338.619 240.187C338.619 240.187 370.573 249.076 393.457 215.314" stroke="white" stroke-width="0.5" stroke-miterlimit="10"/>
<path d="M340.376 245.465C340.376 245.465 369.08 250.137 392.55 233.984" stroke="white" stroke-width="0.5" stroke-miterlimit="10"/>
<path d="M341.661 253.089C341.661 253.089 369.099 257.817 391.794 242.932" stroke="white" stroke-width="0.5" stroke-miterlimit="10"/>
<path d="M342.871 260.35C342.871 260.35 369.175 265.665 391.662 251.441" stroke="white" stroke-width="0.5" stroke-miterlimit="10"/>
<path d="M343.287 267.69C343.287 267.69 367.342 275.975 392.304 259.52" stroke="white" stroke-width="0.5" stroke-miterlimit="10"/>
<path d="M343.721 275.104C343.721 275.104 366.019 285.243 391.529 268.428" stroke="white" stroke-width="0.5" stroke-miterlimit="10"/>
<path d="M343.816 282.007C343.816 282.007 363.128 293.696 387.297 280.135" stroke="white" stroke-width="0.5" stroke-miterlimit="10"/>
<path d="M343.929 288.969C343.929 288.969 359.594 301.32 378.396 292.752" stroke="white" stroke-width="0.5" stroke-miterlimit="10"/>
<path d="M344.345 296.023C344.345 296.023 351.922 310.285 369.95 302.965" stroke="white" stroke-width="0.5" stroke-miterlimit="10"/>
<path d="M275.637 269.601C275.637 269.601 286.408 233.985 306.041 223.166" stroke="white" stroke-width="0.5" stroke-miterlimit="10"/>
<path d="M299.068 220.574C298.842 220.688 298.634 220.82 298.407 220.952C295.686 222.541 293.135 224.546 290.735 226.854C288.713 228.821 286.804 230.996 285.009 233.285C283.365 235.403 281.835 237.616 280.38 239.886C278.981 242.08 277.677 244.331 276.468 246.543C275.24 248.813 274.125 251.026 273.086 253.201C271.971 255.547 271.007 257.779 270.157 259.84C269.098 262.394 268.229 264.644 267.587 266.46C267.322 267.16 267.095 267.803 266.925 268.371" stroke="white" stroke-width="0.5" stroke-miterlimit="10"/>
<path d="M292.133 218.002C291.718 218.229 291.283 218.494 290.867 218.74C288.09 220.423 285.444 222.541 282.988 224.906C280.89 226.967 278.906 229.218 277.035 231.582C275.316 233.758 273.728 236.046 272.217 238.392C270.761 240.661 269.401 242.95 268.154 245.239C266.888 247.546 265.716 249.835 264.639 252.029C263.505 254.374 262.485 256.644 261.578 258.762C260.538 261.221 259.631 263.491 258.913 265.42C258.63 266.158 258.365 266.858 258.12 267.501" stroke="white" stroke-width="0.5" stroke-miterlimit="10"/>
<path d="M285.198 215.449C284.669 215.733 284.178 216.036 283.668 216.338C280.777 218.097 278.074 220.272 275.523 222.75C273.294 224.869 271.196 227.233 269.231 229.711C267.417 231.999 265.735 234.382 264.129 236.841C262.598 239.187 261.162 241.551 259.839 243.934C258.516 246.298 257.307 248.625 256.154 250.913C254.983 253.297 253.925 255.604 252.961 257.798C251.884 260.238 250.939 262.527 250.145 264.57C249.843 265.364 249.559 266.102 249.295 266.82" stroke="white" stroke-width="0.5" stroke-miterlimit="10"/>
<path d="M278.226 212.877C277.772 213.142 277.337 213.388 276.884 213.634C273.879 215.449 271.045 217.681 268.343 220.235C265.981 222.448 263.751 224.906 261.672 227.517C259.726 229.919 257.912 232.434 256.192 235.026C254.567 237.484 253.037 239.981 251.6 242.497C250.202 244.918 248.917 247.377 247.708 249.76C246.479 252.219 245.365 254.602 244.363 256.872C243.248 259.33 242.284 261.657 241.415 263.775C241.075 264.645 240.735 265.459 240.451 266.234" stroke="white" stroke-width="0.5" stroke-miterlimit="10"/>
<path d="M271.272 210.285C271.083 210.399 270.875 210.512 270.686 210.626C266.925 212.763 263.392 215.543 260.123 218.74V218.759C257.836 220.972 255.663 223.355 253.622 225.927C251.865 228.102 250.202 230.372 248.634 232.699C246.838 235.328 245.157 238.032 243.569 240.737C242.058 243.347 240.659 245.939 239.336 248.511C238.051 251.064 236.842 253.561 235.765 255.963C234.612 258.479 233.592 260.881 232.666 263.094C232.288 264.002 231.929 264.872 231.589 265.742" stroke="white" stroke-width="0.5" stroke-miterlimit="10"/>
<path d="M314.488 225.945C311.767 227.402 309.197 229.066 306.797 230.939C304.454 232.698 302.262 234.627 300.24 236.651C298.256 238.599 296.423 240.623 294.741 242.684C293.022 244.746 291.453 246.846 290.017 248.926C288.487 251.082 287.107 253.22 285.917 255.281C284.537 257.589 283.366 259.764 282.345 261.731C280.985 264.398 279.964 266.668 279.284 268.257C278.868 269.24 278.585 269.959 278.396 270.375" stroke="white" stroke-width="0.5" stroke-miterlimit="10"/>
<path d="M319.496 231.789C317.946 232.489 316.453 233.283 315.017 234.172C312.485 235.666 310.085 237.388 307.874 239.222C305.739 241 303.755 242.873 301.922 244.84C300.07 246.788 298.369 248.793 296.82 250.836C295.157 252.935 293.683 255.035 292.36 257.077C290.867 259.385 289.564 261.598 288.449 263.603C286.956 266.289 285.822 268.596 285.047 270.317C284.669 271.093 284.386 271.774 284.197 272.266" stroke="white" stroke-width="0.5" stroke-miterlimit="10"/>
<path d="M324.503 237.672C323.88 237.918 323.275 238.164 322.67 238.447C319.968 239.639 317.436 241.076 315.036 242.741C312.731 244.311 310.577 246.07 308.574 247.942C306.59 249.796 304.757 251.725 303.075 253.673C301.317 255.735 299.73 257.797 298.313 259.802C296.726 262.052 295.346 264.209 294.193 266.195C292.644 268.805 291.453 271.075 290.641 272.796C290.263 273.533 289.961 274.176 289.753 274.668" stroke="white" stroke-width="0.5" stroke-miterlimit="10"/>
<path d="M329.492 243.518C329.171 243.612 328.831 243.707 328.528 243.839C325.996 244.69 323.596 245.806 321.348 247.073C319.023 248.416 316.85 249.948 314.809 251.613C312.75 253.296 310.86 255.093 309.122 256.947C307.307 258.857 305.645 260.824 304.171 262.772C302.527 264.929 301.091 267.009 299.881 268.938C298.294 271.416 297.066 273.629 296.196 275.312C295.762 276.145 295.422 276.845 295.157 277.393" stroke="white" stroke-width="0.5" stroke-miterlimit="10"/>
<path d="M334.5 249.381C333.725 249.57 332.95 249.759 332.194 250.005C330.04 250.648 327.999 251.48 326.072 252.483C323.918 253.561 321.914 254.847 320.044 256.247C318.06 257.703 316.227 259.292 314.526 260.975C312.712 262.734 311.049 264.55 309.575 266.385C307.931 268.371 306.476 270.376 305.267 272.191C303.679 274.556 302.432 276.674 301.582 278.263C301.072 279.209 300.656 279.965 300.41 280.495" stroke="white" stroke-width="0.5" stroke-miterlimit="10"/>
<path d="M305.475 283.918C305.475 283.918 317.757 258.27 339.526 255.244" stroke="white" stroke-width="0.5" stroke-miterlimit="10"/>
<path d="M305.833 287.7C305.833 287.7 316.699 270.96 341.17 267.291" stroke="white" stroke-width="0.5" stroke-miterlimit="10"/>
<path d="M306.589 290.725C306.589 290.725 317.379 279.547 341.907 273.551" stroke="white" stroke-width="0.5" stroke-miterlimit="10"/>
<path d="M307.326 293.772C307.326 293.772 318.041 288.154 342.625 279.832" stroke="white" stroke-width="0.5" stroke-miterlimit="10"/>
<path d="M308.082 296.798C308.082 296.798 318.74 296.741 343.362 286.111" stroke="white" stroke-width="0.5" stroke-miterlimit="10"/>
<path d="M308.819 299.843C308.819 299.843 319.401 305.347 344.08 292.391" stroke="white" stroke-width="0.5" stroke-miterlimit="10"/>
<path d="M309.575 302.868C309.575 302.868 320.081 313.914 344.817 298.65" stroke="white" stroke-width="0.5" stroke-miterlimit="10"/>
</g>
</svg>
