<svg width="975" height="100" viewBox="0 0 975 100" fill="none" xmlns="http://www.w3.org/2000/svg">
	<g style="mix-blend-mode:screen" opacity="0.1">
		<path d="M939.674 88.0894L953.846 83.4868V13.003L939.674 8.40039H250.432L173.227 33.447H35.7903L15.3561 40.0833V83.4868L29.5281 88.0894H939.674Z" fill="#00C7AC" stroke="#00EEFF" stroke-miterlimit="10" />
		<path d="M29.1162 88.4656H940.169L955 83.6489V12.844L940.169 8.02734H249.937L172.732 33.1007H35.2959L14.2849 39.9243V83.6489L29.1162 88.4656ZM939.262 87.7431H30.0226L16.5096 83.3546V40.2187L36.2846 33.7965H173.721L250.926 8.72308H939.262L952.775 13.1116V83.3546L939.262 87.7431Z" fill="#53A6A5" />
	</g>
	<path d="M866.6 97.5374H948.589V99.9992H866.6V97.5374Z" fill="#D0D0D0" />
	<path d="M911.265 88.7613L911.322 85.9249H911.265C910.956 85.9249 910.647 85.9249 910.309 85.9249L910.253 88.7613C910.59 88.7613 910.928 88.7613 911.265 88.7613ZM914.416 88.6543C914.781 88.6543 915.147 88.6008 915.484 88.574L915.203 85.7375C914.866 85.7643 914.528 85.7911 914.19 85.8178L914.416 88.6543ZM907.159 88.574L907.44 85.7375C907.103 85.7108 906.765 85.684 906.428 85.6305L906.09 88.4402C906.456 88.4937 906.793 88.5205 907.159 88.5473V88.574ZM918.55 88.1726C918.916 88.1191 919.253 88.0388 919.619 87.9853L919.028 85.2024C918.691 85.2559 918.381 85.3361 918.044 85.3629L918.55 88.1726ZM903.024 88.0121L903.587 85.2291C903.249 85.1756 902.94 85.0953 902.602 85.0418L901.955 87.8248C902.321 87.905 902.659 87.9586 903.024 88.0388V88.0121ZM922.628 87.3163C922.966 87.2361 923.332 87.129 923.669 87.022L922.797 84.2925C922.488 84.3728 922.15 84.4799 921.813 84.5601L922.6 87.2896L922.628 87.3163ZM898.974 87.0755L899.818 84.3461C899.508 84.2658 899.171 84.1587 898.862 84.0517L897.933 86.7544C898.271 86.8614 898.636 86.9685 898.974 87.0755ZM926.594 86.0854C926.932 85.9516 927.269 85.8446 927.579 85.7108L926.426 83.0884C926.116 83.2222 925.807 83.3292 925.497 83.4362L926.566 86.0854H926.594ZM895.036 85.7643L896.161 83.1419C895.852 83.0081 895.543 82.9011 895.233 82.7673L894.024 85.3629C894.361 85.4967 894.699 85.6305 895.036 85.7643ZM930.42 84.4799C930.729 84.3193 931.066 84.1587 931.376 83.9982L929.97 81.4828C929.688 81.6434 929.379 81.7772 929.069 81.911L930.42 84.4531V84.4799ZM891.267 84.0517L892.674 81.5363C892.364 81.3758 892.083 81.242 891.802 81.0814L890.339 83.5433C890.649 83.7038 890.958 83.8644 891.295 84.0517H891.267ZM934.048 82.5264C934.357 82.3391 934.667 82.1518 934.948 81.9645L933.288 79.6097C933.007 79.797 932.726 79.9575 932.445 80.1449L934.048 82.5532V82.5264ZM887.667 82.018L889.327 79.6632C889.045 79.4759 888.764 79.3153 888.483 79.128L886.767 81.4561C887.048 81.6434 887.358 81.8574 887.667 82.0448V82.018ZM937.451 80.2251C937.732 80.0111 938.014 79.797 938.295 79.5829L936.41 77.3887C936.157 77.6027 935.904 77.79 935.623 77.9774L937.451 80.2251ZM884.32 79.6364L886.205 77.4422C885.951 77.2281 885.698 77.0408 885.445 76.8267L883.504 78.9675C883.786 79.1815 884.067 79.4224 884.348 79.6364H884.32ZM940.629 77.6295C940.883 77.3887 941.136 77.1478 941.417 76.907L939.308 74.9C939.083 75.1141 938.829 75.3549 938.576 75.569L940.629 77.6295ZM881.226 76.9873L883.336 74.9803C883.082 74.7395 882.857 74.5254 882.632 74.2846L880.467 76.2648C880.72 76.5056 880.973 76.7464 881.226 76.9873ZM943.498 74.7663C943.723 74.4987 943.977 74.2311 944.202 73.9635L941.895 72.1706C941.67 72.4114 941.473 72.6523 941.248 72.8931L943.498 74.7663ZM878.413 74.0438L880.72 72.2241C880.495 71.9833 880.298 71.7425 880.101 71.4749L877.738 73.2142C877.963 73.4818 878.188 73.7494 878.413 74.017V74.0438ZM946.086 71.6354C946.283 71.3411 946.508 71.0735 946.705 70.7791L944.23 69.2003C944.033 69.4679 943.864 69.7355 943.667 70.0031L946.114 71.6354H946.086ZM875.91 70.8862L878.385 69.3074C878.188 69.0398 878.02 68.7722 877.823 68.5046L875.32 70.0299C875.516 70.3242 875.713 70.5918 875.91 70.8862ZM948.308 68.2905C948.477 67.9962 948.674 67.6751 948.842 67.3807L946.199 66.0427C946.03 66.3103 945.889 66.6047 945.72 66.8723L948.308 68.2905ZM873.744 67.4877L876.36 66.1498C876.191 65.8554 876.051 65.5878 875.882 65.2935L873.21 66.5779C873.379 66.8723 873.548 67.1934 873.716 67.4877H873.744ZM950.193 64.7315C950.333 64.4104 950.474 64.0893 950.614 63.795L947.858 62.6978C947.717 62.9922 947.605 63.2865 947.464 63.5809L950.193 64.7315ZM871.944 63.902L874.701 62.8049C874.56 62.5105 874.448 62.2162 874.335 61.9218L871.551 62.9654C871.691 63.2865 871.804 63.6077 871.944 63.9288V63.902ZM951.683 61.012C951.796 60.6909 951.908 60.3698 952.021 60.0219L949.152 59.1924C949.067 59.4867 948.955 59.8078 948.842 60.1022L951.683 60.9852V61.012ZM870.51 60.1557L873.379 59.3262C873.294 59.0318 873.182 58.7107 873.098 58.4164L870.229 59.1656C870.313 59.4867 870.426 59.8346 870.538 60.1557H870.51ZM952.78 57.1854C952.865 56.8643 952.921 56.5165 953.005 56.1686L950.08 55.6066C950.024 55.9278 949.939 56.2489 949.883 56.5432L952.808 57.1587L952.78 57.1854ZM869.469 56.3024L872.394 55.7404C872.338 55.4193 872.254 55.125 872.198 54.8039L869.244 55.2855C869.3 55.6334 869.385 55.9545 869.441 56.3024H869.469ZM953.483 53.2518C953.54 52.904 953.568 52.5561 953.596 52.235L950.614 51.9674C950.586 52.2885 950.558 52.6096 950.502 52.904L953.455 53.2518H953.483ZM868.85 52.3688L871.832 52.0744C871.804 51.7533 871.776 51.4322 871.747 51.1111L868.766 51.3252C868.766 51.673 868.822 52.0209 868.85 52.342V52.3688ZM953.793 49.2915C953.793 48.9436 953.793 48.5957 953.793 48.2479V47.9803H950.811V48.2479C950.811 48.569 950.811 48.8901 950.811 49.2112L953.793 49.2915ZM871.635 48.3816V48.2211C871.635 47.9535 871.635 47.6859 871.635 47.4183L868.654 47.3648C868.654 47.6591 868.654 47.9535 868.654 48.2479L871.635 48.3816ZM950.699 45.2508L953.68 45.0367C953.652 44.6889 953.624 44.341 953.596 44.0199L950.614 44.3142C950.643 44.6354 950.671 44.9565 950.699 45.2776V45.2508ZM871.804 44.6889C871.832 44.3678 871.86 44.0466 871.916 43.7255L868.963 43.3777C868.907 43.7255 868.879 44.0466 868.85 44.3945L871.832 44.6621L871.804 44.6889ZM950.221 41.5848L953.174 41.0764C953.118 40.7285 953.033 40.4074 952.977 40.0595L950.052 40.6215C950.108 40.9426 950.193 41.2369 950.249 41.558L950.221 41.5848ZM872.366 41.0229C872.423 40.7017 872.507 40.4074 872.563 40.0863L869.638 39.4708C869.554 39.8187 869.497 40.1398 869.413 40.4877L872.338 41.0229H872.366ZM949.349 37.9991L952.218 37.223C952.133 36.9019 952.021 36.5541 951.908 36.233L949.067 37.0625C949.18 37.3568 949.264 37.678 949.349 37.9723V37.9991ZM873.294 37.4371C873.379 37.1428 873.491 36.8217 873.604 36.5273L870.763 35.6443C870.651 35.9654 870.538 36.2865 870.454 36.6343L873.323 37.4371H873.294ZM948.111 34.4936L950.896 33.45C950.755 33.1289 950.614 32.8078 950.502 32.4867L947.746 33.5838C947.886 33.8781 947.999 34.1725 948.111 34.4668V34.4936ZM874.588 33.9584C874.729 33.6641 874.841 33.3697 874.982 33.0754L872.254 31.9247C872.113 32.2458 871.972 32.5669 871.832 32.8613L874.588 33.9317V33.9584ZM946.536 31.1219L949.208 29.8375C949.039 29.5431 948.871 29.222 948.702 28.9277L946.086 30.2924C946.255 30.56 946.395 30.8544 946.564 31.1487L946.536 31.1219ZM876.248 30.6135C876.416 30.3192 876.557 30.0516 876.726 29.784L874.138 28.3925C873.969 28.6869 873.773 28.9812 873.604 29.3023L876.248 30.6403V30.6135ZM944.595 27.9376L947.099 26.4123C946.902 26.118 946.705 25.8236 946.508 25.556L944.033 27.1616C944.23 27.4292 944.398 27.6968 944.595 27.9644V27.9376ZM878.217 27.4292C878.413 27.1616 878.582 26.894 878.779 26.6264L876.332 24.9941C876.135 25.2884 875.91 25.556 875.713 25.8504L878.188 27.4292H878.217ZM942.317 24.9138L944.652 23.1477C944.427 22.8801 944.202 22.6125 943.977 22.3449L941.67 24.1645C941.895 24.4054 942.092 24.6462 942.317 24.9138ZM880.523 24.4589C880.748 24.2181 880.945 23.9772 881.17 23.7096L878.892 21.8632C878.667 22.1308 878.413 22.3984 878.188 22.6393L880.495 24.4321L880.523 24.4589ZM939.786 22.1576L941.951 20.1774C941.698 19.9366 941.445 19.6958 941.192 19.4549L939.083 21.4619C939.336 21.6759 939.561 21.9168 939.786 22.1576ZM883.139 21.7295C883.364 21.4886 883.617 21.2745 883.87 21.0605L881.789 19C881.536 19.2408 881.282 19.4817 881.029 19.7225L883.167 21.7295H883.139ZM936.973 19.6155L938.914 17.448C938.632 17.2339 938.351 17.0198 938.07 16.779L936.185 18.9733C936.439 19.1873 936.692 19.3746 936.973 19.5887V19.6155ZM886.008 19.2141C886.261 19 886.542 18.8127 886.795 18.5986L884.939 16.3776C884.658 16.5917 884.376 16.8058 884.095 17.0198L886.008 19.2141ZM933.907 17.3409L935.623 15.0129C935.314 14.8256 935.032 14.6115 934.723 14.4242L933.063 16.8058C933.345 16.9931 933.626 17.1536 933.907 17.3409ZM889.13 16.9931C889.411 16.8058 889.692 16.6452 889.974 16.4579L888.37 14.0763C888.061 14.2636 887.78 14.4509 887.47 14.6383L889.13 16.9931ZM930.645 15.3608L932.107 12.8721C931.798 12.7116 931.488 12.551 931.151 12.3905L929.744 14.9058C930.054 15.0664 930.335 15.2002 930.645 15.3608ZM892.449 15.0664C892.758 14.9058 893.039 14.7721 893.349 14.6115L891.999 12.0694C891.689 12.2299 891.352 12.3905 891.042 12.551L892.449 15.0396V15.0664ZM927.157 13.7017L928.366 11.106C928.029 10.9722 927.691 10.8384 927.382 10.7046L926.257 13.3271C926.566 13.4609 926.876 13.5679 927.185 13.7017H927.157ZM895.936 13.4609C896.246 13.3271 896.555 13.22 896.865 13.113L895.768 10.4638C895.43 10.5976 895.093 10.7046 894.783 10.8384L895.936 13.4609ZM923.5 12.3637L924.429 9.66104C924.091 9.554 923.725 9.44697 923.388 9.36669L922.544 12.0961C922.853 12.1764 923.191 12.2834 923.5 12.3905V12.3637ZM899.565 12.2032C899.902 12.0961 900.212 12.0159 900.549 11.9356L899.733 9.20613C899.396 9.28641 899.058 9.39345 898.693 9.50048L899.565 12.2299V12.2032ZM919.76 11.4004L920.406 8.61743C920.041 8.53715 919.703 8.48363 919.338 8.40336L918.775 11.1863C919.113 11.2398 919.422 11.3201 919.76 11.3736V11.4004ZM903.334 11.2934C903.671 11.2398 903.981 11.1596 904.318 11.106L903.812 8.29632C903.446 8.34984 903.109 8.43011 902.743 8.48363L903.334 11.2666V11.2934ZM915.934 10.8117L916.272 8.00197C915.906 7.94845 915.569 7.92169 915.203 7.89493L914.922 10.7314C915.259 10.7582 915.597 10.7849 915.934 10.8384V10.8117ZM907.159 10.7582C907.496 10.7314 907.834 10.7046 908.171 10.6779L907.946 7.84141C907.581 7.86817 907.243 7.89493 906.878 7.92169L907.187 10.7582H907.159ZM912.053 10.5709L912.109 7.73438C911.828 7.73438 911.518 7.73438 911.237 7.73438H911.04V10.5709H911.237C911.518 10.5709 911.772 10.5709 912.053 10.5709Z" fill="#00EEFF" />
	<path d="M907.299 90.2869L907.581 87.4504C898.018 86.6209 889.017 82.6605 882.21 76.2383L880.101 78.2452C887.386 85.1223 897.061 89.3771 907.299 90.2601V90.2869Z" fill="#00EEFF" />
	<path d="M870.144 44.7154C871.129 34.2793 876.332 24.8065 884.798 18.09C893.264 11.3734 903.98 8.18907 914.95 9.12564L915.344 4.87092C903.165 3.82731 891.295 7.35953 881.901 14.7986C872.507 22.2377 866.741 32.7273 865.644 44.314L870.116 44.6887L870.144 44.7154Z" fill="#00EEFF" />
	<path d="M911.293 83.7822C930.391 83.7822 946.705 69.8675 948.449 51.4571C949.349 42.0111 946.311 32.7792 939.926 25.5007C933.541 18.2221 924.541 13.7266 914.612 12.8703C904.684 12.014 894.98 14.904 887.33 20.9783C879.679 27.0527 874.954 35.6156 874.054 45.0616C872.197 64.5691 887.386 81.8823 907.89 83.6485C909.015 83.7555 910.14 83.7822 911.265 83.7822H911.293ZM911.209 14.1547C912.306 14.1547 913.403 14.2083 914.5 14.2885C924.035 15.1181 932.67 19.3996 938.801 26.4105C944.933 33.3946 947.83 42.2519 946.986 51.3233C945.214 70.0548 927.747 83.9428 908.059 82.2302C888.37 80.5444 873.801 63.9269 875.573 45.1954C876.445 36.1241 880.945 27.909 888.314 22.0755C894.811 16.9109 902.855 14.1547 911.209 14.1547Z" fill="#D0D0D0" />
	<path d="M874.785 48.2458H879.257C879.257 31.4677 893.602 17.7938 911.265 17.7938V13.5391C891.155 13.5391 874.785 29.1129 874.785 48.2458Z" fill="#D0D0D0" />
	<path d="M910.534 4.12103H912.024V9.15177H910.534V4.12103Z" fill="#00FFFF" />
	<path d="M910.534 87.3418H912.024V92.3725H910.534V87.3418Z" fill="#00EEFF" />
	<path d="M940.433 47.5254H960.627V48.9436H940.433V47.5254Z" fill="#00EEFF" />
	<path d="M861.931 47.5254H882.126V48.9436H861.931V47.5254Z" fill="#00EEFF" />
	<path d="M861.172 43.5369H862.663V52.9294H861.172V43.5369Z" fill="#00EEFF" />
	<path d="M700.203 8.32227H777.636V12.577H700.203V8.32227Z" fill="#D0D0D0" />
	<path d="M975 19.2673V17.8223L963.496 22.077V23.522L975 19.2673ZM963.496 28.4724V27.0274L975 22.7727V24.2177L963.496 28.4724ZM963.496 33.4229V31.9779L975 27.7232V29.1682L963.496 33.4229ZM963.496 38.3734V36.9284L975 32.6736V34.1186L963.496 38.3734Z" fill="#D0D0D0" />
	<path d="M23.1519 93H945.848L969 85.4507V10.5493L945.848 3H243.96L166.759 28.1731H29.3312L-6.10352e-05 37.7373V85.4507L23.1519 93ZM944.036 91.5761H24.9645L4.3667 84.8597V38.3284L31.1438 29.597H168.572L245.772 4.42388H944.036L964.633 11.1403V84.8597L944.036 91.5761Z" fill="#00EEFF" />
	<path d="M14.0186 75.3823H17V74.3923H14.0186V75.3823ZM14.0186 71.5558H17V70.5657H14.0186V71.5558ZM14.0186 67.7292H17V66.7391H14.0186V67.7292ZM14.0186 63.9026H17V62.9125H14.0186V63.9026ZM14.0186 60.0761H17V59.086H14.0186V60.0761ZM14.0186 56.2495H17V55.2594H14.0186V56.2495ZM14.0186 52.4229H17V51.4328H14.0186V52.4229ZM14.0186 48.5964H17V47.6063H14.0186V48.5964ZM14.0186 44.7698H17V43.7797H14.0186V44.7698ZM14.0186 40.9432H17V39.9531H14.0186V40.9432Z" fill="#00EEFF" />
	<path d="M938.745 86.404C941.67 84.5041 944.37 82.2831 946.789 79.8212C949.152 77.4129 951.261 74.7637 953.033 71.954L949.18 69.7598C947.577 72.3287 945.664 74.737 943.526 76.9045C941.333 79.1523 938.857 81.1592 936.214 82.8985L938.745 86.404Z" fill="#D0D0D0" />
	<path d="M862.016 8.2686H863.844V0H862.016V8.2686ZM858.443 0H860.272V8.2686H858.443V0ZM854.871 0H856.7V8.2686H854.871V0ZM851.299 0H853.128V8.2686H851.299V0ZM847.727 0H849.555V8.2686H847.727V0ZM844.155 0H845.983V8.2686H844.155V0ZM840.583 0H842.411V8.2686H840.583V0ZM837.011 0H838.839V8.2686H837.011V0ZM833.439 0H835.267V8.2686H833.439V0ZM829.867 0H831.695V8.2686H829.867V0ZM826.295 0H828.123V8.2686H826.295V0ZM822.723 0H824.551V8.2686H822.723V0ZM819.151 0H820.979V8.2686H819.151V0ZM815.579 0H817.407V8.2686H815.579V0ZM812.006 0H813.835V8.2686H812.006V0ZM808.434 0H810.263V8.2686H808.434V0ZM804.862 0H806.691V8.2686H804.862V0ZM801.29 0H803.118V8.2686H801.29V0ZM797.718 0H799.546V8.2686H797.718V0ZM794.146 0H795.974V8.2686H794.146V0ZM790.574 0H792.402V8.2686H790.574V0ZM787.002 0H788.83V8.2686H787.002V0ZM783.43 0H785.258V8.2686H783.43V0Z" fill="#D0D0D0" />
	<path d="M792.318 96.1191H885.557V97.5374H792.318V96.1191Z" fill="#D0D0D0" />
	<path d="M910.759 81.5344V80.1161H910.196L910.14 81.5344H910.759ZM912.278 81.5344H912.868L912.812 80.0894H912.221L912.278 81.5344ZM908.621 81.4541L908.734 80.0359L908.143 79.9823L908.002 81.4006L908.621 81.4541ZM914.415 81.4006L915.006 81.3471L914.865 79.9288L914.275 79.9823L914.415 81.4006ZM906.512 81.24L906.709 79.8218L906.118 79.7415L905.893 81.133L906.484 81.2133L906.512 81.24ZM916.525 81.1597L917.144 81.0795L916.89 79.688L916.328 79.7683L916.553 81.1597H916.525ZM904.402 80.8921L904.684 79.5007L904.093 79.3936L903.783 80.7851L904.374 80.8921H904.402ZM918.634 80.7851L919.225 80.6513L918.887 79.2598L918.325 79.3936L918.634 80.7851ZM902.321 80.4372L902.715 79.0725L902.152 78.9387L901.758 80.3035L902.349 80.464L902.321 80.4372ZM920.688 80.3035L921.278 80.1429L920.856 78.7782L920.294 78.9387L920.688 80.3035ZM900.268 79.8485L900.746 78.5106L900.183 78.3233L899.705 79.6612L900.296 79.8485H900.268ZM922.713 79.688L923.275 79.5007L922.769 78.1627L922.206 78.35L922.713 79.688ZM898.243 79.1528L898.805 77.8416L898.271 77.6275L897.68 78.9387L898.243 79.1528ZM924.682 78.9655L925.244 78.7514L924.653 77.4402L924.119 77.6543L924.71 78.9655H924.682ZM896.274 78.35L896.921 77.0656L896.386 76.8247L895.739 78.1092L896.274 78.35ZM926.622 78.1359L927.157 77.8684L926.482 76.6107L925.947 76.8515L926.594 78.1359H926.622ZM894.361 77.4134L895.092 76.1825L894.586 75.9149L893.855 77.1459L894.389 77.4402L894.361 77.4134ZM928.479 77.1726L929.013 76.8783L928.254 75.6473L927.747 75.9149L928.479 77.1459V77.1726ZM892.505 76.3698L893.292 75.1657L892.814 74.8713L891.998 76.0487L892.505 76.3698ZM930.279 76.129L930.785 75.8079L929.941 74.6305L929.463 74.9248L930.279 76.1023V76.129ZM890.733 75.246L891.605 74.0953L891.126 73.7742L890.226 74.9248L890.705 75.2727L890.733 75.246ZM932.023 74.9784L932.501 74.6305L931.601 73.5066L931.122 73.8277L932.023 74.9784ZM889.045 74.015L890.001 72.9179C889.861 72.8109 889.692 72.6771 889.551 72.57L888.567 73.6404C888.736 73.7742 888.876 73.8812 889.045 74.015ZM933.71 73.7207C933.879 73.5869 934.02 73.4798 934.188 73.346L933.204 72.2757C933.063 72.4095 932.923 72.5165 932.754 72.6235L933.71 73.7207ZM887.442 72.6771L888.454 71.6335L888.033 71.2588L886.992 72.2757L887.442 72.6771ZM935.285 72.356C935.426 72.2222 935.595 72.0884 935.735 71.9546L934.695 70.9377C934.695 70.9377 934.413 71.2053 934.273 71.3123L935.285 72.356ZM885.923 71.2321L886.992 70.242L886.598 69.8406L885.501 70.8039L885.923 71.2321ZM936.804 70.911L937.226 70.4828L936.129 69.5195L935.735 69.9209L936.832 70.8842L936.804 70.911ZM884.489 69.7336L885.642 68.8237L885.276 68.3956L884.123 69.3054L884.517 69.7603L884.489 69.7336ZM938.21 69.3857L938.604 68.9308L937.423 68.0477L937.057 68.4759L938.21 69.3857ZM883.167 68.1548L884.376 67.2985L884.039 66.8436L882.829 67.6731L883.195 68.128L883.167 68.1548ZM939.504 67.7801L939.87 67.2985L938.66 66.4957L938.323 66.9506L939.532 67.7801H939.504ZM881.929 66.4957L883.167 65.7197L882.857 65.2648L881.592 66.014L881.929 66.4957ZM940.686 66.0943L941.023 65.6126L939.757 64.8634L939.448 65.345L940.714 66.1211L940.686 66.0943ZM880.804 64.7563L882.098 64.0606L881.817 63.5789L880.523 64.2747L880.832 64.7831L880.804 64.7563ZM941.782 64.3549L942.064 63.8465L940.742 63.1775L940.461 63.6592L941.754 64.3549H941.782ZM879.82 62.9902L881.17 62.348L880.917 61.8396L879.566 62.455L879.82 62.9635V62.9902ZM942.767 62.5621L943.02 62.0269L941.67 61.4382L941.417 61.9466L942.767 62.5621ZM878.92 61.1438L880.298 60.5819L880.073 60.0735L878.695 60.6087L878.92 61.1438ZM943.611 60.6889L943.836 60.1537L942.429 59.6453L942.204 60.1537L943.583 60.6889H943.611ZM878.132 59.2439L879.538 58.7623L879.341 58.2271L877.935 58.6552L878.132 59.2172V59.2439ZM944.342 58.789L944.539 58.2271L943.104 57.7989L942.936 58.3341L944.342 58.789ZM877.485 57.3173L878.92 56.9426L878.779 56.4075L877.344 56.7821L877.513 57.344L877.485 57.3173ZM944.961 56.8356L945.101 56.2737L943.667 55.9258L943.526 56.461L944.961 56.8356ZM876.979 55.3371L878.441 55.0427L878.329 54.5076L876.866 54.7751L876.979 55.3371ZM945.439 54.8554L945.551 54.2935L944.089 54.0259L943.976 54.5611L945.439 54.8287V54.8554ZM876.585 53.3569L878.048 53.1428L877.963 52.5809L876.473 52.7682L876.557 53.3301L876.585 53.3569ZM945.805 52.8752L945.889 52.2865L944.398 52.126L944.314 52.6879L945.805 52.8752ZM876.332 51.35L877.823 51.2162L877.766 50.6542L876.276 50.7613L876.332 51.35ZM946.03 50.8415V50.2528L944.595 50.1726V50.7345L946.03 50.8415ZM876.191 49.3163L877.682 49.2627V48.7008H876.163V49.2895L876.191 49.3163ZM946.142 48.8078V48.2191L944.651 48.0853V48.7543H946.142V48.8078ZM877.682 47.3093V46.7474L876.219 46.6939V47.2826L877.682 47.3361V47.3093ZM944.595 46.7206L946.086 46.6671V46.0784L944.567 46.1587V46.7206H944.595ZM877.823 45.3827L877.879 44.8207L876.388 44.6602L876.332 45.2489L877.823 45.3827ZM944.483 44.7672L945.973 44.6334L945.889 44.0447L944.398 44.232L944.454 44.7672H944.483ZM878.076 43.4292L878.16 42.8673L876.698 42.6265L876.613 43.1884L878.076 43.4025V43.4292ZM944.201 42.8405L945.664 42.5997L945.551 42.0378L944.089 42.3053L944.201 42.8405ZM878.441 41.5293L878.554 40.9941L877.091 40.673L876.951 41.235L878.413 41.5293H878.441ZM943.808 40.9406L945.27 40.6195L945.13 40.0576L943.695 40.4054L943.836 40.9406H943.808ZM878.948 39.6562L879.116 39.121L877.682 38.7196L877.513 39.2816L878.948 39.6562ZM943.301 39.0675L944.736 38.6661L944.567 38.1041L943.133 38.5323L943.301 39.0675ZM879.566 37.8098L879.763 37.2746L878.357 36.7929L878.16 37.3281L879.566 37.8098ZM942.654 37.2479L944.061 36.7662L943.836 36.231L942.429 36.7394L942.626 37.2746L942.654 37.2479ZM880.298 35.9902L880.523 35.4817L879.145 34.9198L878.891 35.455L880.27 35.9902H880.298ZM941.895 35.455L943.273 34.893L943.02 34.3579L941.67 34.9466L941.895 35.455ZM881.142 34.2241L881.395 33.7156L880.073 33.0734L879.791 33.5818L881.142 34.1973V34.2241ZM941.023 33.7156L942.345 33.0734L942.064 32.565L940.742 33.234L941.023 33.7156ZM882.098 32.5115L882.379 32.0298L881.085 31.3073L880.776 31.8157L882.07 32.5115H882.098ZM940.039 32.003L941.332 31.2805L941.023 30.7721L939.757 31.5214L940.067 32.003H940.039ZM883.167 30.8524L883.476 30.3975L882.238 29.5947L881.901 30.0764L883.139 30.8524H883.167ZM938.942 30.3707L940.179 29.568L939.842 29.0863L938.632 29.9158L938.97 30.3707H938.942ZM884.32 29.2468L884.657 28.7919L883.476 27.9356L883.11 28.3905L884.32 29.2468ZM937.732 28.7919L938.914 27.9356L938.548 27.4807L937.395 28.3638L937.76 28.7919H937.732ZM885.586 27.7216L885.979 27.2934L884.854 26.3568L884.46 26.785L885.614 27.6948L885.586 27.7216ZM936.438 27.2934L937.563 26.3568L937.17 25.9287L936.073 26.892L936.467 27.3202L936.438 27.2934ZM886.936 26.2766L887.329 25.8752L886.261 24.8851L885.839 25.3132L886.936 26.3033V26.2766ZM935.032 25.8752L936.101 24.8851C935.96 24.7513 935.82 24.6175 935.679 24.4837L934.638 25.5006C934.638 25.5006 934.92 25.7681 935.06 25.8752H935.032ZM888.37 24.9118L888.792 24.5372L887.808 23.4669L887.358 23.8682L888.37 24.9118ZM933.541 24.5372L934.554 23.4936C934.413 23.3598 934.245 23.226 934.104 23.119L933.119 24.1893C933.26 24.2964 933.401 24.4302 933.541 24.564V24.5372ZM889.917 23.6542C890.058 23.5471 890.226 23.4133 890.367 23.3063L889.439 22.1824C889.27 22.3162 889.13 22.4232 888.961 22.557L889.917 23.6542ZM931.994 23.3063L932.923 22.1824L932.444 21.8345L931.544 22.9584L931.994 23.3063ZM891.52 22.4768L891.998 22.1556L891.155 20.9782L890.648 21.3261L891.52 22.4768ZM930.335 22.1556L931.207 21.005L930.701 20.6839L929.857 21.8613L930.335 22.1824V22.1556ZM893.208 21.4064L893.714 21.112L892.927 19.9079L892.42 20.2022L893.236 21.4064H893.208ZM928.647 21.112L929.435 19.9079C929.266 19.8008 929.097 19.6938 928.9 19.6135L928.141 20.8444L928.647 21.1388V21.112ZM894.98 20.4163L895.486 20.1487L894.783 18.891L894.249 19.1586L894.98 20.3895V20.4163ZM926.875 20.1487L927.579 18.891L927.044 18.6234L926.369 19.8811L926.875 20.1487ZM896.78 19.5332L897.314 19.2924L896.696 18.008L896.133 18.2488L896.78 19.5332ZM925.047 19.2924L925.666 18.008L925.103 17.7671L924.513 19.0783L925.047 19.2924ZM898.636 18.7572L899.171 18.5432L898.636 17.2052L898.074 17.4193L898.636 18.7305V18.7572ZM923.163 18.5432L923.697 17.2052L923.135 16.9911L922.628 18.3291L923.191 18.5164L923.163 18.5432ZM900.577 18.0882L901.14 17.9009L900.69 16.5362L900.127 16.7235L900.605 18.0615L900.577 18.0882ZM921.25 17.9009L921.7 16.5362L921.109 16.3757L920.688 17.7404L921.25 17.9009ZM902.546 17.5263L903.108 17.3925L902.743 16.0278L902.152 16.1616L902.546 17.5263ZM919.281 17.3657L919.619 15.9743L919.028 15.8405L918.691 17.232L919.253 17.3657H919.281ZM904.515 17.0714L905.077 16.9644L904.796 15.5729L904.205 15.6799L904.515 17.0714ZM917.256 16.9644L917.537 15.5729L916.947 15.4658L916.694 16.8573L917.256 16.9644ZM906.512 16.7503L907.102 16.67L906.906 15.2518L906.315 15.332L906.512 16.7503ZM915.231 16.67L915.4 15.2518L914.809 15.1982L914.668 16.6165L915.259 16.67H915.231ZM908.537 16.5362H909.128L909.043 15.0912L908.424 15.1447L908.537 16.563V16.5362ZM913.206 16.4827L913.29 15.0645H912.7L912.643 16.4559H913.234L913.206 16.4827ZM910.562 16.4827H911.153V15.0645H910.562V16.4827Z" fill="#00FFFF" />
</svg>
