<?xml version="1.0" encoding="UTF-8"?>
<!DOCTYPE svg PUBLIC "-//W3C//DTD SVG 1.1//EN" "http://www.w3.org/Graphics/SVG/1.1/DTD/svg11.dtd">
<svg xmlns="http://www.w3.org/2000/svg" version="1.1" width="971px" height="687px" style="shape-rendering:geometricPrecision; text-rendering:geometricPrecision; image-rendering:optimizeQuality; fill-rule:evenodd; clip-rule:evenodd" xmlns:xlink="http://www.w3.org/1999/xlink">
<g><path style="opacity:1" fill="#f6f6f6" d="M -0.5,-0.5 C 323.167,-0.5 646.833,-0.5 970.5,-0.5C 970.5,228.5 970.5,457.5 970.5,686.5C 646.833,686.5 323.167,686.5 -0.5,686.5C -0.5,457.5 -0.5,228.5 -0.5,-0.5 Z"/></g>
<g><path style="opacity:1" fill="#d5bea2" d="M 632.5,111.5 C 680.272,137.577 727.606,164.577 774.5,192.5C 728.76,219.368 682.76,245.701 636.5,271.5C 635.167,271.5 633.833,271.5 632.5,271.5C 632.5,218.167 632.5,164.833 632.5,111.5 Z"/></g>
<g><path style="opacity:1" fill="#dbccb7" d="M 632.5,111.5 C 632.5,164.833 632.5,218.167 632.5,271.5C 633.833,271.5 635.167,271.5 636.5,271.5C 635.594,272.965 634.261,273.965 632.5,274.5C 631.169,220.002 631.169,165.668 632.5,111.5 Z"/></g>
<g><path style="opacity:1" fill="#43826d" d="M 845.5,169.5 C 846.822,169.33 847.989,169.663 849,170.5C 849.5,249.166 849.667,327.833 849.5,406.5C 847.784,406.371 846.117,406.038 844.5,405.5C 776.065,367.115 708.065,327.948 640.5,288C 708.561,247.971 776.895,208.471 845.5,169.5 Z"/></g>
<g><path style="opacity:1" fill="#4e7e6e" d="M 844.5,405.5 C 846.117,406.038 847.784,406.371 849.5,406.5C 849.667,327.833 849.5,249.166 849,170.5C 847.989,169.663 846.822,169.33 845.5,169.5C 846.848,168.399 848.348,167.399 850,166.5C 850.667,247.5 850.667,328.5 850,409.5C 847.833,408.512 846,407.179 844.5,405.5 Z"/></g>
<g><path style="opacity:1" fill="#85beab" d="M 340.5,255.5 C 338.167,255.5 335.833,255.5 333.5,255.5C 333.81,258.713 333.477,261.713 332.5,264.5C 332.5,261.167 332.5,257.833 332.5,254.5C 335.385,254.194 338.052,254.527 340.5,255.5 Z"/></g>
<g><path style="opacity:1" fill="#b3eadc" d="M 313.5,264.5 C 312.527,262.052 312.194,259.385 312.5,256.5C 310.139,256.674 307.806,257.007 305.5,257.5C 305.5,260.5 305.5,263.5 305.5,266.5C 304.359,263.36 304.192,260.027 305,256.5C 307.719,255.556 310.552,255.223 313.5,255.5C 313.5,258.5 313.5,261.5 313.5,264.5 Z"/></g>
<g><path style="opacity:1" fill="#31b88d" d="M 332.5,264.5 C 333.477,261.713 333.81,258.713 333.5,255.5C 335.833,255.5 338.167,255.5 340.5,255.5C 341.744,260.035 341.744,264.702 340.5,269.5C 335.863,274.417 330.196,275.751 323.5,273.5C 319.339,275.185 315.006,275.852 310.5,275.5C 307.567,273.309 305.9,270.309 305.5,266.5C 305.5,263.5 305.5,260.5 305.5,257.5C 307.806,257.007 310.139,256.674 312.5,256.5C 312.194,259.385 312.527,262.052 313.5,264.5C 313.959,268.82 315.792,269.487 319,266.5C 319.499,262.848 319.665,259.182 319.5,255.5C 322.167,255.5 324.833,255.5 327.5,255.5C 327.335,259.182 327.501,262.848 328,266.5C 330.501,268.056 332.001,267.389 332.5,264.5 Z"/></g>
<g><path style="opacity:1" fill="#8ebf9d" d="M 549.5,259.5 C 556.451,263.137 563.118,267.137 569.5,271.5C 562.921,268.877 556.588,265.71 550.5,262C 549.748,261.329 549.414,260.496 549.5,259.5 Z"/></g>
<g><path style="opacity:1" fill="#81c391" d="M 548.5,259.5 C 548.833,259.5 549.167,259.5 549.5,259.5C 549.414,260.496 549.748,261.329 550.5,262C 556.588,265.71 562.921,268.877 569.5,271.5C 631.712,306.612 693.712,342.279 755.5,378.5C 692.001,415.417 628.335,452.084 564.5,488.5C 562.774,488.185 561.107,488.019 559.5,488C 557.655,489.423 555.655,490.59 553.5,491.5C 552.147,492.524 551.48,493.857 551.5,495.5C 549.833,495.5 548.167,495.5 546.5,495.5C 545.836,416.493 546.503,337.826 548.5,259.5 Z"/></g>
<g><path style="opacity:1" fill="#80c393" d="M 551.5,269.5 C 553.497,339.159 554.163,409.159 553.5,479.5C 552.167,479.5 550.833,479.5 549.5,479.5C 548.842,409.286 549.508,339.286 551.5,269.5 Z"/></g>
<g><path style="opacity:1" fill="#effbef" d="M 544.5,258.5 C 544.167,339.002 544.501,419.335 545.5,499.5C 550.167,497.167 554.833,494.833 559.5,492.5C 559.306,494.912 557.973,495.912 555.5,495.5C 555.5,496.5 555.5,497.5 555.5,498.5C 551.747,500.139 547.747,500.806 543.5,500.5C 543.167,419.665 543.501,338.998 544.5,258.5 Z"/></g>
<g><path style="opacity:1" fill="#bcdbc4" d="M 546.5,257.5 C 545.501,337.998 545.167,418.665 545.5,499.5C 544.501,419.335 544.167,339.002 544.5,258.5C 544.711,256.576 545.377,256.243 546.5,257.5 Z"/></g>
<g><path style="opacity:1" fill="#87be97" d="M 546.5,257.5 C 547.5,257.833 548.167,258.5 548.5,259.5C 546.503,337.826 545.836,416.493 546.5,495.5C 548.167,495.5 549.833,495.5 551.5,495.5C 551.48,493.857 552.147,492.524 553.5,491.5C 555.655,490.59 557.655,489.423 559.5,488C 561.107,488.019 562.774,488.185 564.5,488.5C 562.651,489.593 560.984,490.926 559.5,492.5C 554.833,494.833 550.167,497.167 545.5,499.5C 545.167,418.665 545.501,337.998 546.5,257.5 Z"/></g>
<g><path style="opacity:1" fill="#e0f9f2" d="M 340.5,269.5 C 340.649,270.552 340.483,271.552 340,272.5C 338.028,273.305 336.528,274.639 335.5,276.5C 338.642,277.167 341.642,277.834 344.5,278.5C 341.287,278.19 338.287,278.523 335.5,279.5C 329.149,279.557 322.815,279.89 316.5,280.5C 321.584,278.99 326.918,277.99 332.5,277.5C 325.011,276.833 317.678,276.167 310.5,275.5C 315.006,275.852 319.339,275.185 323.5,273.5C 330.196,275.751 335.863,274.417 340.5,269.5 Z"/></g>
<g><path style="opacity:1" fill="#70c3a8" d="M 335.5,279.5 C 338.287,278.523 341.287,278.19 344.5,278.5C 345.657,281.307 345.657,283.974 344.5,286.5C 344.682,284.409 344.348,282.409 343.5,280.5C 340.914,279.52 338.247,279.187 335.5,279.5 Z"/></g>
<g><path style="opacity:1" fill="#34b88e" d="M 335.5,279.5 C 338.247,279.187 340.914,279.52 343.5,280.5C 344.348,282.409 344.682,284.409 344.5,286.5C 340.366,287.485 336.032,287.818 331.5,287.5C 323.094,287.362 314.76,288.029 306.5,289.5C 305.523,286.713 305.19,283.713 305.5,280.5C 309.167,280.5 312.833,280.5 316.5,280.5C 322.815,279.89 329.149,279.557 335.5,279.5 Z"/></g>
<g><path style="opacity:1" fill="#def6ef" d="M 331.5,287.5 C 329.974,289.13 327.974,289.963 325.5,290C 318.986,290.82 312.653,290.653 306.5,289.5C 314.76,288.029 323.094,287.362 331.5,287.5 Z"/></g>
<g><path style="opacity:1" fill="#29b88c" d="M 494.5,349.5 C 493.728,350.694 492.728,351.694 491.5,352.5C 394.167,352.5 296.833,352.5 199.5,352.5C 199.354,356.519 199.021,360.519 198.5,364.5C 192.638,374.503 183.971,381.003 172.5,384C 154.218,389.107 138.385,384.941 125,371.5C 118.6,361.72 116.767,351.054 119.5,339.5C 124.301,336.718 129.301,334.385 134.5,332.5C 135.15,332.196 135.817,331.863 136.5,331.5C 137.167,338.989 137.833,346.322 138.5,353.5C 140.324,358.822 143.991,362.322 149.5,364C 158.593,366.631 167.26,365.631 175.5,361C 177.452,358.574 179.119,356.074 180.5,353.5C 181.852,341.796 183.185,329.963 184.5,318C 183.027,317.29 182.36,316.124 182.5,314.5C 185.361,314.658 188.028,313.992 190.5,312.5C 194.655,315.347 195.989,314.347 194.5,309.5C 196.297,308.27 198.297,307.604 200.5,307.5C 200.5,316.5 200.5,325.5 200.5,334.5C 226.833,334.5 253.167,334.5 279.5,334.5C 280.5,334.5 281.5,334.5 282.5,334.5C 282.334,327.825 282.5,321.158 283,314.5C 288.314,310.764 293.814,307.431 299.5,304.5C 301.475,314.446 302.142,324.779 301.5,335.5C 306.167,335.5 310.833,335.5 315.5,335.5C 315.334,328.825 315.5,322.158 316,315.5C 317.627,314.468 318.793,313.134 319.5,311.5C 320.71,311.068 321.71,310.401 322.5,309.5C 325.378,307.895 328.378,306.561 331.5,305.5C 333.474,315.111 334.141,325.111 333.5,335.5C 338.032,335.818 342.366,335.485 346.5,334.5C 347.33,326.01 347.83,317.343 348,308.5C 349.183,307.269 350.349,307.269 351.5,308.5C 350.572,309.768 350.405,311.101 351,312.5C 352.577,309.011 354.411,305.677 356.5,302.5C 358.336,300.412 360.669,299.079 363.5,298.5C 364.376,298.369 365.043,298.702 365.5,299.5C 365.432,311.38 365.432,323.38 365.5,335.5C 390.006,335.831 414.339,335.498 438.5,334.5C 436.574,332.707 434.241,331.707 431.5,331.5C 418.227,323.858 405.227,315.692 392.5,307C 395.143,302.214 397.643,297.38 400,292.5C 401.013,290.154 402.679,288.487 405,287.5C 428.985,305.791 455.152,320.291 483.5,331C 489.698,332.867 496.032,334.201 502.5,335C 499.428,339.647 496.762,344.48 494.5,349.5 Z"/></g>
<g><path style="opacity:1" fill="#4bb895" d="M 356.5,302.5 C 354.411,305.677 352.577,309.011 351,312.5C 350.405,311.101 350.572,309.768 351.5,308.5C 350.349,307.269 349.183,307.269 348,308.5C 347.83,317.343 347.33,326.01 346.5,334.5C 346.5,325.5 346.5,316.5 346.5,307.5C 349.611,305.39 352.944,303.723 356.5,302.5 Z"/></g>
<g><path style="opacity:1" fill="#2eb88c" d="M 155.5,305.5 C 166.01,304.508 170.51,309.175 169,319.5C 162.667,328.833 156.333,328.833 150,319.5C 148.268,313.314 150.101,308.647 155.5,305.5 Z"/></g>
<g><path style="opacity:1" fill="#62b69d" d="M 299.5,304.5 C 300.209,303.596 301.209,303.263 302.5,303.5C 302.5,304.5 302.5,305.5 302.5,306.5C 302.5,315.833 302.5,325.167 302.5,334.5C 306.5,334.5 310.5,334.5 314.5,334.5C 314.334,327.825 314.5,321.158 315,314.5C 316.271,313.117 317.771,312.117 319.5,311.5C 318.793,313.134 317.627,314.468 316,315.5C 315.5,322.158 315.334,328.825 315.5,335.5C 310.833,335.5 306.167,335.5 301.5,335.5C 302.142,324.779 301.475,314.446 299.5,304.5 Z"/></g>
<g><path style="opacity:1" fill="#39b28b" d="M 194.5,309.5 C 195.989,314.347 194.655,315.347 190.5,312.5C 188.028,313.992 185.361,314.658 182.5,314.5C 182.36,316.124 183.027,317.29 184.5,318C 183.185,329.963 181.852,341.796 180.5,353.5C 180.333,340.496 180.5,327.496 181,314.5C 185.452,312.69 189.952,311.024 194.5,309.5 Z"/></g>
<g><path style="opacity:1" fill="#49a68a" d="M 334.5,303.5 C 334.5,313.833 334.5,324.167 334.5,334.5C 338.5,334.5 342.5,334.5 346.5,334.5C 342.366,335.485 338.032,335.818 333.5,335.5C 334.141,325.111 333.474,315.111 331.5,305.5C 331.973,304.094 332.973,303.427 334.5,303.5 Z"/></g>
<g><path style="opacity:1" fill="#defef8" d="M 302.5,306.5 C 303.493,314.984 303.826,323.651 303.5,332.5C 306.833,332.5 310.167,332.5 313.5,332.5C 312.488,326.177 312.655,319.844 314,313.5C 316.397,311.218 319.231,309.884 322.5,309.5C 321.71,310.401 320.71,311.068 319.5,311.5C 317.771,312.117 316.271,313.117 315,314.5C 314.5,321.158 314.334,327.825 314.5,334.5C 310.5,334.5 306.5,334.5 302.5,334.5C 302.5,325.167 302.5,315.833 302.5,306.5 Z"/></g>
<g><path style="opacity:1" fill="#dcfef9" d="M 334.5,303.5 C 335.494,312.986 335.827,322.652 335.5,332.5C 338.833,332.5 342.167,332.5 345.5,332.5C 345.174,323.983 345.507,315.65 346.5,307.5C 346.5,316.5 346.5,325.5 346.5,334.5C 342.5,334.5 338.5,334.5 334.5,334.5C 334.5,324.167 334.5,313.833 334.5,303.5 Z"/></g>
<g><path style="opacity:1" fill="#d1fcf3" d="M 200.5,307.5 C 202.47,315.769 203.136,324.435 202.5,333.5C 228.339,333.169 254.005,333.502 279.5,334.5C 253.167,334.5 226.833,334.5 200.5,334.5C 200.5,325.5 200.5,316.5 200.5,307.5 Z"/></g>
<g><path style="opacity:1" fill="#c9fcf2" d="M 366.5,296.5 C 367.495,308.655 367.829,320.989 367.5,333.5C 389.503,333.667 411.503,333.5 433.5,333C 432.584,332.722 431.918,332.222 431.5,331.5C 434.241,331.707 436.574,332.707 438.5,334.5C 414.5,334.5 390.5,334.5 366.5,334.5C 366.5,321.833 366.5,309.167 366.5,296.5 Z"/></g>
<g><path style="opacity:1" fill="#49a688" d="M 366.5,296.5 C 366.5,309.167 366.5,321.833 366.5,334.5C 390.5,334.5 414.5,334.5 438.5,334.5C 414.339,335.498 390.006,335.831 365.5,335.5C 365.432,323.38 365.432,311.38 365.5,299.5C 365.043,298.702 364.376,298.369 363.5,298.5C 364.29,297.599 365.29,296.932 366.5,296.5 Z"/></g>
<g><path style="opacity:1" fill="#99d7c4" d="M 138.5,353.5 C 137.833,346.322 137.167,338.989 136.5,331.5C 135.817,331.863 135.15,332.196 134.5,332.5C 135.183,330.824 136.517,330.157 138.5,330.5C 138.5,338.167 138.5,345.833 138.5,353.5 Z"/></g>
<g><path style="opacity:1" fill="#5abc9b" d="M 491.5,352.5 C 394.839,354.498 297.839,355.164 200.5,354.5C 200.5,356.167 200.5,357.833 200.5,359.5C 200.204,361.403 199.537,363.07 198.5,364.5C 199.021,360.519 199.354,356.519 199.5,352.5C 296.833,352.5 394.167,352.5 491.5,352.5 Z"/></g>
<g><path style="opacity:1" fill="#e9fdf9" d="M 494.5,349.5 C 494.528,351.582 493.861,353.416 492.5,355C 395.501,355.5 298.501,355.667 201.5,355.5C 201.768,357.099 201.434,358.432 200.5,359.5C 200.5,357.833 200.5,356.167 200.5,354.5C 297.839,355.164 394.839,354.498 491.5,352.5C 492.728,351.694 493.728,350.694 494.5,349.5 Z"/></g>
<g><path style="opacity:1" fill="#d5bea2" d="M 762.5,393.5 C 763.499,435.997 763.832,478.663 763.5,521.5C 762.167,521.5 760.833,521.5 759.5,521.5C 723.031,500.764 686.697,479.764 650.5,458.5C 687.893,436.808 725.226,415.141 762.5,393.5 Z"/></g>
<g><path style="opacity:1" fill="#d9ccbf" d="M 762.5,393.5 C 762.56,392.957 762.893,392.624 763.5,392.5C 764.5,436.162 764.833,479.828 764.5,523.5C 762.447,523.598 760.78,522.931 759.5,521.5C 760.833,521.5 762.167,521.5 763.5,521.5C 763.832,478.663 763.499,435.997 762.5,393.5 Z"/></g>
</svg>
