<svg width="37" height="37" viewBox="0 0 37 37" fill="none" xmlns="http://www.w3.org/2000/svg">
<g id="Group">
<path id="Vector" d="M23.5888 20.4745C22.6248 21.0745 21.6152 21.4961 20.4952 21.7617C20.38 22.2441 20.264 22.7353 20.1464 23.2265C20.1176 23.3465 20.0936 23.4689 20.0544 23.5857C19.8976 24.0465 19.56 24.2897 19.0584 24.2969C18.5768 24.3033 18.0952 24.3033 17.6136 24.2969C17.0552 24.2897 16.7144 24.0313 16.5704 23.4825C16.4448 23.0049 16.348 22.5201 16.2352 22.0393C16.2136 21.9481 16.1768 21.8609 16.1424 21.7601C15.0456 21.4993 14.024 21.0713 13.072 20.4753C12.596 20.7697 12.1432 21.0537 11.6864 21.3329C11.0536 21.7193 10.6784 21.6729 10.1456 21.1449C9.8424 20.8449 9.5376 20.5465 9.2424 20.2385C8.8312 19.8097 8.7888 19.4049 9.0984 18.8945C9.376 18.4361 9.6632 17.9833 9.9448 17.5265C9.9584 17.5041 9.9592 17.4737 9.9808 17.3897C9.4456 16.4649 8.9704 15.4633 8.7416 14.3313C8.24 14.2113 7.7496 14.0929 7.26 13.9761C7.1664 13.9537 7.072 13.9377 6.98 13.9105C6.4488 13.7537 6.176 13.4065 6.1672 12.8593C6.16 12.4057 6.16 11.9513 6.1672 11.4969C6.176 10.9081 6.464 10.5457 7.0384 10.4057C7.5712 10.2761 8.108 10.1609 8.6696 10.0329C8.8536 9.4977 9.0152 8.9457 9.2344 8.4169C9.4488 7.8993 9.7216 7.4057 9.9784 6.8817C9.728 6.4785 9.4752 6.0705 9.2224 5.6625C9.1648 5.5689 9.104 5.4769 9.052 5.3801C8.7944 4.8977 8.8416 4.4985 9.2208 4.0993C9.5432 3.7601 9.8856 3.4409 10.2096 3.1033C10.5368 2.7625 11.0672 2.6089 11.5968 2.9529C11.9768 3.2001 12.3632 3.4385 12.7488 3.6785C12.8416 3.7361 12.94 3.7849 13.0632 3.8521C14.0032 3.2937 14.9976 2.8369 16.1128 2.5961C16.152 2.4905 16.2048 2.3809 16.2328 2.2649C16.344 1.8121 16.4416 1.3553 16.5552 0.902501C16.6952 0.342501 17.0304 0.0457013 17.596 0.0177013C18.0768 -0.00549873 18.56 -0.00629873 19.04 0.0177013C19.6048 0.0465013 19.9344 0.337701 20.0808 0.904901C20.1936 1.3433 20.2856 1.7865 20.3904 2.2273C20.4184 2.3449 20.4608 2.4585 20.4992 2.5817C21.6032 2.8201 22.5984 3.2753 23.5616 3.8425C23.7672 3.7233 23.9576 3.6185 24.1432 3.5049C24.448 3.3185 24.7448 3.1185 25.0536 2.9385C25.576 2.6345 26.0088 2.6849 26.44 3.1001C26.7672 3.4145 27.088 3.7361 27.4032 4.0633C27.8232 4.4985 27.8648 4.9193 27.5432 5.4473C27.2928 5.8585 27.0336 6.2641 26.78 6.6729C26.7368 6.7417 26.7 6.8145 26.6504 6.9049C27.236 7.8593 27.6664 8.8793 27.9312 9.9913C28.3808 10.0985 28.8192 10.2033 29.2576 10.3065C29.4048 10.3409 29.5544 10.3657 29.6992 10.4089C30.1824 10.5521 30.456 10.9049 30.4648 11.4113C30.4736 11.9065 30.4744 12.4025 30.4648 12.8969C30.4552 13.4017 30.1888 13.7545 29.6968 13.8929C29.2616 14.0153 28.8168 14.1065 28.3768 14.2129C28.2432 14.2449 28.1112 14.2817 27.9432 14.3249C27.6544 15.4025 27.2656 16.4537 26.64 17.4081C26.9312 17.8785 27.188 18.3321 27.4832 18.7617C27.9256 19.4065 27.7592 19.9601 27.296 20.3809C27.0008 20.6489 26.7336 20.9473 26.4456 21.2233C26.012 21.6385 25.58 21.6897 25.0576 21.3881C24.808 21.2441 24.5672 21.0833 24.3224 20.9305C24.0888 20.7841 23.8552 20.6401 23.5888 20.4745ZM25.6456 3.6513C25.56 3.6993 25.476 3.7433 25.3952 3.7937C24.9984 4.0409 24.6032 4.2913 24.2064 4.5377C23.7952 4.7929 23.3848 4.8065 22.964 4.5481C22.1744 4.0617 21.3264 3.7073 20.4248 3.4929C19.944 3.3785 19.66 3.0849 19.5488 2.6145C19.4824 2.3345 19.428 2.0513 19.3616 1.7705C19.2968 1.4937 19.2232 1.2193 19.1544 0.948901C18.5792 0.948901 18.0464 0.948901 17.5088 0.948901C17.4744 1.0425 17.4392 1.1161 17.42 1.1945C17.3064 1.6753 17.1936 2.1561 17.0864 2.6385C16.9872 3.0849 16.7208 3.3713 16.2784 3.4809C15.3376 3.7137 14.4528 4.0769 13.624 4.5793C13.2512 4.8049 12.8664 4.7945 12.4912 4.5673C12.3616 4.4889 12.236 4.4049 12.1072 4.3257C11.7352 4.0961 11.3624 3.8681 11.0328 3.6657C10.6176 4.0857 10.2344 4.4721 9.8264 4.8857C9.8816 4.9777 9.9584 5.1057 10.0368 5.2329C10.2752 5.6193 10.5192 6.0017 10.7512 6.3913C10.9592 6.7409 10.9544 7.0969 10.7448 7.4465C10.24 8.2889 9.8528 9.1777 9.632 10.1393C9.5384 10.5473 9.264 10.8081 8.8552 10.9129C8.616 10.9745 8.3744 11.0249 8.1344 11.0817C7.792 11.1633 7.4504 11.2473 7.0864 11.3353C7.0864 11.6489 7.0784 11.9225 7.0888 12.1953C7.0992 12.4649 7.0384 12.7409 7.1408 13.0129C7.6856 13.1377 8.22 13.2625 8.7544 13.3833C9.2304 13.4905 9.5336 13.7777 9.644 14.2529C9.8568 15.1721 10.2216 16.0273 10.7144 16.8297C10.9536 17.2193 10.9528 17.6065 10.708 17.9953C10.4512 18.4025 10.1976 18.8113 9.9456 19.2217C9.8904 19.3113 9.8512 19.4105 9.8416 19.4305C10.2464 19.8593 10.6112 20.2457 10.9976 20.6561C11.0952 20.6033 11.204 20.5513 11.3064 20.4881C11.6928 20.2505 12.0808 20.0145 12.4608 19.7673C12.8472 19.5161 13.2328 19.5169 13.6272 19.7401C13.6992 19.7809 13.7704 19.8217 13.8408 19.8641C14.5416 20.2833 15.2864 20.6041 16.0816 20.7833C16.6776 20.9177 17.0336 21.2401 17.128 21.8457C17.1384 21.9137 17.1552 21.9801 17.1704 22.0473C17.2688 22.4729 17.368 22.8993 17.4776 23.3673C18.0496 23.3713 18.6032 23.4001 19.1656 23.3465C19.2912 22.8169 19.432 22.3281 19.5192 21.8305C19.6232 21.2369 19.9592 20.9225 20.5344 20.7897C21.3832 20.5929 22.18 20.2529 22.92 19.7921C23.3664 19.5137 23.7904 19.5073 24.2296 19.7985C24.5736 20.0265 24.9256 20.2409 25.2776 20.4569C25.4024 20.5337 25.5352 20.5969 25.6752 20.6721C25.8968 20.4537 26.1 20.2689 26.2848 20.0681C26.4672 19.8697 26.7136 19.7241 26.8224 19.4393C26.532 18.9721 26.2504 18.5001 25.9488 18.0417C25.6752 17.6257 25.6776 17.2201 25.9344 16.8049C26.4144 16.0273 26.7664 15.1945 26.9768 14.3049C27.1064 13.7593 27.4424 13.4649 27.9904 13.3609C28.5 13.2649 29.0016 13.1281 29.516 13.0073C29.516 12.4337 29.516 11.8897 29.516 11.3361C29.4064 11.3009 29.3176 11.2665 29.2256 11.2449C28.772 11.1361 28.3184 11.0233 27.8624 10.9265C27.3944 10.8265 27.1072 10.5401 26.9976 10.0889C26.7752 9.1729 26.4296 8.3105 25.932 7.5097C25.6712 7.0897 25.6792 6.6873 25.9536 6.2753C26.2048 5.8977 26.4392 5.5081 26.6752 5.1217C26.7368 5.0209 26.78 4.9089 26.82 4.8249C26.4176 4.4209 26.048 4.0529 25.6456 3.6513Z" fill="white"/>
<path id="Vector_2" d="M0 33.2302C0.048 32.9246 0.2376 32.7758 0.5384 32.771C0.8072 32.7662 1.0088 32.6366 1.1864 32.455C1.3408 32.2982 1.4944 32.1406 1.6424 31.9774C2.392 31.1486 3.6656 31.1358 4.4192 31.9646C4.5392 32.0966 4.6736 32.2174 4.7872 32.355C5.288 32.9638 5.98 32.8614 6.3808 32.3686C6.5024 32.2198 6.648 32.091 6.7768 31.9486C7.4328 31.2246 8.6248 31.103 9.436 31.8806C9.5944 32.0326 9.736 32.2022 9.8848 32.3638C10.3872 32.9102 10.9288 32.9214 11.4544 32.3942C11.6384 32.2094 11.816 32.0166 12.0032 31.8342C12.6648 31.1886 13.82 31.1918 14.4736 31.8382C14.6592 32.0222 14.8368 32.2142 15.0208 32.3998C15.5312 32.9126 16.0592 32.9054 16.564 32.3886C16.7936 32.1534 17.012 31.8998 17.2704 31.7006C17.9328 31.1886 18.884 31.231 19.5152 31.787C19.7416 31.9862 19.9392 32.2182 20.1536 32.4318C20.6232 32.8974 21.1272 32.8982 21.5976 32.4334C21.764 32.2694 21.9224 32.0966 22.084 31.9278C22.8248 31.155 24.0448 31.1598 24.7736 31.9286C24.9536 32.1182 25.1288 32.3126 25.3192 32.4918C25.7192 32.8686 26.204 32.8782 26.6136 32.5126C26.808 32.339 26.9856 32.1454 27.1608 31.9518C27.8456 31.1942 29.1096 31.0886 29.9376 31.9926C30.0864 32.155 30.2248 32.327 30.3848 32.4774C30.8128 32.8798 31.3192 32.8814 31.7488 32.4838C31.8896 32.3534 32.0168 32.207 32.1416 32.0606C32.9528 31.1142 34.2608 31.1382 35.0024 31.975C35.1208 32.1086 35.2496 32.2334 35.3712 32.3646C35.5832 32.5926 35.8224 32.7486 36.1496 32.7782C36.4664 32.807 36.6048 32.9934 36.5776 33.2702C36.5528 33.5238 36.3424 33.7022 36.0568 33.687C35.5048 33.6574 35.0632 33.3998 34.6952 32.9998C34.556 32.8478 34.424 32.687 34.2728 32.5478C33.8432 32.1534 33.2856 32.1702 32.8728 32.5846C32.7176 32.7406 32.5808 32.9142 32.4256 33.0694C31.5952 33.8982 30.5088 33.899 29.6832 33.0734C29.508 32.8982 29.3456 32.7102 29.1656 32.5406C28.7704 32.1694 28.2296 32.1702 27.8336 32.5438C27.644 32.723 27.4736 32.923 27.2872 33.1054C26.4872 33.8894 25.4032 33.8846 24.6032 33.095C24.4568 32.9502 24.304 32.8078 24.1776 32.6462C23.78 32.1374 23.0088 32.155 22.6336 32.635C22.4984 32.807 22.3352 32.959 22.1784 33.1126C21.4024 33.871 20.3504 33.8846 19.5552 33.1446C19.4048 33.0046 19.256 32.8574 19.1328 32.6926C18.7256 32.147 17.9496 32.1174 17.4976 32.6686C17.324 32.8798 17.1312 33.0814 16.92 33.2542C16.1608 33.8734 15.1984 33.831 14.4896 33.1582C14.2904 32.9686 14.1104 32.7598 13.9128 32.5686C13.4888 32.1582 12.9456 32.1598 12.52 32.5718C12.352 32.7342 12.1992 32.9126 12.0336 33.0766C11.2032 33.899 10.116 33.8942 9.2904 33.0654C9.1352 32.9094 8.9744 32.7574 8.8352 32.587C8.488 32.1622 7.7384 32.175 7.4072 32.5766C7.2592 32.7566 7.0896 32.9198 6.924 33.0846C6.1144 33.891 5.0272 33.8918 4.2096 33.087C4.0336 32.9134 3.8568 32.739 3.696 32.5502C3.3744 32.1726 2.6288 32.1886 2.324 32.5486C2.1464 32.7582 1.9424 32.9446 1.7536 33.1446C1.4672 33.4486 1.1032 33.5998 0.7032 33.6718C0.3208 33.743 0.1424 33.6254 0 33.2302Z" fill="white"/>
<path id="Vector_3" d="M0.00558472 27.3393C0.0511847 27.0369 0.216785 26.8921 0.480785 26.8713C0.869585 26.8401 1.13118 26.6217 1.37118 26.3377C1.70238 25.9457 2.07278 25.6089 2.60318 25.4881C3.23358 25.3441 3.77438 25.5057 4.24558 25.9225C4.46158 26.1137 4.66478 26.3217 4.84959 26.5433C5.17999 26.9393 5.92958 26.9617 6.28078 26.5377C6.42078 26.3689 6.57998 26.2153 6.73518 26.0585C7.55678 25.2281 8.65679 25.2209 9.47999 26.0409C9.65518 26.2161 9.83358 26.3889 9.99358 26.5769C10.304 26.9409 11.04 26.9281 11.3328 26.5849C11.5024 26.3865 11.6904 26.2033 11.8768 26.0201C12.6648 25.2425 13.7288 25.2297 14.5304 25.9921C14.6992 26.1529 14.8536 26.3305 15.0056 26.5081C15.3944 26.9617 16.112 26.9601 16.5008 26.5209C16.7096 26.2849 16.9248 26.0481 17.168 25.8497C17.9104 25.2473 18.8704 25.2929 19.5672 25.9497C19.7768 26.1481 19.9656 26.3689 20.1744 26.5681C20.5688 26.9449 21.1064 26.9545 21.5104 26.5889C21.6832 26.4321 21.832 26.2497 21.996 26.0833C22.8536 25.2129 23.9408 25.2089 24.7968 26.0721C24.9616 26.2385 25.1144 26.4161 25.2848 26.5761C25.68 26.9473 26.2224 26.9489 26.6168 26.5769C26.8072 26.3977 26.9776 26.1985 27.164 26.0153C27.952 25.2409 29.0208 25.2313 29.8184 25.9945C29.9872 26.1561 30.1464 26.3281 30.2984 26.5057C30.6976 26.9721 31.44 26.9497 31.7896 26.5145C31.9272 26.3433 32.0944 26.1969 32.244 26.0353C32.9688 25.2529 34.152 25.1977 34.9856 26.0601C35.0808 26.1585 35.1696 26.2641 35.26 26.3681C35.4912 26.6361 35.7536 26.8409 36.1272 26.8673C36.3128 26.8801 36.4752 26.9585 36.5528 27.1465C36.6744 27.4433 36.4848 27.7369 36.152 27.7577C35.6384 27.7905 35.2136 27.5841 34.8504 27.2393C34.6616 27.0593 34.4904 26.8601 34.304 26.6777C33.848 26.2297 33.3416 26.2281 32.888 26.6721C32.7016 26.8553 32.5232 27.0465 32.3424 27.2353C31.6928 27.9153 30.4952 27.9705 29.7736 27.2633C29.6072 27.1001 29.4552 26.9217 29.2952 26.7513C28.7848 26.2089 28.2496 26.2025 27.7248 26.7345C27.5992 26.8617 27.4744 26.9905 27.3568 27.1249C26.5992 27.9857 25.3144 27.9857 24.5568 27.1369C24.4104 26.9729 24.2608 26.8097 24.1016 26.6585C23.648 26.2273 23.1216 26.2369 22.6784 26.6825C22.5232 26.8385 22.3792 27.0057 22.2304 27.1673C21.4704 27.9945 20.1824 27.9497 19.4824 27.1601C19.3368 26.9953 19.1824 26.8377 19.0256 26.6833C18.5576 26.2217 18.052 26.2265 17.58 26.6961C17.4336 26.8417 17.2904 26.9905 17.1528 27.1441C16.3992 27.9809 15.1224 27.9761 14.3752 27.1545C14.2176 26.9817 14.0576 26.8105 13.8888 26.6489C13.4592 26.2385 12.9672 26.2361 12.5328 26.6441C12.3528 26.8137 12.1832 26.9953 12.0168 27.1785C11.336 27.9289 10.08 28.0193 9.26878 27.1465C9.16558 27.0361 9.06398 26.9241 8.96719 26.8073C8.46239 26.2001 7.78798 26.1745 7.25278 26.8225C7.17439 26.9177 7.09038 27.0097 7.00798 27.1017C6.19118 28.0225 4.90078 27.9441 4.20318 27.1625C4.04718 26.9881 3.88558 26.8185 3.71678 26.6569C3.27518 26.2369 2.76958 26.2297 2.32078 26.6465C2.12958 26.8233 1.97038 27.0345 1.78398 27.2169C1.44878 27.5433 1.05758 27.7569 0.573585 27.7577C0.219185 27.7625 0.158385 27.7193 0.00558472 27.3393Z" fill="white"/>
<path id="Vector_4" d="M3.02321 28.373C3.55201 28.3866 3.98801 28.5978 4.36001 28.9506C4.50881 29.0922 4.64721 29.2474 4.77761 29.4066C5.19441 29.9138 5.91921 29.965 6.35201 29.4402C6.50001 29.2602 6.66801 29.0946 6.83681 28.933C7.59841 28.205 8.668 28.205 9.42801 28.9346C9.61681 29.1154 9.79601 29.3066 9.97281 29.4978C10.344 29.8994 11.0248 29.929 11.4008 29.493C11.5712 29.2954 11.7568 29.1098 11.9448 28.929C12.692 28.213 13.7488 28.205 14.5056 28.9122C14.7168 29.109 14.9032 29.3322 15.112 29.5306C15.4992 29.8994 16.0112 29.9162 16.4136 29.5674C16.5896 29.4154 16.7416 29.2346 16.9 29.0634C17.7104 28.1842 18.86 28.1578 19.7016 29.0026C19.8664 29.1682 20.02 29.3458 20.188 29.5074C20.6088 29.9138 21.1168 29.9258 21.5488 29.5322C21.7112 29.385 21.848 29.2098 22.0016 29.053C22.8856 28.1466 24.0352 28.165 24.8952 29.0978C25.016 29.229 25.1336 29.3642 25.2544 29.4962C25.628 29.905 26.308 29.9274 26.6816 29.4954C26.8432 29.3082 27.0184 29.1322 27.196 28.9594C27.9864 28.1914 29.0592 28.1938 29.8464 28.9658C30.0232 29.1394 30.2008 29.3138 30.36 29.5026C30.7024 29.9098 31.4328 29.917 31.7872 29.493C31.9456 29.3034 32.124 29.1306 32.3016 28.957C33.0744 28.2018 34.14 28.1946 34.9216 28.9394C35.0904 29.1002 35.248 29.2746 35.408 29.445C35.6016 29.6506 35.8168 29.7954 36.1176 29.817C36.2504 29.8266 36.4184 29.917 36.4912 30.025C36.5624 30.1314 36.5728 30.3162 36.5384 30.4474C36.4896 30.633 36.3216 30.721 36.124 30.7266C35.7528 30.7362 35.4088 30.6306 35.1224 30.4058C34.8648 30.2042 34.6368 29.9618 34.4064 29.7274C34.1896 29.5074 33.968 29.3194 33.632 29.3138C33.3512 29.309 33.12 29.393 32.9272 29.5922C32.7456 29.7802 32.5688 29.973 32.3816 30.1554C31.5768 30.9426 30.4472 30.925 29.6648 30.1138C29.5216 29.9658 29.3816 29.8138 29.2456 29.6586C28.8576 29.2138 28.1592 29.181 27.7592 29.653C27.5904 29.8522 27.4048 30.0378 27.2144 30.2162C26.4736 30.9122 25.4256 30.913 24.6864 30.217C24.476 30.0194 24.288 29.7978 24.08 29.5986C23.6784 29.2146 23.1616 29.2042 22.7472 29.5746C22.584 29.721 22.44 29.8898 22.2912 30.0514C21.468 30.9474 20.32 30.9674 19.4616 30.0978C19.2976 29.9314 19.132 29.7658 18.976 29.5914C18.6504 29.2274 18.0128 29.2194 17.6744 29.5562C17.4896 29.7402 17.3168 29.937 17.1328 30.121C16.7704 30.4834 16.344 30.7106 15.82 30.7282C15.2296 30.7474 14.7552 30.5018 14.3544 30.0906C14.2008 29.933 14.0592 29.765 13.9072 29.605C13.5416 29.2194 12.8728 29.2018 12.5104 29.6194C12.348 29.8058 12.1736 29.9826 11.9968 30.1554C11.2064 30.9274 10.1336 30.9306 9.34721 30.1626C9.16001 29.9802 8.97441 29.7954 8.80321 29.5978C8.47281 29.2154 7.75841 29.221 7.43601 29.5922C7.25601 29.7994 7.06161 29.9954 6.86321 30.1858C6.10241 30.9178 5.03841 30.9186 4.27281 30.1882C4.07361 29.9986 3.89521 29.7874 3.69681 29.5978C3.29601 29.2154 2.77521 29.201 2.36161 29.5674C2.18721 29.7218 2.04001 29.9058 1.87841 30.0746C1.49281 30.4786 1.03841 30.7362 0.462406 30.725C0.263205 30.721 0.128805 30.6178 0.0480055 30.4378C-0.0215945 30.2826 0.00480555 30.125 0.109606 30.0138C0.197606 29.921 0.336806 29.825 0.456006 29.8218C0.888005 29.8114 1.16481 29.5714 1.41921 29.265C1.72161 28.901 2.06641 28.5874 2.54241 28.4658C2.69921 28.4258 2.86241 28.4042 3.02321 28.373Z" fill="white"/>
<path id="Vector_5" d="M0.00320435 36.1817C0.0640043 35.8929 0.213604 35.7433 0.490404 35.7353C0.799204 35.7265 1.0376 35.5753 1.2424 35.3577C1.4024 35.1873 1.568 35.0217 1.7272 34.8513C2.3992 34.1337 3.6592 34.1337 4.3264 34.8329C4.4784 34.9921 4.6312 35.1505 4.7848 35.3081C5.344 35.8841 5.8392 35.8809 6.4072 35.2961C6.5512 35.1481 6.696 35.0009 6.836 34.8497C7.4872 34.1449 8.7352 34.1209 9.4344 34.8353C9.6168 35.0225 9.7936 35.2153 9.98 35.3985C10.4352 35.8457 10.9288 35.8513 11.3968 35.4089C11.5664 35.2489 11.7088 35.0609 11.8744 34.8961C12.472 34.3001 13.1784 34.1633 13.9592 34.4521C14.3136 34.5833 14.5752 34.8577 14.8248 35.1361C14.9528 35.2785 15.0832 35.4249 15.2352 35.5385C15.62 35.8257 16.0456 35.8033 16.4 35.4809C16.5928 35.3057 16.772 35.1137 16.9472 34.9201C17.6944 34.0945 18.9952 34.1233 19.6944 34.9105C19.8584 35.0953 20.0296 35.2761 20.2104 35.4441C20.6312 35.8353 21.1168 35.8369 21.5376 35.4481C21.7296 35.2713 21.908 35.0785 22.0832 34.8857C22.7792 34.1193 24.0776 34.1201 24.7712 34.8857C24.9464 35.0793 25.1264 35.2705 25.316 35.4489C25.7152 35.8241 26.204 35.8345 26.612 35.4721C26.776 35.3265 26.9224 35.1601 27.0672 34.9945C27.8896 34.0481 29.2056 34.1225 29.9328 34.9473C30.06 35.0921 30.1904 35.2337 30.3232 35.3729C30.7824 35.8521 31.344 35.8561 31.8048 35.3833C31.968 35.2161 32.1208 35.0385 32.2824 34.8697C32.9808 34.1433 34.2112 34.0865 34.9728 34.8969C35.1144 35.0473 35.2568 35.1961 35.3944 35.3497C35.596 35.5745 35.8432 35.6977 36.144 35.7385C36.476 35.7833 36.6216 35.9745 36.5736 36.2625C36.532 36.5089 36.3088 36.6577 36.0192 36.6337C35.564 36.5953 35.1688 36.4249 34.8472 36.0961C34.6648 35.9089 34.4888 35.7161 34.3008 35.5337C33.8456 35.0913 33.336 35.0913 32.8816 35.5353C32.7144 35.6985 32.5608 35.8753 32.4 36.0449C31.6264 36.8577 30.408 36.8145 29.6856 36.0401C29.5264 35.8689 29.3672 35.6969 29.1992 35.5345C28.7328 35.0833 28.2008 35.0969 27.752 35.5689C27.6096 35.7185 27.4736 35.8737 27.332 36.0233C26.5464 36.8513 25.3432 36.8505 24.5568 36.0113C24.4344 35.8809 24.312 35.7513 24.1904 35.6193C23.6968 35.0817 23.168 35.0649 22.6592 35.5753C22.484 35.7505 22.3176 35.9337 22.1424 36.1089C21.44 36.8121 20.2808 36.8041 19.6112 36.1441C19.4152 35.9513 19.232 35.7457 19.036 35.5529C18.5656 35.0897 18.0544 35.0873 17.5864 35.5457C17.4192 35.7097 17.2592 35.8801 17.1 36.0513C16.36 36.8449 15.1384 36.8193 14.4192 36.0577C14.2496 35.8777 14.0816 35.6953 13.9032 35.5241C13.4712 35.1089 12.988 35.0953 12.544 35.4929C12.3808 35.6393 12.2448 35.8153 12.0936 35.9745C11.596 36.5001 11 36.7369 10.2728 36.5953C9.8936 36.5217 9.588 36.3193 9.3184 36.0561C9.1312 35.8737 8.96161 35.6737 8.7712 35.4945C8.3592 35.1065 7.8632 35.1097 7.4496 35.5025C7.2704 35.6729 7.1048 35.8577 6.9336 36.0369C6.1936 36.8129 5.0464 36.8409 4.2752 36.1097C4.1056 35.9489 3.9592 35.7657 3.796 35.5977C3.2904 35.0761 2.7632 35.0713 2.2552 35.5833C2.0904 35.7489 1.9352 35.9249 1.7688 36.0889C1.4664 36.3873 1.1088 36.5721 0.679204 36.6193C0.285604 36.6609 0.162404 36.5929 0.00320435 36.1817Z" fill="white"/>
<path id="Vector_6" d="M18.3176 18.7718C14.6776 18.8254 11.6816 15.7638 11.6872 12.1478C11.6928 8.68217 14.4952 5.54697 18.308 5.54297C22.1512 5.53897 24.9552 8.71417 24.9384 12.179C24.92 15.8358 21.8976 18.8206 18.3176 18.7718ZM24.0112 12.1782C24.0736 9.19017 21.6184 6.48137 18.3576 6.45657C15.0576 6.43177 12.62 9.15737 12.6008 12.1302C12.5824 15.035 14.8808 17.8902 18.3296 17.8718C21.8624 17.8534 24.0728 14.9422 24.0112 12.1782Z" fill="white"/>
<path id="Vector_7" d="M18.3264 7.54089C18.5312 7.57369 18.6608 7.68169 18.7472 7.85449C19.5744 9.50089 20.3888 11.1521 20.96 12.9105C21.1728 13.5649 21.2296 14.2217 20.9936 14.8905C20.6008 16.0041 19.4528 16.8969 18.0168 16.7753C16.8408 16.6753 15.728 15.6801 15.5152 14.4817C15.4304 14.0041 15.4816 13.5273 15.6224 13.0553C15.9624 11.9193 16.4432 10.8401 16.9392 9.76809C17.2216 9.15689 17.5304 8.55769 17.8256 7.95209C17.9256 7.74649 18.0448 7.56729 18.3264 7.54089ZM18.3288 9.03609C18.2488 9.17129 18.2016 9.23609 18.1688 9.30809C17.7664 10.1953 17.3456 11.0761 16.9712 11.9753C16.7504 12.5049 16.5648 13.0561 16.4312 13.6137C16.1312 14.8617 17.324 16.2473 18.9264 15.7689C19.8176 15.5025 20.4664 14.4889 20.1656 13.4377C19.7336 11.9249 19.0336 10.5257 18.3288 9.03609Z" fill="white"/>
<path id="Vector_8" d="M17.6416 13.4865C17.9768 13.5257 18.0888 13.7617 18.1104 14.0729C18.244 14.1201 18.3608 14.1544 18.4704 14.2024C18.6864 14.296 18.7784 14.4705 18.7424 14.6985C18.708 14.9169 18.5576 15.04 18.3096 15.0536C17.7464 15.084 17.1816 14.5441 17.1816 13.9745C17.1808 13.7273 17.3008 13.6009 17.6416 13.4865Z" fill="white"/>
</g>
</svg>
