<svg width="40" height="40" viewBox="0 0 40 40" fill="none" xmlns="http://www.w3.org/2000/svg">
<g id="&#216;&#167;&#217;&#138;&#217;&#131;&#217;&#136;&#217;&#134; &#216;&#167;&#217;&#132;&#216;&#170;&#216;&#175;&#216;&#180;&#217;&#138;&#217;&#134;_10">
<g id="Group">
<path id="Vector" d="M22.6808 12.1558C15.7112 12.1558 8.76477 12.1558 1.79517 12.1558C1.79517 8.70697 1.79517 5.27657 1.79517 1.82617C8.75277 1.82617 15.7 1.82617 22.6808 1.82617C22.6808 5.25257 22.6808 8.68137 22.6808 12.1558ZM21.2504 9.42697C21.2504 7.78777 21.2504 6.17337 21.2504 4.55177C20.4872 4.44137 20.0568 4.01577 19.9608 3.25257C14.812 3.25257 9.67597 3.25257 4.52637 3.25257C4.42077 4.03097 3.97517 4.45977 3.22717 4.55417C3.22717 6.19977 3.22717 7.81257 3.22717 9.41897C4.03997 9.58937 4.23597 9.78297 4.55357 10.7078C9.68717 10.7078 14.8232 10.7078 19.9536 10.7078C20.132 9.88697 20.444 9.57737 21.2504 9.42697Z" fill="white"/>
<path id="Vector_2" d="M3.61833 29.901C3.62953 27.4426 5.63433 25.4682 8.10873 25.4786C10.5399 25.489 12.5439 27.5042 12.5399 29.9346C12.5359 32.3762 10.5079 34.3882 8.05593 34.3818C5.60233 34.3762 3.60713 32.361 3.61833 29.901ZM6.76793 32.6434C7.01593 32.6354 7.12953 32.461 7.23753 32.273C8.05193 30.861 8.86953 29.4514 9.68313 28.0394C9.73753 27.9442 9.79433 27.8426 9.81513 27.737C9.85833 27.5202 9.77673 27.349 9.56953 27.2506C9.37593 27.1586 9.20473 27.2058 9.06393 27.353C8.99673 27.4234 8.94873 27.513 8.89993 27.5978C8.08873 28.997 7.27833 30.397 6.46873 31.797C6.41913 31.8826 6.36553 31.9682 6.33433 32.061C6.23753 32.3546 6.46393 32.6522 6.76793 32.6434ZM7.86793 28.405C7.87033 27.8602 7.66473 27.4354 7.17353 27.1818C6.73833 26.957 6.30713 26.9962 5.90793 27.269C5.17273 27.7714 5.17113 29.0042 5.89993 29.5146C6.30073 29.7946 6.73593 29.8234 7.16713 29.6114C7.66233 29.369 7.86873 28.9386 7.86793 28.405ZM8.28873 31.461C8.28953 32.3506 8.96793 32.9578 9.76713 32.7826C10.2423 32.6786 10.5759 32.3994 10.7063 31.9322C10.8495 31.4218 10.8175 30.9242 10.4351 30.5074C10.0879 30.129 9.55113 30.0098 9.07353 30.1962C8.56393 30.397 8.28793 30.8402 8.28873 31.461Z" fill="white"/>
<path id="Vector_3" d="M32.644 5.91657C32.7 6.17977 32.7536 6.43257 32.8176 6.73337C33.0984 6.84937 33.4024 6.97577 33.7088 7.10217C33.9528 6.94537 34.18 6.79897 34.4152 6.64777C34.728 6.98457 35.036 7.31657 35.372 7.67737C35.2576 7.85177 35.1104 8.07657 34.9448 8.32857C35.0608 8.61097 35.1816 8.90537 35.3088 9.21657C35.5728 9.27497 35.836 9.33337 36.1296 9.39817C36.1296 9.84857 36.1296 10.299 36.1296 10.7838C35.8704 10.843 35.6088 10.903 35.3144 10.971C35.1976 11.2478 35.0736 11.5422 34.944 11.8502C35.096 12.087 35.2472 12.3238 35.3944 12.5534C35.0584 12.8766 34.7392 13.1838 34.388 13.5214C34.1936 13.3966 33.9576 13.2446 33.7096 13.0862C33.4128 13.2094 33.1176 13.331 32.8224 13.4534C32.7592 13.7334 32.7 13.9958 32.6368 14.2742C32.1768 14.2742 31.7344 14.2742 31.2528 14.2742C31.1928 14.007 31.1328 13.735 31.0696 13.4542C30.7752 13.331 30.4912 13.2126 30.1864 13.0846C29.9544 13.2334 29.7168 13.3854 29.4936 13.5286C29.1648 13.191 28.8488 12.8662 28.5152 12.5238C28.6384 12.3326 28.784 12.1054 28.9464 11.8518C28.828 11.5654 28.7064 11.2718 28.58 10.9678C28.2976 10.9046 28.0224 10.843 27.7408 10.7806C27.7408 10.3182 27.7408 9.87577 27.7408 9.40857C28.02 9.34537 28.2936 9.28377 28.5784 9.21897C28.6992 8.92937 28.8176 8.64617 28.9464 8.33817C28.796 8.10457 28.644 7.86697 28.4944 7.63417C28.8264 7.31417 29.1544 6.99737 29.4992 6.66457C29.7048 6.79417 29.9416 6.94457 30.1872 7.10057C30.4816 6.97817 30.7648 6.86057 31.0664 6.73577C31.1256 6.47097 31.184 6.20777 31.2496 5.91577C31.696 5.91657 32.148 5.91657 32.644 5.91657ZM29.7856 10.1118C29.7928 11.3118 30.776 12.279 31.9728 12.2622C33.1512 12.2462 34.116 11.2726 34.1176 10.0966C34.1192 8.89897 33.1464 7.93417 31.9392 7.93737C30.7296 7.93977 29.7784 8.90057 29.7856 10.1118Z" fill="white"/>
<path id="Vector_4" d="M34.5679 29.8747C32.5375 29.8835 30.9047 28.2611 30.9055 26.2347C30.9063 24.2291 32.5287 22.5995 34.5335 22.5899C36.5447 22.5803 38.2047 24.2291 38.2047 26.2371C38.2047 28.2363 36.5751 29.8659 34.5679 29.8747ZM34.0751 24.0595C33.4295 24.2411 32.9095 24.5643 32.8823 25.2771C32.8519 26.0715 33.4391 26.3987 34.0775 26.6195C34.0775 26.8939 34.0775 27.1443 34.0775 27.4067C33.8303 27.3731 33.7615 27.2035 33.6767 27.0363C33.5527 26.7915 33.3487 26.7083 33.1287 26.7875C32.8871 26.8739 32.7815 27.0771 32.8511 27.3563C32.9391 27.7123 33.1639 27.9723 33.4775 28.1491C33.6687 28.2571 33.8775 28.3331 34.0775 28.4235C34.1423 28.8883 34.2671 29.0547 34.5495 29.0563C34.8255 29.0579 34.9455 28.9091 35.0511 28.4251C35.1495 28.3947 35.2559 28.3651 35.3599 28.3299C35.8679 28.1563 36.2271 27.8435 36.2735 27.2795C36.3207 26.7083 35.9935 26.3563 35.5215 26.1115C35.3599 26.0275 35.1871 25.9643 35.0383 25.8995C35.0383 25.5987 35.0383 25.3243 35.0383 25.0499C35.0655 25.0363 35.0927 25.0219 35.1199 25.0083C35.2135 25.1235 35.3199 25.2299 35.3975 25.3555C35.5599 25.6163 35.7823 25.7139 36.0159 25.6059C36.2415 25.5011 36.3511 25.2387 36.2111 24.9771C36.0871 24.7459 35.9127 24.5227 35.7095 24.3587C35.5247 24.2091 35.2711 24.1419 35.0407 24.0355C34.9551 23.5755 34.8063 23.3915 34.5255 23.4099C34.2623 23.4251 34.1399 23.5971 34.0751 24.0595Z" fill="white"/>
<path id="Vector_5" d="M22.5392 17.3133C23.4888 16.3621 24.432 15.4165 25.388 14.4589C25.1976 13.5005 25.8432 13.0109 26.3952 12.9981C27.056 12.9829 27.5816 13.4997 27.5392 14.1325C27.4904 14.8589 26.9128 15.2501 26.1072 15.1317C25.1392 16.0989 24.1872 17.0501 23.2128 18.0237C23.376 18.8533 22.9264 19.3229 22.4008 19.4541C21.7352 19.6197 21.2384 19.2461 20.9872 18.4069C20.2176 18.1085 19.4352 17.8061 18.6536 17.5029C18.2816 17.7733 17.8984 17.9181 17.4352 17.7445C16.5256 18.7005 15.6144 19.6573 14.6288 20.6925C14.6888 21.4757 14.2792 22.0557 13.5424 22.0477C12.9152 22.0405 12.4008 21.5029 12.4376 20.8933C12.4824 20.1461 13.0784 19.7509 14.0208 19.8917C14.9016 18.9685 15.8064 18.0205 16.7512 17.0301C16.6112 16.2821 17.0024 15.7629 17.6472 15.6277C18.2696 15.4965 18.7504 15.8845 18.9896 16.6901C19.7576 16.9885 20.5392 17.2925 21.3088 17.5917C21.8472 17.2733 21.8472 17.2733 22.5392 17.3133Z" fill="white"/>
<path id="Vector_6" d="M27.6248 26.8023C26.816 26.8023 26.0392 26.8023 25.2344 26.8023C25.2344 23.5743 25.2344 20.3583 25.2344 17.1191C26.0264 17.1191 26.812 17.1191 27.6248 17.1191C27.6248 20.3367 27.6248 23.5527 27.6248 26.8023Z" fill="white"/>
<path id="Vector_7" d="M19.0327 26.7972C18.2311 26.7972 17.4551 26.7972 16.6527 26.7972C16.6527 24.4324 16.6527 22.0828 16.6527 19.7148C17.4479 19.7148 18.2239 19.7148 19.0327 19.7148C19.0327 22.0644 19.0327 24.414 19.0327 26.7972Z" fill="white"/>
<path id="Vector_8" d="M20.944 20.9727C21.7504 20.9727 22.5272 20.9727 23.328 20.9727C23.328 22.9111 23.328 24.8335 23.328 26.7847C22.5472 26.7847 21.7616 26.7847 20.944 26.7847C20.944 24.8623 20.944 22.9319 20.944 20.9727Z" fill="white"/>
<path id="Vector_9" d="M31.224 31.5302C31.224 31.1238 31.224 30.807 31.224 30.4318C31.3792 30.3942 31.5264 30.3278 31.6736 30.3278C33.5936 30.3206 35.5128 30.3214 37.4328 30.3246C37.7952 30.3254 37.8952 30.4326 37.9072 30.7854C37.9328 31.587 37.9056 31.615 37.0928 31.615C35.3216 31.615 33.5504 31.6174 31.7792 31.6118C31.6048 31.6102 31.4296 31.5614 31.224 31.5302Z" fill="white"/>
<path id="Vector_10" d="M14.7512 23.4141C14.7512 24.5405 14.7512 25.6485 14.7512 26.7845C13.9608 26.7845 13.1744 26.7845 12.3576 26.7845C12.3576 25.6797 12.3576 24.5629 12.3576 23.4141C13.144 23.4141 13.9376 23.4141 14.7512 23.4141Z" fill="white"/>
<path id="Vector_11" d="M37.7192 36.9106C37.9016 37.1346 37.9928 37.7746 37.8568 37.973C37.796 38.0618 37.6704 38.1274 37.5616 38.157C37.4464 38.189 37.316 38.1666 37.192 38.1666C35.384 38.1666 33.5768 38.169 31.7688 38.1634C31.5952 38.1626 31.4224 38.1114 31.2056 38.0762C31.2056 37.7514 31.2008 37.4826 31.2072 37.2146C31.212 37.005 31.3376 36.905 31.5392 36.8914C31.6256 36.8858 31.712 36.885 31.7992 36.885C33.632 36.885 35.464 36.8842 37.2968 36.8858C37.444 36.8858 37.5912 36.9034 37.7192 36.9106Z" fill="white"/>
<path id="Vector_12" d="M31.236 35.9061C31.236 35.5213 31.236 35.1941 31.236 34.8045C31.3744 34.7693 31.5208 34.6997 31.6672 34.6989C33.5864 34.6917 35.5056 34.6925 37.4248 34.6957C37.8032 34.6965 37.9 34.8021 37.908 35.1837C37.9248 35.9621 37.908 35.9789 37.1392 35.9789C35.356 35.9789 33.5736 35.9805 31.7904 35.9757C31.6144 35.9749 31.4384 35.9325 31.236 35.9061Z" fill="white"/>
<path id="Vector_13" d="M37.7511 32.5388C38.0031 32.886 37.9159 33.2444 37.8615 33.5892C37.8495 33.6652 37.7111 33.7388 37.6159 33.7796C37.5423 33.8116 37.4455 33.7924 37.3591 33.7924C35.4895 33.7932 33.6199 33.7932 31.7503 33.7924C31.2543 33.7924 31.2047 33.7396 31.2015 33.2316C31.2007 33.1572 31.2007 33.0836 31.2015 33.0092C31.2095 32.5828 31.2695 32.5196 31.7071 32.5188C33.6015 32.5164 35.4959 32.518 37.3903 32.5188C37.5007 32.518 37.6111 32.53 37.7511 32.5388Z" fill="white"/>
<path id="Vector_14" d="M12.4288 32.9998C12.8336 33.243 13.2144 33.4438 13.56 33.6934C13.7056 33.799 13.7 34.035 13.564 34.163C13.4528 34.2678 13.2384 34.3854 13.1264 34.3438C12.7824 34.2166 12.4544 34.0334 12.1416 33.8374C11.9736 33.7318 11.9136 33.5222 12.032 33.3454C12.1192 33.2158 12.2728 33.131 12.4288 32.9998Z" fill="white"/>
<path id="Vector_15" d="M28.0104 6.40386C28.0016 6.74306 27.7184 6.98146 27.4704 6.87826C27.1304 6.73666 26.8016 6.55826 26.4936 6.35666C26.3104 6.23666 26.2944 6.01506 26.4112 5.82466C26.5256 5.63906 26.7088 5.54066 26.9184 5.63746C27.232 5.78146 27.5392 5.94306 27.8304 6.12706C27.9304 6.18946 27.972 6.34226 28.0104 6.40386Z" fill="white"/>
<path id="Vector_16" d="M4.93115 19.181C4.91835 19.341 4.91435 19.5018 4.89115 19.661C4.85675 19.8994 4.69115 20.049 4.47275 20.0546C4.24395 20.061 4.03435 19.8938 4.03035 19.6466C4.02475 19.3146 4.04875 18.9802 4.09115 18.6506C4.11915 18.4322 4.28235 18.309 4.50475 18.2938C4.71355 18.2794 4.90475 18.445 4.94955 18.665C4.95675 18.701 4.95755 18.7386 4.95595 18.7754C4.95035 18.9114 4.94315 19.0466 4.93595 19.1818C4.93515 19.1818 4.93355 19.1818 4.93115 19.181Z" fill="white"/>
<path id="Vector_17" d="M27.2376 33.1934C27.4696 33.2462 27.6176 33.3406 27.6904 33.535C27.7592 33.7182 27.716 33.9046 27.5568 33.9958C27.2376 34.179 26.904 34.3414 26.5616 34.4774C26.3704 34.5534 26.1992 34.4494 26.0952 34.2702C25.9976 34.1014 25.9976 33.8934 26.1456 33.7958C26.4928 33.5686 26.872 33.391 27.2376 33.1934Z" fill="white"/>
<path id="Vector_18" d="M35.9216 20.8231C35.916 20.9423 35.9152 21.0911 35.9 21.2383C35.8712 21.5183 35.6952 21.6919 35.4544 21.6879C35.2 21.6839 35.0176 21.4879 35.024 21.1887C35.0304 20.8927 35.0544 20.5967 35.0896 20.3031C35.1176 20.0727 35.308 19.9207 35.5208 19.9239C35.732 19.9271 35.9128 20.0871 35.948 20.3151C35.9608 20.3991 35.9504 20.4871 35.9456 20.5735C35.9424 20.6471 35.932 20.7207 35.9216 20.8231Z" fill="white"/>
<path id="Vector_19" d="M25.5192 5.34488C25.5096 5.62408 25.2816 5.82808 25.0144 5.76568C24.6912 5.69048 24.372 5.58648 24.0624 5.46648C23.8392 5.38008 23.7544 5.15528 23.8224 4.94968C23.8968 4.72328 24.1072 4.59128 24.3464 4.65448C24.6448 4.73288 24.9376 4.83208 25.2288 4.93288C25.4256 5.00008 25.5176 5.15208 25.5192 5.34488Z" fill="white"/>
<path id="Vector_20" d="M16.372 34.8582C16.3664 35.2094 16.1632 35.4254 15.912 35.3734C15.564 35.3014 15.22 35.1918 14.888 35.0614C14.6664 34.9742 14.6 34.7406 14.6824 34.5342C14.7656 34.3254 14.964 34.2038 15.188 34.263C15.4984 34.3438 15.812 34.4278 16.1024 34.5582C16.2352 34.6182 16.316 34.7926 16.372 34.8582Z" fill="white"/>
<path id="Vector_21" d="M30.1576 32.1358C30.1152 32.1998 30.0568 32.3422 29.9528 32.4318C29.7392 32.6182 29.5072 32.7854 29.272 32.9438C29.0352 33.103 28.7968 33.0614 28.648 32.859C28.4992 32.6566 28.5304 32.4238 28.756 32.2406C28.9864 32.0542 29.2224 31.8718 29.4736 31.715C29.7752 31.527 30.14 31.7198 30.1576 32.1358Z" fill="white"/>
<path id="Vector_22" d="M18.6528 35.8676C18.4072 35.8404 18.1608 35.8212 17.9168 35.7844C17.6416 35.7428 17.4728 35.5476 17.492 35.3124C17.512 35.0564 17.7104 34.8972 18.016 34.9132C18.2496 34.926 18.4824 34.9612 18.7152 34.9868C19.0856 35.0276 19.2632 35.19 19.2456 35.4724C19.228 35.7524 19.0248 35.8876 18.6528 35.8676Z" fill="white"/>
<path id="Vector_23" d="M5.46878 15.9235C5.38478 16.2315 5.31038 16.5691 5.19838 16.8939C5.12238 17.1155 4.89198 17.2147 4.68718 17.1467C4.47838 17.0763 4.33758 16.9227 4.37838 16.7011C4.44318 16.3515 4.52798 16.0027 4.64558 15.6675C4.71998 15.4563 4.92718 15.4011 5.14238 15.4547C5.36878 15.5107 5.44958 15.6819 5.46878 15.9235Z" fill="white"/>
<path id="Vector_24" d="M4.12476 21.7478C4.13436 21.679 4.10876 21.519 4.17676 21.4478C4.28396 21.335 4.44876 21.2318 4.59836 21.2166C4.77436 21.1982 4.93196 21.3262 4.96556 21.5198C5.02316 21.847 5.07836 22.1766 5.10076 22.507C5.11756 22.7566 4.93196 22.9366 4.70076 22.9534C4.46556 22.9702 4.27916 22.8286 4.23356 22.5726C4.18876 22.3182 4.16476 22.0598 4.12476 21.7478Z" fill="white"/>
<path id="Vector_25" d="M21.3464 34.9676C21.528 34.9676 21.6648 34.9556 21.7984 34.97C22.0088 34.9932 22.1304 35.1228 22.1544 35.3308C22.18 35.5516 22.0976 35.7516 21.8752 35.786C21.5008 35.8436 21.1176 35.8692 20.7384 35.8644C20.5312 35.862 20.4248 35.6828 20.4152 35.4772C20.4056 35.2724 20.4912 35.1036 20.6984 35.0556C20.924 35.0044 21.1592 34.9916 21.3464 34.9676Z" fill="white"/>
<path id="Vector_26" d="M23.8072 35.4587C23.5152 35.4491 23.36 35.3451 23.304 35.1259C23.2472 34.9043 23.3344 34.7115 23.5376 34.6403C23.8736 34.5227 24.2224 34.4331 24.5728 34.3715C24.792 34.3331 24.9512 34.4747 25.0072 34.6915C25.0648 34.9123 24.9744 35.1027 24.772 35.1779C24.4384 35.3003 24.088 35.3795 23.8072 35.4587Z" fill="white"/>
<path id="Vector_27" d="M34.9152 17.7776C34.9232 17.6992 34.9152 17.584 34.9488 17.4824C35.0104 17.2976 35.1624 17.2168 35.352 17.2208C35.5592 17.2248 35.7184 17.3232 35.756 17.5312C35.8144 17.8576 35.8624 18.1872 35.8824 18.5176C35.8976 18.7672 35.712 18.9432 35.4784 18.9576C35.2368 18.9728 35.0592 18.8376 35.016 18.5792C34.9728 18.3248 34.9512 18.0672 34.9152 17.7776Z" fill="white"/>
<path id="Vector_28" d="M35.3816 15.7066C35.3776 15.9794 35.2872 16.133 35.0896 16.1978C34.88 16.2674 34.6648 16.2234 34.5816 16.017C34.4448 15.677 34.3384 15.321 34.26 14.9634C34.212 14.7442 34.36 14.5874 34.572 14.5242C34.776 14.4634 34.9672 14.5418 35.044 14.721C35.188 15.0594 35.2848 15.417 35.3816 15.7066Z" fill="white"/>
<path id="Vector_29" d="M6.48081 13.3209C6.29121 13.6713 6.14641 13.9953 5.94881 14.2833C5.84641 14.4329 5.64001 14.4225 5.47281 14.3313C5.28721 14.2297 5.20321 14.0529 5.26961 13.8633C5.36641 13.5873 5.49041 13.3161 5.64001 13.0649C5.74321 12.8913 5.95121 12.8345 6.12801 12.9393C6.25921 13.0177 6.34561 13.1697 6.48081 13.3209Z" fill="white"/>
<path id="Vector_30" d="M5.81113 25.0957C5.70233 25.2125 5.60793 25.3821 5.46473 25.4533C5.27513 25.5477 5.05593 25.4821 4.96153 25.2773C4.84953 25.0349 4.76153 24.7757 4.70793 24.5141C4.66793 24.3197 4.77913 24.1485 4.97513 24.0813C5.17593 24.0125 5.38953 24.0373 5.49033 24.2421C5.61353 24.4933 5.68953 24.7661 5.81113 25.0957Z" fill="white"/>
<path id="Vector_31" d="M18.7007 7.43288C18.3791 7.43288 18.0575 7.43288 17.7359 7.43288C17.6615 7.43288 17.5863 7.43688 17.5135 7.42568C17.2631 7.38728 17.0967 7.20248 17.1023 6.97768C17.1079 6.74888 17.2783 6.56168 17.5335 6.55848C18.3247 6.54808 19.1167 6.54808 19.9079 6.55928C20.1647 6.56248 20.3311 6.74968 20.3351 6.98088C20.3391 7.22408 20.1679 7.41528 19.8871 7.42728C19.4919 7.44408 19.0959 7.43128 18.6999 7.43128C18.7007 7.43128 18.7007 7.43208 18.7007 7.43288Z" fill="white"/>
<path id="Vector_32" d="M5.59598 6.5509C5.96638 6.5509 6.33758 6.5453 6.70798 6.5525C7.03198 6.5589 7.20158 6.7077 7.20958 6.9725C7.21758 7.2509 7.03838 7.4245 6.69998 7.4285C5.97118 7.4365 5.24238 7.4365 4.51358 7.4293C4.17198 7.4261 3.99198 7.2597 3.99438 6.9837C3.99678 6.7069 4.17438 6.5573 4.52158 6.5525C4.87998 6.5469 5.23758 6.5509 5.59598 6.5509Z" fill="white"/>
<path id="Vector_33" d="M6.80558 28.7869C6.60398 28.8669 6.42158 28.8613 6.31438 28.6341C6.21678 28.4261 6.29278 28.0941 6.44798 27.9989C6.59598 27.9077 6.73198 27.9373 6.85038 28.0501C7.01838 28.2093 6.99918 28.5101 6.80558 28.7869Z" fill="white"/>
<path id="Vector_34" d="M9.87041 31.4626C9.86961 31.7298 9.74081 31.901 9.53601 31.9074C9.31521 31.9138 9.18881 31.741 9.19361 31.4418C9.19841 31.161 9.32001 31.0138 9.53921 31.0218C9.75361 31.0282 9.87121 31.1858 9.87041 31.4626Z" fill="white"/>
<path id="Vector_35" d="M35.472 27.2237C35.2784 27.3509 35.1744 27.4197 35.028 27.5165C35.028 27.2797 35.028 27.1029 35.028 26.8477C35.1832 26.9797 35.2976 27.0765 35.472 27.2237Z" fill="white"/>
<path id="Vector_36" d="M34.088 25.0634C34.088 25.2402 34.088 25.417 34.088 25.6826C33.9448 25.5418 33.8512 25.4506 33.7336 25.3346C33.8416 25.2114 33.9232 25.1178 34.0056 25.0234C34.0328 25.037 34.06 25.0506 34.088 25.0634Z" fill="white"/>
<g id="Group_2">
<path id="Vector_37" d="M10.2999 5.95453L9.81753 6.04333C9.83833 5.94733 9.84873 5.86653 9.84873 5.80253C9.84873 5.38653 9.59593 5.17933 9.09193 5.17933C8.69353 5.17933 8.49433 5.32253 8.49433 5.60893C8.49433 5.82413 8.71673 6.00813 9.16233 6.16173C10.0215 6.45693 10.4511 6.89373 10.4511 7.47213C10.4511 7.81133 10.3303 8.08333 10.0895 8.28813C9.84873 8.49293 9.52793 8.59613 9.12793 8.59613C8.24233 8.59613 7.79993 8.25293 7.79993 7.56653C7.79993 7.51053 7.80393 7.44173 7.81273 7.35933L8.31353 7.24893C8.27513 7.40093 8.25593 7.53293 8.25593 7.64493C8.25593 8.08893 8.51033 8.31053 9.01833 8.31053C9.42553 8.31053 9.62873 8.15053 9.62873 7.83133C9.62873 7.59373 9.38473 7.38493 8.89753 7.20493C8.19353 6.94653 7.84153 6.53373 7.84153 5.96573C7.84153 5.64413 7.95913 5.38573 8.19433 5.18893C8.42953 4.99213 8.73833 4.89453 9.12073 4.89453C9.90713 4.89373 10.2999 5.24733 10.2999 5.95453Z" fill="white"/>
<path id="Vector_38" d="M12.5327 4.95312L13.5287 8.52993H12.4863L12.2743 7.75473H11.1975L10.9695 8.52993H10.5631L11.6215 4.95312H12.5327ZM11.2983 7.39473H12.1759L11.7543 5.80993L11.2983 7.39473Z" fill="white"/>
<path id="Vector_39" d="M13.8087 8.52912V4.95312H15.3471C15.7471 4.95312 16.0671 5.03712 16.3063 5.20592C16.5455 5.37472 16.6655 5.60033 16.6655 5.88353C16.6655 6.31713 16.4087 6.59873 15.8951 6.72993C16.1591 6.82753 16.3295 6.93553 16.4071 7.05233C16.4847 7.16913 16.5375 7.39632 16.5655 7.73392C16.5983 8.13552 16.6663 8.40112 16.7671 8.53072H15.6399C15.5679 8.36512 15.5327 8.15793 15.5327 7.90993L15.5271 7.69793L15.5215 7.43072C15.5215 7.01872 15.3559 6.81233 15.0239 6.81233H14.8455V8.53072H13.8087V8.52912ZM14.8463 6.51472H15.0559C15.4487 6.51472 15.6455 6.30913 15.6455 5.89873C15.6455 5.48833 15.4487 5.28272 15.0559 5.28272H14.8463V6.51472Z" fill="white"/>
</g>
</g>
</g>
</svg>
