<svg width="40" height="40" viewBox="0 0 40 40" fill="none" xmlns="http://www.w3.org/2000/svg">
<g id="&#216;&#167;&#217;&#138;&#217;&#131;&#217;&#136;&#217;&#134; &#216;&#167;&#217;&#132;&#216;&#170;&#216;&#175;&#216;&#180;&#217;&#138;&#217;&#134;_2">
<g id="Group">
<path id="Vector" d="M4.53682 38.5786C4.14162 38.4354 3.72002 38.341 3.35762 38.141C2.32802 37.5722 1.73442 36.6858 1.61762 35.5042C1.58162 35.1442 1.56562 34.781 1.56562 34.4194C1.56162 30.7298 1.56082 27.0402 1.56562 23.3506C1.56642 22.681 1.65922 22.0274 1.99682 21.429C2.55442 20.4386 3.38402 19.7754 4.51202 19.6786C5.61282 19.5842 6.72882 19.6578 7.86402 19.6578C7.86402 24.0306 7.86402 28.413 7.86402 32.8258C7.71602 32.8322 7.58642 32.8434 7.45682 32.8434C6.64642 32.8458 5.83602 32.8346 5.02562 32.8482C3.92002 32.8674 3.09122 33.5162 2.79042 34.573C2.43842 35.8106 3.28322 37.1794 4.54722 37.405C4.79602 37.4498 5.05202 37.4706 5.30402 37.4706C15.1024 37.4738 24.9008 37.4722 34.6992 37.4754C35.5408 37.4754 36.2792 37.2554 36.8072 36.5586C37.3592 35.8298 37.448 35.0218 37.0776 34.1994C36.7056 33.3746 36.0368 32.897 35.1224 32.8586C34.2648 32.8226 33.4048 32.8466 32.5464 32.8426C32.4168 32.8418 32.2872 32.8314 32.1368 32.825C32.1368 28.4202 32.1368 24.0474 32.1368 19.6458C32.228 19.6346 32.3192 19.6138 32.4104 19.6138C33.2448 19.6114 34.08 19.617 34.9144 19.6114C36.5416 19.601 37.9432 20.6794 38.312 22.2378C38.392 22.5754 38.4328 22.9306 38.4336 23.277C38.4416 27.1602 38.4408 31.0434 38.4376 34.9258C38.4368 36.1138 38.0328 37.1226 37.0736 37.8722C36.6464 38.2058 36.1616 38.4106 35.6352 38.5234C35.5776 38.5362 35.5216 38.5586 35.4648 38.577C25.1544 38.5786 14.8456 38.5786 4.53682 38.5786ZM6.75202 20.733C6.20402 20.733 5.68642 20.7386 5.16962 20.7322C3.70002 20.7138 2.69842 21.813 2.70722 23.153C2.72722 26.1874 2.71282 29.2218 2.71442 32.2562C2.71442 32.3442 2.73602 32.4322 2.74882 32.5338C2.81442 32.5026 2.85042 32.4922 2.87682 32.4714C3.45282 32.0162 4.10162 31.7522 4.84082 31.7322C5.34802 31.7186 5.85522 31.7114 6.36242 31.6986C6.48962 31.6954 6.61602 31.6802 6.75282 31.6698C6.75202 28.0162 6.75202 24.4042 6.75202 20.733ZM37.2872 32.5538C37.2872 32.381 37.2872 32.2538 37.2872 32.1266C37.2872 29.189 37.2872 26.2514 37.2864 23.3138C37.2864 23.169 37.2808 23.0234 37.2728 22.8794C37.2128 21.8498 36.4384 20.957 35.4208 20.8002C34.9824 20.7322 34.5304 20.749 34.084 20.7354C33.8104 20.7266 33.5368 20.7338 33.2536 20.7338C33.2536 24.4026 33.2536 28.0242 33.2536 31.6706C33.376 31.681 33.4808 31.6978 33.5856 31.6986C33.9728 31.7018 34.3592 31.697 34.7464 31.701C35.6128 31.7098 36.4232 31.8938 37.1104 32.4626C37.144 32.4906 37.1904 32.5042 37.2872 32.5538Z" fill="white"/>
<path id="Vector_2" d="M14.7896 12.6993C14.7896 16.3497 14.7896 19.9737 14.7896 23.6201C14.4096 23.6201 14.0664 23.6201 13.6976 23.6201C13.6976 19.6073 13.6976 15.6089 13.6976 11.5801C17.8928 11.5801 22.0824 11.5801 26.2992 11.5801C26.2992 15.5825 26.2992 19.5801 26.2992 23.6113C25.9496 23.6113 25.5976 23.6113 25.2096 23.6113C25.2096 19.9745 25.2096 16.3505 25.2096 12.7001C21.7328 12.6993 18.2912 12.6993 14.7896 12.6993Z" fill="white"/>
<path id="Vector_3" d="M31.5336 24.2626C31.5336 24.6138 31.5336 24.9498 31.5336 25.281C31.2664 25.3754 8.93439 25.4002 8.47839 25.3058C8.47839 24.9682 8.47839 24.6242 8.47839 24.2794C8.73039 24.1914 31.0624 24.1666 31.5336 24.2626Z" fill="white"/>
<path id="Vector_4" d="M36.0865 19.2914C35.7081 19.2914 35.3641 19.2914 34.9753 19.2914C34.9753 18.5242 34.9753 17.7802 34.9753 17.0082C33.0409 17.0082 31.1513 17.0082 29.2185 17.0082C29.2185 19.2154 29.2185 21.409 29.2185 23.6378C28.8273 23.7178 28.4745 23.6722 28.0905 23.6738C28.0905 21.0586 28.0905 18.4818 28.0905 15.877C30.7569 15.877 33.4081 15.877 36.0865 15.877C36.0865 17.013 36.0865 18.1306 36.0865 19.2914Z" fill="white"/>
<path id="Vector_5" d="M11.8296 23.6197C11.4664 23.6197 11.1216 23.6197 10.7568 23.6197C10.7568 22.5005 10.7568 21.4029 10.7568 20.3053C10.7568 19.2173 10.7568 18.1285 10.7568 17.0085C8.82083 17.0085 6.89363 17.0085 4.91923 17.0085C4.91923 17.5677 4.91923 18.1285 4.91923 18.7109C4.52803 18.7109 4.18323 18.7109 3.81683 18.7109C3.81683 17.7621 3.81683 16.8357 3.81683 15.8789C6.49043 15.8789 9.15683 15.8789 11.824 15.8789C11.9032 16.1205 11.9136 23.0637 11.8296 23.6197Z" fill="white"/>
<path id="Vector_6" d="M23.4952 7.84027C21.124 7.84027 18.8208 7.84027 16.476 7.84027C16.476 8.77307 16.476 9.68587 16.476 10.6251C16.0904 10.6251 15.7472 10.6251 15.3744 10.6251C15.3744 9.33387 15.3744 8.04747 15.3744 6.76027C15.6248 6.68267 23.964 6.65067 24.5936 6.72907C24.5936 8.02107 24.5936 9.31787 24.5936 10.6315C24.2272 10.6315 23.8824 10.6315 23.496 10.6315C23.4952 9.69947 23.4952 8.78587 23.4952 7.84027Z" fill="white"/>
<path id="Vector_7" d="M32.0176 8.9707C32.0176 11.0867 32.0176 13.1723 32.0176 15.2811C31.6456 15.2811 31.3008 15.2811 30.8984 15.2811C30.8984 13.5483 30.8984 11.8275 30.8984 10.0651C28.9616 10.0651 27.0816 10.0651 25.1784 10.0651C25.1784 9.6795 25.1784 9.3371 25.1784 8.9707C27.46 8.9707 29.7176 8.9707 32.0176 8.9707Z" fill="white"/>
<path id="Vector_8" d="M8.98722 14.703C8.59522 14.703 8.25202 14.703 7.88562 14.703C7.88562 12.7894 7.88562 10.8974 7.88562 8.97656C10.1976 8.97656 12.5 8.97656 14.8368 8.97656C14.8368 9.32536 14.8368 9.67656 14.8368 10.0654C12.8944 10.0654 10.9656 10.0654 8.98722 10.0654C8.98722 11.6278 8.98722 13.155 8.98722 14.703Z" fill="white"/>
<path id="Vector_9" d="M23.3624 4.36987C23.3624 5.01627 23.3624 5.60187 23.3624 6.19947C22.988 6.19947 22.6424 6.19947 22.2688 6.19947C22.2552 5.96827 22.2424 5.75628 22.228 5.51868C20.712 5.51868 19.2064 5.51868 17.6584 5.51868C17.644 5.72907 17.6296 5.95068 17.6128 6.19548C17.252 6.19548 16.908 6.19548 16.5352 6.19548C16.5352 5.60267 16.5352 5.01787 16.5352 4.39468C17.4752 4.39468 18.412 4.39468 19.4008 4.39468C19.4008 3.38827 19.4008 2.41787 19.4008 1.42188C19.7952 1.42188 20.1384 1.42188 20.5336 1.42188C20.5336 2.39707 20.5336 3.36827 20.5336 4.36987C21.5 4.36987 22.4144 4.36987 23.3624 4.36987Z" fill="white"/>
<g id="Group_2">
<path id="Vector_10" d="M18.6736 34.1987C18.3096 34.1987 17.9672 34.1987 17.5824 34.1987C17.5824 33.2387 17.5824 32.3027 17.5824 31.3419C16.4128 31.3419 15.2864 31.3419 14.1176 31.3419C14.1176 32.3011 14.1176 33.2379 14.1176 34.1987C13.7336 34.1987 13.3912 34.1987 13.024 34.1987C13.024 32.8651 13.024 31.5531 13.024 30.2411C13.2712 30.1491 18.2168 30.1235 18.6736 30.2179C18.6736 31.5323 18.6736 32.8531 18.6736 34.1987Z" fill="white"/>
<path id="Vector_11" d="M15.3296 27.3515C15.3296 26.9043 15.3296 26.5243 15.3296 26.1211C15.7144 26.1211 16.0568 26.1211 16.4424 26.1211C16.4424 26.5251 16.4424 26.9051 16.4424 27.3291C17.0096 27.3291 17.5344 27.3291 18.088 27.3291C18.088 28.1379 18.088 28.9011 18.088 29.6907C17.7296 29.6907 17.3872 29.6907 17.0008 29.6907C17.0008 29.2891 17.0008 28.9091 17.0008 28.5075C16.2168 28.5075 15.4776 28.5075 14.7064 28.5075C14.7064 28.9043 14.7064 29.2747 14.7064 29.6811C14.3248 29.6811 13.9744 29.6811 13.6024 29.6811C13.6024 28.9067 13.6024 28.1507 13.6024 27.3523C14.1616 27.3515 14.712 27.3515 15.3296 27.3515Z" fill="white"/>
<path id="Vector_12" d="M13.0208 36.595C13.0208 35.9726 13.0208 35.3862 13.0208 34.7734C13.3856 34.7734 13.7288 34.7734 14.0976 34.7734C14.1128 35.0038 14.1272 35.215 14.1432 35.4486C15.2816 35.4486 16.4 35.4486 17.552 35.4486C17.5664 35.2334 17.5808 35.0222 17.5976 34.779C17.9592 34.779 18.312 34.779 18.6784 34.779C18.6784 35.3942 18.6784 35.9814 18.6784 36.595C16.7912 36.595 14.9248 36.595 13.0208 36.595Z" fill="white"/>
</g>
<path id="Vector_13" d="M30.4176 11.5859C30.4176 11.9603 30.4176 12.3027 30.4176 12.6659C29.2496 12.6659 28.108 12.6659 26.932 12.6659C26.932 12.3083 26.932 11.9587 26.932 11.5859C28.092 11.5859 29.2328 11.5859 30.4176 11.5859Z" fill="white"/>
<path id="Vector_14" d="M30.424 14.7027C29.2496 14.7027 28.1088 14.7027 26.932 14.7027C26.932 14.3443 26.932 13.9939 26.932 13.6211C28.08 13.6211 29.2096 13.6211 30.3888 13.6211C30.5 13.9627 30.436 14.3219 30.424 14.7027Z" fill="white"/>
<path id="Vector_15" d="M9.62323 12.6623C9.62323 12.2967 9.62323 11.9631 9.62323 11.5671C10.7568 11.5623 11.8816 11.5655 13.0296 11.5655C13.0296 11.9527 13.0296 12.2951 13.0296 12.6631C11.8976 12.6623 10.7808 12.6623 9.62323 12.6623Z" fill="white"/>
<path id="Vector_16" d="M13.0256 14.7067C11.888 14.7067 10.78 14.7067 9.63922 14.7067C9.63922 14.3475 9.63922 13.9963 9.63922 13.6211C10.7664 13.6211 11.8816 13.6211 13.0256 13.6211C13.0256 13.9779 13.0256 14.3203 13.0256 14.7067Z" fill="white"/>
<path id="Vector_17" d="M23.3873 22.7799C22.9793 22.7799 22.6361 22.7799 22.2697 22.7799C22.2697 22.1911 22.2697 21.6311 22.2697 21.0391C22.6273 21.0391 22.9697 21.0391 23.3721 21.0391C23.4113 21.6047 23.3841 22.1735 23.3873 22.7799Z" fill="white"/>
<path id="Vector_18" d="M23.3777 19.2906C22.9817 19.2906 22.6377 19.2906 22.2697 19.2906C22.2697 18.729 22.2697 18.193 22.2697 17.625C22.6241 17.625 22.9665 17.625 23.3601 17.625C23.4201 18.1618 23.3873 18.7074 23.3777 19.2906Z" fill="white"/>
<path id="Vector_19" d="M17.6032 22.7815C17.2408 22.7815 16.8968 22.7815 16.5304 22.7815C16.5304 22.1927 16.5304 21.6311 16.5304 21.0391C16.8872 21.0391 17.2296 21.0391 17.6032 21.0391C17.6032 21.6079 17.6032 22.1687 17.6032 22.7815Z" fill="white"/>
<path id="Vector_20" d="M19.4384 21.0332C19.8232 21.0332 20.1568 21.0332 20.5152 21.0332C20.5152 21.6188 20.5152 22.1804 20.5152 22.7756C20.1536 22.7756 19.8024 22.7756 19.4384 22.7756C19.4384 22.1836 19.4384 21.622 19.4384 21.0332Z" fill="white"/>
<path id="Vector_21" d="M22.2664 15.7883C22.2664 15.2259 22.2664 14.6995 22.2664 14.1387C22.6312 14.1387 22.9832 14.1387 23.364 14.1387C23.364 14.6875 23.364 15.2251 23.364 15.7883C22.9992 15.7883 22.6544 15.7883 22.2664 15.7883Z" fill="white"/>
<path id="Vector_22" d="M21.112 8.38269C21.4848 8.38269 21.82 8.38269 22.1904 8.38269C22.1904 8.94109 22.1904 9.48749 22.1904 10.0515C21.8296 10.0515 21.4848 10.0515 21.112 10.0515C21.112 9.49629 21.112 8.96029 21.112 8.38269Z" fill="white"/>
<path id="Vector_23" d="M20.5168 19.3162C20.2736 19.3162 20.0696 19.3186 19.8664 19.3154C19.7352 19.3138 19.6048 19.3034 19.444 19.2954C19.444 18.7386 19.444 18.2018 19.444 17.629C19.7904 17.629 20.1408 17.629 20.5168 17.629C20.5168 18.1802 20.5168 18.7178 20.5168 19.3162Z" fill="white"/>
<path id="Vector_24" d="M17.5904 19.2886C17.2512 19.2886 16.9072 19.2886 16.5352 19.2886C16.5352 18.735 16.5352 18.1982 16.5352 17.627C16.8776 17.627 17.22 17.627 17.564 17.627C17.6496 17.871 17.6688 18.8398 17.5904 19.2886Z" fill="white"/>
<path id="Vector_25" d="M19.4304 15.7883C19.4304 15.2227 19.4304 14.6971 19.4304 14.1387C19.7856 14.1387 20.1272 14.1387 20.4704 14.1387C20.5584 14.3883 20.5744 15.3547 20.492 15.7883C20.1552 15.7883 19.8128 15.7883 19.4304 15.7883Z" fill="white"/>
<path id="Vector_26" d="M16.536 14.1306C16.904 14.1306 17.2456 14.1306 17.6104 14.1306C17.6104 14.6898 17.6104 15.225 17.6104 15.7874C17.2504 15.7874 16.908 15.7874 16.536 15.7874C16.536 15.2442 16.536 14.709 16.536 14.1306Z" fill="white"/>
<path id="Vector_27" d="M17.6968 8.38477C18.0616 8.38477 18.3944 8.38477 18.788 8.38477C18.7984 8.93677 18.804 9.47997 18.78 10.0472C18.4088 10.0472 18.0664 10.0472 17.6968 10.0472C17.6968 9.49837 17.6968 8.96397 17.6968 8.38477Z" fill="white"/>
<path id="Vector_28" d="M30.3392 19.8633C30.7128 19.8633 31.0472 19.8633 31.4216 19.8633C31.4976 20.2433 31.4552 20.6201 31.4488 21.0297C31.0696 21.0297 30.7176 21.0297 30.3392 21.0297C30.3392 20.6417 30.3392 20.2753 30.3392 19.8633Z" fill="white"/>
<path id="Vector_29" d="M31.4368 22.1992C31.4368 22.5968 31.4368 22.9632 31.4368 23.3576C31.0608 23.3576 30.7096 23.3576 30.3376 23.3576C30.3376 22.96 30.3376 22.5936 30.3376 22.1992C30.7032 22.1992 31.0456 22.1992 31.4368 22.1992Z" fill="white"/>
<g id="Group_3">
<path id="Vector_30" d="M20.8521 28.6349C20.8521 28.2357 20.8521 27.8845 20.8521 27.5397C21.0665 27.4477 26.4537 27.4172 26.8761 27.5068C26.8761 27.8684 26.8761 28.2373 26.8761 28.6357C24.8689 28.6349 22.8753 28.6349 20.8521 28.6349Z" fill="white"/>
<path id="Vector_31" d="M26.8865 32.3223C26.8865 32.6935 26.8865 33.0367 26.8865 33.4103C25.5521 33.4103 24.2409 33.4103 22.8937 33.4103C22.8937 33.0583 22.8937 32.7063 22.8937 32.3223C24.2121 32.3223 25.5233 32.3223 26.8865 32.3223Z" fill="white"/>
<path id="Vector_32" d="M26.8904 30.5353C26.8904 30.8873 26.8904 31.2209 26.8904 31.5481C26.6064 31.6425 23.2848 31.6585 22.8832 31.5681C22.8832 31.2313 22.8832 30.8881 22.8832 30.5473C23.1616 30.4553 26.4872 30.4401 26.8904 30.5353Z" fill="white"/>
<path id="Vector_33" d="M22.8817 33.9793C24.2169 33.9473 25.5369 33.9673 26.8841 33.9649C26.8841 34.3625 26.8841 34.7049 26.8841 35.0425C26.5873 35.1321 23.2505 35.1417 22.8817 35.0537C22.8817 34.7161 22.8817 34.3729 22.8817 33.9793Z" fill="white"/>
<path id="Vector_34" d="M20.8521 31.5992C20.8521 31.208 20.8521 30.8568 20.8521 30.4688C21.2625 30.4688 21.6569 30.4688 22.0833 30.4688C22.0833 30.8424 22.0833 31.2016 22.0833 31.5992C21.6801 31.5992 21.2873 31.5992 20.8521 31.5992Z" fill="white"/>
<path id="Vector_35" d="M20.8593 35.11C20.8593 34.7172 20.8593 34.358 20.8593 33.9668C21.2681 33.9668 21.6529 33.9668 22.0761 33.9668C22.0761 34.342 22.0761 34.7108 22.0761 35.11C21.6769 35.11 21.2921 35.11 20.8593 35.11Z" fill="white"/>
<path id="Vector_36" d="M22.0873 32.3691C22.0873 32.7563 22.0873 33.1155 22.0873 33.5075C21.6817 33.5075 21.2977 33.5075 20.8737 33.5075C20.8737 33.1403 20.8737 32.7723 20.8737 32.3691C21.2633 32.3691 21.6481 32.3691 22.0873 32.3691Z" fill="white"/>
</g>
<path id="Vector_37" d="M9.54405 22.2051C9.54405 22.5923 9.54405 22.9619 9.54405 23.3595C9.18725 23.3595 8.84325 23.3595 8.47125 23.3595C8.47125 22.9771 8.47125 22.6083 8.47125 22.2051C8.82005 22.2051 9.17125 22.2051 9.54405 22.2051Z" fill="white"/>
<path id="Vector_38" d="M8.46161 21.0318C8.46161 20.6406 8.46161 20.2726 8.46161 19.875C8.81681 19.875 9.15761 19.875 9.53201 19.875C9.53201 20.2494 9.53201 20.6254 9.53201 21.0318C9.18241 21.0318 8.83041 21.0318 8.46161 21.0318Z" fill="white"/>
<path id="Vector_39" d="M30.348 17.6074C30.724 17.6074 31.0584 17.6074 31.4272 17.6074C31.4272 17.9738 31.4272 18.3258 31.4272 18.7058C31.0688 18.7058 30.7256 18.7058 30.348 18.7058C30.348 18.345 30.348 17.9954 30.348 17.6074Z" fill="white"/>
<path id="Vector_40" d="M33.7504 19.2851C33.3952 19.2851 33.0424 19.2851 32.664 19.2851C32.664 18.9187 32.664 18.5771 32.664 18.2051C33.0256 18.2051 33.368 18.2051 33.7504 18.2051C33.7504 18.5515 33.7504 18.9027 33.7504 19.2851Z" fill="white"/>
<path id="Vector_41" d="M8.46161 17.6094C8.83681 17.6094 9.16881 17.6094 9.53281 17.6094C9.53281 17.9742 9.53281 18.3254 9.53281 18.7062C9.18081 18.7062 8.82881 18.7062 8.46161 18.7062C8.46161 18.3374 8.46161 17.9942 8.46161 17.6094Z" fill="white"/>
<path id="Vector_42" d="M7.22804 17.625C7.22804 17.9922 7.22804 18.3258 7.22804 18.697C6.86804 18.697 6.51844 18.697 6.14484 18.697C6.14484 18.3402 6.14484 17.989 6.14484 17.625C6.51684 17.625 6.86644 17.625 7.22804 17.625Z" fill="white"/>
<path id="Vector_43" d="M6.20485 30.2676C6.20485 30.642 6.20485 30.986 6.20485 31.3596C5.82325 31.3596 5.45765 31.3596 5.06085 31.3596C5.06085 31.0004 5.06085 30.6484 5.06085 30.2676C5.42885 30.2676 5.79445 30.2676 6.20485 30.2676Z" fill="white"/>
<path id="Vector_44" d="M6.20321 21.6895C6.20321 22.0687 6.20321 22.4127 6.20321 22.7823C5.81841 22.7823 5.45281 22.7823 5.05841 22.7823C5.05841 22.4175 5.05841 22.0671 5.05841 21.6895C5.43521 21.6895 5.80001 21.6895 6.20321 21.6895Z" fill="white"/>
<path id="Vector_45" d="M34.988 22.7766C34.6064 22.7766 34.2304 22.7766 33.828 22.7766C33.828 22.4086 33.828 22.0662 33.828 21.6934C34.2168 21.6934 34.5832 21.6934 34.988 21.6934C34.988 22.043 34.988 22.3942 34.988 22.7766Z" fill="white"/>
<path id="Vector_46" d="M33.8336 30.2618C34.2312 30.2618 34.5976 30.2618 34.9952 30.2618C34.9952 30.6282 34.9952 30.9706 34.9952 31.3506C34.616 31.3506 34.2408 31.3506 33.8336 31.3506C33.8336 30.9978 33.8336 30.6554 33.8336 30.2618Z" fill="white"/>
</g>
</g>
</svg>
