<svg width="40" height="41" viewBox="0 0 40 41" fill="none" xmlns="http://www.w3.org/2000/svg">
<g id="&#216;&#167;&#217;&#138;&#217;&#131;&#217;&#136;&#217;&#134; &#216;&#167;&#217;&#132;&#216;&#170;&#216;&#175;&#216;&#180;&#217;&#138;&#217;&#134;_1">
<g id="Group">
<path id="Vector" d="M8.404 33.6078C7.7312 33.7718 7.092 33.9262 6.4528 34.0838C5.6984 34.271 4.9464 34.4662 4.1912 34.6486C3.5728 34.7982 3.12 34.5878 3.0776 34.0838C3.0576 33.8486 3.164 33.575 3.2856 33.3598C4.1704 31.7998 5.0752 30.2502 5.972 28.6966C6.5112 27.763 7.0488 26.8286 7.6112 25.8526C7.4464 25.771 7.3048 25.6926 7.156 25.6294C6.8816 25.5134 6.596 25.4206 6.3264 25.2926C5.504 24.9014 5.128 23.9966 5.4256 23.1342C5.5272 22.8398 5.6528 22.555 5.7664 22.2646C6.0032 21.6598 5.9112 21.2638 5.4344 20.8374C5.2408 20.6638 5.0448 20.4918 4.8512 20.3174C4.0584 19.5998 3.9872 18.5926 4.676 17.7822C4.8616 17.5638 5.0608 17.3582 5.252 17.1446C5.6584 16.6894 5.7096 16.2582 5.4224 15.7142C5.2952 15.4726 5.1576 15.2366 5.0328 14.9942C4.5504 14.0598 4.8496 13.0606 5.764 12.555C5.9912 12.4294 6.2248 12.315 6.4544 12.1926C7.0512 11.8742 7.2624 11.4366 7.1424 10.7758C7.0984 10.5334 7.0496 10.2918 7.0184 10.047C6.888 9.02381 7.5792 8.14541 8.6152 8.01261C8.8728 7.97981 9.1312 7.95421 9.3888 7.92381C9.944 7.85741 10.3208 7.49821 10.4384 6.92461C10.488 6.68381 10.532 6.44141 10.5864 6.20141C10.8464 5.05901 11.7152 4.50381 12.8464 4.75421C13.0864 4.80781 13.328 4.85821 13.568 4.91181C14.0832 5.02701 14.532 4.85261 14.8144 4.41581C14.984 4.15421 15.1344 3.87981 15.3064 3.61901C15.8696 2.76381 16.84 2.52941 17.7264 3.03581C17.9856 3.18381 18.232 3.35501 18.4872 3.51101C18.9832 3.81581 19.44 3.79261 19.8944 3.43901C20.1104 3.27101 20.328 3.10541 20.5352 2.92781C21.2712 2.29661 22.496 2.39741 23.0952 3.22941C23.2472 3.44061 23.4144 3.64061 23.5736 3.84621C23.96 4.34461 24.3728 4.47261 24.9808 4.28061C25.2648 4.19101 25.5472 4.09261 25.8336 4.01181C26.7632 3.75101 27.6272 4.17901 27.9784 5.07981C28.096 5.38141 28.1824 5.69421 28.2856 6.00141C28.4648 6.53581 28.8608 6.81741 29.424 6.83421C29.8128 6.84621 30.2088 6.83421 30.5872 6.90781C31.5064 7.08541 32.0704 7.88301 31.992 8.81981C31.9696 9.09181 31.9568 9.36541 31.9576 9.63821C31.96 10.1614 32.2128 10.5246 32.6936 10.7262C32.9688 10.8414 33.252 10.9382 33.5264 11.0542C34.4736 11.455 34.8848 12.4054 34.5256 13.3654C34.416 13.6566 34.288 13.9414 34.172 14.2302C33.9744 14.7238 34.0968 15.1462 34.472 15.5022C34.6696 15.6902 34.8808 15.8654 35.0848 16.0478C35.9456 16.8158 36.0048 17.8366 35.2376 18.6974C35.056 18.9014 34.8704 19.1022 34.6896 19.307C34.3408 19.703 34.28 20.1358 34.5128 20.603C34.6288 20.8358 34.7496 21.0662 34.884 21.2886C35.484 22.2814 35.1072 23.4606 34.0936 23.9158C33.892 24.0062 33.7008 24.1182 33.5056 24.2222C32.952 24.5174 32.7432 24.9174 32.8184 25.5326C32.8704 25.9566 32.9112 26.383 32.9776 26.8046C32.9984 26.9398 33.072 27.0718 33.1416 27.1934C34.316 29.2326 35.4912 31.271 36.6712 33.307C36.8808 33.6686 37.0736 34.031 36.764 34.4214C36.4704 34.791 36.0824 34.7142 35.6904 34.615C34.4216 34.295 33.1512 33.9822 31.8808 33.6694C31.7936 33.6478 31.7016 33.6414 31.572 33.6222C31.4144 34.1542 31.2544 34.6846 31.1008 35.2166C30.86 36.051 30.6248 36.887 30.384 37.7214C30.2808 38.0798 30.1496 38.4262 29.7176 38.4982C29.252 38.5758 29.008 38.2942 28.7992 37.9294C27.7128 36.035 26.6168 34.1462 25.524 32.2558C25.4528 32.1334 25.3808 32.0118 25.2704 31.8254C25.0648 32.1558 24.8832 32.443 24.7064 32.7326C24.412 33.2142 23.9952 33.5078 23.4344 33.6118C23.012 33.6902 22.6352 33.5806 22.2768 33.383C22.0152 33.239 21.7696 33.0662 21.5152 32.9094C21.012 32.599 20.532 32.623 20.0728 32.9798C19.8368 33.1638 19.608 33.3582 19.3672 33.535C18.5936 34.103 17.6152 34.003 16.98 33.2838C16.7648 33.0406 16.5784 32.7718 16.3752 32.5182C16.0088 32.0614 15.5856 31.9454 15.028 32.103C14.608 32.2214 14.3256 32.4398 14.1024 32.8398C13.1472 34.5542 12.156 36.2494 11.1608 37.9414C11.036 38.1534 10.8392 38.371 10.6224 38.4686C10.2184 38.651 9.8168 38.4086 9.6672 37.9238C9.3928 37.0326 9.1424 36.1334 8.8816 35.2374C8.7264 34.7054 8.5696 34.1734 8.404 33.6078ZM4.82 33.159C4.9472 33.1462 5.0776 33.147 5.2 33.1174C6.2192 32.8726 7.2352 32.615 8.256 32.375C8.8832 32.227 9.3448 32.4966 9.5448 33.1182C9.684 33.5494 9.8 33.987 9.9272 34.4222C10.1256 35.1022 10.3248 35.7822 10.5488 36.5462C11.3784 35.1094 12.1656 33.7462 12.9688 32.355C12.2896 32.0486 11.9912 31.4918 11.8304 30.8342C11.7904 30.671 11.7344 30.5118 11.6776 30.3534C11.5072 29.8774 11.124 29.6078 10.616 29.5886C10.24 29.5742 9.8624 29.5638 9.4888 29.519C8.7336 29.4286 8.1512 28.8598 8.0184 28.1182C8.0016 28.0254 7.9704 27.935 7.9272 27.7734C6.8688 29.6134 5.8464 31.3902 4.8248 33.1662L4.8224 33.183L4.82 33.159ZM35.1504 33.1622L35.1536 33.179L35.148 33.1678C34.18 31.4798 33.212 29.791 32.232 28.083C31.692 28.4142 31.1112 28.4118 30.552 28.4974C30.068 28.571 29.736 28.8198 29.6008 29.295C29.516 29.5934 29.4624 29.9006 29.3928 30.203C29.1264 31.359 28.284 31.8958 27.1376 31.6454C26.9608 31.607 26.7808 31.5838 26.5392 31.543C27.5152 33.231 28.4504 34.8494 29.4192 36.5254C29.4696 36.3942 29.492 36.3486 29.5056 36.3006C29.8168 35.231 30.116 34.1582 30.4408 33.0926C30.6224 32.495 31.1024 32.2318 31.7104 32.3726C32.4296 32.539 33.144 32.727 33.8624 32.895C34.2888 32.9942 34.7208 33.0734 35.1504 33.1622ZM6.0176 14.1902C6.1664 14.4758 6.3376 14.8094 6.5136 15.1406C7.0384 16.131 6.9128 17.151 6.1584 17.9862C5.984 18.179 5.7992 18.3638 5.6328 18.5638C5.3744 18.8734 5.3952 19.1374 5.6928 19.415C5.8832 19.5926 6.0816 19.7614 6.276 19.9342C7.1128 20.6814 7.3424 21.6806 6.9168 22.727C6.824 22.955 6.7256 23.1814 6.6376 23.4118C6.4752 23.835 6.5768 24.0702 6.9976 24.2454C7.2608 24.355 7.5312 24.4494 7.7928 24.5614C8.6264 24.9182 9.1248 25.547 9.2224 26.4486C9.268 26.8718 9.2176 27.3038 9.2224 27.7318C9.2264 28.107 9.4224 28.303 9.7992 28.3174C10.072 28.3278 10.3464 28.319 10.6192 28.3286C11.66 28.3638 12.5168 28.9982 12.852 29.9798C12.94 30.2374 13.0176 30.4982 13.1056 30.755C13.2568 31.1966 13.4616 31.3102 13.9064 31.183C14.168 31.1086 14.4216 31.0054 14.6808 30.9222C15.6744 30.6022 16.684 30.9126 17.3336 31.7366C17.5024 31.951 17.6608 32.1742 17.836 32.3838C18.104 32.7038 18.3752 32.7326 18.7144 32.4782C18.9328 32.3142 19.1408 32.1366 19.3568 31.9686C20.1704 31.3358 21.168 31.2678 22.0528 31.7902C22.3104 31.9422 22.5552 32.115 22.8128 32.267C23.1848 32.487 23.4288 32.427 23.6688 32.059C23.8464 31.787 23.996 31.495 24.1888 31.235C24.772 30.4518 25.54 30.0862 26.5256 30.2654C26.908 30.335 27.288 30.4166 27.6688 30.4934C27.9928 30.4318 28.1568 30.2374 28.1952 29.9086C28.2224 29.6782 28.2928 29.4526 28.336 29.2238C28.5328 28.187 29.2664 27.4686 30.3144 27.2934C30.6088 27.2446 30.9032 27.199 31.1976 27.1518C31.6048 27.0862 31.7328 26.939 31.7056 26.519C31.6864 26.2214 31.6456 25.9246 31.6 25.6302C31.452 24.6774 31.8928 23.7262 32.7208 23.247C32.9792 23.0974 33.2464 22.9622 33.5136 22.8294C33.7488 22.7126 33.9208 22.5526 33.9568 22.211C33.7896 21.8934 33.5952 21.5278 33.4056 21.1598C32.9576 20.2886 33.0928 19.2358 33.744 18.5078C33.944 18.2846 34.1512 18.0686 34.3448 17.8398C34.5936 17.5462 34.5832 17.2798 34.3088 17.0166C34.0936 16.8094 33.8584 16.6222 33.6392 16.4182C32.8736 15.7086 32.6488 14.7182 33.032 13.7486C33.1272 13.507 33.2344 13.2702 33.3296 13.0294C33.5072 12.579 33.4128 12.3502 32.972 12.1662C32.7088 12.0558 32.4376 11.9654 32.1768 11.8486C31.3536 11.4814 30.8488 10.855 30.7528 9.95341C30.708 9.53021 30.7592 9.09821 30.7544 8.67021C30.7504 8.30221 30.5728 8.12461 30.2104 8.10381C29.86 8.08301 29.508 8.07741 29.1584 8.04301C28.1328 7.94221 27.472 7.37261 27.1224 6.42061C27.0328 6.17741 26.9536 5.93021 26.8864 5.67981C26.808 5.38861 26.6512 5.19261 26.3072 5.15341C25.9872 5.25661 25.636 5.35261 25.2976 5.48141C24.3176 5.85661 23.1488 5.38941 22.648 4.67501C22.484 4.44061 22.3056 4.21581 22.1216 3.99661C21.8632 3.68781 21.6344 3.65661 21.3096 3.89261C21.0672 4.06781 20.8424 4.26621 20.604 4.44781C19.7592 5.09021 18.7848 5.13901 17.8744 4.58781C17.652 4.45341 17.436 4.30861 17.2128 4.17421C16.7872 3.91741 16.5392 3.97741 16.2712 4.40141C16.0976 4.67581 15.9424 4.96381 15.752 5.22621C15.3592 5.77021 14.8184 6.06701 14.1536 6.16381C13.5936 6.24541 13.0752 6.06061 12.544 5.95581C12.1304 5.87421 11.8888 6.01421 11.7976 6.41741C11.7408 6.67021 11.6896 6.92461 11.6408 7.17901C11.4392 8.24141 10.6672 8.97501 9.5904 9.12941C9.2952 9.17181 8.9992 9.21101 8.708 9.27181C8.3616 9.34381 8.244 9.49341 8.2664 9.84461C8.2864 10.155 8.3032 10.4718 8.3792 10.771C8.5928 11.6118 8.0032 12.8046 7.1912 13.199C6.9344 13.3238 6.688 13.4694 6.4312 13.595C6.204 13.707 6.0576 13.8702 6.0176 14.1902Z" fill="white"/>
<path id="Vector_2" d="M19.98 5.85159C26.7656 5.83719 32.336 11.4004 32.34 18.1956C32.344 25.0012 26.812 30.5364 19.9976 30.5444C13.1904 30.5524 7.64321 25.018 7.63761 18.2124C7.63121 11.4172 13.1744 5.86599 19.98 5.85159ZM8.84481 18.2084C8.85601 24.3596 13.8696 29.35 20.0216 29.3388C26.0008 29.3276 31.12 24.51 31.124 18.1804C31.128 12.0276 26.1216 7.07319 19.9744 7.07959C13.832 7.08679 8.83441 12.0836 8.84481 18.2084Z" fill="white"/>
<path id="Vector_3" d="M19.9808 6.60745C26.3504 6.59385 31.58 11.8162 31.584 18.1954C31.588 24.585 26.3944 29.7811 19.9968 29.7883C13.6064 29.7955 8.39839 24.6003 8.39359 18.2114C8.38799 11.8322 13.592 6.62025 19.9808 6.60745ZM9.52719 18.2074C9.53759 23.9818 14.244 28.6667 20.02 28.6563C25.6328 28.6459 30.4392 24.1234 30.4424 18.181C30.4464 12.405 25.7464 7.75385 19.9752 7.76025C14.2088 7.76665 9.51679 12.4578 9.52719 18.2074Z" fill="white"/>
<path id="Vector_4" d="M29.4744 16.6691C30.8456 17.5211 30.644 19.4187 29.0904 19.9635C29.0456 20.3115 29.0032 20.7171 28.644 20.8859C28.3272 21.0347 27.9568 21.0675 27.6264 21.1475C27.3 21.9355 26.9632 22.7491 26.5984 23.6315C26.6536 23.6899 26.7688 23.8075 26.88 23.9283C27.3048 24.3915 27.3008 24.8851 26.8584 25.3475C26.5616 25.6579 26.256 25.9603 25.9472 26.2595C25.4592 26.7307 24.9688 26.7251 24.4744 26.2531C24.3808 26.1643 24.2864 26.0763 24.1832 25.9787C23.768 26.1803 23.3696 26.3963 22.9528 26.5691C22.5472 26.7379 22.1232 26.8619 21.6528 27.0251C21.6528 27.1699 21.6576 27.3347 21.652 27.4995C21.632 28.0547 21.324 28.4187 20.7728 28.4571C20.2552 28.4931 19.7304 28.4931 19.2128 28.4587C18.6592 28.4227 18.3464 28.0603 18.3256 27.5083C18.3192 27.3531 18.3248 27.1979 18.3248 27.0267C17.8824 26.8731 17.4488 26.7443 17.0328 26.5723C16.6256 26.4043 16.2368 26.1931 15.7936 25.9779C15.692 26.0747 15.5744 26.1907 15.4536 26.3019C15.0032 26.7147 14.5112 26.7163 14.0648 26.2923C13.7344 25.9787 13.4128 25.6555 13.0992 25.3251C12.6784 24.8827 12.6776 24.3827 13.0944 23.9379C13.2 23.8251 13.336 23.7395 13.4448 23.6523C13.212 23.1795 12.9912 22.7819 12.8176 22.3643C12.6488 21.9579 12.5288 21.5315 12.404 21.1611C12.028 21.0715 11.6576 21.0403 11.3408 20.8931C10.9936 20.7315 10.9216 20.3539 10.9056 19.9971C9.29599 19.1219 9.11919 17.6979 10.5 16.6723C11.128 12.6419 13.3728 9.93229 17.2856 8.52269C17.5024 8.01149 17.9792 7.91149 18.54 7.92269C19.5552 7.94269 20.5712 7.93869 21.5864 7.92429C22.0888 7.91709 22.4768 8.07229 22.6912 8.52749C26.572 9.89469 28.8232 12.5987 29.4744 16.6691ZM16.0328 10.4379C13.8864 11.4267 12.0568 14.0059 11.8184 16.4323C17.2664 16.4323 22.712 16.4323 28.1584 16.4323C28.0424 15.6763 27.7136 14.2083 26.6328 12.7291C25.6904 11.4395 24.5944 10.7139 23.9464 10.3515C23.5432 10.1851 23.14 10.0195 22.736 9.85309C22.648 9.92029 22.6056 9.98669 22.596 10.0579C22.5344 10.5075 22.4816 10.9579 22.4224 11.4083C22.312 12.2571 22.2152 13.1075 22.0832 13.9531C21.9776 14.6283 21.5544 14.9667 20.868 14.9747C20.2952 14.9811 19.7224 14.9795 19.1504 14.9755C18.3768 14.9699 17.9584 14.5715 17.868 13.8019C17.7432 12.7459 17.6 11.6931 17.4608 10.6387C17.4256 10.3747 17.3728 10.1131 17.328 9.85069C17.2864 9.85789 17.2456 9.86429 17.204 9.87149L16.0328 10.4379ZM24.8768 20.0163C24.3576 22.9883 21.9952 24.2643 20.0936 24.3035C18.2168 24.3419 15.6736 23.1819 15.0896 20.0275C14.5296 20.0275 13.9664 20.0275 13.3888 20.0275C13.4376 20.1779 13.492 20.2963 13.5128 20.4203C13.688 21.4499 14.072 22.3899 14.6768 23.2443C14.9248 23.5947 14.8888 23.8283 14.5872 24.1491C14.4384 24.3075 14.2816 24.4587 14.1416 24.6011C14.3672 24.8307 14.5656 25.0323 14.7784 25.2483C14.8584 25.1755 14.9432 25.0995 15.0256 25.0211C15.1104 24.9403 15.1888 24.8531 15.276 24.7739C15.5632 24.5131 15.8032 24.4755 16.12 24.6987C16.9752 25.2987 17.9136 25.6851 18.94 25.8763C19.3776 25.9579 19.52 26.1579 19.528 26.6107C19.532 26.8131 19.5288 27.0155 19.5288 27.2067C19.872 27.2067 20.1496 27.2067 20.448 27.2067C20.448 26.9755 20.444 26.7811 20.4488 26.5867C20.4592 26.1579 20.6024 25.9571 21.0208 25.8803C22.048 25.6915 22.9872 25.3075 23.8424 24.7075C24.1744 24.4747 24.4152 24.5107 24.7168 24.7899C24.884 24.9451 25.0456 25.1075 25.1776 25.2363C25.4232 25.0171 25.6336 24.8291 25.9152 24.5779C25.732 24.4315 25.5672 24.3219 25.4288 24.1851C25.068 23.8267 25.0472 23.6091 25.3344 23.1923C25.7208 22.6315 26.0368 22.0355 26.228 21.3811C26.3576 20.9371 26.4568 20.4843 26.5744 20.0163C26.0064 20.0163 25.4512 20.0163 24.8768 20.0163ZM19.984 18.7867C22.8072 18.7867 25.6304 18.7867 28.4536 18.7867C28.5448 18.7867 28.6376 18.7947 28.7264 18.7795C28.9888 18.7347 29.192 18.4835 29.1848 18.2251C29.1776 17.9731 28.9968 17.7587 28.7336 17.7163C28.5808 17.6915 28.4232 17.6875 28.2672 17.6867C22.7504 17.6851 17.2336 17.6851 11.7176 17.6867C11.5616 17.6867 11.404 17.6907 11.2512 17.7147C10.9704 17.7587 10.7832 17.9891 10.7928 18.2555C10.8024 18.5203 11.008 18.7467 11.28 18.7827C11.3696 18.7947 11.4616 18.7867 11.5528 18.7867C14.3632 18.7875 17.1736 18.7875 19.984 18.7867ZM16.3792 20.0179C16.5888 21.8523 18.3896 23.2307 20.32 23.0811C21.9632 22.9539 23.608 21.4123 23.5656 20.0179C21.1792 20.0179 18.7912 20.0179 16.3792 20.0179ZM20.8656 13.6939C21.0688 12.1843 21.268 10.7059 21.4696 9.20509C20.4584 9.20509 19.504 9.20509 18.5064 9.20509C18.7096 10.7179 18.9088 12.1987 19.1104 13.6939C19.7024 13.6939 20.2568 13.6939 20.8656 13.6939Z" fill="white"/>
</g>
</g>
</svg>
