<svg width="40" height="40" viewBox="0 0 40 40" fill="none" xmlns="http://www.w3.org/2000/svg">
<g id="&#216;&#167;&#217;&#138;&#217;&#131;&#217;&#136;&#217;&#134; &#216;&#167;&#217;&#132;&#216;&#170;&#216;&#175;&#216;&#180;&#217;&#138;&#217;&#134;_5">
<g id="Group">
<path id="Vector" d="M4.14645 11.2595C4.14645 10.8355 4.14645 10.4651 4.14645 10.1139C4.11525 10.0867 4.10485 10.0707 4.09685 10.0715C3.27765 10.2003 2.94645 9.70032 2.64165 9.04592C1.99605 7.66032 1.28325 6.30592 0.601646 4.93632C0.235246 4.20032 0.493646 3.78592 1.31205 3.78432C2.24485 3.78272 3.17685 3.78432 4.16885 3.78432C4.16885 3.56832 4.16725 3.37872 4.16885 3.18992C4.18165 2.10752 4.98485 1.29712 6.06805 1.29472C8.53285 1.28912 10.9984 1.29072 13.4632 1.29392C14.6232 1.29552 15.4104 2.08832 15.4184 3.25152C15.4192 3.40672 15.4184 3.56192 15.4184 3.76432C15.572 3.77152 15.708 3.78352 15.8448 3.78352C16.688 3.78512 17.5312 3.78112 18.3752 3.78592C19.044 3.78992 19.3344 4.22672 19.0432 4.81632C18.2512 6.42032 17.4456 8.01712 16.6464 9.61792C16.4984 9.91472 16.2728 10.0707 15.9328 10.0539C15.78 10.0459 15.6256 10.0523 15.4456 10.0523C15.4456 10.4539 15.4456 10.8243 15.4456 11.2411C15.5744 11.2475 15.7112 11.2587 15.848 11.2587C16.704 11.2603 17.5608 11.2539 18.4168 11.2619C19.032 11.2675 19.3256 11.7107 19.056 12.2587C18.2608 13.8755 17.448 15.4835 16.644 17.0955C16.496 17.3931 16.2672 17.5459 15.9288 17.5283C15.776 17.5203 15.6224 17.5267 15.444 17.5267C15.444 17.9307 15.444 18.3011 15.444 18.7163C15.5776 18.7227 15.7144 18.7339 15.852 18.7339C16.708 18.7355 17.5648 18.7291 18.4208 18.7371C19.0352 18.7427 19.3256 19.1867 19.0552 19.7371C18.26 21.3539 17.4472 22.9619 16.6424 24.5739C16.4936 24.8723 16.2632 25.0211 15.9256 25.0035C15.7736 24.9955 15.62 25.0019 15.4176 25.0019C15.4176 25.2419 15.4208 25.4451 15.4168 25.6483C15.396 26.6627 14.5936 27.4715 13.5824 27.4915C13.1712 27.4995 12.7592 27.4931 12.3032 27.4931C12.3032 27.6883 12.3032 27.8403 12.3032 27.9923C12.3032 31.2619 12.3032 34.5315 12.3032 37.8011C12.3032 38.5195 12.12 38.7059 11.4152 38.7067C10.3256 38.7075 9.23525 38.7075 8.14565 38.7067C7.48165 38.7059 7.28245 38.5107 7.28245 37.8547C7.28165 34.5595 7.28165 31.2635 7.28165 27.9683C7.28165 27.8283 7.28165 27.6875 7.28165 27.4947C6.89045 27.4947 6.53125 27.4955 6.17285 27.4947C4.95605 27.4907 4.17365 26.7155 4.16725 25.5083C4.16645 25.3555 4.16725 25.2027 4.16725 25.0699C4.10725 25.0379 4.08325 25.0131 4.06325 25.0163C3.32725 25.1307 2.98325 24.7291 2.69365 24.1075C2.03205 22.6867 1.30165 21.2971 0.603246 19.8931C0.235246 19.1531 0.488846 18.7371 1.30485 18.7363C2.23765 18.7347 3.17045 18.7363 4.13525 18.7363C4.13525 18.3339 4.13525 17.9539 4.13525 17.5779C4.10405 17.5627 4.08005 17.5387 4.06005 17.5419C3.34885 17.6483 2.99605 17.2811 2.70965 16.6659C2.04245 15.2331 1.30645 13.8323 0.601646 12.4163C0.234446 11.6787 0.490446 11.2635 1.30725 11.2619C2.24165 11.2587 3.17445 11.2595 4.14645 11.2595ZM5.45205 14.3539C5.45205 18.0123 5.45205 21.6707 5.45205 25.3291C5.45205 26.0171 5.64325 26.2091 6.32885 26.2091C8.63765 26.2099 10.9472 26.2099 13.256 26.2091C13.9416 26.2091 14.1336 26.0171 14.1336 25.3291C14.1344 18.0387 14.1344 10.7475 14.1336 3.45712C14.1336 2.76912 13.9424 2.57792 13.2568 2.57792C10.9608 2.57712 8.66485 2.57712 6.36805 2.57792C5.62885 2.57792 5.45205 2.75552 5.45205 3.49632C5.45205 7.11552 5.45205 10.7347 5.45205 14.3539ZM8.59205 27.5131C8.59205 30.8347 8.59205 34.1099 8.59205 37.3883C9.41205 37.3883 10.2056 37.3883 10.9944 37.3883C10.9944 34.0803 10.9944 30.8051 10.9944 27.5131C10.1848 27.5131 9.40005 27.5131 8.59205 27.5131ZM4.00645 8.79792C4.05205 8.77632 4.09765 8.75392 4.14245 8.73232C4.14245 7.52352 4.14245 6.31552 4.14245 5.08832C3.47605 5.08832 2.83445 5.08832 2.12485 5.08832C2.77445 6.34512 3.35285 7.59152 4.00645 8.79792ZM15.436 8.73072C15.4872 8.75472 15.5376 8.77872 15.5888 8.80272C16.2232 7.58672 16.8192 6.35072 17.452 5.10032C16.744 5.10032 16.0936 5.10032 15.436 5.10032C15.436 6.33152 15.436 7.53072 15.436 8.73072ZM3.99205 16.2803C4.04245 16.2563 4.09365 16.2323 4.14405 16.2083C4.14405 15.0003 4.14405 13.7915 4.14405 12.5635C3.47845 12.5635 2.83685 12.5635 2.12965 12.5635C2.76165 13.8251 3.37685 15.0531 3.99205 16.2803ZM15.4632 12.5555C15.4632 13.8067 15.4632 15.0195 15.4632 16.2315C15.5088 16.2467 15.5536 16.2619 15.5992 16.2771C16.2128 15.0499 16.8272 13.8227 17.4608 12.5555C16.7488 12.5555 16.116 12.5555 15.4632 12.5555ZM4.00645 23.7475C4.05205 23.7259 4.09765 23.7035 4.14245 23.6819C4.14245 22.4731 4.14245 21.2651 4.14245 20.0379C3.47605 20.0379 2.83445 20.0379 2.12485 20.0379C2.77445 21.2947 3.35285 22.5411 4.00645 23.7475ZM15.4448 23.6907C15.496 23.7115 15.5472 23.7315 15.5984 23.7523C16.212 22.5251 16.8264 21.2979 17.4536 20.0443C16.7392 20.0443 16.0976 20.0443 15.4448 20.0443C15.4448 21.2755 15.4448 22.4827 15.4448 23.6907Z" fill="white"/>
<path id="Vector_2" d="M30.7129 32.7669C32.6561 32.7669 34.5273 32.7621 36.3977 32.7709C36.7169 32.7725 37.0457 32.7917 37.3529 32.8701C38.7905 33.2365 39.7169 34.6301 39.5393 36.1213C39.3681 37.5605 38.1089 38.6997 36.6393 38.7021C31.2065 38.7101 25.7729 38.7109 20.3401 38.7021C18.6961 38.6997 17.4057 37.3717 17.4081 35.7269C17.4105 34.0869 18.7073 32.7781 20.3577 32.7693C22.1377 32.7597 23.9185 32.7669 25.6985 32.7669C25.8633 32.7669 26.0281 32.7669 26.2473 32.7669C26.2473 32.5549 26.2473 32.3909 26.2473 32.2269C26.2473 30.6157 26.2385 29.0037 26.2545 27.3925C26.2577 27.0589 26.1585 26.8349 25.9161 26.5981C24.8881 25.5941 24.5321 24.3605 24.8993 22.9765C25.2617 21.6109 26.1705 20.7173 27.5377 20.3445C29.1745 19.8981 30.8785 20.6333 31.7129 22.1053C32.5345 23.5533 32.2977 25.3837 31.0905 26.5493C30.7929 26.8365 30.7009 27.1165 30.7057 27.5093C30.7249 29.0749 30.7137 30.6405 30.7137 32.2053C30.7129 32.3725 30.7129 32.5381 30.7129 32.7669ZM28.4313 37.1877C31.0697 37.1877 33.7081 37.1893 36.3465 37.1869C37.3425 37.1861 38.0193 36.6053 38.0305 35.7501C38.0417 34.8837 37.3497 34.2893 36.3273 34.2861C36.2201 34.2861 36.1129 34.2861 36.0049 34.2861C31.2649 34.2861 26.5249 34.2861 21.7849 34.2861C21.3249 34.2861 20.8641 34.2765 20.4041 34.2893C19.7449 34.3085 19.2225 34.6805 19.0217 35.2501C18.6713 36.2453 19.3841 37.1813 20.5153 37.1845C23.1537 37.1925 25.7929 37.1869 28.4313 37.1877ZM28.5105 21.7653C27.3497 21.7333 26.3201 22.7269 26.2961 23.9029C26.2721 25.0797 27.2353 26.0877 28.4233 26.1293C29.6065 26.1709 30.6449 25.1677 30.6617 23.9685C30.6769 22.7965 29.7025 21.7989 28.5105 21.7653ZM27.7921 32.7413C28.2673 32.7413 28.7049 32.7413 29.1617 32.7413C29.1617 31.0381 29.1617 29.3605 29.1617 27.6709C28.6921 27.6709 28.2553 27.6709 27.7921 27.6709C27.7921 29.3629 27.7921 31.0285 27.7921 32.7413Z" fill="white"/>
<path id="Vector_3" d="M35.8969 14.4685C35.6632 14.7557 35.5249 15.0877 35.3073 15.1517C35.0465 15.2285 34.6401 15.1741 34.4337 15.0077C33.4801 14.2365 32.4568 13.6037 31.2816 13.2517C28.1144 12.3037 25.2265 12.8525 22.6497 14.9365C22.3393 15.1869 22.0376 15.3557 21.6488 15.1853C21.1144 14.9501 21.0593 14.2989 21.5481 13.8589C22.5169 12.9869 23.6233 12.3277 24.8537 11.9117C28.5729 10.6549 32.0065 11.2197 35.1225 13.6149C35.3985 13.8261 35.5992 14.1357 35.8969 14.4685Z" fill="white"/>
<path id="Vector_4" d="M28.4513 14.2168C30.2513 14.2376 31.8337 14.776 33.2233 15.8616C33.6889 16.2248 33.7897 16.6744 33.5009 17.0472C33.2097 17.4224 32.7705 17.432 32.2833 17.0736C29.8753 15.2976 27.0961 15.2928 24.6953 17.0608C24.6585 17.088 24.6225 17.1176 24.5849 17.1432C24.1545 17.4384 23.7105 17.3936 23.4449 17.0296C23.1921 16.6824 23.2601 16.2512 23.6481 15.9368C25.0601 14.7944 26.6809 14.2336 28.4513 14.2168Z" fill="white"/>
<path id="Vector_5" d="M28.4736 17.1504C29.536 17.1776 30.5008 17.48 31.3456 18.128C31.7992 18.476 31.9008 18.8944 31.6336 19.2776C31.3584 19.672 30.9152 19.7024 30.4256 19.36C29.1472 18.4672 27.8104 18.4672 26.5328 19.36C26.0384 19.7056 25.6024 19.676 25.3248 19.2776C25.0576 18.8944 25.1592 18.4824 25.6152 18.1304C26.4584 17.48 27.4224 17.1784 28.4736 17.1504Z" fill="white"/>
<path id="Vector_6" d="M12.9264 6.91716C12.9296 8.65636 11.5344 10.0516 9.79443 10.0508C8.05123 10.05 6.66083 8.66036 6.66003 6.91956C6.65923 5.17636 8.05043 3.78356 9.79043 3.78516C11.5328 3.78676 12.9232 5.17556 12.9264 6.91716ZM11.64 6.94676C11.6536 5.93956 10.8088 5.07796 9.80243 5.07316C8.80963 5.06836 7.96963 5.89236 7.94803 6.89076C7.92723 7.88996 8.77123 8.75076 9.78643 8.76436C10.7696 8.77716 11.6256 7.93716 11.64 6.94676Z" fill="white"/>
<path id="Vector_7" d="M9.79924 11.2598C11.5544 11.2638 12.9352 12.6678 12.9264 14.4398C12.9176 16.1486 11.5136 17.5286 9.78564 17.5262C8.04564 17.5238 6.65844 16.1302 6.66004 14.3862C6.66164 12.6454 8.05684 11.2558 9.79924 11.2598ZM9.74564 16.2382C10.7216 16.2806 11.5936 15.4622 11.6384 14.4622C11.6824 13.4654 10.8552 12.5838 9.84244 12.5486C8.85844 12.5142 8.00084 13.319 7.94884 14.3254C7.89764 15.315 8.72244 16.1934 9.74564 16.2382Z" fill="white"/>
<path id="Vector_8" d="M12.9265 21.8672C12.9289 23.6064 11.5345 25.0016 9.79449 25.0008C8.05129 25 6.66089 23.6104 6.66089 21.8688C6.66009 20.1256 8.05209 18.7328 9.79129 18.7344C11.5329 18.7368 12.9233 20.1256 12.9265 21.8672ZM9.77369 23.7144C10.7553 23.7368 11.6161 22.9032 11.6393 21.9096C11.6625 20.9056 10.8225 20.0376 9.81449 20.0232C8.82489 20.0096 7.97849 20.8272 7.94809 21.828C7.91769 22.824 8.75689 23.6912 9.77369 23.7144Z" fill="white"/>
<path id="Vector_9" d="M26.64 36.4954C24.8608 36.4954 23.0808 36.497 21.3016 36.4946C20.692 36.4938 20.3584 36.2218 20.3568 35.7378C20.3552 35.2522 20.6888 34.9778 21.2968 34.9778C24.856 34.9762 28.4144 34.9762 31.9736 34.9778C32.5832 34.9778 32.9176 35.2506 32.9192 35.7338C32.9208 36.217 32.584 36.4946 31.9784 36.4954C30.1984 36.497 28.4192 36.4954 26.64 36.4954Z" fill="white"/>
<path id="Vector_10" d="M35.4928 36.4922C34.6992 36.4946 34.3632 36.2754 34.3536 35.7498C34.344 35.2106 34.6952 34.9754 35.5088 34.9762C35.6312 34.9762 35.7544 34.9706 35.876 34.9802C36.3032 35.0154 36.5944 35.3146 36.6024 35.7202C36.6104 36.1442 36.3104 36.4586 35.86 36.4914C35.7384 36.4994 35.6152 36.4922 35.4928 36.4922Z" fill="white"/>
</g>
</g>
</svg>
