<svg width="40" height="40" viewBox="0 0 40 40" fill="none" xmlns="http://www.w3.org/2000/svg">
<g id="Group">
<path id="Vector" d="M1.98966 35.9581C2.02546 33.7939 2.69434 31.8778 3.99978 30.1835C3.99978 30.0141 3.99978 29.8473 3.99978 29.6813C3.99978 23.45 4.00328 17.2195 3.99193 10.9882C3.99105 10.5655 4.11679 10.258 4.4163 9.9611C6.49541 7.9 8.56579 5.82929 10.6266 3.74897C10.9235 3.44941 11.2317 3.32365 11.6543 3.3254C15.72 3.3385 19.7848 3.33326 23.8504 3.33326C24.0164 3.33326 24.1831 3.33326 24.4163 3.33326C24.8433 2.89833 25.2982 2.43458 25.7549 1.97171C25.8623 1.86254 25.9671 1.75162 26.0797 1.64857C26.4404 1.31844 26.7905 1.30971 27.1468 1.64857C27.5886 2.06952 28.013 2.50882 28.4461 2.93938C28.5431 3.03544 28.6435 3.12802 28.7509 3.22933C28.9439 3.14811 29.1203 3.07387 29.3124 2.99352C29.3124 2.27476 29.3106 1.56822 29.3132 0.860806C29.3159 0.232868 29.5411 0.00405082 30.1602 0.00230412C30.9374 -0.000315926 31.7146 -0.00118927 32.4917 0.00230412C33.1082 0.00492417 33.3335 0.236362 33.3361 0.865173C33.3387 1.57171 33.337 2.27825 33.337 2.9944C33.5326 3.07562 33.709 3.14985 33.9351 3.2433C34.3586 2.80837 34.7839 2.3717 35.2091 1.93677C35.3157 1.8276 35.4205 1.71581 35.5357 1.61538C35.8667 1.3263 36.2203 1.31582 36.5399 1.62411C37.159 2.22148 37.7676 2.83021 38.3658 3.44854C38.6898 3.78303 38.6863 4.14372 38.3649 4.48258C37.9545 4.91489 37.5275 5.33235 37.1014 5.75069C36.9931 5.85723 36.8639 5.94195 36.7469 6.0354C36.8455 6.27906 36.9171 6.45548 37.0018 6.66333C37.6969 6.66333 38.3876 6.66246 39.0783 6.66333C39.7874 6.66421 39.9969 6.87207 39.9987 7.57598C40.0004 8.31134 40.0004 9.0467 39.9987 9.78206C39.9969 10.4659 39.783 10.6851 39.1115 10.6869C38.4182 10.6886 37.7249 10.6869 37.008 10.6869C36.9302 10.8685 36.8551 11.0441 36.7652 11.2537C37.2036 11.6938 37.6271 12.1506 38.0846 12.5707C38.7876 13.2152 38.7439 13.5925 38.0741 14.2099C37.5747 14.6702 37.1136 15.1724 36.6272 15.6475C36.2029 16.0623 35.8632 16.0614 35.4414 15.6414C34.9402 15.1427 34.4512 14.6326 33.9377 14.1078C33.7229 14.1968 33.5361 14.2737 33.3379 14.3558C33.3379 15.0667 33.3396 15.7601 33.3379 16.4536C33.3361 17.1313 33.1222 17.3426 32.4411 17.3488C32.3171 17.3496 32.194 17.3488 32.0062 17.3488C32.0062 17.5426 32.0062 17.7173 32.0062 17.8911C32.0062 24.4133 32.0062 30.9363 32.0062 37.4585C32.0062 37.5694 32.0071 37.6803 32.0062 37.7912C32.0018 38.4419 31.7818 38.6655 31.1313 38.6663C28.4392 38.6681 25.7479 38.6672 23.0558 38.6672C22.9039 38.6672 22.7519 38.6672 22.5869 38.6672C22.5406 38.7449 22.497 38.8131 22.4585 38.8838C22.0604 39.6235 21.4395 39.9964 20.6021 39.9982C18.743 40.0017 16.884 39.9991 15.024 39.9991C10.7086 39.9991 6.39325 40.0008 2.07872 39.9982C1.14352 39.9973 0.381207 39.4593 0.104399 38.6218C-0.285052 37.4428 0.451936 36.2288 1.70237 35.9913C1.78096 35.979 1.86391 35.9738 1.98966 35.9581ZM5.38906 11.3558C5.38906 17.1872 5.38906 22.96 5.38906 28.7844C6.40024 27.9678 7.49175 27.4124 8.65748 27.0508C8.68979 26.9643 8.71249 26.9137 8.72821 26.8604C9.02772 25.8552 9.73415 25.3224 10.7803 25.3181C11.1968 25.3163 11.6124 25.312 12.0289 25.3189C12.8812 25.3329 13.6138 25.8622 13.8994 26.663C13.9413 26.7801 13.9736 26.8997 14.0155 27.0316C15.9654 27.6455 17.5808 28.7442 18.8094 30.3835C20.045 32.0315 20.6501 33.9013 20.6929 35.9607C21.6028 36.0419 22.2114 36.5065 22.559 37.2838C25.2633 37.2838 27.9353 37.2838 30.6152 37.2838C30.6152 30.6333 30.6152 24.008 30.6152 17.3514C30.4807 17.3514 30.3707 17.3418 30.2642 17.3531C29.6477 17.4204 29.2652 17.1339 29.3028 16.3889C29.3368 15.7138 29.3097 15.0361 29.3097 14.3549C29.1019 14.2702 28.9255 14.1986 28.6706 14.0947C28.5946 14.1995 28.5256 14.3252 28.4287 14.4239C28.0017 14.8597 27.5738 15.2964 27.1311 15.7165C26.8045 16.0274 26.4386 16.0457 26.1286 15.7479C25.4886 15.1322 24.8607 14.5043 24.246 13.8632C23.9605 13.5654 23.984 13.21 24.2608 12.8903C24.3517 12.7855 24.4538 12.6912 24.5525 12.5934C24.9952 12.1558 25.4388 11.7183 25.885 11.2781C25.7968 11.0641 25.7235 10.8877 25.6423 10.6903C24.9402 10.6903 24.2486 10.6912 23.5562 10.6903C22.869 10.6886 22.6507 10.4764 22.6489 9.80652C22.6472 9.04321 22.6463 8.2799 22.6489 7.5166C22.6515 6.8939 22.8786 6.66858 23.5047 6.66596C24.212 6.66334 24.9184 6.66508 25.6388 6.66508C25.7235 6.46421 25.8021 6.27819 25.8579 6.14369C25.3559 5.6389 24.8983 5.17777 24.439 4.71577C20.3209 4.71577 16.1898 4.71577 12.0176 4.71577C12.0176 4.88432 12.0176 5.03367 12.0176 5.18301C12.0176 6.88953 11.9958 8.59693 12.0272 10.3035C12.042 11.1401 11.7469 11.3768 10.9863 11.3646C9.28008 11.3366 7.57296 11.3558 5.8667 11.3558C5.71826 11.3558 5.56807 11.3558 5.38906 11.3558ZM14.019 28.4909C14.019 28.6971 14.019 28.8481 14.019 29.0001C14.019 30.1372 14.019 31.2752 14.019 32.4123C14.019 32.5232 14.026 32.6359 14.0111 32.745C13.9622 33.0987 13.6697 33.3459 13.3213 33.3372C12.9886 33.3284 12.7153 33.0883 12.669 32.7511C12.6524 32.628 12.6603 32.5022 12.6603 32.3773C12.6594 30.7547 12.662 29.1311 12.6585 27.5084C12.6577 26.9128 12.4219 26.6849 11.822 26.6787C11.5303 26.6761 11.2396 26.6779 10.9479 26.6787C10.2345 26.6805 10.0241 26.8857 10.0232 27.587C10.0214 29.1826 10.0232 30.7774 10.0223 32.373C10.0223 32.4979 10.0302 32.6245 10.0136 32.7468C9.96555 33.1005 9.67128 33.3468 9.32287 33.3372C8.99105 33.3275 8.71861 33.0874 8.67145 32.7494C8.65661 32.6402 8.66272 32.5276 8.66272 32.4166C8.66185 31.2516 8.66272 30.0857 8.66185 28.9206C8.66185 28.7896 8.64875 28.6578 8.64002 28.4979C7.99384 28.7154 7.42713 29.0019 6.90408 29.366C4.58658 30.9782 3.42259 33.2096 3.36321 36.0253C3.35361 36.469 3.37195 36.9135 3.35448 37.3572C3.34138 37.6908 3.10562 37.9406 2.79825 37.9939C2.5031 38.0454 2.22717 37.9056 2.07523 37.6218C2.02982 37.538 2.00014 37.4454 1.96346 37.3581C1.5417 37.4795 1.34174 37.7118 1.36968 38.0393C1.40024 38.3912 1.67792 38.6227 2.09357 38.6419C2.17652 38.6454 2.26035 38.6427 2.34331 38.6427C8.33527 38.6427 14.3272 38.6427 20.3192 38.6427C20.4301 38.6427 20.5419 38.648 20.6519 38.6393C21.03 38.6078 21.2972 38.3519 21.312 38.0148C21.3269 37.6786 21.1094 37.4489 20.7086 37.379C20.6973 37.4035 20.6851 37.4279 20.6746 37.4524C20.4964 37.8777 20.2118 38.0655 19.8581 37.9895C19.515 37.9161 19.3263 37.6463 19.3211 37.2078C19.3167 36.8192 19.3229 36.4306 19.3194 36.0428C19.3019 34.1476 18.7247 32.4463 17.5293 30.9686C16.6115 29.8324 15.4589 29.0211 14.019 28.4909ZM25.7479 3.96643C25.7584 3.99438 25.7593 4.01097 25.768 4.01971C26.2256 4.48433 26.6866 4.94458 27.1398 5.41357C27.4647 5.74894 27.4856 5.9699 27.2865 6.38736C27.1442 6.68692 27.0027 6.98909 26.8936 7.30175C26.677 7.9227 26.5556 8.02314 25.9086 8.02401C25.2886 8.02489 24.6686 8.02401 24.0356 8.02401C24.0356 8.47903 24.0356 8.88601 24.0356 9.3288C24.1962 9.3288 24.3325 9.3288 24.4678 9.3288C25.0092 9.3288 25.5506 9.32443 26.0911 9.33054C26.4814 9.33578 26.684 9.48774 26.822 9.83097C26.9861 10.2414 27.152 10.6519 27.3328 11.0554C27.4681 11.3576 27.4323 11.6248 27.2123 11.8624C27.0141 12.0764 26.8036 12.2781 26.5984 12.4842C26.3068 12.7768 26.0143 13.0685 25.7383 13.3445C26.0527 13.6658 26.3391 13.9584 26.6508 14.2772C27.1241 13.8003 27.5878 13.3244 28.0619 12.8589C28.3929 12.5331 28.6138 12.5148 29.0347 12.7148C29.3342 12.858 29.6372 12.9977 29.9498 13.106C30.5698 13.3217 30.6711 13.444 30.6719 14.0912C30.6728 14.7112 30.6719 15.3313 30.6719 15.9645C31.1269 15.9645 31.5338 15.9645 31.9765 15.9645C31.9765 15.2763 31.973 14.6134 31.9774 13.9497C31.9809 13.4877 32.1241 13.3095 32.5572 13.1549C32.8698 13.0431 33.1833 12.9296 33.4811 12.7838C34.0879 12.486 34.225 12.4991 34.7175 12.989C35.148 13.4178 35.5785 13.8475 35.9723 14.2405C36.3085 13.9427 36.6159 13.6711 36.9521 13.3724C36.4517 12.8755 35.9758 12.4117 35.5095 11.9375C35.1821 11.6047 35.162 11.3829 35.3611 10.9655C35.5034 10.6659 35.644 10.3628 35.7532 10.0502C35.9697 9.42923 36.0911 9.3288 36.7381 9.32792C37.3581 9.32705 37.9781 9.32792 38.6138 9.32792C38.6138 8.87465 38.6138 8.4668 38.6138 8.02314C37.9266 8.02314 37.2638 8.02663 36.6002 8.02227C36.14 8.01877 35.9575 7.8738 35.8047 7.44324C35.6929 7.13058 35.5803 6.81617 35.4344 6.51923C35.1358 5.91138 35.1489 5.77427 35.6388 5.28344C36.0684 4.85288 36.498 4.4232 36.8874 4.03368C36.5879 3.69832 36.3155 3.39264 36.016 3.05728C35.5279 3.54897 35.0642 4.02582 34.59 4.49132C34.2582 4.81795 34.0364 4.83716 33.6173 4.63717C33.3178 4.49481 33.0148 4.3542 32.7022 4.24503C32.0804 4.02932 31.9791 3.90705 31.9783 3.26077C31.9774 2.64069 31.9783 2.02061 31.9783 1.38482C31.5251 1.38482 31.1173 1.38482 30.6894 1.38482C30.6833 1.51582 30.6746 1.62499 30.6746 1.73328C30.6728 2.3027 30.6789 2.87125 30.6719 3.44068C30.6676 3.83107 30.5139 4.03718 30.1733 4.17342C29.7629 4.33761 29.3525 4.50267 28.9491 4.68258C28.647 4.81708 28.3833 4.78214 28.1414 4.56468C28.0279 4.4625 27.9231 4.35158 27.8148 4.24329C27.4236 3.8529 27.0333 3.46251 26.6255 3.05378C26.3181 3.37256 26.0422 3.66076 25.7479 3.96643ZM10.6405 5.85461C9.26785 7.22403 7.87072 8.61789 6.51201 9.97333C7.83055 9.97333 9.22507 9.97333 10.6405 9.97333C10.6405 8.55676 10.6405 7.16289 10.6405 5.85461Z" fill="white"/>
<path id="Vector_2" d="M13.3833 15.3528C13.2671 16.6297 13.2671 16.6297 12.0211 16.7056C12.0211 16.9004 12.0219 17.1013 12.0211 17.3021C12.0202 17.5519 12.0333 17.8026 12.0141 18.0506C11.9844 18.4323 11.6866 18.6916 11.3199 18.6803C10.9706 18.6698 10.6938 18.4157 10.6693 18.0497C10.6492 17.7598 10.6632 17.4672 10.6615 17.1764C10.6606 17.027 10.6615 16.8786 10.6615 16.6838C10.4327 16.6838 10.2415 16.6899 10.052 16.6829C9.59092 16.6646 9.33769 16.4166 9.33245 15.9493C9.32372 15.0899 9.32285 14.2297 9.33332 13.3695C9.33856 12.9275 9.59529 12.6699 10.0354 12.6647C10.9086 12.6533 11.7827 12.6533 12.6559 12.6655C13.0899 12.6716 13.3326 12.9363 13.351 13.3799C13.3588 13.5703 13.3518 13.7607 13.3518 13.993C13.5431 13.993 13.6924 13.993 13.8408 13.993C16.0177 13.993 18.1946 13.993 20.3716 13.993C20.4964 13.993 20.6222 13.9852 20.7453 14.0009C21.1007 14.0463 21.3478 14.3354 21.3417 14.6856C21.3356 15.0175 21.0972 15.2943 20.761 15.3432C20.6388 15.3607 20.5121 15.3528 20.3873 15.3528C18.2104 15.3537 16.0335 15.3528 13.8565 15.3528C13.7072 15.3528 13.557 15.3528 13.3833 15.3528ZM10.7191 14.0367C10.7191 14.4891 10.7191 14.8961 10.7191 15.2943C11.1575 15.2943 11.5635 15.2943 11.9617 15.2943C11.9617 14.8559 11.9617 14.4498 11.9617 14.0367C11.5347 14.0367 11.1382 14.0367 10.7191 14.0367Z" fill="white"/>
<path id="Vector_3" d="M22.6516 30.0083C22.2394 30.0083 21.8683 30.0083 21.4981 30.0083C21.0265 30.0083 20.555 30.0135 20.0835 30.0065C19.6058 29.9995 19.3151 29.7279 19.3229 29.3139C19.3308 28.9183 19.6163 28.6554 20.0695 28.6511C20.7768 28.6432 21.4841 28.6485 22.1905 28.6485C22.3267 28.6485 22.4621 28.6485 22.6079 28.6485C22.7232 28.2589 22.5267 27.8336 22.8454 27.5175C23.1572 27.2074 23.5562 27.3655 23.9483 27.2939C23.9588 27.1987 23.9789 27.0939 23.9797 26.9891C23.9832 26.4485 23.9736 25.907 23.985 25.3664C23.9937 24.942 24.26 24.6651 24.6408 24.6546C25.0389 24.6433 25.328 24.9262 25.3376 25.3673C25.3489 25.866 25.3411 26.3655 25.3411 26.8651C25.3411 27.0004 25.3411 27.1367 25.3411 27.3175C25.569 27.3175 25.7593 27.3114 25.9488 27.3183C26.4107 27.3358 26.6649 27.583 26.6701 28.0502C26.6788 28.9096 26.6797 29.7698 26.6692 30.6292C26.664 31.0694 26.4055 31.3305 25.968 31.3366C25.0948 31.348 24.2207 31.348 23.3475 31.3366C22.9127 31.3305 22.669 31.0659 22.6516 30.6231C22.6455 30.4318 22.6516 30.2414 22.6516 30.0083ZM25.2843 29.9655C25.2843 29.5131 25.2843 29.107 25.2843 28.707C24.8468 28.707 24.4408 28.707 24.0409 28.707C24.0409 29.1445 24.0409 29.5506 24.0409 29.9655C24.4679 29.9655 24.8643 29.9655 25.2843 29.9655Z" fill="white"/>
<path id="Vector_4" d="M17.9597 24.0127C17.3502 24.0127 16.7398 24.0171 16.1303 24.0119C15.5654 24.0075 15.327 23.7664 15.3252 23.1961C15.3217 21.9481 15.3209 20.701 15.3252 19.453C15.327 18.9071 15.5697 18.6608 16.1085 18.6582C17.3703 18.653 18.6312 18.653 19.893 18.6582C20.4317 18.6608 20.6762 18.908 20.678 19.4521C20.6824 20.7141 20.6832 21.9752 20.678 23.2372C20.6754 23.7551 20.4265 24.0057 19.9148 24.0119C19.2634 24.018 18.6111 24.0127 17.9597 24.0127ZM19.3044 20.046C18.4085 20.046 17.558 20.046 16.7136 20.046C16.7136 20.9272 16.7136 21.7778 16.7136 22.6224C17.5947 22.6224 18.4452 22.6224 19.3044 22.6224C19.3044 21.7508 19.3044 20.9106 19.3044 20.046Z" fill="white"/>
<path id="Vector_5" d="M23.9823 16.6842C23.5256 16.6842 23.1379 16.6894 22.7502 16.6824C22.2367 16.6728 21.9896 16.4274 21.9861 15.9095C21.98 15.0772 21.9791 14.2458 21.9861 13.4135C21.9896 12.9576 22.2507 12.6729 22.6454 12.6624C23.0593 12.6519 23.3352 12.9436 23.3413 13.4196C23.3492 14.0397 23.3431 14.6606 23.3431 15.3243C23.7675 15.3243 24.1525 15.3209 24.5368 15.3252C25.1009 15.3313 25.3401 15.5706 25.341 16.1436C25.3436 18.2649 25.3419 20.3872 25.3419 22.5085C25.3419 22.5915 25.3462 22.6762 25.3331 22.7574C25.2799 23.1094 24.9856 23.3548 24.6381 23.3426C24.3062 23.3312 24.0355 23.0893 23.991 22.7513C23.9753 22.6282 23.9831 22.5024 23.9831 22.3775C23.9831 20.6439 23.9831 18.9112 23.9831 17.1776C23.9823 17.0283 23.9823 16.8798 23.9823 16.6842Z" fill="white"/>
<path id="Vector_6" d="M12.0185 22.3467C12.0185 22.9004 12.0351 23.4559 12.0133 24.0087C11.9923 24.5476 11.4475 24.8489 11.0021 24.586C10.7829 24.4567 10.6642 24.2602 10.6633 24.0044C10.6607 22.8961 10.6555 21.7878 10.6659 20.6804C10.6703 20.2655 10.9593 19.9913 11.3427 19.9922C11.7243 19.9931 12.0063 20.2682 12.0159 20.6848C12.029 21.2385 12.0194 21.793 12.0185 22.3467Z" fill="white"/>
<path id="Vector_7" d="M13.351 36.671C13.351 36.9269 13.3615 37.133 13.3484 37.3374C13.3231 37.7286 13.0759 37.9906 12.6847 37.9976C11.7976 38.0116 10.9095 38.0107 10.0223 37.9985C9.58922 37.9924 9.34821 37.726 9.33075 37.2806C9.32376 37.1007 9.32987 36.9208 9.32987 36.671C9.1692 36.671 9.02425 36.671 8.87842 36.671C7.78255 36.671 6.68754 36.671 5.59167 36.671C5.48077 36.671 5.36812 36.678 5.25897 36.6631C4.90445 36.6142 4.65995 36.3225 4.66868 35.9732C4.67742 35.6396 4.9158 35.3697 5.25373 35.3208C5.34891 35.3068 5.44759 35.3121 5.54451 35.3121C6.95911 35.3112 8.37371 35.3112 9.78743 35.3121C10.4694 35.3129 10.6816 35.5243 10.6868 36.2029C10.6877 36.3269 10.6868 36.4518 10.6868 36.6099C11.1095 36.6099 11.5173 36.6099 11.9914 36.6099C11.9914 36.4509 11.9888 36.278 11.9923 36.1042C12.0019 35.561 12.2394 35.3147 12.7808 35.3138C14.4862 35.3095 16.1924 35.3095 17.8978 35.3138C18.3807 35.3147 18.6741 35.5784 18.6767 35.988C18.6784 36.3976 18.3833 36.6684 17.9048 36.6701C16.5181 36.6754 15.1315 36.6719 13.7448 36.6719C13.6365 36.671 13.5265 36.671 13.351 36.671Z" fill="white"/>
<path id="Vector_8" d="M34.6668 8.70345C34.6554 10.5567 33.1457 12.0344 31.2744 12.0222C29.4476 12.0108 27.9728 10.5017 27.9798 8.65018C27.9867 6.79868 29.4983 5.32097 31.3704 5.33407C33.2015 5.3463 34.6781 6.85544 34.6668 8.70345ZM33.3055 8.65367C33.2976 7.58993 32.3956 6.69388 31.3338 6.69475C30.244 6.69562 29.342 7.5943 29.3428 8.67812C29.3437 9.76108 30.2536 10.665 31.3364 10.658C32.42 10.651 33.3133 9.74186 33.3055 8.65367Z" fill="white"/>
</g>
</svg>
