<svg width="40" height="40" viewBox="0 0 40 40" fill="none" xmlns="http://www.w3.org/2000/svg">
<g id="&#216;&#167;&#217;&#138;&#217;&#131;&#217;&#136;&#217;&#134; &#216;&#167;&#217;&#132;&#216;&#170;&#216;&#175;&#216;&#180;&#217;&#138;&#217;&#134;_9">
<g id="Group">
<path id="Vector" d="M24.192 33.0499C24.192 33.9771 24.192 34.8395 24.192 35.7243C24.6456 35.9379 25.0008 36.2571 25.156 36.7523C25.26 37.0835 25.2552 37.4171 25.1392 37.7467C24.9056 38.4099 24.2672 38.8395 23.5728 38.8003C22.868 38.7603 22.2672 38.2651 22.1152 37.5987C21.9392 36.8275 22.2632 36.2059 23.1072 35.7187C23.1072 34.8483 23.1072 33.9667 23.1072 33.0675C21.0616 33.0675 19.0392 33.0675 16.9592 33.0675C16.9592 33.2091 16.9592 33.3411 16.9592 33.4731C16.9592 34.6243 16.9608 35.7747 16.9584 36.9259C16.9568 37.5219 16.816 37.6643 16.232 37.6659C15.1184 37.6683 14.0048 37.6667 12.892 37.6659C12.792 37.6659 12.6896 37.6675 12.5936 37.6467C12.3432 37.5923 12.2056 37.4283 12.1928 37.1731C12.18 36.9179 12.2984 36.7347 12.544 36.6611C12.6728 36.6227 12.8152 36.6179 12.9512 36.6179C13.7896 36.6139 14.6272 36.6163 15.4656 36.6163C15.5992 36.6163 15.7328 36.6163 15.8872 36.6163C15.8872 35.4115 15.8872 34.2547 15.8872 33.0499C15.7392 33.0499 15.6056 33.0499 15.472 33.0499C13.8704 33.0499 12.2696 33.0595 10.668 33.0467C9.16085 33.0347 8.02805 32.3795 7.33685 31.0203C7.07045 30.4971 6.99365 29.9307 6.99605 29.3467C7.00325 27.8331 6.99845 26.3195 6.99845 24.8059C6.99845 24.6707 6.99845 24.5355 6.99845 24.3755C5.79685 24.3755 4.62965 24.3755 3.43525 24.3755C3.42885 24.5043 3.41845 24.6259 3.41845 24.7467C3.41685 25.6347 3.41925 26.5235 3.41685 27.4115C3.41525 27.8419 3.21525 28.0899 2.88485 28.0819C2.56645 28.0747 2.36885 27.8347 2.36805 27.4291C2.36405 26.2659 2.36325 25.1019 2.36885 23.9387C2.37045 23.4875 2.55925 23.3019 3.01045 23.3003C4.18645 23.2963 5.36245 23.2987 6.53845 23.2987C6.67445 23.2987 6.80965 23.2987 6.97205 23.2987C6.97205 21.2371 6.97205 19.2059 6.97205 17.1451C6.09205 17.1451 5.22245 17.1451 4.34645 17.1451C3.59685 18.1027 3.04245 18.3515 2.27045 18.0699C1.60805 17.8275 1.20245 17.2091 1.23525 16.4923C1.26645 15.8219 1.76565 15.2139 2.41525 15.0555C3.18325 14.8683 3.79125 15.1787 4.32725 16.0379C5.20165 16.0379 6.08245 16.0379 6.99845 16.0379C6.99845 15.8755 6.99845 15.7411 6.99845 15.6059C7.00005 13.8795 6.98085 12.1531 7.00805 10.4267C7.03365 8.76833 8.13205 7.40993 9.74405 7.06513C10.2864 6.94913 10.8616 6.96833 11.4224 6.96753C11.7416 6.96673 11.9368 7.21793 11.9256 7.50913C11.9144 7.80033 11.7096 7.98753 11.3768 8.00273C10.9648 8.02113 10.548 8.00033 10.1424 8.05713C8.95925 8.22193 8.10085 9.20113 8.05525 10.3979C8.05045 10.5227 8.05045 10.6483 8.05045 10.7731C8.05045 16.9283 8.04805 23.0835 8.05605 29.2379C8.05685 29.5955 8.08405 29.9699 8.18885 30.3083C8.49445 31.2883 9.36965 31.9179 10.448 31.9907C10.5976 32.0011 10.748 31.9979 10.8984 31.9979C15.7648 31.9979 20.6312 31.9979 25.4976 31.9987C25.6224 31.9987 25.7488 31.9931 25.8728 32.0035C26.1464 32.0275 26.3456 32.2259 26.3648 32.4811C26.3832 32.7315 26.2104 32.9619 25.9408 33.0219C25.8208 33.0483 25.6928 33.0475 25.568 33.0483C25.12 33.0515 24.6728 33.0499 24.192 33.0499ZM2.78405 17.1163C3.06645 17.1323 3.31765 16.9099 3.33685 16.6267C3.35685 16.3371 3.14805 16.0923 2.85925 16.0667C2.55605 16.0403 2.29925 16.2659 2.28645 16.5699C2.27525 16.8515 2.50165 17.1003 2.78405 17.1163ZM24.1784 37.2235C24.1752 36.9427 23.9248 36.6963 23.644 36.6987C23.36 36.7003 23.1232 36.9443 23.1248 37.2339C23.1264 37.5243 23.364 37.7579 23.6537 37.7547C23.9401 37.7499 24.1816 37.5059 24.1784 37.2235Z" fill="white"/>
<path id="Vector_2" d="M15.8896 6.95335C15.8896 6.03415 15.8896 5.16295 15.8896 4.29815C14.9936 3.71015 14.692 3.08615 14.924 2.31415C15.1216 1.65335 15.7552 1.19015 16.4488 1.19735C17.1456 1.20455 17.7688 1.67735 17.9544 2.34055C18.1696 3.11015 17.8488 3.75735 16.976 4.29095C16.976 5.15335 16.976 6.02455 16.976 6.92455C19.0224 6.92455 21.052 6.92455 23.1312 6.92455C23.1312 6.78455 23.1312 6.65095 23.1312 6.51735C23.1312 5.36695 23.1296 4.21575 23.132 3.06535C23.1328 2.47575 23.2728 2.33735 23.8648 2.33655C24.9656 2.33415 26.0664 2.33575 27.1672 2.33655C27.2672 2.33655 27.3688 2.33495 27.4664 2.35095C27.72 2.39175 27.864 2.54775 27.8928 2.80215C27.9216 3.06055 27.7856 3.27575 27.5336 3.34455C27.4032 3.37975 27.2624 3.38455 27.1256 3.38535C26.2752 3.38855 25.4248 3.38695 24.5736 3.38695C24.4632 3.38695 24.352 3.38695 24.212 3.38695C24.212 4.58135 24.212 5.74695 24.212 6.95335C24.3592 6.95335 24.4936 6.95335 24.628 6.95335C26.204 6.95335 27.78 6.94055 29.356 6.95735C30.8952 6.97415 32.0344 7.65815 32.7064 9.06615C32.9488 9.57335 33.0112 10.1157 33.0096 10.6725C33.0048 12.3109 33.008 13.9493 33.008 15.5885C33.008 15.7253 33.008 15.8621 33.008 16.0317C34.1984 16.0317 35.3656 16.0317 36.5664 16.0317C36.5736 15.9157 36.5872 15.7957 36.5872 15.6765C36.5888 14.8133 36.588 13.9501 36.5888 13.0869C36.5888 12.9741 36.5792 12.8589 36.6016 12.7501C36.6496 12.5205 36.7936 12.3733 37.0312 12.3413C37.2824 12.3077 37.4816 12.4029 37.576 12.6405C37.6248 12.7629 37.636 12.9077 37.636 13.0421C37.6408 14.1557 37.64 15.2685 37.6376 16.3821C37.6368 16.9485 37.472 17.1141 36.8944 17.1157C35.756 17.1189 34.6176 17.1165 33.48 17.1165C33.344 17.1165 33.208 17.1165 33.04 17.1165C33.04 19.1781 33.04 21.2085 33.04 23.2685C33.9136 23.2685 34.7936 23.2685 35.6784 23.2685C36.26 22.3741 36.8704 22.0758 37.6424 22.3118C38.3176 22.5182 38.7704 23.1285 38.7672 23.8269C38.7632 24.5253 38.296 25.1421 37.6264 25.3309C36.848 25.5509 36.2232 25.2445 35.6768 24.3645C34.8136 24.3645 33.9408 24.3645 33.0072 24.3645C33.0072 24.5021 33.0072 24.6333 33.0072 24.7645C33.0056 26.3781 33.0256 27.9917 32.996 29.6053C32.9656 31.2429 31.8704 32.5869 30.2696 32.9333C29.728 33.0501 29.152 33.0325 28.592 33.0349C28.2688 33.0365 28.0736 32.7917 28.08 32.5013C28.0864 32.2093 28.2912 32.0157 28.6208 32.0005C29.0328 31.9813 29.4488 32.0029 29.8552 31.9469C31.0408 31.7837 31.9008 30.8093 31.9504 29.6141C31.9544 29.5269 31.956 29.4389 31.956 29.3517C31.956 23.1229 31.9536 16.8933 31.96 10.6645C31.9608 9.98615 31.7992 9.37975 31.3472 8.86455C30.8176 8.26055 30.1352 8.00615 29.3456 8.00535C28.32 8.00455 27.2944 8.00535 26.2688 8.00455C22.3536 8.00455 18.4392 8.00455 14.524 8.00455C14.3992 8.00455 14.2736 8.01015 14.1488 8.00055C13.8576 7.97815 13.6464 7.76695 13.6392 7.49975C13.632 7.24935 13.8128 7.02775 14.0848 6.97415C14.1936 6.95255 14.3088 6.95495 14.4208 6.95495C14.8944 6.95255 15.368 6.95335 15.8896 6.95335ZM37.7144 23.8381C37.724 23.5533 37.4992 23.3117 37.2136 23.2981C36.9072 23.2837 36.6648 23.5149 36.6632 23.8221C36.6624 24.1037 36.8992 24.3453 37.1792 24.3493C37.4592 24.3541 37.7056 24.1181 37.7144 23.8381ZM16.964 2.75895C16.956 2.47175 16.7112 2.24135 16.4224 2.25015C16.132 2.25895 15.9048 2.49975 15.912 2.79015C15.92 3.07575 16.1672 3.30935 16.4528 3.29975C16.7432 3.28935 16.9712 3.04775 16.964 2.75895Z" fill="white"/>
<path id="Vector_3" d="M14.044 15.8727C14.5184 20.1927 14.988 24.4623 15.46 28.7575C18.5736 28.7575 21.668 28.7575 24.812 28.7575C25.2824 24.4879 25.7536 20.2079 26.2312 15.8727C26.0696 15.8727 25.9256 15.8727 25.7816 15.8727C22.9928 15.8727 20.2032 15.8727 17.4144 15.8719C17.2896 15.8719 17.1624 15.8807 17.04 15.8599C16.7712 15.8135 16.6032 15.5959 16.612 15.3271C16.62 15.0759 16.7864 14.8783 17.0408 14.8327C17.1384 14.8151 17.24 14.8215 17.34 14.8215C20.4296 14.8207 23.5184 14.8207 26.608 14.8215C27.2096 14.8215 27.3792 15.0303 27.3128 15.6295C27.072 17.7911 26.8416 19.9535 26.6032 22.1151C26.3896 24.0535 26.172 25.9903 25.9568 27.9287C25.9096 28.3511 25.876 28.7751 25.82 29.1959C25.7512 29.7135 25.608 29.8335 25.0872 29.8335C22.3856 29.8343 19.684 29.8343 16.9824 29.8343C16.3696 29.8343 15.7568 29.8367 15.144 29.8335C14.6632 29.8311 14.5008 29.6735 14.448 29.1935C14.1568 26.5351 13.8616 23.8767 13.5688 21.2175C13.3632 19.3543 13.1568 17.4903 12.9584 15.6263C12.9408 15.4575 12.9448 15.2703 13.0024 15.1143C13.0832 14.8951 13.288 14.8183 13.5208 14.8191C14.1336 14.8215 14.7464 14.8143 15.3592 14.8223C15.7024 14.8271 15.932 15.0399 15.9392 15.3327C15.9464 15.6375 15.7072 15.8607 15.3448 15.8679C14.9344 15.8791 14.5232 15.8727 14.044 15.8727Z" fill="white"/>
<path id="Vector_4" d="M16.8793 12.5701C16.8793 12.2765 16.8753 12.0389 16.8801 11.8021C16.9009 10.7861 17.5217 10.1717 18.5329 10.1685C19.5209 10.1653 20.5097 10.1645 21.4977 10.1685C22.4649 10.1725 23.0905 10.7829 23.1241 11.7533C23.1329 12.0125 23.1257 12.2725 23.1257 12.5701C23.3001 12.5701 23.4345 12.5701 23.5689 12.5701C24.7449 12.5701 25.9209 12.5677 27.0969 12.5709C28.3969 12.5741 29.2257 13.4045 29.2305 14.7077C29.2329 15.3957 29.2313 16.0837 29.2313 16.7717C29.2313 16.8341 29.2337 16.8973 29.2297 16.9597C29.2057 17.3005 28.9929 17.5245 28.6977 17.5213C28.4001 17.5181 28.1881 17.2949 28.1841 16.9493C28.1761 16.3117 28.1537 15.6717 28.1873 15.0357C28.2417 14.0165 27.8841 13.6021 26.7841 13.6093C22.2057 13.6373 17.6265 13.6213 13.0473 13.6213C12.9097 13.6213 12.7705 13.6141 12.6353 13.6333C12.1537 13.7045 11.8369 14.0813 11.8297 14.6109C11.8201 15.3493 11.8289 16.0869 11.8249 16.8253C11.8241 16.9485 11.8281 17.0837 11.7825 17.1933C11.6881 17.4221 11.5009 17.5405 11.2457 17.5165C10.9937 17.4925 10.7873 17.2885 10.7841 17.0077C10.7745 16.1197 10.7361 15.2277 10.8017 14.3445C10.8785 13.3093 11.7369 12.5805 12.7865 12.5725C14.0001 12.5637 15.2137 12.5701 16.4273 12.5701C16.5601 12.5701 16.6953 12.5701 16.8793 12.5701ZM22.0681 12.5517C22.0681 12.2501 22.0849 11.9645 22.0633 11.6829C22.0409 11.3893 21.8681 11.2261 21.5729 11.2237C20.5249 11.2149 19.4769 11.2157 18.4289 11.2237C18.1465 11.2261 17.9713 11.3781 17.9481 11.6485C17.9225 11.9421 17.9425 12.2405 17.9425 12.5525C19.3265 12.5517 20.6801 12.5517 22.0681 12.5517Z" fill="white"/>
<path id="Vector_5" d="M21.7656 22.1498C21.7656 20.8378 21.7656 19.5266 21.7664 18.2146C21.7664 18.0898 21.7632 17.9634 21.7808 17.841C21.8216 17.5594 22.0208 17.3818 22.2824 17.377C22.5432 17.3722 22.7504 17.5474 22.7992 17.8234C22.8144 17.909 22.8168 17.9978 22.8168 18.0842C22.8176 20.8074 22.8176 23.5306 22.8168 26.2538C22.8168 26.3411 22.816 26.4298 22.8024 26.5154C22.7576 26.7954 22.5608 26.9754 22.3 26.9802C22.028 26.985 21.8152 26.7938 21.7776 26.4963C21.7616 26.373 21.7664 26.2466 21.7664 26.1218C21.7656 24.7978 21.7656 23.4738 21.7656 22.1498Z" fill="white"/>
<path id="Vector_6" d="M19.4769 22.1466C19.4769 20.8218 19.4769 19.4978 19.4769 18.173C19.4769 18.0602 19.4689 17.9466 19.4849 17.8362C19.5225 17.5706 19.7417 17.3802 19.9961 17.377C20.2497 17.3738 20.4737 17.561 20.5177 17.825C20.5337 17.9226 20.5273 18.0242 20.5273 18.1242C20.5281 20.8226 20.5281 23.5218 20.5273 26.2202C20.5273 26.7218 20.3521 26.9746 20.0073 26.9786C19.6609 26.9826 19.4769 26.725 19.4769 26.2314C19.4769 24.8698 19.4769 23.5082 19.4769 22.1466Z" fill="white"/>
<path id="Vector_7" d="M17.1104 22.1818C17.1104 20.8578 17.1096 19.5338 17.1112 18.209C17.1112 18.0722 17.1096 17.9322 17.1344 17.7986C17.1816 17.5418 17.3864 17.3778 17.6336 17.377C17.8808 17.3754 18.088 17.5394 18.1368 17.793C18.16 17.9146 18.1608 18.041 18.1608 18.1658C18.1624 20.8394 18.1624 23.5122 18.1608 26.1858C18.1608 26.3226 18.1608 26.4634 18.1304 26.5954C18.0712 26.8458 17.8888 26.9754 17.64 26.977C17.3904 26.9786 17.2056 26.8506 17.1456 26.601C17.1112 26.4578 17.1128 26.3042 17.112 26.1546C17.1096 24.8298 17.1104 23.5058 17.1104 22.1818Z" fill="white"/>
</g>
</g>
</svg>
