<svg width="38" height="38" viewBox="0 0 38 38" fill="none" xmlns="http://www.w3.org/2000/svg">
<g id="Group">
<path id="Vector" d="M7.47732 32.6131C7.26532 32.3652 7.06212 32.146 6.87972 31.91C6.62052 31.5756 6.34132 31.2492 6.13892 30.882C5.98692 30.606 5.81172 30.542 5.52292 30.5443C4.00212 30.5564 2.48132 30.55 0.959722 30.55C0.872522 30.55 0.785322 30.5515 0.698122 30.5492C0.230922 30.538 0.0141225 30.3236 0.00132246 29.8619C-0.00107754 29.7747 0.000522438 29.6875 0.000522438 29.6003C0.000522438 22.8427 0.000522438 16.0859 0.000522438 9.32835C0.000522438 9.26595 -0.000277562 9.20355 0.000522438 9.14115C0.00612244 8.59955 0.209323 8.39075 0.742122 8.38755C1.27652 8.38435 1.81092 8.38675 2.39412 8.38675C2.39412 8.06995 2.41172 7.77395 2.39092 7.48035C2.34132 6.79475 2.66292 6.58115 3.26372 6.58355C7.31572 6.59795 11.3677 6.59715 15.4197 6.58755C16.6645 6.58435 17.6693 7.04595 18.4421 8.01875C18.4725 8.05715 18.5061 8.09315 18.5581 8.15315C18.6277 8.07395 18.6917 8.00435 18.7525 7.93235C19.4941 7.05075 20.4349 6.59155 21.5925 6.59075C22.1405 6.58995 22.6877 6.59075 23.2701 6.59075C23.2029 6.41395 23.1453 6.26755 23.0917 6.11955C22.6749 4.96995 22.5861 3.81395 23.0421 2.65315C23.7205 0.925148 25.5093 -0.164452 27.3557 0.0203475C29.2261 0.207548 30.7637 1.64435 31.0749 3.48115C31.2293 4.39155 31.1045 5.26595 30.7901 6.12275C30.7389 6.26195 30.6829 6.39955 30.6181 6.56835C30.7405 6.57635 30.8453 6.58915 30.9501 6.58915C31.9477 6.59075 32.9453 6.60915 33.9421 6.58275C34.4949 6.56835 34.7741 6.89155 34.7373 7.37235C34.7125 7.69235 34.7325 8.01635 34.7325 8.36275C34.8645 8.37155 34.9725 8.38435 35.0797 8.38435C35.5533 8.38675 36.0277 8.37715 36.5013 8.38915C36.8773 8.39875 37.0997 8.62515 37.1237 8.99555C37.1301 9.09475 37.1261 9.19475 37.1261 9.29475C37.1261 16.0771 37.1261 22.8595 37.1261 29.6411C37.1261 29.6539 37.1253 29.6659 37.1261 29.6787C37.1869 30.3372 36.8453 30.5643 36.2733 30.5555C34.7149 30.5323 33.1565 30.5476 31.5981 30.5476C31.4621 30.5476 31.3269 30.5476 31.1413 30.5476C31.1413 30.702 31.1413 30.834 31.1413 30.966C31.1413 32.3251 31.1413 33.6836 31.1413 35.0428C31.1413 35.1427 31.1437 35.2428 31.1389 35.3419C31.1253 35.6035 30.9949 35.79 30.7533 35.8884C30.5237 35.9819 30.3125 35.9315 30.1261 35.7764C30.0501 35.7123 29.9813 35.6387 29.9109 35.5683C29.2141 34.8723 28.5181 34.1748 27.8213 33.4795C27.7349 33.394 27.6429 33.3139 27.5397 33.2188C27.4349 33.3163 27.3437 33.3971 27.2573 33.4836C26.5605 34.1796 25.8645 34.8764 25.1669 35.5723C25.0877 35.6516 25.0117 35.7364 24.9213 35.802C24.5197 36.0964 23.9989 35.8684 23.9445 35.3755C23.9333 35.2771 23.9397 35.1763 23.9397 35.0764C23.9397 33.7172 23.9397 32.3587 23.9397 30.9995C23.9397 30.8644 23.9397 30.7292 23.9397 30.57C23.8077 30.5612 23.6997 30.5483 23.5917 30.5483C20.2501 30.5476 16.9093 30.55 13.5677 30.5428C13.3293 30.542 13.2069 30.614 13.0693 30.822C12.7341 31.33 12.3445 31.8012 11.9741 32.2852C11.8925 32.3916 11.8029 32.4916 11.6989 32.6156C11.8349 32.6723 11.9469 32.7211 12.0605 32.7659C12.4581 32.9212 12.8261 33.1268 13.1453 33.4132C13.9933 34.1731 14.0013 35.2532 13.1605 36.0243C12.6413 36.4995 12.0141 36.7652 11.3389 36.9252C9.97412 37.2484 8.62212 37.2179 7.28932 36.7612C6.81412 36.5979 6.37732 36.3628 6.00612 36.0172C5.16932 35.2388 5.18052 34.1707 6.03572 33.4083C6.35572 33.1227 6.72452 32.9188 7.12292 32.7635C7.23572 32.7203 7.34612 32.6691 7.47732 32.6131ZM3.63092 26.3411C4.26372 26.3411 4.86052 26.3307 5.45732 26.3459C5.69572 26.3523 5.82372 26.2828 5.95252 26.0652C6.76692 24.694 7.98452 23.9571 9.58132 23.9563C11.1941 23.9555 12.4165 24.7011 13.2357 26.0883C13.3453 26.2731 13.4517 26.3507 13.6677 26.3459C14.3029 26.3315 14.9389 26.3411 15.5741 26.3411C16.3597 26.3403 17.0661 26.5812 17.7021 27.0387C17.7741 27.0907 17.8509 27.1371 17.9373 27.1939C17.9461 27.1339 17.9525 27.1091 17.9525 27.0852C17.9533 21.4652 17.9549 15.8443 17.9485 10.2243C17.9485 9.97955 17.9053 9.72595 17.8349 9.49075C17.5277 8.46435 16.6165 7.81235 15.4901 7.81155C11.6397 7.80835 7.78852 7.80995 3.93812 7.80995C3.84132 7.80995 3.74532 7.80995 3.63012 7.80995C3.63092 13.9947 3.63092 20.1451 3.63092 26.3411ZM19.1717 27.2428C20.0485 26.4932 21.0229 26.326 22.0789 26.3323C25.7437 26.3556 29.4085 26.3411 33.0725 26.3403C33.2157 26.3403 33.3597 26.3339 33.4861 26.3307C33.4861 20.1299 33.4861 13.9787 33.4861 7.80995C32.2877 7.80995 31.1165 7.80835 29.9461 7.81395C29.8685 7.81395 29.7693 7.85075 29.7181 7.90595C29.4925 8.14915 29.2813 8.40595 29.0437 8.68195C29.2045 8.74515 29.3317 8.79235 29.4557 8.84435C29.9437 9.04835 30.3949 9.30755 30.7357 9.72515C31.2789 10.3907 31.2797 11.1763 30.7405 11.8459C30.4029 12.2651 29.9613 12.5427 29.4685 12.7355C28.0661 13.2859 26.6309 13.3291 25.1757 12.9843C24.5133 12.8275 23.8981 12.5651 23.3853 12.1027C22.5117 11.3131 22.5149 10.2003 23.4261 9.45235C23.7381 9.19635 24.1245 9.02995 24.4805 8.82835C24.5853 8.76915 24.7021 8.73075 24.8309 8.67475C24.6181 8.42595 24.4197 8.20275 24.2317 7.96995C24.1373 7.85315 24.0325 7.80435 23.8797 7.80595C23.0821 7.81315 22.2837 7.79555 21.4869 7.81475C20.4629 7.83875 19.5765 8.51235 19.2925 9.48995C19.2069 9.78355 19.1773 10.1027 19.1765 10.4099C19.1701 15.8819 19.1717 21.3539 19.1717 26.8259C19.1717 26.9379 19.1717 27.0492 19.1717 27.2428ZM35.8693 29.3139C35.9461 28.7836 35.9221 9.87475 35.8517 9.63395C35.4789 9.63395 35.1117 9.63395 34.7309 9.63395C34.7309 9.81235 34.7309 9.96195 34.7309 10.1107C34.7309 15.6579 34.7261 21.2052 34.7381 26.7523C34.7389 27.2948 34.4629 27.5836 33.9261 27.5652C33.1165 27.5372 32.3061 27.5571 31.4957 27.5588C31.3869 27.5588 31.2789 27.5692 31.1605 27.5748C31.1605 28.1667 31.1605 28.7332 31.1605 29.3139C32.7445 29.3139 34.3085 29.3139 35.8693 29.3139ZM5.36372 27.5579C5.24532 27.5579 5.12372 27.5579 5.00212 27.5579C4.35412 27.5579 3.70532 27.5635 3.05732 27.5555C2.63572 27.5499 2.41332 27.3251 2.39572 26.9107C2.39092 26.7987 2.39412 26.6868 2.39412 26.5739C2.39412 21.0643 2.39412 15.5547 2.39332 10.0443C2.39332 9.90115 2.38612 9.75795 2.38292 9.60435C2.14612 9.60435 1.95892 9.60355 1.77252 9.60435C1.59172 9.60515 1.41012 9.60835 1.24532 9.60995C1.24532 16.2139 1.24532 22.7643 1.24532 29.3139C2.67812 29.3139 4.08212 29.3139 5.46532 29.3139C5.43172 28.7291 5.39892 28.1619 5.36372 27.5579ZM26.9501 9.25235C27.6861 8.38275 28.4173 7.58035 29.0757 6.72355C29.7525 5.84275 30.0413 4.82435 29.8645 3.70515C29.6141 2.12115 28.1245 1.05555 26.5933 1.25395C24.8485 1.47955 23.8117 2.98995 23.9765 4.58435C24.0741 5.52835 24.4421 6.35555 25.0669 7.07155C25.5829 7.66195 26.0893 8.26115 26.6013 8.85555C26.7053 8.97555 26.8117 9.09395 26.9501 9.25235ZM9.55492 33.1476C9.60692 33.1268 9.63572 33.1236 9.64932 33.1076C10.3525 32.2836 11.0909 31.4867 11.7453 30.6259C12.4261 29.7307 12.7005 28.6916 12.4981 27.5628C12.2533 26.1964 11.0109 25.174 9.60532 25.1652C8.18532 25.1564 6.91812 26.1819 6.67332 27.5603C6.46772 28.7163 6.77412 29.7596 7.46452 30.6859C7.82052 31.1643 8.22852 31.6044 8.61572 32.0596C8.93012 32.4268 9.24692 32.7908 9.55492 33.1476ZM25.1733 27.5724C25.1733 29.6548 25.1733 31.7124 25.1733 33.8172C25.2917 33.7067 25.3821 33.6259 25.4677 33.5411C25.9701 33.0403 26.4709 32.5372 26.9741 32.0364C27.4053 31.6084 27.6765 31.61 28.1141 32.0452C28.6261 32.554 29.1349 33.0667 29.6469 33.5764C29.7229 33.6524 29.8069 33.7196 29.8997 33.802C29.8997 31.7084 29.8997 29.6476 29.8997 27.5724C28.3253 27.5724 26.7717 27.5724 25.1733 27.5724ZM27.0549 11.9851C27.2837 11.9627 27.6333 11.9491 27.9757 11.8907C28.5549 11.7923 29.1221 11.6395 29.5981 11.2699C30.0157 10.9459 30.0181 10.6571 29.6133 10.3331C29.2245 10.0219 28.7605 9.87955 28.2877 9.76035C28.1541 9.72675 28.0805 9.80275 28.0053 9.89315C27.8373 10.0939 27.6677 10.2931 27.4941 10.4883C27.1181 10.9123 26.7661 10.9147 26.3949 10.4971C26.2133 10.2923 26.0437 10.0755 25.8541 9.87795C25.7949 9.81555 25.6789 9.75155 25.6061 9.76755C25.0917 9.87715 24.5933 10.0395 24.1909 10.3995C23.8877 10.6699 23.8789 10.9235 24.1925 11.1859C24.3989 11.3587 24.6437 11.4987 24.8917 11.6067C25.5405 11.8867 26.2341 11.9627 27.0549 11.9851ZM9.69252 35.9228C9.92212 35.9004 10.2725 35.8876 10.6149 35.8292C11.2069 35.7284 11.7869 35.5748 12.2685 35.1875C12.6613 34.8716 12.6581 34.5908 12.2645 34.2747C11.8765 33.9627 11.4125 33.8204 10.9397 33.6996C10.8077 33.666 10.7309 33.7355 10.6549 33.8268C10.4709 34.0467 10.2885 34.2676 10.0949 34.4787C9.76212 34.8411 9.40372 34.838 9.07012 34.47C8.87732 34.2579 8.70212 34.0299 8.50612 33.8212C8.44612 33.7579 8.33252 33.6884 8.26052 33.7035C7.73332 33.8155 7.22212 33.9795 6.81652 34.3572C6.54212 34.6124 6.52772 34.8468 6.80852 35.09C7.02052 35.274 7.27412 35.4259 7.53172 35.5396C8.17812 35.8251 8.87252 35.8996 9.69252 35.9228ZM19.2933 29.3083C20.1101 29.3811 23.6605 29.3507 23.9365 29.2683C23.9389 28.7043 23.9413 28.1379 23.9357 27.5611C23.0701 27.5611 22.2597 27.5403 21.4509 27.5659C20.4261 27.5987 19.5405 28.3235 19.2933 29.3083ZM13.7053 29.3195C15.0813 29.3195 16.4485 29.3195 17.8381 29.3195C17.8117 29.2204 17.8005 29.1355 17.7677 29.0588C17.4429 28.2971 16.8917 27.7516 16.0701 27.6396C15.3365 27.5396 14.5821 27.5876 13.8365 27.5724C13.8189 27.5724 13.8013 27.6035 13.8069 27.5979C13.7725 28.1803 13.7397 28.738 13.7053 29.3195Z" fill="white"/>
<path id="Vector_2" d="M4.80853 14.3673C4.80853 13.9713 4.80853 13.5929 4.80853 13.1953C8.79493 13.1953 12.7613 13.1953 16.7525 13.1953C16.7525 13.5833 16.7525 13.9625 16.7525 14.3673C12.7845 14.3673 8.81813 14.3673 4.80853 14.3673Z" fill="white"/>
<path id="Vector_3" d="M4.80853 16.7599C4.80853 16.3639 4.80853 15.9855 4.80853 15.5879C8.79493 15.5879 12.7613 15.5879 16.7525 15.5879C16.7525 15.9767 16.7525 16.3551 16.7525 16.7599C12.7837 16.7599 8.81733 16.7599 4.80853 16.7599Z" fill="white"/>
<path id="Vector_4" d="M16.7597 17.9883C16.7597 18.3763 16.7597 18.7459 16.7597 19.1171C16.5069 19.1955 5.4533 19.2267 4.8125 19.1467C4.8125 18.7715 4.8125 18.3923 4.8125 17.9883C8.7829 17.9883 12.7493 17.9883 16.7597 17.9883Z" fill="white"/>
<path id="Vector_5" d="M7.20935 10.8008C9.20375 10.8008 11.175 10.8008 13.167 10.8008C13.167 11.1984 13.167 11.5768 13.167 11.9768C11.1798 11.9768 9.20775 11.9768 7.20935 11.9768C7.20935 11.596 7.20935 11.2168 7.20935 10.8008Z" fill="white"/>
<path id="Vector_6" d="M16.7542 22.7574C15.1598 22.7574 13.5957 22.7574 12.0005 22.7574C12.0005 22.375 12.0005 21.9958 12.0005 21.6118C12.2373 21.5374 16.1566 21.5102 16.7542 21.587C16.7542 21.9622 16.7542 22.3406 16.7542 22.7574Z" fill="white"/>
<path id="Vector_7" d="M14.3885 10.7949C15.1813 10.7949 15.9477 10.7949 16.7661 10.7949C16.7853 11.1821 16.7869 11.5685 16.7605 11.9773C15.9645 11.9773 15.1893 11.9773 14.3885 11.9773C14.3885 11.5917 14.3885 11.2133 14.3885 10.7949Z" fill="white"/>
<path id="Vector_8" d="M26.3237 25.1639C24.6173 25.1639 22.9101 25.1639 21.2037 25.1639C21.0917 25.1639 20.9781 25.1711 20.8677 25.1551C20.5941 25.1151 20.3949 24.9095 20.3549 24.6359C20.3445 24.5623 20.3485 24.4863 20.3485 24.4119C20.3485 21.7215 20.3485 19.0303 20.3485 16.3399C20.3485 16.2655 20.3453 16.1895 20.3541 16.1159C20.3901 15.8223 20.5949 15.6127 20.8869 15.5767C20.9973 15.5631 21.1109 15.5703 21.2229 15.5703C24.6365 15.5703 28.0493 15.5703 31.4629 15.5703C31.5629 15.5703 31.6629 15.5655 31.7621 15.5743C32.0917 15.6039 32.3053 15.8215 32.3349 16.1543C32.3413 16.2287 32.3381 16.3039 32.3381 16.3783C32.3381 19.0319 32.3381 21.6855 32.3381 24.3383C32.3381 24.4255 32.3421 24.5135 32.3333 24.5999C32.3005 24.9127 32.0909 25.1263 31.7805 25.1599C31.6693 25.1719 31.5565 25.1655 31.4445 25.1655C29.7365 25.1639 28.0301 25.1639 26.3237 25.1639ZM31.1069 20.3759C30.9317 20.3759 30.7957 20.3759 30.6605 20.3759C29.1149 20.3759 27.5693 20.3759 26.0237 20.3759C25.9237 20.3759 25.8237 20.3791 25.7245 20.3735C25.4629 20.3591 25.2765 20.2287 25.1797 19.9863C25.0877 19.7575 25.1357 19.5455 25.2933 19.3599C25.3573 19.2839 25.4317 19.2159 25.5021 19.1455C26.2069 18.4399 26.9125 17.7359 27.6165 17.0295C27.6813 16.9639 27.7357 16.8879 27.8213 16.7863C27.5365 16.7863 27.2981 16.8039 27.0637 16.7823C26.7421 16.7527 26.5093 16.8575 26.2805 17.0951C25.5029 17.9031 24.6957 18.6831 23.9085 19.4831C23.7013 19.6935 23.4757 19.7967 23.1781 19.7823C22.8301 19.7655 22.4805 19.7783 22.1309 19.7783C21.9485 19.7783 21.7669 19.7783 21.5893 19.7783C21.5893 20.3967 21.5893 20.9639 21.5893 21.5535C21.8237 21.5535 22.0341 21.5551 22.2445 21.5535C23.0917 21.5447 23.1341 21.5127 23.5253 22.3351C23.7813 22.8743 24.0589 23.4031 24.3245 23.9335C24.8653 23.9335 25.3845 23.9335 25.9301 23.9335C25.8749 23.8119 25.8333 23.7095 25.7837 23.6103C25.6061 23.2535 25.4205 22.9007 25.2477 22.5415C24.9773 21.9791 25.2293 21.5663 25.8453 21.5535C25.9325 21.5519 26.0197 21.5535 26.1069 21.5535C27.6405 21.5535 29.1733 21.5535 30.7069 21.5535C30.8381 21.5535 30.9701 21.5535 31.1069 21.5535C31.1069 21.1407 31.1069 20.7823 31.1069 20.3759ZM31.0965 19.1471C31.0965 18.3423 31.0965 17.5767 31.0965 16.7863C30.6765 16.7863 30.2789 16.7951 29.8829 16.7823C29.6813 16.7759 29.5341 16.8359 29.3917 16.9815C28.7557 17.6311 28.1085 18.2695 27.4669 18.9143C27.4005 18.9807 27.3453 19.0575 27.2685 19.1479C28.5605 19.1471 29.8157 19.1471 31.0965 19.1471ZM26.7413 22.7783C26.9045 23.1095 27.0597 23.3935 27.1861 23.6895C27.2725 23.8919 27.3981 23.9535 27.6149 23.9519C28.6869 23.9407 29.7589 23.9471 30.8317 23.9463C30.9157 23.9463 31.0005 23.9391 31.1053 23.9335C31.1301 23.5335 31.1253 23.1575 31.1125 22.7775C29.6389 22.7783 28.2189 22.7783 26.7413 22.7783ZM21.5789 18.5607C22.0109 18.5607 22.4181 18.5519 22.8253 18.5647C23.0141 18.5703 23.1509 18.5151 23.2829 18.3783C23.7229 17.9231 24.1765 17.4799 24.6229 17.0303C24.6885 16.9647 24.7437 16.8879 24.8101 16.8087C23.7181 16.8087 22.6549 16.8087 21.5781 16.8087C21.5789 17.3871 21.5789 17.9439 21.5789 18.5607ZM21.5901 22.8127C21.5901 23.1935 21.5901 23.5591 21.5901 23.9199C22.0485 23.9199 22.4813 23.9199 22.9429 23.9199C22.8397 23.7103 22.7541 23.5335 22.6661 23.3575C22.3477 22.7191 22.3477 22.7191 21.6349 22.7823C21.6253 22.7831 21.6157 22.7951 21.5901 22.8127Z" fill="white"/>
<path id="Vector_9" d="M28.1469 3.6187C28.1429 4.2875 27.5941 4.8243 26.9229 4.8163C26.2581 4.8083 25.7229 4.2523 25.7357 3.5819C25.7477 2.9283 26.2829 2.4043 26.9405 2.4043C27.6101 2.4035 28.1509 2.9483 28.1469 3.6187Z" fill="white"/>
<path id="Vector_10" d="M10.7917 27.5498C10.7909 28.2194 10.2453 28.7594 9.5749 28.7538C8.9093 28.749 8.3709 28.1962 8.3805 27.5266C8.3893 26.8714 8.9213 26.345 9.5781 26.3418C10.2485 26.3394 10.7925 26.881 10.7917 27.5498Z" fill="white"/>
</g>
</svg>
