<svg width="40" height="40" viewBox="0 0 40 40" fill="none" xmlns="http://www.w3.org/2000/svg">
<g id="&#216;&#167;&#217;&#138;&#217;&#131;&#217;&#136;&#217;&#134; &#216;&#167;&#217;&#132;&#216;&#170;&#216;&#175;&#216;&#180;&#217;&#138;&#217;&#134;_4">
<g id="Group">
<path id="Vector" d="M20.6816 36.6239C20.9128 36.6239 21.0848 36.6239 21.2568 36.6239C23.3456 36.6239 25.4336 36.6239 27.5224 36.6247C27.6656 36.6247 27.812 36.6151 27.9512 36.6415C28.2888 36.7055 28.5408 37.0407 28.5176 37.3687C28.4928 37.7095 28.2608 37.9527 27.9064 37.9951C27.7808 38.0103 27.652 38.0039 27.524 38.0039C19.0264 38.0039 10.5296 38.0039 2.032 38.0039C1.9048 38.0039 1.776 38.0103 1.6496 37.9967C1.272 37.9543 1.0376 37.6983 1.0304 37.3319C1.024 36.9791 1.2624 36.6903 1.6248 36.6351C1.7656 36.6135 1.9112 36.6239 2.0544 36.6239C2.9936 36.6231 3.9336 36.6239 4.9304 36.6239C4.9368 36.4119 4.9472 36.2279 4.9472 36.0431C4.948 32.5519 4.948 29.0599 4.948 25.5687C4.948 20.0207 4.956 14.4727 4.9392 8.92471C4.9368 8.10871 5.1904 7.89911 5.9344 7.90631C8.1184 7.92791 10.3024 7.91431 12.4864 7.91431C12.6136 7.91431 12.7424 7.90871 12.8688 7.92151C13.2296 7.95911 13.4496 8.17111 13.496 8.53031C13.512 8.65591 13.5048 8.78471 13.5048 8.91271C13.5056 10.3951 13.5048 11.8783 13.5048 13.3607C13.5048 13.5343 13.5048 13.7071 13.5048 13.9063C14.0448 14.1103 14.5624 14.3103 15.0824 14.5015C16.7104 15.1015 18.3408 15.6959 19.968 16.2991C20.1432 16.3639 20.3312 16.4455 20.4592 16.5735C20.572 16.6863 20.6344 16.8687 20.672 17.0311C20.7072 17.1823 20.6816 17.3479 20.6816 17.5079C20.6816 23.6615 20.6816 29.8151 20.6816 35.9695C20.6816 36.1607 20.6816 36.3511 20.6816 36.6239ZM6.3552 36.5623C6.8456 36.6551 11.7168 36.6447 12.0896 36.5543C12.0896 27.4823 12.0896 18.4095 12.0896 9.34071C11.3088 9.23751 6.6744 9.27751 6.3552 9.38471C6.3552 18.4455 6.3552 27.5063 6.3552 36.5623ZM19.2784 36.5975C19.2784 30.2127 19.2784 23.8895 19.2784 17.5271C17.3696 16.8239 15.468 16.1239 13.5544 15.4183C13.4616 16.1087 13.4888 36.2399 13.5784 36.5967C15.4648 36.5975 17.3544 36.5975 19.2784 36.5975Z" fill="white"/>
<path id="Vector_2" d="M23.8856 30.1016C23.5088 29.9488 23.1704 29.812 22.832 29.6744C22.7144 29.6264 22.5976 29.5736 22.4792 29.5288C22.1584 29.408 21.9048 29.2136 21.9056 28.8448C21.9072 28.4616 22.1552 28.2472 22.4984 28.1208C22.7968 28.0112 23.0888 27.8832 23.3864 27.7696C23.9728 27.5472 23.8792 27.5856 23.884 27.012C23.8896 26.4064 23.88 25.8008 23.8872 25.1952C23.8968 24.3544 24.4064 23.7536 25.24 23.6008C25.4424 23.564 25.6504 23.5424 25.856 23.5424C29.5696 23.5392 33.284 23.5408 36.9976 23.5392C37.5912 23.5392 38.1384 23.6536 38.5536 24.1248C38.804 24.4096 38.9552 24.7312 38.9552 25.1192C38.9536 27.5896 38.9608 30.06 38.9512 32.5312C38.948 33.4344 38.2512 34.08 37.304 34.0808C33.6224 34.084 29.94 34.0824 26.2584 34.0824C25.9712 34.0824 25.684 34.088 25.3976 34.0792C24.5824 34.0544 23.916 33.396 23.8912 32.5832C23.8784 32.1688 23.8872 31.7544 23.8864 31.34C23.8856 30.9424 23.8856 30.544 23.8856 30.1016ZM24.58 28.8144C24.7752 28.964 25.0048 29.0752 25.132 29.2576C25.2392 29.4112 25.2576 29.6472 25.2608 29.8472C25.2744 30.66 25.2624 31.4728 25.2688 32.2856C25.272 32.6552 25.3136 32.6872 25.6856 32.7008C25.7496 32.7032 25.8128 32.7016 25.8768 32.7016C29.5744 32.7016 33.2712 32.7016 36.9688 32.7016C37.08 32.7016 37.192 32.7016 37.3032 32.6968C37.4752 32.6896 37.5648 32.5968 37.5704 32.4256C37.5744 32.2984 37.5752 32.1704 37.5752 32.0432C37.5752 29.908 37.576 27.772 37.5752 25.6368C37.5752 24.9792 37.5744 24.9784 36.9208 24.9784C33.2552 24.9784 29.5896 24.9784 25.9248 24.9784C25.8136 24.9784 25.7016 24.9816 25.5904 24.98C25.3744 24.9776 25.2648 25.0792 25.2688 25.2984C25.2704 25.4096 25.2672 25.5216 25.2672 25.6328C25.2672 26.3976 25.2632 27.1624 25.2688 27.928C25.2712 28.284 25.1248 28.5392 24.808 28.6992C24.7248 28.74 24.6424 28.7824 24.58 28.8144Z" fill="white"/>
<path id="Vector_3" d="M23.8856 18.3441C23.4576 18.1713 23.0752 18.0169 22.6928 17.8633C22.5744 17.8161 22.4528 17.7769 22.3376 17.7233C22.0688 17.5977 21.9064 17.3785 21.9064 17.0865C21.9064 16.7753 22.0696 16.5481 22.3712 16.4289C22.8592 16.2361 23.3456 16.0369 23.8856 15.8185C23.8856 15.5617 23.8856 15.2953 23.8856 15.0289C23.8856 14.4873 23.9128 13.9433 23.8808 13.4041C23.8352 12.6457 24.632 11.8177 25.4704 11.8273C27.94 11.8545 30.4104 11.8369 32.88 11.8361C34.3464 11.8361 35.8136 11.8729 37.2776 11.8233C38.2112 11.7913 38.984 12.6473 38.9696 13.5041C38.9288 15.8937 38.9312 18.2849 38.9688 20.6745C38.9816 21.4801 38.2464 22.3417 37.3064 22.3353C33.3864 22.3089 29.4664 22.3073 25.5464 22.3369C24.6392 22.3433 23.8136 21.5313 23.8752 20.6393C23.9272 19.8937 23.8856 19.1433 23.8856 18.3441ZM24.552 17.0841C24.6168 17.1217 24.668 17.1625 24.7256 17.1841C25.1288 17.3289 25.2752 17.6241 25.2696 18.0385C25.2584 18.8673 25.2624 19.6961 25.2688 20.5249C25.272 20.8945 25.3136 20.9257 25.6856 20.9401C25.7648 20.9433 25.8448 20.9409 25.9248 20.9409C29.5904 20.9409 33.256 20.9409 36.9224 20.9409C37.0336 20.9409 37.1456 20.9377 37.2568 20.9385C37.4752 20.9401 37.5784 20.8321 37.5736 20.6153C37.5712 20.5201 37.5752 20.4241 37.5752 20.3281C37.5752 18.1609 37.5752 15.9929 37.5752 13.8257C37.5752 13.7297 37.572 13.6345 37.5736 13.5385C37.5776 13.3201 37.4704 13.2153 37.2536 13.2169C37.1576 13.2177 37.0624 13.2145 36.9664 13.2145C33.2688 13.2145 29.5712 13.2145 25.8736 13.2145C25.7624 13.2145 25.6504 13.2153 25.5392 13.2201C25.368 13.2273 25.2768 13.3193 25.2712 13.4913C25.2672 13.6025 25.2664 13.7145 25.2664 13.8257C25.2664 14.5585 25.2512 15.2921 25.2712 16.0249C25.284 16.4913 25.1512 16.8369 24.6808 16.9953C24.6384 17.0105 24.604 17.0481 24.552 17.0841Z" fill="white"/>
<path id="Vector_4" d="M31.028 1.99036C33.1136 2.10796 34.6776 2.98636 35.7088 4.75356C35.7952 4.90076 35.8616 5.07276 35.8864 5.24076C35.9368 5.59036 35.7528 5.85676 35.4184 5.97916C35.1304 6.08476 34.8344 5.97676 34.6376 5.68556C34.5664 5.58076 34.5152 5.46236 34.4504 5.35276C33.9152 4.44876 33.1504 3.82236 32.1312 3.56316C30.408 3.12476 28.7576 3.76796 27.8368 5.19036C27.7416 5.33676 27.6616 5.49356 27.5672 5.64076C27.336 6.00316 27.0096 6.11276 26.6752 5.94476C26.3216 5.76636 26.1776 5.40076 26.3456 5.01436C26.4528 4.76796 26.5912 4.53036 26.748 4.31116C27.644 3.05916 28.8464 2.29676 30.38 2.07836C30.6152 2.04556 30.8504 2.01436 31.028 1.99036Z" fill="white"/>
<path id="Vector_5" d="M33.3832 38.0047C32.4584 38.0047 31.5344 38.0063 30.6096 38.0023C30.468 38.0015 30.3136 38.0047 30.188 37.9519C29.9424 37.8471 29.7608 37.6559 29.7464 37.3751C29.7312 37.0807 29.8648 36.8359 30.1392 36.7223C30.3088 36.6519 30.5088 36.6287 30.6952 36.6279C32.4808 36.6215 34.2656 36.6239 36.0512 36.6239C36.1472 36.6239 36.2432 36.6191 36.3376 36.6303C36.7232 36.6767 37.0232 36.9743 37.0136 37.3151C37.0032 37.6951 36.6464 38.0159 36.2992 38.0095C35.3272 37.9911 34.3544 38.0031 33.3824 38.0031C33.3832 38.0039 33.3832 38.0039 33.3832 38.0047Z" fill="white"/>
<path id="Vector_6" d="M33.6216 6.56566C33.6096 6.93206 33.4728 7.13526 33.2216 7.25366C32.9824 7.36646 32.6496 7.30966 32.4728 7.11206C32.3688 6.99606 32.3 6.84806 32.2184 6.71206C31.9528 6.26646 31.5776 6.01606 31.0424 6.04166C30.5352 6.06566 30.1688 6.30726 29.9504 6.76246C29.804 7.06726 29.6232 7.30726 29.2416 7.30166C28.8464 7.29606 28.5584 7.04166 28.5824 6.65046C28.5952 6.43606 28.66 6.20566 28.7672 6.02086C29.2864 5.12246 30.08 4.63206 31.1168 4.64086C32.1984 4.65046 32.9824 5.20086 33.4872 6.14726C33.5672 6.29766 33.5936 6.47686 33.6216 6.56566Z" fill="white"/>
<path id="Vector_7" d="M30.4032 8.61035C30.396 8.21275 30.6928 7.91675 31.0968 7.91995C31.4824 7.92315 31.764 8.19435 31.776 8.57515C31.7872 8.93995 31.4464 9.29115 31.084 9.28635C30.7392 9.28235 30.4096 8.95515 30.4032 8.61035Z" fill="white"/>
<path id="Vector_8" d="M9.1952 28.8916C8.8768 28.8916 8.5576 28.9084 8.2408 28.8868C7.9328 28.866 7.704 28.7044 7.5888 28.4052C7.4848 28.1356 7.5496 27.8852 7.7504 27.7076C7.884 27.5892 8.0832 27.49 8.2576 27.4828C8.8928 27.4548 9.532 27.4356 10.1656 27.478C10.7568 27.518 11.0536 28.0644 10.7904 28.534C10.64 28.802 10.3784 28.8756 10.1024 28.8908C9.8008 28.9076 9.4976 28.8948 9.1952 28.8948C9.1952 28.894 9.1952 28.8924 9.1952 28.8916Z" fill="white"/>
<path id="Vector_9" d="M9.22799 21.0543C8.92559 21.0543 8.62399 21.0599 8.32159 21.0527C8.01519 21.0455 7.76719 20.9271 7.62319 20.6391C7.45199 20.2959 7.57039 19.9159 7.91599 19.7503C8.04239 19.6895 8.18799 19.6399 8.32559 19.6375C8.92879 19.6255 9.53359 19.6143 10.136 19.6447C10.3256 19.6543 10.5432 19.7551 10.6864 19.8831C10.8816 20.0583 10.9432 20.3071 10.8376 20.5815C10.7272 20.8687 10.5136 21.0207 10.228 21.0431C9.89599 21.0687 9.56079 21.0487 9.22719 21.0487C9.22799 21.0503 9.22799 21.0527 9.22799 21.0543Z" fill="white"/>
<path id="Vector_10" d="M9.20399 17.0272C9.53759 17.0272 9.87279 17.008 10.2048 17.032C10.6024 17.0608 10.868 17.34 10.8904 17.704C10.9104 18.0208 10.6656 18.3184 10.2984 18.4024C10.1448 18.4376 9.98479 18.4536 9.82719 18.4568C9.42959 18.464 9.03199 18.464 8.63519 18.4568C8.47759 18.4536 8.31759 18.4384 8.16399 18.4048C7.74719 18.3136 7.51599 18.0368 7.54559 17.6864C7.57599 17.3336 7.85359 17.0728 8.24959 17.0264C8.28079 17.0224 8.31279 17.0224 8.34479 17.0224C8.63119 17.0224 8.91679 17.0224 9.20319 17.0224C9.20399 17.0248 9.20399 17.0264 9.20399 17.0272Z" fill="white"/>
<path id="Vector_11" d="M9.24641 30.1128C9.56401 30.1128 9.88241 30.1024 10.2 30.1152C10.576 30.1304 10.8776 30.4224 10.8992 30.7672C10.92 31.0984 10.6312 31.4592 10.2552 31.4752C9.55681 31.504 8.85601 31.5016 8.15841 31.476C7.81201 31.4632 7.54481 31.1264 7.54321 30.7968C7.54241 30.4208 7.79681 30.14 8.19761 30.1176C8.54641 30.0976 8.89681 30.1136 9.24641 30.1136V30.1128Z" fill="white"/>
<path id="Vector_12" d="M9.20479 34.0816C8.88719 34.0816 8.56879 34.0912 8.25199 34.0792C7.83439 34.0632 7.57439 33.824 7.54559 33.4528C7.51839 33.1048 7.77439 32.788 8.15839 32.7208C8.31279 32.6936 8.47519 32.7032 8.63359 32.7032C9.12639 32.7016 9.61839 32.6936 10.1104 32.7064C10.5792 32.7192 10.9328 33.0424 10.8968 33.424C10.864 33.7736 10.5648 34.1288 10.1104 34.088C9.81119 34.0616 9.50719 34.0832 9.20559 34.0832C9.20479 34.0824 9.20479 34.0816 9.20479 34.0816Z" fill="white"/>
<path id="Vector_13" d="M9.2296 22.2708C9.5472 22.2708 9.8656 22.2868 10.1816 22.2668C10.5288 22.2444 10.8808 22.574 10.896 22.9564C10.9096 23.2948 10.6104 23.626 10.2288 23.6388C9.5472 23.6628 8.8632 23.6612 8.1816 23.6388C7.8128 23.6268 7.5304 23.2812 7.5432 22.9348C7.556 22.5908 7.8528 22.2924 8.2288 22.2748C8.5616 22.2588 8.8952 22.2716 9.2288 22.2716C9.2296 22.2716 9.2296 22.2708 9.2296 22.2708Z" fill="white"/>
<path id="Vector_14" d="M9.20317 26.2411C8.88557 26.2411 8.56797 26.2507 8.25117 26.2387C7.83277 26.2227 7.56637 25.9779 7.54477 25.6139C7.52477 25.2675 7.78717 24.9051 8.16157 24.8875C8.87357 24.8539 9.58957 24.8555 10.3008 24.8915C10.6512 24.9091 10.9168 25.2763 10.8976 25.5875C10.8768 25.9339 10.5784 26.2147 10.2016 26.2411C10.1696 26.2435 10.1384 26.2427 10.1064 26.2427C9.80477 26.2427 9.50317 26.2427 9.20157 26.2427C9.20317 26.2419 9.20317 26.2419 9.20317 26.2411Z" fill="white"/>
<path id="Vector_15" d="M9.18081 15.8087C8.87921 15.8087 8.57681 15.8175 8.27601 15.8063C7.86641 15.7919 7.55601 15.5031 7.54321 15.1423C7.52961 14.7639 7.84721 14.4407 8.27761 14.4319C8.89681 14.4191 9.51601 14.4183 10.1352 14.4319C10.5792 14.4415 10.9104 14.7503 10.8968 15.1223C10.8848 15.4623 10.568 15.8591 10.1336 15.8079C10.1176 15.8063 10.1016 15.8079 10.0864 15.8079C9.78481 15.8079 9.48321 15.8079 9.18161 15.8079C9.18081 15.8095 9.18081 15.8095 9.18081 15.8087Z" fill="white"/>
<path id="Vector_16" d="M9.25441 11.8371C9.55601 11.8371 9.85921 11.8571 10.1584 11.8323C10.5248 11.8019 10.8576 12.1051 10.896 12.4947C10.9304 12.8403 10.6096 13.1723 10.2048 13.2067C9.93681 13.2291 9.66561 13.2147 9.39601 13.2147C9.03121 13.2155 8.66561 13.2187 8.30081 13.2123C8.03121 13.2075 7.80721 13.1003 7.65841 12.8675C7.38001 12.4299 7.63441 11.8923 8.16001 11.8483C8.52241 11.8179 8.88961 11.8427 9.25441 11.8427C9.25441 11.8403 9.25441 11.8387 9.25441 11.8371Z" fill="white"/>
<path id="Vector_17" d="M16.3912 24.976C16.088 24.976 15.7808 25.0096 15.4848 24.9648C15.2792 24.9336 15.0448 24.8392 14.9024 24.6952C14.5784 24.368 14.696 23.8616 15.1144 23.6592C15.2408 23.5984 15.3872 23.552 15.5256 23.5496C16.0992 23.5384 16.6728 23.5448 17.2464 23.5496C17.3248 23.5504 17.4032 23.5752 17.4808 23.5944C17.8744 23.692 18.0976 23.9504 18.0808 24.2864C18.0632 24.6368 17.7848 24.9344 17.3952 24.9656C17.0624 24.9928 16.7264 24.9712 16.392 24.9712C16.3912 24.9728 16.3912 24.9744 16.3912 24.976Z" fill="white"/>
<path id="Vector_18" d="M16.4 31.3808C16.6392 31.3808 16.8784 31.3776 17.1168 31.3816C17.228 31.3832 17.3408 31.3872 17.4488 31.4112C17.8384 31.4984 18.0768 31.7584 18.0816 32.0888C18.0864 32.4344 17.8264 32.7192 17.4256 32.792C17.3016 32.8144 17.172 32.8136 17.0448 32.8144C16.6144 32.8168 16.184 32.8152 15.7536 32.8152C15.7216 32.8152 15.6896 32.816 15.6576 32.8152C15.0608 32.7992 14.712 32.5272 14.7208 32.0856C14.7296 31.6584 15.0632 31.3984 15.6344 31.3824C15.8904 31.3752 16.1456 31.3816 16.4 31.3808Z" fill="white"/>
<path id="Vector_19" d="M16.3744 22.3224C16.0568 22.3224 15.7384 22.3336 15.4216 22.3192C15.0056 22.3008 14.7376 22.0472 14.7224 21.6848C14.708 21.3408 14.9752 20.984 15.3512 20.9656C16.048 20.9312 16.7488 20.9312 17.4456 20.964C17.8224 20.9816 18.1032 21.3504 18.076 21.68C18.0456 22.0464 17.7752 22.3032 17.3744 22.32C17.0416 22.3328 16.708 22.3224 16.3744 22.3224Z" fill="white"/>
<path id="Vector_20" d="M16.4144 26.1917C16.732 26.1917 17.0504 26.2093 17.3664 26.1869C17.704 26.1629 18.0664 26.4989 18.0768 26.8805C18.0856 27.2197 17.788 27.5469 17.4056 27.5597C16.724 27.5829 16.0408 27.5821 15.3592 27.5597C15.0024 27.5477 14.7152 27.1933 14.7224 26.8485C14.7288 26.5357 15.0248 26.2349 15.3672 26.1949C15.3984 26.1909 15.4304 26.1909 15.4624 26.1909C15.78 26.1909 16.0968 26.1909 16.4144 26.1909C16.4144 26.1917 16.4144 26.1917 16.4144 26.1917Z" fill="white"/>
<path id="Vector_21" d="M16.3864 30.1623C16.0688 30.1623 15.7512 30.1719 15.4344 30.1599C15.0376 30.1447 14.7456 29.8783 14.7232 29.5327C14.7 29.1727 14.988 28.8143 15.388 28.7967C16.0528 28.7679 16.7208 28.7703 17.3856 28.7935C17.7904 28.8079 18.108 29.1567 18.0752 29.5039C18.0416 29.8663 17.7224 30.1943 17.3368 30.1679C17.0208 30.1463 16.7024 30.1631 16.3856 30.1631C16.3864 30.1631 16.3864 30.1623 16.3864 30.1623Z" fill="white"/>
<path id="Vector_22" d="M16.4224 34.0331C16.74 34.0331 17.0576 34.0235 17.3744 34.0355C17.7536 34.0499 18.0512 34.3323 18.0776 34.6787C18.1024 35.0091 17.82 35.3755 17.4456 35.3923C16.7496 35.4227 16.0496 35.4227 15.3536 35.3915C14.9816 35.3747 14.7088 35.0163 14.7232 34.6747C14.7376 34.3339 15.036 34.0515 15.424 34.0363C15.7552 34.0235 16.0888 34.0331 16.4224 34.0331Z" fill="white"/>
<path id="Vector_23" d="M16.3656 19.7271C16.064 19.7271 15.7616 19.7111 15.4616 19.7311C15.04 19.7599 14.7064 19.3367 14.728 19.0143C14.7536 18.6287 15.1192 18.3295 15.4616 18.3423C16.0952 18.3655 16.7312 18.3639 17.3648 18.3439C17.6936 18.3335 18.0728 18.6487 18.0744 19.0375C18.076 19.4119 17.7072 19.7519 17.3656 19.7311C17.0336 19.7103 16.6992 19.7271 16.3656 19.7271Z" fill="white"/>
<path id="Vector_24" d="M34.0776 29.9426C33.9944 30.8234 33.5536 31.5498 32.6544 31.9482C31.7824 32.3338 30.9656 32.1786 30.2536 31.5746C29.3936 30.845 29.2048 29.8506 29.6808 28.8186C30.0696 27.9754 30.5888 27.2162 31.1712 26.4986C31.4928 26.1026 31.9368 26.0746 32.2728 26.4594C32.9976 27.2906 33.5984 28.2034 33.9744 29.2506C34.012 29.3546 34.0384 29.4642 34.0568 29.573C34.072 29.6658 34.068 29.7626 34.0776 29.9426ZM31.712 28.005C31.3976 28.5834 31.1104 29.0586 30.8776 29.5586C30.7072 29.9242 30.8664 30.3234 31.2024 30.561C31.4904 30.7642 31.996 30.769 32.2832 30.5714C32.5984 30.3546 32.7472 29.9314 32.6176 29.5706C32.4232 29.0298 32.1024 28.5626 31.712 28.005Z" fill="white"/>
<path id="Vector_25" d="M31.2504 17.7951C30.9704 17.7951 30.7656 17.8015 30.5608 17.7943C29.852 17.7695 29.5408 17.1727 29.9048 16.6015C30.4 15.8239 30.8568 15.0223 31.3416 14.2375C31.5608 13.8831 31.836 13.7543 32.1216 13.8191C32.5472 13.9151 32.8408 14.4111 32.5952 14.8199C32.4152 15.1199 32.2416 15.4231 32.0656 15.7255C31.9544 15.9159 31.8432 16.1063 31.696 16.3599C31.908 16.3599 32.064 16.3415 32.2136 16.3647C32.3984 16.3935 32.5928 16.4295 32.7568 16.5127C33.052 16.6631 33.1928 16.9855 33.052 17.2799C32.608 18.2119 32.1608 19.1455 31.6592 20.0471C31.4048 20.5031 30.8456 20.4895 30.5384 20.0895C30.3648 19.8631 30.3616 19.6199 30.4824 19.3719C30.6568 19.0143 30.8352 18.6599 31.0112 18.3031C31.08 18.1623 31.1448 18.0183 31.2504 17.7951Z" fill="white"/>
</g>
</g>
</svg>
