<svg width="40" height="40" viewBox="0 0 40 40" fill="none" xmlns="http://www.w3.org/2000/svg">
<g id="&#216;&#167;&#217;&#138;&#217;&#131;&#217;&#136;&#217;&#134; &#216;&#167;&#217;&#132;&#216;&#170;&#216;&#175;&#216;&#180;&#217;&#138;&#217;&#134;_7">
<g id="Group">
<path id="Vector" d="M2.3152 3.54477C2.3152 2.99837 2.3144 2.49197 2.3152 1.98557C2.316 1.30557 2.496 1.12157 3.1648 1.12157C5.7672 1.12077 8.3704 1.12157 10.9728 1.12157C15.8864 1.12157 20.7992 1.12157 25.7128 1.12157C26.5504 1.12157 26.6928 1.26157 26.6928 2.08397C26.6928 6.88317 26.6928 11.6824 26.6928 16.4808C26.6928 16.62 26.6928 16.7584 26.6928 16.9432C26.8224 16.8808 26.924 16.84 27.0176 16.7864C31.3928 14.2744 37.0264 16.4624 38.5216 21.2672C39.1592 23.3144 39.0112 25.3288 37.9736 27.2024C36.1176 30.552 34.1912 33.8632 32.2944 37.1904C32.2136 37.3328 32.1344 37.476 32.0232 37.6736C33.1056 37.6736 34.1456 37.6736 35.2056 37.6736C35.2056 38.0976 35.2056 38.4736 35.2056 38.8784C32.3872 38.8784 29.5648 38.8784 26.7176 38.8784C26.7176 38.4968 26.7176 38.112 26.7176 37.6976C27.764 37.6976 28.8 37.6976 29.9136 37.6976C28.8448 35.8256 27.8072 34.0096 26.7696 32.1936C26.744 32.2 26.7192 32.2064 26.6936 32.2136C26.6936 32.9432 26.6944 33.672 26.6936 34.4016C26.6928 35.0688 26.508 35.2504 25.828 35.2512C25.3216 35.252 24.8152 35.2512 24.2544 35.2512C24.2544 35.456 24.2616 35.6408 24.2528 35.8248C24.2336 36.2288 24.0104 36.448 23.604 36.4688C23.5152 36.4736 23.4264 36.4704 23.3376 36.4704C16.228 36.4704 9.1184 36.4704 2.0088 36.4704C1.2584 36.4704 1.0968 36.308 1.0968 35.5544C1.0968 25.22 1.0968 14.8856 1.0968 4.55117C1.0968 3.69437 1.2144 3.57757 2.0864 3.55997C2.1472 3.55757 2.2088 3.55117 2.3152 3.54477ZM2.3424 4.79677C2.3424 14.96 2.3424 25.0952 2.3424 35.2192C9.2544 35.2192 16.14 35.2192 23.0528 35.2192C23.0528 33.3896 23.0528 31.592 23.0528 29.7928C23.4664 29.7928 23.852 29.7928 24.264 29.7928C24.264 31.212 24.264 32.6032 24.264 34.008C24.6776 34.008 25.0624 34.008 25.4728 34.008C25.4728 32.6664 25.476 31.348 25.4664 30.0304C25.4656 29.9144 25.392 29.792 25.3312 29.684C24.884 28.888 24.4144 28.104 23.9824 27.3C22.3536 24.264 22.8472 20.672 25.232 18.1848C25.4024 18.0064 25.4784 17.8352 25.4776 17.588C25.4712 12.6368 25.4728 7.68557 25.472 2.73437C25.472 2.61197 25.4608 2.48957 25.4552 2.36877C18.1344 2.36877 10.8432 2.36877 3.552 2.36877C3.552 2.77277 3.552 3.14877 3.552 3.55997C3.7192 3.55997 3.868 3.55997 4.0176 3.55997C10.4672 3.55997 16.916 3.55997 23.3656 3.55997C24.0856 3.55997 24.2544 3.73117 24.2544 4.46157C24.2544 8.89197 24.2544 13.3232 24.2544 17.7536C24.2544 17.8888 24.2544 18.0232 24.2544 18.1576C23.8232 18.1576 23.4376 18.1576 23.0256 18.1576C23.0256 13.6912 23.0256 9.25277 23.0256 4.79597C16.1224 4.79677 9.2464 4.79677 2.3424 4.79677ZM30.9576 37.032C31.0144 36.9528 31.0392 36.924 31.0576 36.8912C32.988 33.512 34.9208 30.1344 36.8472 26.7528C37.332 25.9016 37.6064 24.976 37.648 24.0016C37.756 21.476 36.748 19.4624 34.6576 18.0744C32.5496 16.6752 30.264 16.5544 27.996 17.6504C24.476 19.352 23.2352 23.512 25.176 26.9392C27.0248 30.204 28.8952 33.4568 30.7576 36.7152C30.8112 36.8112 30.8744 36.9016 30.9576 37.032Z" fill="white"/>
<path id="Vector_2" d="M20.5984 13.915C20.6008 18.2798 17.044 21.8406 12.6808 21.843C8.316 21.8446 4.7568 18.2894 4.7536 13.9246C4.7504 9.56057 8.3064 6.00057 12.6712 5.99817C17.036 5.99577 20.596 9.55097 20.5984 13.915ZM10.7696 7.50537C11.2808 8.01257 11.7288 8.49177 12.2152 8.92697C12.5672 9.24217 12.7456 9.59417 12.676 10.0638C12.62 10.443 12.756 10.7174 13.036 10.995C14.0848 12.0342 13.864 11.5782 13.9008 13.0622C13.9096 13.423 13.7496 13.6614 13.5416 13.939C12.796 14.935 11.8424 15.355 10.6136 15.1406C9.6696 14.9758 8.9304 15.2758 8.3408 16.0454C8.2008 16.2286 7.8696 16.3126 7.6136 16.347C7.2464 16.3966 6.868 16.3598 6.4424 16.3598C6.8976 17.4838 7.5488 18.3766 8.456 19.1174C8.8776 18.6918 9.2592 18.263 9.6904 17.8926C9.8824 17.7278 10.1696 17.615 10.4232 17.5926C10.9392 17.547 11.464 17.559 11.9824 17.5862C12.304 17.603 12.5184 17.491 12.7424 17.2686C13.864 16.1582 13.3528 16.3918 14.904 16.355C15.2368 16.347 15.4824 16.4606 15.7096 16.6958C16.2992 17.3062 16.9048 17.9014 17.5264 18.5254C18.284 17.7214 18.808 16.827 19.1072 15.7502C18.8432 15.7502 18.6408 15.7502 18.4384 15.7502C16.6264 15.7502 16.62 15.7558 15.3832 14.4286C15.236 14.2702 15.1392 14.011 15.1256 13.7918C15.0904 13.2102 15.1304 12.6238 15.1032 12.0414C15.0952 11.863 15.0136 11.623 14.8824 11.5262C14.0384 10.9094 13.7592 10.0998 13.8824 9.07897C13.9512 8.50857 13.8944 7.92217 13.8944 7.34057C12.8336 7.13417 11.8408 7.19497 10.7696 7.50537ZM9.564 8.00937C6.6248 9.51497 5.5512 12.8382 6.1176 15.111C6.928 15.195 7.7344 15.271 8.2584 14.4326C8.3104 14.3486 8.3872 14.263 8.4728 14.2206C8.7008 14.1078 8.9352 13.951 9.176 13.9342C9.756 13.8926 10.3464 13.8734 10.9232 13.9334C11.5792 14.0014 12.0864 13.8182 12.4496 13.2758C12.5536 13.1206 12.6208 12.9342 12.672 12.7526C12.7872 12.3414 12.4856 12.1182 12.2272 11.907C11.6616 11.4454 11.3096 10.9102 11.4488 10.139C11.468 10.035 11.4144 9.88057 11.3392 9.80217C10.76 9.20137 10.1656 8.61417 9.564 8.00937ZM15.1136 7.73737C15.1136 8.04777 15.1488 8.35577 15.1072 8.65177C14.972 9.60537 15.232 10.3686 16.0336 10.9558C16.2088 11.0838 16.3008 11.4078 16.32 11.6502C16.3624 12.1798 16.352 12.7158 16.3256 13.247C16.3104 13.555 16.3944 13.7822 16.6344 13.9702C16.86 14.1462 17.056 14.4758 17.2912 14.5014C17.9632 14.5742 18.6488 14.527 19.3216 14.527C19.7024 11.5494 17.6424 8.54377 15.1136 7.73737ZM16.6008 19.2942C16.1168 18.8182 15.6544 18.3662 15.1944 17.911C14.7032 17.4246 14.3032 17.423 13.8152 17.911C13.6176 18.1086 13.4424 18.3374 13.2168 18.4942C13.012 18.6358 12.7568 18.7654 12.5152 18.783C11.9344 18.8246 11.3488 18.7934 10.7648 18.799C10.656 18.7998 10.5144 18.799 10.4448 18.8622C10.1184 19.1566 9.8128 19.4734 9.4896 19.7918C11.7744 21.103 14.7768 20.7742 16.6008 19.2942Z" fill="white"/>
<path id="Vector_3" d="M12.6376 34.0322C9.89522 34.0322 7.15282 34.0322 4.41042 34.0322C3.71042 34.0322 3.53442 33.8562 3.53442 33.1562C3.53442 30.0834 3.53442 27.0114 3.53442 23.9386C3.53442 23.2378 3.70962 23.0626 4.40962 23.0626C9.92002 23.0626 15.4304 23.0626 20.9408 23.0626C21.6416 23.0626 21.8176 23.2386 21.8176 23.9378C21.8176 27.0106 21.8176 30.0826 21.8176 33.1554C21.8176 33.8546 21.64 34.0322 20.9416 34.0322C18.1736 34.0322 15.4056 34.0322 12.6376 34.0322ZM4.78082 24.297C4.78082 27.1498 4.78082 29.9714 4.78082 32.7826C10.0672 32.7826 15.3264 32.7826 20.5784 32.7826C20.5784 29.9394 20.5784 27.1266 20.5784 24.297C15.3072 24.297 10.0576 24.297 4.78082 24.297Z" fill="white"/>
<path id="Vector_4" d="M30.9872 18.1857C33.996 18.1953 36.4472 20.6633 36.444 23.6793C36.4408 26.7057 33.9648 29.1649 30.9312 29.1553C27.9088 29.1457 25.4584 26.6609 25.4752 23.6225C25.4912 20.6185 27.968 18.1761 30.9872 18.1857ZM29.7848 22.1873C30.1952 21.7657 30.5896 21.3537 30.992 20.9489C31.4352 20.5033 31.7024 20.5049 32.1496 20.9505C33.0664 21.8649 33.9808 22.7817 34.8976 23.6953C34.9816 23.7793 35.0752 23.8545 35.1824 23.9497C35.3968 22.4585 34.476 20.7577 33.0512 19.9561C31.52 19.0945 29.6256 19.2569 28.272 20.3641C27.1808 21.2569 26.4528 22.9753 26.7744 23.9473C27.348 23.3737 27.912 22.8089 28.4768 22.2441C28.9928 21.7265 29.1568 21.7137 29.7848 22.1873ZM27.1496 25.5105C27.7944 27.0433 29.5536 28.0569 31.2824 27.9273C32.7904 27.8137 34.432 26.6713 34.7392 25.5105C32.2184 25.5105 29.7008 25.5105 27.1496 25.5105ZM30.6152 23.0969C30.9832 23.4553 31.3352 23.8001 31.6912 24.1425C31.744 24.1937 31.8096 24.2673 31.8704 24.2681C32.4688 24.2777 33.068 24.2737 33.636 24.2737C32.9272 23.5649 32.2312 22.8697 31.5296 22.1681C31.2576 22.4441 30.9592 22.7473 30.6152 23.0969ZM29.16 23.3905C28.8632 23.6817 28.572 23.9681 28.2824 24.2529C28.8448 24.2529 29.424 24.2529 30.0416 24.2529C29.7232 23.9409 29.436 23.6609 29.16 23.3905Z" fill="white"/>
<path id="Vector_5" d="M5.99042 26.6921C5.99042 26.2881 5.99042 25.9121 5.99042 25.5177C10.4456 25.5177 14.8824 25.5177 19.3496 25.5177C19.3496 25.8953 19.3496 26.2801 19.3496 26.6921C14.9112 26.6921 10.4656 26.6921 5.99042 26.6921Z" fill="white"/>
<path id="Vector_6" d="M5.99042 29.1296C5.99042 28.7248 5.99042 28.3488 5.99042 27.9552C10.4456 27.9552 14.8824 27.9552 19.3496 27.9552C19.3496 28.3336 19.3496 28.7184 19.3496 29.1296C14.9112 29.1296 10.4648 29.1296 5.99042 29.1296Z" fill="white"/>
<path id="Vector_7" d="M19.3632 30.4025C19.3632 30.8033 19.3632 31.1785 19.3632 31.5745C14.9 31.5745 10.4544 31.5745 5.99042 31.5745C5.99042 31.1817 5.99042 30.8057 5.99042 30.4025C10.4384 30.4025 14.884 30.4025 19.3632 30.4025Z" fill="white"/>
<path id="Vector_8" d="M30.9592 27.9127C33.3022 27.9127 35.2016 26.0133 35.2016 23.6703C35.2016 21.3272 33.3022 19.4279 30.9592 19.4279C28.6162 19.4279 26.7168 21.3272 26.7168 23.6703C26.7168 26.0133 28.6162 27.9127 30.9592 27.9127Z" fill="white"/>
</g>
</g>
</svg>
