<svg width="133" height="92" viewBox="0 0 133 92" fill="none" xmlns="http://www.w3.org/2000/svg">
<g id="&#216;&#180;&#216;&#185;&#216;&#167;&#216;&#177; &#216;&#167;&#217;&#133;&#216;&#167;&#217;&#134;&#216;&#169; &#216;&#173;&#216;&#167;&#216;&#166;&#217;&#132; 2" clip-path="url(#clip0_54_796)">
<g id="Layer 1">
<g id="Group">
<g id="Group_2">
<path id="Vector" d="M45.4779 4.18555L35.2363 21.7709H55.7225L45.4779 4.18555Z" fill="#FFFFFF"/>
<path id="Vector_2" d="M33.8623 24.4297L23.6177 42.0121H44.1039L33.8623 24.4297Z" fill="#FFFFFF"/>
<path id="Vector_3" d="M57.402 24.4297L47.1604 42.0121H67.6466L57.402 24.4297Z" fill="#FFFFFF"/>
<path id="Vector_4" d="M57.402 61.2944L67.6466 43.709H47.1604L57.402 61.2944Z" fill="#FFFFFF"/>
<path id="Vector_5" d="M33.8623 61.2944L44.1039 43.709H23.6177L33.8623 61.2944Z" fill="#FFFFFF"/>
<path id="Vector_6" d="M45.4779 41.0268L55.7225 23.4414H35.2363L45.4779 41.0268Z" fill="#FFFFFF"/>
<path id="Vector_7" d="M86.9083 13.8516L76.6667 31.437H97.1499L86.9083 13.8516Z" fill="#FFFFFF"/>
<path id="Vector_8" d="M75.2897 34.0938L65.0481 51.6791H85.5313L75.2897 34.0938Z" fill="#FFFFFF"/>
<path id="Vector_9" d="M87.2885 53.8281L77.0469 71.4135H97.5331L87.2885 53.8281Z" fill="#FFFFFF"/>
<path id="Vector_10" d="M110.757 54.127L100.512 71.7123H120.998L110.757 54.127Z" fill="#FFFFFF"/>
<path id="Vector_11" d="M122.756 74.3164L112.514 91.9018H133L122.756 74.3164Z" fill="#FFFFFF"/>
<path id="Vector_12" d="M98.8325 34.0938L88.5879 51.6791H109.074L98.8325 34.0938Z" fill="#FFFFFF"/>
<path id="Vector_13" d="M86.9083 50.6928L97.1499 33.1074H76.6667L86.9083 50.6928Z" fill="#FFFFFF"/>
<path id="Vector_14" d="M98.8325 70.7299L109.074 53.1445H88.5879L98.8325 70.7299Z" fill="#FFFFFF"/>
<path id="Vector_15" d="M75.2897 70.7299L85.5313 53.1445H65.0481L75.2897 70.7299Z" fill="#FFFFFF"/>
<path id="Vector_16" d="M22.0908 81.6362L32.3324 64.0508H11.8462L22.0908 81.6362Z" fill="#FFFFFF"/>
<path id="Vector_17" d="M22.0908 44.6699L11.8462 62.2553H32.3324L22.0908 44.6699Z" fill="#FFFFFF"/>
<path id="Vector_18" d="M10.2416 64.9121L0 82.4945H20.4862L10.2416 64.9121Z" fill="#FFFFFF"/>
<path id="Vector_19" d="M63.6708 54.2832L53.4292 71.8686H73.9124L63.6708 54.2832Z" fill="#FFFFFF"/>
<path id="Vector_20" d="M45.6335 44.6699L35.3889 62.2553H55.8751L45.6335 44.6699Z" fill="#FFFFFF"/>
<g id="Group_3">
<path id="Vector_21" d="M45.7535 80.5437C45.7535 80.8647 45.7265 81.0788 45.6816 81.1858C45.5828 81.382 45.3763 81.4802 45.0439 81.4802H39.5295C39.5654 81.2929 39.5834 81.1145 39.5834 80.9272V76.7441H38.5685V80.8112C38.5685 82.0688 37.8141 83.0231 36.7543 83.0231C35.6945 83.0231 34.9221 82.0421 34.9221 80.8112V80.0531H33.9072V80.9272C33.9072 82.6039 35.1915 83.9775 36.7543 83.9775C37.7422 83.9775 38.6673 83.4245 39.1792 82.4969H45.2505C46.2564 82.4969 46.7594 81.9618 46.7594 80.8826V78.9561H45.7535V80.5437Z" fill="#FFFFFF"/>
<path id="Vector_22" d="M45.5019 77.4489C45.5019 77.11 45.6366 76.9405 45.9061 76.9405C46.0947 76.9405 46.2204 77.0297 46.2833 77.217L46.7054 76.9405C46.5527 76.5749 46.2743 76.3965 45.8881 76.3965C45.3223 76.3965 44.9181 76.8335 44.9181 77.3954C44.9181 77.556 44.9451 77.7076 45.0079 77.8414H44.5229V78.4389H46.7593V77.8414H45.6276C45.5468 77.7433 45.5019 77.6184 45.5019 77.4489Z" fill="#FFFFFF"/>
<path id="Vector_23" d="M55.0311 78.9363C54.5461 78.6063 53.9713 78.4457 53.3067 78.4457C52.9115 78.4457 52.5163 78.526 52.1212 78.6955C51.7529 78.856 51.4386 79.0701 51.1602 79.3287C51.3847 79.6676 51.5464 79.9263 51.6452 80.1136C51.8607 79.8728 52.1301 79.6855 52.4535 79.5517C52.7319 79.4357 52.9834 79.3822 53.2079 79.3822C53.8635 79.3822 54.3844 79.6052 54.7527 80.0601C55.067 80.4525 55.2197 80.9252 55.2197 81.4782H49.7591C49.3819 81.4782 49.1214 81.4247 48.9867 81.3266C48.7981 81.1928 48.6993 80.9074 48.6993 80.4704V76.7422H47.7024V80.8717C47.7024 81.3623 47.8191 81.7458 48.0616 82.0312C48.3221 82.3434 48.6903 82.495 49.1753 82.495H56.3064V81.8706C56.3064 80.4704 55.8843 79.4982 55.0311 78.9363Z" fill="#FFFFFF"/>
<path id="Vector_24" d="M61.3358 75.8613H60.3479V76.8603H61.3358V75.8613Z" fill="#FFFFFF"/>
<path id="Vector_25" d="M63.0333 75.8613H62.0454V76.8603H63.0333V75.8613Z" fill="#FFFFFF"/>
<path id="Vector_26" d="M68.9162 75.9512H67.9282V76.9501H68.9162V75.9512Z" fill="#FFFFFF"/>
<path id="Vector_27" d="M67.2096 75.9512H66.2217V76.9501H67.2096V75.9512Z" fill="#FFFFFF"/>
<path id="Vector_28" d="M81.3012 76.6367H80.3132V77.6267H81.3012V76.6367Z" fill="#FFFFFF"/>
<path id="Vector_29" d="M85.7648 79.1434C84.5703 79.1434 83.735 79.9996 83.735 81.1947C83.735 81.275 83.744 81.3553 83.753 81.4356L83.7619 81.4802H81.0855C81.2292 81.3107 81.3011 80.9718 81.3011 80.4455V78.4477H80.3042V80.4991C80.3042 80.8112 80.2682 81.0431 80.1964 81.1769C80.0886 81.382 79.891 81.4802 79.5946 81.4802H77.8882C77.8613 79.4555 77.0799 78.4298 75.5621 78.4298C74.6101 78.4298 73.7479 78.9115 72.9126 79.9728L73.0384 76.7441H72.0504V81.4802H69.6435C69.1854 81.4802 68.907 81.4445 68.8082 81.382C69.0866 81.168 69.3111 80.8915 69.4638 80.5437C69.6075 80.2404 69.6794 79.9282 69.6794 79.5982C69.6794 78.3317 68.6016 77.645 67.5867 77.645C66.6796 77.645 65.9432 78.1712 65.6109 79.0185C65.539 79.1969 65.5031 79.402 65.5031 79.6339C65.5031 79.955 65.575 80.2672 65.7097 80.5615C65.8624 80.8915 66.0869 81.168 66.3743 81.382C66.2665 81.4445 65.9881 81.4802 65.539 81.4802H64.12C63.4464 81.4802 63.1141 81.1056 63.1141 80.4099V77.5825H60.8957C59.7461 77.5825 59.0366 78.412 59.0366 79.7499C59.0366 80.9896 59.7461 81.8458 60.8957 81.8458C61.3448 81.8458 61.731 81.6229 62.0453 81.1769C62.2519 81.9707 62.8896 82.4969 63.6709 82.4969H65.5929C66.4461 82.4969 67.1107 82.3364 67.5778 82.0064C68.0538 82.3364 68.7184 82.4969 69.5806 82.4969H84.1391C84.5253 83.0231 85.0732 83.2907 85.7648 83.2907C86.9593 83.2907 87.7766 82.4167 87.7766 81.2304C87.7766 80.0442 86.9593 79.1434 85.7648 79.1434ZM62.0723 79.6518C62.0723 80.4099 61.6771 81.0164 61.0215 81.0164C60.4197 81.0164 60.0335 80.4277 60.0335 79.7409C60.0335 78.9115 60.4646 78.3585 61.1652 78.3585H62.0723V79.6518ZM68.1346 80.6864C67.9819 80.8023 67.7933 80.9093 67.5867 81.0164C67.3802 80.9183 67.1916 80.8023 67.0299 80.6864C66.6347 80.4009 66.4372 80.0174 66.4372 79.5447C66.4372 79.2326 66.5359 78.9739 66.7246 78.7688C66.9311 78.5458 67.2185 78.4298 67.5867 78.4298C67.955 78.4298 68.2424 78.5458 68.4489 78.7688C68.6376 78.9739 68.7274 79.2326 68.7274 79.5447C68.7274 80.0263 68.5298 80.4099 68.1346 80.6864ZM76.8464 81.4802H72.8318C73.4156 80.2315 74.4664 79.3217 75.4723 79.3217C76.3345 79.3217 76.8554 80.0531 76.8554 81.1947C76.8554 81.2928 76.8554 81.382 76.8464 81.4802ZM85.7917 82.3631C85.19 82.3631 84.7678 81.8547 84.7678 81.1858C84.7678 80.5169 85.172 80.0442 85.7378 80.0442C86.3036 80.0442 86.7437 80.5526 86.7437 81.2304C86.7437 81.9083 86.3485 82.3631 85.7917 82.3631Z" fill="#FFFFFF"/>
<path id="Vector_30" d="M92.8151 75.8613H91.8271V76.8603H92.8151V75.8613Z" fill="#FFFFFF"/>
<path id="Vector_31" d="M94.5126 75.8613H93.5247V76.8603H94.5126V75.8613Z" fill="#FFFFFF"/>
<path id="Vector_32" d="M103.844 76.6367H102.865V77.6267H103.844V76.6367Z" fill="#FFFFFF"/>
<path id="Vector_33" d="M102.856 80.5432C102.856 80.8642 102.829 81.0783 102.784 81.1853C102.685 81.3815 102.479 81.4797 102.147 81.4797H95.5992C94.9256 81.4797 94.5933 81.1051 94.5933 80.4094V77.582H92.375C91.2254 77.582 90.5159 78.4115 90.5159 79.7494C90.5159 80.9891 91.2254 81.8453 92.375 81.8453C92.824 81.8453 93.2102 81.6224 93.5246 81.1764C93.7311 81.9702 94.3688 82.4964 95.1502 82.4964H102.353C103.359 82.4964 103.862 81.9613 103.862 80.8821V78.4472H102.856V80.5432ZM93.5515 79.6513C93.5515 80.4094 93.1564 81.0159 92.5007 81.0159C91.899 81.0159 91.5128 80.4272 91.5128 79.7404C91.5128 78.911 91.9439 78.358 92.6444 78.358H93.5515V79.6513Z" fill="#FFFFFF"/>
<path id="Vector_34" d="M110.352 79.1434C109.158 79.1434 108.323 79.9996 108.323 81.1947C108.323 81.275 108.332 81.3553 108.341 81.4356L108.35 81.4802H106.85C106.472 81.4802 106.212 81.4266 106.077 81.3285C105.889 81.1947 105.79 80.9093 105.79 80.4723V76.7441H104.793V80.8737C104.793 81.3642 104.91 81.7477 105.152 82.0331C105.413 82.3453 105.781 82.4969 106.266 82.4969H108.727C109.113 83.0231 109.661 83.2907 110.352 83.2907C111.547 83.2907 112.364 82.4167 112.364 81.2304C112.364 80.0442 111.547 79.1434 110.352 79.1434ZM110.379 82.3631C109.778 82.3631 109.355 81.8547 109.355 81.1858C109.355 80.5169 109.76 80.0442 110.325 80.0442C110.891 80.0442 111.331 80.5526 111.331 81.2304C111.331 81.9083 110.936 82.3631 110.379 82.3631Z" fill="#FFFFFF"/>
<path id="Vector_35" d="M113.819 75.8705C113.711 75.8081 113.658 75.6922 113.658 75.5405C113.658 75.3711 113.774 75.2016 113.963 75.2016C114.098 75.2016 114.187 75.2641 114.214 75.3978L114.538 75.2284C114.412 74.9697 114.223 74.8359 113.972 74.8359C113.586 74.8359 113.271 75.1392 113.271 75.5584C113.271 75.603 113.298 75.7011 113.352 75.8705H112.993V76.2808H114.547V75.8705H113.819Z" fill="#FFFFFF"/>
<path id="Vector_36" d="M114.295 76.7363H113.298V82.498H114.295V76.7363Z" fill="#FFFFFF"/>
</g>
<g id="Group_4">
<path id="Vector_37" d="M8.01118 88.5748H5.05636V86.2559H4.30493V91.9016H5.05636V89.2408H8.01118V91.9016H8.76561V86.2559H8.01118V88.5748Z" fill="#FFFFFF"/>
<path id="Vector_38" d="M11.5767 86.2559L9.39429 91.9016H10.1936L10.8193 90.1921H13.1963L13.861 91.9016H14.7172L12.391 86.2559H11.5797H11.5767ZM11.0349 89.5827L11.6606 87.9267C11.7923 87.5699 11.8941 87.2102 11.9659 86.8475C12.0527 87.1537 12.1874 87.5432 12.3701 88.0189L12.9628 89.5827H11.0349Z" fill="#FFFFFF"/>
<path id="Vector_39" d="M16.1931 86.2559H15.4417V91.9016H16.1931V86.2559Z" fill="#FFFFFF"/>
<path id="Vector_40" d="M18.2437 86.2559H17.4893V91.9016H21.0428V91.2357H18.2437V86.2559Z" fill="#FFFFFF"/>
<path id="Vector_41" d="M27.2609 89.6154C27.1562 89.5232 27.0065 89.4281 26.8059 89.3329C27.3507 89.2586 27.7549 89.0832 28.0154 88.8097C28.2758 88.5362 28.4075 88.1972 28.4075 87.7959C28.4075 87.4867 28.3297 87.2013 28.171 86.9456C28.0124 86.6899 27.8028 86.5086 27.5394 86.4075C27.2759 86.3064 26.8897 86.2559 26.3838 86.2559H23.863V91.9016H24.6145V89.3954H25.4886C25.6832 89.3954 25.8209 89.4043 25.9078 89.4221C26.0245 89.4519 26.1383 89.4994 26.252 89.5737C26.3658 89.6451 26.4915 89.7729 26.6352 89.9513C26.7789 90.1297 26.9586 90.3913 27.1771 90.7302L27.9285 91.9046H28.8746L27.8866 90.3675C27.689 90.0673 27.4825 89.8175 27.2609 89.6154ZM26.2341 88.7502H24.6175V86.8832H26.4167C26.8388 86.8832 27.1472 86.9694 27.3418 87.1418C27.5364 87.3142 27.6352 87.5343 27.6352 87.7989C27.6352 87.9802 27.5843 88.1497 27.4825 88.3043C27.3807 88.4589 27.234 88.5718 27.0394 88.6432C26.8448 88.7145 26.5754 88.7502 26.2341 88.7502Z" fill="#FFFFFF"/>
<path id="Vector_42" d="M30.3535 89.3151H33.4999V88.6521H30.3535V86.9218H33.7125V86.2559H29.6021V91.9016H33.8442V91.2357H30.3535V89.3151Z" fill="#FFFFFF"/>
<path id="Vector_43" d="M37.5444 89.6901H39.2149V90.7425C39.0532 90.8822 38.8197 91.016 38.5084 91.1409C38.197 91.2658 37.8797 91.3282 37.5534 91.3282C37.1791 91.3282 36.8229 91.2449 36.4906 91.0814C36.1583 90.9179 35.9038 90.6652 35.7272 90.3263C35.5535 89.9874 35.4667 89.5652 35.4667 89.0628C35.4667 88.6555 35.5386 88.2749 35.6853 87.9271C35.7691 87.7249 35.8888 87.5376 36.0445 87.3681C36.1972 87.1987 36.4008 87.0619 36.6522 86.9579C36.9037 86.8538 37.2001 86.8033 37.5444 86.8033C37.8318 86.8033 38.0922 86.8538 38.3287 86.9519C38.5652 87.05 38.7449 87.1838 38.8706 87.3473C38.9963 87.5108 39.1041 87.7368 39.1879 88.0252L39.8675 87.8408C39.7687 87.4603 39.625 87.1541 39.4364 86.9162C39.2478 86.6814 38.9874 86.497 38.6551 86.3632C38.3228 86.2295 37.9515 86.1641 37.5414 86.1641C36.9756 86.1641 36.4756 86.28 36.0415 86.5119C35.6074 86.7438 35.2751 87.0976 35.0416 87.5733C34.8111 88.049 34.6943 88.5633 34.6943 89.1103C34.6943 89.6574 34.8111 90.1657 35.0446 90.6176C35.2781 91.0666 35.6224 91.4114 36.0774 91.6493C36.5325 91.8871 37.0414 92.006 37.5983 92.006C38.0114 92.006 38.4156 91.9317 38.8077 91.7831C39.1999 91.6344 39.5831 91.4144 39.9513 91.1231V89.0271H37.5444V89.693V89.6901Z" fill="#FFFFFF"/>
<path id="Vector_44" d="M41.9424 86.2559H41.1909V91.9016H41.9424V86.2559Z" fill="#FFFFFF"/>
<path id="Vector_45" d="M47.1814 86.5289C46.7593 86.2792 46.2863 86.1543 45.7624 86.1543C44.9601 86.1543 44.3074 86.4189 43.7985 86.9511C43.2926 87.4803 43.0381 88.2146 43.0381 89.1511C43.0381 89.6476 43.1459 90.1173 43.3644 90.5603C43.583 91.0033 43.9003 91.3541 44.3224 91.6128C44.7445 91.8684 45.2235 91.9992 45.7564 91.9992C46.2504 91.9992 46.7114 91.8833 47.1365 91.6514C47.5616 91.4195 47.8939 91.0776 48.1245 90.6257C48.358 90.1738 48.4747 89.6625 48.4747 89.0887C48.4747 88.5149 48.364 88.0184 48.1424 87.5724C47.9209 87.1265 47.6006 86.7786 47.1784 86.5319L47.1814 86.5289ZM47.1515 90.7654C46.7863 91.1609 46.3192 91.36 45.7534 91.36C45.1876 91.36 44.7355 91.1638 44.3673 90.7714C43.9991 90.379 43.8135 89.8438 43.8135 89.163C43.8135 88.3127 44.0051 87.7062 44.3883 87.3435C44.7715 86.9808 45.2295 86.7994 45.7624 86.7994C46.1366 86.7994 46.4749 86.8946 46.7773 87.0819C47.0796 87.2692 47.3072 87.5367 47.4628 87.8786C47.6185 88.2205 47.6964 88.6219 47.6964 89.0827C47.6964 89.8081 47.5137 90.37 47.1485 90.7654H47.1515Z" fill="#FFFFFF"/>
<path id="Vector_46" d="M53.1956 90.6886L50.2109 86.2559H49.4385V91.9016H50.16V87.4659L53.1477 91.9016H53.9171V86.2559H53.1956V90.6886Z" fill="#FFFFFF"/>
<path id="Vector_47" d="M60.4196 90.1862C60.2819 90.5846 60.1831 90.8848 60.1172 91.09C60.0603 90.9057 59.9705 90.6262 59.8448 90.2546L58.4976 86.2559H57.366V91.9016H58.0905V87.0943L59.734 91.9016H60.4136L62.0661 87.1775V91.9016H62.7906V86.2559H61.7787L60.4166 90.1832L60.4196 90.1862Z" fill="#FFFFFF"/>
<path id="Vector_48" d="M67.7363 89.5134C67.7363 90.2209 67.6195 90.6996 67.383 90.9493C67.1465 91.1991 66.7543 91.3239 66.2005 91.3239C65.8772 91.3239 65.6048 91.2615 65.3802 91.1366C65.1557 91.0118 65 90.8304 64.9072 90.5985C64.8144 90.3666 64.7695 90.0039 64.7695 89.5134V86.2549H64.0181V89.5163C64.0181 90.1139 64.0899 90.5866 64.2366 90.9315C64.3803 91.2763 64.6228 91.5409 64.9611 91.7223C65.2994 91.9037 65.7365 91.9958 66.2694 91.9958C66.8022 91.9958 67.2603 91.8918 67.5986 91.6807C67.9369 91.4726 68.1704 91.1991 68.2991 90.8661C68.4279 90.5331 68.4937 90.0812 68.4937 89.5134V86.252H67.7423V89.5104L67.7363 89.5134Z" fill="#FFFFFF"/>
<path id="Vector_49" d="M73.4903 90.6886L70.5055 86.2559H69.7332V91.9016H70.4546V87.4659L73.4424 91.9016H74.2118V86.2559H73.4903V90.6886Z" fill="#FFFFFF"/>
<path id="Vector_50" d="M76.3554 86.2559H75.604V91.9016H76.3554V86.2559Z" fill="#FFFFFF"/>
<path id="Vector_51" d="M81.1482 90.9982C80.8548 91.239 80.4985 91.3609 80.0764 91.3609C79.7292 91.3609 79.4088 91.2717 79.1094 91.0963C78.8131 90.9179 78.5945 90.6503 78.4508 90.2936C78.3101 89.9338 78.2383 89.5147 78.2383 89.036C78.2383 88.6644 78.2981 88.3017 78.4179 87.9508C78.5376 87.6 78.7442 87.3206 79.0376 87.1125C79.331 86.9043 79.6962 86.8003 80.1333 86.8003C80.5135 86.8003 80.8279 86.8954 81.0793 87.0827C81.3308 87.27 81.5224 87.5703 81.6541 87.9806L82.3936 87.8081C82.2409 87.2879 81.9715 86.8835 81.5823 86.5951C81.1931 86.3068 80.7171 86.1641 80.1483 86.1641C79.6453 86.1641 79.1873 86.277 78.7682 86.506C78.349 86.7319 78.0287 87.0649 77.8012 87.5019C77.5737 87.939 77.4629 88.4533 77.4629 89.0419C77.4629 89.5801 77.5617 90.0855 77.7623 90.5552C77.9628 91.0249 78.2562 91.3847 78.6394 91.6314C79.0226 91.8782 79.5226 92.0031 80.1333 92.0031C80.744 92.0031 81.226 91.8425 81.6362 91.5185C82.0463 91.1944 82.3307 90.7276 82.4864 90.1152L81.735 89.9279C81.6302 90.4036 81.4326 90.7603 81.1422 91.0012L81.1482 90.9982Z" fill="#FFFFFF"/>
<path id="Vector_52" d="M84.2978 86.2559H83.5464V91.9016H84.2978V86.2559Z" fill="#FFFFFF"/>
<path id="Vector_53" d="M89.7942 87.118C89.6804 86.8832 89.5277 86.7018 89.3391 86.574C89.1505 86.4432 88.917 86.3569 88.6386 86.3094C88.438 86.2737 88.1506 86.2559 87.7734 86.2559H85.6299V91.9016H86.3813V89.6064H87.8393C88.6446 89.6064 89.1984 89.44 89.5068 89.107C89.8151 88.774 89.9678 88.3667 89.9678 87.888C89.9678 87.6086 89.9109 87.3499 89.7942 87.118ZM88.8841 88.6699C88.6805 88.8483 88.3332 88.9405 87.8482 88.9405H86.3783V86.9218H87.8333C88.1746 86.9218 88.4081 86.9397 88.5338 86.9724C88.7314 87.0259 88.8901 87.1359 89.0098 87.3053C89.1296 87.4748 89.1894 87.677 89.1894 87.9118C89.1894 88.2389 89.0877 88.4916 88.8841 88.6699Z" fill="#FFFFFF"/>
<path id="Vector_54" d="M91.8929 86.2559L89.7104 91.9016H90.5098L91.1355 90.1921H93.5125L94.1741 91.9016H95.0303L92.7042 86.2559H91.8929ZM91.351 89.5827L91.9767 87.9267C92.1084 87.5699 92.2102 87.2102 92.2821 86.8475C92.3689 87.1537 92.5036 87.5432 92.6862 88.0189L93.279 89.5827H91.351Z" fill="#FFFFFF"/>
<path id="Vector_55" d="M96.3535 86.2559H95.6021V91.9016H99.1526V91.2357H96.3535V86.2559Z" fill="#FFFFFF"/>
<path id="Vector_56" d="M100.928 86.2559H100.177V91.9016H100.928V86.2559Z" fill="#FFFFFF"/>
<path id="Vector_57" d="M101.829 86.9218H103.703V91.9016H104.455V86.9218H106.335V86.2559H101.829V86.9218Z" fill="#FFFFFF"/>
<path id="Vector_58" d="M110.852 86.2549L109.751 87.9139C109.508 88.2825 109.302 88.6155 109.131 88.9098C108.951 88.5917 108.76 88.2736 108.553 87.9555L107.433 86.252H106.517L108.709 89.5074V91.8977H109.46V89.5074L111.729 86.252H110.852V86.2549Z" fill="#FFFFFF"/>
</g>
</g>
<g id="Group_5">
<path id="Vector_59" d="M84.2229 16.9045C84.1391 16.9045 84.0553 16.9015 83.9715 16.9045C83.4236 16.9282 82.8758 16.9639 82.3309 17.0085C81.9088 17.0442 81.4866 17.0858 81.0705 17.1482C80.4448 17.2404 79.8191 17.3385 79.1994 17.4723C78.5857 17.6061 77.975 17.7518 77.3733 17.9302C76.6937 18.1323 76.0201 18.3642 75.3645 18.6318C74.8555 18.8399 74.3556 19.0658 73.8676 19.3186C73.2898 19.6188 72.727 19.9459 72.1881 20.3115C71.6342 20.6861 71.1044 21.0905 70.6014 21.5305C70.4637 21.6494 70.332 21.7802 70.1943 21.8991C70.1374 21.9467 70.1434 21.9764 70.1943 22.021C70.6912 22.4759 71.1852 22.9308 71.6821 23.3856C72.1402 23.8078 72.6012 24.227 73.0563 24.6551C73.1341 24.7294 73.164 24.7175 73.209 24.6313C73.3467 24.3757 73.4006 24.0932 73.5023 23.8227C73.7059 23.2846 74.0801 22.9278 74.64 22.7762C75.3435 22.5859 75.9183 22.9427 76.1009 23.564C76.2416 24.0486 75.9303 24.6343 75.4483 24.8067C75.0292 24.9584 74.64 24.8781 74.2628 24.6759C74.0861 24.5808 74.0592 24.5867 73.9754 24.7651C73.8855 24.9584 73.8706 25.1397 74.0053 25.3359C74.2388 25.6808 74.5831 25.877 74.9393 26.0584C75.0501 26.1149 75.1729 26.1535 75.2896 26.2041C75.3525 26.2308 75.3944 26.2189 75.4363 26.1654C75.8375 25.6719 76.5949 25.6332 77.0499 26.0168C77.3343 26.2546 77.496 26.5638 77.4391 26.9384C77.3733 27.3576 77.1337 27.643 76.7116 27.7619C76.0111 27.9641 75.3465 27.8481 74.6968 27.5568C74.1191 27.2981 73.6041 26.9414 73.1102 26.5578C73.0293 26.4924 72.9934 26.4984 72.9275 26.5846C72.4845 27.1762 71.9276 27.6192 71.1942 27.8006C70.5475 27.9581 69.9458 27.7708 69.5775 27.1941C69.356 26.8462 69.3919 26.4835 69.6045 26.1386C69.8081 25.8086 70.0955 25.5916 70.4966 25.5767C70.8289 25.5649 71.3319 25.6927 71.5055 26.0346C71.5594 26.1416 71.5504 26.2457 71.5504 26.3557C71.5504 26.5341 71.5774 26.5549 71.754 26.5133C71.9396 26.4716 72.0713 26.3527 72.1821 26.207C72.221 26.1565 72.2031 26.1059 72.1761 26.0584C72.0055 25.7581 71.8079 25.4757 71.5744 25.22C71.0565 24.6432 70.4367 24.1854 69.832 23.7097C69.5895 23.5194 69.353 23.3173 69.1195 23.1151C69.0566 23.0586 69.0207 23.0616 68.9608 23.1151C68.4669 23.5581 67.94 23.9654 67.428 24.3905C66.8532 24.8692 66.3204 25.3865 65.8982 26.0078C65.8384 26.097 65.8354 26.1803 65.9042 26.2635C66.015 26.3973 66.1497 26.4865 66.3263 26.5133C66.4341 26.5311 66.5 26.4865 66.5329 26.3884C66.5539 26.326 66.5748 26.2665 66.5838 26.2011C66.6317 25.9127 66.7874 25.7373 67.0838 25.663C67.3861 25.5886 67.6825 25.5411 67.9699 25.6749C68.4399 25.8978 68.7722 26.54 68.5717 27.0454C68.413 27.4468 68.0986 27.6727 67.6885 27.7798C67.1586 27.9165 66.6706 27.7946 66.2006 27.5389C65.7515 27.2952 65.3923 26.9651 65.1169 26.543C65.06 26.4538 65.0241 26.5162 64.9851 26.543C64.6828 26.7689 64.3804 26.9979 64.0571 27.197C63.5841 27.4884 63.0901 27.7262 62.5393 27.8452C62.2249 27.9135 61.9076 27.9314 61.5902 27.9076C61.1292 27.8749 60.74 27.4676 60.6771 26.9979C60.6203 26.5697 60.767 26.2219 61.0903 25.9543C61.4286 25.6778 61.8118 25.6778 62.204 25.8354C62.3806 25.9068 62.5123 26.0316 62.6381 26.1654C62.686 26.2159 62.7309 26.2219 62.7907 26.1981C63.141 26.0614 63.4763 25.8978 63.7697 25.657C63.9074 25.544 64.0092 25.4043 64.111 25.2616C64.2337 25.0862 64.1379 24.777 63.9972 24.6492C63.9463 24.6046 63.8834 24.6016 63.8146 24.6224C63.635 24.6819 63.4643 24.7711 63.2787 24.8186C62.7937 24.9494 62.5033 24.8573 62.195 24.4619C61.7369 23.8702 61.9585 23.0259 62.653 22.7702C63.0452 22.6245 63.4045 22.7286 63.7667 22.9129C64.3026 23.1835 64.5481 23.6473 64.6977 24.1884C64.7427 24.3489 64.7995 24.5035 64.8804 24.6492C64.9163 24.7116 64.9343 24.7235 64.9941 24.67C65.524 24.1735 66.0569 23.6829 66.5898 23.1894C67.0119 22.8 67.437 22.4105 67.8651 22.0299C67.9549 21.9497 67.8981 21.908 67.8472 21.8635C67.4939 21.5453 67.1347 21.2302 66.7574 20.9388C66.1168 20.4424 65.4432 19.9964 64.7337 19.601C64.0421 19.2145 63.3296 18.8785 62.5931 18.5842C62.0303 18.3612 61.4615 18.162 60.8837 17.9837C60.0694 17.7339 59.2432 17.5377 58.4079 17.3742C57.8481 17.2642 57.2852 17.1839 56.7224 17.1066C56.0309 17.0115 55.3333 16.9639 54.6388 16.9223C54.3723 16.9074 54.1029 16.8985 53.8125 16.8866C53.8724 16.8212 53.9352 16.8212 53.9921 16.8123C54.3334 16.7588 54.6717 16.6963 55.013 16.6577C55.4351 16.6101 55.8602 16.5715 56.2823 16.5536C56.9948 16.5269 57.7074 16.5239 58.4199 16.5804C58.9198 16.6191 59.4138 16.6815 59.9108 16.7528C60.6292 16.8539 61.3328 17.0055 62.0363 17.181C62.671 17.3385 63.2967 17.5318 63.9044 17.7726C64.6199 18.055 65.3115 18.388 65.9851 18.7596C66.6736 19.1402 67.3382 19.5594 67.9849 20.0023C68.3232 20.2342 68.6645 20.4632 68.9878 20.7188C69.0596 20.7753 69.1135 20.7991 69.2003 20.7188C69.6374 20.3353 70.0985 19.9815 70.5804 19.6515C71.3708 19.1104 72.2001 18.6377 73.0712 18.2364C73.9724 17.8202 74.9004 17.4783 75.8614 17.2166C76.52 17.0382 77.1817 16.8836 77.8582 16.7855C78.2085 16.735 78.5558 16.6726 78.906 16.6369C79.6874 16.5566 80.4748 16.5299 81.2591 16.5447C81.6783 16.5507 82.0944 16.5715 82.5105 16.6101C82.9506 16.6518 83.3907 16.6963 83.8248 16.7855C83.9595 16.8123 84.1002 16.8064 84.2289 16.8539C84.2289 16.8688 84.2259 16.8837 84.2229 16.8955V16.9045Z" fill="#FFFFFF"/>
<path id="Vector_60" d="M65.3264 8.43362C65.1947 8.20767 65.1258 7.95793 65.0749 7.70523C65.021 7.43468 64.9731 7.16414 64.9851 6.88765C65.015 6.1325 65.2276 5.44276 65.7425 4.86005C65.985 4.58356 66.2365 4.31599 66.4999 4.06031C66.5658 3.99788 66.6257 3.93247 66.6646 3.84923C66.7035 3.77193 66.6945 3.71841 66.5897 3.70652C66.4041 3.68571 66.3173 3.7303 66.2155 3.91463C66.1636 4.00779 66.0958 4.01869 66.0119 3.94734C65.9191 4.14058 65.8293 4.33085 65.7365 4.52707C65.6826 4.47356 65.7096 4.41707 65.6976 4.3695C65.6766 4.28626 65.6377 4.26545 65.5719 4.33085C65.4731 4.43194 65.4581 4.5687 65.4222 4.69654C65.4132 4.73221 65.4162 4.77086 65.3743 4.78275C65.3264 4.79465 65.3443 4.74708 65.3294 4.73221C65.2934 4.69059 65.2695 4.73221 65.2485 4.75005C65.1408 4.84519 65.1078 4.97897 65.0809 5.10681C65.0659 5.17222 65.036 5.23168 65.018 5.29708C64.9851 5.27033 64.9791 5.19898 64.9252 5.21384C64.8743 5.22871 64.8294 5.26735 64.8055 5.32682C64.7546 5.44871 64.7935 5.57655 64.7755 5.71033C64.7007 5.6479 64.6648 5.69547 64.6318 5.7579C64.563 5.88872 64.557 6.02845 64.563 6.17115C64.563 6.22467 64.563 6.27521 64.563 6.33764C64.4402 6.29007 64.4672 6.18007 64.4402 6.07007C64.2097 6.29305 64.2846 6.58737 64.2127 6.84008C64.1768 6.78954 64.1858 6.739 64.1888 6.69143C64.1918 6.63494 64.1888 6.57845 64.1888 6.52197C64.1918 6.46548 64.1828 6.41791 64.1259 6.37926C64.0031 6.55764 64.0002 6.78062 63.9044 6.99765C63.8654 6.8044 63.9313 6.62305 63.8505 6.43278C63.7277 6.66765 63.8385 6.89657 63.7696 7.10765C63.7038 6.98576 63.6948 6.849 63.6828 6.71819C63.6409 6.30494 63.6379 5.88871 63.7577 5.48736C63.8565 5.15438 64.0391 4.86302 64.2247 4.57167C64.4462 4.22383 64.7665 3.98004 65.0809 3.7303C65.3623 3.50733 65.6886 3.37057 66.006 3.21003C66.1646 3.12976 66.3083 3.03165 66.4341 2.90678C66.452 2.88894 66.488 2.87408 66.47 2.8384C66.455 2.81164 66.4221 2.80867 66.3922 2.81164C66.2993 2.81759 66.2006 2.85327 66.1137 2.82948C66.006 2.80272 65.9371 2.82353 65.8742 2.90678C65.7844 2.74326 65.7365 2.74326 65.506 2.90083C65.4521 2.76705 65.3892 2.74921 65.2785 2.84435C65.2485 2.8711 65.2186 2.90083 65.1917 2.93056C65.1527 2.97516 65.1228 2.98705 65.1019 2.91867C65.0839 2.85921 65.051 2.86218 65.0001 2.88597C64.9073 2.93056 64.8144 2.96624 64.7845 3.07921C64.7755 3.11489 64.7546 3.11489 64.7216 3.09111C64.6079 3.00786 64.572 3.01975 64.5181 3.15057C64.5121 3.16543 64.5061 3.1803 64.5001 3.19516C64.4193 3.12976 64.3444 3.17435 64.2965 3.29624C64.2816 3.33192 64.3235 3.45679 64.2037 3.3676C64.1828 3.35273 64.1828 3.39138 64.1768 3.40625C64.1498 3.46571 64.1439 3.543 64.0989 3.57868C64.066 3.60544 64.1468 3.81058 63.9822 3.6649C63.9612 3.64706 63.9223 3.70652 63.9133 3.74517C63.8984 3.83733 63.8864 3.9295 63.8714 4.02166C63.8684 4.04842 63.8714 4.07815 63.8295 4.09896C63.7846 4.02166 63.7996 3.93247 63.7996 3.85517C63.7816 3.27841 63.9373 2.76705 64.4462 2.4311C64.7216 2.24974 65.048 2.16947 65.3653 2.08325C65.6557 2.00298 65.9491 1.9465 66.2514 1.93758C66.6017 1.92866 66.937 1.99704 67.2603 2.12785C67.3022 2.14569 67.3472 2.18731 67.3921 2.13082C67.431 2.08325 67.428 2.03866 67.401 1.98514C67.3501 1.8692 67.3052 1.75325 67.2035 1.67C67.1106 1.59568 67.0238 1.58379 66.925 1.64919C66.9071 1.66109 66.8921 1.69082 66.8622 1.67595C66.8292 1.65811 66.8442 1.62838 66.8532 1.59865C66.8592 1.58379 66.8622 1.56595 66.8652 1.55108C66.8741 1.51541 66.94 1.49162 66.8981 1.44703C66.8562 1.40243 66.7993 1.39946 66.7394 1.41433C66.6466 1.43514 66.5628 1.49757 66.452 1.48568C66.4401 1.44406 66.5149 1.39946 66.446 1.36081C66.3951 1.33108 66.3443 1.33703 66.2934 1.35784C66.2395 1.37865 66.1916 1.41135 66.1377 1.42622C66.1077 1.43514 66.0509 1.43514 66.0838 1.3727C66.0988 1.34297 66.1467 1.32216 66.0988 1.28649C66.0628 1.25973 66.0239 1.2627 65.985 1.28649C65.8982 1.33703 65.7964 1.36081 65.7365 1.44406C65.6976 1.42027 65.7156 1.39351 65.7126 1.3727C65.6976 1.26567 65.6557 1.24784 65.5659 1.31027C65.4461 1.39649 65.3803 1.52135 65.3054 1.64325C65.2815 1.6819 65.2635 1.75325 65.2126 1.74136C65.1527 1.72947 65.1677 1.65514 65.1617 1.6046C65.1468 1.37865 65.2396 1.19729 65.4252 1.0754C65.7186 0.882155 66.0269 0.718639 66.3832 0.665125C66.7694 0.608638 67.1496 0.635395 67.5178 0.754315C67.8741 0.86729 68.0836 1.14973 68.2782 1.44703C68.3081 1.49162 68.3351 1.53622 68.371 1.58973C68.5237 1.32216 68.5566 1.03081 68.6375 0.748369C68.6943 0.775127 68.6704 0.852425 68.7422 0.864317C68.7991 0.718639 68.8141 0.564042 68.8291 0.409446C68.838 0.299444 68.856 0.192415 68.8889 0.0883598C68.8979 0.0556566 68.8949 -0.00677677 68.9488 -0.00380375C68.9877 -0.00380375 68.9877 0.0497105 68.9997 0.0853867C69.0566 0.27566 69.0686 0.474852 69.0985 0.668098C69.1105 0.736477 69.1314 0.795938 69.1673 0.855398C69.2242 0.83756 69.1973 0.769181 69.2572 0.748369C69.32 1.02783 69.3829 1.31027 69.5326 1.58676C69.6224 1.39649 69.7332 1.23892 69.8799 1.11108C70.1822 0.849452 70.5175 0.671071 70.9337 0.656206C71.2779 0.644314 71.6192 0.65026 71.9485 0.760261C72.1701 0.834587 72.3647 0.950535 72.5173 1.12594C72.667 1.29838 72.7149 1.50352 72.691 1.73838C72.6131 1.70568 72.5892 1.63433 72.5533 1.57784C72.4934 1.48568 72.4455 1.3846 72.3527 1.31919C72.3168 1.2954 72.2808 1.25378 72.2329 1.27757C72.1791 1.30135 72.197 1.35189 72.197 1.39649C72.197 1.41135 72.197 1.42622 72.197 1.46784C72.1132 1.36973 72.0084 1.34297 71.9246 1.28054C71.8857 1.25378 71.8497 1.22108 71.8078 1.26567C71.7749 1.30135 71.7689 1.34297 71.8018 1.38757C71.8198 1.40838 71.8438 1.42919 71.8258 1.47081C71.748 1.43514 71.6731 1.39946 71.5953 1.36973C71.4875 1.33108 71.4576 1.35784 71.4785 1.46487C71.4815 1.48865 71.4965 1.51541 71.4695 1.53027C71.4486 1.54514 71.4216 1.53027 71.4007 1.52135C71.3049 1.47379 71.2091 1.42919 71.1013 1.42324C71.0115 1.4173 70.9756 1.44703 71.0175 1.53622C71.0325 1.56595 71.0414 1.59568 71.0564 1.62541C71.0684 1.64622 71.0684 1.66406 71.0474 1.67595C71.0295 1.68784 71.0205 1.67 71.0055 1.66109C70.8708 1.57487 70.769 1.59271 70.6732 1.72055C70.5984 1.82163 70.5265 1.92568 70.4517 2.02677C70.4247 2.06244 70.4127 2.10109 70.3978 2.16055C70.5924 2.11001 70.769 2.06244 70.9516 2.02082C71.26 1.95244 71.5713 1.95839 71.8797 1.98217C72.2958 2.01785 72.703 2.11001 73.0981 2.25866C73.4394 2.38947 73.7148 2.60353 73.9244 2.89489C74.0232 3.03165 74.0471 3.21003 74.0741 3.37949C74.113 3.6203 74.131 3.86112 74.0741 4.11382C74.0202 4.07815 74.0022 4.03355 73.9963 3.98301C73.9903 3.91166 73.9843 3.83733 73.9753 3.76598C73.9723 3.72733 73.9753 3.67679 73.9334 3.65895C73.8915 3.63814 73.8945 3.71544 73.8466 3.71247C73.8196 3.4776 73.637 3.33489 73.5113 3.15651C73.5053 3.14759 73.4843 3.13867 73.4813 3.14165C73.3676 3.2457 73.3825 3.10597 73.3526 3.0703C73.3017 3.01083 73.2688 2.97219 73.2089 3.0584C73.158 3.13273 73.1251 3.10894 73.1041 3.03462C73.0712 2.91867 72.9574 2.89786 72.8676 2.86218C72.8018 2.83543 72.8137 2.93651 72.7658 2.96327C72.7299 2.96327 72.7179 2.92759 72.697 2.90678C72.6102 2.81759 72.5293 2.73137 72.3856 2.82056C72.3407 2.85029 72.2719 2.8384 72.224 2.79678C72.1371 2.71651 72.0892 2.74029 72.0713 2.85029C72.0713 2.86516 72.0593 2.88002 72.0473 2.90975C71.9785 2.80272 71.8946 2.79083 71.7839 2.82056C71.718 2.8384 71.6402 2.8057 71.5653 2.80272C71.5234 2.80272 71.4606 2.78191 71.4456 2.83543C71.4336 2.87408 71.4875 2.89786 71.5204 2.92164C71.739 3.07921 71.9665 3.21895 72.2 3.35273C72.5892 3.57273 72.9844 3.78679 73.3107 4.10193C73.5951 4.37545 73.7807 4.7114 73.9454 5.06222C74.1549 5.5052 74.2807 5.97196 74.2687 6.46548C74.2627 6.68251 74.2178 6.89657 74.1549 7.12549C74.11 7.04819 74.101 6.98279 74.113 6.91143C74.134 6.78062 74.1459 6.64683 74.104 6.51305C74.098 6.48926 74.0921 6.45953 74.0651 6.45953C74.0292 6.45953 74.0232 6.49521 74.0232 6.52197C74.0232 6.629 74.0232 6.73305 74.0232 6.84008C74.0232 6.8817 74.0202 6.92333 74.0022 6.96792C73.9005 6.77765 73.9214 6.54575 73.7807 6.36737C73.6819 6.47143 73.7238 6.59035 73.6879 6.69738C73.634 6.48926 73.6699 6.2544 73.4963 6.07007C73.4724 6.14439 73.4574 6.21277 73.4304 6.27521C73.4185 6.29899 73.4005 6.34061 73.3586 6.32872C73.3227 6.31683 73.3406 6.27818 73.3406 6.2544C73.3466 6.1325 73.3526 6.01061 73.3346 5.88871C73.3227 5.81439 73.2987 5.74898 73.2508 5.68952C73.2329 5.66871 73.2179 5.63601 73.185 5.67466C73.1191 5.74898 73.1191 5.68655 73.1191 5.63898C73.1191 5.5706 73.1191 5.50222 73.1191 5.43087C73.1191 5.41006 73.1191 5.38925 73.1161 5.37141C73.1011 5.29114 73.0622 5.20789 72.9784 5.20789C72.8856 5.20789 72.9185 5.30898 72.8976 5.37438C72.8317 5.24952 72.8377 5.11276 72.7988 4.98492C72.7748 4.90762 72.7479 4.83032 72.694 4.76789C72.67 4.74113 72.6461 4.69951 72.6072 4.71437C72.5772 4.72329 72.5742 4.76789 72.5682 4.80059C72.5682 4.81843 72.5623 4.83627 72.5563 4.87492C72.4844 4.79762 72.4994 4.7114 72.4814 4.63707C72.4575 4.53897 72.4365 4.44086 72.3766 4.35464C72.3497 4.31599 72.3138 4.28329 72.2659 4.2922C72.215 4.30112 72.227 4.35464 72.221 4.39329C72.215 4.43194 72.209 4.47356 72.197 4.54491C72.0892 4.32788 71.9964 4.13761 71.9006 3.95031C71.8946 3.95031 71.8857 3.95031 71.8797 3.95328C71.7629 4.05139 71.7599 4.05139 71.6851 3.91463C71.6282 3.81058 71.5534 3.72733 71.4396 3.68571C71.3947 3.66787 71.3408 3.60544 71.2989 3.65895C71.254 3.72139 71.239 3.80166 71.2959 3.87598C71.3288 3.92058 71.3648 3.96815 71.4037 4.00977C71.6462 4.26842 71.8797 4.53599 72.1341 4.77978C72.7449 5.36546 72.9784 6.08493 72.9514 6.91143C72.9365 7.41685 72.8077 7.89253 72.6251 8.35929C72.6072 8.40389 72.5802 8.43956 72.5353 8.49902C72.5233 8.40686 72.5503 8.35037 72.5712 8.29091C72.6012 8.19578 72.5982 8.10659 72.5323 8.02631C72.5114 8.00253 72.4814 7.97875 72.4485 7.99064C72.4156 8.00253 72.4245 8.03821 72.4215 8.06496C72.4156 8.11848 72.4156 8.16902 72.4066 8.22253C72.4036 8.24334 72.3826 8.2701 72.3557 8.26713C72.3228 8.26118 72.3317 8.23145 72.3317 8.20767C72.3317 8.10064 72.3317 7.99658 72.3317 7.88956C72.3287 7.64874 72.2958 7.41387 72.224 7.18198C72.215 7.15225 72.2299 7.10765 72.185 7.10171C72.1491 7.09873 72.1371 7.13738 72.1192 7.16711C72.1012 7.19982 72.0862 7.23252 72.0683 7.26522C72.0174 7.28901 72.0294 7.17306 71.9695 7.21765C71.9186 7.25333 71.9006 7.30387 71.9066 7.3663C71.9096 7.40793 71.9066 7.44955 71.8946 7.49117C71.8138 7.3009 71.8378 7.10765 71.8797 6.91738C71.9096 6.78062 71.9455 6.64386 72.0054 6.51305C72.0803 6.34656 71.9994 6.19791 71.9276 6.05223C71.9006 5.99872 71.8737 6.04628 71.8527 6.06115C71.7988 6.10277 71.8138 6.18304 71.7569 6.2425C71.727 6.12656 71.706 6.0225 71.712 5.91547C71.718 5.76088 71.6851 5.60925 71.6552 5.45763C71.6492 5.4279 71.6462 5.37141 71.6013 5.37438C71.5564 5.37736 71.5504 5.43087 71.5414 5.47249C71.5324 5.51411 71.5713 5.55574 71.5324 5.60925C71.4127 5.41898 71.5983 5.17222 71.4007 4.99681C71.3528 5.09195 71.3797 5.21087 71.254 5.28519C71.254 5.16033 71.254 5.04735 71.254 4.93735C71.254 4.85708 71.236 4.78573 71.1911 4.72032C71.1702 4.69059 71.1492 4.64897 71.1103 4.65491C71.0714 4.65789 71.0833 4.70843 71.0684 4.73518C71.0594 4.75302 71.0504 4.77086 71.0295 4.80654C71.0145 4.64599 70.9756 4.51221 70.8917 4.39626C70.8708 4.36653 70.8468 4.3368 70.8169 4.31599C70.766 4.28031 70.7241 4.27734 70.7271 4.36058C70.7271 4.40221 70.7271 4.44383 70.7181 4.48248C70.7031 4.53302 70.6822 4.57761 70.6103 4.57464C70.5505 4.57167 70.5175 4.5568 70.5115 4.49437C70.5115 4.45275 70.4876 4.42599 70.4427 4.42302C70.4038 4.42302 70.3648 4.43491 70.3409 4.45869C70.308 4.49437 70.3469 4.52707 70.3619 4.5568C70.3948 4.61626 70.4517 4.64897 70.5115 4.6787C70.6403 4.7441 70.7421 4.83032 70.766 4.98492C70.781 5.07411 70.8498 5.13952 70.9007 5.21384C70.9396 5.26735 70.9696 5.32384 70.9636 5.40709C70.8409 5.306 70.7211 5.21979 70.5654 5.34465C70.8139 5.47249 71.0744 5.57655 71.1791 5.85898C71.2031 5.92736 71.236 6.00466 71.1762 6.09088C71.1253 5.97791 71.0624 5.88574 70.9606 5.82926C70.9367 5.81439 70.9157 5.79061 70.8858 5.79358C70.8259 5.79952 70.748 5.76385 70.7151 5.82331C70.6792 5.88872 70.766 5.9125 70.7989 5.95115C70.9696 6.13845 71.1372 6.32575 71.1971 6.57845C71.2121 6.64386 71.2181 6.70927 71.1881 6.79846C71.1312 6.7063 71.1193 6.6171 71.0534 6.56062C70.9995 6.51602 70.9486 6.48629 70.8798 6.53386C70.8019 6.58737 70.8738 6.62602 70.8917 6.66765C71.0055 6.93522 71.1372 7.19684 71.1732 7.49117C71.1881 7.61901 71.1732 7.7409 71.1402 7.86577C71.0804 7.82712 71.1193 7.78253 71.1193 7.74388C71.1193 7.7082 71.1432 7.65469 71.0774 7.65171C71.0235 7.65171 70.9666 7.66063 70.9666 7.73496C70.9666 7.77955 70.9726 7.82415 70.9666 7.86874C70.9606 7.91037 71.0145 7.99956 70.8977 7.97875C70.8828 7.97875 70.8648 8.01145 70.8648 8.03821C70.8648 8.07388 70.8528 8.1155 70.8648 8.14821C71.0085 8.46929 70.8139 8.74876 70.76 9.04903C70.6552 8.84092 70.8319 8.60308 70.6852 8.40091C70.6103 8.51983 70.5924 8.65362 70.5744 8.78741C70.5564 8.92119 70.5535 9.05498 70.5475 9.18876C70.5475 9.22741 70.5624 9.26309 70.4846 9.24228C70.4008 9.22147 70.4098 9.30471 70.4068 9.35822C70.4008 9.43255 70.4187 9.51877 70.3229 9.58418C70.3559 9.10552 70.2062 8.66551 70.1703 8.21064C70.1643 8.14821 70.1313 8.06496 70.2511 8.06496C70.29 8.06496 70.296 8.02631 70.305 7.99361C70.3349 7.8955 70.3289 7.79145 70.3289 7.69036C70.3289 7.62496 70.284 7.58631 70.2301 7.58631C70.1762 7.58631 70.1882 7.64577 70.1822 7.68144C70.1732 7.73793 70.1762 7.79442 70.1673 7.85091C70.1643 7.88361 70.1493 7.92226 70.1104 7.91631C70.0715 7.91037 70.0894 7.86874 70.0864 7.84496C70.0774 7.73496 70.0954 7.62793 70.0655 7.51793C70.0505 7.46144 70.0206 7.41387 69.9876 7.36928C69.9607 7.3336 69.9218 7.29198 69.8769 7.30684C69.829 7.32171 69.8559 7.3782 69.8559 7.41387C69.8589 7.52685 69.796 7.57739 69.6972 7.59523C69.5835 7.61306 69.5476 7.52685 69.5296 7.4436C69.5176 7.39009 69.5146 7.33657 69.4637 7.26225C69.4518 7.44658 69.4398 7.60117 69.4308 7.75874C69.4039 8.1928 69.3619 8.62686 69.356 9.05795C69.344 9.75066 69.2931 10.4404 69.332 11.1331C69.338 11.2699 69.347 11.4096 69.35 11.5464C69.3589 12.1737 69.3829 12.798 69.4248 13.4223C69.4488 13.7672 69.4518 14.1121 69.4727 14.4569C69.4877 14.6948 69.5625 14.9178 69.5984 15.1497C69.6224 15.3102 69.6254 15.4648 69.5715 15.6253C69.4607 15.9524 69.5266 16.2675 69.6972 16.5559C69.7811 16.7016 69.7871 16.8294 69.7332 16.981C69.6883 17.1 69.6374 17.2189 69.6104 17.3467C69.5895 17.4419 69.6104 17.5221 69.6463 17.6024C69.8559 18.0692 70.0595 18.5389 70.3589 18.9581C70.3888 18.9997 70.4127 19.0384 70.3289 19.0384C69.3949 19.0384 68.4608 19.0384 67.5088 19.0384C67.6136 18.8362 67.7333 18.6578 67.8411 18.4735C67.9938 18.2208 68.1585 17.974 68.2123 17.6738C68.2543 17.4419 68.2303 17.2159 68.1734 16.99C68.1375 16.8502 68.1345 16.7164 68.2094 16.5797C68.356 16.3121 68.3501 16.0178 68.3291 15.7235C68.3141 15.5124 68.2692 15.3043 68.2842 15.0932C68.2842 15.0575 68.2782 15.0129 68.2932 14.9861C68.4938 14.6413 68.4578 14.2607 68.4758 13.8861C68.5357 12.6612 68.5596 11.4393 68.5476 10.2145C68.5387 9.49498 68.5267 8.77254 68.4908 8.05604C68.4788 7.78847 68.5087 7.51793 68.4309 7.25036C68.368 7.29495 68.374 7.35739 68.389 7.41982C68.4129 7.5209 68.359 7.57442 68.2692 7.5982C68.2034 7.61604 68.0357 7.51496 68.0297 7.45549C68.0237 7.41685 68.0746 7.40198 68.0746 7.36036C68.0746 7.30387 68.0806 7.24738 68.0208 7.22657C67.9609 7.20279 67.9669 7.27117 67.9429 7.29792C67.7992 7.47928 67.7603 7.68739 67.8052 7.92523C67.6974 7.87469 67.7304 7.79145 67.7184 7.72009C67.7124 7.67252 67.7483 7.59523 67.6765 7.58928C67.5956 7.58333 67.5747 7.65766 67.5747 7.72901C67.5777 7.82118 67.5896 7.91631 67.5986 8.00848C67.5986 8.03821 67.6226 8.06794 67.6525 8.06496C67.7663 8.05902 67.7453 8.13037 67.7393 8.20172C67.7124 8.56443 67.5986 8.91525 67.5837 9.27795C67.5807 9.35228 67.5837 9.42363 67.5926 9.49796C67.5986 9.52471 67.6076 9.56336 67.5687 9.56931C67.5328 9.57526 67.5238 9.53661 67.5148 9.51282C67.5058 9.48309 67.5148 9.44742 67.5058 9.41769C67.4939 9.34633 67.5388 9.23336 67.3861 9.25417C67.3442 9.26012 67.3621 9.20363 67.3591 9.1739C67.3442 8.96876 67.3561 8.76065 67.2903 8.56146C67.2753 8.51092 67.2544 8.46335 67.2334 8.40686C67.0747 8.61497 67.2544 8.84984 67.1586 9.06687C67.0777 8.96876 67.0987 8.86173 67.0687 8.76659C67.0089 8.56146 66.946 8.35929 67.0448 8.14226C67.0657 8.09767 67.1077 7.96388 66.949 7.99064C66.9161 7.99658 66.919 7.95793 66.922 7.93415C66.928 7.89847 66.94 7.8628 66.943 7.82712C66.949 7.7528 66.955 7.66658 66.8562 7.65766C66.7454 7.64577 66.8233 7.7528 66.7813 7.78253C66.7005 7.46441 66.7574 6.959 67.0388 6.67656C67.0717 6.64386 67.1226 6.61116 67.0837 6.55467C67.0418 6.49818 66.9849 6.5071 66.928 6.53089C66.8741 6.55467 66.8322 6.58737 66.8113 6.64683C66.7873 6.71224 66.7574 6.77765 66.7185 6.87278C66.6706 6.54575 66.7933 6.31386 66.9789 6.10575C67.0418 6.03439 67.1077 5.96899 67.1705 5.90061C67.1855 5.88277 67.2184 5.86196 67.2035 5.84115C67.1915 5.82034 67.1586 5.80844 67.1316 5.80547C66.9999 5.78169 66.8442 5.87682 66.7604 6.03142C66.7484 6.05223 66.7394 6.07304 66.7275 6.09683C66.6466 5.85007 66.8352 5.57358 67.3262 5.36249C67.2364 5.27033 67.2334 5.27033 66.967 5.36249C67.0747 5.14249 67.2094 4.95221 67.3891 4.79762C67.4968 4.70545 67.4879 4.66383 67.3561 4.60734C67.3202 4.59248 67.2813 4.58356 67.2304 4.5687C67.3292 4.48842 67.2753 4.3695 67.3352 4.27437C67.3621 4.23274 67.2633 4.22085 67.2184 4.24166C67.1077 4.29221 67.0448 4.38734 66.9939 4.48842C66.943 4.58951 66.8951 4.69059 66.8981 4.81546C66.8203 4.77681 66.8622 4.69654 66.8023 4.66086C66.7125 4.70545 66.6736 4.79167 66.6676 4.89275C66.6616 4.99681 66.6676 5.10384 66.6676 5.21087C66.6676 5.23465 66.6736 5.26735 66.6436 5.2733C66.6107 5.27925 66.5897 5.25249 66.5838 5.22276C66.5748 5.17519 66.5718 5.12762 66.5628 5.07708C66.5598 5.0533 66.5628 5.02654 66.5299 5.01762C66.5029 5.01167 66.485 5.03249 66.47 5.05032C66.4341 5.08897 66.4221 5.13357 66.4221 5.18411C66.4221 5.27627 66.4281 5.37141 66.4251 5.46357C66.4251 5.51114 66.4341 5.56168 66.3772 5.60331C66.3472 5.54682 66.3922 5.48141 66.3532 5.43384C66.3383 5.41601 66.3353 5.3833 66.3023 5.39222C66.2784 5.39817 66.2754 5.41898 66.2694 5.43682C66.1976 5.63006 66.1916 5.83223 66.1886 6.03439C66.1886 6.10575 66.1976 6.18007 66.1437 6.26034C66.1287 6.15926 66.0748 6.09683 66.0239 6.03142C65.8503 6.27223 65.8473 6.41197 65.991 6.64981C66.1616 6.93224 66.1556 7.2236 66.0359 7.5209C65.982 7.50901 65.994 7.47333 65.994 7.4436C65.994 7.4109 66.003 7.3782 66.003 7.34549C66.003 7.29792 65.982 7.2563 65.9401 7.23252C65.8832 7.19684 65.8862 7.28306 65.8473 7.28306C65.8263 7.21765 65.7934 7.16117 65.7245 7.10171C65.5689 7.4882 65.5838 7.88361 65.5779 8.28794C65.4791 8.24037 65.494 8.16605 65.491 8.10064C65.491 8.06496 65.506 8.01442 65.4611 8.0055C65.4162 7.99361 65.3743 8.02929 65.3503 8.06794C65.2875 8.16902 65.3294 8.27307 65.3443 8.37416C65.3473 8.39794 65.3533 8.42173 65.3593 8.44254C65.3473 8.44254 65.3354 8.44254 65.3234 8.44254L65.3264 8.43362Z" fill="#FFFFFF"/>
<path id="Vector_61" d="M65.3264 8.43359C65.3264 8.43359 65.3504 8.43359 65.3623 8.43359C65.3923 8.47522 65.4072 8.52278 65.4192 8.59711C65.3593 8.53765 65.3324 8.49008 65.3264 8.43359Z" fill="#FFFFFF"/>
</g>
</g>
</g>
</g>
<defs>
<clipPath id="clip0_54_796">
<rect width="133" height="92" fill="white"/>
</clipPath>
</defs>
</svg>
