<?xml version="1.0" encoding="UTF-8"?>
<svg id="Layer_2" data-name="Layer 2" xmlns="http://www.w3.org/2000/svg" viewBox="0 0 222.53 144.89">
  <defs>
    <style>
      .cls-1 {
        fill: #f6f6f6;
      }
    </style>
  </defs>
  <g id="Layer_1-2" data-name="Layer 1">
    <g>
      <g>
        <path class="cls-1" d="M31.55,101.01c.36.63.72,1.26,1.11,1.94-.31.23-.56.42-.81.61-1.05.74-2.11,1.47-3.14,2.23-.87.64-1.05,1.16-.87,2.33.33,0,.67,0,1.02,0,3.53,0,7.06-.01,10.59,0,.7,0,1.42.05,2.1.2,2.19.48,3.58,1.99,3.93,4.21.09.57.11,1.15.16,1.72.02.22.04.44.06.64,1.34.53,4.16.38,5.31-.29v-4.79c.76-.18,1.49-.1,2.28-.07.03.27.07.51.08.75.01.99-.01,1.99.02,2.98.03,1.15.42,1.57,1.55,1.66.82.07,1.66.14,2.53-.3v-5.51c.82-.09,1.54-.08,2.34,0,.03.25.07.5.08.74,0,1.31,0,2.63,0,3.94,0,.91.12,1.05.98,1.26.56.14,1.12.28,1.69.37,1.08.17,1.39-.13,1.38-1.22-.01-1.86,0-3.72,0-5.58,0-.19.02-.38.04-.61.73-.21,1.46-.08,2.24-.09.03.22.09.43.09.65,0,1.96.02,3.91,0,5.87,0,.48-.07.96-.2,1.42-.45,1.63-1.82,2.57-3.49,2.35-.92-.12-1.83-.32-2.72-.58-.51-.15-.97-.47-1.5-.73-2.13,1.39-4.26,1.13-6.4-.31-.17.13-.37.27-.58.42-.64.47-1.37.71-2.15.73-.8.02-1.6,0-2.41.01-.79.01-1.4-.38-1.98-.93-.87.83-1.92.94-3.04.94-7.76-.02-15.53-.05-23.29.01-2.57.02-3.68-1.73-3.68-3.62,0-4.43,0-8.85,0-13.28,0-.12.03-.24.06-.43.75-.09,1.47-.04,2.27-.02.02.4.04.74.04,1.08,0,3.98,0,7.95,0,11.93,0,.44.06.88.08,1.21.44.44.87.38,1.28.39,1.86,0,3.72,0,5.58,0,5.87,0,11.74,0,17.62,0,.44,0,.9.1,1.35-.24.11-.76.12-1.56-.08-2.34-.28-1.15-1.05-1.82-2.2-2-.66-.1-1.34-.14-2.01-.14-4.01-.01-8.02,0-12.03,0h-1.1c-.04-.26-.09-.47-.1-.68,0-.83-.02-1.67,0-2.5.04-1.47.63-2.68,1.82-3.55,1.24-.91,2.52-1.77,3.79-2.64.07-.05.17-.07.33-.12Z"/>
        <path class="cls-1" d="M170.5,100.49v.95c0,4.2,0,8.4,0,12.6,0,.48-.01.97-.13,1.43-.36,1.44-1.48,2.39-2.96,2.46-1.18.05-2.37.04-3.56,0-1.03-.03-1.92-.46-2.71-1.15-.33.22-.63.46-.96.65-.59.34-1.24.51-1.93.52-.58,0-1.16-.02-1.73,0-1.17.06-2.15-.28-2.84-1.25-.09.02-.16,0-.2.04-.88.92-1.96,1.3-3.22,1.21-.26-.02-.51-.02-.77,0-1.19.08-2.23-.21-3-1.22-.31.23-.58.45-.88.64-.55.35-1.16.56-1.81.57-1.7.02-3.4,0-5.1,0-.09,0-.17-.05-.3-.09v-2.54c.26-.03.5-.08.74-.08,1.32,0,2.63,0,3.95-.01.38,0,.77-.04,1.14-.14.46-.12.67-.41.58-.85-.24-1.13-.49-2.25-.81-3.36-.19-.65-.73-.96-1.39-.99-.42-.02-.83,0-1.25,0-.51,0-1.02,0-1.54,0-.27-.45-.12-.91-.15-1.34-.03-.41,0-.83,0-1.29.26-.04.47-.11.68-.11.77,0,1.54-.01,2.31.02,1.56.06,2.66.84,3.33,2.23.18.37.32.77.42,1.17.33,1.4.63,2.8.97,4.35.26.26.76.28,1.23.31.67.04,1.35.05,2.02.02.96-.03,1.17-.26,1.17-1.23,0-4.14,0-8.27,0-12.41v-1.09h2.32c.02.37.04.71.04,1.06,0,4.01,0,8.02,0,12.03,0,1.26.15,1.46,1.41,1.53,1.02.06,2.05.01,3.07-.02.52-.02,1-.22,1.38-.65v-4.62c.75-.22,1.47-.09,2.26-.1.04.22.1.43.1.64.01,1.03,0,2.05,0,3.08.01,1.18.41,1.63,1.6,1.7,1.02.06,2.05.05,3.08.02.79-.03,1-.27,1.06-1.07.02-.26,0-.51,0-.77,0-3.91,0-7.83,0-11.74v-1.08h2.37Z"/>
        <path class="cls-1" d="M89.24,122.96c-.18-.83-.35-1.56-.52-2.35.46-.13.82-.24,1.19-.32,1.22-.28,2.44-.54,3.65-.82.19-.04.37-.09.55-.16.73-.25.83-.4.83-1.37-.34,0-.68-.01-1.03-.03-.67-.02-1.35.01-2.01-.09-2.08-.33-3.43-1.61-3.77-3.68-.15-.9-.15-1.87,0-2.77.39-2.42,2.17-3.83,4.81-3.73,2.73.1,4.45,1.88,4.5,4.62.04,1.99.02,3.97,0,5.96-.02,1.72-.81,2.85-2.48,3.37-1.28.4-2.61.65-3.91.96-.56.13-1.12.25-1.82.4ZM95.07,115.28c0-.89,0-1.68,0-2.47,0-.35-.03-.7-.09-1.05-.13-.73-.57-1.21-1.27-1.42-.62-.18-1.27-.19-1.89,0-.74.23-1.19.75-1.28,1.52-.06.54-.07,1.09-.02,1.62.1,1.03.76,1.7,1.81,1.78.85.06,1.72.01,2.74.01Z"/>
        <path class="cls-1" d="M214.33,122.97c-.19-.83-.35-1.54-.52-2.32.2-.08.36-.16.53-.2,1.4-.33,2.81-.64,4.22-.97.22-.05.44-.1.65-.17.73-.25.83-.4.84-1.37-.37,0-.75,0-1.13-.03-.73-.04-1.48,0-2.2-.15-1.9-.37-3.04-1.57-3.47-3.43-.25-1.07-.22-2.17,0-3.25.46-2.17,2.32-3.53,4.68-3.47,2.69.07,4.46,1.76,4.55,4.46.07,2.11.04,4.23.01,6.35-.02,1.47-.77,2.47-2.11,3.04-.21.09-.41.18-.63.23-1.77.42-3.55.83-5.44,1.27ZM220.08,115.28c0-1.14.06-2.16-.02-3.17-.09-1.21-.8-1.82-2.01-1.87-.25-.01-.51-.01-.76.02-.98.12-1.64.76-1.74,1.74-.05.5-.05,1.02,0,1.53.11.97.77,1.66,1.75,1.74.88.07,1.78.02,2.78.02Z"/>
        <path class="cls-1" d="M121.7,115.12v-7.54c.45,0,.83-.02,1.2-.02.35,0,.7,0,1.03,0,.18.75.24,8.79.08,10.29-.23.02-.47.07-.72.07-4.3,0-8.6.01-12.9,0-.6,0-1.22-.09-1.8-.24-2.07-.56-3.36-2.15-3.55-4.52-.11-1.34-.02-2.69-.02-4.07.74-.21,1.46-.09,2.24-.09.05.25.11.46.12.67.01.87,0,1.73.01,2.6.05,2,.79,2.77,2.8,2.89.48.03.96.02,1.44.02,2.98,0,5.97,0,8.95,0,.35,0,.69-.03,1.12-.05Z"/>
        <path class="cls-1" d="M134.44,107.59h2.32c.03.23.09.44.09.65,0,2.02.01,4.04,0,6.06,0,.48-.04.97-.15,1.43-.32,1.31-1.3,2.11-2.72,2.17-1.35.06-2.7.07-4.04,0-1.61-.08-2.75-1.23-2.98-2.89-.04-.28-.05-.58-.05-.86,0-4.23,0-8.47,0-12.7,0-.25,0-.5,0-.81.79-.15,1.5-.12,2.32-.03.01.36.03.7.03,1.04,0,4.01,0,8.02,0,12.03,0,.44-.08.91.25,1.28.88.3,4,.3,4.91-.04v-7.33Z"/>
        <path class="cls-1" d="M9.65,108.75h2.29c.03.27.07.51.07.76,0,2.72,0,5.45,0,8.17,0,.19,0,.38-.02.58-.15,2.23-1.44,3.67-3.65,3.87-1.4.13-2.82.16-4.22-.11-2.4-.47-3.98-2.21-4.12-4.64-.04-.79.03-1.6.12-2.39.12-1.04.31-2.08.48-3.18.63,0,1.21,0,1.78,0,.15,0,.31.05.5.08-.16,1.11-.33,2.18-.47,3.26-.07.57-.14,1.15-.13,1.72.03,1.32.66,2.14,1.93,2.39,1.39.28,2.81.28,4.21.08.77-.11,1.11-.5,1.19-1.28.04-.32.03-.64.03-.96,0-2.44,0-4.87,0-7.31,0-.31,0-.63,0-1.04Z"/>
        <path class="cls-1" d="M77.5,100.46h2.3c.02.36.05.67.05.98,0,4.2,0,8.4,0,12.6,0,.32-.01.64-.05.96-.22,1.69-1.36,2.85-3.07,2.89-2.79.07-5.58.01-8.37,0-.06,0-.12-.04-.24-.09-.14-.82-.1-1.66-.01-2.59.38-.02.72-.05,1.06-.05,2.12,0,4.23,0,6.35,0,.22,0,.45,0,.67,0,1.09-.03,1.27-.21,1.27-1.32,0-4.1,0-8.21,0-12.31,0-.34.02-.69.03-1.08Z"/>
        <path class="cls-1" d="M185.74,107.61c1.58,0,3.02-.06,4.45.02,1.74.1,2.95,1.03,3.49,2.69.38,1.15.69,2.33.66,3.57-.07,2.16-1.46,3.72-3.6,3.91-1.01.09-2.06.1-3.07-.04-2.18-.3-3.3-1.94-3.07-3.93.24-2.06.73-4.08,1.13-6.21ZM187.66,110.07c-.26,1.31-.52,2.49-.73,3.69-.18,1,.23,1.57,1.22,1.65.73.06,1.47.06,2.2,0,.96-.08,1.54-.7,1.47-1.67-.06-.91-.29-1.82-.51-2.72-.14-.58-.61-.91-1.2-.94-.79-.04-1.59-.01-2.45-.01Z"/>
        <path class="cls-1" d="M173.94,100.59h2.14c.17.76.22,15.6.08,17.2-.64.19-1.21.21-2.23.08-.17-.8-.17-16.45.02-17.28Z"/>
        <path class="cls-1" d="M85.64,117.9h-2.31v-17.19c.74-.23,1.44-.24,2.31-.03v17.21Z"/>
        <path class="cls-1" d="M204.75,117.92h-2.13c-.05-.06-.08-.08-.09-.1-.02-.02-.04-.05-.04-.08-.01-5.48-.02-10.96-.03-16.44,0-.16,0-.32.03-.48,0-.06.06-.11.11-.2.7-.13,1.41-.1,2.11-.02.16.82.19,16.19.04,17.33Z"/>
        <path class="cls-1" d="M197.42,108.33h2.28c.03.26.07.51.07.75,0,2.98.01,5.96,0,8.94,0,2.08-.89,3.36-2.81,4.14-.65.26-1.31.5-2.05.79-.3-.76-.59-1.48-.91-2.27.66-.26,1.25-.5,1.84-.73,1.29-.51,1.57-.9,1.58-2.3,0-2.72,0-5.44,0-8.17,0-.35,0-.69,0-1.15Z"/>
        <path class="cls-1" d="M208.96,108.34h2.28c.03.22.09.43.09.64,0,3.01,0,6.03,0,9.04,0,2.02-.92,3.41-2.81,4.15-.65.26-1.31.5-2.06.79-.3-.75-.6-1.48-.92-2.27.65-.26,1.24-.5,1.83-.73,1.3-.52,1.58-.9,1.58-2.3,0-2.72,0-5.45,0-8.17,0-.35,0-.7,0-1.15Z"/>
        <path class="cls-1" d="M74.34,114.05h-2.48c-.71-3.4-1.42-6.78-2.14-10.25.78-.19,1.51-.37,2.33-.58.81,3.65,1.53,7.21,2.29,10.83Z"/>
        <path class="cls-1" d="M73.72,119.1v1.2c-.41.21-.84.1-1.24.13-.86.05-.97.16-1.08,1.13.82.29,1.71-.05,2.58.22v1.21c-.77.17-3.64.18-4.54.01v-1.21c.2-.07.37-.14.61-.23.1-2.33,1.57-2.78,3.67-2.47Z"/>
        <path class="cls-1" d="M208.66,102.99h2.55v2.62c-.83.15-1.62.09-2.51.03-.09-.86-.02-1.71-.04-2.65Z"/>
        <path class="cls-1" d="M138.05,122.62c-.79.14-1.54.11-2.34.02-.1-.89-.1-1.73,0-2.62.79-.13,1.54-.11,2.34-.01.11.89.1,1.73,0,2.62Z"/>
        <path class="cls-1" d="M186.33,105.09v-2.59c.76-.2,1.51-.09,2.34-.07.15.86.07,1.7.05,2.6-.78.21-1.53.11-2.39.07Z"/>
        <path class="cls-1" d="M159.87,120.1h2.37c.27.4.1.85.13,1.28.03.41,0,.82,0,1.31-.85.14-1.66.11-2.51.02v-2.62Z"/>
        <path class="cls-1" d="M7.39,107.74v2.43c-.7.21-1.34.23-2.48.08-.1-.82-.05-1.66-.02-2.5.76-.21,1.68-.22,2.5-.02Z"/>
        <path class="cls-1" d="M117.83,108.65h-2.38v-2.56c.73-.23,1.48-.1,2.33-.08.11.87.03,1.72.05,2.64Z"/>
        <path class="cls-1" d="M191.91,105.1h-2.36c-.06-.88-.06-1.73,0-2.61.78-.17,1.53-.1,2.34-.05.12.87.09,1.71,0,2.66Z"/>
        <path class="cls-1" d="M132.54,122.65v-2.65h2.27c.23.85.11,1.69.08,2.58-.78.23-1.52.12-2.35.08Z"/>
        <path class="cls-1" d="M112.27,106.01h2.28c.15.87.09,1.71.04,2.6-.78.14-1.52.12-2.32.01v-2.61Z"/>
      </g>
      <g>
        <path class="cls-1" d="M8.06,133.83h2.52c.2,2.79.3,5.53.45,8.33-.29.04-.54.08-.78.09-.25.01-.5,0-.85,0-.31-1.99-.16-4.01-.59-6.01-.59,1.96-1.19,3.92-1.79,5.89-.53.2-1.07.08-1.67.09-.41-.99-.63-2.04-.97-3.05-.33-.97-.51-2-1.05-3.13-.11,2.18-.21,4.13-.32,6.13-.56.14-1.07.04-1.67-.01.08-2.82.27-5.56.43-8.33.78-.27,1.53-.02,2.36-.04.72,2,1.21,4.06,1.93,6.18.13-.23.24-.36.29-.52.49-1.61.98-3.21,1.47-4.82.07-.24.15-.48.26-.79Z"/>
        <path class="cls-1" d="M67.26,133.77h2.29c.1.25.22.47.29.71.49,1.61.98,3.22,1.47,4.83.06.2.15.39.31.79.66-2.18,1.26-4.17,1.86-6.14.69-.21,1.43-.23,2.45-.08.2.6.59,6.8.51,8.26-.5.23-1.02.14-1.63.11-.12-1.98-.24-3.93-.36-5.88-.85,1.89-1.33,3.87-2,5.84h-1.69c-.58-1.91-1.17-3.84-1.76-5.77-.44,1.89-.25,3.82-.54,5.74-.53.15-1.04.09-1.65-.06.14-2.77.28-5.51.43-8.33Z"/>
        <path class="cls-1" d="M216.18,144.45v-1.26c.43-.01.83-.03,1.23-.04.38,0,.76.02,1.14-.02.93-.08,1.14-.37,1.06-1.38-.06.01-.14,0-.18.03-.94.78-1.93.52-2.85.03-.84-.45-1.18-1.29-1.27-2.21-.07-.7.02-1.39.28-2.05.65-1.61,2.23-2.14,3.73-1.26.08.05.17.08.26.13.07-.15.13-.28.2-.44h1.55c.03.27.07.51.07.75,0,1.71,0,3.42,0,5.13,0,1.45-.64,2.22-2.07,2.51-1.03.21-2.07.1-3.16.08ZM219.69,139.19l.09-.03c-.13-.45-.18-.94-.4-1.33-.47-.83-1.66-.77-2.08.09-.36.75-.37,1.53.01,2.29.23.46.77.74,1.26.69.52-.06.99-.5,1.09-1.04.04-.22.02-.44.03-.66Z"/>
        <path class="cls-1" d="M180.83,138.59h-3.62v3.57c-.6.15-1.11.11-1.62.05-.16-.94-.15-7.53.02-8.32h1.56v3c.74.23,2.6.26,3.63.06v-3.04h1.58c.19.64.26,6.25.09,8.25-.5.19-1.02.09-1.63.06v-3.62Z"/>
        <path class="cls-1" d="M107.55,141.55v3.15c-.53.2-1.02.13-1.48.08-.05-.05-.08-.07-.1-.09-.02-.02-.05-.05-.05-.08-.02-2.63-.03-5.25-.05-7.88,0-.22,0-.43,0-.72h1.61c.04.09.09.23.15.37.06,0,.14,0,.18-.03,1.25-1.17,3.65-.37,4.09,1.86.18.92.07,1.83-.36,2.68-.71,1.4-2.2,1.79-3.53.94-.1-.06-.2-.13-.45-.3ZM107.49,138.79c.13.48.21.98.39,1.44.22.54.74.68,1.26.67.46-.01.72-.36.88-.76.21-.54.27-1.1.12-1.67-.23-.85-.82-1.3-1.56-1.19-.63.09-1.01.66-1.09,1.52Z"/>
        <path class="cls-1" d="M169.78,142.21c-.08-.17-.15-.3-.24-.49-.49.4-.99.63-1.59.61-1.2-.05-2.25-.87-2.55-2.07-.23-.94-.19-1.9.21-2.8.68-1.56,2.26-2.01,3.7-1.06.07.05.16.09.32.18.09-.58.04-1.1.05-1.63,0-.5,0-1,0-1.56h1.55c.04.16.12.34.12.51,0,2.6,0,5.21,0,7.81,0,.15-.04.3-.06.49h-1.5ZM169.67,139.23c-.06-.26-.13-.76-.3-1.23-.2-.54-.69-.71-1.23-.72-.52,0-.78.35-.95.79-.23.58-.23,1.18-.08,1.77.18.72.81,1.15,1.47,1.08.62-.06,1.08-.67,1.09-1.69Z"/>
        <path class="cls-1" d="M155.15,142.22c-.06-.2-.12-.37-.19-.61-.76.75-1.59.77-2.5.46-1.02-.34-1.55-1.09-1.75-2.07-.17-.82-.1-1.65.21-2.43.66-1.65,2.31-2.16,3.82-1.2.05.03.11.05.24.11.05-.14.09-.27.15-.46h1.58v6.15c-.52.16-1.04.08-1.56.05ZM155.14,139.24c-.13-.47-.2-.94-.39-1.37-.21-.49-.68-.63-1.19-.61-.47.01-.77.28-.95.68-.33.77-.36,1.55.04,2.29.48.88,1.68.89,2.16.02.16-.29.21-.65.31-1.01Z"/>
        <path class="cls-1" d="M117.23,136.48c.05-.16.1-.3.17-.48h1.49c.19.62.25,4.42.09,6.17-.51.16-1.03.07-1.56.05-.07-.17-.12-.32-.18-.46-.06.01-.13,0-.18.04-1.57.96-3.41.3-3.98-1.45-.35-1.08-.23-2.14.29-3.14.71-1.36,2.26-1.74,3.57-.9.08.05.16.1.29.17ZM117.39,139.27c-.11-.45-.17-.93-.34-1.36-.19-.5-.66-.64-1.16-.65-.51,0-.82.28-1.01.72-.21.5-.29,1.03-.18,1.57.19.92.78,1.45,1.53,1.34.74-.1,1.11-.65,1.16-1.63Z"/>
        <path class="cls-1" d="M45.48,144.89c-.31,0-.65,0-1,0-.18,0-.37-.03-.66-.06.32-.85.62-1.64.96-2.53-.92-2.03-1.88-4.13-2.87-6.31h1.81c.58,1.31,1.18,2.66,1.82,4.11.54-.66.66-1.41.97-2.08.31-.66.56-1.35.84-2.05h1.62c-.07.68-2.79,7.62-3.49,8.91Z"/>
        <path class="cls-1" d="M55.37,142.28c-1.77-.02-3.22-1.45-3.22-3.2,0-1.83,1.39-3.24,3.37-3.26,1.79-.02,3.25,1.53,3.22,3.31-.03,1.79-1.5,3.17-3.37,3.15ZM55.49,140.76c.87-.02,1.55-.78,1.54-1.72-.01-.93-.73-1.7-1.58-1.7-.87,0-1.63.85-1.59,1.79.04.94.75,1.65,1.63,1.63Z"/>
        <path class="cls-1" d="M186.89,142.28c-1.77-.02-3.22-1.47-3.21-3.22.01-1.79,1.38-3.25,3.39-3.24,1.8,0,3.26,1.55,3.21,3.33-.05,1.79-1.53,3.16-3.39,3.13ZM188.52,139.02c-.03-.92-.77-1.7-1.6-1.68-.9.02-1.6.84-1.56,1.81.04.95.75,1.65,1.64,1.61,1.09-.05,1.48-.93,1.52-1.73Z"/>
        <path class="cls-1" d="M78.1,136.03h1.54c.03.27.07.51.07.76,0,.95,0,1.9.01,2.85,0,.48.05,1.02.62,1.16.55.13,1.07-.05,1.44-.51.3-.36.39-.78.39-1.24,0-.76,0-1.52,0-2.28,0-.25.03-.49.04-.78h1.52c.17.85.17,5.41,0,6.21h-1.49c-.04-.26-.08-.5-.14-.83-.19.16-.3.26-.41.35-1.26,1.09-2.99.63-3.51-.94-.1-.3-.16-.62-.17-.93-.02-1.17-.01-2.35,0-3.52,0-.09.05-.17.09-.3Z"/>
        <path class="cls-1" d="M158.21,136h1.56c.04.26.07.47.1.72.1-.04.19-.06.26-.11.34-.21.65-.53,1.02-.64,1.28-.36,2.34.29,2.69,1.58.07.27.13.56.14.84.01,1.14,0,2.28,0,3.42,0,.09-.05.18-.09.32h-1.53c-.02-.27-.06-.52-.06-.76,0-.73,0-1.46,0-2.19,0-.22.02-.45-.01-.67-.06-.47-.09-.98-.64-1.17-.44-.15-1.23.15-1.49.62-.18.32-.28.71-.31,1.07-.05.76-.01,1.52-.01,2.28,0,.28,0,.56,0,.88h-1.57c-.18-.66-.21-4.95-.04-6.21Z"/>
        <path class="cls-1" d="M91.19,142.14h-1.63c-.03-.24-.07-.45-.08-.66,0-.79,0-1.59,0-2.38,0-.22,0-.45,0-.67-.08-1.08-.77-1.45-1.71-.89-.53.32-.77.83-.78,1.44,0,.7,0,1.4,0,2.09,0,.35,0,.69,0,1.07-.57.18-1.08.11-1.65.06v-6.18h1.59c.04.23.08.47.14.8.21-.2.34-.33.48-.45,1.14-.95,2.83-.55,3.41.81.09.2.17.42.18.64.12,1.42.05,2.84.05,4.31Z"/>
        <path class="cls-1" d="M209.87,142.21h-1.53c-.16-.75-.18-5.15-.03-6.2h1.55c.04.21.09.44.15.76.21-.18.34-.31.48-.42,1.32-.99,3.04-.38,3.44,1.22.07.28.12.56.13.85.01,1.2,0,2.41,0,3.63-.53.27-1.05.16-1.62.1-.03-.29-.06-.53-.07-.78,0-.73,0-1.46,0-2.19,0-.25,0-.51-.03-.76-.07-.44-.11-.95-.64-1.06-.52-.11-1.01.07-1.38.47-.29.32-.4.71-.4,1.14,0,.79,0,1.59,0,2.38,0,.28-.03.55-.05.87Z"/>
        <path class="cls-1" d="M140.89,139.46c-1.46.23-2.92.04-4.37.15.07.88.35,1.16,1.15,1.37.72.19,1.3-.09,1.91-.5.3.24.6.46.97.75-.26.22-.45.42-.68.57-.92.57-1.93.64-2.94.36-1.61-.44-2.47-2.13-2.04-3.88.48-1.95,2.43-2.98,4.3-2.25.68.26,1.18.74,1.45,1.43.24.63.35,1.28.24,2.01ZM139.21,138.61c-.06-1.07-.4-1.49-1.22-1.51-.85-.03-1.32.44-1.48,1.51h2.7Z"/>
        <path class="cls-1" d="M195.56,135.99h1.66v6.13c-.5.21-1,.1-1.54.1-.08-.24-.15-.47-.21-.66-.46.24-.88.57-1.34.67-1.39.31-2.5-.54-2.65-2-.08-.78-.04-1.58-.05-2.37,0-.59,0-1.19,0-1.83h1.63c.02.32.05.59.05.87,0,.79,0,1.58,0,2.38,0,.31.02.64.1.94.13.49.42.66.92.61.85-.1,1.36-.62,1.41-1.52.04-.7.01-1.39.01-2.09,0-.38,0-.76,0-1.23Z"/>
        <path class="cls-1" d="M21.66,142.19c-.44,0-.72,0-1,0-.18,0-.37-.04-.59-.06-.03-.28-.06-.53-.07-.77,0-.73,0-1.46,0-2.19,0-.25,0-.51-.04-.76-.07-.43-.1-.95-.63-1.06-.56-.12-1.07.08-1.44.53-.3.36-.38.8-.39,1.25-.02.7,0,1.39-.01,2.09,0,.31-.03.62-.04.98h-1.52c-.18-.75-.21-5.15-.04-6.19h1.52c.05.23.1.46.16.69.08,0,.16.01.2-.01.33-.23.62-.57.99-.7,1.29-.45,2.52.28,2.83,1.62.06.25.1.5.1.75.01,1.23,0,2.46,0,3.83Z"/>
        <path class="cls-1" d="M101.49,138.27h-1.55c-.11-.16-.22-.36-.36-.52-.66-.7-1.71-.53-2.11.34-.26.55-.23,1.12-.1,1.67.12.51.41.93,1,1.01.59.09,1.07-.05,1.37-.6.06-.11.14-.2.21-.31.52-.03,1.01-.1,1.55.07,0,.98-.63,1.53-1.33,1.96-2.05,1.25-4.52-.1-4.6-2.5-.02-.5.06-1.01.15-1.5.14-.73.6-1.25,1.24-1.6,1.01-.55,2.07-.59,3.1-.1.81.38,1.35,1.02,1.44,2.08Z"/>
        <path class="cls-1" d="M26.15,140.21h1.21c.58.81,1.23,1.04,2.02.69.25-.11.43-.27.43-.57,0-.3-.19-.47-.45-.54-.34-.09-.68-.13-1.02-.21-.4-.09-.82-.14-1.19-.3-.91-.39-1.23-1.35-.73-2.21.15-.27.38-.52.63-.69.98-.67,2.04-.67,3.07-.16.59.29.93.82.98,1.56h-1.25c-.29-.45-.73-.77-1.38-.66-.39.07-.74.2-.81.66.07.42.41.46.72.53.53.12,1.06.19,1.58.32.5.13.94.35,1.18.87.4.88.18,1.81-.69,2.31-1.08.63-2.24.67-3.36.06-.64-.35-.85-.79-.94-1.68Z"/>
        <path class="cls-1" d="M198.47,140.19h1.26c.2.35.43.77.93.79.34.02.69,0,1.02-.08.3-.06.51-.27.48-.61-.02-.3-.23-.45-.49-.51-.34-.08-.69-.11-1.03-.2-.43-.11-.87-.19-1.27-.37-.71-.32-1.04-1.11-.74-1.83.14-.34.37-.68.65-.91.82-.71,2.3-.79,3.23-.22.53.33.87.81.96,1.55-.41.02-.78.04-1.19.06-.39-.53-.9-.88-1.61-.69-.35.1-.66.25-.65.73.23.45.72.42,1.13.53.43.11.88.14,1.3.26,1.43.41,1.53,2.16.6,2.97-.78.69-2.92.9-3.84.1-.45-.39-.75-.85-.75-1.57Z"/>
        <path class="cls-1" d="M146.71,137.81h-1.18c-.35-.37-.73-.8-1.39-.68-.4.07-.73.21-.87.64.08.49.51.51.86.6.49.12,1,.17,1.49.29.54.14.98.41,1.2.98.34.92,0,1.86-.93,2.31-.95.46-1.96.51-2.94.07-.75-.33-1.17-.93-1.22-1.81h1.28c.25.56.7.88,1.33.83.46-.04.98-.07,1.13-.67-.03-.33-.25-.51-.54-.58-.31-.08-.62-.12-.93-.18-.4-.09-.82-.13-1.19-.28-.84-.34-1.19-1.19-.87-2.04.33-.88,1.44-1.47,2.59-1.38,1.28.09,1.93.65,2.18,1.92Z"/>
        <path class="cls-1" d="M129.32,140.71c.54.04.91.06,1.3.09.26.42.12.86.13,1.34-.6.2-1.19.17-1.76.02-.88-.23-1.31-.78-1.35-1.72-.03-.7,0-1.39-.01-2.09,0-.31,0-.62,0-.99-.34-.04-.61-.07-.94-.11v-1.13c.28-.05.55-.11.91-.17v-1.97c.59-.23,1.11-.1,1.71-.11v2.08c.48.05.88.08,1.3.12.27.34.14.72.14,1.17-.45.03-.87.07-1.33.1-.18.57-.07,1.14-.09,1.7-.02.53,0,1.06,0,1.67Z"/>
        <path class="cls-1" d="M61.85,137.35v4.85h-1.66c-.1-1.59,0-3.19-.06-4.84-.32-.04-.58-.07-.9-.11v-1.1c.27-.07.57-.14.85-.21.28-1.86,1.26-2.53,3.18-2.23.02.2.05.41.05.62,0,.18-.02.37-.04.58-.4.05-.76.09-1.19.14-.09.28-.17.54-.28.9.52.05.94.09,1.41.13.19.36.11.73.08,1.17-.44.03-.88.06-1.44.1Z"/>
        <path class="cls-1" d="M36.15,137.27c-.44.02-.82.04-1.19.06-.23.68-.24,2.53-.03,3.38.39.04.79.07,1.24.12v1.39c-.54,0-1.04.06-1.53-.01-.9-.14-1.4-.67-1.52-1.58-.06-.47-.04-.95-.05-1.42,0-.6,0-1.19,0-1.84-.34-.04-.62-.07-.95-.11v-1.13c.29-.05.56-.11.93-.18v-2.02h1.62c.29.61-.05,1.34.22,2.05.38.04.78.07,1.25.12v1.18Z"/>
        <path class="cls-1" d="M37.46,135.98h1.52c.05.28.1.54.18.91.64-.62,1.26-1.1,2.19-1.04v1.54c-.29.04-.56.07-.83.12-.96.19-1.42.73-1.44,1.7-.02.7,0,1.39,0,2.09,0,.28-.02.56-.04.89h-1.51c-.16-.69-.2-4.93-.04-6.21Z"/>
        <path class="cls-1" d="M120.49,133.39h1.63c.06,2.45,0,4.84.04,7.21.24.1.41.17.56.23v1.32c-1.54.07-2.19-.46-2.27-1.91-.06-1.07-.02-2.15-.03-3.23,0-.89,0-1.77,0-2.66,0-.31.03-.61.05-.97Z"/>
        <path class="cls-1" d="M14.21,142.23h-1.46c-.21-.63-.25-5.07-.05-6.23h1.47c.17.69.21,4.94.05,6.23Z"/>
        <path class="cls-1" d="M23.25,135.98h1.44c.18.67.24,4.65.08,6.19-.48.14-.97.07-1.46.05-.2-.66-.25-4.82-.07-6.24Z"/>
        <path class="cls-1" d="M94.33,142.2h-1.63c0-2.09,0-4.12,0-6.2h1.58c.17.69.21,4.93.05,6.2Z"/>
        <path class="cls-1" d="M104.27,142.23h-1.46c-.18-.69-.22-5.04-.05-6.21h1.46c.16.67.21,4.88.05,6.21Z"/>
        <path class="cls-1" d="M125.52,142.23h-1.45c-.2-.68-.25-4.87-.07-6.2.48-.13.98-.08,1.47-.04.2.66.25,4.91.06,6.24Z"/>
        <path class="cls-1" d="M133.61,142.2h-1.58v-6.2h1.52c.17.68.21,4.88.06,6.2Z"/>
        <path class="cls-1" d="M206.58,142.22h-1.45c-.17-.72-.21-5.06-.04-6.21h1.47c.17.68.2,5.07.03,6.21Z"/>
        <path class="cls-1" d="M93.54,134.89c-.56,0-.95-.32-.97-.81-.02-.5.35-.85.9-.86.57,0,.94.31.95.81.02.52-.33.86-.89.86Z"/>
        <path class="cls-1" d="M205.86,133.22c.56.02.9.36.88.88-.02.51-.39.81-.96.79-.55-.02-.92-.38-.9-.87.02-.48.43-.81.98-.79Z"/>
        <path class="cls-1" d="M132.84,134.9c-.54.02-.96-.31-1-.78-.04-.48.34-.87.88-.89.57-.02.95.28.98.78.04.52-.31.87-.86.89Z"/>
        <path class="cls-1" d="M13.44,134.89c-.55,0-.94-.34-.94-.83,0-.49.38-.84.92-.84.57,0,.93.32.93.83,0,.52-.35.84-.91.84Z"/>
        <path class="cls-1" d="M23.96,134.9c-.57-.01-.92-.35-.9-.88.02-.52.4-.83.97-.79.53.03.85.34.86.82,0,.52-.37.86-.93.85Z"/>
        <path class="cls-1" d="M103.44,133.22c.57-.01.95.31.97.82.01.52-.35.87-.92.86-.57,0-.92-.34-.91-.87,0-.49.33-.79.86-.81Z"/>
        <path class="cls-1" d="M124.66,133.22c.55-.01.96.31.99.79.04.49-.34.87-.88.88-.56.02-.95-.3-.99-.78-.03-.5.33-.87.88-.89Z"/>
      </g>
      <g>
        <path class="cls-1" d="M129.38,12.9c-2.14-2.02-7.92-4.47-10.55-4.01,5.82,3.21,9.16,7.98,9.61,14.66-.12-.17-.27-.33-.37-.51-1.48-2.61-3.34-4.91-5.57-6.92-.89-.8-1.82-1.56-2.87-2.14-.4-.22-.83-.4-1.34-.64,0,.38.21.56.35.75,1.27,1.8,2.33,3.7,3.04,5.78.91,2.66,1.21,5.39,1.03,8.19-.03.43-.07.87-.21,1.33-.24-.74-.46-1.5-.73-2.23-.28-.77-.59-1.52-.91-2.27-.33-.75-.69-1.48-1.06-2.2-.36-.7-.74-1.39-1.14-2.07-.41-.7-.84-1.4-1.29-2.08-.44-.67-.9-1.34-1.54-1.89.95,4.94.96,9.86.09,14.78-.01.07-.08.14-.2.31-.54-4.67-1.08-9.24-2.98-13.49l-.21.02c-.19,1.48-.37,2.96-.56,4.46.16.09.3.17.52.3-.09,2.11-.19,4.26-.29,6.42.15.09.27.16.46.27-.13,2.23-.25,4.5-.38,6.81.18.09.34.19.6.32-.12,2.34-.44,4.7-.58,6.99.63.59,1.2,1.11,1.76,1.66.06.06.02.21.02.32-.69.15-5.11.17-5.94.03q.06-.61,1.82-1.94c-.2-2.26-.4-4.57-.6-6.91.19-.11.36-.21.6-.35-.17-2.2-.35-4.43-.53-6.69.15-.1.28-.19.48-.33-.04-1.06-.09-2.16-.14-3.26-.04-.93-.09-1.86-.12-2.8-.02-.42,0-.42.34-.85-.2-1.41-.41-2.85-.61-4.28-.97,2.06-1.51,4.21-1.92,6.39-.41,2.16-.69,4.36-1.04,6.59-.08-.19-.18-.36-.24-.54-.52-1.47-.72-3-.82-4.55-.19-2.87.06-5.71.73-8.5.05-.2.13-.38.2-.57-.02-.01-.04-.02-.06-.03.02.01.04.03.06.04-.13.02-.3-.01-.38.06-.33.33-.64.68-.93,1.05-2.45,3.08-4.17,6.52-5.08,10.35-.05.19-.11.37-.31.57-.08-.43-.18-.86-.24-1.29-.07-.46-.13-.93-.14-1.39-.06-1.8.25-3.54.78-5.25.71-2.33,1.78-4.49,3.05-6.56.17-.27.33-.54.57-.95-.31.11-.49.16-.66.24-1.74.92-3.27,2.13-4.64,3.54-1.59,1.64-2.92,3.48-4.15,5.4-.18.29-.37.57-.62.83.32-2.42,1-4.72,2.08-6.89.98-1.98,2.27-3.73,3.94-5.19.95-.83,1.98-1.53,3.11-2.1.25-.13.51-.26.9-.46-.72-.19-1.31-.2-1.9-.15-2.96.22-5.61,1.23-7.93,3.11-.11.09-.23.17-.35.26-.02.02-.06.02-.11.03-.07-.06-.16-.14-.29-.26.86-1.19,1.72-2.35,2.72-3.41,2.19-2.32,4.88-3.63,8.03-4.05.78-.1,1.55-.17,2.42-.26-.42-.87-1.26-1.08-1.99-1.45,1.17-1.03,2.92-.99,5.2.13.09-.27.16-.54.26-.79.27-.64.5-1.31.86-1.9.42-.69.87-.66,1.2.06.32.68.53,1.41.79,2.12.06.16.11.32.19.55,1.76-1.2,3.6-1.07,5.56-.47-.16.13-.27.23-.39.3-.49.3-1,.59-1.49.9-.11.07-.18.2-.3.35.15.04.23.08.3.08,2.79-.08,5.26.86,7.53,2.41,2.2,1.5,3.93,3.47,5.41,5.66.08.12.06.31.08.47v-.02Z"/>
        <path class="cls-1" d="M77.64,24.74c-.46-.02-.8-.04-1.23-.07-.33-.52-.68-1.08-1.04-1.65h-1.37v1.45c-.27.06-.49.11-.79.18-.01.28-.04.59-.04.9,0,2.65,0,5.31,0,7.96,0,.31,0,.63,0,.97-.89.16-1.7.07-2.51.08-.82.02-1.63,0-2.45,0s-1.63,0-2.43,0c-1.81,13.09,2.72,30.87,18.66,42.47,15.08,10.98,35.17,11.78,51.08,2.07,7.93-4.84,13.88-11.5,17.83-19.9,2.84-6.04,4.25-12.42,4.29-19.13-.85-.18-1.64-.07-2.41-.09-.75-.02-1.51,0-2.26,0-.23-.34-.15-.66-.15-.97,0-2.01,0-4.02,0-6.04,0-.32,0-.63,0-1.01-.94-.16-1.84,0-2.82-.12-.11-1.35.02-2.7-.07-4.14h-3.14v-1.6c-.67-.21-3.04-.24-3.98-.06-.02.36-.04.73-.06,1.09-.03.06-.04.13-.08.16-.62.51-.73,1.17-.71,1.95.05,1.75.01,3.5.01,5.25,0,.32,0,.64,0,.93-.69.17-2.88.2-4.06.06-.09-1.81,0-3.63-.06-5.49-.3-.34-.6-.69-.97-1.1h-2.11v-1.76c-.69-.2-1.54-.21-2.48-.05-.03,3.99,0,8-.02,12-.68.17-2.99.2-4.02.04-.1-1.42.01-2.87-.06-4.3-.66-.19-2.71-.21-3.64-.03v4.29c-.73.16-8.14.21-9.61.08-.24-.37-.1-.77-.11-1.26.26-.02.51-.06.76-.06,2.19,0,4.38,0,6.56,0h.95c.08-1.53-.02-3,.05-4.51h6.32c.09,1.49-.02,2.97.07,4.47h1.2c.22-.29.12-.62.12-.93,0-3.41,0-6.82,0-10.23,0-.31,0-.63,0-.93.76-.15,4.32-.17,5.27-.03v1.77c.53.03.99.05,1.52.08.54.61,1.12,1.26,1.74,1.95v4.65h1.24c.01-2.21,0-4.39,0-6.53q.75-1.01.78-2.32c0-.15,0-.29.03-.44,0-.05.04-.1.11-.25,2.13-.05,4.3-.02,6.49-.01.28.55.03,1.13.22,1.74.99.02,1.99.03,3.06.05.12,1.39-.02,2.72.09,4.11.88.16,1.76-.01,2.68.12.1.88.04,1.75.05,2.61.01.9,0,1.81,0,2.71s0,1.74,0,2.64c.81.19,1.57.08,2.32.1.76.02,1.51,0,2.34,0,.03.27.07.49.07.71.02,12.84-4.35,23.96-13.19,33.27-6.45,6.78-14.31,11.21-23.43,13.38-3.3.79-6.65,1.23-10.05,1.23-13.28,0-24.76-4.53-34.24-13.87-6.96-6.86-11.33-15.17-13.2-24.77-.77-3.94-1-7.92-.65-11.92.06-.73.06-1.46.11-2.18.02-.4.08-.8.13-1.28,1.27,0,2.49-.01,3.71-.01,1.19,0,2.38,0,3.6,0,.16-.88.06-1.69.08-2.5.02-.82,0-1.63,0-2.45v-4.91c.3-.09.54-.16.8-.23.02-.46.04-.89.06-1.31.64-.19,2.38-.23,3.55-.08.31.5.64,1.04,1,1.62h1.83c.09,1.09.03,2.14.04,3.17.01,1.05,0,2.1,0,3.15v6.26c.48.04.91.08,1.41.12.02.56.04,1.1.06,1.66.15.03.26.05.35.07.05-.06.12-.11.12-.15.02-.29.04-.58.04-.87,0-2.68,0-5.36,0-8.05v-1.03c1.98-.11,3.89-.03,5.84-.05.24.82,0,1.65.17,2.53.58.04,1.18.07,1.86.11.07,1.59,0,3.15.04,4.7.62.22,2.3.25,3.3.06v-4.46c.69-.21,3.02-.27,4.61-.12.42.54.91,1.11,1.33,1.73.15.22.18.54.19.82.02,1.28,0,2.57,0,3.85,0,.29,0,.57,0,.92,1.09.09,2.1.03,3.11.04.99,0,1.98,0,2.98,0h3.08v1.25c-.69.14-9.44.17-10.5.04-.02-.24-.06-.49-.06-.74,0-1.46-.05-2.92.01-4.37.04-.92-.2-1.65-.96-2.27h-2.28c-.09,2.08.01,4.13-.06,6.23-.6.22-1.17.1-1.83.08-.02-.49-.05-.97-.08-1.54-1.35-.12-2.68,0-4.03-.07-.24-.51-.09-1.04-.12-1.55-.03-.55,0-1.11,0-1.66v-1.65c-.66-.02-1.26-.04-1.92-.06v-2.51c-.57-.19-1.09-.08-1.6-.1-.49-.02-.99,0-1.47,0-.25.32-.15.65-.16.96,0,2.71,0,5.42,0,8.13,0,.32,0,.64,0,.94-.7.19-2.46.2-3.28.03-.03-.5-.05-1.02-.08-1.6-.45-.03-.88-.05-1.35-.08-.17-.69-.06-1.39-.08-2.08-.02-.7,0-1.4,0-2.1v-8.39Z"/>
        <path class="cls-1" d="M111.24,54.7c1.47-1.06,2.85-2.14,4.31-3.1,5.18-3.42,10.85-5.58,16.97-6.61,3.18-.53,6.37-.71,9.58-.65,1.57.03,3.15.08,4.72.12.41.01.78.07,1.13.37.24.21.63.27.97.34.97.2,1.95.36,2.92.54.1.02.2.06.29.22-.43.02-.85.07-1.28.07-2.63.02-5.25.12-7.86.41-7.55.83-14.77,2.71-21.42,6.51-2.39,1.36-4.61,2.96-6.66,4.8-.13.12-.29.19-.53.35,2.28,2.14,4.46,4.14,6.72,6.23.22-.61.41-1.11.58-1.62.61-1.88,1.98-2.82,3.87-3.06,1.72-.21,3.34,1.19,3.48,2.95.13,1.57-1.18,3.03-2.86,3.16-.82.07-1.62.01-2.35-.49-.25.31-.26.59-.05.84.28.33.54.7.89.95.59.42,1.24.75,1.88,1.13.28-.21.51-.39.74-.55,1.56-1.05,3.8-.51,4.7,1.14.8,1.46.1,3.39-1.46,4.01-1.54.61-3.08.5-4.62-.01-1.31-.44-2.49-1.13-3.63-1.9-.38-.26-.76-.53-1.2-.84-.22.24-.43.48-.65.7-1.17,1.18-2.5,2.1-4.17,2.4-.76.14-1.5.05-2.26-.08-.95-.17-2.29-1.96-2.26-3.07.03-1.55,1.21-3.03,2.74-3.31.91-.17,1.74.09,2.5.55.58.35.83.94.94,1.71.22-.18.38-.31.59-.49-.32-.47-.57-.94-.91-1.33-.7-.78-1.4-1.57-2.19-2.25-1.34-1.17-2.75-2.25-4.13-3.37-.04-.03-.1-.05-.21-.1-2.48,2.24-5.41,4.03-7.27,6.95.09.37.35.47.64.55.28-.15.26-.43.33-.67.17-.61.53-1.03,1.15-1.2.31-.09.61-.21.92-.26,2.49-.44,3.83,1.77,3.75,3.35-.05,1.04-.56,1.84-1.42,2.38-1.2.75-2.5.9-3.86.47-1.4-.45-2.56-1.24-3.53-2.33-.15-.17-.3-.35-.48-.57-.2.14-.39.26-.57.4-1.01.8-2.06,1.52-3.22,2.1-1.22.6-2.52.9-3.87,1-1.44.1-2.72-.72-3.17-1.99-.46-1.31.03-2.99,1.16-3.76.94-.64,1.97-.69,3-.24.45.2.86.48,1.4.79.99-.36,1.97-.88,2.68-1.82.27-.36.35-.73-.02-1.15-.17.05-.36.11-.54.16-.42.13-.83.26-1.25.38-1.06.3-1.9-.09-2.57-.88-1.23-1.42-1.31-3.28.17-4.6.95-.85,2.08-1,3.26-.53,1.52.61,2.58,1.65,2.99,3.29.09.36.24.7.41,1.17,2.26-2.09,4.43-4.1,6.64-6.15-.29-.28-.52-.5-.75-.71-3.87-3.42-8.29-5.92-13.11-7.72-3.94-1.48-8.02-2.43-12.19-3.02-3.65-.51-7.31-.7-10.99-.71-.23,0-.46,0-.76,0,.6-.37,2.25-.7,6.05-1.25,2.08-.3,4.18-.35,6.28-.35,2.07,0,4.14.17,6.19.47,2.08.3,4.13.74,6.15,1.29,2,.55,3.94,1.23,5.83,2.09,1.91.87,3.76,1.86,5.53,2.99,1.74,1.11,3.45,2.28,5.18,3.42ZM143.07,45.63c-1.09-.39-3.69-.43-8.13.11-8.79,1.08-16.58,4.5-23.23,10.27-1.88-1.28-3.67-2.55-5.51-3.72-3.13-2-6.44-3.65-10-4.73-3.21-.98-6.49-1.66-9.84-1.98-1.92-.18-3.84-.27-5.77-.17-.27.01-.57-.04-.88.21,1.1.15,2.11.29,3.11.44,4.25.62,8.4,1.66,12.41,3.21,5.11,1.98,9.74,4.73,13.73,8.52.16.16.31.33.51.54-2.74,2.54-5.44,5.05-8.18,7.56-.5-.48-.7-1.03-.89-1.57-.1-.27-.17-.56-.24-.84-.31-1.27-1.16-2.05-2.33-2.53-1.08-.45-2.19-.18-2.81.7-.63.89-.52,2.03.27,2.89.45.49.99.71,1.65.52.45-.13.89-.28,1.33-.42.92-.29,1.61.14,1.78,1.09.11.6-.11,1.09-.48,1.53-.98,1.19-2.33,1.78-3.8,2.34-.19-.23-.33-.46-.53-.62-.29-.24-.6-.47-.93-.64-.84-.43-2.26-.14-2.8,1.05-.52,1.14-.13,2.37.94,2.93.51.27,1.06.29,1.62.26,1.15-.05,2.24-.37,3.28-.86,1.36-.63,2.57-1.49,3.74-2.42.2-.16.41-.31.64-.49.19.27.36.51.53.74.93,1.3,2.15,2.2,3.69,2.65.95.28,1.86.16,2.71-.3.7-.38,1.19-.95,1.2-1.8,0-.92-.41-1.64-1.18-2.11-.68-.41-1.4-.25-2.11-.03-.58.18-.73.62-.79,1.13,0,.03-.02.06-.02.08-.28.87-.87,1.14-1.69.71-.3-.16-.57-.41-.78-.67-.28-.34-.3-.75-.04-1.14.19-.29.4-.58.61-.85,1.16-1.51,2.59-2.76,4.08-3.94,1-.8,1.97-1.64,2.96-2.46.15-.13.31-.26.49-.4.15.12.29.22.42.33.76.63,1.53,1.26,2.29,1.89,1.01.84,2.03,1.66,3.01,2.54.9.8,1.65,1.73,2.25,2.78.45.78.41,1.08-.29,1.64-.27.22-.58.4-.9.52-.58.2-.97-.05-1.08-.65-.03-.14-.02-.29-.02-.44,0-.33-.18-.54-.42-.72-1.21-.91-2.91-.49-3.53.9-.33.72-.28,1.45.2,2.07.71.92,1.69,1.37,2.85,1.15.65-.12,1.29-.37,1.88-.67,1.03-.53,1.85-1.31,2.53-2.24.15-.2.31-.39.49-.61.28.22.5.41.74.57.79.55,1.56,1.13,2.38,1.63,1.82,1.13,3.79,1.64,5.96,1.33.23-.17.5-.34.74-.54.81-.71.95-1.78.34-2.68-.76-1.14-2.54-1.29-3.53-.29-.2.2-.38.42-.56.63-.98-.3-1.87-.68-2.63-1.28-.48-.37-.91-.82-1.27-1.31-.45-.61-.36-1.53.12-2.12.32-.4.59-.47,1.07-.27.27.11.53.25.8.35.59.21,1.19.26,1.8.03.96-.36,1.57-1.39,1.39-2.37-.19-1.05-1.1-1.83-2.13-1.84-1.43,0-2.68.81-3.22,2.14-.22.54-.36,1.11-.56,1.65-.18.48-.35.98-.77,1.31-1.38-1.08-7.75-7.05-8.16-7.66.17-.14.35-.28.52-.44,1.87-1.76,3.9-3.33,6.09-4.69,6.09-3.79,12.77-5.88,19.81-6.98,1.02-.16,2.05-.29,3.14-.44Z"/>
        <path class="cls-1" d="M129.37,12.92s.08-.05.12-.08c-.04.02-.07.04-.11.06,0,0-.01.02-.01.02Z"/>
      </g>
    </g>
  </g>
</svg>