<?xml version="1.0" encoding="UTF-8"?>
<svg id="Layer_2" data-name="Layer 2" xmlns="http://www.w3.org/2000/svg" viewBox="0 0 325.12 88.95">
  <defs>
    <style>
      .cls-1 {
        fill: #f6f6f6;
      }
    </style>
  </defs>
  <g id="Layer_1-2" data-name="Layer 1">
    <g>
      <g>
        <path class="cls-1" d="M29.23,36.08c.34.58.67,1.17,1.03,1.79-.29.21-.51.39-.75.56-.97.69-1.95,1.36-2.91,2.06-.81.6-.98,1.07-.8,2.16.3,0,.62,0,.94,0,3.27,0,6.54,0,9.81,0,.65,0,1.31.05,1.94.19,2.03.45,3.32,1.84,3.64,3.9.08.53.1,1.06.14,1.6.02.2.04.41.05.59,1.24.49,3.86.35,4.92-.27v-4.44c.71-.17,1.38-.09,2.11-.06.03.25.07.47.07.7,0,.92-.01,1.84.01,2.76.03,1.06.39,1.45,1.43,1.54.76.06,1.54.13,2.34-.27v-5.11c.76-.08,1.43-.07,2.17,0,.02.23.07.46.07.69,0,1.22,0,2.44,0,3.65,0,.84.11.97.91,1.17.52.13,1.04.26,1.56.35,1,.16,1.29-.12,1.28-1.13,0-1.72,0-3.45,0-5.17,0-.18.02-.35.03-.56.68-.19,1.35-.08,2.08-.08.03.21.09.4.09.6,0,1.81.02,3.63,0,5.44,0,.44-.06.89-.18,1.32-.42,1.51-1.68,2.38-3.23,2.18-.85-.11-1.7-.3-2.52-.53-.47-.13-.9-.43-1.39-.68-1.97,1.29-3.94,1.05-5.93-.29-.16.12-.35.25-.53.39-.59.44-1.27.66-1.99.68-.74.02-1.49,0-2.23,0-.73.01-1.3-.35-1.83-.86-.81.77-1.78.87-2.82.87-7.19-.02-14.39-.04-21.58.01-2.39.02-3.41-1.6-3.41-3.35,0-4.1,0-8.2,0-12.3,0-.11.03-.23.05-.4.69-.08,1.36-.03,2.11-.02.02.37.04.69.04,1,0,3.68,0,7.37,0,11.05,0,.41.06.81.08,1.12.41.41.81.36,1.19.36,1.72,0,3.45,0,5.17,0,5.44,0,10.88,0,16.32,0,.41,0,.84.09,1.25-.22.1-.71.11-1.44-.07-2.17-.26-1.07-.97-1.69-2.04-1.85-.61-.1-1.24-.13-1.86-.13-3.72-.01-7.43,0-11.15,0h-1.02c-.04-.24-.09-.44-.09-.63,0-.77-.02-1.55,0-2.32.04-1.36.59-2.48,1.69-3.29,1.15-.84,2.33-1.64,3.51-2.45.07-.05.16-.06.3-.11Z"/>
        <path class="cls-1" d="M157.96,35.6v.88c0,3.89,0,7.78,0,11.68,0,.44-.01.9-.12,1.32-.33,1.34-1.37,2.22-2.74,2.28-1.1.05-2.2.03-3.3,0-.95-.03-1.78-.42-2.51-1.06-.31.21-.59.42-.89.6-.55.32-1.15.47-1.79.48-.54,0-1.07-.02-1.61,0-1.08.05-1.99-.26-2.63-1.16-.08.02-.15,0-.18.04-.81.85-1.81,1.2-2.98,1.12-.24-.02-.48-.02-.71,0-1.1.07-2.07-.19-2.78-1.13-.29.21-.54.42-.81.59-.51.32-1.08.52-1.68.53-1.58.02-3.15,0-4.73,0-.08,0-.16-.05-.28-.08v-2.35c.24-.03.46-.07.69-.08,1.22,0,2.44,0,3.66,0,.35,0,.71-.04,1.05-.13.43-.11.62-.38.54-.79-.22-1.04-.46-2.09-.75-3.11-.17-.61-.67-.89-1.29-.92-.39-.02-.77,0-1.16,0-.47,0-.95,0-1.42,0-.25-.42-.11-.84-.14-1.25-.02-.38,0-.76,0-1.2.24-.04.44-.1.63-.1.71,0,1.43-.01,2.14.01,1.44.06,2.46.78,3.09,2.06.17.34.3.71.39,1.09.3,1.3.58,2.6.9,4.03.24.24.7.26,1.14.29.62.04,1.25.04,1.87.02.89-.03,1.09-.24,1.09-1.14,0-3.83,0-7.67,0-11.5v-1.01h2.15c.01.34.04.66.04.98,0,3.71,0,7.43,0,11.14,0,1.16.14,1.35,1.3,1.42.95.05,1.9.01,2.85-.02.49-.02.92-.2,1.27-.6v-4.28c.69-.2,1.36-.08,2.09-.09.03.21.09.4.1.59.01.95,0,1.9,0,2.85.01,1.09.38,1.51,1.49,1.57.95.05,1.9.05,2.85.01.74-.02.92-.25.98-.99.02-.24,0-.48,0-.71,0-3.63,0-7.25,0-10.88v-1h2.2Z"/>
        <path class="cls-1" d="M82.68,56.42c-.17-.76-.32-1.45-.48-2.18.43-.12.76-.22,1.1-.3,1.13-.26,2.26-.5,3.39-.76.17-.04.35-.09.51-.14.68-.23.77-.37.77-1.27-.31,0-.63-.01-.95-.02-.62-.02-1.25.01-1.86-.09-1.93-.3-3.18-1.49-3.49-3.41-.14-.84-.14-1.73,0-2.57.36-2.24,2.01-3.55,4.46-3.46,2.53.09,4.12,1.74,4.17,4.28.03,1.84.02,3.68,0,5.52-.02,1.59-.75,2.64-2.3,3.12-1.19.37-2.41.61-3.63.89-.52.12-1.04.23-1.68.37ZM88.08,49.31c0-.82,0-1.56,0-2.29,0-.32-.03-.65-.08-.97-.12-.67-.53-1.12-1.18-1.31-.58-.17-1.17-.17-1.75,0-.69.21-1.1.7-1.18,1.41-.06.5-.06,1.01-.01,1.5.09.96.7,1.57,1.67,1.65.79.06,1.59.01,2.54.01Z"/>
        <path class="cls-1" d="M198.57,56.43c-.17-.77-.32-1.43-.49-2.15.18-.07.33-.15.49-.19,1.3-.3,2.6-.6,3.91-.9.2-.05.41-.09.6-.16.68-.23.77-.37.78-1.27-.35,0-.7,0-1.04-.03-.68-.04-1.37,0-2.04-.14-1.76-.34-2.82-1.45-3.21-3.18-.23-1-.21-2.01,0-3.01.43-2.01,2.15-3.27,4.34-3.21,2.5.07,4.14,1.63,4.22,4.13.07,1.96.03,3.92.01,5.88-.02,1.36-.72,2.29-1.96,2.82-.19.08-.38.17-.58.21-1.64.39-3.29.77-5.04,1.18ZM203.9,49.3c0-1.06.06-2-.01-2.94-.08-1.12-.74-1.68-1.86-1.73-.24-.01-.47-.01-.71.02-.91.11-1.52.7-1.61,1.61-.05.47-.05.95,0,1.42.1.89.72,1.54,1.62,1.61.82.07,1.65.01,2.58.01Z"/>
        <path class="cls-1" d="M112.75,49.16v-6.98c.42,0,.77-.02,1.12-.02.32,0,.64,0,.95,0,.17.7.22,8.15.07,9.53-.21.02-.44.06-.67.06-3.98,0-7.97.01-11.95,0-.56,0-1.13-.08-1.67-.22-1.92-.51-3.11-1.99-3.29-4.19-.1-1.24-.02-2.49-.02-3.77.68-.2,1.35-.09,2.07-.09.04.23.11.43.11.62.01.8,0,1.6.01,2.41.04,1.85.73,2.56,2.59,2.68.44.03.89.02,1.34.02,2.76,0,5.53,0,8.29,0,.32,0,.64-.03,1.03-.04Z"/>
        <path class="cls-1" d="M124.55,42.18h2.15c.03.21.09.41.09.6,0,1.87.01,3.74,0,5.62,0,.44-.04.9-.14,1.33-.3,1.21-1.2,1.96-2.52,2.01-1.25.05-2.5.06-3.74,0-1.49-.08-2.54-1.14-2.76-2.68-.04-.26-.04-.53-.04-.8,0-3.92,0-7.84,0-11.77,0-.23,0-.46,0-.75.73-.14,1.39-.11,2.15-.02.01.33.03.65.03.96,0,3.71,0,7.43,0,11.14,0,.41-.07.84.23,1.19.82.28,3.71.27,4.55-.03v-6.79Z"/>
        <path class="cls-1" d="M8.94,43.25h2.12c.02.25.07.48.07.7,0,2.52,0,5.05,0,7.57,0,.18,0,.36-.02.53-.13,2.06-1.34,3.4-3.38,3.58-1.3.12-2.61.15-3.91-.1-2.22-.43-3.69-2.05-3.82-4.3-.04-.73.03-1.48.11-2.21.11-.97.29-1.92.44-2.95.59,0,1.12,0,1.65,0,.14,0,.28.04.46.07-.15,1.03-.31,2.02-.44,3.02-.07.53-.13,1.06-.12,1.59.03,1.22.61,1.98,1.79,2.21,1.29.26,2.6.26,3.9.08.71-.1,1.02-.46,1.11-1.18.03-.29.02-.59.02-.89,0-2.26,0-4.51,0-6.77,0-.29,0-.58,0-.96Z"/>
        <path class="cls-1" d="M71.8,35.57h2.13c.02.33.05.62.05.91,0,3.89,0,7.78,0,11.67,0,.3-.01.59-.05.89-.2,1.57-1.26,2.64-2.84,2.68-2.58.06-5.17.01-7.76,0-.05,0-.11-.04-.22-.08-.13-.76-.09-1.54-.01-2.4.35-.02.67-.04.98-.04,1.96,0,3.92,0,5.88,0,.21,0,.42,0,.62,0,1.01-.03,1.17-.2,1.17-1.22,0-3.8,0-7.6,0-11.41,0-.32.02-.64.03-1Z"/>
        <path class="cls-1" d="M172.09,42.2c1.46,0,2.8-.06,4.13.02,1.61.09,2.73.95,3.24,2.49.35,1.07.64,2.16.61,3.31-.06,2-1.35,3.44-3.34,3.62-.94.08-1.91.09-2.84-.04-2.02-.28-3.06-1.79-2.84-3.64.22-1.91.68-3.78,1.05-5.75ZM173.86,44.48c-.24,1.21-.48,2.31-.68,3.41-.17.92.21,1.45,1.13,1.53.68.06,1.36.06,2.04,0,.89-.08,1.43-.64,1.36-1.55-.06-.85-.27-1.69-.47-2.52-.13-.54-.57-.84-1.11-.87-.73-.04-1.47,0-2.27,0Z"/>
        <path class="cls-1" d="M161.15,35.7h1.98c.15.7.21,14.45.07,15.94-.59.18-1.12.2-2.07.07-.16-.74-.16-15.24.01-16.01Z"/>
        <path class="cls-1" d="M79.34,51.73h-2.14v-15.92c.69-.22,1.33-.22,2.14-.03v15.95Z"/>
        <path class="cls-1" d="M189.69,51.75h-1.97c-.05-.05-.07-.07-.09-.1-.02-.02-.04-.05-.04-.07-.01-5.08-.02-10.15-.03-15.23,0-.15,0-.3.02-.44,0-.05.05-.1.1-.19.64-.12,1.31-.1,1.96-.02.15.76.18,15,.04,16.05Z"/>
        <path class="cls-1" d="M182.9,42.87h2.11c.02.24.07.47.07.7,0,2.76.01,5.52,0,8.28,0,1.93-.82,3.11-2.6,3.84-.6.24-1.21.47-1.9.73-.28-.7-.55-1.37-.84-2.1.61-.24,1.15-.46,1.7-.68,1.2-.48,1.46-.83,1.46-2.13,0-2.52,0-5.04,0-7.57,0-.32,0-.64,0-1.07Z"/>
        <path class="cls-1" d="M193.59,42.87h2.11c.03.2.08.39.08.59,0,2.79,0,5.58,0,8.37,0,1.88-.86,3.16-2.6,3.85-.6.24-1.21.47-1.91.74-.28-.7-.55-1.37-.85-2.1.6-.24,1.15-.46,1.7-.68,1.21-.48,1.46-.83,1.46-2.13,0-2.52,0-5.05,0-7.57,0-.32,0-.65,0-1.07Z"/>
        <path class="cls-1" d="M68.87,48.17h-2.3c-.66-3.15-1.31-6.28-1.98-9.5.72-.18,1.4-.35,2.16-.53.75,3.38,1.42,6.68,2.12,10.03Z"/>
        <path class="cls-1" d="M68.3,52.84v1.11c-.38.2-.77.09-1.15.12-.79.05-.89.14-1,1.05.76.27,1.58-.04,2.39.2v1.12c-.72.16-3.37.17-4.2,0v-1.12c.18-.07.35-.13.56-.21.1-2.16,1.46-2.58,3.4-2.29Z"/>
        <path class="cls-1" d="M193.32,37.92h2.36v2.42c-.77.13-1.5.09-2.32.03-.08-.8-.02-1.58-.04-2.45Z"/>
        <path class="cls-1" d="M127.9,56.11c-.73.13-1.43.1-2.17.02-.1-.83-.09-1.61,0-2.43.73-.12,1.43-.1,2.17-.01.1.82.09,1.61,0,2.43Z"/>
        <path class="cls-1" d="M172.62,39.87v-2.4c.7-.19,1.4-.09,2.17-.07.14.8.07,1.58.04,2.41-.72.2-1.42.1-2.21.06Z"/>
        <path class="cls-1" d="M148.11,53.77h2.2c.25.37.09.79.12,1.19.03.38,0,.76,0,1.21-.79.13-1.53.1-2.33.02v-2.42Z"/>
        <path class="cls-1" d="M6.84,42.32v2.25c-.65.2-1.25.22-2.3.07-.09-.76-.05-1.54-.02-2.31.7-.2,1.56-.2,2.32-.01Z"/>
        <path class="cls-1" d="M109.16,43.16h-2.21v-2.38c.68-.22,1.38-.09,2.16-.07.1.81.03,1.59.05,2.45Z"/>
        <path class="cls-1" d="M177.8,39.88h-2.18c-.06-.82-.05-1.6,0-2.42.72-.16,1.41-.09,2.17-.04.12.8.09,1.58,0,2.46Z"/>
        <path class="cls-1" d="M122.79,56.14v-2.46h2.1c.21.78.1,1.57.07,2.39-.72.22-1.41.11-2.17.07Z"/>
        <path class="cls-1" d="M104.01,40.72h2.11c.14.8.08,1.58.04,2.41-.72.13-1.41.11-2.15,0v-2.42Z"/>
      </g>
      <g>
        <path class="cls-1" d="M6.29,65.66h2.36c.18,2.61.28,5.18.42,7.8-.27.03-.5.07-.73.08-.24.01-.47,0-.8,0-.29-1.86-.15-3.75-.55-5.63-.56,1.83-1.11,3.67-1.67,5.51-.5.18-1,.07-1.56.08-.38-.92-.59-1.91-.91-2.86-.3-.91-.48-1.87-.99-2.93-.11,2.04-.2,3.86-.3,5.74-.52.14-1,.04-1.57-.01.07-2.64.25-5.2.4-7.79.73-.25,1.43-.02,2.21-.04.67,1.87,1.13,3.8,1.8,5.78.12-.21.22-.34.27-.49.46-1.5.91-3.01,1.37-4.51.07-.23.14-.45.24-.74Z"/>
        <path class="cls-1" d="M61.69,65.6h2.14c.1.24.2.44.27.66.46,1.5.91,3.01,1.37,4.52.06.19.14.37.29.74.62-2.04,1.18-3.9,1.74-5.74.65-.19,1.34-.21,2.3-.08.18.56.55,6.37.48,7.73-.47.21-.96.13-1.52.1-.11-1.86-.23-3.68-.34-5.5-.8,1.77-1.24,3.62-1.87,5.46h-1.58c-.54-1.78-1.09-3.59-1.64-5.4-.41,1.77-.24,3.58-.5,5.38-.49.14-.98.09-1.54-.06.13-2.59.27-5.16.4-7.8Z"/>
        <path class="cls-1" d="M201.05,75.59v-1.18c.4-.01.77-.03,1.15-.03.36,0,.71.01,1.07-.02.87-.08,1.07-.35.99-1.29-.06,0-.13,0-.17.03-.88.73-1.81.48-2.66.03-.79-.42-1.11-1.21-1.19-2.07-.06-.66.01-1.3.26-1.92.61-1.51,2.09-2.01,3.49-1.18.07.04.16.08.25.12.06-.14.12-.26.19-.41h1.45c.02.25.06.48.06.7,0,1.6,0,3.2,0,4.8,0,1.36-.6,2.08-1.94,2.35-.96.19-1.93.1-2.96.07ZM204.33,70.67l.08-.03c-.12-.42-.17-.88-.38-1.25-.44-.78-1.56-.72-1.94.08-.34.7-.35,1.44,0,2.14.22.43.72.69,1.18.64.49-.05.93-.46,1.02-.98.04-.2.02-.41.03-.62Z"/>
        <path class="cls-1" d="M167.97,70.11h-3.39v3.34c-.56.14-1.04.1-1.52.05-.15-.88-.14-7.05.01-7.79h1.46v2.81c.7.22,2.43.24,3.39.05v-2.85h1.48c.18.59.24,5.85.09,7.72-.47.18-.96.08-1.53.06v-3.39Z"/>
        <path class="cls-1" d="M99.39,72.88v2.95c-.5.18-.96.12-1.39.07-.05-.05-.07-.06-.09-.08-.02-.02-.05-.05-.05-.07-.02-2.46-.03-4.92-.04-7.38,0-.2,0-.4,0-.67h1.51c.03.09.09.22.14.35.06,0,.13,0,.17-.02,1.17-1.09,3.41-.34,3.83,1.74.17.86.07,1.72-.34,2.51-.67,1.31-2.06,1.68-3.3.88-.09-.06-.19-.12-.42-.28ZM99.33,70.3c.12.45.19.92.37,1.35.2.5.69.64,1.18.62.43-.01.67-.34.82-.72.2-.51.26-1.03.11-1.56-.21-.79-.77-1.22-1.46-1.11-.59.09-.94.62-1.02,1.42Z"/>
        <path class="cls-1" d="M157.62,73.49c-.08-.16-.14-.28-.22-.46-.46.37-.93.59-1.49.57-1.12-.05-2.11-.81-2.39-1.94-.22-.88-.18-1.77.19-2.62.64-1.46,2.12-1.88,3.46-.99.07.05.15.08.3.17.08-.54.03-1.03.04-1.52,0-.47,0-.94,0-1.46h1.45c.04.15.11.32.11.48,0,2.44,0,4.87,0,7.31,0,.14-.03.28-.06.46h-1.4ZM157.52,70.7c-.06-.24-.13-.71-.28-1.15-.18-.51-.65-.67-1.15-.67-.49,0-.73.33-.89.74-.22.54-.21,1.1-.07,1.66.17.67.75,1.08,1.38,1.02.58-.06,1.01-.63,1.02-1.58Z"/>
        <path class="cls-1" d="M143.93,73.51c-.06-.19-.11-.35-.18-.58-.71.7-1.48.72-2.34.43-.96-.32-1.45-1.02-1.63-1.94-.16-.76-.1-1.54.2-2.28.62-1.54,2.16-2.02,3.57-1.12.05.03.11.05.22.1.04-.13.08-.25.14-.43h1.48v5.76c-.49.15-.98.07-1.46.05ZM143.92,70.72c-.12-.44-.19-.88-.36-1.28-.2-.46-.64-.59-1.11-.58-.44,0-.72.26-.88.64-.31.72-.34,1.45.04,2.15.45.83,1.57.84,2.03.02.15-.27.19-.61.29-.94Z"/>
        <path class="cls-1" d="M108.45,68.14c.05-.15.09-.28.15-.45h1.39c.18.58.24,4.13.09,5.77-.48.15-.97.07-1.46.05-.06-.16-.11-.3-.17-.43-.06.01-.12,0-.17.04-1.47.9-3.2.28-3.72-1.35-.32-1.01-.22-2,.27-2.94.66-1.27,2.11-1.63,3.34-.85.07.05.15.09.27.16ZM108.6,70.74c-.1-.42-.16-.87-.32-1.27-.18-.47-.61-.6-1.09-.61-.48,0-.77.26-.94.67-.2.47-.27.96-.17,1.47.17.86.73,1.36,1.43,1.26.69-.1,1.04-.61,1.09-1.52Z"/>
        <path class="cls-1" d="M41.31,76.01c-.29,0-.61,0-.93,0-.17,0-.34-.03-.62-.06.3-.8.58-1.54.89-2.36-.86-1.9-1.76-3.86-2.69-5.91h1.7c.54,1.22,1.1,2.49,1.7,3.85.51-.62.62-1.32.91-1.94.29-.62.52-1.26.79-1.91h1.52c-.07.63-2.61,7.13-3.27,8.34Z"/>
        <path class="cls-1" d="M50.56,73.57c-1.65-.02-3.02-1.36-3.01-3,0-1.72,1.3-3.03,3.16-3.05,1.67-.02,3.04,1.43,3.01,3.1-.03,1.68-1.41,2.96-3.15,2.95ZM50.67,72.14c.82-.02,1.45-.73,1.44-1.61-.01-.87-.69-1.59-1.48-1.59-.82,0-1.53.8-1.49,1.67.04.88.7,1.54,1.53,1.52Z"/>
        <path class="cls-1" d="M173.64,73.57c-1.66-.02-3.01-1.37-3-3.01.01-1.67,1.29-3.04,3.18-3.04,1.69,0,3.05,1.45,3,3.12-.05,1.68-1.43,2.95-3.18,2.93ZM175.17,70.52c-.03-.86-.72-1.59-1.5-1.58-.84.02-1.5.78-1.46,1.69.04.89.7,1.54,1.53,1.51,1.02-.05,1.38-.87,1.42-1.62Z"/>
        <path class="cls-1" d="M71.83,67.71h1.44c.02.25.06.48.06.71,0,.89,0,1.78.01,2.67,0,.45.05.96.58,1.08.51.12,1-.04,1.35-.47.28-.34.37-.73.37-1.16,0-.71,0-1.42,0-2.14,0-.23.02-.46.04-.73h1.42c.16.79.16,5.06,0,5.81h-1.4c-.04-.25-.08-.47-.13-.78-.18.15-.28.24-.39.33-1.18,1.02-2.8.59-3.28-.88-.09-.28-.15-.58-.16-.87-.02-1.1,0-2.19,0-3.29,0-.08.05-.16.08-.28Z"/>
        <path class="cls-1" d="M146.8,67.68h1.46c.03.24.06.44.09.67.09-.04.18-.06.25-.1.32-.2.61-.5.96-.6,1.2-.34,2.19.27,2.51,1.48.07.26.13.52.13.79.01,1.07,0,2.14,0,3.2,0,.08-.04.16-.08.3h-1.43c-.02-.26-.06-.48-.06-.71,0-.68,0-1.37,0-2.05,0-.21.01-.42-.01-.62-.06-.44-.08-.92-.6-1.1-.41-.14-1.15.14-1.4.58-.16.3-.27.66-.29,1-.04.71-.01,1.42-.01,2.14,0,.26,0,.52,0,.83h-1.47c-.16-.62-.2-4.64-.04-5.81Z"/>
        <path class="cls-1" d="M84.08,73.43h-1.52c-.03-.22-.07-.42-.07-.61,0-.74,0-1.48,0-2.23,0-.21,0-.42,0-.62-.08-1.01-.72-1.36-1.6-.83-.5.3-.72.77-.73,1.35,0,.65,0,1.31,0,1.96,0,.32,0,.65,0,1-.53.17-1.01.11-1.54.05v-5.78h1.49c.04.22.08.44.13.75.2-.19.31-.31.44-.42,1.06-.89,2.65-.51,3.19.76.08.19.16.39.17.6.11,1.33.05,2.66.05,4.04Z"/>
        <path class="cls-1" d="M195.14,73.5h-1.43c-.15-.7-.17-4.82-.03-5.8h1.45c.04.2.08.41.14.71.19-.17.32-.29.45-.39,1.23-.92,2.85-.35,3.22,1.14.06.26.12.53.12.79.01,1.13,0,2.25,0,3.39-.5.26-.98.15-1.52.1-.02-.27-.06-.5-.06-.73,0-.68,0-1.37,0-2.05,0-.24,0-.48-.03-.71-.07-.41-.1-.89-.6-.99-.49-.1-.94.06-1.29.44-.27.3-.38.66-.37,1.06,0,.74,0,1.48,0,2.23,0,.26-.03.52-.05.81Z"/>
        <path class="cls-1" d="M130.59,70.92c-1.36.21-2.73.04-4.09.14.07.82.33,1.09,1.07,1.28.68.18,1.22-.09,1.79-.46.28.22.56.43.9.7-.24.2-.42.4-.63.53-.86.54-1.81.6-2.75.34-1.51-.41-2.31-1.99-1.91-3.63.45-1.82,2.27-2.79,4.02-2.11.64.25,1.11.69,1.36,1.34.23.59.33,1.2.22,1.88ZM129.02,70.13c-.05-1-.38-1.39-1.14-1.41-.79-.02-1.23.42-1.38,1.41h2.52Z"/>
        <path class="cls-1" d="M181.75,67.68h1.55v5.73c-.47.2-.94.1-1.44.09-.07-.22-.14-.44-.2-.62-.43.22-.82.54-1.25.63-1.3.29-2.34-.51-2.48-1.87-.08-.73-.04-1.48-.04-2.22,0-.56,0-1.11,0-1.71h1.53c.02.3.05.56.05.82,0,.74,0,1.48,0,2.22,0,.29.02.6.1.88.12.46.39.62.86.57.8-.09,1.27-.58,1.32-1.42.03-.65.01-1.3.01-1.96,0-.35,0-.71,0-1.15Z"/>
        <path class="cls-1" d="M19.01,73.48c-.41,0-.67,0-.94,0-.17,0-.34-.03-.56-.06-.02-.27-.06-.49-.06-.72,0-.68,0-1.36,0-2.05,0-.24,0-.48-.04-.71-.07-.41-.09-.89-.59-1-.52-.11-1,.08-1.35.5-.28.34-.35.75-.36,1.17-.02.65,0,1.3-.01,1.96,0,.29-.02.58-.04.92h-1.43c-.17-.7-.19-4.82-.03-5.79h1.42c.05.21.1.43.15.65.08,0,.15.01.18-.01.31-.22.58-.53.93-.65,1.21-.42,2.36.27,2.65,1.52.05.23.09.47.1.7,0,1.15,0,2.3,0,3.58Z"/>
        <path class="cls-1" d="M93.71,69.81h-1.45c-.11-.15-.2-.34-.34-.48-.62-.66-1.6-.49-1.98.32-.24.51-.21,1.05-.09,1.57.11.48.38.87.93.95.55.08,1-.05,1.28-.56.06-.1.13-.19.19-.29.48-.03.95-.09,1.45.06,0,.92-.59,1.43-1.24,1.83-1.92,1.17-4.23-.1-4.3-2.34-.01-.47.05-.94.14-1.41.13-.68.56-1.17,1.16-1.5.95-.52,1.94-.55,2.9-.09.76.36,1.26.96,1.34,1.94Z"/>
        <path class="cls-1" d="M23.21,71.62h1.13c.54.76,1.16.97,1.89.65.23-.1.4-.25.4-.53,0-.29-.18-.44-.42-.5-.31-.08-.64-.12-.96-.19-.37-.08-.77-.13-1.12-.28-.86-.36-1.15-1.27-.68-2.07.14-.25.35-.49.59-.65.92-.62,1.91-.62,2.87-.15.55.27.87.77.92,1.46h-1.17c-.27-.42-.69-.72-1.29-.61-.37.07-.69.19-.76.61.07.39.38.43.67.5.49.11.99.18,1.48.3.47.12.88.33,1.1.82.37.82.17,1.69-.65,2.16-1.01.59-2.09.62-3.14.06-.6-.32-.8-.73-.88-1.57Z"/>
        <path class="cls-1" d="M184.48,71.61h1.18c.19.33.4.72.87.74.32.02.65,0,.96-.07.28-.06.48-.25.45-.57-.02-.28-.22-.42-.46-.48-.32-.08-.64-.11-.96-.19-.4-.1-.81-.18-1.19-.35-.67-.3-.97-1.04-.69-1.71.13-.32.35-.63.61-.86.77-.66,2.15-.74,3.02-.21.5.31.81.75.9,1.45-.39.02-.73.03-1.12.05-.37-.5-.84-.83-1.5-.65-.33.09-.62.24-.61.69.22.42.67.4,1.06.49.4.1.82.13,1.22.25,1.34.38,1.43,2.02.56,2.78-.73.65-2.73.84-3.6.09-.43-.37-.7-.8-.71-1.46Z"/>
        <path class="cls-1" d="M136.04,69.38h-1.11c-.32-.34-.69-.75-1.3-.64-.37.07-.68.2-.81.6.08.46.48.48.81.56.46.11.93.16,1.39.28.5.13.92.38,1.12.92.32.86,0,1.74-.87,2.16-.89.43-1.84.48-2.75.07-.7-.31-1.09-.87-1.14-1.7h1.2c.23.53.66.83,1.25.78.43-.04.91-.07,1.06-.63-.03-.31-.23-.47-.51-.54-.29-.07-.58-.11-.87-.17-.37-.08-.77-.13-1.12-.27-.79-.31-1.11-1.12-.81-1.91.31-.82,1.34-1.37,2.43-1.29,1.19.09,1.81.61,2.04,1.8Z"/>
        <path class="cls-1" d="M119.76,72.1c.5.03.85.06,1.22.08.24.39.11.81.12,1.25-.56.18-1.11.16-1.65.02-.83-.22-1.23-.73-1.27-1.61-.03-.65,0-1.3,0-1.96,0-.29,0-.58,0-.93-.31-.04-.57-.07-.88-.1v-1.06c.26-.05.52-.1.86-.16v-1.84c.55-.21,1.03-.1,1.6-.1v1.95c.45.04.83.08,1.21.12.25.32.13.67.13,1.09-.42.03-.82.06-1.25.1-.17.53-.06,1.06-.08,1.59-.02.5,0,1,0,1.57Z"/>
        <path class="cls-1" d="M56.63,68.95v4.54h-1.56c-.09-1.49,0-2.99-.06-4.53-.3-.03-.55-.06-.84-.1v-1.03c.26-.06.53-.13.79-.2.26-1.74,1.18-2.37,2.98-2.09.02.18.05.38.05.58,0,.17-.02.34-.04.54-.37.04-.71.09-1.11.13-.08.26-.16.5-.26.84.48.05.88.08,1.32.12.17.34.1.68.08,1.09-.42.03-.82.06-1.35.1Z"/>
        <path class="cls-1" d="M32.57,68.87c-.41.02-.77.04-1.11.06-.21.64-.23,2.37-.03,3.17.36.03.74.07,1.16.11v1.3c-.5,0-.98.06-1.43-.01-.85-.13-1.31-.62-1.42-1.48-.06-.44-.04-.89-.04-1.33,0-.56,0-1.12,0-1.72-.32-.04-.58-.07-.89-.11v-1.06c.27-.05.52-.1.87-.16v-1.89h1.52c.28.57-.04,1.25.21,1.92.36.03.73.07,1.17.11v1.11Z"/>
        <path class="cls-1" d="M33.8,67.67h1.42c.05.26.1.5.17.85.6-.58,1.18-1.03,2.05-.98v1.44c-.27.04-.53.06-.78.12-.9.18-1.33.69-1.35,1.59-.01.65,0,1.3,0,1.96,0,.26-.02.52-.04.83h-1.42c-.15-.64-.19-4.61-.04-5.81Z"/>
        <path class="cls-1" d="M111.5,65.24h1.53c.05,2.29,0,4.53.04,6.75.22.09.38.16.53.22v1.24c-1.44.07-2.05-.43-2.12-1.79-.05-1-.02-2.01-.02-3.02,0-.83,0-1.66,0-2.49,0-.29.03-.57.05-.9Z"/>
        <path class="cls-1" d="M12.04,73.51h-1.36c-.19-.59-.23-4.74-.05-5.83h1.37c.16.64.19,4.63.04,5.83Z"/>
        <path class="cls-1" d="M20.5,67.67h1.35c.17.63.22,4.36.08,5.79-.45.13-.91.07-1.37.04-.18-.62-.23-4.51-.06-5.84Z"/>
        <path class="cls-1" d="M87.01,73.49h-1.52c0-1.95,0-3.86,0-5.8h1.47c.16.65.19,4.61.05,5.8Z"/>
        <path class="cls-1" d="M96.32,73.51h-1.36c-.17-.65-.2-4.71-.05-5.81h1.36c.15.63.19,4.57.05,5.81Z"/>
        <path class="cls-1" d="M116.21,73.51h-1.36c-.18-.63-.23-4.56-.07-5.8.45-.12.91-.07,1.37-.03.19.62.23,4.59.06,5.84Z"/>
        <path class="cls-1" d="M123.77,73.49h-1.48v-5.8h1.43c.16.64.2,4.57.05,5.8Z"/>
        <path class="cls-1" d="M192.06,73.51h-1.36c-.16-.67-.19-4.74-.04-5.81h1.37c.16.64.19,4.74.03,5.81Z"/>
        <path class="cls-1" d="M86.28,66.65c-.52,0-.88-.3-.9-.76-.02-.46.33-.8.84-.81.53,0,.88.29.89.76.02.49-.31.8-.83.81Z"/>
        <path class="cls-1" d="M191.39,65.09c.52.02.84.34.82.82-.02.48-.36.76-.9.74-.52-.02-.86-.36-.84-.82.02-.45.4-.76.92-.74Z"/>
        <path class="cls-1" d="M123.05,66.65c-.5.02-.9-.29-.94-.73-.04-.45.32-.81.82-.83.53-.02.89.27.92.73.03.48-.29.82-.81.83Z"/>
        <path class="cls-1" d="M11.31,66.65c-.52,0-.88-.32-.88-.78,0-.46.35-.79.86-.79.53,0,.87.3.87.78,0,.48-.33.79-.85.79Z"/>
        <path class="cls-1" d="M21.17,66.65c-.53-.01-.86-.33-.84-.82.02-.49.37-.77.91-.74.5.03.8.32.81.77,0,.48-.35.8-.87.79Z"/>
        <path class="cls-1" d="M95.54,65.09c.54-.01.89.29.91.76.01.49-.33.81-.86.8-.54,0-.86-.32-.86-.81,0-.46.31-.74.81-.75Z"/>
        <path class="cls-1" d="M115.4,65.09c.51-.01.9.29.93.73.03.46-.32.81-.82.83-.52.02-.89-.28-.92-.73-.03-.47.31-.82.82-.83Z"/>
      </g>
      <g>
        <path class="cls-1" d="M295.09,13.15c-2.18-2.06-8.08-4.56-10.76-4.08,5.93,3.27,9.34,8.14,9.8,14.95-.13-.17-.27-.33-.38-.52-1.51-2.66-3.4-5.01-5.68-7.05-.91-.82-1.85-1.59-2.93-2.18-.41-.22-.85-.41-1.37-.66,0,.39.22.57.35.76,1.29,1.83,2.38,3.77,3.1,5.89.93,2.71,1.23,5.5,1.05,8.34-.03.44-.07.89-.22,1.36-.25-.76-.47-1.52-.74-2.27-.28-.78-.6-1.55-.93-2.31-.34-.76-.7-1.51-1.08-2.25-.37-.71-.75-1.42-1.16-2.11-.42-.72-.86-1.42-1.32-2.12-.45-.69-.92-1.36-1.57-1.92.96,5.04.98,10.05.09,15.07-.01.07-.09.14-.2.31-.55-4.76-1.1-9.42-3.04-13.75l-.21.02c-.19,1.51-.38,3.01-.57,4.55.16.09.31.18.53.31-.1,2.15-.19,4.34-.29,6.54.15.09.28.16.47.27-.13,2.28-.26,4.59-.39,6.94.18.1.35.19.61.33-.12,2.38-.45,4.79-.59,7.12.64.6,1.23,1.14,1.8,1.69.06.06.02.22.02.33-.7.16-5.21.18-6.05.03q.06-.62,1.85-1.98c-.2-2.31-.41-4.66-.61-7.04.2-.11.37-.22.61-.35-.18-2.24-.36-4.51-.54-6.82.15-.1.29-.2.49-.34-.04-1.08-.09-2.2-.14-3.33-.04-.95-.09-1.9-.12-2.85-.02-.43,0-.43.34-.87-.21-1.44-.41-2.9-.62-4.36-.98,2.1-1.54,4.3-1.96,6.51-.42,2.21-.71,4.44-1.06,6.71-.09-.19-.18-.36-.24-.55-.53-1.5-.73-3.06-.84-4.63-.2-2.92.06-5.82.75-8.67.05-.2.13-.39.2-.58-.02-.01-.04-.02-.07-.03.02.01.04.03.07.04-.13.02-.31-.01-.38.06-.33.34-.65.69-.95,1.07-2.49,3.14-4.25,6.65-5.18,10.55-.05.19-.11.38-.32.58-.08-.44-.18-.87-.25-1.31-.07-.47-.13-.94-.15-1.42-.06-1.83.26-3.61.79-5.35.73-2.37,1.82-4.58,3.11-6.69.17-.28.33-.55.58-.97-.31.11-.5.16-.67.25-1.78.94-3.34,2.17-4.73,3.61-1.62,1.67-2.98,3.55-4.23,5.51-.19.29-.38.59-.63.84.33-2.47,1.02-4.81,2.12-7.03,1-2.02,2.32-3.8,4.02-5.29.97-.85,2.02-1.56,3.17-2.14.26-.13.52-.27.91-.47-.74-.19-1.34-.2-1.94-.16-3.02.22-5.72,1.26-8.08,3.17-.11.09-.24.18-.36.26-.02.02-.06.02-.11.03-.07-.07-.16-.14-.3-.27.88-1.21,1.76-2.4,2.77-3.48,2.23-2.37,4.98-3.7,8.19-4.13.79-.1,1.58-.17,2.47-.27-.43-.89-1.29-1.1-2.02-1.47,1.19-1.05,2.97-1.01,5.3.13.09-.27.16-.55.27-.8.28-.65.51-1.33.88-1.94.42-.7.89-.68,1.23.06.32.7.54,1.44.81,2.16.06.16.11.33.2.56,1.8-1.22,3.67-1.09,5.67-.48-.16.13-.27.23-.4.31-.5.31-1.02.6-1.52.92-.11.07-.18.21-.31.36.15.04.23.08.31.08,2.85-.08,5.36.88,7.68,2.45,2.25,1.53,4,3.53,5.51,5.77.08.12.06.32.08.48v-.02Z"/>
        <path class="cls-1" d="M242.35,25.22c-.47-.03-.82-.04-1.25-.07-.34-.53-.7-1.11-1.07-1.69h-1.4v1.48c-.28.06-.5.11-.81.18-.01.29-.04.6-.04.92,0,2.7,0,5.41,0,8.11,0,.32,0,.64,0,.99-.91.16-1.73.07-2.56.08-.83.02-1.67,0-2.5,0s-1.66,0-2.47,0c-1.84,13.34,2.77,31.46,19.02,43.3,15.37,11.2,35.85,12.01,52.06,2.11,8.08-4.93,14.15-11.72,18.18-20.29,2.9-6.16,4.34-12.66,4.37-19.5-.87-.18-1.67-.07-2.46-.09-.77-.02-1.54,0-2.3,0-.23-.34-.15-.68-.16-.99,0-2.05,0-4.1,0-6.15,0-.32,0-.65,0-1.03-.96-.17-1.88,0-2.87-.12-.11-1.37.02-2.76-.08-4.22h-3.2v-1.63c-.68-.22-3.1-.25-4.06-.06-.02.36-.04.74-.06,1.11-.03.06-.04.13-.08.16-.64.52-.75,1.2-.73,1.98.05,1.78.02,3.57.02,5.35,0,.32,0,.65,0,.95-.7.18-2.94.21-4.14.07-.09-1.84,0-3.71-.06-5.6-.3-.34-.62-.7-.99-1.12h-2.15v-1.79c-.71-.2-1.57-.22-2.53-.05-.03,4.07,0,8.16-.02,12.23-.69.18-3.05.2-4.1.04-.1-1.45.01-2.93-.06-4.38-.68-.2-2.76-.22-3.71-.03v4.37c-.74.17-8.29.22-9.8.09-.24-.37-.11-.79-.12-1.28.27-.02.52-.06.77-.06,2.23,0,4.46,0,6.69,0h.97c.08-1.56-.02-3.06.05-4.59h6.44c.09,1.52-.02,3.03.07,4.56h1.22c.22-.29.12-.63.12-.94,0-3.48,0-6.95,0-10.43,0-.32,0-.64,0-.94.77-.16,4.4-.17,5.37-.03v1.8c.54.03,1.01.05,1.55.08.55.62,1.15,1.28,1.78,1.98v4.74h1.26c.01-2.25,0-4.47,0-6.65q.77-1.02.8-2.37c0-.15,0-.3.03-.44,0-.06.04-.11.11-.26,2.17-.05,4.38-.02,6.61-.01.28.56.03,1.15.23,1.77,1.01.02,2.03.03,3.12.05.12,1.41-.02,2.77.09,4.19.9.16,1.79-.01,2.74.13.1.9.04,1.78.05,2.66.01.92,0,1.84,0,2.76s0,1.77,0,2.69c.83.2,1.6.08,2.36.1.77.02,1.54,0,2.38,0,.03.28.07.5.07.73.02,13.09-4.43,24.43-13.45,33.91-6.58,6.92-14.59,11.43-23.88,13.64-3.37.8-6.78,1.26-10.24,1.26-13.54,0-25.24-4.62-34.9-14.14-7.1-7-11.55-15.47-13.46-25.25-.78-4.02-1.02-8.07-.67-12.15.06-.74.06-1.48.11-2.23.02-.41.08-.82.13-1.31,1.3,0,2.54-.01,3.78-.01,1.21,0,2.43,0,3.67,0,.16-.9.06-1.73.08-2.55.02-.83,0-1.66,0-2.5v-5c.3-.09.55-.16.82-.23.02-.47.04-.91.06-1.33.65-.19,2.42-.23,3.62-.08.31.51.66,1.06,1.02,1.65h1.87c.09,1.12.03,2.18.04,3.23.01,1.07,0,2.14,0,3.21v6.39c.49.04.92.08,1.44.12.02.57.04,1.12.07,1.7.15.03.26.05.36.07.05-.07.12-.11.12-.15.02-.3.04-.59.04-.89,0-2.73,0-5.47,0-8.2v-1.05c2.02-.11,3.97-.03,5.95-.05.25.84,0,1.68.17,2.58.59.04,1.2.07,1.9.12.07,1.62,0,3.22.05,4.79.63.22,2.35.26,3.36.06v-4.54c.71-.22,3.07-.27,4.7-.12.43.55.92,1.13,1.35,1.77.15.22.19.55.19.84.02,1.31,0,2.62,0,3.92,0,.29,0,.58,0,.94,1.11.09,2.14.03,3.17.04,1.01,0,2.02,0,3.03,0h3.14v1.28c-.71.14-9.62.17-10.7.04-.02-.24-.06-.5-.06-.76,0-1.49-.05-2.97.01-4.46.04-.94-.21-1.68-.98-2.31h-2.32c-.09,2.12.01,4.21-.06,6.35-.61.22-1.19.11-1.87.09-.02-.5-.05-.99-.08-1.57-1.37-.12-2.73,0-4.11-.08-.24-.52-.1-1.06-.12-1.58-.03-.56,0-1.13,0-1.69v-1.68c-.67-.02-1.28-.04-1.96-.06v-2.56c-.58-.19-1.11-.08-1.63-.1-.5-.02-1.01,0-1.5,0-.25.33-.16.66-.16.98,0,2.76,0,5.53,0,8.29,0,.32,0,.65,0,.95-.72.19-2.51.21-3.34.03-.03-.51-.05-1.04-.09-1.63-.46-.03-.9-.06-1.37-.09-.17-.7-.07-1.42-.08-2.12-.02-.71,0-1.43,0-2.14v-8.55Z"/>
        <path class="cls-1" d="M276.6,55.76c1.5-1.08,2.91-2.18,4.39-3.16,5.28-3.49,11.06-5.69,17.3-6.73,3.24-.54,6.49-.73,9.77-.66,1.6.03,3.21.08,4.81.13.42.01.79.07,1.15.38.25.21.65.28.99.35.99.2,1.98.37,2.98.55.1.02.2.06.29.22-.43.02-.87.07-1.3.07-2.68.02-5.35.13-8.01.42-7.69.84-15.06,2.76-21.83,6.63-2.43,1.39-4.7,3.02-6.79,4.89-.13.12-.3.2-.54.35,2.33,2.18,4.54,4.22,6.85,6.36.22-.62.42-1.13.59-1.65.62-1.92,2.02-2.88,3.94-3.12,1.75-.22,3.4,1.21,3.55,3,.13,1.6-1.2,3.09-2.91,3.23-.83.07-1.66.01-2.39-.5-.25.32-.26.6-.05.85.28.34.55.72.91.97.6.42,1.26.76,1.91,1.15.29-.22.52-.4.76-.56,1.59-1.07,3.87-.52,4.79,1.16.81,1.49.1,3.45-1.49,4.09-1.57.63-3.14.51-4.71-.01-1.34-.45-2.54-1.15-3.7-1.94-.39-.27-.78-.54-1.22-.86-.23.25-.44.48-.67.71-1.19,1.21-2.54,2.14-4.25,2.45-.78.14-1.53.05-2.3-.08-.97-.17-2.33-2-2.31-3.13.03-1.58,1.24-3.09,2.79-3.37.93-.17,1.77.09,2.55.56.59.36.85.96.96,1.74.22-.19.39-.32.61-.5-.33-.48-.58-.96-.93-1.35-.71-.79-1.43-1.6-2.23-2.3-1.37-1.19-2.8-2.3-4.21-3.44-.04-.04-.1-.05-.21-.1-2.53,2.28-5.52,4.11-7.41,7.09.09.37.36.48.65.56.28-.15.27-.43.34-.68.17-.62.54-1.05,1.17-1.22.31-.09.62-.21.94-.27,2.54-.44,3.9,1.81,3.82,3.41-.05,1.06-.57,1.87-1.45,2.42-1.23.76-2.55.92-3.93.48-1.42-.45-2.61-1.26-3.6-2.37-.16-.18-.31-.36-.49-.58-.2.14-.4.27-.58.41-1.03.81-2.1,1.55-3.28,2.14-1.25.61-2.57.92-3.94,1.02-1.47.11-2.77-.73-3.23-2.03-.47-1.33.03-3.05,1.18-3.83.96-.65,2.01-.7,3.06-.24.46.2.88.49,1.42.81,1.01-.37,2.01-.9,2.74-1.86.28-.37.36-.74-.02-1.17-.17.05-.36.11-.55.16-.42.13-.85.27-1.27.39-1.08.3-1.93-.1-2.62-.9-1.25-1.45-1.34-3.34.17-4.69.97-.87,2.12-1.02,3.32-.54,1.55.62,2.63,1.69,3.05,3.35.09.36.25.71.42,1.19,2.3-2.13,4.51-4.18,6.77-6.27-.3-.28-.53-.51-.77-.72-3.94-3.49-8.45-6.03-13.36-7.87-4.02-1.5-8.17-2.48-12.42-3.08-3.72-.52-7.45-.72-11.2-.72-.24,0-.47,0-.77,0,.61-.38,2.3-.72,6.17-1.27,2.12-.3,4.26-.36,6.4-.36,2.11,0,4.22.17,6.31.47,2.12.31,4.21.75,6.27,1.31,2.04.56,4.02,1.26,5.94,2.13,1.95.89,3.84,1.89,5.64,3.05,1.77,1.14,3.52,2.32,5.28,3.49ZM309.04,46.52c-1.11-.4-3.76-.44-8.29.12-8.96,1.1-16.9,4.59-23.68,10.47-1.92-1.3-3.74-2.6-5.61-3.79-3.19-2.04-6.56-3.72-10.2-4.83-3.28-1-6.62-1.69-10.03-2.01-1.95-.19-3.92-.28-5.88-.18-.28.01-.58-.04-.89.21,1.12.16,2.15.29,3.17.44,4.33.63,8.56,1.69,12.65,3.27,5.21,2.02,9.93,4.82,14,8.68.17.16.32.33.52.55-2.8,2.59-5.54,5.15-8.34,7.7-.51-.49-.71-1.05-.91-1.6-.1-.28-.18-.57-.25-.86-.32-1.3-1.18-2.09-2.37-2.58-1.1-.46-2.23-.18-2.87.71-.64.9-.53,2.07.28,2.94.46.5,1.01.73,1.68.53.46-.13.9-.29,1.36-.43.94-.3,1.64.14,1.81,1.11.11.61-.12,1.11-.49,1.56-1,1.22-2.38,1.82-3.87,2.38-.19-.23-.34-.46-.54-.63-.29-.24-.61-.48-.95-.65-.86-.44-2.31-.15-2.86,1.07-.53,1.16-.13,2.41.96,2.98.52.27,1.08.29,1.65.27,1.17-.05,2.28-.38,3.34-.88,1.38-.65,2.62-1.52,3.81-2.46.2-.16.41-.31.66-.5.2.28.37.52.54.76.95,1.33,2.19,2.24,3.76,2.71.97.28,1.89.16,2.76-.31.72-.39,1.21-.97,1.22-1.83,0-.94-.41-1.67-1.21-2.15-.7-.42-1.42-.26-2.15-.03-.59.19-.74.63-.81,1.16,0,.03-.02.06-.03.09-.29.89-.88,1.16-1.72.72-.3-.16-.58-.41-.8-.68-.29-.35-.3-.77-.04-1.16.2-.3.4-.59.62-.87,1.19-1.54,2.64-2.81,4.15-4.02,1.02-.81,2.01-1.67,3.01-2.51.16-.13.32-.26.5-.41.15.12.3.22.43.33.78.64,1.56,1.28,2.34,1.93,1.03.86,2.07,1.69,3.07,2.58.91.81,1.68,1.76,2.29,2.83.45.8.41,1.1-.3,1.68-.27.22-.59.41-.92.53-.59.21-.99-.05-1.1-.66-.03-.14-.02-.3-.02-.44,0-.33-.18-.55-.43-.74-1.24-.93-2.96-.5-3.6.91-.33.74-.28,1.48.21,2.11.73.94,1.72,1.4,2.9,1.17.66-.13,1.32-.37,1.92-.68,1.05-.54,1.89-1.33,2.58-2.29.15-.21.32-.4.5-.62.29.22.51.42.75.58.8.56,1.59,1.15,2.42,1.67,1.85,1.15,3.86,1.67,6.08,1.36.23-.17.51-.34.76-.56.83-.72.96-1.82.35-2.73-.78-1.16-2.59-1.31-3.6-.3-.2.2-.39.43-.57.64-1-.31-1.91-.7-2.68-1.3-.48-.38-.93-.84-1.29-1.33-.46-.63-.36-1.56.12-2.16.33-.41.6-.48,1.09-.27.27.11.54.26.82.36.6.21,1.22.26,1.83.03.97-.36,1.6-1.42,1.42-2.42-.19-1.07-1.12-1.87-2.18-1.87-1.46,0-2.73.83-3.28,2.18-.22.55-.37,1.13-.57,1.69-.18.49-.35,1-.78,1.34-1.4-1.1-7.9-7.19-8.32-7.81.17-.14.36-.29.53-.45,1.91-1.8,3.98-3.39,6.21-4.78,6.2-3.87,13.02-6,20.19-7.11,1.04-.16,2.09-.29,3.2-.45Z"/>
        <path class="cls-1" d="M295.07,13.17s.08-.05.12-.08c-.04.02-.07.04-.11.06,0,0-.01.02-.01.02Z"/>
      </g>
    </g>
  </g>
</svg>