<svg width="414" height="72" viewBox="0 0 414 72" fill="none" xmlns="http://www.w3.org/2000/svg">
<path d="M50.504 2.448V44.712H54.176V54H50.36C49.832 59.28 47.696 63.456 43.952 66.528C40.016 69.648 35 71.208 28.904 71.208H22.568C15.464 71.208 9.92 69.168 5.936 65.088C2.624 61.584 0.968 56.976 0.968 51.264V40.248L6.584 35.784H12.056V49.896C12.056 54.312 13.088 57.408 15.152 59.184C17.216 61.008 20.744 61.92 25.736 61.92C30.728 61.92 34.232 61.056 36.248 59.328C38.36 57.456 39.416 54.312 39.416 49.896V2.448H50.504ZM66.6832 11.376C66.1072 10.032 65.8192 8.784 65.8192 7.632C65.8192 5.52 66.4432 3.792 67.6912 2.448C68.9392 1.104 70.5472 0.431999 72.5152 0.431999C73.9072 0.431999 75.3952 0.647999 76.9792 1.08V5.616C75.7312 5.28 74.7952 5.112 74.1712 5.112C72.3952 5.112 71.5072 6.144 71.5072 8.208C71.5072 9.072 71.6992 9.768 72.0832 10.296C72.6112 11.016 73.3552 11.376 74.3152 11.376H79.3552V13.536L77.4112 15.984H64.1632V11.376H66.6832ZM77.6272 20.88V45.072C77.6272 47.184 76.9312 49.08 75.5392 50.76C73.7152 52.92 71.4112 54 68.6272 54H53.5792V44.712H65.4592C65.7472 44.712 65.9872 44.64 66.1792 44.496C66.4192 44.304 66.5392 44.04 66.5392 43.704V20.88H77.6272ZM98.681 2.448V43.704C98.681 43.8 98.705 43.944 98.753 44.136L98.825 44.208C98.969 44.544 99.257 44.712 99.689 44.712H102.353V54H96.521C94.169 54 92.105 53.16 90.329 51.48C88.505 49.704 87.593 47.568 87.593 45.072V2.448H98.681ZM111.319 22.104C116.119 20.712 120.271 20.016 123.775 20.016C129.535 20.016 134.407 21.816 138.391 25.416C142.039 28.776 143.863 32.88 143.863 37.728V45.072C143.863 47.52 142.999 49.608 141.271 51.336C139.495 53.112 137.359 54 134.863 54H101.743V44.712H131.695C132.367 44.712 132.703 44.376 132.703 43.704V38.952C132.703 35.784 131.335 33.312 128.599 31.536C126.439 30.144 123.943 29.448 121.111 29.448C118.471 29.448 115.207 29.952 111.319 30.96V22.104ZM190.687 18.936C192.271 18.936 193.591 19.488 194.647 20.592C195.751 21.696 196.303 23.016 196.303 24.552C196.303 26.136 195.751 27.48 194.647 28.584C193.591 29.64 192.271 30.168 190.687 30.168C189.151 30.168 187.831 29.64 186.727 28.584C185.623 27.48 185.071 26.136 185.071 24.552C185.071 23.016 185.623 21.696 186.727 20.592C187.831 19.488 189.151 18.936 190.687 18.936ZM203.575 18.936C205.159 18.936 206.479 19.488 207.535 20.592C208.639 21.696 209.191 23.016 209.191 24.552C209.191 26.136 208.639 27.48 207.535 28.584C206.479 29.64 205.159 30.168 203.575 30.168C202.039 30.168 200.719 29.64 199.615 28.584C198.511 27.48 197.959 26.136 197.959 24.552C197.959 23.016 198.511 21.696 199.615 20.592C200.719 19.488 202.039 18.936 203.575 18.936ZM228.271 20.88V45.072C228.271 47.28 227.551 49.2 226.111 50.832C224.335 52.944 222.079 54 219.343 54H179.743C176.383 54 173.431 52.92 170.887 50.76C167.623 47.976 165.991 44.4 165.991 40.032V30.6L171.607 26.064H177.079V40.032C177.079 41.472 177.583 42.648 178.591 43.56C179.503 44.328 180.463 44.712 181.471 44.712H216.103C216.823 44.712 217.183 44.376 217.183 43.704V20.88H228.271ZM249.29 2.448V43.704C249.29 43.8 249.314 43.944 249.362 44.136L249.434 44.208C249.578 44.544 249.866 44.712 250.298 44.712H252.962V54H247.13C244.778 54 242.714 53.16 240.938 51.48C239.114 49.704 238.202 47.568 238.202 45.072V2.448H249.29ZM264.017 44.712C263.585 42.552 263.369 39.936 263.369 36.864C263.369 31.296 265.193 26.952 268.841 23.832C271.817 21.336 275.441 20.088 279.713 20.088C284.513 20.088 288.281 21.24 291.017 23.544C293.993 26.088 295.481 29.4 295.481 33.48V43.704C295.481 43.992 295.577 44.232 295.769 44.424C296.009 44.616 296.297 44.712 296.633 44.712H297.785V54H293.393C291.185 54 289.217 53.28 287.489 51.84C285.233 54.72 282.113 56.16 278.129 56.16C274.241 56.16 270.905 54.648 268.121 51.624H267.833L265.961 54H252.353V44.712H264.017ZM284.393 33.552C284.393 32.448 284.033 31.464 283.313 30.6C282.497 29.736 281.393 29.304 280.001 29.304C278.225 29.304 276.833 30.024 275.825 31.464C274.817 32.856 274.313 34.8 274.313 37.296C274.313 43.68 276.041 46.872 279.497 46.872C281.177 46.872 282.809 46.152 284.393 44.712V33.552ZM321.33 20.88V44.064C321.33 44.256 321.354 44.472 321.402 44.712H325.002V54H322.77L319.602 50.688H319.386C317.61 52.896 315.282 54 312.402 54H297.354V44.712H308.802C309.282 44.712 309.642 44.568 309.882 44.28C310.122 44.04 310.242 43.704 310.242 43.272V20.88H321.33ZM302.754 57.312C304.338 57.312 305.682 57.864 306.786 58.968C307.89 60.072 308.442 61.416 308.442 63C308.442 64.536 307.89 65.856 306.786 66.96C305.682 68.064 304.338 68.616 302.754 68.616C301.218 68.616 299.898 68.064 298.794 66.96C297.69 65.856 297.138 64.536 297.138 63C297.138 61.416 297.69 60.072 298.794 58.968C299.898 57.864 301.218 57.312 302.754 57.312ZM315.642 57.312C317.226 57.312 318.57 57.864 319.674 58.968C320.778 60.072 321.33 61.416 321.33 63C321.33 64.536 320.778 65.856 319.674 66.96C318.57 68.064 317.226 68.616 315.642 68.616C314.106 68.616 312.786 68.064 311.682 66.96C310.626 65.856 310.098 64.536 310.098 63C310.098 61.416 310.626 60.072 311.682 58.968C312.786 57.864 314.106 57.312 315.642 57.312ZM347.247 5.04C348.783 5.04 350.079 5.592 351.135 6.696C352.239 7.752 352.791 9.072 352.791 10.656C352.791 12.24 352.239 13.584 351.135 14.688C350.079 15.744 348.783 16.272 347.247 16.272C345.663 16.272 344.319 15.72 343.215 14.616C342.111 13.512 341.559 12.192 341.559 10.656C341.559 9.12 342.111 7.8 343.215 6.696C344.319 5.592 345.663 5.04 347.247 5.04ZM333.999 22.104C338.559 20.712 342.759 20.016 346.599 20.016C352.311 20.016 357.135 21.816 361.071 25.416C364.719 28.776 366.543 32.88 366.543 37.728V44.064C366.543 44.256 366.567 44.472 366.615 44.712H368.847V54H367.407L364.743 50.688H364.527C362.751 52.896 360.423 54 357.543 54H324.423V44.712H354.375C355.047 44.712 355.383 44.376 355.383 43.704V38.952C355.383 36.216 354.279 33.96 352.071 32.184C349.911 30.36 347.199 29.448 343.935 29.448C341.247 29.448 337.935 29.952 333.999 30.96V22.104ZM381.258 33.48C381.258 29.4 382.746 26.088 385.722 23.544C388.41 21.24 392.106 20.088 396.81 20.088C400.842 20.088 404.25 21.096 407.034 23.112C411.21 26.136 413.298 30.72 413.298 36.864C413.298 42.384 411.954 46.992 409.266 50.688C406.53 54.336 402.906 56.16 398.394 56.16C394.506 56.16 391.434 54.72 389.178 51.84C387.45 53.28 385.506 54 383.346 54H368.298V44.712H380.178C380.514 44.712 380.778 44.616 380.97 44.424C381.162 44.184 381.258 43.944 381.258 43.704V33.48ZM392.346 44.712C393.45 46.104 394.866 46.8 396.594 46.8C398.322 46.8 399.714 45.984 400.77 44.352C401.826 42.72 402.354 40.56 402.354 37.872C402.354 34.992 401.802 32.808 400.698 31.32C399.642 29.976 398.202 29.304 396.378 29.304C395.178 29.304 394.17 29.736 393.354 30.6C392.682 31.464 392.346 32.448 392.346 33.552V44.712Z" fill="#154548"/>
</svg>
