<svg width="24" height="24" viewBox="0 0 24 24" fill="none" xmlns="http://www.w3.org/2000/svg">
<g id="business-time" clip-path="url(#clip0_471_768)">
<path id="Vector" d="M23.961 17.336C23.629 14.339 21.083 12 18 12C10.486 12.194 9.903 22.912 17.298 23.955C21.065 24.454 24.433 21.105 23.961 17.335V17.336ZM20 20C19.609 20.391 18.977 20.391 18.586 20L17.293 18.707C17.105 18.519 17 18.265 17 18V16C17.006 14.692 18.995 14.693 19 16V17.586L20 18.586C20.391 18.977 20.391 19.609 20 20ZM18 10C20.393 10 22.534 11.056 24 12.721V9C24 6.243 21.757 4 19 4H17.899C17.434 1.721 15.415 0 13 0H11C8.586 0 6.566 1.721 6.101 4H5C2.243 4 0 6.243 0 9V12H12.721C14.13 10.759 15.975 10 18 10ZM11 2H13C14.302 2 15.402 2.839 15.816 4H8.185C8.599 2.839 9.699 2 11.001 2H11ZM12.721 24H5C2.243 24 0 21.757 0 19V14H11.079C9.14 17.109 9.947 21.725 12.721 24Z" fill="#E0E0E0"/>
</g>
<defs>
<clipPath id="clip0_471_768">
<rect width="24" height="24" fill="white"/>
</clipPath>
</defs>
</svg>
