<svg width="24" height="24" viewBox="0 0 24 24" fill="none" xmlns="http://www.w3.org/2000/svg">
<g id="chart-user" clip-path="url(#clip0_471_776)">
<path id="Vector" d="M14 23C14 23.55 13.55 24 13 24H1C0.45 24 0 23.55 0 23C0 19.13 3.13 16 7 16C10.87 16 14 19.13 14 23ZM11 10C11 7.79 9.21 6 7 6C4.79 6 3 7.79 3 10C3 12.21 4.79 14 7 14C9.21 14 11 12.21 11 10ZM19 0H9C6.31 0 4.13 2.14 4.02 4.8C4.9 4.29 5.91 4 7 4C9.74 4 12.04 5.84 12.76 8.35L15 10.59L18.59 7H17C16.45 7 16 6.55 16 6C16 5.45 16.45 5 17 5H20C21.1 5 22 5.9 22 7V10C22 10.55 21.55 11 21 11C20.45 11 20 10.55 20 10V8.41L16.41 12C15.63 12.78 14.36 12.78 13.58 12L12.86 11.28C12.86 11.28 12.86 11.29 12.86 11.3C12.55 12.71 11.74 13.93 10.63 14.77C12.2 15.46 13.53 16.59 14.48 18H19.01C21.77 18 24.01 15.76 24.01 13V5C24.01 2.24 21.77 0 19.01 0H19Z" fill="#E0E0E0"/>
</g>
<defs>
<clipPath id="clip0_471_776">
<rect width="24" height="24" fill="white"/>
</clipPath>
</defs>
</svg>
