<svg width="20" height="24" viewBox="0 0 20 24" fill="none" xmlns="http://www.w3.org/2000/svg">
<path id="Vector" d="M12 7V0.46C12.913 0.806 13.753 1.339 14.465 2.05L17.949 5.536C18.661 6.247 19.194 7.087 19.54 8H13C12.448 8 12 7.551 12 7ZM19.976 10H13C11.346 10 10 8.654 10 7V0.024C9.839 0.013 9.678 0 9.515 0H5C2.243 0 0 2.243 0 5V14H3.965L5.668 11.445C5.865 11.149 6.21 10.972 6.562 11.002C6.918 11.024 7.235 11.234 7.395 11.553L9.624 16.012L10.668 14.446C10.854 14.168 11.166 14.001 11.5 14.001H16C16.552 14.001 17 14.449 17 15.001C17 15.553 16.552 16.001 16 16.001H12.035L10.332 18.556C10.146 18.835 9.833 19.001 9.5 19.001C9.479 19.001 9.458 19.001 9.438 18.999C9.082 18.977 8.765 18.767 8.605 18.448L6.376 13.989L5.332 15.555C5.146 15.833 4.834 16 4.5 16H0V19C0 21.757 2.243 24 5 24H15C17.757 24 20 21.757 20 19V10.485C20 10.322 19.987 10.161 19.976 10Z" fill="#E0E0E0"/>
</svg>
